<svg width="690" height="271" viewBox="0 0 690 271" fill="none" xmlns="http://www.w3.org/2000/svg">
    <mask id="path-1-inside-1_215_1439" fill="white">
    <path d="M0 0H690V40H0V0Z"/>
    </mask>
    <path d="M0 0H690V40H0V0Z" fill="white"/>
    <path d="M690 39H0V41H690V39Z" fill="#E5E5E5" mask="url(#path-1-inside-1_215_1439)"/>
    <mask id="path-3-inside-2_215_1439" fill="white">
    <path d="M0 40H690V80H0V40Z"/>
    </mask>
    <path d="M0 40H690V80H0V40Z" fill="white"/>
    <path d="M690 79H0V81H690V79Z" fill="#E5E5E5" mask="url(#path-3-inside-2_215_1439)"/>
    <mask id="path-5-inside-3_215_1439" fill="white">
    <path d="M0 80H690V120H0V80Z"/>
    </mask>
    <path d="M0 80H690V120H0V80Z" fill="white"/>
    <path d="M690 119H0V121H690V119Z" fill="#E5E5E5" mask="url(#path-5-inside-3_215_1439)"/>
    <mask id="path-7-inside-4_215_1439" fill="white">
    <path d="M0 120H690V160H0V120Z"/>
    </mask>
    <path d="M0 120H690V160H0V120Z" fill="white"/>
    <path d="M690 159H0V161H690V159Z" fill="#37434C" mask="url(#path-7-inside-4_215_1439)"/>
    <g clip-path="url(#clip0_215_1439)">
    <rect x="41" y="80" width="16" height="70" rx="8" fill="white"/>
    <line x1="34.6464" y1="80.9316" x2="62.9307" y2="52.6473" stroke="#CCCCCC"/>
    <line x1="34.6464" y1="87.9316" x2="62.9307" y2="59.6473" stroke="#CCCCCC"/>
    <line x1="34.6464" y1="94.9316" x2="62.9307" y2="66.6473" stroke="#CCCCCC"/>
    <line x1="34.6464" y1="101.932" x2="62.9307" y2="73.6473" stroke="#CCCCCC"/>
    <line x1="34.6464" y1="108.932" x2="62.9307" y2="80.6473" stroke="#CCCCCC"/>
    <line x1="34.6464" y1="115.932" x2="62.9307" y2="87.6473" stroke="#CCCCCC"/>
    <line x1="34.6464" y1="122.932" x2="62.9307" y2="94.6473" stroke="#CCCCCC"/>
    <line x1="34.6464" y1="129.932" x2="62.9307" y2="101.647" stroke="#CCCCCC"/>
    <line x1="34.6464" y1="136.932" x2="62.9307" y2="108.647" stroke="#CCCCCC"/>
    <line x1="34.6464" y1="143.932" x2="62.9307" y2="115.647" stroke="#CCCCCC"/>
    <line x1="34.6464" y1="150.932" x2="62.9307" y2="122.647" stroke="#CCCCCC"/>
    <line x1="34.6464" y1="157.932" x2="62.9307" y2="129.647" stroke="#CCCCCC"/>
    <line x1="34.6464" y1="164.932" x2="62.9307" y2="136.647" stroke="#CCCCCC"/>
    <line x1="34.6464" y1="171.932" x2="62.9307" y2="143.647" stroke="#CCCCCC"/>
    </g>
    <rect x="41.5" y="80.5" width="15" height="69" rx="7.5" stroke="#CCCCCC"/>
    <rect x="41" y="115" width="16" height="35" rx="8" fill="#af6249"/>
    <g clip-path="url(#clip1_215_1439)">
    <rect x="115" y="80" width="16" height="70" rx="8" fill="white"/>
    <line x1="108.646" y1="80.9316" x2="136.931" y2="52.6473" stroke="#CCCCCC"/>
    <line x1="108.646" y1="87.9316" x2="136.931" y2="59.6473" stroke="#CCCCCC"/>
    <line x1="108.646" y1="94.9316" x2="136.931" y2="66.6473" stroke="#CCCCCC"/>
    <line x1="108.646" y1="101.932" x2="136.931" y2="73.6473" stroke="#CCCCCC"/>
    <line x1="108.646" y1="108.932" x2="136.931" y2="80.6473" stroke="#CCCCCC"/>
    <line x1="108.646" y1="115.932" x2="136.931" y2="87.6473" stroke="#CCCCCC"/>
    <line x1="108.646" y1="122.932" x2="136.931" y2="94.6473" stroke="#CCCCCC"/>
    <line x1="108.646" y1="129.932" x2="136.931" y2="101.647" stroke="#CCCCCC"/>
    <line x1="108.646" y1="136.932" x2="136.931" y2="108.647" stroke="#CCCCCC"/>
    <line x1="108.646" y1="143.932" x2="136.931" y2="115.647" stroke="#CCCCCC"/>
    <line x1="108.646" y1="150.932" x2="136.931" y2="122.647" stroke="#CCCCCC"/>
    <line x1="108.646" y1="157.932" x2="136.931" y2="129.647" stroke="#CCCCCC"/>
    <line x1="108.646" y1="164.932" x2="136.931" y2="136.647" stroke="#CCCCCC"/>
    <line x1="108.646" y1="171.932" x2="136.931" y2="143.647" stroke="#CCCCCC"/>
    </g>
    <rect x="115.5" y="80.5" width="15" height="69" rx="7.5" stroke="#CCCCCC"/>
    <rect x="115" y="115" width="16" height="35" rx="8" fill="#af6249"/>
    <g clip-path="url(#clip2_215_1439)">
    <rect x="189" y="80" width="16" height="70" rx="8" fill="white"/>
    <line x1="182.646" y1="80.9316" x2="210.931" y2="52.6473" stroke="#CCCCCC"/>
    <line x1="182.646" y1="87.9316" x2="210.931" y2="59.6473" stroke="#CCCCCC"/>
    <line x1="182.646" y1="94.9316" x2="210.931" y2="66.6473" stroke="#CCCCCC"/>
    <line x1="182.646" y1="101.932" x2="210.931" y2="73.6473" stroke="#CCCCCC"/>
    <line x1="182.646" y1="108.932" x2="210.931" y2="80.6473" stroke="#CCCCCC"/>
    <line x1="182.646" y1="115.932" x2="210.931" y2="87.6473" stroke="#CCCCCC"/>
    <line x1="182.646" y1="122.932" x2="210.931" y2="94.6473" stroke="#CCCCCC"/>
    <line x1="182.646" y1="129.932" x2="210.931" y2="101.647" stroke="#CCCCCC"/>
    <line x1="182.646" y1="136.932" x2="210.931" y2="108.647" stroke="#CCCCCC"/>
    <line x1="182.646" y1="143.932" x2="210.931" y2="115.647" stroke="#CCCCCC"/>
    <line x1="182.646" y1="150.932" x2="210.931" y2="122.647" stroke="#CCCCCC"/>
    <line x1="182.646" y1="157.932" x2="210.931" y2="129.647" stroke="#CCCCCC"/>
    <line x1="182.646" y1="164.932" x2="210.931" y2="136.647" stroke="#CCCCCC"/>
    <line x1="182.646" y1="171.932" x2="210.931" y2="143.647" stroke="#CCCCCC"/>
    </g>
    <rect x="189.5" y="80.5" width="15" height="69" rx="7.5" stroke="#CCCCCC"/>
    <rect x="189" y="115" width="16" height="35" rx="8" fill="#af6249"/>
    <g clip-path="url(#clip3_215_1439)">
    <rect x="263" y="80" width="16" height="70" rx="8" fill="white"/>
    <line x1="256.646" y1="80.9316" x2="284.931" y2="52.6473" stroke="#CCCCCC"/>
    <line x1="256.646" y1="87.9316" x2="284.931" y2="59.6473" stroke="#CCCCCC"/>
    <line x1="256.646" y1="94.9316" x2="284.931" y2="66.6473" stroke="#CCCCCC"/>
    <line x1="256.646" y1="101.932" x2="284.931" y2="73.6473" stroke="#CCCCCC"/>
    <line x1="256.646" y1="108.932" x2="284.931" y2="80.6473" stroke="#CCCCCC"/>
    <line x1="256.646" y1="115.932" x2="284.931" y2="87.6473" stroke="#CCCCCC"/>
    <line x1="256.646" y1="122.932" x2="284.931" y2="94.6473" stroke="#CCCCCC"/>
    <line x1="256.646" y1="129.932" x2="284.931" y2="101.647" stroke="#CCCCCC"/>
    <line x1="256.646" y1="136.932" x2="284.931" y2="108.647" stroke="#CCCCCC"/>
    <line x1="256.646" y1="143.932" x2="284.931" y2="115.647" stroke="#CCCCCC"/>
    <line x1="256.646" y1="150.932" x2="284.931" y2="122.647" stroke="#CCCCCC"/>
    <line x1="256.646" y1="157.932" x2="284.931" y2="129.647" stroke="#CCCCCC"/>
    <line x1="256.646" y1="164.932" x2="284.931" y2="136.647" stroke="#CCCCCC"/>
    <line x1="256.646" y1="171.932" x2="284.931" y2="143.647" stroke="#CCCCCC"/>
    </g>
    <rect x="263.5" y="80.5" width="15" height="69" rx="7.5" stroke="#CCCCCC"/>
    <rect x="263" y="115" width="16" height="35" rx="8" fill="#af6249"/>
    <g clip-path="url(#clip4_215_1439)">
    <rect x="337" y="80" width="16" height="70" rx="8" fill="white"/>
    <line x1="330.646" y1="80.9316" x2="358.931" y2="52.6473" stroke="#CCCCCC"/>
    <line x1="330.646" y1="87.9316" x2="358.931" y2="59.6473" stroke="#CCCCCC"/>
    <line x1="330.646" y1="94.9316" x2="358.931" y2="66.6473" stroke="#CCCCCC"/>
    <line x1="330.646" y1="101.932" x2="358.931" y2="73.6473" stroke="#CCCCCC"/>
    <line x1="330.646" y1="108.932" x2="358.931" y2="80.6473" stroke="#CCCCCC"/>
    <line x1="330.646" y1="115.932" x2="358.931" y2="87.6473" stroke="#CCCCCC"/>
    <line x1="330.646" y1="122.932" x2="358.931" y2="94.6473" stroke="#CCCCCC"/>
    <line x1="330.646" y1="129.932" x2="358.931" y2="101.647" stroke="#CCCCCC"/>
    <line x1="330.646" y1="136.932" x2="358.931" y2="108.647" stroke="#CCCCCC"/>
    <line x1="330.646" y1="143.932" x2="358.931" y2="115.647" stroke="#CCCCCC"/>
    <line x1="330.646" y1="150.932" x2="358.931" y2="122.647" stroke="#CCCCCC"/>
    <line x1="330.646" y1="157.932" x2="358.931" y2="129.647" stroke="#CCCCCC"/>
    <line x1="330.646" y1="164.932" x2="358.931" y2="136.647" stroke="#CCCCCC"/>
    <line x1="330.646" y1="171.932" x2="358.931" y2="143.647" stroke="#CCCCCC"/>
    </g>
    <rect x="337.5" y="80.5" width="15" height="69" rx="7.5" stroke="#CCCCCC"/>
    <rect x="337" y="115" width="16" height="35" rx="8" fill="#af6249"/>
    <g clip-path="url(#clip5_215_1439)">
    <rect x="411" y="80" width="16" height="70" rx="8" fill="white"/>
    <line x1="404.646" y1="80.9316" x2="432.931" y2="52.6473" stroke="#CCCCCC"/>
    <line x1="404.646" y1="87.9316" x2="432.931" y2="59.6473" stroke="#CCCCCC"/>
    <line x1="404.646" y1="94.9316" x2="432.931" y2="66.6473" stroke="#CCCCCC"/>
    <line x1="404.646" y1="101.932" x2="432.931" y2="73.6473" stroke="#CCCCCC"/>
    <line x1="404.646" y1="108.932" x2="432.931" y2="80.6473" stroke="#CCCCCC"/>
    <line x1="404.646" y1="115.932" x2="432.931" y2="87.6473" stroke="#CCCCCC"/>
    <line x1="404.646" y1="122.932" x2="432.931" y2="94.6473" stroke="#CCCCCC"/>
    <line x1="404.646" y1="129.932" x2="432.931" y2="101.647" stroke="#CCCCCC"/>
    <line x1="404.646" y1="136.932" x2="432.931" y2="108.647" stroke="#CCCCCC"/>
    <line x1="404.646" y1="143.932" x2="432.931" y2="115.647" stroke="#CCCCCC"/>
    <line x1="404.646" y1="150.932" x2="432.931" y2="122.647" stroke="#CCCCCC"/>
    <line x1="404.646" y1="157.932" x2="432.931" y2="129.647" stroke="#CCCCCC"/>
    <line x1="404.646" y1="164.932" x2="432.931" y2="136.647" stroke="#CCCCCC"/>
    <line x1="404.646" y1="171.932" x2="432.931" y2="143.647" stroke="#CCCCCC"/>
    </g>
    <rect x="411.5" y="80.5" width="15" height="69" rx="7.5" stroke="#CCCCCC"/>
    <rect x="411" y="115" width="16" height="35" rx="8" fill="#af6249"/>
    <g clip-path="url(#clip6_215_1439)">
    <rect x="485" y="80" width="16" height="70" rx="8" fill="white"/>
    <line x1="478.646" y1="80.9316" x2="506.931" y2="52.6473" stroke="#CCCCCC"/>
    <line x1="478.646" y1="87.9316" x2="506.931" y2="59.6473" stroke="#CCCCCC"/>
    <line x1="478.646" y1="94.9316" x2="506.931" y2="66.6473" stroke="#CCCCCC"/>
    <line x1="478.646" y1="101.932" x2="506.931" y2="73.6473" stroke="#CCCCCC"/>
    <line x1="478.646" y1="108.932" x2="506.931" y2="80.6473" stroke="#CCCCCC"/>
    <line x1="478.646" y1="115.932" x2="506.931" y2="87.6473" stroke="#CCCCCC"/>
    <line x1="478.646" y1="122.932" x2="506.931" y2="94.6473" stroke="#CCCCCC"/>
    <line x1="478.646" y1="129.932" x2="506.931" y2="101.647" stroke="#CCCCCC"/>
    <line x1="478.646" y1="136.932" x2="506.931" y2="108.647" stroke="#CCCCCC"/>
    <line x1="478.646" y1="143.932" x2="506.931" y2="115.647" stroke="#CCCCCC"/>
    <line x1="478.646" y1="150.932" x2="506.931" y2="122.647" stroke="#CCCCCC"/>
    <line x1="478.646" y1="157.932" x2="506.931" y2="129.647" stroke="#CCCCCC"/>
    <line x1="478.646" y1="164.932" x2="506.931" y2="136.647" stroke="#CCCCCC"/>
    <line x1="478.646" y1="171.932" x2="506.931" y2="143.647" stroke="#CCCCCC"/>
    </g>
    <rect x="485.5" y="80.5" width="15" height="69" rx="7.5" stroke="#CCCCCC"/>
    <rect x="485" y="115" width="16" height="35" rx="8" fill="#af6249"/>
    <g clip-path="url(#clip7_215_1439)">
    <rect x="559" y="80" width="16" height="70" rx="8" fill="white"/>
    <line x1="552.646" y1="80.9316" x2="580.931" y2="52.6473" stroke="#CCCCCC"/>
    <line x1="552.646" y1="87.9316" x2="580.931" y2="59.6473" stroke="#CCCCCC"/>
    <line x1="552.646" y1="94.9316" x2="580.931" y2="66.6473" stroke="#CCCCCC"/>
    <line x1="552.646" y1="101.932" x2="580.931" y2="73.6473" stroke="#CCCCCC"/>
    <line x1="552.646" y1="108.932" x2="580.931" y2="80.6473" stroke="#CCCCCC"/>
    <line x1="552.646" y1="115.932" x2="580.931" y2="87.6473" stroke="#CCCCCC"/>
    <line x1="552.646" y1="122.932" x2="580.931" y2="94.6473" stroke="#CCCCCC"/>
    <line x1="552.646" y1="129.932" x2="580.931" y2="101.647" stroke="#CCCCCC"/>
    <line x1="552.646" y1="136.932" x2="580.931" y2="108.647" stroke="#CCCCCC"/>
    <line x1="552.646" y1="143.932" x2="580.931" y2="115.647" stroke="#CCCCCC"/>
    <line x1="552.646" y1="150.932" x2="580.931" y2="122.647" stroke="#CCCCCC"/>
    <line x1="552.646" y1="157.932" x2="580.931" y2="129.647" stroke="#CCCCCC"/>
    <line x1="552.646" y1="164.932" x2="580.931" y2="136.647" stroke="#CCCCCC"/>
    <line x1="552.646" y1="171.932" x2="580.931" y2="143.647" stroke="#CCCCCC"/>
    </g>
    <rect x="559.5" y="80.5" width="15" height="69" rx="7.5" stroke="#CCCCCC"/>
    <rect x="559" y="115" width="16" height="35" rx="8" fill="#af6249"/>
    <g clip-path="url(#clip8_215_1439)">
    <rect x="633" width="16" height="150" rx="8" fill="white"/>
    <line x1="626.646" y1="19.789" x2="654.931" y2="-8.49525" stroke="#CCCCCC"/>
    <line x1="626.646" y1="26.9316" x2="654.931" y2="-1.35267" stroke="#CCCCCC"/>
    <line x1="626.646" y1="33.9316" x2="654.931" y2="5.64733" stroke="#CCCCCC"/>
    <line x1="626.646" y1="40.9316" x2="654.931" y2="12.6473" stroke="#CCCCCC"/>
    <line x1="626.646" y1="47.9316" x2="654.931" y2="19.6473" stroke="#CCCCCC"/>
    <line x1="626.646" y1="54.9316" x2="654.931" y2="26.6473" stroke="#CCCCCC"/>
    <line x1="626.646" y1="61.9316" x2="654.931" y2="33.6473" stroke="#CCCCCC"/>
    <line x1="626.646" y1="68.9316" x2="654.931" y2="40.6473" stroke="#CCCCCC"/>
    <line x1="626.646" y1="75.9316" x2="654.931" y2="47.6473" stroke="#CCCCCC"/>
    <line x1="626.646" y1="82.9316" x2="654.931" y2="54.6473" stroke="#CCCCCC"/>
    <line x1="626.646" y1="89.9316" x2="654.931" y2="61.6473" stroke="#CCCCCC"/>
    <line x1="626.646" y1="96.9316" x2="654.931" y2="68.6473" stroke="#CCCCCC"/>
    <line x1="626.646" y1="103.932" x2="654.931" y2="75.6473" stroke="#CCCCCC"/>
    <line x1="626.646" y1="110.932" x2="654.931" y2="82.6473" stroke="#CCCCCC"/>
    <line x1="626.646" y1="117.932" x2="654.931" y2="89.6473" stroke="#CCCCCC"/>
    <line x1="626.646" y1="124.932" x2="654.931" y2="96.6473" stroke="#CCCCCC"/>
    <line x1="626.646" y1="131.932" x2="654.931" y2="103.647" stroke="#CCCCCC"/>
    <line x1="626.646" y1="138.932" x2="654.931" y2="110.647" stroke="#CCCCCC"/>
    <line x1="626.646" y1="145.932" x2="654.931" y2="117.647" stroke="#CCCCCC"/>
    <line x1="626.646" y1="152.932" x2="654.931" y2="124.647" stroke="#CCCCCC"/>
    <line x1="626.646" y1="159.932" x2="654.931" y2="131.647" stroke="#CCCCCC"/>
    </g>
    <rect x="633.5" y="0.5" width="15" height="149" rx="7.5" stroke="#CCCCCC"/>
    <rect x="633" y="80" width="16" height="70" rx="8" fill="#af6249"/>
    <path d="M45.5325 185.175L45.5195 183.901L47.7815 182.445H48.8995V192.195H47.6905V183.758L45.5325 185.175Z" fill="#05141F"/>
    <path d="M119.727 187.814V187.619C119.727 184.252 121.287 182.315 123.445 182.315C124.446 182.315 125.2 182.757 125.616 183.147V184.564C125.122 183.797 124.407 183.29 123.484 183.29C122.184 183.29 121.105 184.447 120.988 187.138C121.547 186.371 122.483 186.007 123.315 186.007C124.927 186.007 126.279 187.151 126.279 189.14C126.279 191.077 124.875 192.325 123.133 192.325C121.404 192.325 119.727 191.22 119.727 187.814ZM120.975 188.308C121.079 190.245 121.898 191.35 123.133 191.35C124.251 191.35 125.031 190.427 125.031 189.166C125.031 187.931 124.264 186.982 123.081 186.982C122.249 186.982 121.469 187.437 120.975 188.308Z" fill="#05141F"/>
    <path d="M190.635 185.175L190.622 183.901L192.884 182.445H194.002V192.195H192.793V183.758L190.635 185.175ZM203.968 192.195H197.845V191.363L201.225 187.697C202.07 186.787 202.473 186.176 202.473 185.175C202.473 184.148 201.758 183.303 200.653 183.303C199.561 183.303 198.768 183.94 198.235 184.811V183.342C198.664 182.874 199.535 182.315 200.718 182.315C202.616 182.315 203.708 183.589 203.708 185.162C203.708 186.644 202.941 187.528 201.953 188.581L199.509 191.207H203.968V192.195Z" fill="#05141F"/>
    <path d="M264.635 185.175L264.622 183.901L266.884 182.445H268.002V192.195H266.793V183.758L264.635 185.175ZM271.559 189.595C271.559 188.464 272.3 187.463 273.574 187.034C272.521 186.605 271.936 185.747 271.936 184.759C271.936 183.615 272.937 182.315 274.861 182.315C276.915 182.315 277.864 183.615 277.864 184.746C277.864 185.786 277.188 186.514 276.291 186.956C277.435 187.411 278.241 188.282 278.241 189.569C278.241 191.181 276.928 192.325 274.9 192.325C273.08 192.325 271.559 191.298 271.559 189.595ZM273.171 184.798C273.171 185.656 273.821 186.163 275.277 186.605C276.044 186.254 276.642 185.63 276.642 184.85C276.642 183.992 275.992 183.264 274.874 183.264C273.808 183.264 273.158 183.979 273.171 184.798ZM272.794 189.543C272.794 190.661 273.743 191.363 274.887 191.363C276.174 191.363 277.006 190.57 277.006 189.543C277.006 188.594 276.434 187.983 274.614 187.424C273.535 187.84 272.794 188.594 272.794 189.543Z" fill="#05141F"/>
    <path d="M344.173 192.195H338.05V191.363L341.43 187.697C342.275 186.787 342.678 186.176 342.678 185.175C342.678 184.148 341.963 183.303 340.858 183.303C339.766 183.303 338.973 183.94 338.44 184.811V183.342C338.869 182.874 339.74 182.315 340.923 182.315C342.821 182.315 343.913 183.589 343.913 185.162C343.913 186.644 343.146 187.528 342.158 188.581L339.714 191.207H344.173V192.195ZM351.279 182.445V189.049H352.579V190.037H351.279V192.195H350.083V190.037H345.234V189.244L349.745 182.445H351.279ZM350.083 183.758L346.599 189.062H350.096L350.083 183.758Z" fill="#05141F"/>
    <path d="M412.063 191.337V189.868C412.622 190.778 413.519 191.35 414.676 191.35C415.872 191.35 416.873 190.674 416.873 189.478C416.873 188.555 416.366 187.58 414.754 187.567H413.896V186.566H414.728C415.794 186.566 416.691 185.903 416.652 184.902C416.613 183.771 415.716 183.29 414.858 183.29C413.753 183.29 412.973 183.94 412.466 184.798V183.342C412.869 182.874 413.766 182.315 414.962 182.315C416.782 182.315 417.913 183.407 417.913 184.837C417.913 186.085 417.094 186.696 416.21 187.008C417.445 187.307 418.147 188.282 418.147 189.517C418.147 191.207 416.73 192.325 414.741 192.325C413.402 192.325 412.479 191.779 412.063 191.337ZM419.416 187.463V187.203C419.416 184.382 420.534 182.315 422.913 182.315C425.292 182.315 426.397 184.369 426.397 187.203V187.463C426.397 190.297 425.292 192.325 422.913 192.325C420.534 192.325 419.416 190.297 419.416 187.463ZM420.664 187.203V187.463C420.664 189.764 421.366 191.35 422.913 191.35C424.447 191.35 425.149 189.764 425.149 187.463V187.203C425.149 184.889 424.46 183.29 422.913 183.29C421.353 183.29 420.664 184.889 420.664 187.203Z" fill="#05141F"/>
    <path d="M486.063 191.337V189.868C486.622 190.778 487.519 191.35 488.676 191.35C489.872 191.35 490.873 190.674 490.873 189.478C490.873 188.555 490.366 187.58 488.754 187.567H487.896V186.566H488.728C489.794 186.566 490.691 185.903 490.652 184.902C490.613 183.771 489.716 183.29 488.858 183.29C487.753 183.29 486.973 183.94 486.466 184.798V183.342C486.869 182.874 487.766 182.315 488.962 182.315C490.782 182.315 491.913 183.407 491.913 184.837C491.913 186.085 491.094 186.696 490.21 187.008C491.445 187.307 492.147 188.282 492.147 189.517C492.147 191.207 490.73 192.325 488.741 192.325C487.402 192.325 486.479 191.779 486.063 191.337ZM493.624 187.814V187.619C493.624 184.252 495.184 182.315 497.342 182.315C498.343 182.315 499.097 182.757 499.513 183.147V184.564C499.019 183.797 498.304 183.29 497.381 183.29C496.081 183.29 495.002 184.447 494.885 187.138C495.444 186.371 496.38 186.007 497.212 186.007C498.824 186.007 500.176 187.151 500.176 189.14C500.176 191.077 498.772 192.325 497.03 192.325C495.301 192.325 493.624 191.22 493.624 187.814ZM494.872 188.308C494.976 190.245 495.795 191.35 497.03 191.35C498.148 191.35 498.928 190.427 498.928 189.166C498.928 187.931 498.161 186.982 496.978 186.982C496.146 186.982 495.366 187.437 494.872 188.308Z" fill="#05141F"/>
    <path d="M565.484 182.445V189.049H566.784V190.037H565.484V192.195H564.288V190.037H559.439V189.244L563.95 182.445H565.484ZM564.288 183.758L560.804 189.062H564.301L564.288 183.758ZM573.968 192.195H567.845V191.363L571.225 187.697C572.07 186.787 572.473 186.176 572.473 185.175C572.473 184.148 571.758 183.303 570.653 183.303C569.561 183.303 568.768 183.94 568.235 184.811V183.342C568.664 182.874 569.535 182.315 570.718 182.315C572.616 182.315 573.708 183.589 573.708 185.162C573.708 186.644 572.941 187.528 571.953 188.581L569.509 191.207H573.968V192.195Z" fill="#05141F"/>
    <path d="M639.484 182.445V189.049H640.784V190.037H639.484V192.195H638.288V190.037H633.439V189.244L637.95 182.445H639.484ZM638.288 183.758L634.804 189.062H638.301L638.288 183.758ZM641.559 189.595C641.559 188.464 642.3 187.463 643.574 187.034C642.521 186.605 641.936 185.747 641.936 184.759C641.936 183.615 642.937 182.315 644.861 182.315C646.915 182.315 647.864 183.615 647.864 184.746C647.864 185.786 647.188 186.514 646.291 186.956C647.435 187.411 648.241 188.282 648.241 189.569C648.241 191.181 646.928 192.325 644.9 192.325C643.08 192.325 641.559 191.298 641.559 189.595ZM643.171 184.798C643.171 185.656 643.821 186.163 645.277 186.605C646.044 186.254 646.642 185.63 646.642 184.85C646.642 183.992 645.992 183.264 644.874 183.264C643.808 183.264 643.158 183.979 643.171 184.798ZM642.794 189.543C642.794 190.661 643.743 191.363 644.887 191.363C646.174 191.363 647.006 190.57 647.006 189.543C647.006 188.594 646.434 187.983 644.614 187.424C643.535 187.84 642.794 188.594 642.794 189.543Z" fill="#05141F"/>
    <g clip-path="url(#clip9_215_1439)">
    <path d="M22.15 258.651L19.36 255.861C19.04 255.541 18.5 255.761 18.5 256.211V258.001H4.5C3.95 258.001 3.5 258.451 3.5 259.001C3.5 259.551 3.95 260.001 4.5 260.001H18.5V261.791C18.5 262.241 19.04 262.461 19.35 262.141L22.14 259.351C22.34 259.161 22.34 258.841 22.15 258.651Z" fill="black"/>
    </g>
    <path d="M35.0895 263.195H33.8805V253.315H35.0895V263.195ZM38.4253 263.195H37.2813V256.097H38.3213L38.4123 257.527C38.8673 256.734 39.7513 255.902 40.9473 255.902C42.4423 255.902 43.2743 256.825 43.2743 258.528V263.195H42.1173V258.619C42.1173 257.501 41.7793 256.825 40.7653 256.825C39.7773 256.825 38.7113 257.865 38.4253 259.009V263.195ZM44.9807 262.623V261.401C45.5657 262.116 46.3457 262.467 47.2297 262.467C48.1787 262.467 48.7637 262.038 48.7637 261.375C48.7637 260.92 48.5817 260.582 47.7237 260.231L46.7617 259.841C45.6307 259.373 45.0457 258.762 45.0457 257.813C45.0457 256.812 45.8647 255.902 47.4507 255.902C48.3477 255.902 49.1537 256.292 49.6217 256.708V257.917C48.9717 257.176 48.1917 256.825 47.4507 256.825C46.5277 256.825 46.1767 257.319 46.1767 257.774C46.1767 258.229 46.5147 258.502 47.2817 258.814L48.2177 259.191C49.4007 259.672 49.9077 260.322 49.9077 261.297C49.9077 262.597 48.7897 263.39 47.2297 263.39C46.1767 263.39 45.4097 263.013 44.9807 262.623ZM52.2399 257.02H50.6799V256.097H52.2399V253.939H53.3839V256.097H54.9569V257.02H53.3839V263.195H52.2399V257.02ZM55.7157 261.323C55.7157 260.842 55.8457 260.439 56.1057 260.088C56.5477 259.49 57.3667 259.217 58.7057 258.97L60.4737 258.658C60.4477 257.436 59.8757 256.799 58.5887 256.799C57.6527 256.799 56.8207 257.28 56.2877 257.943V256.812C56.7817 256.331 57.6267 255.902 58.7057 255.902C60.4347 255.902 61.6177 256.747 61.6177 258.619V263.195H60.7207L60.5127 262.103C59.8757 262.896 58.9657 263.39 57.8867 263.39C56.5867 263.39 55.7157 262.649 55.7157 261.323ZM56.8727 261.271C56.8727 262.064 57.3797 262.454 58.1077 262.454C58.9657 262.454 59.9667 261.869 60.4867 260.894V259.529L59.3037 259.75C58.2117 259.945 57.4577 260.101 57.1067 260.53C56.9377 260.738 56.8727 260.985 56.8727 261.271ZM64.8062 263.195H63.6622V253.237H64.8062V263.195ZM68.0816 263.195H66.9376V253.237H68.0816V263.195ZM71.357 263.195H70.213V256.097H71.24L71.318 257.384C71.799 256.591 72.553 255.902 73.645 255.902C74.633 255.902 75.374 256.435 75.621 257.462C76.141 256.591 76.934 255.902 78.039 255.902C79.3 255.902 80.158 256.734 80.158 258.372V263.195H79.014V258.463C79.014 257.358 78.676 256.812 77.818 256.812C76.999 256.812 76.037 257.709 75.751 258.71V263.195H74.607V258.437C74.607 257.358 74.269 256.812 73.411 256.812C72.605 256.812 71.669 257.683 71.357 258.71V263.195ZM81.6393 259.763V259.477C81.6393 257.397 82.9263 255.902 84.8243 255.902C86.6963 255.902 87.8793 257.15 87.8793 259.555V260.023H82.7833C82.8613 261.427 83.6413 262.467 84.9673 262.48C86.0983 262.48 86.9043 262.012 87.4763 261.401V262.558C86.9173 263.039 86.1763 263.39 84.9673 263.39C82.8483 263.39 81.6393 261.895 81.6393 259.763ZM82.7963 259.126H86.7353C86.7093 257.527 85.9033 256.799 84.8113 256.812C83.7453 256.812 82.8743 257.709 82.7963 259.126ZM90.6665 263.195H89.5225V256.097H90.5625L90.6535 257.527C91.1085 256.734 91.9925 255.902 93.1885 255.902C94.6835 255.902 95.5155 256.825 95.5155 258.528V263.195H94.3585V258.619C94.3585 257.501 94.0205 256.825 93.0065 256.825C92.0185 256.825 90.9525 257.865 90.6665 259.009V263.195ZM98.1969 257.02H96.6369V256.097H98.1969V253.939H99.3409V256.097H100.914V257.02H99.3409V263.195H98.1969V257.02ZM106.967 266.055H105.823V256.097H106.863L106.954 257.241C107.422 256.474 108.28 255.902 109.255 255.902C111.023 255.902 112.362 257.358 112.362 259.633C112.362 261.934 111.023 263.39 109.255 263.39C108.306 263.39 107.474 262.857 106.967 262.129V266.055ZM106.967 258.515V260.777C107.305 261.739 108.163 262.467 109.06 262.467C110.243 262.467 111.179 261.401 111.179 259.633C111.179 257.878 110.269 256.812 109.073 256.812C108.163 256.812 107.305 257.566 106.967 258.515ZM113.606 259.763V259.477C113.606 257.397 114.893 255.902 116.791 255.902C118.663 255.902 119.846 257.15 119.846 259.555V260.023H114.75C114.828 261.427 115.608 262.467 116.934 262.48C118.065 262.48 118.871 262.012 119.443 261.401V262.558C118.884 263.039 118.143 263.39 116.934 263.39C114.815 263.39 113.606 261.895 113.606 259.763ZM114.763 259.126H118.702C118.676 257.527 117.87 256.799 116.778 256.812C115.712 256.812 114.841 257.709 114.763 259.126ZM122.633 263.195H121.489V256.097H122.529L122.607 257.332C122.997 256.474 123.712 255.902 124.726 255.902C124.973 255.902 125.272 255.941 125.389 255.993V257.007C125.207 256.942 124.973 256.903 124.661 256.903C123.777 256.903 122.945 257.54 122.633 258.58V263.195ZM127.8 254.927H126.656V253.484H127.8V254.927ZM127.8 263.195H126.656V256.097H127.8V263.195ZM129.425 259.763V259.542C129.425 257.371 130.803 255.902 132.753 255.902C134.716 255.902 136.081 257.371 136.081 259.542V259.763C136.081 261.934 134.716 263.39 132.753 263.39C130.803 263.39 129.425 261.934 129.425 259.763ZM130.621 259.542V259.763C130.621 261.401 131.427 262.48 132.753 262.48C134.092 262.48 134.898 261.401 134.898 259.763V259.542C134.898 257.904 134.092 256.812 132.753 256.812C131.427 256.812 130.621 257.904 130.621 259.542ZM137.334 259.633C137.334 257.358 138.673 255.902 140.454 255.902C141.39 255.902 142.222 256.422 142.729 257.15V253.237H143.873V263.195H142.833L142.742 262.09C142.261 262.831 141.416 263.39 140.454 263.39C138.673 263.39 137.334 261.934 137.334 259.633ZM138.53 259.633C138.53 261.414 139.44 262.48 140.636 262.48C141.533 262.48 142.378 261.739 142.729 260.803V258.489C142.378 257.54 141.533 256.812 140.649 256.812C139.466 256.812 138.53 257.878 138.53 259.633ZM149.583 258.58C149.583 255.681 150.558 253.796 151.507 252.6H152.521C151.65 253.77 150.844 255.941 150.844 258.58C150.844 261.219 151.65 263.39 152.521 264.56H151.507C150.558 263.364 149.583 261.479 149.583 258.58ZM155.298 263.195H154.154V256.097H155.181L155.259 257.384C155.74 256.591 156.494 255.902 157.586 255.902C158.574 255.902 159.315 256.435 159.562 257.462C160.082 256.591 160.875 255.902 161.98 255.902C163.241 255.902 164.099 256.734 164.099 258.372V263.195H162.955V258.463C162.955 257.358 162.617 256.812 161.759 256.812C160.94 256.812 159.978 257.709 159.692 258.71V263.195H158.548V258.437C158.548 257.358 158.21 256.812 157.352 256.812C156.546 256.812 155.61 257.683 155.298 258.71V263.195ZM165.594 259.763V259.542C165.594 257.371 166.972 255.902 168.922 255.902C170.885 255.902 172.25 257.371 172.25 259.542V259.763C172.25 261.934 170.885 263.39 168.922 263.39C166.972 263.39 165.594 261.934 165.594 259.763ZM166.79 259.542V259.763C166.79 261.401 167.596 262.48 168.922 262.48C170.261 262.48 171.067 261.401 171.067 259.763V259.542C171.067 257.904 170.261 256.812 168.922 256.812C167.596 256.812 166.79 257.904 166.79 259.542ZM175.027 263.195H173.883V256.097H174.923L175.014 257.527C175.469 256.734 176.353 255.902 177.549 255.902C179.044 255.902 179.876 256.825 179.876 258.528V263.195H178.719V258.619C178.719 257.501 178.381 256.825 177.367 256.825C176.379 256.825 175.313 257.865 175.027 259.009V263.195ZM182.557 257.02H180.997V256.097H182.557V253.939H183.701V256.097H185.274V257.02H183.701V263.195H182.557V257.02ZM187.684 263.195H186.54V253.237H187.684V257.501C188.139 256.721 189.023 255.902 190.193 255.902C191.701 255.902 192.52 256.825 192.52 258.528V263.195H191.376V258.619C191.376 257.501 191.038 256.825 190.024 256.825C189.036 256.825 187.983 257.839 187.684 258.97V263.195ZM194.239 262.623V261.401C194.824 262.116 195.604 262.467 196.488 262.467C197.437 262.467 198.022 262.038 198.022 261.375C198.022 260.92 197.84 260.582 196.982 260.231L196.02 259.841C194.889 259.373 194.304 258.762 194.304 257.813C194.304 256.812 195.123 255.902 196.709 255.902C197.606 255.902 198.412 256.292 198.88 256.708V257.917C198.23 257.176 197.45 256.825 196.709 256.825C195.786 256.825 195.435 257.319 195.435 257.774C195.435 258.229 195.773 258.502 196.54 258.814L197.476 259.191C198.659 259.672 199.166 260.322 199.166 261.297C199.166 262.597 198.048 263.39 196.488 263.39C195.435 263.39 194.668 263.013 194.239 262.623ZM201.33 264.56H200.303C201.174 263.39 201.98 261.219 201.98 258.58C201.98 255.941 201.174 253.77 200.303 252.6H201.33C202.279 253.796 203.254 255.681 203.254 258.58C203.254 261.479 202.279 263.364 201.33 264.56Z" fill="#05141F"/>
    <g clip-path="url(#clip10_215_1439)">
    <rect x="366.5" y="251" width="16" height="16" rx="8" fill="white"/>
    <line x1="360.146" y1="252.932" x2="388.431" y2="224.647" stroke="#CCCCCC"/>
    <line x1="360.146" y1="259.932" x2="388.431" y2="231.647" stroke="#CCCCCC"/>
    <line x1="360.146" y1="266.932" x2="388.431" y2="238.647" stroke="#CCCCCC"/>
    <line x1="360.146" y1="273.932" x2="388.431" y2="245.647" stroke="#CCCCCC"/>
    <line x1="360.146" y1="280.932" x2="388.431" y2="252.647" stroke="#CCCCCC"/>
    <line x1="360.146" y1="287.932" x2="388.431" y2="259.647" stroke="#CCCCCC"/>
    <line x1="360.146" y1="294.932" x2="388.431" y2="266.647" stroke="#CCCCCC"/>
    </g>
    <rect x="367" y="251.5" width="15" height="15" rx="7.5" stroke="#CCCCCC"/>
    <path d="M366.5 259H382.5C382.5 263.418 378.918 267 374.5 267C370.082 267 366.5 263.418 366.5 259Z" fill="#af6249"/>
    <path d="M393.161 263.195H391.978V253.315H393.486L396.762 261.063L400.051 253.315H401.455V263.195H400.272V255.395L396.957 263.195H396.463L393.161 255.395V263.195ZM403.314 259.763V259.542C403.314 257.371 404.692 255.902 406.642 255.902C408.605 255.902 409.97 257.371 409.97 259.542V259.763C409.97 261.934 408.605 263.39 406.642 263.39C404.692 263.39 403.314 261.934 403.314 259.763ZM404.51 259.542V259.763C404.51 261.401 405.316 262.48 406.642 262.48C407.981 262.48 408.787 261.401 408.787 259.763V259.542C408.787 257.904 407.981 256.812 406.642 256.812C405.316 256.812 404.51 257.904 404.51 259.542ZM412.747 263.195H411.603V256.097H412.643L412.734 257.527C413.189 256.734 414.073 255.902 415.269 255.902C416.764 255.902 417.596 256.825 417.596 258.528V263.195H416.439V258.619C416.439 257.501 416.101 256.825 415.087 256.825C414.099 256.825 413.033 257.865 412.747 259.009V263.195ZM420.277 257.02H418.717V256.097H420.277V253.939H421.421V256.097H422.994V257.02H421.421V263.195H420.277V257.02ZM425.404 263.195H424.26V253.237H425.404V257.501C425.859 256.721 426.743 255.902 427.913 255.902C429.421 255.902 430.24 256.825 430.24 258.528V263.195H429.096V258.619C429.096 257.501 428.758 256.825 427.744 256.825C426.756 256.825 425.703 257.839 425.404 258.97V263.195ZM433.39 263.195H432.246V253.237H433.39V263.195ZM437.497 263.169L434.689 256.097H435.937L438.108 261.778L440.279 256.097H441.462L437.497 266.055H436.288L437.497 263.169ZM447.545 266.055H446.401V256.097H447.441L447.532 257.241C448 256.474 448.858 255.902 449.833 255.902C451.601 255.902 452.94 257.358 452.94 259.633C452.94 261.934 451.601 263.39 449.833 263.39C448.884 263.39 448.052 262.857 447.545 262.129V266.055ZM447.545 258.515V260.777C447.883 261.739 448.741 262.467 449.638 262.467C450.821 262.467 451.757 261.401 451.757 259.633C451.757 257.878 450.847 256.812 449.651 256.812C448.741 256.812 447.883 257.566 447.545 258.515ZM454.07 261.323C454.07 260.842 454.2 260.439 454.46 260.088C454.902 259.49 455.721 259.217 457.06 258.97L458.828 258.658C458.802 257.436 458.23 256.799 456.943 256.799C456.007 256.799 455.175 257.28 454.642 257.943V256.812C455.136 256.331 455.981 255.902 457.06 255.902C458.789 255.902 459.972 256.747 459.972 258.619V263.195H459.075L458.867 262.103C458.23 262.896 457.32 263.39 456.241 263.39C454.941 263.39 454.07 262.649 454.07 261.323ZM455.227 261.271C455.227 262.064 455.734 262.454 456.462 262.454C457.32 262.454 458.321 261.869 458.841 260.894V259.529L457.658 259.75C456.566 259.945 455.812 260.101 455.461 260.53C455.292 260.738 455.227 260.985 455.227 261.271ZM463.992 263.169L461.184 256.097H462.432L464.603 261.778L466.774 256.097H467.957L463.992 266.055H462.783L463.992 263.169ZM470.397 263.195H469.253V256.097H470.28L470.358 257.384C470.839 256.591 471.593 255.902 472.685 255.902C473.673 255.902 474.414 256.435 474.661 257.462C475.181 256.591 475.974 255.902 477.079 255.902C478.34 255.902 479.198 256.734 479.198 258.372V263.195H478.054V258.463C478.054 257.358 477.716 256.812 476.858 256.812C476.039 256.812 475.077 257.709 474.791 258.71V263.195H473.647V258.437C473.647 257.358 473.309 256.812 472.451 256.812C471.645 256.812 470.709 257.683 470.397 258.71V263.195ZM480.679 259.763V259.477C480.679 257.397 481.966 255.902 483.864 255.902C485.736 255.902 486.919 257.15 486.919 259.555V260.023H481.823C481.901 261.427 482.681 262.467 484.007 262.48C485.138 262.48 485.944 262.012 486.516 261.401V262.558C485.957 263.039 485.216 263.39 484.007 263.39C481.888 263.39 480.679 261.895 480.679 259.763ZM481.836 259.126H485.775C485.749 257.527 484.943 256.799 483.851 256.812C482.785 256.812 481.914 257.709 481.836 259.126ZM489.706 263.195H488.562V256.097H489.602L489.693 257.527C490.148 256.734 491.032 255.902 492.228 255.902C493.723 255.902 494.555 256.825 494.555 258.528V263.195H493.398V258.619C493.398 257.501 493.06 256.825 492.046 256.825C491.058 256.825 489.992 257.865 489.706 259.009V263.195ZM497.236 257.02H495.676V256.097H497.236V253.939H498.38V256.097H499.953V257.02H498.38V263.195H497.236V257.02Z" fill="#05141F"/>
    <g clip-path="url(#clip11_215_1439)">
    <rect x="520.5" y="251" width="16" height="16" rx="8" fill="white"/>
    <line x1="514.146" y1="252.932" x2="542.431" y2="224.647" stroke="#E5E5E5"/>
    <line x1="514.146" y1="259.932" x2="542.431" y2="231.647" stroke="#E5E5E5"/>
    <line x1="514.146" y1="266.932" x2="542.431" y2="238.647" stroke="#E5E5E5"/>
    <line x1="514.146" y1="273.932" x2="542.431" y2="245.647" stroke="#E5E5E5"/>
    <line x1="514.146" y1="280.932" x2="542.431" y2="252.647" stroke="#E5E5E5"/>
    <line x1="514.146" y1="287.932" x2="542.431" y2="259.647" stroke="#E5E5E5"/>
    <line x1="514.146" y1="294.932" x2="542.431" y2="266.647" stroke="#E5E5E5"/>
    </g>
    <rect x="521" y="251.5" width="15" height="15" rx="7.5" stroke="#E5E5E5"/>
    <path d="M520.5 259C520.5 254.582 524.082 251 528.5 251C532.918 251 536.5 254.582 536.5 259C536.5 263.418 532.918 267 528.5 267C524.082 267 520.5 263.418 520.5 259Z" fill="#af6249"/>
    <path d="M546.888 263.195H545.679V253.315H549.241C551.217 253.315 552.53 254.472 552.53 256.11V256.318C552.53 257.956 551.217 259.113 549.241 259.113H546.888V263.195ZM546.888 254.29V258.125H549.111C550.476 258.125 551.282 257.397 551.282 256.305V256.11C551.282 255.031 550.476 254.29 549.111 254.29H546.888ZM555.327 263.195H554.183V256.097H555.223L555.301 257.332C555.691 256.474 556.406 255.902 557.42 255.902C557.667 255.902 557.966 255.941 558.083 255.993V257.007C557.901 256.942 557.667 256.903 557.355 256.903C556.471 256.903 555.639 257.54 555.327 258.58V263.195ZM560.494 254.927H559.35V253.484H560.494V254.927ZM560.494 263.195H559.35V256.097H560.494V263.195ZM563.77 263.195H562.626V256.097H563.666L563.757 257.527C564.212 256.734 565.096 255.902 566.292 255.902C567.787 255.902 568.619 256.825 568.619 258.528V263.195H567.462V258.619C567.462 257.501 567.124 256.825 566.11 256.825C565.122 256.825 564.056 257.865 563.77 259.009V263.195ZM570.104 259.75V259.503C570.104 257.423 571.534 255.902 573.588 255.902C574.394 255.902 575.161 256.227 575.668 256.695V257.904C575.109 257.189 574.381 256.825 573.575 256.825C572.301 256.825 571.3 257.904 571.3 259.503V259.737C571.3 261.349 572.327 262.454 573.575 262.454C574.381 262.454 575.083 262.103 575.668 261.401V262.597C575.174 263.052 574.394 263.39 573.562 263.39C571.547 263.39 570.104 261.843 570.104 259.75ZM578.496 254.927H577.352V253.484H578.496V254.927ZM578.496 263.195H577.352V256.097H578.496V263.195ZM581.772 266.055H580.628V256.097H581.668L581.759 257.241C582.227 256.474 583.085 255.902 584.06 255.902C585.828 255.902 587.167 257.358 587.167 259.633C587.167 261.934 585.828 263.39 584.06 263.39C583.111 263.39 582.279 262.857 581.772 262.129V266.055ZM581.772 258.515V260.777C582.11 261.739 582.968 262.467 583.865 262.467C585.048 262.467 585.984 261.401 585.984 259.633C585.984 257.878 585.074 256.812 583.878 256.812C582.968 256.812 582.11 257.566 581.772 258.515ZM588.296 261.323C588.296 260.842 588.426 260.439 588.686 260.088C589.128 259.49 589.947 259.217 591.286 258.97L593.054 258.658C593.028 257.436 592.456 256.799 591.169 256.799C590.233 256.799 589.401 257.28 588.868 257.943V256.812C589.362 256.331 590.207 255.902 591.286 255.902C593.015 255.902 594.198 256.747 594.198 258.619V263.195H593.301L593.093 262.103C592.456 262.896 591.546 263.39 590.467 263.39C589.167 263.39 588.296 262.649 588.296 261.323ZM589.453 261.271C589.453 262.064 589.96 262.454 590.688 262.454C591.546 262.454 592.547 261.869 593.067 260.894V259.529L591.884 259.75C590.792 259.945 590.038 260.101 589.687 260.53C589.518 260.738 589.453 260.985 589.453 261.271ZM597.387 263.195H596.243V253.237H597.387V263.195Z" fill="#05141F"/>
    <g clip-path="url(#clip12_215_1439)">
    <rect x="618.5" y="251" width="16" height="16" rx="8" fill="white"/>
    <line x1="612.146" y1="252.932" x2="640.431" y2="224.647" stroke="#CCCCCC"/>
    <line x1="612.146" y1="259.932" x2="640.431" y2="231.647" stroke="#CCCCCC"/>
    <line x1="612.146" y1="266.932" x2="640.431" y2="238.647" stroke="#CCCCCC"/>
    <line x1="612.146" y1="273.932" x2="640.431" y2="245.647" stroke="#CCCCCC"/>
    <line x1="612.146" y1="280.932" x2="640.431" y2="252.647" stroke="#CCCCCC"/>
    <line x1="612.146" y1="287.932" x2="640.431" y2="259.647" stroke="#CCCCCC"/>
    <line x1="612.146" y1="294.932" x2="640.431" y2="266.647" stroke="#CCCCCC"/>
    </g>
    <rect x="619" y="251.5" width="15" height="15" rx="7.5" stroke="#CCCCCC"/>
    <path d="M644.854 263.195H643.645V253.315H644.854V263.195ZM648.189 263.195H647.045V256.097H648.085L648.176 257.527C648.631 256.734 649.515 255.902 650.711 255.902C652.206 255.902 653.038 256.825 653.038 258.528V263.195H651.881V258.619C651.881 257.501 651.543 256.825 650.529 256.825C649.541 256.825 648.475 257.865 648.189 259.009V263.195ZM655.72 257.02H654.16V256.097H655.72V253.939H656.864V256.097H658.437V257.02H656.864V263.195H655.72V257.02ZM659.183 259.763V259.477C659.183 257.397 660.47 255.902 662.368 255.902C664.24 255.902 665.423 257.15 665.423 259.555V260.023H660.327C660.405 261.427 661.185 262.467 662.511 262.48C663.642 262.48 664.448 262.012 665.02 261.401V262.558C664.461 263.039 663.72 263.39 662.511 263.39C660.392 263.39 659.183 261.895 659.183 259.763ZM660.34 259.126H664.279C664.253 257.527 663.447 256.799 662.355 256.812C661.289 256.812 660.418 257.709 660.34 259.126ZM668.21 263.195H667.066V256.097H668.106L668.184 257.332C668.574 256.474 669.289 255.902 670.303 255.902C670.55 255.902 670.849 255.941 670.966 255.993V257.007C670.784 256.942 670.55 256.903 670.238 256.903C669.354 256.903 668.522 257.54 668.21 258.58V263.195ZM671.713 259.763V259.477C671.713 257.397 673 255.902 674.898 255.902C676.77 255.902 677.953 257.15 677.953 259.555V260.023H672.857C672.935 261.427 673.715 262.467 675.041 262.48C676.172 262.48 676.978 262.012 677.55 261.401V262.558C676.991 263.039 676.25 263.39 675.041 263.39C672.922 263.39 671.713 261.895 671.713 259.763ZM672.87 259.126H676.809C676.783 257.527 675.977 256.799 674.885 256.812C673.819 256.812 672.948 257.709 672.87 259.126ZM679.31 262.623V261.401C679.895 262.116 680.675 262.467 681.559 262.467C682.508 262.467 683.093 262.038 683.093 261.375C683.093 260.92 682.911 260.582 682.053 260.231L681.091 259.841C679.96 259.373 679.375 258.762 679.375 257.813C679.375 256.812 680.194 255.902 681.78 255.902C682.677 255.902 683.483 256.292 683.951 256.708V257.917C683.301 257.176 682.521 256.825 681.78 256.825C680.857 256.825 680.506 257.319 680.506 257.774C680.506 258.229 680.844 258.502 681.611 258.814L682.547 259.191C683.73 259.672 684.237 260.322 684.237 261.297C684.237 262.597 683.119 263.39 681.559 263.39C680.506 263.39 679.739 263.013 679.31 262.623ZM686.569 257.02H685.009V256.097H686.569V253.939H687.713V256.097H689.286V257.02H687.713V263.195H686.569V257.02Z" fill="#05141F"/>
    <defs>
    <clipPath id="clip0_215_1439">
    <rect x="41" y="80" width="16" height="70" rx="8" fill="white"/>
    </clipPath>
    <clipPath id="clip1_215_1439">
    <rect x="115" y="80" width="16" height="70" rx="8" fill="white"/>
    </clipPath>
    <clipPath id="clip2_215_1439">
    <rect x="189" y="80" width="16" height="70" rx="8" fill="white"/>
    </clipPath>
    <clipPath id="clip3_215_1439">
    <rect x="263" y="80" width="16" height="70" rx="8" fill="white"/>
    </clipPath>
    <clipPath id="clip4_215_1439">
    <rect x="337" y="80" width="16" height="70" rx="8" fill="white"/>
    </clipPath>
    <clipPath id="clip5_215_1439">
    <rect x="411" y="80" width="16" height="70" rx="8" fill="white"/>
    </clipPath>
    <clipPath id="clip6_215_1439">
    <rect x="485" y="80" width="16" height="70" rx="8" fill="white"/>
    </clipPath>
    <clipPath id="clip7_215_1439">
    <rect x="559" y="80" width="16" height="70" rx="8" fill="white"/>
    </clipPath>
    <clipPath id="clip8_215_1439">
    <rect x="633" width="16" height="150" rx="8" fill="white"/>
    </clipPath>
    <clipPath id="clip9_215_1439">
    <rect width="24" height="24" fill="white" transform="translate(0.5 247)"/>
    </clipPath>
    <clipPath id="clip10_215_1439">
    <rect x="366.5" y="251" width="16" height="16" rx="8" fill="white"/>
    </clipPath>
    <clipPath id="clip11_215_1439">
    <rect x="520.5" y="251" width="16" height="16" rx="8" fill="white"/>
    </clipPath>
    <clipPath id="clip12_215_1439">
    <rect x="618.5" y="251" width="16" height="16" rx="8" fill="white"/>
    </clipPath>
    </defs>
    </svg>
    