<svg width="90" height="56" viewBox="0 0 90 56" fill="none" xmlns="http://www.w3.org/2000/svg">
<path d="M7.21589 15.12V16.14C7.21589 16.8 6.91589 17.292 6.36389 17.616L5.19989 18.3C4.94789 18.456 4.65989 18.504 4.35989 18.504H1.05989C0.915891 18.504 0.843891 18.456 0.843891 18.312V17.628C0.843891 17.472 0.915891 17.388 1.07189 17.388H5.53589C5.66789 17.388 5.75189 17.328 5.75189 17.172V14.868C5.75189 14.7 5.66789 14.604 5.53589 14.604H2.30789C1.34789 14.604 0.639891 13.896 0.639891 12.948V12.024C0.639891 11.388 0.891891 10.908 1.44389 10.584L2.61989 9.9C2.88389 9.756 3.15989 9.684 3.45989 9.684H6.66389C6.80789 9.684 6.87989 9.756 6.87989 9.9V10.584C6.87989 10.728 6.80789 10.788 6.66389 10.788H2.30789C2.15189 10.788 2.05589 10.872 2.05589 11.04V13.2C2.05589 13.332 2.15189 13.416 2.30789 13.416H5.52389C6.32789 13.416 7.21589 14.052 7.21589 15.12ZM10.2988 18.504C9.37477 18.504 8.63077 17.736 8.63077 16.824V12.048C8.63077 11.4 8.88277 10.908 9.44677 10.584L10.6228 9.9C10.8748 9.756 11.1748 9.684 11.4628 9.684H14.5708C14.7148 9.684 14.7748 9.756 14.7748 9.9V10.584C14.7748 10.728 14.7148 10.788 14.5708 10.788H10.2988C10.1308 10.788 10.0588 10.872 10.0588 11.028V17.172C10.0588 17.328 10.1308 17.388 10.2988 17.388H14.6668C14.8108 17.388 14.8948 17.46 14.8948 17.58C14.8948 17.688 14.8228 17.784 14.7028 17.856L13.9588 18.3C13.6828 18.456 13.4068 18.504 13.1188 18.504H10.2988ZM21.5257 13.524V11.04C21.5257 10.872 21.4297 10.788 21.2977 10.788H17.9857C17.8297 10.788 17.7577 10.872 17.7577 11.04V13.536C17.7577 13.68 17.8297 13.752 17.9857 13.752H21.2977C21.4297 13.752 21.5257 13.68 21.5257 13.524ZM23.0017 11.04V12.504C23.0017 13.14 22.7017 13.632 22.1137 13.968L21.3937 14.4C21.2857 14.484 21.2377 14.58 21.3337 14.7L23.4697 18.348C23.5297 18.468 23.5057 18.504 23.3737 18.504H22.1377C21.9937 18.504 21.9097 18.468 21.8497 18.336L19.9537 15.072C19.8817 14.928 19.7737 14.868 19.6417 14.868H17.9857C17.8297 14.868 17.7577 14.94 17.7577 15.096V18.3C17.7577 18.456 17.6737 18.504 17.5537 18.504H16.5217C16.3897 18.504 16.3417 18.456 16.3417 18.312V9.9C16.3417 9.756 16.3897 9.684 16.5217 9.684H17.5537C17.6737 9.684 17.7577 9.756 17.7577 9.9V10.092C17.7577 10.26 17.8297 10.32 18.0217 10.272L21.1177 9.612C21.2857 9.588 21.4057 9.564 21.5017 9.564C22.1137 9.564 23.0017 10.02 23.0017 11.04ZM30.3595 11.04C30.3595 10.872 30.2755 10.788 30.1195 10.788H26.3875C26.2195 10.788 26.1475 10.872 26.1475 11.04V17.172C26.1475 17.328 26.2195 17.388 26.3875 17.388H30.1195C30.2755 17.388 30.3595 17.328 30.3595 17.172V11.04ZM31.7995 11.388V16.14C31.7995 16.8 31.4995 17.292 30.9355 17.616L29.7835 18.3C29.5315 18.456 29.2435 18.504 28.9315 18.504H26.3755C25.4035 18.504 24.7315 17.724 24.7315 16.824V12.048C24.7315 11.4 24.9715 10.908 25.5355 10.584L26.6995 9.9C26.9755 9.756 27.2515 9.684 27.5515 9.684H30.1195C30.9475 9.684 31.7995 10.356 31.7995 11.388ZM35.2351 18.504C34.2751 18.504 33.5911 17.76 33.5911 16.824V9.9C33.5911 9.756 33.6391 9.684 33.7711 9.684H34.7911C34.9231 9.684 35.0071 9.756 35.0071 9.9V17.172C35.0071 17.328 35.0791 17.388 35.2471 17.388H39.3391C39.4951 17.388 39.5791 17.46 39.5791 17.58C39.5791 17.7 39.5071 17.796 39.3751 17.856L38.6431 18.3C38.3431 18.456 38.0791 18.504 37.7671 18.504H35.2351ZM41.868 18.504C40.908 18.504 40.224 17.76 40.224 16.824V9.9C40.224 9.756 40.272 9.684 40.404 9.684H41.424C41.556 9.684 41.64 9.756 41.64 9.9V17.172C41.64 17.328 41.712 17.388 41.88 17.388H45.972C46.128 17.388 46.212 17.46 46.212 17.58C46.212 17.7 46.14 17.796 46.008 17.856L45.276 18.3C44.976 18.456 44.712 18.504 44.4 18.504H41.868ZM56.3405 17.172V11.04C56.3405 10.872 56.2685 10.788 56.1125 10.788H52.3685C52.2125 10.788 52.1405 10.872 52.1405 11.04V17.184C52.1405 17.328 52.2125 17.388 52.3685 17.388H56.1125C56.2685 17.388 56.3405 17.328 56.3405 17.172ZM57.8165 11.04V16.14C57.8165 16.788 57.5285 17.268 56.9285 17.616L55.7645 18.3C55.5125 18.456 55.2125 18.504 54.9485 18.504H50.9045C50.7725 18.504 50.7245 18.456 50.7245 18.312V9.9C50.7245 9.756 50.7725 9.684 50.9045 9.684H51.9365C52.0565 9.684 52.1405 9.756 52.1405 9.9V10.092C52.1405 10.26 52.2125 10.32 52.4045 10.272L55.9205 9.612C56.1125 9.588 56.2565 9.564 56.3165 9.564C57.0605 9.564 57.8165 10.152 57.8165 11.04ZM65.2228 11.04C65.2228 10.872 65.1388 10.788 64.9828 10.788H61.2508C61.0828 10.788 61.0108 10.872 61.0108 11.04V17.172C61.0108 17.328 61.0828 17.388 61.2508 17.388H64.9828C65.1388 17.388 65.2228 17.328 65.2228 17.172V11.04ZM66.6628 11.388V16.14C66.6628 16.8 66.3628 17.292 65.7988 17.616L64.6468 18.3C64.3948 18.456 64.1068 18.504 63.7948 18.504H61.2388C60.2668 18.504 59.5948 17.724 59.5948 16.824V12.048C59.5948 11.4 59.8348 10.908 60.3988 10.584L61.5628 9.9C61.8388 9.756 62.1148 9.684 62.4148 9.684H64.9828C65.8108 9.684 66.6628 10.356 66.6628 11.388ZM80.5624 9.876L78.4624 18.3C78.4264 18.456 78.3424 18.504 78.1864 18.504H76.1104C75.9664 18.504 75.8584 18.456 75.8344 18.3L74.2264 10.644C74.2024 10.572 74.1544 10.5 74.0584 10.5C73.9864 10.5 73.9384 10.572 73.9144 10.644L72.3184 18.3C72.2944 18.456 72.1744 18.504 72.0184 18.504H69.9664C69.8344 18.504 69.7144 18.456 69.6904 18.3L67.5904 9.876C67.5544 9.756 67.6024 9.684 67.7104 9.684H68.8984C69.0304 9.684 69.1144 9.756 69.1504 9.888L70.8304 17.544C70.8424 17.64 70.8904 17.688 70.9864 17.688C71.0944 17.688 71.1544 17.64 71.1784 17.544L72.6784 9.888C72.7024 9.756 72.7864 9.684 72.9304 9.684H75.1984C75.3664 9.684 75.4624 9.756 75.4984 9.888L76.9984 17.544C77.0104 17.64 77.0584 17.688 77.1664 17.688C77.2504 17.688 77.2864 17.64 77.3224 17.544L78.9904 9.888C79.0144 9.756 79.1104 9.684 79.2544 9.684H80.4184C80.5504 9.684 80.5744 9.756 80.5624 9.876ZM89.0445 18.324C89.0445 18.456 88.9725 18.504 88.8165 18.504H86.6685C86.5365 18.504 86.4045 18.456 86.3565 18.312L83.1885 10.872C83.1645 10.824 83.1165 10.788 83.0565 10.788C82.9605 10.788 82.9125 10.848 82.9125 10.932V18.312C82.9125 18.456 82.8285 18.504 82.7085 18.504H81.7365C81.5925 18.504 81.5445 18.456 81.5445 18.324V9.888C81.5445 9.756 81.5925 9.684 81.7365 9.684H83.8845C84.0285 9.684 84.1605 9.744 84.2205 9.876L87.3885 17.328C87.4125 17.376 87.4485 17.4 87.5085 17.4C87.5925 17.4 87.6645 17.364 87.6645 17.268V9.888C87.6645 9.756 87.7005 9.684 87.8445 9.684H88.8165C88.9725 9.684 89.0445 9.756 89.0445 9.888V18.324Z" fill="#999999"/>
<path d="M40.7125 44.2901L44.5925 48.1701L48.4725 44.2901C48.8625 43.9001 49.4925 43.9001 49.8825 44.2901C50.2725 44.6801 50.2725 45.3101 49.8825 45.7001L45.2925 50.2901C44.9025 50.6801 44.2725 50.6801 43.8825 50.2901L39.2925 45.7001C38.9025 45.3101 38.9025 44.6801 39.2925 44.2901C39.6825 43.9101 40.3225 43.9001 40.7125 44.2901Z" fill="#999999"/>
<path d="M40.7125 37.2925L44.5925 41.1725L48.4725 37.2925C48.8625 36.9025 49.4925 36.9025 49.8825 37.2925C50.2725 37.6825 50.2725 38.3125 49.8825 38.7025L45.2925 43.2925C44.9025 43.6825 44.2725 43.6825 43.8825 43.2925L39.2925 38.7025C38.9025 38.3125 38.9025 37.6825 39.2925 37.2925C39.6825 36.9125 40.3225 36.9025 40.7125 37.2925Z" fill="#999999"/>
</svg>
