<svg width="100" height="100" viewBox="0 0 100 100" fill="none" xmlns="http://www.w3.org/2000/svg">
    <g clip-path="url(#clip0_1745_21526)">
    <path d="M72.7128 68.274C70.5589 65.304 68.1006 63.3005 64.8374 65.3676L58.3526 69.1768C53.2525 72.7403 50.0258 70.655 46.5478 67.2655L29.0022 41.0617C26.8676 38.0882 27.1325 34.8872 30.3956 32.8202L39.4175 27.2116C42.6772 25.1253 41.5801 22.1859 39.4263 19.2159L28.3863 5.18738C26.2325 2.21735 22.8618 2.00242 19.5986 4.06945C13.0565 8.22615 8.03872 13.8182 5.46778 21.2373C2.31699 30.3065 6.66273 41.3775 8.44267 46.0405C10.2226 50.7035 14.9555 58.5914 20.6681 66.5236C26.3842 74.4751 31.2692 80.6499 35.2246 83.9349C39.18 87.2198 48.9037 96.4038 59.035 97.0452C67.3379 97.5549 75.6472 94.4136 82.1701 90.2603C85.4332 88.1932 84.9097 85.1321 82.7524 82.1429L72.7128 68.274Z" fill="#E5E5E5"/>
    <path d="M76.0329 50.4185L76.0338 50.4174L97.9713 25.7799C98.6571 25.0406 99.1904 24.1727 99.5381 23.2246C99.8908 22.2625 100.044 21.2392 99.9889 20.2155C99.9334 19.1919 99.6699 18.1914 99.2158 17.2732C98.7618 16.3551 98.1271 15.5392 97.3518 14.872C96.5767 14.2048 95.6765 13.6993 94.7052 13.3828C93.7339 13.0662 92.7094 12.9443 91.6912 13.0234C90.6731 13.1024 89.6795 13.3811 88.7688 13.8447C87.8705 14.3019 87.0696 14.9307 86.4136 15.6972L69.1676 35.0682L62.3091 30.0134C61.4994 29.4166 60.5807 28.9843 59.6061 28.739C58.6316 28.4936 57.6183 28.4394 56.6232 28.5791C55.6281 28.7188 54.6686 29.05 53.7995 29.5557C52.9302 30.0615 52.1673 30.7326 51.5564 31.5331C50.9453 32.3338 50.4986 33.2477 50.2443 34.2233C49.9899 35.1991 49.9334 36.2154 50.0785 37.2134C50.2236 38.2114 50.567 39.1692 51.087 40.0322C51.6069 40.8951 52.2926 41.6454 53.1024 42.2423L65.6512 51.491L65.652 51.4916C67.2055 52.6358 69.1327 53.1561 71.0492 52.9592C72.9659 52.7623 74.7477 51.8605 76.0329 50.4185Z" fill="white" stroke="white" stroke-width="6"/>
    <path d="M91.7214 27.1919C91.5085 27.7725 91.1795 28.3055 90.7537 28.7592L73.7933 48.4225C73.0118 49.2993 71.9222 49.8537 70.7426 49.9749C69.5629 50.0961 68.3802 49.7751 67.4311 49.076L54.8823 39.8273C54.3879 39.463 53.9714 39.0065 53.6566 38.4839C53.3417 37.9614 53.1347 37.383 53.0473 36.7818C52.9599 36.1806 52.9939 35.5684 53.1472 34.9802C53.3006 34.3919 53.5704 33.8391 53.9412 33.3532C54.3119 32.8674 54.7765 32.4581 55.3082 32.1487C55.84 31.8393 56.4285 31.6358 57.0403 31.55C57.6521 31.4641 58.275 31.4975 58.8737 31.6482C59.4723 31.7989 60.0349 32.064 60.5293 32.4284L69.5895 39.1059L83.6761 22.6674C84.0778 22.1929 84.572 21.8021 85.1297 21.5182C85.6874 21.2343 86.2974 21.063 86.9235 21.0144C87.5497 20.9657 88.1794 21.0408 88.7756 21.2351C89.3717 21.4294 89.9223 21.739 90.3948 22.1457C90.8673 22.5524 91.2521 23.0479 91.5267 23.6031C91.8012 24.1582 91.9599 24.7617 91.9933 25.3781C92.0268 25.9945 91.9343 26.6112 91.7214 27.1919Z" fill="#00AAD2"/>
    </g>
    <defs>
    <clipPath id="clip0_1745_21526">
    <rect width="100" height="100" fill="white"/>
    </clipPath>
    </defs>
    </svg>
    