<svg width="100" height="100" viewBox="0 0 100 100" fill="none" xmlns="http://www.w3.org/2000/svg">
    <g clip-path="url(#clip0_3508_59897)">
    <path d="M70.7824 53.6768C70.2326 53.6768 69.6826 53.467 69.2633 53.0475L63.1293 46.9129C62.7266 46.51 62.5 45.9635 62.5 45.3937V38.9053C62.5 37.7188 63.4619 36.7568 64.6484 36.7568C65.835 36.7568 66.7969 37.7188 66.7969 38.9053V44.5039L72.3018 50.0092C73.6564 51.3557 72.668 53.6885 70.7824 53.6768Z" fill="black"/>
    <path d="M10.9754 77.9051C8.26777 77.9051 6.8832 77.528 6.58008 77.4338L7.85449 73.3303L7.8252 73.3215C7.88496 73.3383 13.9686 74.9362 28.5359 70.1C34.2816 68.1928 39.576 68.0203 44.7227 69.5735C45.8586 69.9162 46.5016 71.1151 46.159 72.2508C45.816 73.3868 44.617 74.0295 43.4814 73.6871C39.2123 72.3989 34.7664 72.5594 29.8898 74.1782C20.7523 77.2114 14.6475 77.9049 10.9754 77.9051Z" fill="#00AAD2"/>
    <path d="M73.7254 11.3332V4.29688H76.9018C78.0883 4.29688 79.0502 3.33496 79.0502 2.14844C79.0502 0.961914 78.0883 0 76.9018 0H52.4928C51.3062 0 50.3443 0.961914 50.3443 2.14844C50.3443 3.33496 51.3062 4.29688 52.4928 4.29688H55.6691V11.3332C50.9404 12.582 46.5957 14.7861 42.8568 17.7279H2.22852C1.04199 17.7279 0.0800781 18.6898 0.0800781 19.8764C0.0800781 21.0629 1.04199 22.0248 2.22852 22.0248H5.06894V42.3459C5.01465 48.8855 8.44297 55.2631 13.8656 58.8641C8.44258 62.4654 5.01484 68.842 5.06894 75.382V95.7031H2.22852C-0.606445 95.8107 -0.636328 99.8787 2.22852 100C9.16367 99.9998 49.2822 100 56.2207 100C59.0555 99.8924 59.0857 95.8244 56.2207 95.7031H53.3803V79.0775C56.9352 80.2807 60.7414 80.9336 64.6973 80.9336C106.282 79.8703 113.248 22.6785 73.7254 11.3332ZM59.966 4.29688H69.4285V10.4813C66.3447 10.06 63.0498 10.06 59.966 10.4813V4.29688ZM49.0834 95.7031H9.36582V75.382C9.36582 68.9273 13.2455 63.2281 19.2498 60.8629C20.0711 60.5395 20.6109 59.7467 20.6109 58.8641C20.6109 57.9814 20.0711 57.1887 19.2498 56.8652C13.2455 54.5 9.36582 48.8008 9.36582 42.3461V22.0248H38.2906C22.6316 39.0844 28.4498 67.4947 49.0836 77.2957V95.7031H49.0834ZM64.6975 76.6367C47.5566 76.6367 33.6115 62.6908 33.6115 45.5488C35.3191 4.30664 94.082 4.31836 95.7834 45.549C95.7832 62.6908 81.8381 76.6367 64.6975 76.6367Z" fill="black"/>
    <path d="M66.6819 23.4161C66.1418 22.0243 64.2096 21.6411 63.178 22.7188C61.8336 24.0601 62.7987 26.3897 64.6975 26.3868C66.1879 26.4192 67.2846 24.7813 66.6819 23.4161Z" fill="black"/>
    <path d="M66.6818 66.037C66.1296 64.6407 64.2232 64.2643 63.1779 65.3397C61.8339 66.6799 62.7982 69.0129 64.6974 69.0077C66.1888 69.0418 67.2839 67.4022 66.6818 66.037Z" fill="black"/>
    <path d="M45.3711 44.7265C44.8268 43.3281 42.9076 42.9584 41.8692 44.0293C40.5217 45.3681 41.4885 47.7013 43.3867 47.6972C44.8856 47.7236 45.9719 46.1011 45.3711 44.7265Z" fill="black"/>
    <path d="M88.1129 45.1291C87.8465 43.6532 86.0469 42.9104 84.8141 43.762C83.2318 44.8096 83.7228 47.2922 85.5875 47.6543C87.0523 47.9788 88.4328 46.5922 88.1129 45.1291Z" fill="black"/>
    <path d="M47.9199 31.301C48.4689 32.6992 50.3814 33.0777 51.4238 31.9982C52.6327 30.816 51.9868 28.6842 50.3242 28.3732C48.6663 28.0264 47.2529 29.7451 47.9199 31.301Z" fill="black"/>
    <path d="M82.0249 59.7967C81.4905 58.4017 79.5542 58.023 78.5229 59.0976C77.1784 60.4367 78.143 62.7726 80.0424 62.7654C81.5376 62.7926 82.6296 61.1687 82.0249 59.7967Z" fill="black"/>
    <path d="M51.8882 59.7947C51.3439 58.3992 49.4248 58.0195 48.3863 59.0974C47.0398 60.4357 48.0058 62.7679 49.9039 62.7654C51.3941 62.7984 52.4956 61.1587 51.8882 59.7947Z" fill="black"/>
    <path d="M78.0589 31.3029C78.5931 32.6953 80.5323 33.0771 81.5608 32.0002C82.7706 30.8173 82.1257 28.6847 80.4612 28.3752C78.8081 28.0214 77.3876 29.7505 78.0589 31.3029Z" fill="black"/>
    </g>
    <defs>
    <clipPath id="clip0_3508_59897">
    <rect width="100" height="100" fill="white"/>
    </clipPath>
    </defs>
    </svg>
    