<svg width="40" height="40" viewBox="0 0 40 40" fill="none" xmlns="http://www.w3.org/2000/svg">
<rect width="40" height="40" rx="10" fill="#F5F5F5"/>
<path fill-rule="evenodd" clip-rule="evenodd" d="M16.1607 12C15.0841 12 14.09 12.5769 13.5559 13.5116L11.5625 17H10.4C10.1791 17 10 17.1791 10 17.4V17.8754C10 18.2425 10.2498 18.5625 10.606 18.6515L10.6297 18.6574C10.2134 19.5218 10.0535 20.4902 10.1731 21.4471L10.8982 27.2481C11.0233 28.2489 11.8741 29 12.8828 29H13C14.1046 29 15 28.1046 15 27H25C25 28.1046 25.8954 29 27 29H27.1172C28.1259 29 28.9767 28.2489 29.1018 27.2481L29.8269 21.4471C29.9465 20.4902 29.7866 19.5218 29.3703 18.6574L29.394 18.6515C29.7502 18.5625 30 18.2425 30 17.8754V17.4C30 17.1791 29.8209 17 29.6 17H28.4375L26.4441 13.5116C25.91 12.5769 24.9159 12 23.8394 12H16.1607ZM26.4219 17.5039L24.7076 14.5039C24.5296 14.1923 24.1982 14 23.8394 14H16.1607C15.8018 14 15.4704 14.1923 15.2924 14.5039L13.5781 17.5039C13.1976 18.1705 13.6787 19 14.4464 19H25.5536C26.3215 19 26.8028 18.1705 26.4219 17.5039ZM13 23.0392V22.3382C13 21.9596 13.4044 21.7184 13.7376 21.8983L16.4802 23.3793C16.8533 23.5808 16.6978 24.1479 16.2742 24.131L13.96 24.0384C13.4237 24.0169 13 23.5759 13 23.0392ZM27 22.3382V23.0392C27 23.5759 26.5763 24.0169 26.04 24.0384L23.7258 24.131C23.3022 24.1479 23.1467 23.5808 23.5198 23.3793L26.2624 21.8983C26.5956 21.7184 27 21.9596 27 22.3382Z" fill="#999999"/>
</svg>
