<svg width="18" height="14" viewBox="0 0 18 14" fill="none" xmlns="http://www.w3.org/2000/svg">
<path d="M3.9594 0.331055C2.26439 0.331055 0.93774 0.759383 0.703573 2.38855C0.628573 2.91021 0.793563 3.42356 1.17273 3.79439C1.36106 3.97856 1.56024 4.19772 1.82357 4.41939C2.4844 4.97689 3.32691 5.60355 4.11524 6.16438C6.28441 7.70605 7.99691 8.66438 9.01108 8.66438C10.0252 8.66438 11.7378 7.70605 13.9069 6.16438C14.6961 5.60355 15.5386 4.97606 16.1986 4.41939C16.4619 4.19772 16.6611 3.97939 16.8494 3.79439C17.2286 3.42356 17.3936 2.91021 17.3186 2.38855C17.0844 0.759383 15.7578 0.331055 14.0628 0.331055H3.9594ZM0.677734 5.46105V10.331C0.677734 12.1719 2.17024 13.6644 4.01107 13.6644H14.0111C15.8519 13.6644 17.3444 12.1719 17.3444 10.331V5.46105C16.6611 6.11022 15.8978 6.78022 14.8186 7.54439C12.4552 9.21772 10.3327 10.331 9.01108 10.331C7.68941 10.331 5.56691 9.21772 3.20358 7.54439C2.12357 6.78022 1.36107 6.11022 0.677734 5.46105Z" fill="#444444"/>
</svg>
