<svg width="18" height="18" viewBox="0 0 18 18" fill="none" xmlns="http://www.w3.org/2000/svg">
    <path d="M8.99935 0.62793C4.39685 0.62793 0.666016 4.35893 0.666016 8.96126C0.666016 10.1563 0.941021 11.3076 1.42102 12.3728C0.737687 15.9019 0.691854 16.305 0.691854 16.305C0.580187 16.883 1.07685 17.378 1.65602 17.2686C1.65602 17.2686 2.02352 17.1878 5.58769 16.5133C6.65269 16.9933 7.80435 17.2946 8.99935 17.2946C13.6018 17.2946 17.3327 13.5636 17.3327 8.96126C17.3327 4.35893 13.6018 0.62793 8.99935 0.62793ZM6.65601 4.7946C7.43684 4.7946 8.47852 5.83626 8.47852 6.61751C8.47852 6.87793 7.93352 7.8041 7.95768 7.9196C8.13102 8.74693 9.21102 9.8531 10.041 10.0029C10.1402 10.0208 11.0827 9.4821 11.3427 9.4821C12.1244 9.4821 13.166 10.5238 13.166 11.305C13.166 12.0863 12.1244 13.1279 11.3427 13.1279C10.336 13.1279 8.47852 12.0863 7.43685 11.0446C7.32435 10.9325 7.02852 10.6358 6.91602 10.5238C5.87435 9.4821 4.83268 7.62435 4.83268 6.61751C4.83268 5.83626 5.87434 4.7946 6.65601 4.7946Z" fill="#444444"/>
    </svg>
    