<svg width="24" height="24" viewBox="0 0 24 24" fill="none" xmlns="http://www.w3.org/2000/svg">
    <rect x="0.5" y="0.5" width="23" height="23" rx="3.5" fill="#F5F5F5"/>
    <rect x="0.5" y="0.5" width="23" height="23" rx="3.5" stroke="#E5E5E5"/>
    <g clip-path="url(#clip0_30_56955)">
    <path d="M14 5.5L16.5 8L14 10.5" stroke="#999999" stroke-linecap="round" stroke-linejoin="round"/>
    <path d="M5.5 11V9C5.5 8.73478 5.60536 8.48043 5.79289 8.29289C5.98043 8.10536 6.23478 8 6.5 8H16.5" stroke="#999999" stroke-linecap="round" stroke-linejoin="round"/>
    <path d="M10 18.5L7.5 16L10 13.5" stroke="#999999" stroke-linecap="round" stroke-linejoin="round"/>
    <path d="M18.5 13V15C18.5 15.2652 18.3946 15.5196 18.2071 15.7071C18.0196 15.8946 17.7652 16 17.5 16H7.5" stroke="#999999" stroke-linecap="round" stroke-linejoin="round"/>
    </g>
    <defs>
    <clipPath id="clip0_30_56955">
    <rect width="14" height="14" fill="white" transform="translate(5 5)"/>
    </clipPath>
    </defs>
    </svg>
    