<svg width="100" height="100" viewBox="0 0 100 100" fill="none" xmlns="http://www.w3.org/2000/svg">
    <path d="M76.4444 47.7778C79.7889 47.7778 82.99 48.3989 86 49.45V28.6667L57.3333 0H9.55556C4.25222 0 0 4.25222 0 9.55556V76.4444C0 78.9787 1.00674 81.4092 2.79876 83.2012C4.59077 84.9932 7.02126 86 9.55556 86H49.45C48.3989 82.99 47.7778 79.7889 47.7778 76.4444C47.7778 60.63 60.63 47.7778 76.4444 47.7778ZM52.5556 7.16667L78.8333 33.4444H52.5556V7.16667Z" fill="#E5E5E5"/>
    <path d="M99.7214 64.1919C99.5085 64.7725 99.1795 65.3055 98.7537 65.7592L76.7933 90.4225C76.0118 91.2993 74.9222 91.8537 73.7426 91.9749C72.5629 92.0961 71.3802 91.7751 70.4311 91.076L57.8823 81.8273C57.3879 81.463 56.9714 81.0065 56.6566 80.4839C56.3417 79.9614 56.1347 79.383 56.0473 78.7818C55.9599 78.1806 55.9939 77.5684 56.1472 76.9802C56.3006 76.3919 56.5704 75.8391 56.9412 75.3532C57.3119 74.8674 57.7765 74.4581 58.3082 74.1487C58.84 73.8393 59.4285 73.6358 60.0403 73.55C60.6521 73.4641 61.275 73.4975 61.8737 73.6482C62.4723 73.7989 63.0349 74.064 63.5293 74.4284L72.5895 81.1059L91.6761 59.6674C92.0778 59.1929 92.572 58.8021 93.1297 58.5182C93.6874 58.2343 94.2974 58.063 94.9235 58.0144C95.5497 57.9657 96.1794 58.0408 96.7756 58.2351C97.3717 58.4294 97.9223 58.739 98.3948 59.1457C98.8673 59.5524 99.2521 60.0479 99.5267 60.6031C99.8012 61.1582 99.9599 61.7617 99.9933 62.3781C100.027 62.9945 99.9343 63.6112 99.7214 64.1919Z" fill="#00AAD2"/>
    </svg>
    