<svg width="100" height="100" viewBox="0 0 100 100" fill="none" xmlns="http://www.w3.org/2000/svg">
<g clip-path="url(#clip0_837_12399)">
<path d="M52.3738 27.775L88.9977 41.1051C91.426 41.9889 93.4469 43.6827 94.6158 45.8138C95.7847 47.9449 96.0058 50.3388 95.2306 52.4689L89.3843 68.5314C88.609 70.6614 86.9008 72.3531 84.6356 73.2343C82.3703 74.1155 79.7334 74.114 77.3051 73.2302L72.7271 71.5639L66.8808 87.6265C66.4932 88.6915 65.6391 89.5374 64.5065 89.978C63.3739 90.4186 62.0554 90.4178 60.8413 89.9759L51.6853 86.6434C50.4711 86.2015 49.4607 85.3546 48.8763 84.289C48.2918 83.2235 48.1813 82.0265 48.5689 80.9615L54.4152 64.8989L40.6812 59.9002L11.945 67.6315L35.3302 3.38122L52.3738 27.775ZM3.03661 28.0082C0.537316 34.875 2.66675 42.6988 8.63529 48.2364L20.3279 16.1113C12.2274 16.5737 5.52128 21.1816 3.03661 28.0082Z" fill="#E5E5E5"/>
<g clip-path="url(#clip1_837_12399)">
<mask id="path-2-outside-1_837_12399" maskUnits="userSpaceOnUse" x="49.334" y="5.33594" width="48" height="48" fill="black">
<rect fill="white" x="49.334" y="5.33594" width="48" height="48"/>
<path d="M59.1581 15.1601C59.419 14.8988 59.7289 14.6916 60.0699 14.5501C60.411 14.4087 60.7766 14.3359 61.1458 14.3359C61.515 14.3359 61.8806 14.4087 62.2217 14.5501C62.5628 14.6916 62.8726 14.8988 63.1335 15.1601L73.3344 25.3572L83.5353 15.1601C83.7963 14.8991 84.1062 14.692 84.4473 14.5507C84.7883 14.4095 85.1538 14.3368 85.523 14.3368C85.8921 14.3368 86.2577 14.4095 86.5987 14.5507C86.9398 14.692 87.2496 14.8991 87.5107 15.1601C87.7717 15.4211 87.9787 15.731 88.12 16.072C88.2613 16.4131 88.334 16.7786 88.334 17.1478C88.334 17.5169 88.2613 17.8824 88.12 18.2235C87.9787 18.5645 87.7717 18.8744 87.5107 19.1354L77.3135 29.3364L87.5107 39.5373C88.0378 40.0644 88.334 40.7794 88.334 41.5249C88.334 42.2705 88.0378 42.9854 87.5107 43.5126C86.9835 44.0398 86.2685 44.3359 85.523 44.3359C84.7775 44.3359 84.0625 44.0398 83.5353 43.5126L73.3344 33.3155L63.1335 43.5126C62.6063 44.0398 61.8913 44.3359 61.1458 44.3359C60.4003 44.3359 59.6853 44.0398 59.1581 43.5126C58.631 42.9854 58.3348 42.2705 58.3348 41.5249C58.3348 40.7794 58.631 40.0644 59.1581 39.5373L69.3553 29.3364L59.1581 19.1354C58.8969 18.8746 58.6896 18.5647 58.5482 18.2236C58.4068 17.8826 58.334 17.517 58.334 17.1478C58.334 16.7785 58.4068 16.4129 58.5482 16.0719C58.6896 15.7308 58.8969 15.421 59.1581 15.1601Z"/>
</mask>
<path d="M59.1581 15.1601L65.5176 21.5286L65.5266 21.5195L59.1581 15.1601ZM61.1458 14.3359V23.3359V14.3359ZM63.1335 15.1601L56.765 21.5195L56.7707 21.5252L63.1335 15.1601ZM73.3344 25.3572L66.9716 31.7224C70.4861 35.2355 76.1827 35.2355 79.6972 31.7224L73.3344 25.3572ZM83.5353 15.1601L89.8981 21.5252L89.8993 21.5241L83.5353 15.1601ZM85.523 14.3368V5.33677V14.3368ZM87.5107 19.1354L81.1467 12.7715L81.1455 12.7727L87.5107 19.1354ZM77.3135 29.3364L70.9484 22.9736C67.4352 26.488 67.4352 32.1847 70.9484 35.6991L77.3135 29.3364ZM87.5107 39.5373L81.1455 45.9001L81.1467 45.9012L87.5107 39.5373ZM83.5353 43.5126L89.8993 37.1487L89.8981 37.1475L83.5353 43.5126ZM73.3344 33.3155L79.6972 26.9503C76.1827 23.4372 70.4861 23.4372 66.9716 26.9503L73.3344 33.3155ZM63.1335 43.5126L56.7707 37.1475L56.7695 37.1487L63.1335 43.5126ZM59.1581 39.5373L65.5221 45.9012L65.5233 45.9001L59.1581 39.5373ZM69.3553 29.3364L75.7204 35.6991C79.2336 32.1847 79.2336 26.488 75.7204 22.9736L69.3553 29.3364ZM59.1581 19.1354L65.5233 12.7727L65.5176 12.767L59.1581 19.1354ZM65.5266 21.5195C64.9516 22.0953 64.2687 22.5522 63.517 22.8638L56.6228 6.23645C55.189 6.83096 53.8864 7.70231 52.7896 8.80066L65.5266 21.5195ZM63.517 22.8638C62.7654 23.1755 61.9596 23.3359 61.1458 23.3359V5.33594C59.5936 5.33594 58.0566 5.64195 56.6228 6.23645L63.517 22.8638ZM61.1458 23.3359C60.332 23.3359 59.5263 23.1755 58.7746 22.8638L65.6688 6.23645C64.235 5.64195 62.698 5.33594 61.1458 5.33594V23.3359ZM58.7746 22.8638C58.0229 22.5522 57.34 22.0953 56.765 21.5195L69.502 8.80066C68.4052 7.70231 67.1026 6.83096 65.6688 6.23645L58.7746 22.8638ZM56.7707 21.5252L66.9716 31.7224L79.6972 18.9921L69.4963 8.79496L56.7707 21.5252ZM79.6972 31.7224L89.8981 21.5252L77.1725 8.79496L66.9716 18.9921L79.6972 31.7224ZM89.8993 21.5241C89.3246 22.0987 88.6423 22.5546 87.8914 22.8657L81.0031 6.23583C79.5701 6.82939 78.2681 7.69938 77.1713 8.79613L89.8993 21.5241ZM87.8914 22.8657C87.1405 23.1767 86.3357 23.3368 85.523 23.3368V5.33677C83.9719 5.33677 82.4361 5.64227 81.0031 6.23583L87.8914 22.8657ZM85.523 23.3368C84.7102 23.3368 83.9054 23.1767 83.1546 22.8657L90.0429 6.23583C88.6099 5.64227 87.074 5.33677 85.523 5.33677V23.3368ZM83.1546 22.8657C82.4037 22.5546 81.7214 22.0987 81.1467 21.5241L93.8746 8.79613C92.7779 7.69938 91.4758 6.82939 90.0429 6.23583L83.1546 22.8657ZM81.1467 21.5241C80.572 20.9494 80.1161 20.2671 79.8051 19.5162L96.4349 12.6279C95.8414 11.1949 94.9714 9.89288 93.8746 8.79613L81.1467 21.5241ZM79.8051 19.5162C79.4941 18.7653 79.334 17.9606 79.334 17.1478L97.334 17.1478C97.334 15.5967 97.0285 14.0608 96.4349 12.6279L79.8051 19.5162ZM79.334 17.1478C79.334 16.335 79.4941 15.5302 79.8051 14.7793L96.4349 21.6676C97.0285 20.2347 97.334 18.6988 97.334 17.1478L79.334 17.1478ZM79.8051 14.7793C80.1161 14.0284 80.572 13.3462 81.1467 12.7715L93.8746 25.4994C94.9714 24.4027 95.8414 23.1006 96.4349 21.6676L79.8051 14.7793ZM81.1455 12.7727L70.9484 22.9736L83.6786 35.6991L93.8758 25.4982L81.1455 12.7727ZM70.9484 35.6991L81.1455 45.9001L93.8758 33.1745L83.6786 22.9736L70.9484 35.6991ZM81.1467 45.9012C79.9861 44.7406 79.334 43.1664 79.334 41.5249H97.334C97.334 38.3924 96.0896 35.3883 93.8746 33.1733L81.1467 45.9012ZM79.334 41.5249C79.334 39.8835 79.9861 38.3093 81.1467 37.1487L93.8746 49.8766C96.0896 47.6616 97.334 44.6574 97.334 41.5249H79.334ZM81.1467 37.1487C82.3073 35.988 83.8815 35.3359 85.523 35.3359V53.3359C88.6555 53.3359 91.6596 52.0915 93.8746 49.8766L81.1467 37.1487ZM85.523 35.3359C87.1644 35.3359 88.7386 35.988 89.8993 37.1487L77.1713 49.8766C79.3863 52.0915 82.3905 53.3359 85.523 53.3359V35.3359ZM89.8981 37.1475L79.6972 26.9503L66.9716 39.6806L77.1725 49.8777L89.8981 37.1475ZM66.9716 26.9503L56.7707 37.1475L69.4963 49.8777L79.6972 39.6806L66.9716 26.9503ZM56.7695 37.1487C57.9302 35.988 59.5044 35.3359 61.1458 35.3359V53.3359C64.2783 53.3359 67.2825 52.0915 69.4975 49.8766L56.7695 37.1487ZM61.1458 35.3359C62.7873 35.3359 64.3615 35.988 65.5221 37.1487L52.7942 49.8766C55.0092 52.0915 58.0133 53.3359 61.1458 53.3359V35.3359ZM65.5221 37.1487C66.6828 38.3093 67.3348 39.8835 67.3348 41.5249H49.3348C49.3348 44.6574 50.5792 47.6616 52.7942 49.8766L65.5221 37.1487ZM67.3348 41.5249C67.3348 43.1664 66.6828 44.7406 65.5221 45.9012L52.7942 33.1733C50.5792 35.3883 49.3348 38.3925 49.3348 41.5249H67.3348ZM65.5233 45.9001L75.7204 35.6991L62.9902 22.9736L52.793 33.1745L65.5233 45.9001ZM75.7204 22.9736L65.5233 12.7727L52.793 25.4982L62.9902 35.6991L75.7204 22.9736ZM65.5176 12.767C66.0934 13.342 66.5502 14.0248 66.8619 14.7765L50.2345 21.6708C50.829 23.1046 51.7004 24.4071 52.7987 25.5039L65.5176 12.767ZM66.8619 14.7765C67.1736 15.5282 67.334 16.334 67.334 17.1478H49.334C49.334 18.7 49.64 20.2369 50.2345 21.6708L66.8619 14.7765ZM67.334 17.1478C67.334 17.9615 67.1736 18.7673 66.8619 19.519L50.2345 12.6248C49.64 14.0586 49.334 15.5956 49.334 17.1478H67.334ZM66.8619 19.519C66.5502 20.2707 66.0934 20.9536 65.5176 21.5286L52.7987 8.7916C51.7004 9.88839 50.829 11.1909 50.2345 12.6248L66.8619 19.519Z" fill="white" mask="url(#path-2-outside-1_837_12399)"/>
<path d="M59.6889 13.6264C59.2266 13.8181 58.8066 14.0989 58.453 14.453C58.0989 14.8066 57.8181 15.2266 57.6264 15.6889C57.4346 16.1514 57.3359 16.6471 57.3359 17.1478C57.3359 17.6484 57.4346 18.1442 57.6264 18.6067C57.8181 19.069 58.099 19.489 58.4531 19.8427C58.4533 19.8428 58.4534 19.8429 58.4535 19.8431L67.9433 29.3364L58.453 38.8302C57.7383 39.5449 57.3368 40.5142 57.3368 41.5249C57.3368 42.5357 57.7383 43.505 58.453 44.2197L59.1543 43.5184L58.453 44.2197C59.1677 44.9344 60.137 45.3359 61.1478 45.3359C62.1584 45.3359 63.1277 44.9345 63.8424 44.2199C63.8425 44.2198 63.8425 44.2198 63.8426 44.2197L73.3364 34.7294L82.8302 44.2197C83.5449 44.9344 84.5142 45.3359 85.5249 45.3359C86.5357 45.3359 87.505 44.9344 88.2197 44.2197C88.9344 43.505 89.3359 42.5357 89.3359 41.5249C89.3359 40.5142 88.9344 39.5449 88.2197 38.8302L78.7294 29.3364L88.2197 19.8425C88.2198 19.8425 88.2198 19.8425 88.2199 19.8424C88.5737 19.4886 88.8543 19.0685 89.0458 18.6062C89.2374 18.1438 89.3359 17.6482 89.3359 17.1478C89.3359 16.6473 89.2374 16.1517 89.0458 15.6894C88.8543 15.227 88.5736 14.8069 88.2197 14.453C87.8658 14.0991 87.4457 13.8184 86.9833 13.6269C86.521 13.4353 86.0254 13.3368 85.5249 13.3368C85.0245 13.3368 84.5289 13.4353 84.0665 13.6269C83.6042 13.8184 83.184 14.0991 82.8302 14.453L73.3364 23.9433L63.8431 14.4535C63.8429 14.4534 63.8428 14.4533 63.8427 14.4531C63.489 14.099 63.069 13.8181 62.6067 13.6264C62.1442 13.4346 61.6484 13.3359 61.1478 13.3359C60.6471 13.3359 60.1514 13.4346 59.6889 13.6264Z" fill="#00AAD2" stroke="#00AAD2" stroke-width="2" stroke-linejoin="round"/>
</g>
</g>
<defs>
<clipPath id="clip0_837_12399">
<rect width="100" height="100" fill="white"/>
</clipPath>
<clipPath id="clip1_837_12399">
<rect width="50" height="50" fill="white" transform="translate(50 6)"/>
</clipPath>
</defs>
</svg>
