<svg width="220" height="24" viewBox="0 0 220 24" fill="none" xmlns="http://www.w3.org/2000/svg">
    <path d="M51.0621 5.57837V10.5745H45.391V5.57837H42.2705V18.7021H45.391V13.4238H51.0621V18.7021H54.1826V5.57837H54.0277H51.0621Z" fill="#002D74"/>
    <path d="M65.6354 5.57837L62.3656 10.7737L59.1012 5.57837H55.4164L60.8108 14.1542V18.7021H63.9258V14.1542L69.3203 5.57837H69.0326H65.6354Z" fill="#002D74"/>
    <path d="M79.3678 5.57837V15.1999C79.3678 15.565 79.0911 15.8583 78.7038 15.8583H73.6967V5.57837H70.5762V18.7021H79.8048C80.6292 18.7021 81.2876 18.4587 81.769 17.9773C82.2448 17.496 82.4883 16.8376 82.4883 16.0187V5.57837H82.3333H79.3678Z" fill="#002D74"/>
    <path d="M94.6162 5.57837H85.382V18.7021H88.508V8.42222H93.5151C93.919 8.42222 94.1791 8.73759 94.1791 9.08062V18.7021H97.2996V8.26176C97.2996 7.44291 97.0561 6.77898 96.5803 6.30316C96.0934 5.82181 95.435 5.57837 94.6162 5.57837Z" fill="#002D74"/>
    <path d="M108.985 9.09722V15.1777C108.985 15.5318 108.725 15.8583 108.315 15.8583H103.308V8.41668H108.293C108.708 8.41668 108.985 8.70439 108.985 9.09722ZM109.422 5.57837H100.188V18.7021H109.422C110.241 18.7021 110.899 18.4587 111.38 17.9773C111.862 17.496 112.105 16.8376 112.105 16.0187V8.26176C112.105 7.44291 111.862 6.78451 111.38 6.30316C110.899 5.82181 110.241 5.57837 109.422 5.57837Z" fill="#002D74"/>
    <path d="M123.658 8.41668V11.7972H117.981V9.08062C117.981 8.75972 118.236 8.41668 118.645 8.41668H123.658ZM117.549 5.57837C116.731 5.57837 116.067 5.82181 115.591 6.30316C115.11 6.78451 114.866 7.44291 114.866 8.26176V18.6966H117.981V14.6355H123.658V18.6966H126.778V5.57837H117.549Z" fill="#002D74"/>
    <path d="M132.936 5.57837H129.816V18.7021H132.936V5.57837Z" fill="#002D74"/>
    <path d="M11.3145 5.09139C11.6852 5.01946 11.9342 5.01946 12.0227 5.11352C12.0725 5.17438 12.0891 5.27397 12.0227 5.3957C11.984 5.46209 11.9397 5.52294 11.8678 5.60594C8.7086 9.3295 6.30737 14.818 5.62684 16.4004C5.57151 16.5111 5.52172 16.6162 5.47746 16.6881C5.41659 16.7988 5.3336 16.8928 5.18422 16.9039C5.09569 16.9094 4.98504 16.8873 4.80799 16.7822C2.7166 15.4875 1.46619 13.8774 1.46619 12.1346C1.46066 8.98093 5.51618 6.26987 11.3145 5.09139ZM14.5512 7.45942C14.8445 6.77336 15.359 5.2961 16.5375 4.70963C16.8971 4.53258 17.3342 4.44958 17.727 4.43852C17.8156 4.43299 17.8764 4.43852 17.9041 4.43852C21.2016 4.43852 24.2668 4.89221 26.834 5.67786C26.8561 5.6834 26.917 5.70553 26.9336 5.71106C27.1715 5.79405 27.2932 5.89918 27.2932 6.03196C27.2932 6.15368 27.2268 6.23667 27.1438 6.3252C27.1051 6.3584 27.0498 6.4082 26.9834 6.46906C26.3914 6.96147 24.6043 8.25614 21.2459 9.54528C20.0674 9.99344 18.5902 10.5578 17.0465 10.8842C16.1336 11.0779 12.7752 11.5869 14.5512 7.45942ZM30.2367 7.58114C30.303 7.47049 30.386 7.37643 30.541 7.36536C30.624 7.35983 30.7401 7.38196 30.9117 7.48709C33.0086 8.77622 34.2535 10.3863 34.2535 12.1346C34.2535 15.2883 30.2035 17.9938 24.4051 19.1834C24.0344 19.2553 23.7854 19.2553 23.7024 19.1612C23.6416 19.1004 23.625 19.0008 23.7024 18.8791C23.7356 18.8182 23.7799 18.7574 23.8574 18.6633C27.011 14.9453 29.4178 9.45675 30.1039 7.87438C30.1426 7.75819 30.1979 7.65307 30.2367 7.58114ZM21.2182 16.7932C20.9194 17.4848 20.4104 18.9621 19.232 19.5486C18.8779 19.7256 18.4352 19.8141 18.0424 19.8252C17.9539 19.8252 17.893 19.8252 17.8654 19.8252C14.5678 19.8252 11.5027 19.366 8.93544 18.5858C8.91331 18.5803 8.85245 18.5526 8.83585 18.5471C8.59794 18.4697 8.47622 18.359 8.47622 18.2262C8.47622 18.1045 8.53708 18.0215 8.62561 17.9385C8.65881 17.8998 8.71413 17.8555 8.78606 17.7947C9.37806 17.3022 11.1652 16.0076 14.5291 14.7184C15.7076 14.2647 17.1848 13.7059 18.7285 13.3795C19.6303 13.1803 22.9942 12.6713 21.2182 16.7932ZM17.8543 21.2803C27.7137 21.2803 35.703 17.1861 35.703 12.1402C35.703 7.09426 27.7137 3 17.8543 3C7.99487 3 0 7.09426 0 12.1402C0.00553278 17.1861 7.99487 21.2803 17.8543 21.2803Z" fill="#002D74"/>
    <path d="M138.806 5.50635H147.521V7.09425H140.588V11.2936H146.823V12.8815H140.588V18.6688H138.806V5.50635Z" fill="#002D74"/>
    <path d="M149.745 5.50635H151.526V18.6744H149.745V5.50635Z" fill="#002D74"/>
    <path d="M154.857 5.50635H156.428L164.484 15.6922V5.50635H166.266V18.6744H164.7L156.644 8.48852V18.6744H154.863V5.50635H154.857Z" fill="#002D74"/>
    <path d="M173.386 5.50635H175.4L180.706 18.6744H178.825L177.547 15.4985H171.195L169.939 18.6744H168.058L173.386 5.50635ZM171.837 13.9106H176.933L174.399 7.52028L171.837 13.9106Z" fill="#002D74"/>
    <path d="M182.51 5.50635H184.081L192.137 15.6922V5.50635H193.918V18.6744H192.353L184.297 8.48852V18.6744H182.515V5.50635H182.51Z" fill="#002D74"/>
    <path d="M202.998 18.9069C202.041 18.9069 201.161 18.7354 200.353 18.3813C199.545 18.0327 198.848 17.5513 198.262 16.9372C197.675 16.3231 197.216 15.5983 196.884 14.7683C196.558 13.9384 196.392 13.0421 196.392 12.0849C196.392 11.1278 196.558 10.237 196.884 9.40154C197.216 8.56609 197.67 7.84683 198.262 7.23269C198.848 6.61856 199.545 6.1372 200.353 5.78864C201.161 5.44007 202.041 5.26855 202.998 5.26855C204.342 5.26855 205.51 5.57839 206.511 6.19807C207.512 6.81774 208.287 7.64212 208.846 8.67675L207.452 9.62286C207.037 8.80954 206.461 8.1622 205.72 7.67532C204.978 7.18843 204.077 6.95052 203.02 6.95052C202.295 6.95052 201.642 7.08331 201.056 7.34889C200.469 7.61446 199.966 7.97409 199.545 8.43331C199.125 8.89253 198.804 9.43474 198.577 10.0599C198.35 10.6851 198.24 11.3602 198.24 12.0849C198.24 12.8097 198.35 13.4847 198.577 14.1099C198.804 14.7352 199.125 15.2774 199.545 15.7366C199.966 16.1958 200.469 16.5554 201.056 16.821C201.642 17.0866 202.301 17.2194 203.02 17.2194C204.077 17.2194 204.978 16.9759 205.72 16.4946C206.461 16.0132 207.042 15.3604 207.452 14.547L208.846 15.4931C208.293 16.5278 207.512 17.3522 206.511 17.9718C205.51 18.5915 204.342 18.9069 202.998 18.9069Z" fill="#002D74"/>
    <path d="M211.07 5.50635H220V7.09425H212.852V11.2383H219.109V12.8262H212.852V17.0865H220V18.6744H211.07V5.50635Z" fill="#002D74"/>
</svg>