<svg width="180" height="93" viewBox="0 0 180 93" fill="none" xmlns="http://www.w3.org/2000/svg">
    <rect width="180" height="93" fill="white"/>
    <path d="M121.78 45.6663C121.575 45.377 121.346 45.1717 121.094 45.0503C120.842 44.9197 120.567 44.8543 120.268 44.8543C119.923 44.8543 119.662 44.9523 119.484 45.1483C119.307 45.335 119.218 45.5543 119.218 45.8063C119.218 46.3103 119.517 46.6277 120.114 46.7583L120.702 46.8843C121.365 47.0243 121.878 47.2577 122.242 47.5843C122.616 47.9017 122.802 48.3683 122.802 48.9843C122.802 49.2643 122.742 49.535 122.62 49.7963C122.508 50.0577 122.34 50.291 122.116 50.4963C121.892 50.6923 121.617 50.851 121.29 50.9723C120.964 51.0937 120.595 51.1543 120.184 51.1543C119.876 51.1543 119.592 51.1123 119.33 51.0283C119.069 50.9537 118.826 50.851 118.602 50.7203C118.388 50.5897 118.192 50.4357 118.014 50.2583C117.837 50.081 117.688 49.899 117.566 49.7123L118.294 49.0403C118.5 49.3483 118.761 49.619 119.078 49.8523C119.396 50.0857 119.774 50.2023 120.212 50.2023C120.66 50.2023 121.015 50.0997 121.276 49.8943C121.538 49.689 121.668 49.409 121.668 49.0543C121.668 48.7277 121.552 48.4803 121.318 48.3123C121.085 48.1443 120.772 48.0183 120.38 47.9343L119.792 47.8083C119.242 47.687 118.817 47.4677 118.518 47.1503C118.229 46.833 118.084 46.4223 118.084 45.9183C118.084 45.657 118.131 45.405 118.224 45.1623C118.327 44.9103 118.472 44.6957 118.658 44.5183C118.845 44.3317 119.078 44.1823 119.358 44.0703C119.638 43.9583 119.956 43.9023 120.31 43.9023C120.796 43.9023 121.225 44.005 121.598 44.2103C121.972 44.4157 122.275 44.691 122.508 45.0363L121.78 45.6663Z" fill="black"/>
    <path d="M113.477 51.1543C112.982 51.1543 112.539 51.0703 112.147 50.9023C111.755 50.7343 111.419 50.4917 111.139 50.1743C110.868 49.857 110.658 49.479 110.509 49.0403C110.36 48.5923 110.285 48.0883 110.285 47.5283C110.285 46.9777 110.36 46.4783 110.509 46.0303C110.658 45.5823 110.868 45.2043 111.139 44.8963C111.419 44.579 111.75 44.3363 112.133 44.1683C112.525 43.991 112.959 43.9023 113.435 43.9023C113.902 43.9023 114.322 43.991 114.695 44.1683C115.068 44.3363 115.386 44.5743 115.647 44.8823C115.908 45.181 116.109 45.5403 116.249 45.9603C116.389 46.3803 116.459 46.8377 116.459 47.3323C116.459 47.5283 116.445 47.7103 116.417 47.8783H111.461C111.508 48.6063 111.713 49.171 112.077 49.5723C112.441 49.9643 112.931 50.1603 113.547 50.1603C113.976 50.1603 114.359 50.0717 114.695 49.8943C115.031 49.717 115.302 49.465 115.507 49.1383L116.263 49.7683C116.002 50.1603 115.642 50.4917 115.185 50.7623C114.737 51.0237 114.168 51.1543 113.477 51.1543ZM113.435 44.8963C112.903 44.8963 112.464 45.0737 112.119 45.4283C111.774 45.7737 111.559 46.273 111.475 46.9263H115.283C115.246 46.301 115.059 45.8063 114.723 45.4423C114.396 45.0783 113.967 44.8963 113.435 44.8963Z" fill="black"/>
    <path d="M105.157 50.7343C104.719 50.7343 104.322 50.6503 103.967 50.4823C103.613 50.3143 103.309 50.081 103.057 49.7823C102.805 49.4743 102.609 49.1103 102.469 48.6903C102.339 48.2703 102.273 47.813 102.273 47.3183C102.273 46.8237 102.339 46.3663 102.469 45.9463C102.609 45.5263 102.805 45.167 103.057 44.8683C103.309 44.5603 103.613 44.3223 103.967 44.1543C104.322 43.9863 104.719 43.9023 105.157 43.9023C105.605 43.9023 106.016 44.005 106.389 44.2103C106.772 44.4063 107.089 44.677 107.341 45.0223V44.0563H108.419V50.3983C108.419 50.8463 108.354 51.2757 108.223 51.6863C108.102 52.097 107.911 52.4563 107.649 52.7643C107.397 53.0723 107.075 53.3197 106.683 53.5063C106.291 53.693 105.825 53.7863 105.283 53.7863C104.91 53.7863 104.569 53.7397 104.261 53.6463C103.963 53.553 103.697 53.427 103.463 53.2683C103.23 53.1097 103.025 52.9277 102.847 52.7223C102.679 52.517 102.544 52.2977 102.441 52.0643L103.281 51.5323C103.449 51.9057 103.697 52.209 104.023 52.4423C104.359 52.6757 104.765 52.7923 105.241 52.7923C105.615 52.7923 105.932 52.727 106.193 52.5963C106.455 52.475 106.665 52.307 106.823 52.0923C106.991 51.8777 107.113 51.6257 107.187 51.3363C107.262 51.0563 107.299 50.7577 107.299 50.4403V49.6703C107.047 49.997 106.735 50.2583 106.361 50.4543C105.997 50.641 105.596 50.7343 105.157 50.7343ZM105.409 49.7403C105.839 49.7403 106.221 49.6283 106.557 49.4043C106.893 49.1803 107.141 48.891 107.299 48.5363V46.1143C107.141 45.7597 106.893 45.4703 106.557 45.2463C106.221 45.013 105.839 44.8963 105.409 44.8963C104.793 44.8963 104.308 45.1157 103.953 45.5543C103.608 45.9837 103.435 46.5717 103.435 47.3183C103.435 48.065 103.608 48.6577 103.953 49.0963C104.308 49.5257 104.793 49.7403 105.409 49.7403Z" fill="black"/>
    <path d="M97.437 51.1543C97.045 51.1543 96.6903 51.0937 96.373 50.9723C96.0557 50.851 95.785 50.6877 95.561 50.4823C95.3463 50.277 95.1783 50.039 95.057 49.7683C94.9357 49.4883 94.875 49.1897 94.875 48.8723C94.875 48.555 94.9357 48.261 95.057 47.9903C95.1783 47.7103 95.3463 47.4677 95.561 47.2623C95.785 47.057 96.0557 46.8937 96.373 46.7723C96.6903 46.651 97.045 46.5903 97.437 46.5903C97.801 46.5903 98.151 46.6603 98.487 46.8003C98.823 46.931 99.117 47.1317 99.369 47.4023V46.7023C99.369 46.1983 99.229 45.7737 98.949 45.4283C98.6783 45.0737 98.2537 44.8963 97.675 44.8963C97.2643 44.8963 96.933 44.9663 96.681 45.1063C96.429 45.2463 96.177 45.4377 95.925 45.6803L95.281 44.9523C95.4023 44.8217 95.5377 44.6957 95.687 44.5743C95.8457 44.4437 96.023 44.3317 96.219 44.2383C96.415 44.1357 96.6343 44.0563 96.877 44.0003C97.1197 43.935 97.395 43.9023 97.703 43.9023C98.1603 43.9023 98.5617 43.9677 98.907 44.0983C99.2523 44.229 99.5417 44.4157 99.775 44.6583C100.008 44.8917 100.186 45.1763 100.307 45.5123C100.428 45.8483 100.489 46.217 100.489 46.6183V51.0003H99.411V50.3143C99.1497 50.5943 98.8463 50.8043 98.501 50.9443C98.165 51.0843 97.8103 51.1543 97.437 51.1543ZM97.591 50.2163C97.9083 50.2163 98.235 50.151 98.571 50.0203C98.9163 49.8897 99.1823 49.6657 99.369 49.3483V48.3963C99.1823 48.0883 98.9163 47.869 98.571 47.7383C98.235 47.5983 97.9083 47.5283 97.591 47.5283C97.311 47.5283 97.0683 47.5703 96.863 47.6543C96.667 47.729 96.5037 47.8317 96.373 47.9623C96.2517 48.093 96.1583 48.2377 96.093 48.3963C96.037 48.555 96.009 48.7137 96.009 48.8723C96.009 49.031 96.037 49.1897 96.093 49.3483C96.1583 49.507 96.2517 49.6517 96.373 49.7823C96.5037 49.913 96.667 50.0203 96.863 50.1043C97.0683 50.179 97.311 50.2163 97.591 50.2163Z" fill="black"/>
    <path d="M83.0859 44.0563H84.1639V45.0083C84.2573 44.8683 84.3739 44.733 84.5139 44.6023C84.6539 44.4717 84.8126 44.355 84.9899 44.2523C85.1766 44.1497 85.3773 44.0657 85.5919 44.0003C85.8066 43.935 86.0353 43.9023 86.2779 43.9023C86.7913 43.9023 87.2253 44.0097 87.5799 44.2243C87.9439 44.4297 88.2193 44.733 88.4059 45.1343C88.4899 44.985 88.6066 44.8403 88.7559 44.7003C88.9053 44.551 89.0779 44.4203 89.2739 44.3083C89.4699 44.187 89.6893 44.089 89.9319 44.0143C90.1746 43.9397 90.4313 43.9023 90.7019 43.9023C91.5046 43.9023 92.1206 44.145 92.5499 44.6303C92.9793 45.1063 93.1939 45.7783 93.1939 46.6463V51.0003H92.0739V46.7583C92.0739 46.1423 91.9339 45.6803 91.6539 45.3723C91.3833 45.055 90.9959 44.8963 90.4919 44.8963C90.0159 44.8963 89.6239 45.0223 89.3159 45.2743C89.0079 45.5263 88.8026 45.8157 88.6999 46.1423V51.0003H87.5799V46.7583C87.5799 46.1423 87.4399 45.6803 87.1599 45.3723C86.8893 45.055 86.5019 44.8963 85.9979 44.8963C85.5219 44.8963 85.1299 45.0223 84.8219 45.2743C84.5139 45.5263 84.3086 45.8157 84.2059 46.1423V51.0003H83.0859V44.0563Z" fill="black"/>
    <path d="M79.375 41.4805H80.537V51.0005H79.375V41.4805Z" fill="black"/>
    <path d="M70.6979 50.1603C71.3419 50.1603 71.8552 49.9317 72.2379 49.4743C72.6205 49.0077 72.8119 48.359 72.8119 47.5283C72.8119 46.6977 72.6205 46.0537 72.2379 45.5963C71.8552 45.1297 71.3419 44.8963 70.6979 44.8963C70.0539 44.8963 69.5405 45.1297 69.1579 45.5963C68.7752 46.0537 68.5839 46.6977 68.5839 47.5283C68.5839 48.359 68.7752 49.0077 69.1579 49.4743C69.5405 49.9317 70.0539 50.1603 70.6979 50.1603ZM70.6979 43.9023C71.1925 43.9023 71.6405 43.991 72.0419 44.1683C72.4525 44.3457 72.7979 44.593 73.0779 44.9103C73.3672 45.2277 73.5865 45.6103 73.7359 46.0583C73.8945 46.5063 73.9739 46.9963 73.9739 47.5283C73.9739 48.0603 73.8945 48.5503 73.7359 48.9983C73.5865 49.4463 73.3672 49.829 73.0779 50.1463C72.7979 50.4637 72.4525 50.711 72.0419 50.8883C71.6405 51.0657 71.1925 51.1543 70.6979 51.1543C70.2032 51.1543 69.7505 51.0657 69.3399 50.8883C68.9385 50.711 68.5932 50.4637 68.3039 50.1463C68.0239 49.829 67.8045 49.4463 67.6459 48.9983C67.4965 48.5503 67.4219 48.0603 67.4219 47.5283C67.4219 46.9963 67.4965 46.5063 67.6459 46.0583C67.8045 45.6103 68.0239 45.2277 68.3039 44.9103C68.5932 44.593 68.9385 44.3457 69.3399 44.1683C69.7505 43.991 70.2032 43.9023 70.6979 43.9023Z" fill="black"/>
    <path d="M57.9648 41.4805H58.9868L63.5228 47.9485C63.7095 48.2005 63.8728 48.4385 64.0128 48.6625C64.1528 48.8865 64.2415 49.0498 64.2788 49.1525H64.3208C64.2928 49.0498 64.2695 48.8631 64.2508 48.5925C64.2415 48.3218 64.2368 48.0278 64.2368 47.7105V41.4805H65.3988V51.0005H64.3768L59.8408 44.5325C59.6542 44.2805 59.4908 44.0425 59.3508 43.8185C59.2108 43.5945 59.1222 43.4311 59.0848 43.3285H59.0428C59.0708 43.4311 59.0895 43.6178 59.0988 43.8885C59.1175 44.1591 59.1268 44.4531 59.1268 44.7705V51.0005H57.9648V41.4805Z" fill="black"/>
    </svg>
    