<svg width="94" height="100" viewBox="0 0 94 100" fill="none" xmlns="http://www.w3.org/2000/svg">
<g id="Group 2659">
<path id="Vector" d="M10.75 0H55.75C58.4022 0 60.9457 1.05357 62.8211 2.92893C64.6964 4.8043 65.75 7.34784 65.75 10V18H55.75V10H10.75V90H55.75V82H65.75V90C65.75 92.6522 64.6964 95.1957 62.8211 97.0711C60.9457 98.9464 58.4022 100 55.75 100H10.75C8.09784 100 5.5543 98.9464 3.67893 97.0711C1.80357 95.1957 0.75 92.6522 0.75 90V10C0.75 7.34784 1.80357 4.8043 3.67893 2.92893C5.5543 1.05357 8.09784 0 10.75 0Z" fill="#E5E5E5"/>
<path id="Vector_2" d="M61.2039 67.951L68.2539 75.001L93.2539 50.001L68.2539 25.001L61.2039 32.051L74.1039 45.001H25.7539V55.001H74.1039L61.2039 67.951Z" fill="#5d7d2b"/>
</g>
</svg>
