<svg width="100" height="100" viewBox="0 0 100 100" fill="none" xmlns="http://www.w3.org/2000/svg">
<g clip-path="url(#clip0_837_12549)">
<path d="M97.5 69.9998H85V17.7264C85 13.467 81.6359 9.99985 77.5 9.99985H60V19.9998H75V79.9998H97.5C98.8812 79.9998 100 78.8811 100 77.4998V72.4998C100 71.1186 98.8812 69.9998 97.5 69.9998ZM48.7875 0.15766L18.7875 7.92954C16.5609 8.5061 15 10.578 15 12.9561V69.9998H2.5C1.11875 69.9998 0 71.1186 0 72.4998V77.4998C0 78.8811 1.11875 79.9998 2.5 79.9998H55V5.18422C55 1.81235 51.9437 -0.66109 48.7875 0.15766ZM41.25 44.9998C39.1797 44.9998 37.5 42.7608 37.5 39.9998C37.5 37.2389 39.1797 34.9998 41.25 34.9998C43.3203 34.9998 45 37.2389 45 39.9998C45 42.7608 43.3203 44.9998 41.25 44.9998Z" fill="#E5E5E5"/>
<g clip-path="url(#clip1_837_12549)">
<mask id="path-2-outside-1_837_12549" maskUnits="userSpaceOnUse" x="58.3359" y="49.3359" width="48" height="48" fill="black">
<rect fill="white" x="58.3359" y="49.3359" width="48" height="48"/>
<path d="M68.1601 59.1601C68.421 58.8988 68.7308 58.6916 69.0719 58.5501C69.4129 58.4087 69.7785 58.3359 70.1478 58.3359C70.517 58.3359 70.8826 58.4087 71.2236 58.5501C71.5647 58.6916 71.8746 58.8988 72.1354 59.1601L82.3364 69.3572L92.5373 59.1601C92.7983 58.8991 93.1082 58.692 93.4492 58.5507C93.7903 58.4095 94.1558 58.3368 94.5249 58.3368C94.8941 58.3368 95.2596 58.4095 95.6007 58.5507C95.9417 58.692 96.2516 58.8991 96.5126 59.1601C96.7736 59.4211 96.9807 59.731 97.122 60.072C97.2632 60.4131 97.3359 60.7786 97.3359 61.1478C97.3359 61.5169 97.2632 61.8824 97.122 62.2235C96.9807 62.5645 96.7736 62.8744 96.5126 63.1354L86.3155 73.3364L96.5126 83.5373C97.0398 84.0644 97.3359 84.7794 97.3359 85.5249C97.3359 86.2705 97.0398 86.9854 96.5126 87.5126C95.9854 88.0398 95.2705 88.3359 94.5249 88.3359C93.7794 88.3359 93.0644 88.0398 92.5373 87.5126L82.3364 77.3155L72.1354 87.5126C71.6083 88.0398 70.8933 88.3359 70.1478 88.3359C69.4022 88.3359 68.6873 88.0398 68.1601 87.5126C67.6329 86.9854 67.3368 86.2705 67.3368 85.5249C67.3368 84.7794 67.6329 84.0644 68.1601 83.5373L78.3572 73.3364L68.1601 63.1354C67.8988 62.8746 67.6916 62.5647 67.5501 62.2236C67.4087 61.8826 67.3359 61.517 67.3359 61.1478C67.3359 60.7785 67.4087 60.4129 67.5501 60.0719C67.6916 59.7308 67.8988 59.421 68.1601 59.1601Z"/>
</mask>
<path d="M68.1601 59.1601L74.5195 65.5286L74.5286 65.5195L68.1601 59.1601ZM70.1478 58.3359V67.3359V58.3359ZM72.1354 59.1601L65.7669 65.5195L65.7727 65.5252L72.1354 59.1601ZM82.3364 69.3572L75.9736 75.7224C79.488 79.2355 85.1847 79.2355 88.6991 75.7224L82.3364 69.3572ZM92.5373 59.1601L98.9001 65.5252L98.9012 65.5241L92.5373 59.1601ZM94.5249 58.3368V49.3368V58.3368ZM96.5126 63.1354L90.1487 56.7715L90.1475 56.7727L96.5126 63.1354ZM86.3155 73.3364L79.9503 66.9736C76.4372 70.488 76.4372 76.1847 79.9503 79.6991L86.3155 73.3364ZM96.5126 83.5373L90.1475 89.9001L90.1487 89.9012L96.5126 83.5373ZM92.5373 87.5126L98.9012 81.1487L98.9001 81.1475L92.5373 87.5126ZM82.3364 77.3155L88.6991 70.9503C85.1847 67.4372 79.488 67.4372 75.9736 70.9503L82.3364 77.3155ZM72.1354 87.5126L65.7727 81.1475L65.7715 81.1487L72.1354 87.5126ZM68.1601 83.5373L74.5241 89.9012L74.5252 89.9001L68.1601 83.5373ZM78.3572 73.3364L84.7224 79.6991C88.2355 76.1847 88.2355 70.488 84.7224 66.9736L78.3572 73.3364ZM68.1601 63.1354L74.5252 56.7727L74.5195 56.767L68.1601 63.1354ZM74.5286 65.5195C73.9536 66.0953 73.2707 66.5522 72.519 66.8638L65.6248 50.2365C64.1909 50.831 62.8884 51.7023 61.7916 52.8007L74.5286 65.5195ZM72.519 66.8638C71.7673 67.1755 70.9615 67.3359 70.1478 67.3359V49.3359C68.5956 49.3359 67.0586 49.6419 65.6248 50.2365L72.519 66.8638ZM70.1478 67.3359C69.334 67.3359 68.5282 67.1755 67.7765 66.8638L74.6708 50.2365C73.2369 49.6419 71.7 49.3359 70.1478 49.3359V67.3359ZM67.7765 66.8638C67.0248 66.5522 66.342 66.0953 65.767 65.5195L78.5039 52.8007C77.4071 51.7023 76.1046 50.831 74.6708 50.2365L67.7765 66.8638ZM65.7727 65.5252L75.9736 75.7224L88.6991 62.9921L78.4982 52.795L65.7727 65.5252ZM88.6991 75.7224L98.9001 65.5252L86.1745 52.795L75.9736 62.9921L88.6991 75.7224ZM98.9012 65.5241C98.3265 66.0987 97.6443 66.5546 96.8934 66.8657L90.0051 50.2358C88.5721 50.8294 87.27 51.6994 86.1733 52.7961L98.9012 65.5241ZM96.8934 66.8657C96.1425 67.1767 95.3377 67.3368 94.5249 67.3368V49.3368C92.9739 49.3368 91.438 49.6423 90.0051 50.2358L96.8934 66.8657ZM94.5249 67.3368C93.7122 67.3368 92.9074 67.1767 92.1565 66.8657L99.0448 50.2358C97.6118 49.6423 96.076 49.3368 94.5249 49.3368V67.3368ZM92.1565 66.8657C91.4056 66.5546 90.7233 66.0987 90.1487 65.5241L102.877 52.7961C101.78 51.6994 100.478 50.8294 99.0448 50.2358L92.1565 66.8657ZM90.1487 65.5241C89.574 64.9494 89.1181 64.2671 88.807 63.5162L105.437 56.6279C104.843 55.1949 103.973 53.8929 102.877 52.7961L90.1487 65.5241ZM88.807 63.5162C88.496 62.7653 88.3359 61.9606 88.3359 61.1478L106.336 61.1478C106.336 59.5967 106.03 58.0608 105.437 56.6279L88.807 63.5162ZM88.3359 61.1478C88.3359 60.335 88.496 59.5302 88.807 58.7793L105.437 65.6676C106.03 64.2347 106.336 62.6988 106.336 61.1478L88.3359 61.1478ZM88.807 58.7793C89.1181 58.0284 89.574 57.3462 90.1487 56.7715L102.877 69.4994C103.973 68.4027 104.843 67.1006 105.437 65.6676L88.807 58.7793ZM90.1475 56.7727L79.9503 66.9736L92.6806 79.6991L102.878 69.4982L90.1475 56.7727ZM79.9503 79.6991L90.1475 89.9001L102.878 77.1745L92.6806 66.9736L79.9503 79.6991ZM90.1487 89.9012C88.988 88.7406 88.3359 87.1664 88.3359 85.5249H106.336C106.336 82.3924 105.092 79.3883 102.877 77.1733L90.1487 89.9012ZM88.3359 85.5249C88.3359 83.8835 88.988 82.3093 90.1487 81.1487L102.877 93.8766C105.092 91.6616 106.336 88.6574 106.336 85.5249H88.3359ZM90.1487 81.1487C91.3093 79.988 92.8835 79.3359 94.5249 79.3359V97.3359C97.6574 97.3359 100.662 96.0915 102.877 93.8766L90.1487 81.1487ZM94.5249 79.3359C96.1664 79.3359 97.7406 79.988 98.9012 81.1487L86.1733 93.8766C88.3883 96.0915 91.3924 97.3359 94.5249 97.3359V79.3359ZM98.9001 81.1475L88.6991 70.9503L75.9736 83.6806L86.1745 93.8777L98.9001 81.1475ZM75.9736 70.9503L65.7727 81.1475L78.4982 93.8777L88.6991 83.6806L75.9736 70.9503ZM65.7715 81.1487C66.9321 79.988 68.5063 79.3359 70.1478 79.3359V97.3359C73.2803 97.3359 76.2844 96.0915 78.4994 93.8766L65.7715 81.1487ZM70.1478 79.3359C71.7892 79.3359 73.3634 79.988 74.5241 81.1487L61.7961 93.8766C64.0111 96.0915 67.0153 97.3359 70.1478 97.3359V79.3359ZM74.5241 81.1487C75.6847 82.3093 76.3368 83.8835 76.3368 85.5249H58.3368C58.3368 88.6574 59.5811 91.6616 61.7961 93.8766L74.5241 81.1487ZM76.3368 85.5249C76.3368 87.1664 75.6847 88.7406 74.5241 89.9012L61.7961 77.1733C59.5811 79.3883 58.3368 82.3925 58.3368 85.5249H76.3368ZM74.5252 89.9001L84.7224 79.6991L71.9921 66.9736L61.795 77.1745L74.5252 89.9001ZM84.7224 66.9736L74.5252 56.7727L61.795 69.4982L71.9921 79.6991L84.7224 66.9736ZM74.5195 56.767C75.0953 57.342 75.5522 58.0248 75.8638 58.7765L59.2365 65.6708C59.831 67.1046 60.7023 68.4071 61.8007 69.5039L74.5195 56.767ZM75.8638 58.7765C76.1755 59.5282 76.3359 60.334 76.3359 61.1478H58.3359C58.3359 62.7 58.6419 64.2369 59.2365 65.6708L75.8638 58.7765ZM76.3359 61.1478C76.3359 61.9615 76.1755 62.7673 75.8638 63.519L59.2365 56.6248C58.6419 58.0586 58.3359 59.5956 58.3359 61.1478H76.3359ZM75.8638 63.519C75.5522 64.2707 75.0953 64.9536 74.5195 65.5286L61.8007 52.7916C60.7023 53.8884 59.831 55.1909 59.2365 56.6248L75.8638 63.519Z" fill="white" mask="url(#path-2-outside-1_837_12549)"/>
<path d="M68.6889 57.6264C68.2266 57.8181 67.8066 58.0989 67.453 58.453C67.0989 58.8066 66.8181 59.2266 66.6264 59.6889C66.4346 60.1514 66.3359 60.6471 66.3359 61.1478C66.3359 61.6484 66.4346 62.1442 66.6264 62.6067C66.8181 63.069 67.099 63.489 67.4531 63.8427C67.4533 63.8428 67.4534 63.8429 67.4535 63.8431L76.9433 73.3364L67.453 82.8302C66.7383 83.5449 66.3368 84.5142 66.3368 85.5249C66.3368 86.5357 66.7383 87.505 67.453 88.2197L68.1543 87.5184L67.453 88.2197C68.1677 88.9344 69.137 89.3359 70.1478 89.3359C71.1584 89.3359 72.1277 88.9345 72.8424 88.2199C72.8425 88.2198 72.8425 88.2198 72.8426 88.2197L82.3364 78.7294L91.8302 88.2197C92.5449 88.9344 93.5142 89.3359 94.5249 89.3359C95.5357 89.3359 96.505 88.9344 97.2197 88.2197C97.9344 87.505 98.3359 86.5357 98.3359 85.5249C98.3359 84.5142 97.9344 83.5449 97.2197 82.8302L87.7294 73.3364L97.2197 63.8425C97.2198 63.8425 97.2198 63.8425 97.2199 63.8424C97.5737 63.4886 97.8543 63.0685 98.0458 62.6062C98.2374 62.1438 98.3359 61.6482 98.3359 61.1478C98.3359 60.6473 98.2374 60.1517 98.0458 59.6894C97.8543 59.227 97.5736 58.8069 97.2197 58.453C96.8658 58.0991 96.4457 57.8184 95.9833 57.6269C95.521 57.4353 95.0254 57.3368 94.5249 57.3368C94.0245 57.3368 93.5289 57.4353 93.0665 57.6269C92.6042 57.8184 92.184 58.0991 91.8302 58.453L82.3364 67.9433L72.8431 58.4535C72.8429 58.4534 72.8428 58.4533 72.8427 58.4531C72.489 58.099 72.069 57.8181 71.6067 57.6264C71.1442 57.4346 70.6484 57.3359 70.1478 57.3359C69.6471 57.3359 69.1514 57.4346 68.6889 57.6264Z" fill="#00AAD2" stroke="#00AAD2" stroke-width="2" stroke-linejoin="round"/>
</g>
</g>
<defs>
<clipPath id="clip0_837_12549">
<rect width="100" height="100" fill="white"/>
</clipPath>
<clipPath id="clip1_837_12549">
<rect width="50" height="50" fill="white" transform="translate(59 50)"/>
</clipPath>
</defs>
</svg>
