<svg width="100" height="100" viewBox="0 0 100 100" fill="none" xmlns="http://www.w3.org/2000/svg">
<g clip-path="url(#clip0_636_10828)">
<path d="M78.0395 9.47368H73.3026V0H63.8289V9.47368H25.9342V0H16.4605V9.47368H11.7237C9.21111 9.47368 6.80144 10.4718 5.02478 12.2485C3.24812 14.0251 2.25 16.4348 2.25 18.9474V80.5263C2.25 83.0389 3.24812 85.4486 5.02478 87.2252C6.80144 89.0019 9.21111 90 11.7237 90H78.0395C80.5521 90 82.9617 89.0019 84.7384 87.2252C86.515 85.4486 87.5132 83.0389 87.5132 80.5263V18.9474C87.5132 16.4348 86.515 14.0251 84.7384 12.2485C82.9617 10.4718 80.5521 9.47368 78.0395 9.47368ZM78.0395 80.5263H11.7237V28.4211H78.0395V80.5263Z" fill="#E5E5E5"/>
<path d="M69.7794 101.084L69.7807 101.082L91.7116 76.4523C92.4835 75.6181 93.0846 74.6389 93.4769 73.5688C93.8763 72.4796 94.0504 71.3208 93.9874 70.1614C93.9245 69.002 93.6261 67.8691 93.1122 66.8299C92.5983 65.7908 91.8804 64.8682 91.0042 64.1141C90.1282 63.3601 89.1114 62.7893 88.015 62.432C86.9188 62.0747 85.7626 61.9372 84.6138 62.0264C83.465 62.1156 82.3435 62.43 81.3151 62.9535C80.3038 63.4683 79.401 64.176 78.6604 65.0393L62.0269 83.7223L55.9024 79.2084L53.7099 82.1833L55.9024 79.2084C54.9875 78.5341 53.9501 78.0461 52.8503 77.7692C51.7505 77.4923 50.607 77.4312 49.4842 77.5888C48.3614 77.7464 47.2782 78.1202 46.2965 78.6914C45.3148 79.2626 44.4524 80.021 43.7614 80.9264C43.0703 81.832 42.5646 82.8663 42.2766 83.9711C41.9885 85.076 41.9246 86.2269 42.0889 87.3573C42.2532 88.4875 42.6421 89.5718 43.2304 90.5483C43.8187 91.5246 44.5941 92.3729 45.5091 93.0473L58.0579 102.296L58.059 102.297C59.8139 103.589 61.9893 104.176 64.1513 103.954C66.3138 103.732 68.3263 102.714 69.7794 101.084Z" fill="white" stroke="white" stroke-width="8"/>
<path d="M89.7214 72.1919C89.5085 72.7725 89.1795 73.3055 88.7537 73.7592L66.7933 98.4225C66.0118 99.2993 64.9222 99.8537 63.7426 99.9749C62.5629 100.096 61.3802 99.7751 60.4311 99.076L47.8823 89.8273C47.3879 89.463 46.9714 89.0065 46.6566 88.4839C46.3417 87.9614 46.1347 87.383 46.0473 86.7818C45.9599 86.1806 45.9939 85.5684 46.1472 84.9802C46.3006 84.3919 46.5704 83.8391 46.9412 83.3532C47.3119 82.8674 47.7765 82.4581 48.3082 82.1487C48.84 81.8393 49.4285 81.6358 50.0403 81.55C50.6521 81.4641 51.275 81.4975 51.8737 81.6482C52.4723 81.7989 53.0349 82.064 53.5293 82.4284L62.5895 89.1059L81.6761 67.6674C82.0778 67.1929 82.572 66.8021 83.1297 66.5182C83.6874 66.2343 84.2974 66.063 84.9235 66.0144C85.5497 65.9657 86.1794 66.0408 86.7756 66.2351C87.3717 66.4294 87.9223 66.739 88.3948 67.1457C88.8673 67.5524 89.2521 68.0479 89.5267 68.6031C89.8012 69.1582 89.9599 69.7617 89.9933 70.3781C90.0268 70.9945 89.9343 71.6112 89.7214 72.1919Z" fill="#00AAD2"/>
</g>
<defs>
<clipPath id="clip0_636_10828">
<rect width="100" height="100" fill="white"/>
</clipPath>
</defs>
</svg>
