<svg width="195" height="21" viewBox="0 0 195 21" fill="none" xmlns="http://www.w3.org/2000/svg">
    <path d="M47.2499 17.5122C47.2499 17.661 47.2975 17.7503 47.3869 17.7503C47.4524 17.7503 47.5119 17.7205 47.5834 17.6729L72.8647 1.25732C73.3053 0.965563 73.7161 0.816697 74.3235 0.816697H79.8787C80.7361 0.816697 81.3017 1.3883 81.3017 2.23975V12.8501C81.3017 14.1302 81.0159 14.8745 79.8787 15.5592L73.1386 19.608C73.0493 19.6616 72.9778 19.6914 72.9123 19.6914C72.829 19.6914 72.7575 19.6259 72.7575 19.3996V7.01497C72.7575 6.87803 72.7099 6.77681 72.6206 6.77681C72.5551 6.77681 72.5015 6.80658 72.4241 6.84826L53.9424 18.8518C53.4244 19.1853 52.9957 19.2865 52.5253 19.2865H40.2717C39.4143 19.2865 38.8486 18.7149 38.8486 17.8634V2.57318C38.8486 2.46005 38.801 2.35882 38.7117 2.35882C38.6462 2.35882 38.5926 2.38861 38.5152 2.43029L26.327 9.75389C26.2079 9.82534 26.1722 9.88488 26.1722 9.94443C26.1722 9.99801 26.196 10.0457 26.2794 10.135L34.9844 18.8399C35.0975 18.959 35.1808 19.0424 35.1808 19.1376C35.1808 19.2389 35.0558 19.2865 34.907 19.2865H27.0296C26.4104 19.2865 25.934 19.1912 25.6066 18.8578L20.3252 13.5765C20.2716 13.5229 20.23 13.4931 20.1704 13.4931C20.1228 13.4931 20.0633 13.5169 20.0097 13.5526L11.1797 18.8578C10.6438 19.1793 10.2746 19.2865 9.75066 19.2865H1.62324C0.76584 19.2865 0.200195 18.7149 0.200195 17.8634V7.44963C0.200195 6.16949 0.485994 5.43117 1.62324 4.74644L8.40502 0.673803C8.47051 0.632124 8.53601 0.614258 8.5896 0.614258C8.69082 0.614258 8.75036 0.721443 8.75036 0.959609V14.8864C8.75036 15.0352 8.79204 15.1007 8.8873 15.1007C8.9528 15.1007 9.01235 15.065 9.08975 15.0174L32.0013 1.2454C32.5491 0.917918 32.8825 0.816697 33.5137 0.816697H45.8447C46.7021 0.816697 47.2678 1.3883 47.2678 2.23975V17.5122H47.2499Z" fill="#131E29"/>
    <path d="M96.3477 19.7629V0.304733H108.839V3.12105H99.8011V8.52146H107.202V11.4152H99.8011V19.7629H96.3477Z" fill="#131E29"/>
    <path d="M112.043 3.65691V0.149902H115.348V3.65691H112.043ZM112.043 19.7629V5.78253H115.348V19.7629H112.043Z" fill="#131E29"/>
    <path d="M119.7 19.7629V5.78253H122.796L122.998 7.80696C123.868 6.62803 125.428 5.40147 127.452 5.40147C130.524 5.40147 132.37 7.24726 132.37 10.6233V19.7629H129.066V10.6233C129.066 9.14068 128.554 7.96175 126.916 7.96175C125.225 7.96175 123.564 9.44434 122.998 11.2365V19.7629H119.7Z" fill="#131E29"/>
    <path d="M136.497 13.1597C137.598 11.9332 139.39 11.3914 141.564 11.0579L144.511 10.5995C144.356 8.80726 143.255 7.86054 141.129 7.86054C139.593 7.86054 137.902 8.72984 136.854 10.2184V7.01504C137.777 6.27078 139.337 5.40147 141.82 5.40147C145.094 5.40147 147.833 7.06268 147.833 11.1889V19.7629H145.071L144.761 18.1493C143.457 19.4056 142.076 20.144 140.051 20.144C137.235 20.144 135.574 18.5066 135.574 15.8451C135.574 14.7197 135.931 13.8206 136.497 13.1597ZM140.694 17.5122C142.433 17.5122 143.945 16.2857 144.588 14.8745V12.9275L142.927 13.2074C140.343 13.642 139.777 14.0529 139.343 14.4637C139.033 14.7733 138.854 15.1782 138.854 15.6903C138.849 16.8215 139.593 17.5122 140.694 17.5122Z" fill="#131E29"/>
    <path d="M151.93 19.7629V5.78253H155.026L155.228 7.80696C156.098 6.62803 157.658 5.40147 159.682 5.40147C162.754 5.40147 164.6 7.24726 164.6 10.6233V19.7629H161.296V10.6233C161.296 9.14068 160.784 7.96175 159.146 7.96175C157.455 7.96175 155.794 9.44434 155.228 11.2365V19.7629H151.93Z" fill="#131E29"/>
    <path d="M167.803 12.5167C167.803 8.67627 170.673 5.40147 175.228 5.40147C176.943 5.40147 178.354 5.96712 179.271 6.62803V10.01C178.324 8.62862 176.866 8.01534 175.454 8.01534C173.204 8.01534 171.257 9.78373 171.257 12.5226V13.0347C171.257 15.6486 173.305 17.5182 175.454 17.5182C176.866 17.5182 178.17 16.8751 179.271 15.595V18.8698C178.426 19.5366 177.02 20.1499 175.121 20.1499C170.745 20.1499 167.797 16.8989 167.797 13.0585V12.5167H167.803Z" fill="#131E29"/>
    <path d="M181.837 12.4929C181.837 8.39642 184.499 5.40147 188.441 5.40147C192.537 5.40147 194.841 8.19398 194.841 12.6477V13.9278H185.088C185.321 16.2083 186.648 17.5896 188.929 17.6134C190.721 17.6373 192.311 17.1014 193.895 15.4878V18.6376C192.668 19.5843 190.876 20.1499 188.929 20.1499C184.296 20.1499 181.837 17.155 181.837 13.0049V12.4929ZM191.566 11.4152C191.566 9.1645 190.286 7.85459 188.363 7.88436C186.672 7.90818 185.237 9.26572 185.112 11.4152H191.566Z" fill="#131E29"/>
    </svg>
    