<svg id="구성_요소_8_10" data-name="구성 요소 8 – 10" xmlns="http://www.w3.org/2000/svg" width="14" height="14" viewBox="0 0 14 14">
  <g id="그룹_95" data-name="그룹 95" transform="translate(0 0)">
    <rect id="Container" width="14" height="14" fill="none"/>
    <path id="합치기_1" data-name="합치기 1" d="M0,4.825A7.729,7.729,0,0,1,7,0a7.729,7.729,0,0,1,7,4.825A7.73,7.73,0,0,1,7,9.651,7.73,7.73,0,0,1,0,4.825ZM3.227,2.052A7.409,7.409,0,0,0,.868,4.825,7.409,7.409,0,0,0,3.227,7.6a6.5,6.5,0,0,0,7.545,0,7.4,7.4,0,0,0,2.359-2.773,7.4,7.4,0,0,0-2.359-2.773,6.495,6.495,0,0,0-7.545,0Zm.454,2.773A3.319,3.319,0,1,1,7,8.144,3.319,3.319,0,0,1,3.681,4.825ZM7,7.37A2.545,2.545,0,1,0,4.455,4.825,2.548,2.548,0,0,0,7,7.37Z" transform="translate(0 2.6)"/>
  </g>
</svg>
