<svg width="100" height="100" viewBox="0 0 100 100" fill="none" xmlns="http://www.w3.org/2000/svg">
<g clip-path="url(#clip0_837_11528)">
<g clip-path="url(#clip1_837_11528)">
<path d="M43.375 46C55.8027 46 65.875 35.9277 65.875 23.5C65.875 11.0723 55.8027 1 43.375 1C30.9473 1 20.875 11.0723 20.875 23.5C20.875 35.9277 30.9473 46 43.375 46ZM59.125 51.625H56.1895C52.2871 53.418 47.9453 54.4375 43.375 54.4375C38.8047 54.4375 34.4805 53.418 30.5605 51.625H27.625C14.582 51.625 4 62.207 4 75.25V82.5625C4 87.2207 7.7793 91 12.4375 91H74.3125C78.9707 91 82.75 87.2207 82.75 82.5625V75.25C82.75 62.207 72.168 51.625 59.125 51.625Z" fill="#E5E5E5"/>
</g>
<path d="M76.7794 93.0839L76.7807 93.0825L98.7116 68.4523C99.4835 67.6181 100.085 66.6389 100.477 65.5688C100.876 64.4796 101.05 63.3208 100.987 62.1614C100.925 61.002 100.626 59.8691 100.112 58.8299C99.5983 57.7908 98.8804 56.8682 98.0042 56.1141C97.1282 55.3601 96.1114 54.7893 95.015 54.432C93.9188 54.0747 92.7626 53.9372 91.6138 54.0264C90.465 54.1156 89.3435 54.43 88.3151 54.9535C87.3038 55.4683 86.401 56.176 85.6604 57.0393L69.0269 75.7223L62.9024 71.2084L60.7099 74.1833L62.9024 71.2084C61.9875 70.5341 60.9501 70.0461 59.8503 69.7692C58.7505 69.4923 57.607 69.4312 56.4842 69.5888C55.3614 69.7464 54.2782 70.1202 53.2965 70.6914C52.3148 71.2626 51.4524 72.021 50.7614 72.9264C50.0703 73.832 49.5646 74.8663 49.2766 75.9711C48.9885 77.076 48.9246 78.2269 49.0889 79.3573C49.2532 80.4875 49.6421 81.5718 50.2304 82.5483C50.8187 83.5246 51.5941 84.3729 52.5091 85.0473L65.0579 94.296L65.059 94.2968C66.8139 95.5893 68.9893 96.1761 71.1513 95.954C73.3138 95.7318 75.3263 94.7142 76.7794 93.0839Z" fill="white" stroke="white" stroke-width="8"/>
<path d="M96.7214 64.1919C96.5085 64.7725 96.1795 65.3055 95.7537 65.7592L73.7933 90.4225C73.0118 91.2993 71.9222 91.8537 70.7426 91.9749C69.5629 92.0961 68.3802 91.7751 67.4311 91.076L54.8823 81.8273C54.3879 81.463 53.9714 81.0065 53.6566 80.4839C53.3417 79.9614 53.1347 79.383 53.0473 78.7818C52.9599 78.1806 52.9939 77.5684 53.1472 76.9802C53.3006 76.3919 53.5704 75.8391 53.9412 75.3532C54.3119 74.8674 54.7765 74.4581 55.3082 74.1487C55.84 73.8393 56.4285 73.6358 57.0403 73.55C57.6521 73.4641 58.275 73.4975 58.8737 73.6482C59.4723 73.7989 60.0349 74.064 60.5293 74.4284L69.5895 81.1059L88.6761 59.6674C89.0778 59.1929 89.572 58.8021 90.1297 58.5182C90.6874 58.2343 91.2974 58.063 91.9235 58.0144C92.5497 57.9657 93.1794 58.0408 93.7756 58.2351C94.3717 58.4294 94.9223 58.739 95.3948 59.1457C95.8673 59.5524 96.2521 60.0479 96.5267 60.6031C96.8012 61.1582 96.9599 61.7617 96.9933 62.3781C97.0268 62.9945 96.9343 63.6112 96.7214 64.1919Z" fill="#00AAD2"/>
</g>
<defs>
<clipPath id="clip0_837_11528">
<rect width="100" height="100" fill="white"/>
</clipPath>
<clipPath id="clip1_837_11528">
<rect width="78.75" height="90" fill="white" transform="translate(4 1)"/>
</clipPath>
</defs>
</svg>
