<svg width="100" height="100" viewBox="0 0 100 100" fill="none" xmlns="http://www.w3.org/2000/svg">
    <g clip-path="url(#clip0_1621_21866)">
    <path fill-rule="evenodd" clip-rule="evenodd" d="M88 15.625V19H0V15.625V8C0 3.58172 3.58172 0 8 0H15.625H72.375H80C84.4183 0 88 3.58172 88 8V15.625ZM0 25H88V41.25C81.5299 37.9448 74.1789 36.7746 67.0023 37.9074C59.8257 39.0402 52.6926 42.4177 47.5552 47.5552C42.4177 52.6926 39.0402 59.3257 37.9074 66.5023C36.7746 73.6789 37.9448 81.5299 41.25 88H27H15.625H8C3.58172 88 0 84.4183 0 80V72.375V69V25ZM13 13C14.6569 13 16 11.6569 16 10C16 8.34315 14.6569 7 13 7C11.3431 7 10 8.34315 10 10C10 11.6569 11.3431 13 13 13ZM26 10C26 11.6569 24.6569 13 23 13C21.3431 13 20 11.6569 20 10C20 8.34315 21.3431 7 23 7C24.6569 7 26 8.34315 26 10ZM33 13C34.6569 13 36 11.6569 36 10C36 8.34315 34.6569 7 33 7C31.3431 7 30 8.34315 30 10C30 11.6569 31.3431 13 33 13Z" fill="#E5E5E5"/>
    <path d="M100 71.875C100 79.3342 97.0368 86.4879 91.7624 91.7624C86.4879 97.0368 79.3342 100 71.875 100C64.4158 100 57.2621 97.0368 51.9876 91.7624C46.7132 86.4879 43.75 79.3342 43.75 71.875C43.75 64.4158 46.7132 57.2621 51.9876 51.9876C57.2621 46.7132 64.4158 43.75 71.875 43.75C79.3342 43.75 86.4879 46.7132 91.7624 51.9876C97.0368 57.2621 100 64.4158 100 71.875ZM71.875 56.25C71.0462 56.25 70.2513 56.5792 69.6653 57.1653C69.0792 57.7513 68.75 58.5462 68.75 59.375V71.875C68.75 72.7038 69.0792 73.4987 69.6653 74.0847C70.2513 74.6708 71.0462 75 71.875 75C72.7038 75 73.4987 74.6708 74.0847 74.0847C74.6708 73.4987 75 72.7038 75 71.875V59.375C75 58.5462 74.6708 57.7513 74.0847 57.1653C73.4987 56.5792 72.7038 56.25 71.875 56.25ZM71.875 88.2812C72.911 88.2812 73.9046 87.8697 74.6371 87.1371C75.3697 86.4046 75.7812 85.411 75.7812 84.375C75.7812 83.339 75.3697 82.3454 74.6371 81.6129C73.9046 80.8803 72.911 80.4688 71.875 80.4688C70.839 80.4688 69.8454 80.8803 69.1129 81.6129C68.3803 82.3454 67.9688 83.339 67.9688 84.375C67.9688 85.411 68.3803 86.4046 69.1129 87.1371C69.8454 87.8697 70.839 88.2812 71.875 88.2812Z" fill="#00AAD2"/>
    </g>
    <defs>
    <clipPath id="clip0_1621_21866">
    <rect width="100" height="100" fill="white"/>
    </clipPath>
    </defs>
</svg>
    