<svg width="295" height="337" viewBox="0 0 295 337" fill="none" xmlns="http://www.w3.org/2000/svg">
<g clip-path="url(#clip0_1567_57017)">
<path d="M21.65 229.65L18.86 226.86C18.54 226.54 18 226.76 18 227.21V229H4C3.45 229 3 229.45 3 230C3 230.55 3.45 231 4 231H18V232.79C18 233.24 18.54 233.46 18.85 233.14L21.64 230.35C21.84 230.16 21.84 229.84 21.65 229.65Z" fill="black"/>
</g>
<path d="M33.4654 234.5V224.98H34.6274V234.5H33.4654ZM37.1783 234.5V227.556H38.2563V228.508C38.6203 227.962 39.4043 227.402 40.3703 227.402C41.9803 227.402 42.8903 228.438 42.8903 230.174V234.5H41.7703V230.286C41.7703 229.04 41.1543 228.396 40.0903 228.396C39.1523 228.396 38.4943 228.984 38.2983 229.642V234.5H37.1783ZM49.364 228.536L48.636 229.166C48.23 228.592 47.712 228.354 47.124 228.354C46.438 228.354 46.074 228.802 46.074 229.306C46.074 229.824 46.396 230.132 46.97 230.258L47.558 230.384C48.874 230.664 49.658 231.266 49.658 232.484C49.658 233.604 48.692 234.654 47.04 234.654C45.822 234.654 44.926 233.968 44.422 233.212L45.15 232.54C45.556 233.156 46.2 233.702 47.068 233.702C47.95 233.702 48.524 233.254 48.524 232.554C48.524 231.91 48.006 231.602 47.236 231.434L46.648 231.308C45.556 231.07 44.94 230.426 44.94 229.418C44.94 228.354 45.738 227.402 47.166 227.402C48.132 227.402 48.902 227.85 49.364 228.536ZM51.8187 232.288V228.508H50.5727V227.556H51.8327V225.75H52.9387V227.556H54.4927V228.508H52.9387V232.288C52.9387 233.24 53.3587 233.562 54.2967 233.562H54.4927V234.514C54.3527 234.542 54.1707 234.556 53.9887 234.556C52.5607 234.556 51.8187 233.856 51.8187 232.288ZM60.1442 230.902V230.202C60.1442 229.194 59.5982 228.396 58.4502 228.396C57.6242 228.396 57.2042 228.69 56.7002 229.18L56.0562 228.452C56.5602 227.92 57.2602 227.402 58.4782 227.402C60.2982 227.402 61.2642 228.508 61.2642 230.118V234.5H60.1862V233.814C59.6682 234.374 58.9542 234.654 58.2122 234.654C56.6442 234.654 55.6502 233.632 55.6502 232.372C55.6502 231.112 56.6442 230.09 58.2122 230.09C58.9402 230.09 59.6402 230.37 60.1442 230.902ZM60.1442 232.848V231.896C59.7802 231.28 58.9962 231.028 58.3662 231.028C57.2322 231.028 56.7842 231.742 56.7842 232.372C56.7842 233.002 57.2322 233.716 58.3662 233.716C58.9962 233.716 59.7802 233.478 60.1442 232.848ZM63.483 224.56H64.603V234.5H63.483V224.56ZM66.9009 224.56H68.0209V234.5H66.9009V224.56ZM70.3189 234.5V227.556H71.3969V228.508C71.7609 227.962 72.5449 227.402 73.5109 227.402C74.5329 227.402 75.2609 227.836 75.6389 228.634C75.9749 228.046 76.8429 227.402 77.9349 227.402C79.5309 227.402 80.4269 228.424 80.4269 230.146V234.5H79.3069V230.258C79.3069 229.026 78.7329 228.396 77.7249 228.396C76.7869 228.396 76.1289 228.984 75.9329 229.642V234.5H74.8129V230.258C74.8129 229.026 74.2389 228.396 73.2309 228.396C72.2929 228.396 71.6349 228.984 71.4389 229.642V234.5H70.3189ZM88.3353 231.378H83.3793C83.4773 232.82 84.2333 233.66 85.4653 233.66C86.3193 233.66 87.0193 233.296 87.4253 232.638L88.1813 233.268C87.6633 234.052 86.7673 234.654 85.3953 234.654C83.4213 234.654 82.2033 233.254 82.2033 231.028C82.2033 228.816 83.4493 227.402 85.3533 227.402C87.2153 227.402 88.3773 228.858 88.3773 230.832C88.3773 231.014 88.3633 231.21 88.3353 231.378ZM83.3933 230.426H87.2013C87.1313 229.18 86.4033 228.396 85.3533 228.396C84.2893 228.396 83.5613 229.124 83.3933 230.426ZM90.1705 234.5V227.556H91.2485V228.508C91.6125 227.962 92.3965 227.402 93.3625 227.402C94.9725 227.402 95.8825 228.438 95.8825 230.174V234.5H94.7625V230.286C94.7625 229.04 94.1465 228.396 93.0825 228.396C92.1445 228.396 91.4865 228.984 91.2905 229.642V234.5H90.1705ZM98.5218 232.288V228.508H97.2758V227.556H98.5358V225.75H99.6418V227.556H101.196V228.508H99.6418V232.288C99.6418 233.24 100.062 233.562 101 233.562H101.196V234.514C101.056 234.542 100.874 234.556 100.692 234.556C99.2638 234.556 98.5218 233.856 98.5218 232.288ZM106.18 237.132V227.556H107.258V228.55C107.762 227.85 108.574 227.402 109.47 227.402C111.318 227.402 112.494 228.886 112.494 231.028C112.494 233.17 111.318 234.654 109.47 234.654C108.602 234.654 107.804 234.234 107.3 233.576V237.132H106.18ZM107.3 229.656V232.414C107.622 233.156 108.364 233.66 109.232 233.66C110.548 233.66 111.332 232.666 111.332 231.028C111.332 229.39 110.548 228.396 109.232 228.396C108.364 228.396 107.622 228.914 107.3 229.656ZM120.054 231.378H115.098C115.196 232.82 115.952 233.66 117.184 233.66C118.038 233.66 118.738 233.296 119.144 232.638L119.9 233.268C119.382 234.052 118.486 234.654 117.114 234.654C115.14 234.654 113.922 233.254 113.922 231.028C113.922 228.816 115.168 227.402 117.072 227.402C118.934 227.402 120.096 228.858 120.096 230.832C120.096 231.014 120.082 231.21 120.054 231.378ZM115.112 230.426H118.92C118.85 229.18 118.122 228.396 117.072 228.396C116.008 228.396 115.28 229.124 115.112 230.426ZM121.889 234.5V227.556H122.967V228.802C123.345 228.032 124.031 227.402 125.025 227.402C125.123 227.402 125.221 227.402 125.319 227.43V228.564H124.941C124.017 228.564 123.345 229.068 123.009 230.118V234.5H121.889ZM126.797 227.556H127.917V234.5H126.797V227.556ZM126.657 224.56H128.057V225.96H126.657V224.56ZM133.043 233.66C134.331 233.66 135.157 232.68 135.157 231.028C135.157 229.376 134.331 228.396 133.043 228.396C131.755 228.396 130.929 229.376 130.929 231.028C130.929 232.68 131.755 233.66 133.043 233.66ZM133.043 227.402C135.031 227.402 136.319 228.886 136.319 231.028C136.319 233.17 135.031 234.654 133.043 234.654C131.055 234.654 129.767 233.17 129.767 231.028C129.767 228.886 131.055 227.402 133.043 227.402ZM142.974 234.5V233.52C142.456 234.22 141.644 234.654 140.762 234.654C138.914 234.654 137.738 233.17 137.738 231.028C137.738 228.886 138.914 227.402 140.762 227.402C141.63 227.402 142.414 227.822 142.932 228.494V224.56H144.052V234.5H142.974ZM142.932 232.414V229.656C142.61 228.914 141.868 228.396 141 228.396C139.684 228.396 138.9 229.39 138.9 231.028C138.9 232.666 139.684 233.66 141 233.66C141.868 233.66 142.61 233.156 142.932 232.414ZM152.121 224.63L152.681 225.33C151.407 226.38 150.371 228.046 150.371 230.846C150.371 233.646 151.407 235.312 152.681 236.362L152.121 237.062C150.833 236.11 149.237 234.22 149.237 230.846C149.237 227.472 150.833 225.582 152.121 224.63ZM153.786 234.5V227.556H154.864V228.508C155.228 227.962 156.012 227.402 156.978 227.402C158 227.402 158.728 227.836 159.106 228.634C159.442 228.046 160.31 227.402 161.402 227.402C162.998 227.402 163.894 228.424 163.894 230.146V234.5H162.774V230.258C162.774 229.026 162.2 228.396 161.192 228.396C160.254 228.396 159.596 228.984 159.4 229.642V234.5H158.28V230.258C158.28 229.026 157.706 228.396 156.698 228.396C155.76 228.396 155.102 228.984 154.906 229.642V234.5H153.786ZM168.932 233.66C170.22 233.66 171.046 232.68 171.046 231.028C171.046 229.376 170.22 228.396 168.932 228.396C167.644 228.396 166.818 229.376 166.818 231.028C166.818 232.68 167.644 233.66 168.932 233.66ZM168.932 227.402C170.92 227.402 172.208 228.886 172.208 231.028C172.208 233.17 170.92 234.654 168.932 234.654C166.944 234.654 165.656 233.17 165.656 231.028C165.656 228.886 166.944 227.402 168.932 227.402ZM174.061 234.5V227.556H175.139V228.508C175.503 227.962 176.287 227.402 177.253 227.402C178.863 227.402 179.773 228.438 179.773 230.174V234.5H178.653V230.286C178.653 229.04 178.037 228.396 176.973 228.396C176.035 228.396 175.377 228.984 175.181 229.642V234.5H174.061ZM182.412 232.288V228.508H181.166V227.556H182.426V225.75H183.532V227.556H185.086V228.508H183.532V232.288C183.532 233.24 183.952 233.562 184.89 233.562H185.086V234.514C184.946 234.542 184.764 234.556 184.582 234.556C183.154 234.556 182.412 233.856 182.412 232.288ZM186.776 234.5V224.56H187.896V228.438C188.274 227.92 189.044 227.402 189.968 227.402C191.578 227.402 192.488 228.438 192.488 230.174V234.5H191.368V230.286C191.368 229.04 190.752 228.396 189.688 228.396C188.75 228.396 188.092 228.984 187.896 229.642V234.5H186.776ZM198.962 228.536L198.234 229.166C197.828 228.592 197.31 228.354 196.722 228.354C196.036 228.354 195.672 228.802 195.672 229.306C195.672 229.824 195.994 230.132 196.568 230.258L197.156 230.384C198.472 230.664 199.256 231.266 199.256 232.484C199.256 233.604 198.29 234.654 196.638 234.654C195.42 234.654 194.524 233.968 194.02 233.212L194.748 232.54C195.154 233.156 195.798 233.702 196.666 233.702C197.548 233.702 198.122 233.254 198.122 232.554C198.122 231.91 197.604 231.602 196.834 231.434L196.246 231.308C195.154 231.07 194.538 230.426 194.538 229.418C194.538 228.354 195.336 227.402 196.764 227.402C197.73 227.402 198.5 227.85 198.962 228.536ZM200.306 237.062L199.746 236.362C201.02 235.312 202.056 233.646 202.056 230.846C202.056 228.046 201.02 226.38 199.746 225.33L200.306 224.63C201.594 225.582 203.19 227.472 203.19 230.846C203.19 234.22 201.594 236.11 200.306 237.062Z" fill="black"/>
<mask id="path-3-inside-1_1567_57017" fill="white">
<path d="M0 1H295V41H0V1Z"/>
</mask>
<path d="M0 1H295V41H0V1Z" fill="white"/>
<path d="M295 40H0V42H295V40Z" fill="#E5E5E5" mask="url(#path-3-inside-1_1567_57017)"/>
<mask id="path-5-inside-2_1567_57017" fill="white">
<path d="M0 41H295V81H0V41Z"/>
</mask>
<path d="M0 41H295V81H0V41Z" fill="white"/>
<path d="M295 80H0V82H295V80Z" fill="#E5E5E5" mask="url(#path-5-inside-2_1567_57017)"/>
<mask id="path-7-inside-3_1567_57017" fill="white">
<path d="M0 81H295V121H0V81Z"/>
</mask>
<path d="M0 81H295V121H0V81Z" fill="white"/>
<path d="M295 120H0V122H295V120Z" fill="#E5E5E5" mask="url(#path-7-inside-3_1567_57017)"/>
<mask id="path-9-inside-4_1567_57017" fill="white">
<path d="M0 121H295V161H0V121Z"/>
</mask>
<path d="M0 121H295V161H0V121Z" fill="white"/>
<path d="M295 160H0V162H295V160Z" fill="#666666" mask="url(#path-9-inside-4_1567_57017)"/>
<g clip-path="url(#clip1_1567_57017)">
<rect x="20" y="80" width="16" height="71" rx="8" fill="white"/>
<line x1="13.6464" y1="81.9316" x2="41.9307" y2="53.6473" stroke="#CCCCCC"/>
<line x1="13.6464" y1="88.9316" x2="41.9307" y2="60.6473" stroke="#CCCCCC"/>
<line x1="13.6464" y1="95.9316" x2="41.9307" y2="67.6473" stroke="#CCCCCC"/>
<line x1="13.6464" y1="102.932" x2="41.9307" y2="74.6473" stroke="#CCCCCC"/>
<line x1="13.6464" y1="109.932" x2="41.9307" y2="81.6473" stroke="#CCCCCC"/>
<line x1="13.6464" y1="116.932" x2="41.9307" y2="88.6473" stroke="#CCCCCC"/>
<line x1="13.6464" y1="123.932" x2="41.9307" y2="95.6473" stroke="#CCCCCC"/>
<line x1="13.6464" y1="130.932" x2="41.9307" y2="102.647" stroke="#CCCCCC"/>
<line x1="13.6464" y1="137.932" x2="41.9307" y2="109.647" stroke="#CCCCCC"/>
<line x1="13.6464" y1="144.932" x2="41.9307" y2="116.647" stroke="#CCCCCC"/>
<line x1="13.6464" y1="151.932" x2="41.9307" y2="123.647" stroke="#CCCCCC"/>
<line x1="13.6464" y1="158.932" x2="41.9307" y2="130.647" stroke="#CCCCCC"/>
<line x1="13.6464" y1="165.932" x2="41.9307" y2="137.647" stroke="#CCCCCC"/>
<line x1="13.6464" y1="172.932" x2="41.9307" y2="144.647" stroke="#CCCCCC"/>
</g>
<rect x="20.5" y="80.5" width="15" height="70" rx="7.5" stroke="#CCCCCC"/>
<g clip-path="url(#clip2_1567_57017)">
<rect x="68" y="80" width="16" height="71" rx="8" fill="white"/>
<line x1="61.6464" y1="81.9316" x2="89.9307" y2="53.6473" stroke="#CCCCCC"/>
<line x1="61.6464" y1="88.9316" x2="89.9307" y2="60.6473" stroke="#CCCCCC"/>
<line x1="61.6464" y1="95.9316" x2="89.9307" y2="67.6473" stroke="#CCCCCC"/>
<line x1="61.6464" y1="102.932" x2="89.9307" y2="74.6473" stroke="#CCCCCC"/>
<line x1="61.6464" y1="109.932" x2="89.9307" y2="81.6473" stroke="#CCCCCC"/>
<line x1="61.6464" y1="116.932" x2="89.9307" y2="88.6473" stroke="#CCCCCC"/>
<line x1="61.6464" y1="123.932" x2="89.9307" y2="95.6473" stroke="#CCCCCC"/>
<line x1="61.6464" y1="130.932" x2="89.9307" y2="102.647" stroke="#CCCCCC"/>
<line x1="61.6464" y1="137.932" x2="89.9307" y2="109.647" stroke="#CCCCCC"/>
<line x1="61.6464" y1="144.932" x2="89.9307" y2="116.647" stroke="#CCCCCC"/>
<line x1="61.6464" y1="151.932" x2="89.9307" y2="123.647" stroke="#CCCCCC"/>
<line x1="61.6464" y1="158.932" x2="89.9307" y2="130.647" stroke="#CCCCCC"/>
<line x1="61.6464" y1="165.932" x2="89.9307" y2="137.647" stroke="#CCCCCC"/>
<line x1="61.6464" y1="172.932" x2="89.9307" y2="144.647" stroke="#CCCCCC"/>
</g>
<rect x="68.5" y="80.5" width="15" height="70" rx="7.5" stroke="#CCCCCC"/>
<g clip-path="url(#clip3_1567_57017)">
<rect x="116" width="16" height="151" rx="8" fill="white"/>
<line x1="109.646" y1="20.789" x2="137.931" y2="-7.49525" stroke="#CCCCCC"/>
<line x1="109.646" y1="27.9316" x2="137.931" y2="-0.352668" stroke="#CCCCCC"/>
<line x1="109.646" y1="34.9316" x2="137.931" y2="6.64733" stroke="#CCCCCC"/>
<line x1="109.646" y1="41.9316" x2="137.931" y2="13.6473" stroke="#CCCCCC"/>
<line x1="109.646" y1="48.9316" x2="137.931" y2="20.6473" stroke="#CCCCCC"/>
<line x1="109.646" y1="55.9316" x2="137.931" y2="27.6473" stroke="#CCCCCC"/>
<line x1="109.646" y1="62.9316" x2="137.931" y2="34.6473" stroke="#CCCCCC"/>
<line x1="109.646" y1="69.9316" x2="137.931" y2="41.6473" stroke="#CCCCCC"/>
<line x1="109.646" y1="76.9316" x2="137.931" y2="48.6473" stroke="#CCCCCC"/>
<line x1="109.646" y1="83.9316" x2="137.931" y2="55.6473" stroke="#CCCCCC"/>
<line x1="109.646" y1="90.9316" x2="137.931" y2="62.6473" stroke="#CCCCCC"/>
<line x1="109.646" y1="97.9316" x2="137.931" y2="69.6473" stroke="#CCCCCC"/>
<line x1="109.646" y1="104.932" x2="137.931" y2="76.6473" stroke="#CCCCCC"/>
<line x1="109.646" y1="111.932" x2="137.931" y2="83.6473" stroke="#CCCCCC"/>
<line x1="109.646" y1="118.932" x2="137.931" y2="90.6473" stroke="#CCCCCC"/>
<line x1="109.646" y1="125.932" x2="137.931" y2="97.6473" stroke="#CCCCCC"/>
<line x1="109.646" y1="132.932" x2="137.931" y2="104.647" stroke="#CCCCCC"/>
<line x1="109.646" y1="139.932" x2="137.931" y2="111.647" stroke="#CCCCCC"/>
<line x1="109.646" y1="146.932" x2="137.931" y2="118.647" stroke="#CCCCCC"/>
<line x1="109.646" y1="153.932" x2="137.931" y2="125.647" stroke="#CCCCCC"/>
<line x1="109.646" y1="160.932" x2="137.931" y2="132.647" stroke="#CCCCCC"/>
</g>
<rect x="116.5" y="0.5" width="15" height="150" rx="7.5" stroke="#CCCCCC"/>
<rect x="116" y="81" width="16" height="70" rx="8" fill="#AF6249"/>
<g clip-path="url(#clip4_1567_57017)">
<rect x="164" y="1" width="16" height="150" rx="8" fill="white"/>
<line x1="157.646" y1="20.789" x2="185.931" y2="-7.49525" stroke="#CCCCCC"/>
<line x1="157.646" y1="27.9316" x2="185.931" y2="-0.352668" stroke="#CCCCCC"/>
<line x1="157.646" y1="34.9316" x2="185.931" y2="6.64733" stroke="#CCCCCC"/>
<line x1="157.646" y1="41.9316" x2="185.931" y2="13.6473" stroke="#CCCCCC"/>
<line x1="157.646" y1="48.9316" x2="185.931" y2="20.6473" stroke="#CCCCCC"/>
<line x1="157.646" y1="55.9316" x2="185.931" y2="27.6473" stroke="#CCCCCC"/>
<line x1="157.646" y1="62.9316" x2="185.931" y2="34.6473" stroke="#CCCCCC"/>
<line x1="157.646" y1="69.9316" x2="185.931" y2="41.6473" stroke="#CCCCCC"/>
<line x1="157.646" y1="76.9316" x2="185.931" y2="48.6473" stroke="#CCCCCC"/>
<line x1="157.646" y1="83.9316" x2="185.931" y2="55.6473" stroke="#CCCCCC"/>
<line x1="157.646" y1="90.9316" x2="185.931" y2="62.6473" stroke="#CCCCCC"/>
<line x1="157.646" y1="97.9316" x2="185.931" y2="69.6473" stroke="#CCCCCC"/>
<line x1="157.646" y1="104.932" x2="185.931" y2="76.6473" stroke="#CCCCCC"/>
<line x1="157.646" y1="111.932" x2="185.931" y2="83.6473" stroke="#CCCCCC"/>
<line x1="157.646" y1="118.932" x2="185.931" y2="90.6473" stroke="#CCCCCC"/>
<line x1="157.646" y1="125.932" x2="185.931" y2="97.6473" stroke="#CCCCCC"/>
<line x1="157.646" y1="132.932" x2="185.931" y2="104.647" stroke="#CCCCCC"/>
<line x1="157.646" y1="139.932" x2="185.931" y2="111.647" stroke="#CCCCCC"/>
<line x1="157.646" y1="146.932" x2="185.931" y2="118.647" stroke="#CCCCCC"/>
<line x1="157.646" y1="153.932" x2="185.931" y2="125.647" stroke="#CCCCCC"/>
<line x1="157.646" y1="160.932" x2="185.931" y2="132.647" stroke="#CCCCCC"/>
</g>
<rect x="164.5" y="1.5" width="15" height="149" rx="7.5" stroke="#CCCCCC"/>
<rect x="164" y="61" width="16" height="90" rx="8" fill="#AF6249"/>
<g clip-path="url(#clip5_1567_57017)">
<rect x="212" y="1" width="16" height="150" rx="8" fill="white"/>
<line x1="205.646" y1="20.789" x2="233.931" y2="-7.49525" stroke="#CCCCCC"/>
<line x1="205.646" y1="27.9316" x2="233.931" y2="-0.352668" stroke="#CCCCCC"/>
<line x1="205.646" y1="34.9316" x2="233.931" y2="6.64733" stroke="#CCCCCC"/>
<line x1="205.646" y1="41.9316" x2="233.931" y2="13.6473" stroke="#CCCCCC"/>
<line x1="205.646" y1="48.9316" x2="233.931" y2="20.6473" stroke="#CCCCCC"/>
<line x1="205.646" y1="55.9316" x2="233.931" y2="27.6473" stroke="#CCCCCC"/>
<line x1="205.646" y1="62.9316" x2="233.931" y2="34.6473" stroke="#CCCCCC"/>
<line x1="205.646" y1="69.9316" x2="233.931" y2="41.6473" stroke="#CCCCCC"/>
<line x1="205.646" y1="76.9316" x2="233.931" y2="48.6473" stroke="#CCCCCC"/>
<line x1="205.646" y1="83.9316" x2="233.931" y2="55.6473" stroke="#CCCCCC"/>
<line x1="205.646" y1="90.9316" x2="233.931" y2="62.6473" stroke="#CCCCCC"/>
<line x1="205.646" y1="97.9316" x2="233.931" y2="69.6473" stroke="#CCCCCC"/>
<line x1="205.646" y1="104.932" x2="233.931" y2="76.6473" stroke="#CCCCCC"/>
<line x1="205.646" y1="111.932" x2="233.931" y2="83.6473" stroke="#CCCCCC"/>
<line x1="205.646" y1="118.932" x2="233.931" y2="90.6473" stroke="#CCCCCC"/>
<line x1="205.646" y1="125.932" x2="233.931" y2="97.6473" stroke="#CCCCCC"/>
<line x1="205.646" y1="132.932" x2="233.931" y2="104.647" stroke="#CCCCCC"/>
<line x1="205.646" y1="139.932" x2="233.931" y2="111.647" stroke="#CCCCCC"/>
<line x1="205.646" y1="146.932" x2="233.931" y2="118.647" stroke="#CCCCCC"/>
<line x1="205.646" y1="153.932" x2="233.931" y2="125.647" stroke="#CCCCCC"/>
<line x1="205.646" y1="160.932" x2="233.931" y2="132.647" stroke="#CCCCCC"/>
</g>
<rect x="212.5" y="1.5" width="15" height="149" rx="7.5" stroke="#CCCCCC"/>
<rect x="212" y="41" width="16" height="110" rx="8" fill="#AF6249"/>
<g clip-path="url(#clip6_1567_57017)">
<rect x="260" y="1" width="16" height="150" rx="8" fill="white"/>
<line x1="253.646" y1="20.789" x2="281.931" y2="-7.49525" stroke="#CCCCCC"/>
<line x1="253.646" y1="27.9316" x2="281.931" y2="-0.352668" stroke="#CCCCCC"/>
<line x1="253.646" y1="34.9316" x2="281.931" y2="6.64733" stroke="#CCCCCC"/>
<line x1="253.646" y1="41.9316" x2="281.931" y2="13.6473" stroke="#CCCCCC"/>
<line x1="253.646" y1="48.9316" x2="281.931" y2="20.6473" stroke="#CCCCCC"/>
<line x1="253.646" y1="55.9316" x2="281.931" y2="27.6473" stroke="#CCCCCC"/>
<line x1="253.646" y1="62.9316" x2="281.931" y2="34.6473" stroke="#CCCCCC"/>
<line x1="253.646" y1="69.9316" x2="281.931" y2="41.6473" stroke="#CCCCCC"/>
<line x1="253.646" y1="76.9316" x2="281.931" y2="48.6473" stroke="#CCCCCC"/>
<line x1="253.646" y1="83.9316" x2="281.931" y2="55.6473" stroke="#CCCCCC"/>
<line x1="253.646" y1="90.9316" x2="281.931" y2="62.6473" stroke="#CCCCCC"/>
<line x1="253.646" y1="97.9316" x2="281.931" y2="69.6473" stroke="#CCCCCC"/>
<line x1="253.646" y1="104.932" x2="281.931" y2="76.6473" stroke="#CCCCCC"/>
<line x1="253.646" y1="111.932" x2="281.931" y2="83.6473" stroke="#CCCCCC"/>
<line x1="253.646" y1="118.932" x2="281.931" y2="90.6473" stroke="#CCCCCC"/>
<line x1="253.646" y1="125.932" x2="281.931" y2="97.6473" stroke="#CCCCCC"/>
<line x1="253.646" y1="132.932" x2="281.931" y2="104.647" stroke="#CCCCCC"/>
<line x1="253.646" y1="139.932" x2="281.931" y2="111.647" stroke="#CCCCCC"/>
<line x1="253.646" y1="146.932" x2="281.931" y2="118.647" stroke="#CCCCCC"/>
<line x1="253.646" y1="153.932" x2="281.931" y2="125.647" stroke="#CCCCCC"/>
<line x1="253.646" y1="160.932" x2="281.931" y2="132.647" stroke="#CCCCCC"/>
</g>
<rect x="260.5" y="1.5" width="15" height="149" rx="7.5" stroke="#CCCCCC"/>
<rect x="260" y="21" width="16" height="130" rx="8" fill="#AF6249"/>
<path d="M29.096 184.816V194H27.976V186.104L26.198 187.21L25.75 186.342L28.228 184.816H29.096Z" fill="black"/>
<path d="M74.0003 184.816V194H72.8803V186.104L71.1023 187.21L70.6543 186.342L73.1323 184.816H74.0003ZM77.0583 187.196L76.1343 186.748C76.4143 185.796 77.2263 184.662 78.8643 184.662C80.6423 184.662 81.7203 185.782 81.7203 187.42C81.7203 190.22 78.2763 191.48 77.4642 193.006H81.8323V194H76.0783V193.174C77.1423 190.794 80.5583 189.744 80.5583 187.462C80.5583 186.384 80.0263 185.684 78.8363 185.684C77.9403 185.684 77.3383 186.202 77.0583 187.196Z" fill="black"/>
<path d="M267.391 186.118L266.607 186.734C266.201 186.104 265.543 185.684 264.731 185.684C263.247 185.684 262.211 186.888 262.099 189.114C262.589 188.344 263.387 187.784 264.535 187.784C266.187 187.784 267.545 189.114 267.545 190.962C267.545 192.81 266.131 194.154 264.367 194.154C262.155 194.154 261.007 192.362 261.007 189.632C261.007 186.524 262.463 184.662 264.731 184.662C265.977 184.662 266.887 185.334 267.391 186.118ZM262.379 190.976C262.379 192.236 263.163 193.132 264.367 193.132C265.585 193.132 266.383 192.236 266.383 190.976C266.383 189.688 265.585 188.806 264.367 188.806C263.163 188.806 262.379 189.688 262.379 190.976ZM272.558 194.154C270.332 194.154 269.128 192.222 269.128 189.408C269.128 186.594 270.332 184.662 272.558 184.662C274.784 184.662 275.988 186.594 275.988 189.408C275.988 192.222 274.784 194.154 272.558 194.154ZM272.558 193.132C274.14 193.132 274.826 191.592 274.826 189.408C274.826 187.224 274.14 185.684 272.558 185.684C270.976 185.684 270.29 187.224 270.29 189.408C270.29 191.592 270.976 193.132 272.558 193.132Z" fill="black"/>
<g clip-path="url(#clip7_1567_57017)">
<rect y="271" width="16" height="16" rx="8" fill="white"/>
<line x1="-6.35355" y1="272.932" x2="21.9307" y2="244.647" stroke="#CCCCCC"/>
<line x1="-6.35355" y1="279.932" x2="21.9307" y2="251.647" stroke="#CCCCCC"/>
<line x1="-6.35355" y1="286.932" x2="21.9307" y2="258.647" stroke="#CCCCCC"/>
<line x1="-6.35355" y1="293.932" x2="21.9307" y2="265.647" stroke="#CCCCCC"/>
<line x1="-6.35355" y1="300.932" x2="21.9307" y2="272.647" stroke="#CCCCCC"/>
<line x1="-6.35355" y1="307.932" x2="21.9307" y2="279.647" stroke="#CCCCCC"/>
<line x1="-6.35355" y1="314.932" x2="21.9307" y2="286.647" stroke="#CCCCCC"/>
</g>
<rect x="0.5" y="271.5" width="15" height="15" rx="7.5" stroke="#CCCCCC"/>
<path d="M0 279H16C16 283.418 12.4183 287 8 287C3.58172 287 0 283.418 0 279Z" fill="#AF6249"/>
<path d="M29.5336 283L27.1956 277.092C26.8736 276.294 26.6076 275.524 26.5656 275.314H26.5236C26.5516 275.51 26.5796 276.364 26.5796 277.204V283H25.4176V273.48H26.9016L29.6736 280.382C29.8836 280.886 30.0656 281.39 30.0656 281.6H30.1076C30.1076 281.39 30.2896 280.886 30.4856 280.382L33.2576 273.48H34.7416V283H33.5796V277.204C33.5796 276.364 33.6076 275.51 33.6356 275.314H33.5936C33.5516 275.524 33.2856 276.294 32.9636 277.092L30.6256 283H29.5336ZM40.0385 282.16C41.3265 282.16 42.1525 281.18 42.1525 279.528C42.1525 277.876 41.3265 276.896 40.0385 276.896C38.7505 276.896 37.9245 277.876 37.9245 279.528C37.9245 281.18 38.7505 282.16 40.0385 282.16ZM40.0385 275.902C42.0265 275.902 43.3145 277.386 43.3145 279.528C43.3145 281.67 42.0265 283.154 40.0385 283.154C38.0505 283.154 36.7625 281.67 36.7625 279.528C36.7625 277.386 38.0505 275.902 40.0385 275.902ZM45.1675 283V276.056H46.2455V277.008C46.6095 276.462 47.3935 275.902 48.3595 275.902C49.9695 275.902 50.8795 276.938 50.8795 278.674V283H49.7595V278.786C49.7595 277.54 49.1435 276.896 48.0795 276.896C47.1415 276.896 46.4835 277.484 46.2875 278.142V283H45.1675ZM53.5189 280.788V277.008H52.2729V276.056H53.5329V274.25H54.6389V276.056H56.1929V277.008H54.6389V280.788C54.6389 281.74 55.0589 282.062 55.9969 282.062H56.1929V283.014C56.0529 283.042 55.8709 283.056 55.6889 283.056C54.2609 283.056 53.5189 282.356 53.5189 280.788ZM57.8824 283V273.06H59.0024V276.938C59.3804 276.42 60.1504 275.902 61.0744 275.902C62.6844 275.902 63.5944 276.938 63.5944 278.674V283H62.4744V278.786C62.4744 277.54 61.8584 276.896 60.7944 276.896C59.8564 276.896 59.1984 277.484 59.0024 278.142V283H57.8824ZM65.8121 273.06H66.9321V283H65.8121V273.06ZM69.72 285.632L71.148 282.3L68.46 276.056H69.664L71.26 280.032C71.47 280.55 71.652 281.068 71.652 281.278H71.694C71.764 280.914 71.876 280.55 72.072 280.032L73.556 276.056H74.774L70.938 285.632H69.72ZM79.2925 285.632V276.056H80.3705V277.05C80.8745 276.35 81.6865 275.902 82.5825 275.902C84.4305 275.902 85.6065 277.386 85.6065 279.528C85.6065 281.67 84.4305 283.154 82.5825 283.154C81.7145 283.154 80.9165 282.734 80.4125 282.076V285.632H79.2925ZM80.4125 278.156V280.914C80.7345 281.656 81.4765 282.16 82.3445 282.16C83.6605 282.16 84.4445 281.166 84.4445 279.528C84.4445 277.89 83.6605 276.896 82.3445 276.896C81.4765 276.896 80.7345 277.414 80.4125 278.156ZM91.4303 279.402V278.702C91.4303 277.694 90.8843 276.896 89.7363 276.896C88.9103 276.896 88.4903 277.19 87.9863 277.68L87.3423 276.952C87.8463 276.42 88.5463 275.902 89.7643 275.902C91.5843 275.902 92.5503 277.008 92.5503 278.618V283H91.4723V282.314C90.9543 282.874 90.2403 283.154 89.4983 283.154C87.9303 283.154 86.9363 282.132 86.9363 280.872C86.9363 279.612 87.9303 278.59 89.4983 278.59C90.2263 278.59 90.9263 278.87 91.4303 279.402ZM91.4303 281.348V280.396C91.0663 279.78 90.2823 279.528 89.6523 279.528C88.5183 279.528 88.0703 280.242 88.0703 280.872C88.0703 281.502 88.5183 282.216 89.6523 282.216C90.2823 282.216 91.0663 281.978 91.4303 281.348ZM95.0267 285.632L96.4547 282.3L93.7667 276.056H94.9707L96.5667 280.032C96.7767 280.55 96.9587 281.068 96.9587 281.278H97.0007C97.0707 280.914 97.1827 280.55 97.3787 280.032L98.8627 276.056H100.081L96.2447 285.632H95.0267ZM101.564 283V276.056H102.642V277.008C103.006 276.462 103.79 275.902 104.756 275.902C105.778 275.902 106.506 276.336 106.884 277.134C107.22 276.546 108.088 275.902 109.18 275.902C110.776 275.902 111.672 276.924 111.672 278.646V283H110.552V278.758C110.552 277.526 109.978 276.896 108.97 276.896C108.032 276.896 107.374 277.484 107.178 278.142V283H106.058V278.758C106.058 277.526 105.484 276.896 104.476 276.896C103.538 276.896 102.88 277.484 102.684 278.142V283H101.564ZM119.58 279.878H114.624C114.722 281.32 115.478 282.16 116.71 282.16C117.564 282.16 118.264 281.796 118.67 281.138L119.426 281.768C118.908 282.552 118.012 283.154 116.64 283.154C114.666 283.154 113.448 281.754 113.448 279.528C113.448 277.316 114.694 275.902 116.598 275.902C118.46 275.902 119.622 277.358 119.622 279.332C119.622 279.514 119.608 279.71 119.58 279.878ZM114.638 278.926H118.446C118.376 277.68 117.648 276.896 116.598 276.896C115.534 276.896 114.806 277.624 114.638 278.926ZM121.416 283V276.056H122.494V277.008C122.858 276.462 123.642 275.902 124.608 275.902C126.218 275.902 127.128 276.938 127.128 278.674V283H126.008V278.786C126.008 277.54 125.392 276.896 124.328 276.896C123.39 276.896 122.732 277.484 122.536 278.142V283H121.416ZM129.767 280.788V277.008H128.521V276.056H129.781V274.25H130.887V276.056H132.441V277.008H130.887V280.788C130.887 281.74 131.307 282.062 132.245 282.062H132.441V283.014C132.301 283.042 132.119 283.056 131.937 283.056C130.509 283.056 129.767 282.356 129.767 280.788Z" fill="black"/>
<g clip-path="url(#clip8_1567_57017)">
<rect y="296" width="16" height="16" rx="8" fill="white"/>
<line x1="-6.35355" y1="297.932" x2="21.9307" y2="269.647" stroke="#E5E5E5"/>
<line x1="-6.35355" y1="304.932" x2="21.9307" y2="276.647" stroke="#E5E5E5"/>
<line x1="-6.35355" y1="311.932" x2="21.9307" y2="283.647" stroke="#E5E5E5"/>
<line x1="-6.35355" y1="318.932" x2="21.9307" y2="290.647" stroke="#E5E5E5"/>
<line x1="-6.35355" y1="325.932" x2="21.9307" y2="297.647" stroke="#E5E5E5"/>
<line x1="-6.35355" y1="332.932" x2="21.9307" y2="304.647" stroke="#E5E5E5"/>
<line x1="-6.35355" y1="339.932" x2="21.9307" y2="311.647" stroke="#E5E5E5"/>
</g>
<rect x="0.5" y="296.5" width="15" height="15" rx="7.5" stroke="#E5E5E5"/>
<path d="M0 304C0 299.582 3.58172 296 8 296C12.4183 296 16 299.582 16 304C16 308.418 12.4183 312 8 312C3.58172 312 0 308.418 0 304Z" fill="#AF6249"/>
<path d="M28.5894 304.108H26.5874V308H25.4254V298.48H28.5894C30.4794 298.48 31.6274 299.502 31.6274 301.294C31.6274 303.086 30.4794 304.108 28.5894 304.108ZM28.4494 299.474H26.5874V303.114H28.4494C29.7654 303.114 30.4234 302.47 30.4234 301.294C30.4234 300.118 29.7654 299.474 28.4494 299.474ZM33.2945 308V301.056H34.3725V302.302C34.7505 301.532 35.4365 300.902 36.4305 300.902C36.5285 300.902 36.6265 300.902 36.7245 300.93V302.064H36.3465C35.4225 302.064 34.7505 302.568 34.4145 303.618V308H33.2945ZM38.2027 301.056H39.3227V308H38.2027V301.056ZM38.0627 298.06H39.4627V299.46H38.0627V298.06ZM41.6207 308V301.056H42.6987V302.008C43.0627 301.462 43.8467 300.902 44.8127 300.902C46.4227 300.902 47.3327 301.938 47.3327 303.674V308H46.2127V303.786C46.2127 302.54 45.5967 301.896 44.5327 301.896C43.5947 301.896 42.9367 302.484 42.7407 303.142V308H41.6207ZM55.0943 302.736L54.2123 303.184C53.8903 302.344 53.2183 301.896 52.3223 301.896C51.0763 301.896 50.2783 302.876 50.2783 304.528C50.2783 306.18 51.0763 307.16 52.3223 307.16C53.2183 307.16 53.8903 306.712 54.2123 305.872L55.0943 306.32C54.7023 307.44 53.6383 308.154 52.3223 308.154C50.3203 308.154 49.1163 306.67 49.1163 304.528C49.1163 302.386 50.3203 300.902 52.3223 300.902C53.6383 300.902 54.7023 301.616 55.0943 302.736ZM56.8101 301.056H57.9301V308H56.8101V301.056ZM56.6701 298.06H58.0701V299.46H56.6701V298.06ZM60.2281 310.632V301.056H61.3061V302.05C61.8101 301.35 62.6221 300.902 63.5181 300.902C65.3661 300.902 66.5421 302.386 66.5421 304.528C66.5421 306.67 65.3661 308.154 63.5181 308.154C62.6501 308.154 61.8521 307.734 61.3481 307.076V310.632H60.2281ZM61.3481 303.156V305.914C61.6701 306.656 62.4121 307.16 63.2801 307.16C64.5961 307.16 65.3801 306.166 65.3801 304.528C65.3801 302.89 64.5961 301.896 63.2801 301.896C62.4121 301.896 61.6701 302.414 61.3481 303.156ZM72.3659 304.402V303.702C72.3659 302.694 71.8199 301.896 70.6719 301.896C69.8459 301.896 69.4259 302.19 68.9219 302.68L68.2779 301.952C68.7819 301.42 69.4819 300.902 70.6999 300.902C72.5199 300.902 73.4859 302.008 73.4859 303.618V308H72.4079V307.314C71.8899 307.874 71.1759 308.154 70.4339 308.154C68.8659 308.154 67.8719 307.132 67.8719 305.872C67.8719 304.612 68.8659 303.59 70.4339 303.59C71.1619 303.59 71.8619 303.87 72.3659 304.402ZM72.3659 306.348V305.396C72.0019 304.78 71.2179 304.528 70.5879 304.528C69.4539 304.528 69.0059 305.242 69.0059 305.872C69.0059 306.502 69.4539 307.216 70.5879 307.216C71.2179 307.216 72.0019 306.978 72.3659 306.348ZM75.7046 298.06H76.8246V308H75.7046V298.06Z" fill="black"/>
<g clip-path="url(#clip9_1567_57017)">
<rect y="321" width="16" height="16" rx="8" fill="white"/>
<line x1="-6.35355" y1="322.932" x2="21.9307" y2="294.647" stroke="#CCCCCC"/>
<line x1="-6.35355" y1="329.932" x2="21.9307" y2="301.647" stroke="#CCCCCC"/>
<line x1="-6.35355" y1="336.932" x2="21.9307" y2="308.647" stroke="#CCCCCC"/>
<line x1="-6.35355" y1="343.932" x2="21.9307" y2="315.647" stroke="#CCCCCC"/>
<line x1="-6.35355" y1="350.932" x2="21.9307" y2="322.647" stroke="#CCCCCC"/>
<line x1="-6.35355" y1="357.932" x2="21.9307" y2="329.647" stroke="#CCCCCC"/>
<line x1="-6.35355" y1="364.932" x2="21.9307" y2="336.647" stroke="#CCCCCC"/>
</g>
<rect x="0.5" y="321.5" width="15" height="15" rx="7.5" stroke="#CCCCCC"/>
<path d="M25.6793 333V323.48H26.8413V333H25.6793ZM29.3921 333V326.056H30.4701V327.008C30.8341 326.462 31.6181 325.902 32.5841 325.902C34.1941 325.902 35.1041 326.938 35.1041 328.674V333H33.9841V328.786C33.9841 327.54 33.3681 326.896 32.3041 326.896C31.3661 326.896 30.7081 327.484 30.5121 328.142V333H29.3921ZM37.7435 330.788V327.008H36.4975V326.056H37.7575V324.25H38.8635V326.056H40.4175V327.008H38.8635V330.788C38.8635 331.74 39.2835 332.062 40.2215 332.062H40.4175V333.014C40.2775 333.042 40.0955 333.056 39.9135 333.056C38.4855 333.056 37.7435 332.356 37.7435 330.788ZM47.723 329.878H42.767C42.865 331.32 43.621 332.16 44.853 332.16C45.707 332.16 46.407 331.796 46.813 331.138L47.569 331.768C47.051 332.552 46.155 333.154 44.783 333.154C42.809 333.154 41.591 331.754 41.591 329.528C41.591 327.316 42.837 325.902 44.741 325.902C46.603 325.902 47.765 327.358 47.765 329.332C47.765 329.514 47.751 329.71 47.723 329.878ZM42.781 328.926H46.589C46.519 327.68 45.791 326.896 44.741 326.896C43.677 326.896 42.949 327.624 42.781 328.926ZM49.5582 333V326.056H50.6362V327.302C51.0142 326.532 51.7002 325.902 52.6942 325.902C52.7922 325.902 52.8902 325.902 52.9882 325.93V327.064H52.6102C51.6862 327.064 51.0142 327.568 50.6782 328.618V333H49.5582ZM59.9593 329.878H55.0033C55.1013 331.32 55.8573 332.16 57.0893 332.16C57.9433 332.16 58.6433 331.796 59.0493 331.138L59.8053 331.768C59.2873 332.552 58.3913 333.154 57.0193 333.154C55.0453 333.154 53.8273 331.754 53.8273 329.528C53.8273 327.316 55.0733 325.902 56.9773 325.902C58.8393 325.902 60.0013 327.358 60.0013 329.332C60.0013 329.514 59.9873 329.71 59.9593 329.878ZM55.0173 328.926H58.8253C58.7553 327.68 58.0273 326.896 56.9773 326.896C55.9133 326.896 55.1853 327.624 55.0173 328.926ZM66.0505 327.036L65.3225 327.666C64.9165 327.092 64.3985 326.854 63.8105 326.854C63.1245 326.854 62.7605 327.302 62.7605 327.806C62.7605 328.324 63.0825 328.632 63.6565 328.758L64.2445 328.884C65.5605 329.164 66.3445 329.766 66.3445 330.984C66.3445 332.104 65.3785 333.154 63.7265 333.154C62.5085 333.154 61.6125 332.468 61.1085 331.712L61.8365 331.04C62.2425 331.656 62.8865 332.202 63.7545 332.202C64.6365 332.202 65.2105 331.754 65.2105 331.054C65.2105 330.41 64.6925 330.102 63.9225 329.934L63.3345 329.808C62.2425 329.57 61.6265 328.926 61.6265 327.918C61.6265 326.854 62.4245 325.902 63.8525 325.902C64.8185 325.902 65.5885 326.35 66.0505 327.036ZM68.5052 330.788V327.008H67.2592V326.056H68.5192V324.25H69.6252V326.056H71.1792V327.008H69.6252V330.788C69.6252 331.74 70.0452 332.062 70.9832 332.062H71.1792V333.014C71.0392 333.042 70.8572 333.056 70.6752 333.056C69.2472 333.056 68.5052 332.356 68.5052 330.788Z" fill="black"/>
<defs>
<clipPath id="clip0_1567_57017">
<rect width="24" height="24" fill="white" transform="translate(0 218)"/>
</clipPath>
<clipPath id="clip1_1567_57017">
<rect x="20" y="80" width="16" height="71" rx="8" fill="white"/>
</clipPath>
<clipPath id="clip2_1567_57017">
<rect x="68" y="80" width="16" height="71" rx="8" fill="white"/>
</clipPath>
<clipPath id="clip3_1567_57017">
<rect x="116" width="16" height="151" rx="8" fill="white"/>
</clipPath>
<clipPath id="clip4_1567_57017">
<rect x="164" y="1" width="16" height="150" rx="8" fill="white"/>
</clipPath>
<clipPath id="clip5_1567_57017">
<rect x="212" y="1" width="16" height="150" rx="8" fill="white"/>
</clipPath>
<clipPath id="clip6_1567_57017">
<rect x="260" y="1" width="16" height="150" rx="8" fill="white"/>
</clipPath>
<clipPath id="clip7_1567_57017">
<rect y="271" width="16" height="16" rx="8" fill="white"/>
</clipPath>
<clipPath id="clip8_1567_57017">
<rect y="296" width="16" height="16" rx="8" fill="white"/>
</clipPath>
<clipPath id="clip9_1567_57017">
<rect y="321" width="16" height="16" rx="8" fill="white"/>
</clipPath>
</defs>
</svg>
