<svg width="101" height="100" viewBox="0 0 101 100" fill="none" xmlns="http://www.w3.org/2000/svg">
<g clip-path="url(#clip0_30_150626)">
<path d="M96 35V68.5C96 72.0804 94.5777 75.5142 92.0459 78.0459C89.5142 80.5777 86.0804 82 82.5 82H19.5C15.9196 82 12.4858 80.5777 9.95406 78.0459C7.42232 75.5142 6 72.0804 6 68.5V35H96ZM82.5 10C86.0804 10 89.5142 11.4223 92.0459 13.9541C94.5777 16.4858 96 19.9196 96 23.5V28H6V23.5C6 19.9196 7.42232 16.4858 9.95406 13.9541C12.4858 11.4223 15.9196 10 19.5 10H82.5Z" fill="#E5E5E5"/>
<g clip-path="url(#clip1_30_150626)">
<mask id="path-2-outside-1_30_150626" maskUnits="userSpaceOnUse" x="54.834" y="45.3359" width="48" height="48" fill="black">
<rect fill="white" x="54.834" y="45.3359" width="48" height="48"/>
<path d="M64.6581 55.1601C64.919 54.8988 65.2289 54.6916 65.5699 54.5501C65.911 54.4087 66.2766 54.3359 66.6458 54.3359C67.015 54.3359 67.3806 54.4087 67.7217 54.5501C68.0628 54.6916 68.3726 54.8988 68.6335 55.1601L78.8344 65.3572L89.0353 55.1601C89.2963 54.8991 89.6062 54.692 89.9473 54.5507C90.2883 54.4095 90.6538 54.3368 91.023 54.3368C91.3921 54.3368 91.7577 54.4095 92.0987 54.5507C92.4398 54.692 92.7496 54.8991 93.0107 55.1601C93.2717 55.4211 93.4787 55.731 93.62 56.072C93.7613 56.4131 93.834 56.7786 93.834 57.1478C93.834 57.5169 93.7613 57.8824 93.62 58.2235C93.4787 58.5645 93.2717 58.8744 93.0107 59.1354L82.8135 69.3364L93.0107 79.5373C93.5378 80.0644 93.834 80.7794 93.834 81.5249C93.834 82.2705 93.5378 82.9854 93.0107 83.5126C92.4835 84.0398 91.7685 84.3359 91.023 84.3359C90.2775 84.3359 89.5625 84.0398 89.0353 83.5126L78.8344 73.3155L68.6335 83.5126C68.1063 84.0398 67.3913 84.3359 66.6458 84.3359C65.9003 84.3359 65.1853 84.0398 64.6581 83.5126C64.131 82.9854 63.8348 82.2705 63.8348 81.5249C63.8348 80.7794 64.131 80.0644 64.6581 79.5373L74.8553 69.3364L64.6581 59.1354C64.3969 58.8746 64.1896 58.5647 64.0482 58.2236C63.9068 57.8826 63.834 57.517 63.834 57.1478C63.834 56.7785 63.9068 56.4129 64.0482 56.0719C64.1896 55.7308 64.3969 55.421 64.6581 55.1601Z"/>
</mask>
<path d="M64.6581 55.1601L71.0176 61.5286L71.0266 61.5195L64.6581 55.1601ZM66.6458 54.3359V63.3359V54.3359ZM68.6335 55.1601L62.265 61.5195L62.2707 61.5252L68.6335 55.1601ZM78.8344 65.3572L72.4716 71.7224C75.9861 75.2355 81.6827 75.2355 85.1972 71.7224L78.8344 65.3572ZM89.0353 55.1601L95.3981 61.5252L95.3993 61.5241L89.0353 55.1601ZM91.023 54.3368V45.3368V54.3368ZM93.0107 59.1354L86.6467 52.7715L86.6455 52.7727L93.0107 59.1354ZM82.8135 69.3364L76.4484 62.9736C72.9352 66.488 72.9352 72.1847 76.4484 75.6991L82.8135 69.3364ZM93.0107 79.5373L86.6455 85.9001L86.6467 85.9012L93.0107 79.5373ZM89.0353 83.5126L95.3993 77.1487L95.3981 77.1475L89.0353 83.5126ZM78.8344 73.3155L85.1972 66.9503C81.6827 63.4372 75.9861 63.4372 72.4716 66.9503L78.8344 73.3155ZM68.6335 83.5126L62.2707 77.1475L62.2695 77.1487L68.6335 83.5126ZM64.6581 79.5373L71.0221 85.9012L71.0233 85.9001L64.6581 79.5373ZM74.8553 69.3364L81.2204 75.6991C84.7336 72.1847 84.7336 66.488 81.2204 62.9736L74.8553 69.3364ZM64.6581 59.1354L71.0233 52.7727L71.0176 52.767L64.6581 59.1354ZM71.0266 61.5195C70.4516 62.0953 69.7687 62.5522 69.017 62.8638L62.1228 46.2365C60.689 46.831 59.3864 47.7023 58.2896 48.8007L71.0266 61.5195ZM69.017 62.8638C68.2654 63.1755 67.4596 63.3359 66.6458 63.3359V45.3359C65.0936 45.3359 63.5566 45.6419 62.1228 46.2365L69.017 62.8638ZM66.6458 63.3359C65.832 63.3359 65.0263 63.1755 64.2746 62.8638L71.1688 46.2365C69.735 45.6419 68.198 45.3359 66.6458 45.3359V63.3359ZM64.2746 62.8638C63.5229 62.5522 62.84 62.0953 62.265 61.5195L75.002 48.8007C73.9052 47.7023 72.6026 46.831 71.1688 46.2365L64.2746 62.8638ZM62.2707 61.5252L72.4716 71.7224L85.1972 58.9921L74.9963 48.795L62.2707 61.5252ZM85.1972 71.7224L95.3981 61.5252L82.6725 48.795L72.4716 58.9921L85.1972 71.7224ZM95.3993 61.5241C94.8246 62.0987 94.1423 62.5546 93.3914 62.8657L86.5031 46.2358C85.0701 46.8294 83.7681 47.6994 82.6713 48.7961L95.3993 61.5241ZM93.3914 62.8657C92.6405 63.1767 91.8357 63.3368 91.023 63.3368V45.3368C89.4719 45.3368 87.9361 45.6423 86.5031 46.2358L93.3914 62.8657ZM91.023 63.3368C90.2102 63.3368 89.4054 63.1767 88.6546 62.8657L95.5429 46.2358C94.1099 45.6423 92.574 45.3368 91.023 45.3368V63.3368ZM88.6546 62.8657C87.9037 62.5546 87.2214 62.0987 86.6467 61.5241L99.3746 48.7961C98.2779 47.6994 96.9758 46.8294 95.5429 46.2358L88.6546 62.8657ZM86.6467 61.5241C86.072 60.9494 85.6161 60.2671 85.3051 59.5162L101.935 52.6279C101.341 51.1949 100.471 49.8929 99.3746 48.7961L86.6467 61.5241ZM85.3051 59.5162C84.9941 58.7653 84.834 57.9606 84.834 57.1478L102.834 57.1478C102.834 55.5967 102.528 54.0608 101.935 52.6279L85.3051 59.5162ZM84.834 57.1478C84.834 56.335 84.9941 55.5302 85.3051 54.7793L101.935 61.6676C102.528 60.2347 102.834 58.6988 102.834 57.1478L84.834 57.1478ZM85.3051 54.7793C85.6161 54.0284 86.072 53.3462 86.6467 52.7715L99.3746 65.4994C100.471 64.4027 101.341 63.1006 101.935 61.6676L85.3051 54.7793ZM86.6455 52.7727L76.4484 62.9736L89.1786 75.6991L99.3758 65.4982L86.6455 52.7727ZM76.4484 75.6991L86.6455 85.9001L99.3758 73.1745L89.1786 62.9736L76.4484 75.6991ZM86.6467 85.9012C85.4861 84.7406 84.834 83.1664 84.834 81.5249H102.834C102.834 78.3924 101.59 75.3883 99.3746 73.1733L86.6467 85.9012ZM84.834 81.5249C84.834 79.8835 85.4861 78.3093 86.6467 77.1487L99.3746 89.8766C101.59 87.6616 102.834 84.6574 102.834 81.5249H84.834ZM86.6467 77.1487C87.8073 75.988 89.3815 75.3359 91.023 75.3359V93.3359C94.1555 93.3359 97.1596 92.0915 99.3746 89.8766L86.6467 77.1487ZM91.023 75.3359C92.6644 75.3359 94.2386 75.988 95.3993 77.1487L82.6713 89.8766C84.8863 92.0915 87.8905 93.3359 91.023 93.3359V75.3359ZM95.3981 77.1475L85.1972 66.9503L72.4716 79.6806L82.6725 89.8777L95.3981 77.1475ZM72.4716 66.9503L62.2707 77.1475L74.9963 89.8777L85.1972 79.6806L72.4716 66.9503ZM62.2695 77.1487C63.4302 75.988 65.0044 75.3359 66.6458 75.3359V93.3359C69.7783 93.3359 72.7825 92.0915 74.9975 89.8766L62.2695 77.1487ZM66.6458 75.3359C68.2873 75.3359 69.8615 75.988 71.0221 77.1487L58.2942 89.8766C60.5092 92.0915 63.5133 93.3359 66.6458 93.3359V75.3359ZM71.0221 77.1487C72.1828 78.3093 72.8348 79.8835 72.8348 81.5249H54.8348C54.8348 84.6574 56.0792 87.6616 58.2942 89.8766L71.0221 77.1487ZM72.8348 81.5249C72.8348 83.1664 72.1828 84.7406 71.0221 85.9012L58.2942 73.1733C56.0792 75.3883 54.8348 78.3925 54.8348 81.5249H72.8348ZM71.0233 85.9001L81.2204 75.6991L68.4902 62.9736L58.293 73.1745L71.0233 85.9001ZM81.2204 62.9736L71.0233 52.7727L58.293 65.4982L68.4902 75.6991L81.2204 62.9736ZM71.0176 52.767C71.5934 53.342 72.0502 54.0248 72.3619 54.7765L55.7345 61.6708C56.329 63.1046 57.2004 64.4071 58.2987 65.5039L71.0176 52.767ZM72.3619 54.7765C72.6736 55.5282 72.834 56.334 72.834 57.1478H54.834C54.834 58.7 55.14 60.2369 55.7345 61.6708L72.3619 54.7765ZM72.834 57.1478C72.834 57.9615 72.6736 58.7673 72.3619 59.519L55.7345 52.6248C55.14 54.0586 54.834 55.5956 54.834 57.1478H72.834ZM72.3619 59.519C72.0502 60.2707 71.5934 60.9536 71.0176 61.5286L58.2987 48.7916C57.2004 49.8884 56.329 51.1909 55.7345 52.6248L72.3619 59.519Z" fill="white" mask="url(#path-2-outside-1_30_150626)"/>
<path d="M65.1889 53.6264C64.7266 53.8181 64.3066 54.0989 63.953 54.453C63.5989 54.8066 63.3181 55.2266 63.1264 55.6889C62.9346 56.1514 62.8359 56.6471 62.8359 57.1478C62.8359 57.6484 62.9346 58.1442 63.1264 58.6067C63.3181 59.069 63.599 59.489 63.9531 59.8427C63.9533 59.8428 63.9534 59.8429 63.9535 59.8431L73.4433 69.3364L63.953 78.8302C63.2383 79.5449 62.8368 80.5142 62.8368 81.5249C62.8368 82.5357 63.2383 83.505 63.953 84.2197L64.6543 83.5184L63.953 84.2197C64.6677 84.9344 65.637 85.3359 66.6478 85.3359C67.6584 85.3359 68.6277 84.9345 69.3424 84.2199C69.3425 84.2198 69.3425 84.2198 69.3426 84.2197L78.8364 74.7294L88.3302 84.2197C89.0449 84.9344 90.0142 85.3359 91.0249 85.3359C92.0357 85.3359 93.005 84.9344 93.7197 84.2197C94.4344 83.505 94.8359 82.5357 94.8359 81.5249C94.8359 80.5142 94.4344 79.5449 93.7197 78.8302L84.2294 69.3364L93.7197 59.8425C93.7198 59.8425 93.7198 59.8425 93.7199 59.8424C94.0737 59.4886 94.3543 59.0685 94.5458 58.6062C94.7374 58.1438 94.8359 57.6482 94.8359 57.1478C94.8359 56.6473 94.7374 56.1517 94.5458 55.6894C94.3543 55.227 94.0736 54.8069 93.7197 54.453C93.3658 54.0991 92.9457 53.8184 92.4833 53.6269C92.021 53.4353 91.5254 53.3368 91.0249 53.3368C90.5245 53.3368 90.0289 53.4353 89.5665 53.6269C89.1042 53.8184 88.684 54.0991 88.3302 54.453L78.8364 63.9433L69.3431 54.4535C69.3429 54.4534 69.3428 54.4533 69.3427 54.4531C68.989 54.099 68.569 53.8181 68.1067 53.6264C67.6442 53.4346 67.1484 53.3359 66.6478 53.3359C66.1471 53.3359 65.6514 53.4346 65.1889 53.6264Z" fill="#af6249" stroke="#af6249" stroke-width="2" stroke-linejoin="round"/>
</g>
</g>
<defs>
<clipPath id="clip0_30_150626">
<rect width="100" height="100" fill="white" transform="translate(0.5)"/>
</clipPath>
<clipPath id="clip1_30_150626">
<rect width="50" height="50" fill="white" transform="translate(55.5 46)"/>
</clipPath>
</defs>
</svg>
