<svg width="36" height="36" viewBox="0 0 36 36" fill="none" xmlns="http://www.w3.org/2000/svg">
<rect x="0.5" y="0.5" width="35" height="35" rx="17.5" stroke="#E5E5E5"/>
<path fill-rule="evenodd" clip-rule="evenodd" d="M15.8953 17.23C15.4578 17.23 15.1119 17.57 15.1119 18C15.1119 18.42 15.4578 18.77 15.8953 18.77H22V23.55C22 26 19.9753 28 17.4724 28H12.5174C10.0247 28 8 26.01 8 23.56V12.45C8 9.99 10.0349 8 12.5276 8H17.4927C19.9753 8 22 9.99 22 12.44V17.23H15.8953ZM25.6302 14.5402L28.5502 17.4502C28.7002 17.6002 28.7802 17.7902 28.7802 18.0002C28.7802 18.2002 28.7002 18.4002 28.5502 18.5402L25.6302 21.4502C25.4802 21.6002 25.2802 21.6802 25.0902 21.6802C24.8902 21.6802 24.6902 21.6002 24.5402 21.4502C24.2402 21.1502 24.2402 20.6602 24.5402 20.3602L26.1402 18.7702H22.0002V17.2302H26.1402L24.5402 15.6402C24.2402 15.3402 24.2402 14.8502 24.5402 14.5502C24.8402 14.2402 25.3302 14.2402 25.6302 14.5402Z" fill="#200E32"/>
</svg>
