<svg width="93" height="100" viewBox="0 0 93 100" fill="none" xmlns="http://www.w3.org/2000/svg">
<g id="Group 2659">
<path id="Vector" d="M10.248 0H55.248C57.9002 0 60.4438 1.05357 62.3191 2.92893C64.1945 4.8043 65.248 7.34784 65.248 10V18H55.248V10H10.248V90H55.248V82H65.248V90C65.248 92.6522 64.1945 95.1957 62.3191 97.0711C60.4438 98.9464 57.9002 100 55.248 100H10.248C7.59588 100 5.05234 98.9464 3.17698 97.0711C1.30161 95.1957 0.248047 92.6522 0.248047 90V10C0.248047 7.34784 1.30161 4.8043 3.17698 2.92893C5.05234 1.05357 7.59588 0 10.248 0Z" fill="#E5E5E5"/>
<path id="Vector_2" d="M60.701 67.951L67.751 75.001L92.751 50.001L67.751 25.001L60.701 32.051L73.601 45.001H25.251V55.001H73.601L60.701 67.951Z" fill="#af6249"/>
</g>
</svg>
