<!-- <svg width="16" height="16" viewBox="0 0 16 16" fill="none" xmlns="http://www.w3.org/2000/svg">
<g id="help">
<path id="Subtract" fill-rule="evenodd" clip-rule="evenodd" d="M15.5 8C15.5 12.1421 12.1421 15.5 8 15.5C3.85786 15.5 0.5 12.1421 0.5 8C0.5 3.85786 3.85786 0.5 8 0.5C12.1421 0.5 15.5 3.85786 15.5 8ZM8 4.8125C7.48223 4.8125 7.0625 5.23223 7.0625 5.75C7.0625 6.06066 6.81066 6.3125 6.5 6.3125C6.18934 6.3125 5.9375 6.06066 5.9375 5.75C5.9375 4.61091 6.86091 3.6875 8 3.6875C9.13909 3.6875 10.0625 4.61091 10.0625 5.75C10.0625 6.15975 9.94243 6.54318 9.73536 6.86497C9.60567 7.06653 9.45404 7.25896 9.31422 7.43272L9.23881 7.52619C9.1228 7.66978 9.01631 7.80158 8.9179 7.93683C8.67522 8.27037 8.5625 8.52102 8.5625 8.75V9.125C8.5625 9.43566 8.31066 9.6875 8 9.6875C7.68934 9.6875 7.4375 9.43566 7.4375 9.125V8.75C7.4375 8.15055 7.73181 7.65483 8.00822 7.27494C8.12501 7.11442 8.253 6.9561 8.36938 6.81215L8.43773 6.72747C8.57662 6.55485 8.69486 6.40299 8.7893 6.25621C8.88305 6.11051 8.9375 5.93747 8.9375 5.75C8.9375 5.23223 8.51777 4.8125 8 4.8125ZM8.5625 11C8.5625 10.6893 8.31066 10.4375 8 10.4375C7.68934 10.4375 7.4375 10.6893 7.4375 11V11.75C7.4375 12.0607 7.68934 12.3125 8 12.3125C8.31066 12.3125 8.5625 12.0607 8.5625 11.75V11Z" fill="#666666"/>
</g>
</svg> -->
<svg width="20" height="20" viewBox="0 0 20 20" fill="none" xmlns="http://www.w3.org/2000/svg">
<path fill-rule="evenodd" clip-rule="evenodd" d="M20 10C20 15.5228 15.5228 20 10 20C4.47715 20 0 15.5228 0 10C0 4.47715 4.47715 0 10 0C15.5228 0 20 4.47715 20 10ZM10 5.75C9.30964 5.75 8.75 6.30964 8.75 7C8.75 7.41421 8.41421 7.75 8 7.75C7.58579 7.75 7.25 7.41421 7.25 7C7.25 5.48122 8.48122 4.25 10 4.25C11.5188 4.25 12.75 5.48122 12.75 7C12.75 7.54634 12.5899 8.05757 12.3138 8.48663C12.1409 8.75537 11.9387 9.01194 11.7523 9.24363L11.6517 9.36825C11.4971 9.5597 11.3551 9.73544 11.2239 9.91577C10.9003 10.3605 10.75 10.6947 10.75 11V11.5C10.75 11.9142 10.4142 12.25 10 12.25C9.58579 12.25 9.25 11.9142 9.25 11.5V11C9.25 10.2007 9.64241 9.53977 10.011 9.03325C10.1667 8.81923 10.3373 8.60814 10.4925 8.41619L10.5836 8.30329C10.7688 8.07313 10.9265 7.87065 11.0524 7.67495C11.1774 7.48068 11.25 7.24996 11.25 7C11.25 6.30964 10.6904 5.75 10 5.75ZM10.75 14C10.75 13.5858 10.4142 13.25 10 13.25C9.58579 13.25 9.25 13.5858 9.25 14V15C9.25 15.4142 9.58579 15.75 10 15.75C10.4142 15.75 10.75 15.4142 10.75 15V14Z" fill="#666666"/>
</svg>

