<svg width="101" height="100" viewBox="0 0 101 100" fill="none" xmlns="http://www.w3.org/2000/svg">
<g clip-path="url(#clip0_30_150798)">
<path d="M90.918 23.8905V62.6184C90.918 69.4868 85.3522 75.0526 78.4838 75.0526H13.3522C10.0544 75.0526 6.89173 73.7426 4.55986 71.4107C2.228 69.0789 0.917969 65.9162 0.917969 62.6184V23.8905L44.4922 47.859C45.3803 48.3469 46.458 48.3469 47.3438 47.859L90.918 23.8905ZM78.4838 4C81.7296 4.0003 84.8467 5.26984 87.1692 7.53742C89.4916 9.805 90.8353 10.8908 90.9132 14.1358L45.918 38.8858L0.922705 14.1334L0.927443 13.9203C1.06008 10.714 2.42714 9.68322 4.74275 7.46163C7.05836 5.24004 10.1432 3.9997 13.3522 4H78.4838Z" fill="#E5E5E5"/>
<g clip-path="url(#clip1_30_150798)">
<mask id="path-2-outside-1_30_150798" maskUnits="userSpaceOnUse" x="49.834" y="45.3359" width="48" height="48" fill="black">
<rect fill="white" x="49.834" y="45.3359" width="48" height="48"/>
<path d="M59.6581 55.1601C59.919 54.8988 60.2289 54.6916 60.5699 54.5501C60.911 54.4087 61.2766 54.3359 61.6458 54.3359C62.015 54.3359 62.3806 54.4087 62.7217 54.5501C63.0628 54.6916 63.3726 54.8988 63.6335 55.1601L73.8344 65.3572L84.0353 55.1601C84.2963 54.8991 84.6062 54.692 84.9473 54.5507C85.2883 54.4095 85.6538 54.3368 86.023 54.3368C86.3921 54.3368 86.7577 54.4095 87.0987 54.5507C87.4398 54.692 87.7496 54.8991 88.0107 55.1601C88.2717 55.4211 88.4787 55.731 88.62 56.072C88.7613 56.4131 88.834 56.7786 88.834 57.1478C88.834 57.5169 88.7613 57.8824 88.62 58.2235C88.4787 58.5645 88.2717 58.8744 88.0107 59.1354L77.8135 69.3364L88.0107 79.5373C88.5378 80.0644 88.834 80.7794 88.834 81.5249C88.834 82.2705 88.5378 82.9854 88.0107 83.5126C87.4835 84.0398 86.7685 84.3359 86.023 84.3359C85.2775 84.3359 84.5625 84.0398 84.0353 83.5126L73.8344 73.3155L63.6335 83.5126C63.1063 84.0398 62.3913 84.3359 61.6458 84.3359C60.9003 84.3359 60.1853 84.0398 59.6581 83.5126C59.131 82.9854 58.8348 82.2705 58.8348 81.5249C58.8348 80.7794 59.131 80.0644 59.6581 79.5373L69.8553 69.3364L59.6581 59.1354C59.3969 58.8746 59.1896 58.5647 59.0482 58.2236C58.9068 57.8826 58.834 57.517 58.834 57.1478C58.834 56.7785 58.9068 56.4129 59.0482 56.0719C59.1896 55.7308 59.3969 55.421 59.6581 55.1601Z"/>
</mask>
<path d="M59.6581 55.1601L66.0176 61.5286L66.0266 61.5195L59.6581 55.1601ZM61.6458 54.3359V63.3359V54.3359ZM63.6335 55.1601L57.265 61.5195L57.2707 61.5252L63.6335 55.1601ZM73.8344 65.3572L67.4716 71.7224C70.9861 75.2355 76.6827 75.2355 80.1972 71.7224L73.8344 65.3572ZM84.0353 55.1601L90.3981 61.5252L90.3993 61.5241L84.0353 55.1601ZM86.023 54.3368V45.3368V54.3368ZM88.0107 59.1354L81.6467 52.7715L81.6455 52.7727L88.0107 59.1354ZM77.8135 69.3364L71.4484 62.9736C67.9352 66.488 67.9352 72.1847 71.4484 75.6991L77.8135 69.3364ZM88.0107 79.5373L81.6455 85.9001L81.6467 85.9012L88.0107 79.5373ZM84.0353 83.5126L90.3993 77.1487L90.3981 77.1475L84.0353 83.5126ZM73.8344 73.3155L80.1972 66.9503C76.6827 63.4372 70.9861 63.4372 67.4716 66.9503L73.8344 73.3155ZM63.6335 83.5126L57.2707 77.1475L57.2695 77.1487L63.6335 83.5126ZM59.6581 79.5373L66.0221 85.9012L66.0233 85.9001L59.6581 79.5373ZM69.8553 69.3364L76.2204 75.6991C79.7336 72.1847 79.7336 66.488 76.2204 62.9736L69.8553 69.3364ZM59.6581 59.1354L66.0233 52.7727L66.0176 52.767L59.6581 59.1354ZM66.0266 61.5195C65.4516 62.0953 64.7687 62.5522 64.017 62.8638L57.1228 46.2365C55.689 46.831 54.3864 47.7023 53.2896 48.8007L66.0266 61.5195ZM64.017 62.8638C63.2654 63.1755 62.4596 63.3359 61.6458 63.3359V45.3359C60.0936 45.3359 58.5566 45.6419 57.1228 46.2365L64.017 62.8638ZM61.6458 63.3359C60.832 63.3359 60.0263 63.1755 59.2746 62.8638L66.1688 46.2365C64.735 45.6419 63.198 45.3359 61.6458 45.3359V63.3359ZM59.2746 62.8638C58.5229 62.5522 57.84 62.0953 57.265 61.5195L70.002 48.8007C68.9052 47.7023 67.6026 46.831 66.1688 46.2365L59.2746 62.8638ZM57.2707 61.5252L67.4716 71.7224L80.1972 58.9921L69.9963 48.795L57.2707 61.5252ZM80.1972 71.7224L90.3981 61.5252L77.6725 48.795L67.4716 58.9921L80.1972 71.7224ZM90.3993 61.5241C89.8246 62.0987 89.1423 62.5546 88.3914 62.8657L81.5031 46.2358C80.0701 46.8294 78.7681 47.6994 77.6713 48.7961L90.3993 61.5241ZM88.3914 62.8657C87.6405 63.1767 86.8357 63.3368 86.023 63.3368V45.3368C84.4719 45.3368 82.9361 45.6423 81.5031 46.2358L88.3914 62.8657ZM86.023 63.3368C85.2102 63.3368 84.4054 63.1767 83.6546 62.8657L90.5429 46.2358C89.1099 45.6423 87.574 45.3368 86.023 45.3368V63.3368ZM83.6546 62.8657C82.9037 62.5546 82.2214 62.0987 81.6467 61.5241L94.3746 48.7961C93.2779 47.6994 91.9758 46.8294 90.5429 46.2358L83.6546 62.8657ZM81.6467 61.5241C81.072 60.9494 80.6161 60.2671 80.3051 59.5162L96.9349 52.6279C96.3414 51.1949 95.4714 49.8929 94.3746 48.7961L81.6467 61.5241ZM80.3051 59.5162C79.9941 58.7653 79.834 57.9606 79.834 57.1478L97.834 57.1478C97.834 55.5967 97.5285 54.0608 96.9349 52.6279L80.3051 59.5162ZM79.834 57.1478C79.834 56.335 79.9941 55.5302 80.3051 54.7793L96.9349 61.6676C97.5285 60.2347 97.834 58.6988 97.834 57.1478L79.834 57.1478ZM80.3051 54.7793C80.6161 54.0284 81.072 53.3462 81.6467 52.7715L94.3746 65.4994C95.4714 64.4027 96.3414 63.1006 96.9349 61.6676L80.3051 54.7793ZM81.6455 52.7727L71.4484 62.9736L84.1786 75.6991L94.3758 65.4982L81.6455 52.7727ZM71.4484 75.6991L81.6455 85.9001L94.3758 73.1745L84.1786 62.9736L71.4484 75.6991ZM81.6467 85.9012C80.4861 84.7406 79.834 83.1664 79.834 81.5249H97.834C97.834 78.3924 96.5896 75.3883 94.3746 73.1733L81.6467 85.9012ZM79.834 81.5249C79.834 79.8835 80.4861 78.3093 81.6467 77.1487L94.3746 89.8766C96.5896 87.6616 97.834 84.6574 97.834 81.5249H79.834ZM81.6467 77.1487C82.8073 75.988 84.3815 75.3359 86.023 75.3359V93.3359C89.1555 93.3359 92.1596 92.0915 94.3746 89.8766L81.6467 77.1487ZM86.023 75.3359C87.6644 75.3359 89.2386 75.988 90.3993 77.1487L77.6713 89.8766C79.8863 92.0915 82.8905 93.3359 86.023 93.3359V75.3359ZM90.3981 77.1475L80.1972 66.9503L67.4716 79.6806L77.6725 89.8777L90.3981 77.1475ZM67.4716 66.9503L57.2707 77.1475L69.9963 89.8777L80.1972 79.6806L67.4716 66.9503ZM57.2695 77.1487C58.4302 75.988 60.0044 75.3359 61.6458 75.3359V93.3359C64.7783 93.3359 67.7825 92.0915 69.9975 89.8766L57.2695 77.1487ZM61.6458 75.3359C63.2873 75.3359 64.8615 75.988 66.0221 77.1487L53.2942 89.8766C55.5092 92.0915 58.5133 93.3359 61.6458 93.3359V75.3359ZM66.0221 77.1487C67.1828 78.3093 67.8348 79.8835 67.8348 81.5249H49.8348C49.8348 84.6574 51.0792 87.6616 53.2942 89.8766L66.0221 77.1487ZM67.8348 81.5249C67.8348 83.1664 67.1828 84.7406 66.0221 85.9012L53.2942 73.1733C51.0792 75.3883 49.8348 78.3925 49.8348 81.5249H67.8348ZM66.0233 85.9001L76.2204 75.6991L63.4902 62.9736L53.293 73.1745L66.0233 85.9001ZM76.2204 62.9736L66.0233 52.7727L53.293 65.4982L63.4902 75.6991L76.2204 62.9736ZM66.0176 52.767C66.5934 53.342 67.0502 54.0248 67.3619 54.7765L50.7345 61.6708C51.329 63.1046 52.2004 64.4071 53.2987 65.5039L66.0176 52.767ZM67.3619 54.7765C67.6736 55.5282 67.834 56.334 67.834 57.1478H49.834C49.834 58.7 50.14 60.2369 50.7345 61.6708L67.3619 54.7765ZM67.834 57.1478C67.834 57.9615 67.6736 58.7673 67.3619 59.519L50.7345 52.6248C50.14 54.0586 49.834 55.5956 49.834 57.1478H67.834ZM67.3619 59.519C67.0502 60.2707 66.5934 60.9536 66.0176 61.5286L53.2987 48.7916C52.2004 49.8884 51.329 51.1909 50.7345 52.6248L67.3619 59.519Z" fill="white" mask="url(#path-2-outside-1_30_150798)"/>
<path d="M60.1889 53.6264C59.7266 53.8181 59.3066 54.0989 58.953 54.453C58.5989 54.8066 58.3181 55.2266 58.1264 55.6889C57.9346 56.1514 57.8359 56.6471 57.8359 57.1478C57.8359 57.6484 57.9346 58.1442 58.1264 58.6067C58.3181 59.069 58.599 59.489 58.9531 59.8427C58.9533 59.8428 58.9534 59.8429 58.9535 59.8431L68.4433 69.3364L58.953 78.8302C58.2383 79.5449 57.8368 80.5142 57.8368 81.5249C57.8368 82.5357 58.2383 83.505 58.953 84.2197L59.6543 83.5184L58.953 84.2197C59.6677 84.9344 60.637 85.3359 61.6478 85.3359C62.6584 85.3359 63.6277 84.9345 64.3424 84.2199C64.3425 84.2198 64.3425 84.2198 64.3426 84.2197L73.8364 74.7294L83.3302 84.2197C84.0449 84.9344 85.0142 85.3359 86.0249 85.3359C87.0357 85.3359 88.005 84.9344 88.7197 84.2197C89.4344 83.505 89.8359 82.5357 89.8359 81.5249C89.8359 80.5142 89.4344 79.5449 88.7197 78.8302L79.2294 69.3364L88.7197 59.8425C88.7198 59.8425 88.7198 59.8425 88.7199 59.8424C89.0737 59.4886 89.3543 59.0685 89.5458 58.6062C89.7374 58.1438 89.8359 57.6482 89.8359 57.1478C89.8359 56.6473 89.7374 56.1517 89.5458 55.6894C89.3543 55.227 89.0736 54.8069 88.7197 54.453C88.3658 54.0991 87.9457 53.8184 87.4833 53.6269C87.021 53.4353 86.5254 53.3368 86.0249 53.3368C85.5245 53.3368 85.0289 53.4353 84.5665 53.6269C84.1042 53.8184 83.684 54.0991 83.3302 54.453L73.8364 63.9433L64.3431 54.4535C64.3429 54.4534 64.3428 54.4533 64.3427 54.4531C63.989 54.099 63.569 53.8181 63.1067 53.6264C62.6442 53.4346 62.1484 53.3359 61.6478 53.3359C61.1471 53.3359 60.6514 53.4346 60.1889 53.6264Z" fill="#af6249" stroke="#af6249" stroke-width="2" stroke-linejoin="round"/>
</g>
</g>
<defs>
<clipPath id="clip0_30_150798">
<rect width="100" height="100" fill="white" transform="translate(0.5)"/>
</clipPath>
<clipPath id="clip1_30_150798">
<rect width="50" height="50" fill="white" transform="translate(50.5 46)"/>
</clipPath>
</defs>
</svg>
