<svg width="101" height="100" viewBox="0 0 101 100" fill="none" xmlns="http://www.w3.org/2000/svg">
<g clip-path="url(#clip0_1773_33605)">
<g clip-path="url(#clip1_1773_33605)">
<path d="M66.3571 32.6667H75.4048C76.6045 32.6667 77.7552 33.1433 78.6036 33.9917C79.452 34.84 79.9286 35.9907 79.9286 37.1905V91.4762C79.9286 92.676 79.452 93.8266 78.6036 94.675C77.7552 95.5234 76.6045 96 75.4048 96H3.02381C1.82402 96 0.673372 95.5234 -0.175007 94.675C-1.02339 93.8266 -1.5 92.676 -1.5 91.4762V37.1905C-1.5 35.9907 -1.02339 34.84 -0.175007 33.9917C0.673372 33.1433 1.82402 32.6667 3.02381 32.6667H12.0714V28.1429C12.0714 20.9441 14.9311 14.0402 20.0214 8.94996C25.1117 3.85969 32.0156 1 39.2143 1C46.413 1 53.3169 3.85969 58.4072 8.94996C63.4975 14.0402 66.3571 20.9441 66.3571 28.1429V32.6667ZM57.3095 32.6667V28.1429C57.3095 23.3437 55.4031 18.7411 52.0096 15.3476C48.616 11.9541 44.0134 10.0476 39.2143 10.0476C34.4151 10.0476 29.8125 11.9541 26.419 15.3476C23.0255 18.7411 21.119 23.3437 21.119 28.1429V32.6667H57.3095ZM34.6905 59.8095V68.8571H43.7381V59.8095H34.6905ZM16.5952 59.8095V68.8571H25.6429V59.8095H16.5952ZM52.7857 59.8095V68.8571H61.8333V59.8095H52.7857Z" fill="#E5E5E5"/>
</g>
<g clip-path="url(#clip2_1773_33605)">
<mask id="path-2-outside-1_1773_33605" maskUnits="userSpaceOnUse" x="49.8359" y="49.334" width="48" height="48" fill="black">
<rect fill="white" x="49.8359" y="49.334" width="48" height="48"/>
<path d="M59.6601 59.1581C59.921 58.8969 60.2308 58.6896 60.5719 58.5482C60.9129 58.4068 61.2785 58.334 61.6478 58.334C62.017 58.334 62.3826 58.4068 62.7236 58.5482C63.0647 58.6896 63.3746 58.8969 63.6354 59.1581L73.8364 69.3553L84.0373 59.1581C84.2983 58.8971 84.6082 58.6901 84.9492 58.5488C85.2903 58.4075 85.6558 58.3348 86.0249 58.3348C86.3941 58.3348 86.7596 58.4075 87.1007 58.5488C87.4417 58.6901 87.7516 58.8971 88.0126 59.1581C88.2736 59.4192 88.4807 59.729 88.622 60.0701C88.7632 60.4111 88.8359 60.7767 88.8359 61.1458C88.8359 61.515 88.7632 61.8805 88.622 62.2215C88.4807 62.5626 88.2736 62.8725 88.0126 63.1335L77.8155 73.3344L88.0126 83.5353C88.5398 84.0625 88.8359 84.7775 88.8359 85.523C88.8359 86.2685 88.5398 86.9835 88.0126 87.5107C87.4854 88.0378 86.7705 88.334 86.0249 88.334C85.2794 88.334 84.5644 88.0378 84.0373 87.5107L73.8364 77.3135L63.6354 87.5107C63.1083 88.0378 62.3933 88.334 61.6478 88.334C60.9022 88.334 60.1873 88.0378 59.6601 87.5107C59.1329 86.9835 58.8368 86.2685 58.8368 85.523C58.8368 84.7775 59.1329 84.0625 59.6601 83.5353L69.8572 73.3344L59.6601 63.1335C59.3988 62.8726 59.1916 62.5628 59.0501 62.2217C58.9087 61.8806 58.8359 61.515 58.8359 61.1458C58.8359 60.7766 58.9087 60.411 59.0501 60.0699C59.1916 59.7289 59.3988 59.419 59.6601 59.1581Z"/>
</mask>
<path d="M59.6601 59.1581L66.0195 65.5266L66.0286 65.5176L59.6601 59.1581ZM61.6478 58.334V67.334V58.334ZM63.6354 59.1581L57.2669 65.5176L57.2727 65.5233L63.6354 59.1581ZM73.8364 69.3553L67.4736 75.7204C70.988 79.2336 76.6847 79.2336 80.1991 75.7204L73.8364 69.3553ZM84.0373 59.1581L90.4001 65.5233L90.4012 65.5221L84.0373 59.1581ZM86.0249 58.3348V49.3348V58.3348ZM88.0126 63.1335L81.6487 56.7695L81.6475 56.7707L88.0126 63.1335ZM77.8155 73.3344L71.4503 66.9716C67.9372 70.4861 67.9372 76.1827 71.4503 79.6972L77.8155 73.3344ZM88.0126 83.5353L81.6475 89.8981L81.6487 89.8993L88.0126 83.5353ZM84.0373 87.5107L90.4012 81.1467L90.4001 81.1455L84.0373 87.5107ZM73.8364 77.3135L80.1991 70.9484C76.6847 67.4352 70.988 67.4352 67.4736 70.9484L73.8364 77.3135ZM63.6354 87.5107L57.2727 81.1455L57.2715 81.1467L63.6354 87.5107ZM59.6601 83.5353L66.0241 89.8993L66.0252 89.8981L59.6601 83.5353ZM69.8572 73.3344L76.2224 79.6972C79.7355 76.1827 79.7355 70.4861 76.2224 66.9716L69.8572 73.3344ZM59.6601 63.1335L66.0252 56.7707L66.0195 56.765L59.6601 63.1335ZM66.0286 65.5176C65.4536 66.0934 64.7707 66.5502 64.019 66.8619L57.1248 50.2345C55.6909 50.829 54.3884 51.7004 53.2916 52.7987L66.0286 65.5176ZM64.019 66.8619C63.2673 67.1736 62.4615 67.334 61.6478 67.334V49.334C60.0956 49.334 58.5586 49.64 57.1248 50.2345L64.019 66.8619ZM61.6478 67.334C60.834 67.334 60.0282 67.1736 59.2765 66.8619L66.1708 50.2345C64.7369 49.64 63.2 49.334 61.6478 49.334V67.334ZM59.2765 66.8619C58.5248 66.5502 57.842 66.0934 57.267 65.5176L70.0039 52.7987C68.9071 51.7004 67.6046 50.829 66.1708 50.2345L59.2765 66.8619ZM57.2727 65.5233L67.4736 75.7204L80.1991 62.9902L69.9982 52.793L57.2727 65.5233ZM80.1991 75.7204L90.4001 65.5233L77.6745 52.793L67.4736 62.9902L80.1991 75.7204ZM90.4012 65.5221C89.8265 66.0968 89.1443 66.5527 88.3934 66.8637L81.5051 50.2339C80.0721 50.8274 78.77 51.6974 77.6733 52.7942L90.4012 65.5221ZM88.3934 66.8637C87.6425 67.1747 86.8377 67.3348 86.0249 67.3348V49.3348C84.4739 49.3348 82.938 49.6403 81.5051 50.2339L88.3934 66.8637ZM86.0249 67.3348C85.2122 67.3348 84.4074 67.1747 83.6565 66.8637L90.5448 50.2339C89.1118 49.6403 87.576 49.3348 86.0249 49.3348V67.3348ZM83.6565 66.8637C82.9056 66.5527 82.2233 66.0968 81.6487 65.5221L94.3766 52.7942C93.2798 51.6974 91.9778 50.8274 90.5448 50.2339L83.6565 66.8637ZM81.6487 65.5221C81.074 64.9474 80.6181 64.2651 80.307 63.5142L96.9369 56.6259C96.3433 55.193 95.4733 53.8909 94.3766 52.7942L81.6487 65.5221ZM80.307 63.5142C79.996 62.7634 79.8359 61.9586 79.8359 61.1458L97.8359 61.1458C97.8359 59.5947 97.5304 58.0589 96.9369 56.6259L80.307 63.5142ZM79.8359 61.1458C79.8359 60.333 79.996 59.5282 80.307 58.7774L96.9369 65.6657C97.5304 64.2327 97.8359 62.6969 97.8359 61.1458L79.8359 61.1458ZM80.307 58.7774C80.6181 58.0265 81.074 57.3442 81.6487 56.7695L94.3766 69.4975C95.4733 68.4007 96.3433 67.0987 96.9369 65.6657L80.307 58.7774ZM81.6475 56.7707L71.4503 66.9716L84.1806 79.6972L94.3777 69.4963L81.6475 56.7707ZM71.4503 79.6972L81.6475 89.8981L94.3777 77.1725L84.1806 66.9716L71.4503 79.6972ZM81.6487 89.8993C80.488 88.7386 79.8359 87.1644 79.8359 85.523H97.8359C97.8359 82.3905 96.5915 79.3863 94.3766 77.1713L81.6487 89.8993ZM79.8359 85.523C79.8359 83.8815 80.488 82.3073 81.6487 81.1467L94.3766 93.8746C96.5915 91.6596 97.8359 88.6555 97.8359 85.523H79.8359ZM81.6487 81.1467C82.8093 79.9861 84.3835 79.334 86.0249 79.334V97.334C89.1574 97.334 92.1616 96.0896 94.3766 93.8746L81.6487 81.1467ZM86.0249 79.334C87.6664 79.334 89.2406 79.9861 90.4012 81.1467L77.6733 93.8746C79.8883 96.0896 82.8924 97.334 86.0249 97.334V79.334ZM90.4001 81.1455L80.1991 70.9484L67.4736 83.6786L77.6745 93.8758L90.4001 81.1455ZM67.4736 70.9484L57.2727 81.1455L69.9982 93.8758L80.1991 83.6786L67.4736 70.9484ZM57.2715 81.1467C58.4321 79.9861 60.0063 79.334 61.6478 79.334V97.334C64.7803 97.334 67.7844 96.0896 69.9994 93.8746L57.2715 81.1467ZM61.6478 79.334C63.2892 79.334 64.8634 79.9861 66.0241 81.1467L53.2961 93.8746C55.5111 96.0896 58.5153 97.334 61.6478 97.334V79.334ZM66.0241 81.1467C67.1847 82.3074 67.8368 83.8816 67.8368 85.523H49.8368C49.8368 88.6555 51.0811 91.6596 53.2961 93.8746L66.0241 81.1467ZM67.8368 85.523C67.8368 87.1644 67.1847 88.7386 66.0241 89.8993L53.2961 77.1713C51.0811 79.3863 49.8368 82.3905 49.8368 85.523H67.8368ZM66.0252 89.8981L76.2224 79.6972L63.4921 66.9716L53.295 77.1725L66.0252 89.8981ZM76.2224 66.9716L66.0252 56.7707L53.295 69.4963L63.4921 79.6972L76.2224 66.9716ZM66.0195 56.765C66.5953 57.34 67.0522 58.0229 67.3638 58.7746L50.7365 65.6688C51.331 67.1026 52.2023 68.4052 53.3007 69.502L66.0195 56.765ZM67.3638 58.7746C67.6755 59.5263 67.8359 60.332 67.8359 61.1458H49.8359C49.8359 62.698 50.1419 64.235 50.7365 65.6688L67.3638 58.7746ZM67.8359 61.1458C67.8359 61.9596 67.6755 62.7654 67.3638 63.517L50.7365 56.6228C50.1419 58.0566 49.8359 59.5936 49.8359 61.1458H67.8359ZM67.3638 63.517C67.0522 64.2687 66.5953 64.9516 66.0195 65.5266L53.3007 52.7896C52.2023 53.8864 51.331 55.189 50.7365 56.6228L67.3638 63.517Z" fill="white" mask="url(#path-2-outside-1_1773_33605)"/>
<path d="M60.1889 57.6264C59.7266 57.8181 59.3066 58.0989 58.953 58.453C58.5989 58.8066 58.3181 59.2266 58.1264 59.6889C57.9346 60.1514 57.8359 60.6471 57.8359 61.1478C57.8359 61.6484 57.9346 62.1442 58.1264 62.6067C58.3181 63.069 58.599 63.489 58.9531 63.8427C58.9533 63.8428 58.9534 63.8429 58.9535 63.8431L68.4433 73.3364L58.953 82.8302C58.2383 83.5449 57.8368 84.5142 57.8368 85.5249C57.8368 86.5357 58.2383 87.505 58.953 88.2197L59.6543 87.5184L58.953 88.2197C59.6677 88.9344 60.637 89.3359 61.6478 89.3359C62.6584 89.3359 63.6277 88.9345 64.3424 88.2199C64.3425 88.2198 64.3425 88.2198 64.3426 88.2197L73.8364 78.7294L83.3302 88.2197C84.0449 88.9344 85.0142 89.3359 86.0249 89.3359C87.0357 89.3359 88.005 88.9344 88.7197 88.2197C89.4344 87.505 89.8359 86.5357 89.8359 85.5249C89.8359 84.5142 89.4344 83.5449 88.7197 82.8302L79.2294 73.3364L88.7197 63.8425C88.7198 63.8425 88.7198 63.8425 88.7199 63.8424C89.0737 63.4886 89.3543 63.0685 89.5458 62.6062C89.7374 62.1438 89.8359 61.6482 89.8359 61.1478C89.8359 60.6473 89.7374 60.1517 89.5458 59.6894C89.3543 59.227 89.0736 58.8069 88.7197 58.453C88.3658 58.0991 87.9457 57.8184 87.4833 57.6269C87.021 57.4353 86.5254 57.3368 86.0249 57.3368C85.5245 57.3368 85.0289 57.4353 84.5665 57.6269C84.1042 57.8184 83.684 58.0991 83.3302 58.453L73.8364 67.9433L64.3431 58.4535C64.3429 58.4534 64.3428 58.4533 64.3427 58.4531C63.989 58.099 63.569 57.8181 63.1067 57.6264C62.6442 57.4346 62.1484 57.3359 61.6478 57.3359C61.1471 57.3359 60.6514 57.4346 60.1889 57.6264Z" fill="#af6249" stroke="#af6249" stroke-width="2" stroke-linejoin="round"/>
</g>
</g>
<defs>
<clipPath id="clip0_1773_33605">
<rect width="100" height="100" fill="white" transform="translate(0.5)"/>
</clipPath>
<clipPath id="clip1_1773_33605">
<rect width="78.75" height="90" fill="white" transform="translate(-0.5 1)"/>
</clipPath>
<clipPath id="clip2_1773_33605">
<rect width="50" height="50" fill="white" transform="translate(50.5 50)"/>
</clipPath>
</defs>
</svg>
