<svg width="180" height="20" viewBox="0 0 180 20" fill="none" xmlns="http://www.w3.org/2000/svg">
    <path d="M38.6588 15.9642C38.6588 16.086 38.6978 16.1591 38.7709 16.1591C38.8245 16.1591 38.8732 16.1347 38.9316 16.0957L59.6164 2.66481C59.9769 2.4261 60.313 2.3043 60.8099 2.3043H65.3551C66.0566 2.3043 66.5194 2.77198 66.5194 3.46862V12.1498C66.5194 13.1972 66.2855 13.8061 65.3551 14.3663L59.8405 17.679C59.7674 17.7229 59.7089 17.7472 59.6553 17.7472C59.5871 17.7472 59.5287 17.6936 59.5287 17.5085V7.37562C59.5287 7.26357 59.4897 7.18076 59.4166 7.18076C59.363 7.18076 59.3192 7.20512 59.2559 7.23922L44.1345 17.0603C43.7107 17.3331 43.3599 17.416 42.975 17.416H32.9493C32.2478 17.416 31.785 16.9483 31.785 16.2516V3.74143C31.785 3.64887 31.746 3.56604 31.673 3.56604C31.6194 3.56604 31.5755 3.59041 31.5122 3.62451L21.5401 9.61655C21.4427 9.67501 21.4134 9.72373 21.4134 9.77245C21.4134 9.81629 21.4329 9.85527 21.5011 9.92834L28.6234 17.0506C28.7159 17.148 28.7841 17.2162 28.7841 17.2942C28.7841 17.377 28.6818 17.416 28.56 17.416H22.1149C21.6083 17.416 21.2186 17.338 20.9506 17.0652L16.6295 12.7441C16.5857 12.7003 16.5516 12.6759 16.5029 12.6759C16.4639 12.6759 16.4152 12.6954 16.3713 12.7246L9.14679 17.0652C8.70834 17.3283 8.40631 17.416 7.97761 17.416H1.3279C0.626389 17.416 0.163589 16.9483 0.163589 16.2516V7.73125C0.163589 6.68386 0.397425 6.07978 1.3279 5.51955L6.87663 2.18739C6.93021 2.15329 6.9838 2.13867 7.02764 2.13867C7.11046 2.13867 7.15918 2.22637 7.15918 2.42123V13.8159C7.15918 13.9376 7.19328 13.9912 7.27122 13.9912C7.32481 13.9912 7.37353 13.962 7.43686 13.923L26.1827 2.65506C26.6309 2.38712 26.9037 2.3043 27.4201 2.3043H37.5091C38.2106 2.3043 38.6734 2.77198 38.6734 3.46862V15.9642H38.6588Z" fill="white"/>
    <path d="M78.8298 17.8061V1.88574H89.0504V4.19001H81.6553V8.60852H87.7107V10.9761H81.6553V17.8061H78.8298Z" fill="white"/>
    <path d="M91.6713 4.62816V1.75879H94.3751V4.62816H91.6713ZM91.6713 17.8058V6.3673H94.3751V17.8058H91.6713Z" fill="white"/>
    <path d="M97.9361 17.8059V6.36744H100.469L100.635 8.02379C101.346 7.05921 102.623 6.05566 104.279 6.05566C106.793 6.05566 108.303 7.56585 108.303 10.328V17.8059H105.599V10.328C105.599 9.11501 105.18 8.15044 103.84 8.15044C102.457 8.15044 101.098 9.36346 100.635 10.8298V17.8059H97.9361Z" fill="white"/>
    <path d="M111.679 12.4033C112.58 11.3998 114.046 10.9565 115.825 10.6837L118.236 10.3086C118.109 8.84221 117.208 8.06763 115.469 8.06763C114.212 8.06763 112.829 8.77888 111.971 9.99677V7.37586C112.726 6.76691 114.003 6.05566 116.034 6.05566C118.713 6.05566 120.954 7.41484 120.954 10.7908V17.8059H118.694L118.441 16.4857C117.374 17.5136 116.244 18.1177 114.587 18.1177C112.283 18.1177 110.924 16.778 110.924 14.6004C110.924 13.6797 111.216 12.9441 111.679 12.4033ZM115.113 15.9645C116.536 15.9645 117.773 14.9609 118.299 13.8064V12.2133L116.94 12.4423C114.826 12.7979 114.363 13.1341 114.008 13.4702C113.754 13.7235 113.608 14.0548 113.608 14.4738C113.603 15.3994 114.212 15.9645 115.113 15.9645Z" fill="white"/>
    <path d="M124.306 17.8059V6.36744H126.839L127.005 8.02379C127.716 7.05921 128.992 6.05566 130.649 6.05566C133.163 6.05566 134.673 7.56585 134.673 10.328V17.8059H131.969V10.328C131.969 9.11501 131.55 8.15044 130.21 8.15044C128.827 8.15044 127.468 9.36346 127.005 10.8298V17.8059H124.306Z" fill="white"/>
    <path d="M137.294 11.8772C137.294 8.73504 139.642 6.05566 143.369 6.05566C144.772 6.05566 145.926 6.51846 146.676 7.05921V9.82626C145.902 8.69606 144.708 8.19428 143.554 8.19428C141.712 8.19428 140.119 9.64114 140.119 11.8821V12.301C140.119 14.4397 141.795 15.9693 143.554 15.9693C144.708 15.9693 145.775 15.4432 146.676 14.3958V17.0752C145.985 17.6208 144.835 18.1226 143.281 18.1226C139.7 18.1226 137.289 15.4627 137.289 12.3205V11.8772H137.294Z" fill="white"/>
    <path d="M148.776 11.8577C148.776 8.50607 150.954 6.05566 154.179 6.05566C157.53 6.05566 159.416 8.34044 159.416 11.9844V13.0318H151.436C151.626 14.8976 152.712 16.0278 154.578 16.0473C156.044 16.0668 157.345 15.6283 158.641 14.3081V16.8852C157.637 17.6598 156.171 18.1226 154.578 18.1226C150.788 18.1226 148.776 15.6722 148.776 12.2767V11.8577ZM156.736 10.976C156.736 9.13451 155.689 8.06276 154.115 8.08712C152.732 8.10661 151.558 9.21732 151.455 10.976H156.736Z" fill="white"/>
    </svg>
    