<svg width="200" height="16" viewBox="0 0 200 16" fill="none" xmlns="http://www.w3.org/2000/svg">
<g clip-path="url(#clip0_2781_55158)">
<path d="M0.32666 7.88299C0.32666 3.50369 3.54356 0.0957031 7.98299 0.0957031C11.0027 0.0957031 13.245 1.51056 14.552 3.72266L13.0196 4.85118C11.9999 3.12753 10.3323 2.02147 7.98299 2.02147C4.60835 2.02147 2.4337 4.56482 2.4337 7.88299C2.4337 11.2011 4.69849 13.7445 8.15764 13.7445C10.09 13.7445 11.7971 12.9922 12.7548 11.9984V9.03395H9.7351V7.19802H14.7943V12.8855C13.1323 14.5249 10.8675 15.6703 8.1351 15.6703C3.61117 15.6703 0.32666 12.2623 0.32666 7.88299Z" fill="white"/>
<path d="M19.1436 0.365234H27.0252V2.1787H21.1886V6.9117H26.5802V8.72517H21.1886V13.5929H27.0252V15.4064H19.1436V0.365234Z" fill="white"/>
<path d="M33.5267 4.69935V15.4062H31.4873V0.359375H32L42.3436 11.0662V0.359375H44.3831V15.6644H43.8704L33.5267 4.69935Z" fill="white"/>
<path d="M49.5269 0.365234H57.4085V2.1787H51.5719V6.9117H56.9635V8.72517H51.5719V13.5929H57.4085V15.4064H49.5269V0.365234Z" fill="white"/>
<path d="M60.5803 11.8248L62.1803 10.8984C62.8226 12.5322 64.0451 13.7506 66.062 13.7506C67.9493 13.7506 69.0592 12.667 69.0592 11.1848C69.0592 9.96643 68.3268 9.17479 66.5747 8.70879L65.0423 8.31017C62.9127 7.75995 61.4254 6.3844 61.4254 4.35196C61.4254 1.94335 63.2676 0.107422 66.1747 0.107422C68.5522 0.107422 70.2592 1.45488 70.9465 3.00448L69.4141 4.02069C68.7043 2.77989 67.5944 2.02756 66.1522 2.02756C64.5522 2.02756 63.5324 2.93711 63.5324 4.23967C63.5324 5.27834 64.2648 6.00823 65.5099 6.33949L66.9972 6.73811C69.5944 7.42308 71.1719 8.79301 71.1719 11.1174C71.1719 13.7281 69.0648 15.6764 66.0451 15.6764C62.9578 15.6707 61.3127 13.745 60.5803 11.8248Z" fill="white"/>
<path d="M75.1943 0.365234H77.2338V15.4064H75.1943V0.365234Z" fill="white"/>
<path d="M80.8901 11.8248L82.4901 10.8984C83.1324 12.5322 84.3549 13.7506 86.3718 13.7506C88.2591 13.7506 89.369 12.667 89.369 11.1848C89.369 9.96643 88.6366 9.17479 86.8845 8.70879L85.3521 8.31017C83.2225 7.75995 81.7352 6.3844 81.7352 4.35196C81.7352 1.94335 83.5775 0.107422 86.4845 0.107422C88.862 0.107422 90.569 1.45488 91.2563 3.00448L89.7239 4.02069C89.0141 2.77989 87.9042 2.02756 86.462 2.02756C84.862 2.02756 83.8423 2.93711 83.8423 4.23967C83.8423 5.27834 84.5746 6.00823 85.8197 6.33949L87.307 6.73811C89.9042 7.42308 91.4817 8.79301 91.4817 11.1174C91.4817 13.7281 89.3746 15.6764 86.3549 15.6764C83.2676 15.6707 81.6225 13.745 80.8901 11.8248Z" fill="white"/>
<path d="M105.921 0.4375H113.724V2.2341H107.944V6.9222H113.285V8.71883H107.944V15.3327H105.921V0.4375Z" fill="white"/>
<path d="M117.482 0.4375H119.504V15.3271H117.482V0.4375Z" fill="white"/>
<path d="M126.445 4.73301V15.3331H124.423V0.179688H124.93L135.166 11.0381V0.437966H137.189V15.5914H136.682L126.445 4.73301Z" fill="white"/>
<path d="M147.054 0.179688H147.47L154.237 15.3331H152.062L150.631 12.0038H143.887L142.456 15.3331H140.282L147.054 0.179688ZM144.659 10.2071H149.865L147.273 4.16595L144.659 10.2071Z" fill="white"/>
<path d="M159.358 4.73301V15.3331H157.335V0.179688H157.842L168.079 11.0381V0.437966H170.101V15.5914H169.594L159.358 4.73301Z" fill="white"/>
<path d="M181.639 15.5912C180.541 15.5912 179.527 15.3947 178.597 15.0017C177.668 14.6086 176.868 14.064 176.203 13.3678C175.538 12.6773 175.014 11.8575 174.631 10.9143C174.248 9.97108 174.062 8.96048 174.062 7.8825C174.062 6.80452 174.254 5.79392 174.631 4.85069C175.014 3.90746 175.538 3.09337 176.203 2.39717C176.868 1.70659 177.668 1.16197 178.597 0.763343C179.527 0.370327 180.541 0.173828 181.639 0.173828C183.194 0.173828 184.541 0.521923 185.696 1.22373C186.845 1.92554 187.735 2.85754 188.366 4.02535L186.783 5.09773C186.299 4.17696 185.628 3.44705 184.772 2.89683C183.916 2.35223 182.879 2.07714 181.662 2.07714C180.828 2.07714 180.073 2.22873 179.397 2.52629C178.721 2.82386 178.147 3.23371 177.662 3.75024C177.178 4.26677 176.806 4.87877 176.541 5.59181C176.276 6.29922 176.147 7.06279 176.147 7.8825C176.147 8.70221 176.276 9.46017 176.541 10.1732C176.806 10.8806 177.178 11.4926 177.662 12.0148C178.147 12.5313 178.721 12.9411 179.397 13.2387C180.073 13.5363 180.823 13.6879 181.662 13.6879C182.879 13.6879 183.916 13.4128 184.772 12.8682C185.628 12.3235 186.299 11.5881 186.783 10.6673L188.366 11.7396C187.735 12.9075 186.845 13.8395 185.696 14.5413C184.541 15.2431 183.189 15.5912 181.639 15.5912Z" fill="white"/>
<path d="M192.028 0.4375H199.831V2.2341H194.051V6.9222H199.391V8.71883H194.051V13.536H199.831V15.3327H192.028V0.4375Z" fill="white"/>
</g>
<defs>
<clipPath id="clip0_2781_55158">
<rect width="200" height="15.7205" fill="white"/>
</clipPath>
</defs>
</svg>
