<svg width="101" height="100" viewBox="0 0 101 100" fill="none" xmlns="http://www.w3.org/2000/svg">
<g id="mingcute:bank-card-fill" clip-path="url(#clip0_30_150113)">
<g id="Group">
<path id="Vector" d="M95.5 35V68.5C95.5 72.0804 94.0777 75.5142 91.5459 78.0459C89.0142 80.5777 85.5804 82 82 82H19C15.4196 82 11.9858 80.5777 9.45406 78.0459C6.92232 75.5142 5.5 72.0804 5.5 68.5V35H95.5ZM82 10C85.5804 10 89.0142 11.4223 91.5459 13.9541C94.0777 16.4858 95.5 19.9196 95.5 23.5V28H5.5V23.5C5.5 19.9196 6.92232 16.4858 9.45406 13.9541C11.9858 11.4223 15.4196 10 19 10H82Z" fill="#E5E5E5"/>
</g>
<g id="Group 2657">
<path id="Subtract" d="M75.2794 91.0839L75.2807 91.0825L97.2116 66.4523C97.9835 65.6181 98.5846 64.6389 98.9769 63.5688C99.3763 62.4796 99.5504 61.3208 99.4874 60.1614C99.4245 59.002 99.1261 57.8691 98.6122 56.8299C98.0983 55.7908 97.3804 54.8682 96.5042 54.1141C95.6282 53.3601 94.6114 52.7893 93.515 52.432C92.4188 52.0747 91.2626 51.9372 90.1138 52.0264C88.965 52.1156 87.8435 52.43 86.8151 52.9535C85.8038 53.4683 84.901 54.176 84.1604 55.0393L67.5269 73.7223L61.4024 69.2084L59.2099 72.1833L61.4024 69.2084C60.4875 68.5341 59.4501 68.0461 58.3503 67.7692C57.2505 67.4923 56.107 67.4312 54.9842 67.5888C53.8614 67.7464 52.7782 68.1202 51.7965 68.6914C50.8148 69.2626 49.9524 70.021 49.2614 70.9264C48.5703 71.832 48.0646 72.8663 47.7766 73.9711C47.4885 75.076 47.4246 76.2269 47.5889 77.3573C47.7532 78.4875 48.1421 79.5718 48.7304 80.5483C49.3187 81.5246 50.0941 82.3729 51.0091 83.0473L63.5579 92.296L63.559 92.2968C65.3139 93.5893 67.4893 94.1761 69.6513 93.954C71.8138 93.7318 73.8263 92.7142 75.2794 91.0839Z" fill="white" stroke="white" stroke-width="8"/>
<path id="Subtract_2" d="M95.2214 62.1919C95.0085 62.7725 94.6795 63.3055 94.2537 63.7592L72.2933 88.4225C71.5118 89.2993 70.4222 89.8537 69.2426 89.9749C68.0629 90.0961 66.8802 89.7751 65.9311 89.076L53.3823 79.8273C52.8879 79.463 52.4714 79.0065 52.1566 78.4839C51.8417 77.9614 51.6347 77.383 51.5473 76.7818C51.4599 76.1806 51.4939 75.5684 51.6472 74.9802C51.8006 74.3919 52.0704 73.8391 52.4412 73.3532C52.8119 72.8674 53.2765 72.4581 53.8082 72.1487C54.34 71.8393 54.9285 71.6358 55.5403 71.55C56.1521 71.4641 56.775 71.4975 57.3737 71.6482C57.9723 71.7989 58.5349 72.064 59.0293 72.4284L68.0895 79.1059L87.1761 57.6674C87.5778 57.1929 88.072 56.8021 88.6297 56.5182C89.1874 56.2343 89.7974 56.063 90.4235 56.0144C91.0497 55.9657 91.6794 56.0408 92.2756 56.2351C92.8717 56.4294 93.4223 56.739 93.8948 57.1457C94.3673 57.5524 94.7521 58.0479 95.0267 58.6031C95.3012 59.1582 95.4599 59.7617 95.4933 60.3781C95.5268 60.9945 95.4343 61.6112 95.2214 62.1919Z" fill="#af6249"/>
</g>
</g>
<defs>
<clipPath id="clip0_30_150113">
<rect width="100" height="100" fill="white" transform="translate(0.5)"/>
</clipPath>
</defs>
</svg>
