<svg width="980" height="535" viewBox="0 0 980 535" fill="none" xmlns="http://www.w3.org/2000/svg">
    <path d="M420.806 23H417.566V6.68H427.958V9.32H420.806V13.592H427.046V16.232H420.806V23ZM430.378 23V10.688H433.546V23H430.378ZM430.234 8.672V5.648H433.69V8.672H430.234ZM436.8 23V10.688H439.848V12.032C440.616 11.072 441.792 10.352 443.376 10.352C446.472 10.352 447.792 12.344 447.792 15.224V23H444.624V15.632C444.624 13.88 443.688 12.968 442.368 12.968C441.216 12.968 440.4 13.76 439.968 14.768V23H436.8ZM457.629 16.4V15.632C457.629 14.168 456.909 12.968 455.181 12.968C453.813 12.968 452.877 13.64 452.397 14.24L450.765 12.248C451.509 11.288 453.117 10.352 455.253 10.352C458.877 10.352 460.797 12.44 460.797 15.368V23H457.821V22.136C456.957 22.928 455.829 23.336 454.557 23.336C451.749 23.336 450.069 21.704 450.069 19.352C450.069 17 451.749 15.368 454.557 15.368C455.757 15.368 456.789 15.728 457.629 16.4ZM457.629 19.952V18.752C457.173 18.104 456.357 17.624 455.301 17.624C453.837 17.624 453.261 18.464 453.261 19.352C453.261 20.24 453.837 21.08 455.301 21.08C456.357 21.08 457.173 20.6 457.629 19.952ZM463.917 23V10.688H466.965V12.032C467.733 11.072 468.909 10.352 470.493 10.352C473.589 10.352 474.909 12.344 474.909 15.224V23H471.741V15.632C471.741 13.88 470.805 12.968 469.485 12.968C468.333 12.968 467.517 13.76 467.085 14.768V23H463.917ZM488.346 13.712L485.946 14.84C485.514 13.712 484.602 12.944 483.402 12.944C481.482 12.944 480.57 14.576 480.57 16.832C480.57 19.088 481.482 20.72 483.402 20.72C484.602 20.72 485.514 19.952 485.946 18.824L488.346 19.952C487.506 22.232 485.49 23.336 483.402 23.336C479.658 23.336 477.354 20.792 477.354 16.832C477.354 12.872 479.658 10.328 483.402 10.328C485.49 10.328 487.506 11.432 488.346 13.712ZM501.365 17.696H492.989C493.229 19.52 494.261 20.768 496.157 20.768C497.573 20.768 498.533 20.12 499.205 19.04L501.173 20.672C499.781 22.52 498.101 23.336 495.917 23.336C492.365 23.336 489.869 20.816 489.869 16.88C489.869 12.728 492.653 10.352 495.821 10.352C499.109 10.352 501.461 12.896 501.461 16.424C501.461 16.808 501.413 17.336 501.365 17.696ZM493.037 15.536H498.413C498.221 13.688 497.237 12.824 495.821 12.824C494.333 12.824 493.349 13.736 493.037 15.536ZM508.941 23V5.96H512.109V23H508.941ZM526.138 17.696H517.762C518.002 19.52 519.034 20.768 520.93 20.768C522.346 20.768 523.306 20.12 523.978 19.04L525.946 20.672C524.554 22.52 522.874 23.336 520.69 23.336C517.138 23.336 514.642 20.816 514.642 16.88C514.642 12.728 517.426 10.352 520.594 10.352C523.882 10.352 526.234 12.896 526.234 16.424C526.234 16.808 526.186 17.336 526.138 17.696ZM517.81 15.536H523.186C522.994 13.688 522.01 12.824 520.594 12.824C519.106 12.824 518.122 13.736 517.81 15.536ZM535.371 16.4V15.632C535.371 14.168 534.651 12.968 532.923 12.968C531.555 12.968 530.619 13.64 530.139 14.24L528.507 12.248C529.251 11.288 530.859 10.352 532.995 10.352C536.619 10.352 538.539 12.44 538.539 15.368V23H535.563V22.136C534.699 22.928 533.571 23.336 532.299 23.336C529.491 23.336 527.811 21.704 527.811 19.352C527.811 17 529.491 15.368 532.299 15.368C533.499 15.368 534.531 15.728 535.371 16.4ZM535.371 19.952V18.752C534.915 18.104 534.099 17.624 533.043 17.624C531.579 17.624 531.003 18.464 531.003 19.352C531.003 20.24 531.579 21.08 533.043 21.08C534.099 21.08 534.915 20.6 535.371 19.952ZM549.819 12.368L547.875 14.048C547.251 13.28 546.627 12.824 545.739 12.824C544.995 12.824 544.443 13.328 544.443 13.976C544.443 14.576 544.731 14.96 545.595 15.176L546.507 15.392C549.099 15.992 550.347 17.12 550.347 19.376C550.347 21.536 548.451 23.336 545.427 23.336C543.291 23.336 541.635 22.352 540.531 20.792L542.427 19.016C543.267 20.312 544.299 20.864 545.547 20.864C546.531 20.864 547.251 20.36 547.251 19.568C547.251 18.776 546.771 18.416 545.547 18.128L544.611 17.912C542.499 17.432 541.347 16.208 541.347 14.168C541.347 12.128 542.931 10.352 545.787 10.352C547.659 10.352 548.979 11.216 549.819 12.368ZM563.521 17.696H555.145C555.385 19.52 556.417 20.768 558.313 20.768C559.729 20.768 560.689 20.12 561.361 19.04L563.329 20.672C561.937 22.52 560.257 23.336 558.073 23.336C554.521 23.336 552.025 20.816 552.025 16.88C552.025 12.728 554.809 10.352 557.977 10.352C561.265 10.352 563.617 12.896 563.617 16.424C563.617 16.808 563.569 17.336 563.521 17.696ZM555.193 15.536H560.569C560.377 13.688 559.393 12.824 557.977 12.824C556.489 12.824 555.505 13.736 555.193 15.536Z" fill="black"/>
    <path d="M251.598 70.44H248.738V76H247.078V62.4H251.598C254.298 62.4 255.938 63.86 255.938 66.42C255.938 68.98 254.298 70.44 251.598 70.44ZM251.398 63.82H248.738V69.02H251.398C253.278 69.02 254.218 68.1 254.218 66.42C254.218 64.74 253.278 63.82 251.398 63.82ZM263.706 70.86V69.86C263.706 68.42 262.926 67.28 261.286 67.28C260.106 67.28 259.506 67.7 258.786 68.4L257.866 67.36C258.586 66.6 259.586 65.86 261.326 65.86C263.926 65.86 265.306 67.44 265.306 69.74V76H263.766V75.02C263.026 75.82 262.006 76.22 260.946 76.22C258.706 76.22 257.286 74.76 257.286 72.96C257.286 71.16 258.706 69.7 260.946 69.7C261.986 69.7 262.986 70.1 263.706 70.86ZM263.706 73.64V72.28C263.186 71.4 262.066 71.04 261.166 71.04C259.546 71.04 258.906 72.06 258.906 72.96C258.906 73.86 259.546 74.88 261.166 74.88C262.066 74.88 263.186 74.54 263.706 73.64ZM268.844 79.76L270.884 75L267.044 66.08H268.764L271.044 71.76C271.344 72.5 271.604 73.24 271.604 73.54H271.664C271.764 73.02 271.924 72.5 272.204 71.76L274.324 66.08H276.064L270.584 79.76H268.844ZM282.926 72.84V67.44H281.146V66.08H282.946V63.5H284.526V66.08H286.746V67.44H284.526V72.84C284.526 74.2 285.126 74.66 286.466 74.66H286.746V76.02C286.546 76.06 286.286 76.08 286.026 76.08C283.986 76.08 282.926 75.08 282.926 72.84ZM289.16 76V61.8H290.76V67.34C291.3 66.6 292.4 65.86 293.72 65.86C296.02 65.86 297.32 67.34 297.32 69.82V76H295.72V69.98C295.72 68.2 294.84 67.28 293.32 67.28C291.98 67.28 291.04 68.12 290.76 69.06V76H289.16ZM308.628 71.54H301.548C301.688 73.6 302.768 74.8 304.528 74.8C305.748 74.8 306.748 74.28 307.328 73.34L308.408 74.24C307.668 75.36 306.388 76.22 304.428 76.22C301.608 76.22 299.868 74.22 299.868 71.04C299.868 67.88 301.648 65.86 304.368 65.86C307.028 65.86 308.688 67.94 308.688 70.76C308.688 71.02 308.668 71.3 308.628 71.54ZM301.568 70.18H307.008C306.908 68.4 305.868 67.28 304.368 67.28C302.848 67.28 301.808 68.32 301.568 70.18ZM322.036 67.48L320.996 68.38C320.416 67.56 319.676 67.22 318.836 67.22C317.856 67.22 317.336 67.86 317.336 68.58C317.336 69.32 317.796 69.76 318.616 69.94L319.456 70.12C321.336 70.52 322.456 71.38 322.456 73.12C322.456 74.72 321.076 76.22 318.716 76.22C316.976 76.22 315.696 75.24 314.976 74.16L316.016 73.2C316.596 74.08 317.516 74.86 318.756 74.86C320.016 74.86 320.836 74.22 320.836 73.22C320.836 72.3 320.096 71.86 318.996 71.62L318.156 71.44C316.596 71.1 315.716 70.18 315.716 68.74C315.716 67.22 316.856 65.86 318.896 65.86C320.276 65.86 321.376 66.5 322.036 67.48ZM330.659 70.86V69.86C330.659 68.42 329.879 67.28 328.239 67.28C327.059 67.28 326.459 67.7 325.739 68.4L324.819 67.36C325.539 66.6 326.539 65.86 328.279 65.86C330.879 65.86 332.259 67.44 332.259 69.74V76H330.719V75.02C329.979 75.82 328.959 76.22 327.899 76.22C325.659 76.22 324.239 74.76 324.239 72.96C324.239 71.16 325.659 69.7 327.899 69.7C328.939 69.7 329.939 70.1 330.659 70.86ZM330.659 73.64V72.28C330.139 71.4 329.019 71.04 328.119 71.04C326.499 71.04 325.859 72.06 325.859 72.96C325.859 73.86 326.499 74.88 328.119 74.88C329.019 74.88 330.139 74.54 330.659 73.64ZM335.429 76V66.08H336.969V67.44C337.489 66.66 338.609 65.86 339.989 65.86C341.449 65.86 342.489 66.48 343.029 67.62C343.509 66.78 344.749 65.86 346.309 65.86C348.589 65.86 349.869 67.32 349.869 69.78V76H348.269V69.94C348.269 68.18 347.449 67.28 346.009 67.28C344.669 67.28 343.729 68.12 343.449 69.06V76H341.849V69.94C341.849 68.18 341.029 67.28 339.589 67.28C338.249 67.28 337.309 68.12 337.029 69.06V76H335.429ZM361.167 71.54H354.087C354.227 73.6 355.307 74.8 357.067 74.8C358.287 74.8 359.287 74.28 359.867 73.34L360.947 74.24C360.207 75.36 358.927 76.22 356.967 76.22C354.147 76.22 352.407 74.22 352.407 71.04C352.407 67.88 354.187 65.86 356.907 65.86C359.567 65.86 361.227 67.94 361.227 70.76C361.227 71.02 361.207 71.3 361.167 71.54ZM354.107 70.18H359.547C359.447 68.4 358.407 67.28 356.907 67.28C355.387 67.28 354.347 68.32 354.107 70.18ZM368.495 76V66.08H370.035V67.44C370.555 66.66 371.675 65.86 373.055 65.86C374.515 65.86 375.555 66.48 376.095 67.62C376.575 66.78 377.815 65.86 379.375 65.86C381.655 65.86 382.935 67.32 382.935 69.78V76H381.335V69.94C381.335 68.18 380.515 67.28 379.075 67.28C377.735 67.28 376.795 68.12 376.515 69.06V76H374.915V69.94C374.915 68.18 374.095 67.28 372.655 67.28C371.315 67.28 370.375 68.12 370.095 69.06V76H368.495ZM390.133 74.8C391.973 74.8 393.153 73.4 393.153 71.04C393.153 68.68 391.973 67.28 390.133 67.28C388.293 67.28 387.113 68.68 387.113 71.04C387.113 73.4 388.293 74.8 390.133 74.8ZM390.133 65.86C392.973 65.86 394.813 67.98 394.813 71.04C394.813 74.1 392.973 76.22 390.133 76.22C387.293 76.22 385.453 74.1 385.453 71.04C385.453 67.98 387.293 65.86 390.133 65.86ZM397.46 76V66.08H399V67.44C399.52 66.66 400.64 65.86 402.02 65.86C404.32 65.86 405.62 67.34 405.62 69.82V76H404.02V69.98C404.02 68.2 403.14 67.28 401.62 67.28C400.28 67.28 399.34 68.12 399.06 69.06V76H397.46ZM409.391 72.84V67.44H407.611V66.08H409.411V63.5H410.991V66.08H413.211V67.44H410.991V72.84C410.991 74.2 411.591 74.66 412.931 74.66H413.211V76.02C413.011 76.06 412.751 76.08 412.491 76.08C410.451 76.08 409.391 75.08 409.391 72.84ZM415.624 76V61.8H417.224V67.34C417.764 66.6 418.864 65.86 420.184 65.86C422.484 65.86 423.784 67.34 423.784 69.82V76H422.184V69.98C422.184 68.2 421.304 67.28 419.784 67.28C418.444 67.28 417.504 68.12 417.224 69.06V76H415.624ZM426.953 61.8H428.553V76H426.953V61.8ZM432.535 79.76L434.575 75L430.735 66.08H432.455L434.735 71.76C435.035 72.5 435.295 73.24 435.295 73.54H435.355C435.455 73.02 435.615 72.5 435.895 71.76L438.015 66.08H439.755L434.275 79.76H432.535ZM446.21 61.8H447.81V76H446.21V61.8ZM459.233 71.54H452.153C452.293 73.6 453.373 74.8 455.133 74.8C456.353 74.8 457.353 74.28 457.933 73.34L459.013 74.24C458.273 75.36 456.993 76.22 455.033 76.22C452.213 76.22 450.473 74.22 450.473 71.04C450.473 67.88 452.253 65.86 454.973 65.86C457.633 65.86 459.293 67.94 459.293 70.76C459.293 71.02 459.273 71.3 459.233 71.54ZM452.173 70.18H457.613C457.513 68.4 456.473 67.28 454.973 67.28C453.453 67.28 452.413 68.32 452.173 70.18ZM467.515 70.86V69.86C467.515 68.42 466.735 67.28 465.095 67.28C463.915 67.28 463.315 67.7 462.595 68.4L461.675 67.36C462.395 66.6 463.395 65.86 465.135 65.86C467.735 65.86 469.115 67.44 469.115 69.74V76H467.575V75.02C466.835 75.82 465.815 76.22 464.755 76.22C462.515 76.22 461.095 74.76 461.095 72.96C461.095 71.16 462.515 69.7 464.755 69.7C465.795 69.7 466.795 70.1 467.515 70.86ZM467.515 73.64V72.28C466.995 71.4 465.875 71.04 464.975 71.04C463.355 71.04 462.715 72.06 462.715 72.96C462.715 73.86 463.355 74.88 464.975 74.88C465.875 74.88 466.995 74.54 467.515 73.64ZM478.365 67.48L477.325 68.38C476.745 67.56 476.005 67.22 475.165 67.22C474.185 67.22 473.665 67.86 473.665 68.58C473.665 69.32 474.125 69.76 474.945 69.94L475.785 70.12C477.665 70.52 478.785 71.38 478.785 73.12C478.785 74.72 477.405 76.22 475.045 76.22C473.305 76.22 472.025 75.24 471.305 74.16L472.345 73.2C472.925 74.08 473.845 74.86 475.085 74.86C476.345 74.86 477.165 74.22 477.165 73.22C477.165 72.3 476.425 71.86 475.325 71.62L474.485 71.44C472.925 71.1 472.045 70.18 472.045 68.74C472.045 67.22 473.185 65.86 475.225 65.86C476.605 65.86 477.705 66.5 478.365 67.48ZM489.468 71.54H482.388C482.528 73.6 483.608 74.8 485.368 74.8C486.588 74.8 487.588 74.28 488.168 73.34L489.248 74.24C488.508 75.36 487.228 76.22 485.268 76.22C482.448 76.22 480.708 74.22 480.708 71.04C480.708 67.88 482.488 65.86 485.208 65.86C487.868 65.86 489.528 67.94 489.528 70.76C489.528 71.02 489.508 71.3 489.468 71.54ZM482.408 70.18H487.848C487.748 68.4 486.708 67.28 485.208 67.28C483.688 67.28 482.648 68.32 482.408 70.18ZM497.476 76V67.44H495.776V66.08H497.476V64.62C497.476 62.9 498.456 61.68 500.416 61.68C500.676 61.68 501.016 61.7 501.256 61.72V63.04H500.776C499.616 63.04 499.076 63.54 499.076 64.64V66.08H501.256V67.44H499.076V76H497.476ZM511.401 71.54H504.321C504.461 73.6 505.541 74.8 507.301 74.8C508.521 74.8 509.521 74.28 510.101 73.34L511.181 74.24C510.441 75.36 509.161 76.22 507.201 76.22C504.381 76.22 502.641 74.22 502.641 71.04C502.641 67.88 504.421 65.86 507.141 65.86C509.801 65.86 511.461 67.94 511.461 70.76C511.461 71.02 511.441 71.3 511.401 71.54ZM504.341 70.18H509.781C509.681 68.4 508.641 67.28 507.141 67.28C505.621 67.28 504.581 68.32 504.341 70.18ZM522.163 71.54H515.083C515.223 73.6 516.303 74.8 518.063 74.8C519.283 74.8 520.283 74.28 520.863 73.34L521.943 74.24C521.203 75.36 519.923 76.22 517.963 76.22C515.143 76.22 513.403 74.22 513.403 71.04C513.403 67.88 515.183 65.86 517.903 65.86C520.563 65.86 522.223 67.94 522.223 70.76C522.223 71.02 522.203 71.3 522.163 71.54ZM515.103 70.18H520.543C520.443 68.4 519.403 67.28 517.903 67.28C516.383 67.28 515.343 68.32 515.103 70.18ZM525.985 79.34H524.745L525.785 76H524.565V73.62H527.085V75.74L525.985 79.34ZM533.788 66.08H535.388V76H533.788V66.08ZM533.588 61.8H535.588V63.8H533.588V61.8ZM538.671 76V66.08H540.211V67.44C540.731 66.66 541.851 65.86 543.231 65.86C545.531 65.86 546.831 67.34 546.831 69.82V76H545.231V69.98C545.231 68.2 544.351 67.28 542.831 67.28C541.491 67.28 540.551 68.12 540.271 69.06V76H538.671ZM557.919 68.48L556.659 69.12C556.199 67.92 555.239 67.28 553.959 67.28C552.179 67.28 551.039 68.68 551.039 71.04C551.039 73.4 552.179 74.8 553.959 74.8C555.239 74.8 556.199 74.16 556.659 72.96L557.919 73.6C557.359 75.2 555.839 76.22 553.959 76.22C551.099 76.22 549.379 74.1 549.379 71.04C549.379 67.98 551.099 65.86 553.959 65.86C555.839 65.86 557.359 66.88 557.919 68.48ZM560.37 61.8H561.97V76H560.37V61.8ZM573.293 66.08V76H571.753V74.66C571.213 75.44 570.113 76.22 568.733 76.22C566.433 76.22 565.133 74.74 565.133 72.26V66.08H566.733V72.1C566.733 73.88 567.613 74.8 569.133 74.8C570.473 74.8 571.393 73.96 571.693 73.02V66.08H573.293ZM583.441 76V74.6C582.701 75.6 581.541 76.22 580.281 76.22C577.641 76.22 575.961 74.1 575.961 71.04C575.961 67.98 577.641 65.86 580.281 65.86C581.521 65.86 582.641 66.46 583.381 67.42V61.8H584.981V76H583.441ZM583.381 73.02V69.08C582.921 68.02 581.861 67.28 580.621 67.28C578.741 67.28 577.621 68.7 577.621 71.04C577.621 73.38 578.741 74.8 580.621 74.8C581.861 74.8 582.921 74.08 583.381 73.02ZM588.261 66.08H589.861V76H588.261V66.08ZM588.061 61.8H590.061V63.8H588.061V61.8ZM593.144 76V66.08H594.684V67.44C595.204 66.66 596.324 65.86 597.704 65.86C600.004 65.86 601.304 67.34 601.304 69.82V76H599.704V69.98C599.704 68.2 598.824 67.28 597.304 67.28C595.964 67.28 595.024 68.12 594.744 69.06V76H593.144ZM611.092 67.46V66.08H612.632V75.14C612.632 77.7 611.232 79.98 608.152 79.98C606.032 79.98 604.692 78.84 604.092 77.52L605.292 76.76C605.772 77.82 606.732 78.56 608.092 78.56C610.212 78.56 611.032 77.02 611.032 75.2V74.1C610.312 75.04 609.212 75.62 607.972 75.62C605.472 75.62 603.852 73.58 603.852 70.74C603.852 67.9 605.472 65.86 607.972 65.86C609.232 65.86 610.372 66.48 611.092 67.46ZM611.032 72.48V69.02C610.572 68 609.552 67.28 608.332 67.28C606.572 67.28 605.512 68.62 605.512 70.74C605.512 72.86 606.572 74.2 608.332 74.2C609.552 74.2 610.572 73.5 611.032 72.48ZM620.624 76V66.08H622.164V67.44C622.684 66.66 623.804 65.86 625.184 65.86C626.644 65.86 627.684 66.48 628.224 67.62C628.704 66.78 629.944 65.86 631.504 65.86C633.784 65.86 635.064 67.32 635.064 69.78V76H633.464V69.94C633.464 68.18 632.644 67.28 631.204 67.28C629.864 67.28 628.924 68.12 628.644 69.06V76H627.044V69.94C627.044 68.18 626.224 67.28 624.784 67.28C623.444 67.28 622.504 68.12 622.224 69.06V76H620.624ZM643.882 70.86V69.86C643.882 68.42 643.102 67.28 641.462 67.28C640.282 67.28 639.682 67.7 638.962 68.4L638.042 67.36C638.762 66.6 639.762 65.86 641.502 65.86C644.102 65.86 645.482 67.44 645.482 69.74V76H643.942V75.02C643.202 75.82 642.182 76.22 641.122 76.22C638.882 76.22 637.462 74.76 637.462 72.96C637.462 71.16 638.882 69.7 641.122 69.7C642.162 69.7 643.162 70.1 643.882 70.86ZM643.882 73.64V72.28C643.362 71.4 642.242 71.04 641.342 71.04C639.722 71.04 639.082 72.06 639.082 72.96C639.082 73.86 639.722 74.88 641.342 74.88C642.242 74.88 643.362 74.54 643.882 73.64ZM648.652 66.08H650.252V76H648.652V66.08ZM648.452 61.8H650.452V63.8H648.452V61.8ZM653.535 76V66.08H655.075V67.44C655.595 66.66 656.715 65.86 658.095 65.86C660.395 65.86 661.695 67.34 661.695 69.82V76H660.095V69.98C660.095 68.2 659.215 67.28 657.695 67.28C656.355 67.28 655.415 68.12 655.135 69.06V76H653.535ZM665.465 72.84V67.44H663.685V66.08H665.485V63.5H667.065V66.08H669.285V67.44H667.065V72.84C667.065 74.2 667.665 74.66 669.005 74.66H669.285V76.02C669.085 76.06 668.825 76.08 668.565 76.08C666.525 76.08 665.465 75.08 665.465 72.84ZM679.721 71.54H672.641C672.781 73.6 673.861 74.8 675.621 74.8C676.841 74.8 677.841 74.28 678.421 73.34L679.501 74.24C678.761 75.36 677.481 76.22 675.521 76.22C672.701 76.22 670.961 74.22 670.961 71.04C670.961 67.88 672.741 65.86 675.461 65.86C678.121 65.86 679.781 67.94 679.781 70.76C679.781 71.02 679.761 71.3 679.721 71.54ZM672.661 70.18H678.101C678.001 68.4 676.961 67.28 675.461 67.28C673.941 67.28 672.901 68.32 672.661 70.18ZM682.343 76V66.08H683.883V67.44C684.403 66.66 685.523 65.86 686.903 65.86C689.203 65.86 690.503 67.34 690.503 69.82V76H688.903V69.98C688.903 68.2 688.023 67.28 686.503 67.28C685.163 67.28 684.223 68.12 683.943 69.06V76H682.343ZM699.331 70.86V69.86C699.331 68.42 698.551 67.28 696.911 67.28C695.731 67.28 695.131 67.7 694.411 68.4L693.491 67.36C694.211 66.6 695.211 65.86 696.951 65.86C699.551 65.86 700.931 67.44 700.931 69.74V76H699.391V75.02C698.651 75.82 697.631 76.22 696.571 76.22C694.331 76.22 692.911 74.76 692.911 72.96C692.911 71.16 694.331 69.7 696.571 69.7C697.611 69.7 698.611 70.1 699.331 70.86ZM699.331 73.64V72.28C698.811 71.4 697.691 71.04 696.791 71.04C695.171 71.04 694.531 72.06 694.531 72.96C694.531 73.86 695.171 74.88 696.791 74.88C697.691 74.88 698.811 74.54 699.331 73.64ZM704.101 76V66.08H705.641V67.44C706.161 66.66 707.281 65.86 708.661 65.86C710.961 65.86 712.261 67.34 712.261 69.82V76H710.661V69.98C710.661 68.2 709.781 67.28 708.261 67.28C706.921 67.28 705.981 68.12 705.701 69.06V76H704.101ZM723.349 68.48L722.089 69.12C721.629 67.92 720.669 67.28 719.389 67.28C717.609 67.28 716.469 68.68 716.469 71.04C716.469 73.4 717.609 74.8 719.389 74.8C720.669 74.8 721.629 74.16 722.089 72.96L723.349 73.6C722.789 75.2 721.269 76.22 719.389 76.22C716.529 76.22 714.809 74.1 714.809 71.04C714.809 67.98 716.529 65.86 719.389 65.86C721.269 65.86 722.789 66.88 723.349 68.48ZM733.94 71.54H726.86C727 73.6 728.08 74.8 729.84 74.8C731.06 74.8 732.06 74.28 732.64 73.34L733.72 74.24C732.98 75.36 731.7 76.22 729.74 76.22C726.92 76.22 725.18 74.22 725.18 71.04C725.18 67.88 726.96 65.86 729.68 65.86C732.34 65.86 734 67.94 734 70.76C734 71.02 733.98 71.3 733.94 71.54ZM726.88 70.18H732.32C732.22 68.4 731.18 67.28 729.68 67.28C728.16 67.28 727.12 68.32 726.88 70.18Z" fill="black"/>
    <mask id="path-3-inside-1_288_39387" fill="white">
    <path d="M0 152H980V212H0V152Z"/>
    </mask>
    <path d="M0 152H980V212H0V152Z" fill="white"/>
    <path d="M980 211H0V213H980V211Z" fill="#E5E5E5" mask="url(#path-3-inside-1_288_39387)"/>
    <mask id="path-5-inside-2_288_39387" fill="white">
    <path d="M0 212H980V272H0V212Z"/>
    </mask>
    <path d="M0 212H980V272H0V212Z" fill="white"/>
    <path d="M980 271H0V273H980V271Z" fill="#E5E5E5" mask="url(#path-5-inside-2_288_39387)"/>
    <mask id="path-7-inside-3_288_39387" fill="white">
    <path d="M0 272H980V332H0V272Z"/>
    </mask>
    <path d="M0 272H980V332H0V272Z" fill="white"/>
    <path d="M980 331H0V333H980V331Z" fill="#E5E5E5" mask="url(#path-7-inside-3_288_39387)"/>
    <mask id="path-9-inside-4_288_39387" fill="white">
    <path d="M0 332H980V392H0V332Z"/>
    </mask>
    <path d="M0 332H980V392H0V332Z" fill="white"/>
    <path d="M980 391H0V393H980V391Z" fill="#666666" mask="url(#path-9-inside-4_288_39387)"/>
    <g clip-path="url(#clip0_288_39387)">
    <rect x="48" y="152" width="20" height="220" rx="10" fill="white"/>
    <g clip-path="url(#clip1_288_39387)">
    <line x1="43.6464" y1="286.787" x2="71.9307" y2="258.503" stroke="#CCCCCC"/>
    <line x1="43.6464" y1="293.928" x2="71.9307" y2="265.643" stroke="#CCCCCC"/>
    <line x1="43.6464" y1="300.928" x2="71.9307" y2="272.643" stroke="#CCCCCC"/>
    <line x1="43.6464" y1="154.076" x2="71.9307" y2="125.792" stroke="#CCCCCC"/>
    <line x1="43.6464" y1="307.928" x2="71.9307" y2="279.643" stroke="#CCCCCC"/>
    <line x1="43.6464" y1="161.076" x2="71.9307" y2="132.792" stroke="#CCCCCC"/>
    <line x1="43.6464" y1="314.928" x2="71.9307" y2="286.643" stroke="#CCCCCC"/>
    <line x1="43.6464" y1="168.076" x2="71.9307" y2="139.792" stroke="#CCCCCC"/>
    <line x1="43.6464" y1="321.928" x2="71.9307" y2="293.643" stroke="#CCCCCC"/>
    <line x1="43.6464" y1="175.076" x2="71.9307" y2="146.792" stroke="#CCCCCC"/>
    <line x1="43.6464" y1="328.928" x2="71.9307" y2="300.643" stroke="#CCCCCC"/>
    <line x1="43.6464" y1="182.076" x2="71.9307" y2="153.792" stroke="#CCCCCC"/>
    <line x1="43.6464" y1="335.928" x2="71.9307" y2="307.643" stroke="#CCCCCC"/>
    <line x1="43.6464" y1="189.076" x2="71.9307" y2="160.792" stroke="#CCCCCC"/>
    <line x1="43.6464" y1="342.928" x2="71.9307" y2="314.643" stroke="#CCCCCC"/>
    <line x1="43.6464" y1="196.076" x2="71.9307" y2="167.792" stroke="#CCCCCC"/>
    <line x1="43.6464" y1="349.928" x2="71.9307" y2="321.643" stroke="#CCCCCC"/>
    <line x1="43.6464" y1="203.076" x2="71.9307" y2="174.792" stroke="#CCCCCC"/>
    <line x1="43.6464" y1="356.928" x2="71.9307" y2="328.643" stroke="#CCCCCC"/>
    <line x1="43.6464" y1="210.076" x2="71.9307" y2="181.792" stroke="#CCCCCC"/>
    <line x1="43.6464" y1="363.928" x2="71.9307" y2="335.643" stroke="#CCCCCC"/>
    <line x1="43.6464" y1="217.076" x2="71.9307" y2="188.792" stroke="#CCCCCC"/>
    <line x1="43.6464" y1="370.928" x2="71.9307" y2="342.643" stroke="#CCCCCC"/>
    <line x1="43.6464" y1="224.076" x2="71.9307" y2="195.792" stroke="#CCCCCC"/>
    <line x1="43.6464" y1="377.928" x2="71.9307" y2="349.643" stroke="#CCCCCC"/>
    <line x1="43.6464" y1="231.076" x2="71.9307" y2="202.792" stroke="#CCCCCC"/>
    <line x1="43.6464" y1="384.928" x2="71.9307" y2="356.643" stroke="#CCCCCC"/>
    <line x1="43.6464" y1="238.076" x2="71.9307" y2="209.792" stroke="#CCCCCC"/>
    <line x1="43.6464" y1="391.928" x2="71.9307" y2="363.643" stroke="#CCCCCC"/>
    <line x1="43.6464" y1="245.076" x2="71.9307" y2="216.792" stroke="#CCCCCC"/>
    <line x1="43.6464" y1="398.928" x2="71.9307" y2="370.643" stroke="#CCCCCC"/>
    <line x1="43.6464" y1="252.076" x2="71.9307" y2="223.792" stroke="#CCCCCC"/>
    <line x1="43.6464" y1="259.076" x2="71.9307" y2="230.792" stroke="#CCCCCC"/>
    <line x1="43.6464" y1="266.076" x2="71.9307" y2="237.792" stroke="#CCCCCC"/>
    <line x1="43.6464" y1="273.076" x2="71.9307" y2="244.792" stroke="#CCCCCC"/>
    <line x1="43.6464" y1="280.076" x2="71.9307" y2="251.792" stroke="#CCCCCC"/>
    </g>
    </g>
    <rect x="48.5" y="152.5" width="19" height="219" rx="9.5" stroke="#CCCCCC"/>
    <rect x="48" y="208" width="20" height="164" rx="10" fill="#AF6249"/>
    <g clip-path="url(#clip2_288_39387)">
    <rect x="144" y="152" width="20" height="220" rx="10" fill="white"/>
    <g clip-path="url(#clip3_288_39387)">
    <line x1="139.646" y1="286.787" x2="167.931" y2="258.503" stroke="#CCCCCC"/>
    <line x1="139.646" y1="293.928" x2="167.931" y2="265.643" stroke="#CCCCCC"/>
    <line x1="139.646" y1="300.928" x2="167.931" y2="272.643" stroke="#CCCCCC"/>
    <line x1="139.646" y1="154.076" x2="167.931" y2="125.792" stroke="#CCCCCC"/>
    <line x1="139.646" y1="307.928" x2="167.931" y2="279.643" stroke="#CCCCCC"/>
    <line x1="139.646" y1="161.076" x2="167.931" y2="132.792" stroke="#CCCCCC"/>
    <line x1="139.646" y1="314.928" x2="167.931" y2="286.643" stroke="#CCCCCC"/>
    <line x1="139.646" y1="168.076" x2="167.931" y2="139.792" stroke="#CCCCCC"/>
    <line x1="139.646" y1="321.928" x2="167.931" y2="293.643" stroke="#CCCCCC"/>
    <line x1="139.646" y1="175.076" x2="167.931" y2="146.792" stroke="#CCCCCC"/>
    <line x1="139.646" y1="328.928" x2="167.931" y2="300.643" stroke="#CCCCCC"/>
    <line x1="139.646" y1="182.076" x2="167.931" y2="153.792" stroke="#CCCCCC"/>
    <line x1="139.646" y1="335.928" x2="167.931" y2="307.643" stroke="#CCCCCC"/>
    <line x1="139.646" y1="189.076" x2="167.931" y2="160.792" stroke="#CCCCCC"/>
    <line x1="139.646" y1="342.928" x2="167.931" y2="314.643" stroke="#CCCCCC"/>
    <line x1="139.646" y1="196.076" x2="167.931" y2="167.792" stroke="#CCCCCC"/>
    <line x1="139.646" y1="349.928" x2="167.931" y2="321.643" stroke="#CCCCCC"/>
    <line x1="139.646" y1="203.076" x2="167.931" y2="174.792" stroke="#CCCCCC"/>
    <line x1="139.646" y1="356.928" x2="167.931" y2="328.643" stroke="#CCCCCC"/>
    <line x1="139.646" y1="210.076" x2="167.931" y2="181.792" stroke="#CCCCCC"/>
    <line x1="139.646" y1="363.928" x2="167.931" y2="335.643" stroke="#CCCCCC"/>
    <line x1="139.646" y1="217.076" x2="167.931" y2="188.792" stroke="#CCCCCC"/>
    <line x1="139.646" y1="370.928" x2="167.931" y2="342.643" stroke="#CCCCCC"/>
    <line x1="139.646" y1="224.076" x2="167.931" y2="195.792" stroke="#CCCCCC"/>
    <line x1="139.646" y1="377.928" x2="167.931" y2="349.643" stroke="#CCCCCC"/>
    <line x1="139.646" y1="231.076" x2="167.931" y2="202.792" stroke="#CCCCCC"/>
    <line x1="139.646" y1="384.928" x2="167.931" y2="356.643" stroke="#CCCCCC"/>
    <line x1="139.646" y1="238.076" x2="167.931" y2="209.792" stroke="#CCCCCC"/>
    <line x1="139.646" y1="391.928" x2="167.931" y2="363.643" stroke="#CCCCCC"/>
    <line x1="139.646" y1="245.076" x2="167.931" y2="216.792" stroke="#CCCCCC"/>
    <line x1="139.646" y1="398.928" x2="167.931" y2="370.643" stroke="#CCCCCC"/>
    <line x1="139.646" y1="252.076" x2="167.931" y2="223.792" stroke="#CCCCCC"/>
    <line x1="139.646" y1="259.076" x2="167.931" y2="230.792" stroke="#CCCCCC"/>
    <line x1="139.646" y1="266.076" x2="167.931" y2="237.792" stroke="#CCCCCC"/>
    <line x1="139.646" y1="273.076" x2="167.931" y2="244.792" stroke="#CCCCCC"/>
    <line x1="139.646" y1="280.076" x2="167.931" y2="251.792" stroke="#CCCCCC"/>
    </g>
    </g>
    <rect x="144.5" y="152.5" width="19" height="219" rx="9.5" stroke="#CCCCCC"/>
    <rect x="144" y="208" width="20" height="164" rx="10" fill="#AF6249"/>
    <g clip-path="url(#clip4_288_39387)">
    <rect x="240" y="152" width="20" height="220" rx="10" fill="white"/>
    <g clip-path="url(#clip5_288_39387)">
    <line x1="235.646" y1="286.787" x2="263.931" y2="258.503" stroke="#CCCCCC"/>
    <line x1="235.646" y1="293.928" x2="263.931" y2="265.643" stroke="#CCCCCC"/>
    <line x1="235.646" y1="300.928" x2="263.931" y2="272.643" stroke="#CCCCCC"/>
    <line x1="235.646" y1="154.076" x2="263.931" y2="125.792" stroke="#CCCCCC"/>
    <line x1="235.646" y1="307.928" x2="263.931" y2="279.643" stroke="#CCCCCC"/>
    <line x1="235.646" y1="161.076" x2="263.931" y2="132.792" stroke="#CCCCCC"/>
    <line x1="235.646" y1="314.928" x2="263.931" y2="286.643" stroke="#CCCCCC"/>
    <line x1="235.646" y1="168.076" x2="263.931" y2="139.792" stroke="#CCCCCC"/>
    <line x1="235.646" y1="321.928" x2="263.931" y2="293.643" stroke="#CCCCCC"/>
    <line x1="235.646" y1="175.076" x2="263.931" y2="146.792" stroke="#CCCCCC"/>
    <line x1="235.646" y1="328.928" x2="263.931" y2="300.643" stroke="#CCCCCC"/>
    <line x1="235.646" y1="182.076" x2="263.931" y2="153.792" stroke="#CCCCCC"/>
    <line x1="235.646" y1="335.928" x2="263.931" y2="307.643" stroke="#CCCCCC"/>
    <line x1="235.646" y1="189.076" x2="263.931" y2="160.792" stroke="#CCCCCC"/>
    <line x1="235.646" y1="342.928" x2="263.931" y2="314.643" stroke="#CCCCCC"/>
    <line x1="235.646" y1="196.076" x2="263.931" y2="167.792" stroke="#CCCCCC"/>
    <line x1="235.646" y1="349.928" x2="263.931" y2="321.643" stroke="#CCCCCC"/>
    <line x1="235.646" y1="203.076" x2="263.931" y2="174.792" stroke="#CCCCCC"/>
    <line x1="235.646" y1="356.928" x2="263.931" y2="328.643" stroke="#CCCCCC"/>
    <line x1="235.646" y1="210.076" x2="263.931" y2="181.792" stroke="#CCCCCC"/>
    <line x1="235.646" y1="363.928" x2="263.931" y2="335.643" stroke="#CCCCCC"/>
    <line x1="235.646" y1="217.076" x2="263.931" y2="188.792" stroke="#CCCCCC"/>
    <line x1="235.646" y1="370.928" x2="263.931" y2="342.643" stroke="#CCCCCC"/>
    <line x1="235.646" y1="224.076" x2="263.931" y2="195.792" stroke="#CCCCCC"/>
    <line x1="235.646" y1="377.928" x2="263.931" y2="349.643" stroke="#CCCCCC"/>
    <line x1="235.646" y1="231.076" x2="263.931" y2="202.792" stroke="#CCCCCC"/>
    <line x1="235.646" y1="384.928" x2="263.931" y2="356.643" stroke="#CCCCCC"/>
    <line x1="235.646" y1="238.076" x2="263.931" y2="209.792" stroke="#CCCCCC"/>
    <line x1="235.646" y1="391.928" x2="263.931" y2="363.643" stroke="#CCCCCC"/>
    <line x1="235.646" y1="245.076" x2="263.931" y2="216.792" stroke="#CCCCCC"/>
    <line x1="235.646" y1="398.928" x2="263.931" y2="370.643" stroke="#CCCCCC"/>
    <line x1="235.646" y1="252.076" x2="263.931" y2="223.792" stroke="#CCCCCC"/>
    <line x1="235.646" y1="259.076" x2="263.931" y2="230.792" stroke="#CCCCCC"/>
    <line x1="235.646" y1="266.076" x2="263.931" y2="237.792" stroke="#CCCCCC"/>
    <line x1="235.646" y1="273.076" x2="263.931" y2="244.792" stroke="#CCCCCC"/>
    <line x1="235.646" y1="280.076" x2="263.931" y2="251.792" stroke="#CCCCCC"/>
    </g>
    </g>
    <rect x="240.5" y="152.5" width="19" height="219" rx="9.5" stroke="#CCCCCC"/>
    <rect x="240" y="208" width="20" height="164" rx="10" fill="#AF6249"/>
    <g clip-path="url(#clip6_288_39387)">
    <rect x="336" y="152" width="20" height="220" rx="10" fill="white"/>
    <g clip-path="url(#clip7_288_39387)">
    <line x1="331.646" y1="286.787" x2="359.931" y2="258.503" stroke="#CCCCCC"/>
    <line x1="331.646" y1="293.928" x2="359.931" y2="265.643" stroke="#CCCCCC"/>
    <line x1="331.646" y1="300.928" x2="359.931" y2="272.643" stroke="#CCCCCC"/>
    <line x1="331.646" y1="154.076" x2="359.931" y2="125.792" stroke="#CCCCCC"/>
    <line x1="331.646" y1="307.928" x2="359.931" y2="279.643" stroke="#CCCCCC"/>
    <line x1="331.646" y1="161.076" x2="359.931" y2="132.792" stroke="#CCCCCC"/>
    <line x1="331.646" y1="314.928" x2="359.931" y2="286.643" stroke="#CCCCCC"/>
    <line x1="331.646" y1="168.076" x2="359.931" y2="139.792" stroke="#CCCCCC"/>
    <line x1="331.646" y1="321.928" x2="359.931" y2="293.643" stroke="#CCCCCC"/>
    <line x1="331.646" y1="175.076" x2="359.931" y2="146.792" stroke="#CCCCCC"/>
    <line x1="331.646" y1="328.928" x2="359.931" y2="300.643" stroke="#CCCCCC"/>
    <line x1="331.646" y1="182.076" x2="359.931" y2="153.792" stroke="#CCCCCC"/>
    <line x1="331.646" y1="335.928" x2="359.931" y2="307.643" stroke="#CCCCCC"/>
    <line x1="331.646" y1="189.076" x2="359.931" y2="160.792" stroke="#CCCCCC"/>
    <line x1="331.646" y1="342.928" x2="359.931" y2="314.643" stroke="#CCCCCC"/>
    <line x1="331.646" y1="196.076" x2="359.931" y2="167.792" stroke="#CCCCCC"/>
    <line x1="331.646" y1="349.928" x2="359.931" y2="321.643" stroke="#CCCCCC"/>
    <line x1="331.646" y1="203.076" x2="359.931" y2="174.792" stroke="#CCCCCC"/>
    <line x1="331.646" y1="356.928" x2="359.931" y2="328.643" stroke="#CCCCCC"/>
    <line x1="331.646" y1="210.076" x2="359.931" y2="181.792" stroke="#CCCCCC"/>
    <line x1="331.646" y1="363.928" x2="359.931" y2="335.643" stroke="#CCCCCC"/>
    <line x1="331.646" y1="217.076" x2="359.931" y2="188.792" stroke="#CCCCCC"/>
    <line x1="331.646" y1="370.928" x2="359.931" y2="342.643" stroke="#CCCCCC"/>
    <line x1="331.646" y1="224.076" x2="359.931" y2="195.792" stroke="#CCCCCC"/>
    <line x1="331.646" y1="377.928" x2="359.931" y2="349.643" stroke="#CCCCCC"/>
    <line x1="331.646" y1="231.076" x2="359.931" y2="202.792" stroke="#CCCCCC"/>
    <line x1="331.646" y1="384.928" x2="359.931" y2="356.643" stroke="#CCCCCC"/>
    <line x1="331.646" y1="238.076" x2="359.931" y2="209.792" stroke="#CCCCCC"/>
    <line x1="331.646" y1="391.928" x2="359.931" y2="363.643" stroke="#CCCCCC"/>
    <line x1="331.646" y1="245.076" x2="359.931" y2="216.792" stroke="#CCCCCC"/>
    <line x1="331.646" y1="398.928" x2="359.931" y2="370.643" stroke="#CCCCCC"/>
    <line x1="331.646" y1="252.076" x2="359.931" y2="223.792" stroke="#CCCCCC"/>
    <line x1="331.646" y1="259.076" x2="359.931" y2="230.792" stroke="#CCCCCC"/>
    <line x1="331.646" y1="266.076" x2="359.931" y2="237.792" stroke="#CCCCCC"/>
    <line x1="331.646" y1="273.076" x2="359.931" y2="244.792" stroke="#CCCCCC"/>
    <line x1="331.646" y1="280.076" x2="359.931" y2="251.792" stroke="#CCCCCC"/>
    </g>
    </g>
    <rect x="336.5" y="152.5" width="19" height="219" rx="9.5" stroke="#CCCCCC"/>
    <rect x="336" y="208" width="20" height="164" rx="10" fill="#AF6249"/>
    <g clip-path="url(#clip8_288_39387)">
    <rect x="432" y="152" width="20" height="220" rx="10" fill="white"/>
    <g clip-path="url(#clip9_288_39387)">
    <line x1="427.646" y1="286.787" x2="455.931" y2="258.503" stroke="#CCCCCC"/>
    <line x1="427.646" y1="293.928" x2="455.931" y2="265.643" stroke="#CCCCCC"/>
    <line x1="427.646" y1="300.928" x2="455.931" y2="272.643" stroke="#CCCCCC"/>
    <line x1="427.646" y1="154.076" x2="455.931" y2="125.792" stroke="#CCCCCC"/>
    <line x1="427.646" y1="307.928" x2="455.931" y2="279.643" stroke="#CCCCCC"/>
    <line x1="427.646" y1="161.076" x2="455.931" y2="132.792" stroke="#CCCCCC"/>
    <line x1="427.646" y1="314.928" x2="455.931" y2="286.643" stroke="#CCCCCC"/>
    <line x1="427.646" y1="168.076" x2="455.931" y2="139.792" stroke="#CCCCCC"/>
    <line x1="427.646" y1="321.928" x2="455.931" y2="293.643" stroke="#CCCCCC"/>
    <line x1="427.646" y1="175.076" x2="455.931" y2="146.792" stroke="#CCCCCC"/>
    <line x1="427.646" y1="328.928" x2="455.931" y2="300.643" stroke="#CCCCCC"/>
    <line x1="427.646" y1="182.076" x2="455.931" y2="153.792" stroke="#CCCCCC"/>
    <line x1="427.646" y1="335.928" x2="455.931" y2="307.643" stroke="#CCCCCC"/>
    <line x1="427.646" y1="189.076" x2="455.931" y2="160.792" stroke="#CCCCCC"/>
    <line x1="427.646" y1="342.928" x2="455.931" y2="314.643" stroke="#CCCCCC"/>
    <line x1="427.646" y1="196.076" x2="455.931" y2="167.792" stroke="#CCCCCC"/>
    <line x1="427.646" y1="349.928" x2="455.931" y2="321.643" stroke="#CCCCCC"/>
    <line x1="427.646" y1="203.076" x2="455.931" y2="174.792" stroke="#CCCCCC"/>
    <line x1="427.646" y1="356.928" x2="455.931" y2="328.643" stroke="#CCCCCC"/>
    <line x1="427.646" y1="210.076" x2="455.931" y2="181.792" stroke="#CCCCCC"/>
    <line x1="427.646" y1="363.928" x2="455.931" y2="335.643" stroke="#CCCCCC"/>
    <line x1="427.646" y1="217.076" x2="455.931" y2="188.792" stroke="#CCCCCC"/>
    <line x1="427.646" y1="370.928" x2="455.931" y2="342.643" stroke="#CCCCCC"/>
    <line x1="427.646" y1="224.076" x2="455.931" y2="195.792" stroke="#CCCCCC"/>
    <line x1="427.646" y1="377.928" x2="455.931" y2="349.643" stroke="#CCCCCC"/>
    <line x1="427.646" y1="231.076" x2="455.931" y2="202.792" stroke="#CCCCCC"/>
    <line x1="427.646" y1="384.928" x2="455.931" y2="356.643" stroke="#CCCCCC"/>
    <line x1="427.646" y1="238.076" x2="455.931" y2="209.792" stroke="#CCCCCC"/>
    <line x1="427.646" y1="391.928" x2="455.931" y2="363.643" stroke="#CCCCCC"/>
    <line x1="427.646" y1="245.076" x2="455.931" y2="216.792" stroke="#CCCCCC"/>
    <line x1="427.646" y1="398.928" x2="455.931" y2="370.643" stroke="#CCCCCC"/>
    <line x1="427.646" y1="252.076" x2="455.931" y2="223.792" stroke="#CCCCCC"/>
    <line x1="427.646" y1="259.076" x2="455.931" y2="230.792" stroke="#CCCCCC"/>
    <line x1="427.646" y1="266.076" x2="455.931" y2="237.792" stroke="#CCCCCC"/>
    <line x1="427.646" y1="273.076" x2="455.931" y2="244.792" stroke="#CCCCCC"/>
    <line x1="427.646" y1="280.076" x2="455.931" y2="251.792" stroke="#CCCCCC"/>
    </g>
    </g>
    <rect x="432.5" y="152.5" width="19" height="219" rx="9.5" stroke="#CCCCCC"/>
    <rect x="432" y="208" width="20" height="164" rx="10" fill="#AF6249"/>
    <g clip-path="url(#clip10_288_39387)">
    <rect x="528" y="152" width="20" height="220" rx="10" fill="white"/>
    <g clip-path="url(#clip11_288_39387)">
    <line x1="523.646" y1="286.787" x2="551.931" y2="258.503" stroke="#CCCCCC"/>
    <line x1="523.646" y1="293.928" x2="551.931" y2="265.643" stroke="#CCCCCC"/>
    <line x1="523.646" y1="300.928" x2="551.931" y2="272.643" stroke="#CCCCCC"/>
    <line x1="523.646" y1="154.076" x2="551.931" y2="125.792" stroke="#CCCCCC"/>
    <line x1="523.646" y1="307.928" x2="551.931" y2="279.643" stroke="#CCCCCC"/>
    <line x1="523.646" y1="161.076" x2="551.931" y2="132.792" stroke="#CCCCCC"/>
    <line x1="523.646" y1="314.928" x2="551.931" y2="286.643" stroke="#CCCCCC"/>
    <line x1="523.646" y1="168.076" x2="551.931" y2="139.792" stroke="#CCCCCC"/>
    <line x1="523.646" y1="321.928" x2="551.931" y2="293.643" stroke="#CCCCCC"/>
    <line x1="523.646" y1="175.076" x2="551.931" y2="146.792" stroke="#CCCCCC"/>
    <line x1="523.646" y1="328.928" x2="551.931" y2="300.643" stroke="#CCCCCC"/>
    <line x1="523.646" y1="182.076" x2="551.931" y2="153.792" stroke="#CCCCCC"/>
    <line x1="523.646" y1="335.928" x2="551.931" y2="307.643" stroke="#CCCCCC"/>
    <line x1="523.646" y1="189.076" x2="551.931" y2="160.792" stroke="#CCCCCC"/>
    <line x1="523.646" y1="342.928" x2="551.931" y2="314.643" stroke="#CCCCCC"/>
    <line x1="523.646" y1="196.076" x2="551.931" y2="167.792" stroke="#CCCCCC"/>
    <line x1="523.646" y1="349.928" x2="551.931" y2="321.643" stroke="#CCCCCC"/>
    <line x1="523.646" y1="203.076" x2="551.931" y2="174.792" stroke="#CCCCCC"/>
    <line x1="523.646" y1="356.928" x2="551.931" y2="328.643" stroke="#CCCCCC"/>
    <line x1="523.646" y1="210.076" x2="551.931" y2="181.792" stroke="#CCCCCC"/>
    <line x1="523.646" y1="363.928" x2="551.931" y2="335.643" stroke="#CCCCCC"/>
    <line x1="523.646" y1="217.076" x2="551.931" y2="188.792" stroke="#CCCCCC"/>
    <line x1="523.646" y1="370.928" x2="551.931" y2="342.643" stroke="#CCCCCC"/>
    <line x1="523.646" y1="224.076" x2="551.931" y2="195.792" stroke="#CCCCCC"/>
    <line x1="523.646" y1="377.928" x2="551.931" y2="349.643" stroke="#CCCCCC"/>
    <line x1="523.646" y1="231.076" x2="551.931" y2="202.792" stroke="#CCCCCC"/>
    <line x1="523.646" y1="384.928" x2="551.931" y2="356.643" stroke="#CCCCCC"/>
    <line x1="523.646" y1="238.076" x2="551.931" y2="209.792" stroke="#CCCCCC"/>
    <line x1="523.646" y1="391.928" x2="551.931" y2="363.643" stroke="#CCCCCC"/>
    <line x1="523.646" y1="245.076" x2="551.931" y2="216.792" stroke="#CCCCCC"/>
    <line x1="523.646" y1="398.928" x2="551.931" y2="370.643" stroke="#CCCCCC"/>
    <line x1="523.646" y1="252.076" x2="551.931" y2="223.792" stroke="#CCCCCC"/>
    <line x1="523.646" y1="259.076" x2="551.931" y2="230.792" stroke="#CCCCCC"/>
    <line x1="523.646" y1="266.076" x2="551.931" y2="237.792" stroke="#CCCCCC"/>
    <line x1="523.646" y1="273.076" x2="551.931" y2="244.792" stroke="#CCCCCC"/>
    <line x1="523.646" y1="280.076" x2="551.931" y2="251.792" stroke="#CCCCCC"/>
    </g>
    </g>
    <rect x="528.5" y="152.5" width="19" height="219" rx="9.5" stroke="#CCCCCC"/>
    <rect x="528" y="208" width="20" height="164" rx="10" fill="#AF6249"/>
    <g clip-path="url(#clip12_288_39387)">
    <rect x="624" y="152" width="20" height="220" rx="10" fill="white"/>
    <g clip-path="url(#clip13_288_39387)">
    <line x1="619.646" y1="286.787" x2="647.931" y2="258.503" stroke="#CCCCCC"/>
    <line x1="619.646" y1="293.928" x2="647.931" y2="265.643" stroke="#CCCCCC"/>
    <line x1="619.646" y1="300.928" x2="647.931" y2="272.643" stroke="#CCCCCC"/>
    <line x1="619.646" y1="154.076" x2="647.931" y2="125.792" stroke="#CCCCCC"/>
    <line x1="619.646" y1="307.928" x2="647.931" y2="279.643" stroke="#CCCCCC"/>
    <line x1="619.646" y1="161.076" x2="647.931" y2="132.792" stroke="#CCCCCC"/>
    <line x1="619.646" y1="314.928" x2="647.931" y2="286.643" stroke="#CCCCCC"/>
    <line x1="619.646" y1="168.076" x2="647.931" y2="139.792" stroke="#CCCCCC"/>
    <line x1="619.646" y1="321.928" x2="647.931" y2="293.643" stroke="#CCCCCC"/>
    <line x1="619.646" y1="175.076" x2="647.931" y2="146.792" stroke="#CCCCCC"/>
    <line x1="619.646" y1="328.928" x2="647.931" y2="300.643" stroke="#CCCCCC"/>
    <line x1="619.646" y1="182.076" x2="647.931" y2="153.792" stroke="#CCCCCC"/>
    <line x1="619.646" y1="335.928" x2="647.931" y2="307.643" stroke="#CCCCCC"/>
    <line x1="619.646" y1="189.076" x2="647.931" y2="160.792" stroke="#CCCCCC"/>
    <line x1="619.646" y1="342.928" x2="647.931" y2="314.643" stroke="#CCCCCC"/>
    <line x1="619.646" y1="196.076" x2="647.931" y2="167.792" stroke="#CCCCCC"/>
    <line x1="619.646" y1="349.928" x2="647.931" y2="321.643" stroke="#CCCCCC"/>
    <line x1="619.646" y1="203.076" x2="647.931" y2="174.792" stroke="#CCCCCC"/>
    <line x1="619.646" y1="356.928" x2="647.931" y2="328.643" stroke="#CCCCCC"/>
    <line x1="619.646" y1="210.076" x2="647.931" y2="181.792" stroke="#CCCCCC"/>
    <line x1="619.646" y1="363.928" x2="647.931" y2="335.643" stroke="#CCCCCC"/>
    <line x1="619.646" y1="217.076" x2="647.931" y2="188.792" stroke="#CCCCCC"/>
    <line x1="619.646" y1="370.928" x2="647.931" y2="342.643" stroke="#CCCCCC"/>
    <line x1="619.646" y1="224.076" x2="647.931" y2="195.792" stroke="#CCCCCC"/>
    <line x1="619.646" y1="377.928" x2="647.931" y2="349.643" stroke="#CCCCCC"/>
    <line x1="619.646" y1="231.076" x2="647.931" y2="202.792" stroke="#CCCCCC"/>
    <line x1="619.646" y1="384.928" x2="647.931" y2="356.643" stroke="#CCCCCC"/>
    <line x1="619.646" y1="238.076" x2="647.931" y2="209.792" stroke="#CCCCCC"/>
    <line x1="619.646" y1="391.928" x2="647.931" y2="363.643" stroke="#CCCCCC"/>
    <line x1="619.646" y1="245.076" x2="647.931" y2="216.792" stroke="#CCCCCC"/>
    <line x1="619.646" y1="398.928" x2="647.931" y2="370.643" stroke="#CCCCCC"/>
    <line x1="619.646" y1="252.076" x2="647.931" y2="223.792" stroke="#CCCCCC"/>
    <line x1="619.646" y1="259.076" x2="647.931" y2="230.792" stroke="#CCCCCC"/>
    <line x1="619.646" y1="266.076" x2="647.931" y2="237.792" stroke="#CCCCCC"/>
    <line x1="619.646" y1="273.076" x2="647.931" y2="244.792" stroke="#CCCCCC"/>
    <line x1="619.646" y1="280.076" x2="647.931" y2="251.792" stroke="#CCCCCC"/>
    </g>
    </g>
    <rect x="624.5" y="152.5" width="19" height="219" rx="9.5" stroke="#CCCCCC"/>
    <rect x="624" y="208" width="20" height="164" rx="10" fill="#AF6249"/>
    <g clip-path="url(#clip14_288_39387)">
    <rect x="720" y="152" width="20" height="220" rx="10" fill="white"/>
    <g clip-path="url(#clip15_288_39387)">
    <line x1="715.646" y1="286.787" x2="743.931" y2="258.503" stroke="#CCCCCC"/>
    <line x1="715.646" y1="293.928" x2="743.931" y2="265.643" stroke="#CCCCCC"/>
    <line x1="715.646" y1="300.928" x2="743.931" y2="272.643" stroke="#CCCCCC"/>
    <line x1="715.646" y1="154.076" x2="743.931" y2="125.792" stroke="#CCCCCC"/>
    <line x1="715.646" y1="307.928" x2="743.931" y2="279.643" stroke="#CCCCCC"/>
    <line x1="715.646" y1="161.076" x2="743.931" y2="132.792" stroke="#CCCCCC"/>
    <line x1="715.646" y1="314.928" x2="743.931" y2="286.643" stroke="#CCCCCC"/>
    <line x1="715.646" y1="168.076" x2="743.931" y2="139.792" stroke="#CCCCCC"/>
    <line x1="715.646" y1="321.928" x2="743.931" y2="293.643" stroke="#CCCCCC"/>
    <line x1="715.646" y1="175.076" x2="743.931" y2="146.792" stroke="#CCCCCC"/>
    <line x1="715.646" y1="328.928" x2="743.931" y2="300.643" stroke="#CCCCCC"/>
    <line x1="715.646" y1="182.076" x2="743.931" y2="153.792" stroke="#CCCCCC"/>
    <line x1="715.646" y1="335.928" x2="743.931" y2="307.643" stroke="#CCCCCC"/>
    <line x1="715.646" y1="189.076" x2="743.931" y2="160.792" stroke="#CCCCCC"/>
    <line x1="715.646" y1="342.928" x2="743.931" y2="314.643" stroke="#CCCCCC"/>
    <line x1="715.646" y1="196.076" x2="743.931" y2="167.792" stroke="#CCCCCC"/>
    <line x1="715.646" y1="349.928" x2="743.931" y2="321.643" stroke="#CCCCCC"/>
    <line x1="715.646" y1="203.076" x2="743.931" y2="174.792" stroke="#CCCCCC"/>
    <line x1="715.646" y1="356.928" x2="743.931" y2="328.643" stroke="#CCCCCC"/>
    <line x1="715.646" y1="210.076" x2="743.931" y2="181.792" stroke="#CCCCCC"/>
    <line x1="715.646" y1="363.928" x2="743.931" y2="335.643" stroke="#CCCCCC"/>
    <line x1="715.646" y1="217.076" x2="743.931" y2="188.792" stroke="#CCCCCC"/>
    <line x1="715.646" y1="370.928" x2="743.931" y2="342.643" stroke="#CCCCCC"/>
    <line x1="715.646" y1="224.076" x2="743.931" y2="195.792" stroke="#CCCCCC"/>
    <line x1="715.646" y1="377.928" x2="743.931" y2="349.643" stroke="#CCCCCC"/>
    <line x1="715.646" y1="231.076" x2="743.931" y2="202.792" stroke="#CCCCCC"/>
    <line x1="715.646" y1="384.928" x2="743.931" y2="356.643" stroke="#CCCCCC"/>
    <line x1="715.646" y1="238.076" x2="743.931" y2="209.792" stroke="#CCCCCC"/>
    <line x1="715.646" y1="391.928" x2="743.931" y2="363.643" stroke="#CCCCCC"/>
    <line x1="715.646" y1="245.076" x2="743.931" y2="216.792" stroke="#CCCCCC"/>
    <line x1="715.646" y1="398.928" x2="743.931" y2="370.643" stroke="#CCCCCC"/>
    <line x1="715.646" y1="252.076" x2="743.931" y2="223.792" stroke="#CCCCCC"/>
    <line x1="715.646" y1="259.076" x2="743.931" y2="230.792" stroke="#CCCCCC"/>
    <line x1="715.646" y1="266.076" x2="743.931" y2="237.792" stroke="#CCCCCC"/>
    <line x1="715.646" y1="273.076" x2="743.931" y2="244.792" stroke="#CCCCCC"/>
    <line x1="715.646" y1="280.076" x2="743.931" y2="251.792" stroke="#CCCCCC"/>
    </g>
    </g>
    <rect x="720.5" y="152.5" width="19" height="219" rx="9.5" stroke="#CCCCCC"/>
    <rect x="720" y="208" width="20" height="164" rx="10" fill="#AF6249"/>
    <g clip-path="url(#clip16_288_39387)">
    <rect x="816" y="152" width="20" height="220" rx="10" fill="white"/>
    <g clip-path="url(#clip17_288_39387)">
    <line x1="811.646" y1="286.787" x2="839.931" y2="258.503" stroke="#CCCCCC"/>
    <line x1="811.646" y1="293.928" x2="839.931" y2="265.643" stroke="#CCCCCC"/>
    <line x1="811.646" y1="300.928" x2="839.931" y2="272.643" stroke="#CCCCCC"/>
    <line x1="811.646" y1="154.076" x2="839.931" y2="125.792" stroke="#CCCCCC"/>
    <line x1="811.646" y1="307.928" x2="839.931" y2="279.643" stroke="#CCCCCC"/>
    <line x1="811.646" y1="161.076" x2="839.931" y2="132.792" stroke="#CCCCCC"/>
    <line x1="811.646" y1="314.928" x2="839.931" y2="286.643" stroke="#CCCCCC"/>
    <line x1="811.646" y1="168.076" x2="839.931" y2="139.792" stroke="#CCCCCC"/>
    <line x1="811.646" y1="321.928" x2="839.931" y2="293.643" stroke="#CCCCCC"/>
    <line x1="811.646" y1="175.076" x2="839.931" y2="146.792" stroke="#CCCCCC"/>
    <line x1="811.646" y1="328.928" x2="839.931" y2="300.643" stroke="#CCCCCC"/>
    <line x1="811.646" y1="182.076" x2="839.931" y2="153.792" stroke="#CCCCCC"/>
    <line x1="811.646" y1="335.928" x2="839.931" y2="307.643" stroke="#CCCCCC"/>
    <line x1="811.646" y1="189.076" x2="839.931" y2="160.792" stroke="#CCCCCC"/>
    <line x1="811.646" y1="342.928" x2="839.931" y2="314.643" stroke="#CCCCCC"/>
    <line x1="811.646" y1="196.076" x2="839.931" y2="167.792" stroke="#CCCCCC"/>
    <line x1="811.646" y1="349.928" x2="839.931" y2="321.643" stroke="#CCCCCC"/>
    <line x1="811.646" y1="203.076" x2="839.931" y2="174.792" stroke="#CCCCCC"/>
    <line x1="811.646" y1="356.928" x2="839.931" y2="328.643" stroke="#CCCCCC"/>
    <line x1="811.646" y1="210.076" x2="839.931" y2="181.792" stroke="#CCCCCC"/>
    <line x1="811.646" y1="363.928" x2="839.931" y2="335.643" stroke="#CCCCCC"/>
    <line x1="811.646" y1="217.076" x2="839.931" y2="188.792" stroke="#CCCCCC"/>
    <line x1="811.646" y1="370.928" x2="839.931" y2="342.643" stroke="#CCCCCC"/>
    <line x1="811.646" y1="224.076" x2="839.931" y2="195.792" stroke="#CCCCCC"/>
    <line x1="811.646" y1="377.928" x2="839.931" y2="349.643" stroke="#CCCCCC"/>
    <line x1="811.646" y1="231.076" x2="839.931" y2="202.792" stroke="#CCCCCC"/>
    <line x1="811.646" y1="384.928" x2="839.931" y2="356.643" stroke="#CCCCCC"/>
    <line x1="811.646" y1="238.076" x2="839.931" y2="209.792" stroke="#CCCCCC"/>
    <line x1="811.646" y1="391.928" x2="839.931" y2="363.643" stroke="#CCCCCC"/>
    <line x1="811.646" y1="245.076" x2="839.931" y2="216.792" stroke="#CCCCCC"/>
    <line x1="811.646" y1="398.928" x2="839.931" y2="370.643" stroke="#CCCCCC"/>
    <line x1="811.646" y1="252.076" x2="839.931" y2="223.792" stroke="#CCCCCC"/>
    <line x1="811.646" y1="259.076" x2="839.931" y2="230.792" stroke="#CCCCCC"/>
    <line x1="811.646" y1="266.076" x2="839.931" y2="237.792" stroke="#CCCCCC"/>
    <line x1="811.646" y1="273.076" x2="839.931" y2="244.792" stroke="#CCCCCC"/>
    <line x1="811.646" y1="280.076" x2="839.931" y2="251.792" stroke="#CCCCCC"/>
    </g>
    </g>
    <rect x="816.5" y="152.5" width="19" height="219" rx="9.5" stroke="#CCCCCC"/>
    <rect x="816" y="208" width="20" height="164" rx="10" fill="#AF6249"/>
    <g clip-path="url(#clip18_288_39387)">
    <rect x="912" y="152" width="20" height="220" rx="10" fill="white"/>
    <g clip-path="url(#clip19_288_39387)">
    <line x1="907.646" y1="286.787" x2="935.931" y2="258.503" stroke="#CCCCCC"/>
    <line x1="907.646" y1="293.928" x2="935.931" y2="265.643" stroke="#CCCCCC"/>
    <line x1="907.646" y1="300.928" x2="935.931" y2="272.643" stroke="#CCCCCC"/>
    <line x1="907.646" y1="154.076" x2="935.931" y2="125.792" stroke="#CCCCCC"/>
    <line x1="907.646" y1="307.928" x2="935.931" y2="279.643" stroke="#CCCCCC"/>
    <line x1="907.646" y1="161.076" x2="935.931" y2="132.792" stroke="#CCCCCC"/>
    <line x1="907.646" y1="314.928" x2="935.931" y2="286.643" stroke="#CCCCCC"/>
    <line x1="907.646" y1="168.076" x2="935.931" y2="139.792" stroke="#CCCCCC"/>
    <line x1="907.646" y1="321.928" x2="935.931" y2="293.643" stroke="#CCCCCC"/>
    <line x1="907.646" y1="175.076" x2="935.931" y2="146.792" stroke="#CCCCCC"/>
    <line x1="907.646" y1="328.928" x2="935.931" y2="300.643" stroke="#CCCCCC"/>
    <line x1="907.646" y1="182.076" x2="935.931" y2="153.792" stroke="#CCCCCC"/>
    <line x1="907.646" y1="335.928" x2="935.931" y2="307.643" stroke="#CCCCCC"/>
    <line x1="907.646" y1="189.076" x2="935.931" y2="160.792" stroke="#CCCCCC"/>
    <line x1="907.646" y1="342.928" x2="935.931" y2="314.643" stroke="#CCCCCC"/>
    <line x1="907.646" y1="196.076" x2="935.931" y2="167.792" stroke="#CCCCCC"/>
    <line x1="907.646" y1="349.928" x2="935.931" y2="321.643" stroke="#CCCCCC"/>
    <line x1="907.646" y1="203.076" x2="935.931" y2="174.792" stroke="#CCCCCC"/>
    <line x1="907.646" y1="356.928" x2="935.931" y2="328.643" stroke="#CCCCCC"/>
    <line x1="907.646" y1="210.076" x2="935.931" y2="181.792" stroke="#CCCCCC"/>
    <line x1="907.646" y1="363.928" x2="935.931" y2="335.643" stroke="#CCCCCC"/>
    <line x1="907.646" y1="217.076" x2="935.931" y2="188.792" stroke="#CCCCCC"/>
    <line x1="907.646" y1="370.928" x2="935.931" y2="342.643" stroke="#CCCCCC"/>
    <line x1="907.646" y1="224.076" x2="935.931" y2="195.792" stroke="#CCCCCC"/>
    <line x1="907.646" y1="377.928" x2="935.931" y2="349.643" stroke="#CCCCCC"/>
    <line x1="907.646" y1="231.076" x2="935.931" y2="202.792" stroke="#CCCCCC"/>
    <line x1="907.646" y1="384.928" x2="935.931" y2="356.643" stroke="#CCCCCC"/>
    <line x1="907.646" y1="238.076" x2="935.931" y2="209.792" stroke="#CCCCCC"/>
    <line x1="907.646" y1="391.928" x2="935.931" y2="363.643" stroke="#CCCCCC"/>
    <line x1="907.646" y1="245.076" x2="935.931" y2="216.792" stroke="#CCCCCC"/>
    <line x1="907.646" y1="398.928" x2="935.931" y2="370.643" stroke="#CCCCCC"/>
    <line x1="907.646" y1="252.076" x2="935.931" y2="223.792" stroke="#CCCCCC"/>
    <line x1="907.646" y1="259.076" x2="935.931" y2="230.792" stroke="#CCCCCC"/>
    <line x1="907.646" y1="266.076" x2="935.931" y2="237.792" stroke="#CCCCCC"/>
    <line x1="907.646" y1="273.076" x2="935.931" y2="244.792" stroke="#CCCCCC"/>
    <line x1="907.646" y1="280.076" x2="935.931" y2="251.792" stroke="#CCCCCC"/>
    </g>
    </g>
    <rect x="912.5" y="152.5" width="19" height="219" rx="9.5" stroke="#CCCCCC"/>
    <rect x="912" y="208" width="20" height="164" rx="10" fill="#AF6249"/>
    <path d="M59.2526 424.504V435H57.9726V425.976L55.9406 427.24L55.4286 426.248L58.2606 424.504H59.2526Z" fill="black"/>
    <path d="M150.779 433.416L151.563 432.584C152.107 433.288 152.795 434.008 154.155 434.008C155.643 434.008 156.571 433.24 156.571 431.944C156.571 430.792 155.819 429.992 154.203 429.992H153.307V428.888H154.203C155.467 428.888 156.075 428.072 156.075 427.192C156.075 426.04 155.259 425.496 154.219 425.496C153.195 425.496 152.475 425.944 152.059 426.68L151.275 425.928C151.835 425.048 152.811 424.328 154.219 424.328C156.155 424.328 157.403 425.352 157.403 427.144C157.403 428.088 156.811 428.936 155.899 429.352C157.163 429.688 157.899 430.728 157.899 432.008C157.899 433.912 156.395 435.176 154.155 435.176C152.395 435.176 151.387 434.184 150.779 433.416Z" fill="black"/>
    <path d="M253.599 425.992L252.703 426.696C252.239 425.976 251.487 425.496 250.559 425.496C248.863 425.496 247.679 426.872 247.551 429.416C248.111 428.536 249.023 427.896 250.335 427.896C252.223 427.896 253.775 429.416 253.775 431.528C253.775 433.64 252.159 435.176 250.143 435.176C247.615 435.176 246.303 433.128 246.303 430.008C246.303 426.456 247.967 424.328 250.559 424.328C251.983 424.328 253.023 425.096 253.599 425.992ZM247.871 431.544C247.871 432.984 248.767 434.008 250.143 434.008C251.535 434.008 252.447 432.984 252.447 431.544C252.447 430.072 251.535 429.064 250.143 429.064C248.767 429.064 247.871 430.072 247.871 431.544Z" fill="black"/>
    <path d="M342.391 433.512L343.287 432.808C343.751 433.528 344.503 434.008 345.431 434.008C347.127 434.008 348.311 432.632 348.439 430.088C347.879 430.968 346.967 431.608 345.655 431.608C343.767 431.608 342.215 430.088 342.215 427.976C342.215 425.864 343.831 424.328 345.847 424.328C348.375 424.328 349.687 426.376 349.687 429.496C349.687 433.048 348.023 435.176 345.431 435.176C344.007 435.176 342.967 434.408 342.391 433.512ZM348.119 427.96C348.119 426.52 347.223 425.496 345.847 425.496C344.455 425.496 343.543 426.52 343.543 427.96C343.543 429.432 344.455 430.44 345.847 430.44C347.223 430.44 348.119 429.432 348.119 427.96Z" fill="black"/>
    <path d="M439.143 424.504V435H437.863V425.976L435.831 427.24L435.319 426.248L438.151 424.504H439.143ZM442.638 427.224L441.582 426.712C441.902 425.624 442.83 424.328 444.702 424.328C446.734 424.328 447.966 425.608 447.966 427.48C447.966 430.68 444.03 432.12 443.102 433.864H448.094V435H441.518V434.056C442.734 431.336 446.638 430.136 446.638 427.528C446.638 426.296 446.03 425.496 444.67 425.496C443.646 425.496 442.958 426.088 442.638 427.224Z" fill="black"/>
    <path d="M534.581 424.504V435H533.301V425.976L531.269 427.24L530.757 426.248L533.589 424.504H534.581ZM539.052 429.272C538.092 428.824 537.644 428.04 537.644 427.048C537.644 425.56 538.78 424.328 540.86 424.328C542.94 424.328 544.076 425.56 544.076 427.048C544.076 428.04 543.628 428.824 542.668 429.272C543.836 429.592 544.668 430.712 544.668 432.024C544.668 433.848 543.324 435.176 540.86 435.176C538.396 435.176 537.052 433.848 537.052 432.024C537.052 430.712 537.868 429.592 539.052 429.272ZM540.86 434.008C542.476 434.008 543.34 433.144 543.34 431.944C543.34 430.744 542.476 429.864 540.86 429.864C539.244 429.864 538.38 430.744 538.38 431.944C538.38 433.144 539.244 434.008 540.86 434.008ZM540.86 428.728C541.916 428.728 542.748 428.168 542.748 427.128C542.748 426.088 541.916 425.496 540.86 425.496C539.804 425.496 538.972 426.088 538.972 427.128C538.972 428.168 539.804 428.728 540.86 428.728Z" fill="black"/>
    <path d="M627.326 427.224L626.27 426.712C626.59 425.624 627.518 424.328 629.39 424.328C631.422 424.328 632.654 425.608 632.654 427.48C632.654 430.68 628.718 432.12 627.789 433.864H632.782V435H626.206V434.056C627.422 431.336 631.326 430.136 631.326 427.528C631.326 426.296 630.718 425.496 629.358 425.496C628.334 425.496 627.646 426.088 627.326 427.224ZM640.364 431.048H641.996V432.168H640.364V435H639.084V432.168H633.964V431.24L638.732 424.504H640.364V431.048ZM639.084 431.048V427.496C639.084 426.792 639.1 426.392 639.18 425.848H639.132C639.052 426.072 638.684 426.648 638.268 427.24L635.564 431.048H639.084Z" fill="black"/>
    <path d="M721.638 433.416L722.422 432.584C722.966 433.288 723.654 434.008 725.014 434.008C726.502 434.008 727.43 433.24 727.43 431.944C727.43 430.792 726.678 429.992 725.062 429.992H724.166V428.888H725.062C726.326 428.888 726.934 428.072 726.934 427.192C726.934 426.04 726.118 425.496 725.078 425.496C724.054 425.496 723.334 425.944 722.918 426.68L722.134 425.928C722.694 425.048 723.67 424.328 725.078 424.328C727.014 424.328 728.262 425.352 728.262 427.144C728.262 428.088 727.67 428.936 726.758 429.352C728.022 429.688 728.758 430.728 728.758 432.008C728.758 433.912 727.254 435.176 725.014 435.176C723.254 435.176 722.246 434.184 721.638 433.416ZM737.881 425.992L736.985 426.696C736.521 425.976 735.769 425.496 734.841 425.496C733.145 425.496 731.961 426.872 731.833 429.416C732.393 428.536 733.305 427.896 734.617 427.896C736.505 427.896 738.057 429.416 738.057 431.528C738.057 433.64 736.441 435.176 734.425 435.176C731.897 435.176 730.585 433.128 730.585 430.008C730.585 426.456 732.249 424.328 734.841 424.328C736.265 424.328 737.305 425.096 737.881 425.992ZM732.153 431.544C732.153 432.984 733.049 434.008 734.425 434.008C735.817 434.008 736.729 432.984 736.729 431.544C736.729 430.072 735.817 429.064 734.425 429.064C733.049 429.064 732.153 430.072 732.153 431.544Z" fill="black"/>
    <path d="M824.161 431.048H825.793V432.168H824.161V435H822.881V432.168H817.761V431.24L822.529 424.504H824.161V431.048ZM822.881 431.048V427.496C822.881 426.792 822.897 426.392 822.977 425.848H822.929C822.849 426.072 822.481 426.648 822.065 427.24L819.361 431.048H822.881ZM829.223 429.272C828.263 428.824 827.815 428.04 827.815 427.048C827.815 425.56 828.951 424.328 831.031 424.328C833.111 424.328 834.247 425.56 834.247 427.048C834.247 428.04 833.799 428.824 832.839 429.272C834.007 429.592 834.839 430.712 834.839 432.024C834.839 433.848 833.495 435.176 831.031 435.176C828.567 435.176 827.223 433.848 827.223 432.024C827.223 430.712 828.039 429.592 829.223 429.272ZM831.031 434.008C832.647 434.008 833.511 433.144 833.511 431.944C833.511 430.744 832.647 429.864 831.031 429.864C829.415 429.864 828.551 430.744 828.551 431.944C828.551 433.144 829.415 434.008 831.031 434.008ZM831.031 428.728C832.087 428.728 832.919 428.168 832.919 427.128C832.919 426.088 832.087 425.496 831.031 425.496C829.975 425.496 829.143 426.088 829.143 427.128C829.143 428.168 829.975 428.728 831.031 428.728Z" fill="black"/>
    <path d="M920.732 425.992L919.836 426.696C919.372 425.976 918.62 425.496 917.692 425.496C915.996 425.496 914.812 426.872 914.684 429.416C915.244 428.536 916.156 427.896 917.468 427.896C919.356 427.896 920.908 429.416 920.908 431.528C920.908 433.64 919.292 435.176 917.276 435.176C914.748 435.176 913.436 433.128 913.436 430.008C913.436 426.456 915.1 424.328 917.692 424.328C919.116 424.328 920.156 425.096 920.732 425.992ZM915.004 431.544C915.004 432.984 915.9 434.008 917.276 434.008C918.668 434.008 919.58 432.984 919.58 431.544C919.58 430.072 918.668 429.064 917.276 429.064C915.9 429.064 915.004 430.072 915.004 431.544ZM926.637 435.176C924.093 435.176 922.717 432.968 922.717 429.752C922.717 426.536 924.093 424.328 926.637 424.328C929.181 424.328 930.557 426.536 930.557 429.752C930.557 432.968 929.181 435.176 926.637 435.176ZM926.637 434.008C928.445 434.008 929.229 432.248 929.229 429.752C929.229 427.256 928.445 425.496 926.637 425.496C924.829 425.496 924.045 427.256 924.045 429.752C924.045 432.248 924.829 434.008 926.637 434.008Z" fill="black"/>
    <g clip-path="url(#clip20_288_39387)">
    <path d="M21.65 522.652L18.86 519.862C18.54 519.542 18 519.762 18 520.212V522.002H4C3.45 522.002 3 522.452 3 523.002C3 523.552 3.45 524.002 4 524.002H18V525.792C18 526.242 18.54 526.462 18.85 526.142L21.64 523.352C21.84 523.162 21.84 522.842 21.65 522.652Z" fill="black"/>
    </g>
    <path d="M33.8891 528.5V517.62H35.2171V528.5H33.8891ZM38.1323 528.5V520.564H39.3643V521.652C39.7803 521.028 40.6763 520.388 41.7803 520.388C43.6203 520.388 44.6603 521.572 44.6603 523.556V528.5H43.3803V523.684C43.3803 522.26 42.6763 521.524 41.4603 521.524C40.3883 521.524 39.6363 522.196 39.4123 522.948V528.5H38.1323ZM52.0588 521.684L51.2268 522.404C50.7628 521.748 50.1708 521.476 49.4988 521.476C48.7148 521.476 48.2988 521.988 48.2988 522.564C48.2988 523.156 48.6668 523.508 49.3228 523.652L49.9948 523.796C51.4988 524.116 52.3948 524.804 52.3948 526.196C52.3948 527.476 51.2908 528.676 49.4028 528.676C48.0108 528.676 46.9868 527.892 46.4108 527.028L47.2428 526.26C47.7068 526.964 48.4428 527.588 49.4348 527.588C50.4428 527.588 51.0988 527.076 51.0988 526.276C51.0988 525.54 50.5068 525.188 49.6268 524.996L48.9548 524.852C47.7068 524.58 47.0028 523.844 47.0028 522.692C47.0028 521.476 47.9148 520.388 49.5468 520.388C50.6508 520.388 51.5308 520.9 52.0588 521.684ZM54.8642 525.972V521.652H53.4402V520.564H54.8802V518.5H56.1442V520.564H57.9202V521.652H56.1442V525.972C56.1442 527.06 56.6242 527.428 57.6962 527.428H57.9202V528.516C57.7602 528.548 57.5522 528.564 57.3442 528.564C55.7122 528.564 54.8642 527.764 54.8642 525.972ZM64.3791 524.388V523.588C64.3791 522.436 63.7551 521.524 62.4431 521.524C61.4991 521.524 61.0191 521.86 60.4431 522.42L59.7071 521.588C60.2831 520.98 61.0831 520.388 62.4751 520.388C64.5551 520.388 65.6591 521.652 65.6591 523.492V528.5H64.4271V527.716C63.8351 528.356 63.0191 528.676 62.1711 528.676C60.3791 528.676 59.2431 527.508 59.2431 526.068C59.2431 524.628 60.3791 523.46 62.1711 523.46C63.0031 523.46 63.8031 523.78 64.3791 524.388ZM64.3791 526.612V525.524C63.9631 524.82 63.0671 524.532 62.3471 524.532C61.0511 524.532 60.5391 525.348 60.5391 526.068C60.5391 526.788 61.0511 527.604 62.3471 527.604C63.0671 527.604 63.9631 527.332 64.3791 526.612ZM68.1948 517.14H69.4748V528.5H68.1948V517.14ZM72.1011 517.14H73.3811V528.5H72.1011V517.14ZM76.0073 528.5V520.564H77.2393V521.652C77.6553 521.028 78.5513 520.388 79.6553 520.388C80.8233 520.388 81.6553 520.884 82.0873 521.796C82.4713 521.124 83.4633 520.388 84.7113 520.388C86.5353 520.388 87.5593 521.556 87.5593 523.524V528.5H86.2793V523.652C86.2793 522.244 85.6233 521.524 84.4713 521.524C83.3993 521.524 82.6473 522.196 82.4233 522.948V528.5H81.1433V523.652C81.1433 522.244 80.4873 521.524 79.3353 521.524C78.2633 521.524 77.5113 522.196 77.2873 522.948V528.5H76.0073ZM96.5974 524.932H90.9334C91.0454 526.58 91.9094 527.54 93.3174 527.54C94.2934 527.54 95.0934 527.124 95.5574 526.372L96.4214 527.092C95.8294 527.988 94.8054 528.676 93.2374 528.676C90.9814 528.676 89.5894 527.076 89.5894 524.532C89.5894 522.004 91.0134 520.388 93.1894 520.388C95.3174 520.388 96.6454 522.052 96.6454 524.308C96.6454 524.516 96.6294 524.74 96.5974 524.932ZM90.9494 523.844H95.3014C95.2214 522.42 94.3894 521.524 93.1894 521.524C91.9734 521.524 91.1414 522.356 90.9494 523.844ZM98.6948 528.5V520.564H99.9268V521.652C100.343 521.028 101.239 520.388 102.343 520.388C104.183 520.388 105.223 521.572 105.223 523.556V528.5H103.943V523.684C103.943 522.26 103.239 521.524 102.023 521.524C100.951 521.524 100.199 522.196 99.9748 522.948V528.5H98.6948ZM108.239 525.972V521.652H106.815V520.564H108.255V518.5H109.519V520.564H111.295V521.652H109.519V525.972C109.519 527.06 109.999 527.428 111.071 527.428H111.295V528.516C111.135 528.548 110.927 528.564 110.719 528.564C109.087 528.564 108.239 527.764 108.239 525.972ZM116.992 531.508V520.564H118.224V521.7C118.8 520.9 119.728 520.388 120.752 520.388C122.864 520.388 124.208 522.084 124.208 524.532C124.208 526.98 122.864 528.676 120.752 528.676C119.76 528.676 118.848 528.196 118.272 527.444V531.508H116.992ZM118.272 522.964V526.116C118.64 526.964 119.488 527.54 120.48 527.54C121.984 527.54 122.88 526.404 122.88 524.532C122.88 522.66 121.984 521.524 120.48 521.524C119.488 521.524 118.64 522.116 118.272 522.964ZM132.847 524.932H127.183C127.295 526.58 128.159 527.54 129.567 527.54C130.543 527.54 131.343 527.124 131.807 526.372L132.671 527.092C132.079 527.988 131.055 528.676 129.487 528.676C127.231 528.676 125.839 527.076 125.839 524.532C125.839 522.004 127.263 520.388 129.439 520.388C131.567 520.388 132.895 522.052 132.895 524.308C132.895 524.516 132.879 524.74 132.847 524.932ZM127.199 523.844H131.551C131.471 522.42 130.639 521.524 129.439 521.524C128.223 521.524 127.391 522.356 127.199 523.844ZM134.945 528.5V520.564H136.177V521.988C136.609 521.108 137.393 520.388 138.529 520.388C138.641 520.388 138.753 520.388 138.865 520.42V521.716H138.433C137.377 521.716 136.609 522.292 136.225 523.492V528.5H134.945ZM140.554 520.564H141.834V528.5H140.554V520.564ZM140.394 517.14H141.994V518.74H140.394V517.14ZM147.692 527.54C149.164 527.54 150.108 526.42 150.108 524.532C150.108 522.644 149.164 521.524 147.692 521.524C146.22 521.524 145.276 522.644 145.276 524.532C145.276 526.42 146.22 527.54 147.692 527.54ZM147.692 520.388C149.964 520.388 151.436 522.084 151.436 524.532C151.436 526.98 149.964 528.676 147.692 528.676C145.42 528.676 143.948 526.98 143.948 524.532C143.948 522.084 145.42 520.388 147.692 520.388ZM159.042 528.5V527.38C158.45 528.18 157.522 528.676 156.514 528.676C154.402 528.676 153.058 526.98 153.058 524.532C153.058 522.084 154.402 520.388 156.514 520.388C157.506 520.388 158.402 520.868 158.994 521.636V517.14H160.274V528.5H159.042ZM158.994 526.116V522.964C158.626 522.116 157.778 521.524 156.786 521.524C155.282 521.524 154.386 522.66 154.386 524.532C154.386 526.404 155.282 527.54 156.786 527.54C157.778 527.54 158.626 526.964 158.994 526.116ZM169.496 517.22L170.136 518.02C168.68 519.22 167.496 521.124 167.496 524.324C167.496 527.524 168.68 529.428 170.136 530.628L169.496 531.428C168.024 530.34 166.2 528.18 166.2 524.324C166.2 520.468 168.024 518.308 169.496 517.22ZM171.398 528.5V520.564H172.63V521.652C173.046 521.028 173.942 520.388 175.046 520.388C176.214 520.388 177.046 520.884 177.478 521.796C177.862 521.124 178.854 520.388 180.102 520.388C181.926 520.388 182.95 521.556 182.95 523.524V528.5H181.67V523.652C181.67 522.244 181.014 521.524 179.862 521.524C178.79 521.524 178.038 522.196 177.814 522.948V528.5H176.534V523.652C176.534 522.244 175.878 521.524 174.726 521.524C173.654 521.524 172.902 522.196 172.678 522.948V528.5H171.398ZM188.708 527.54C190.18 527.54 191.124 526.42 191.124 524.532C191.124 522.644 190.18 521.524 188.708 521.524C187.236 521.524 186.292 522.644 186.292 524.532C186.292 526.42 187.236 527.54 188.708 527.54ZM188.708 520.388C190.98 520.388 192.452 522.084 192.452 524.532C192.452 526.98 190.98 528.676 188.708 528.676C186.436 528.676 184.964 526.98 184.964 524.532C184.964 522.084 186.436 520.388 188.708 520.388ZM194.57 528.5V520.564H195.802V521.652C196.218 521.028 197.114 520.388 198.218 520.388C200.058 520.388 201.098 521.572 201.098 523.556V528.5H199.818V523.684C199.818 522.26 199.114 521.524 197.898 521.524C196.826 521.524 196.074 522.196 195.85 522.948V528.5H194.57ZM204.114 525.972V521.652H202.69V520.564H204.13V518.5H205.394V520.564H207.17V521.652H205.394V525.972C205.394 527.06 205.874 527.428 206.946 527.428H207.17V528.516C207.01 528.548 206.802 528.564 206.594 528.564C204.962 528.564 204.114 527.764 204.114 525.972ZM209.101 528.5V517.14H210.381V521.572C210.813 520.98 211.693 520.388 212.749 520.388C214.589 520.388 215.629 521.572 215.629 523.556V528.5H214.349V523.684C214.349 522.26 213.645 521.524 212.429 521.524C211.357 521.524 210.605 522.196 210.381 522.948V528.5H209.101ZM223.028 521.684L222.196 522.404C221.732 521.748 221.14 521.476 220.468 521.476C219.684 521.476 219.268 521.988 219.268 522.564C219.268 523.156 219.636 523.508 220.292 523.652L220.964 523.796C222.468 524.116 223.364 524.804 223.364 526.196C223.364 527.476 222.26 528.676 220.372 528.676C218.98 528.676 217.956 527.892 217.38 527.028L218.212 526.26C218.676 526.964 219.412 527.588 220.404 527.588C221.412 527.588 222.068 527.076 222.068 526.276C222.068 525.54 221.476 525.188 220.596 524.996L219.924 524.852C218.676 524.58 217.972 523.844 217.972 522.692C217.972 521.476 218.884 520.388 220.516 520.388C221.62 520.388 222.5 520.9 223.028 521.684ZM224.563 531.428L223.923 530.628C225.379 529.428 226.563 527.524 226.563 524.324C226.563 521.124 225.379 519.22 223.923 518.02L224.563 517.22C226.035 518.308 227.859 520.468 227.859 524.324C227.859 528.18 226.035 530.34 224.563 531.428Z" fill="black"/>
    <g clip-path="url(#clip21_288_39387)">
    <rect x="602" y="513" width="20" height="20" rx="10" fill="white"/>
    <line x1="597.646" y1="516.936" x2="625.931" y2="488.651" stroke="#CCCCCC"/>
    <line x1="597.646" y1="523.936" x2="625.931" y2="495.651" stroke="#CCCCCC"/>
    <line x1="597.646" y1="530.936" x2="625.931" y2="502.651" stroke="#CCCCCC"/>
    <line x1="597.646" y1="537.936" x2="625.931" y2="509.651" stroke="#CCCCCC"/>
    <line x1="597.646" y1="544.936" x2="625.931" y2="516.651" stroke="#CCCCCC"/>
    <line x1="597.646" y1="551.936" x2="625.931" y2="523.651" stroke="#CCCCCC"/>
    <line x1="597.646" y1="558.936" x2="625.931" y2="530.651" stroke="#CCCCCC"/>
    </g>
    <rect x="602.5" y="513.5" width="19" height="19" rx="9.5" stroke="#CCCCCC"/>
    <path d="M602 523H622V523C622 528.523 617.523 533 612 533V533C606.477 533 602 528.523 602 523V523Z" fill="#AF6249"/>
    <path d="M640.538 528.5L637.866 521.748C637.498 520.836 637.194 519.956 637.146 519.716H637.098C637.13 519.94 637.162 520.916 637.162 521.876V528.5H635.834V517.62H637.53L640.698 525.508C640.938 526.084 641.146 526.66 641.146 526.9H641.194C641.194 526.66 641.402 526.084 641.626 525.508L644.794 517.62H646.49V528.5H645.162V521.876C645.162 520.916 645.194 519.94 645.226 519.716H645.178C645.13 519.956 644.826 520.836 644.458 521.748L641.786 528.5H640.538ZM652.544 527.54C654.016 527.54 654.96 526.42 654.96 524.532C654.96 522.644 654.016 521.524 652.544 521.524C651.072 521.524 650.128 522.644 650.128 524.532C650.128 526.42 651.072 527.54 652.544 527.54ZM652.544 520.388C654.816 520.388 656.288 522.084 656.288 524.532C656.288 526.98 654.816 528.676 652.544 528.676C650.272 528.676 648.8 526.98 648.8 524.532C648.8 522.084 650.272 520.388 652.544 520.388ZM658.406 528.5V520.564H659.638V521.652C660.054 521.028 660.95 520.388 662.054 520.388C663.894 520.388 664.934 521.572 664.934 523.556V528.5H663.654V523.684C663.654 522.26 662.95 521.524 661.734 521.524C660.662 521.524 659.91 522.196 659.686 522.948V528.5H658.406ZM667.95 525.972V521.652H666.526V520.564H667.966V518.5H669.23V520.564H671.006V521.652H669.23V525.972C669.23 527.06 669.71 527.428 670.782 527.428H671.006V528.516C670.846 528.548 670.638 528.564 670.43 528.564C668.798 528.564 667.95 527.764 667.95 525.972ZM672.937 528.5V517.14H674.217V521.572C674.649 520.98 675.529 520.388 676.585 520.388C678.425 520.388 679.465 521.572 679.465 523.556V528.5H678.185V523.684C678.185 522.26 677.481 521.524 676.265 521.524C675.193 521.524 674.441 522.196 674.217 522.948V528.5H672.937ZM682 517.14H683.28V528.5H682V517.14ZM686.466 531.508L688.098 527.7L685.026 520.564H686.402L688.226 525.108C688.466 525.7 688.674 526.292 688.674 526.532H688.722C688.802 526.116 688.93 525.7 689.154 525.108L690.85 520.564H692.242L687.858 531.508H686.466ZM697.406 531.508V520.564H698.638V521.7C699.214 520.9 700.142 520.388 701.166 520.388C703.278 520.388 704.622 522.084 704.622 524.532C704.622 526.98 703.278 528.676 701.166 528.676C700.174 528.676 699.262 528.196 698.686 527.444V531.508H697.406ZM698.686 522.964V526.116C699.054 526.964 699.902 527.54 700.894 527.54C702.398 527.54 703.294 526.404 703.294 524.532C703.294 522.66 702.398 521.524 700.894 521.524C699.902 521.524 699.054 522.116 698.686 522.964ZM711.278 524.388V523.588C711.278 522.436 710.654 521.524 709.342 521.524C708.398 521.524 707.918 521.86 707.342 522.42L706.606 521.588C707.182 520.98 707.982 520.388 709.374 520.388C711.454 520.388 712.558 521.652 712.558 523.492V528.5H711.326V527.716C710.734 528.356 709.918 528.676 709.07 528.676C707.278 528.676 706.142 527.508 706.142 526.068C706.142 524.628 707.278 523.46 709.07 523.46C709.902 523.46 710.702 523.78 711.278 524.388ZM711.278 526.612V525.524C710.862 524.82 709.966 524.532 709.246 524.532C707.95 524.532 707.438 525.348 707.438 526.068C707.438 526.788 707.95 527.604 709.246 527.604C709.966 527.604 710.862 527.332 711.278 526.612ZM715.388 531.508L717.02 527.7L713.948 520.564H715.324L717.148 525.108C717.388 525.7 717.596 526.292 717.596 526.532H717.644C717.724 526.116 717.852 525.7 718.076 525.108L719.772 520.564H721.164L716.78 531.508H715.388ZM722.859 528.5V520.564H724.091V521.652C724.507 521.028 725.403 520.388 726.507 520.388C727.675 520.388 728.507 520.884 728.939 521.796C729.323 521.124 730.315 520.388 731.563 520.388C733.387 520.388 734.411 521.556 734.411 523.524V528.5H733.131V523.652C733.131 522.244 732.475 521.524 731.323 521.524C730.251 521.524 729.499 522.196 729.275 522.948V528.5H727.995V523.652C727.995 522.244 727.339 521.524 726.187 521.524C725.115 521.524 724.363 522.196 724.139 522.948V528.5H722.859ZM743.449 524.932H737.785C737.897 526.58 738.761 527.54 740.169 527.54C741.145 527.54 741.945 527.124 742.409 526.372L743.273 527.092C742.681 527.988 741.657 528.676 740.089 528.676C737.833 528.676 736.441 527.076 736.441 524.532C736.441 522.004 737.865 520.388 740.041 520.388C742.169 520.388 743.497 522.052 743.497 524.308C743.497 524.516 743.481 524.74 743.449 524.932ZM737.801 523.844H742.153C742.073 522.42 741.241 521.524 740.041 521.524C738.825 521.524 737.993 522.356 737.801 523.844ZM745.546 528.5V520.564H746.778V521.652C747.194 521.028 748.09 520.388 749.194 520.388C751.034 520.388 752.074 521.572 752.074 523.556V528.5H750.794V523.684C750.794 522.26 750.09 521.524 748.874 521.524C747.802 521.524 747.05 522.196 746.826 522.948V528.5H745.546ZM755.091 525.972V521.652H753.667V520.564H755.107V518.5H756.371V520.564H758.147V521.652H756.371V525.972C756.371 527.06 756.851 527.428 757.923 527.428H758.147V528.516C757.987 528.548 757.779 528.564 757.571 528.564C755.939 528.564 755.091 527.764 755.091 525.972Z" fill="black"/>
    <rect x="779" y="513" width="20" height="20" rx="10" fill="#AF6249"/>
    <path d="M816.388 524.052H814.1V528.5H812.772V517.62H816.388C818.548 517.62 819.86 518.788 819.86 520.836C819.86 522.884 818.548 524.052 816.388 524.052ZM816.228 518.756H814.1V522.916H816.228C817.732 522.916 818.484 522.18 818.484 520.836C818.484 519.492 817.732 518.756 816.228 518.756ZM821.765 528.5V520.564H822.997V521.988C823.429 521.108 824.213 520.388 825.349 520.388C825.461 520.388 825.573 520.388 825.685 520.42V521.716H825.253C824.197 521.716 823.429 522.292 823.045 523.492V528.5H821.765ZM827.375 520.564H828.655V528.5H827.375V520.564ZM827.215 517.14H828.815V518.74H827.215V517.14ZM831.281 528.5V520.564H832.513V521.652C832.929 521.028 833.825 520.388 834.929 520.388C836.769 520.388 837.809 521.572 837.809 523.556V528.5H836.529V523.684C836.529 522.26 835.825 521.524 834.609 521.524C833.537 521.524 832.785 522.196 832.561 522.948V528.5H831.281ZM846.679 522.484L845.671 522.996C845.303 522.036 844.535 521.524 843.511 521.524C842.087 521.524 841.175 522.644 841.175 524.532C841.175 526.42 842.087 527.54 843.511 527.54C844.535 527.54 845.303 527.028 845.671 526.068L846.679 526.58C846.231 527.86 845.015 528.676 843.511 528.676C841.223 528.676 839.847 526.98 839.847 524.532C839.847 522.084 841.223 520.388 843.511 520.388C845.015 520.388 846.231 521.204 846.679 522.484ZM848.64 520.564H849.92V528.5H848.64V520.564ZM848.48 517.14H850.08V518.74H848.48V517.14ZM852.546 531.508V520.564H853.778V521.7C854.354 520.9 855.282 520.388 856.306 520.388C858.418 520.388 859.762 522.084 859.762 524.532C859.762 526.98 858.418 528.676 856.306 528.676C855.314 528.676 854.402 528.196 853.826 527.444V531.508H852.546ZM853.826 522.964V526.116C854.194 526.964 855.042 527.54 856.034 527.54C857.538 527.54 858.434 526.404 858.434 524.532C858.434 522.66 857.538 521.524 856.034 521.524C855.042 521.524 854.194 522.116 853.826 522.964ZM866.418 524.388V523.588C866.418 522.436 865.794 521.524 864.482 521.524C863.538 521.524 863.058 521.86 862.482 522.42L861.746 521.588C862.322 520.98 863.122 520.388 864.514 520.388C866.594 520.388 867.698 521.652 867.698 523.492V528.5H866.466V527.716C865.874 528.356 865.058 528.676 864.21 528.676C862.418 528.676 861.282 527.508 861.282 526.068C861.282 524.628 862.418 523.46 864.21 523.46C865.042 523.46 865.842 523.78 866.418 524.388ZM866.418 526.612V525.524C866.002 524.82 865.106 524.532 864.386 524.532C863.09 524.532 862.578 525.348 862.578 526.068C862.578 526.788 863.09 527.604 864.386 527.604C865.106 527.604 866.002 527.332 866.418 526.612ZM870.234 517.14H871.514V528.5H870.234V517.14Z" fill="black"/>
    <g clip-path="url(#clip22_288_39387)">
    <rect x="893" y="513" width="20" height="20" rx="10" fill="white"/>
    <line x1="888.646" y1="516.936" x2="916.931" y2="488.651" stroke="#CCCCCC"/>
    <line x1="888.646" y1="523.936" x2="916.931" y2="495.651" stroke="#CCCCCC"/>
    <line x1="888.646" y1="530.936" x2="916.931" y2="502.651" stroke="#CCCCCC"/>
    <line x1="888.646" y1="537.936" x2="916.931" y2="509.651" stroke="#CCCCCC"/>
    <line x1="888.646" y1="544.936" x2="916.931" y2="516.651" stroke="#CCCCCC"/>
    <line x1="888.646" y1="551.936" x2="916.931" y2="523.651" stroke="#CCCCCC"/>
    <line x1="888.646" y1="558.936" x2="916.931" y2="530.651" stroke="#CCCCCC"/>
    </g>
    <rect x="893.5" y="513.5" width="19" height="19" rx="9.5" stroke="#CCCCCC"/>
    <path d="M926.991 528.5V517.62H928.319V528.5H926.991ZM931.234 528.5V520.564H932.466V521.652C932.882 521.028 933.778 520.388 934.882 520.388C936.722 520.388 937.762 521.572 937.762 523.556V528.5H936.482V523.684C936.482 522.26 935.778 521.524 934.562 521.524C933.49 521.524 932.738 522.196 932.514 522.948V528.5H931.234ZM940.778 525.972V521.652H939.354V520.564H940.794V518.5H942.058V520.564H943.834V521.652H942.058V525.972C942.058 527.06 942.538 527.428 943.61 527.428H943.834V528.516C943.674 528.548 943.466 528.564 943.258 528.564C941.626 528.564 940.778 527.764 940.778 525.972ZM952.183 524.932H946.519C946.631 526.58 947.495 527.54 948.903 527.54C949.879 527.54 950.679 527.124 951.143 526.372L952.007 527.092C951.415 527.988 950.391 528.676 948.823 528.676C946.567 528.676 945.175 527.076 945.175 524.532C945.175 522.004 946.599 520.388 948.775 520.388C950.903 520.388 952.231 522.052 952.231 524.308C952.231 524.516 952.215 524.74 952.183 524.932ZM946.535 523.844H950.887C950.807 522.42 949.975 521.524 948.775 521.524C947.559 521.524 946.727 522.356 946.535 523.844ZM954.281 528.5V520.564H955.513V521.988C955.945 521.108 956.729 520.388 957.865 520.388C957.977 520.388 958.089 520.388 958.201 520.42V521.716H957.769C956.713 521.716 955.945 522.292 955.561 523.492V528.5H954.281ZM966.168 524.932H960.504C960.616 526.58 961.48 527.54 962.888 527.54C963.864 527.54 964.664 527.124 965.128 526.372L965.992 527.092C965.4 527.988 964.376 528.676 962.808 528.676C960.552 528.676 959.16 527.076 959.16 524.532C959.16 522.004 960.584 520.388 962.76 520.388C964.888 520.388 966.216 522.052 966.216 524.308C966.216 524.516 966.2 524.74 966.168 524.932ZM960.52 523.844H964.872C964.792 522.42 963.96 521.524 962.76 521.524C961.544 521.524 960.712 522.356 960.52 523.844ZM973.129 521.684L972.297 522.404C971.833 521.748 971.241 521.476 970.569 521.476C969.785 521.476 969.369 521.988 969.369 522.564C969.369 523.156 969.737 523.508 970.393 523.652L971.065 523.796C972.569 524.116 973.465 524.804 973.465 526.196C973.465 527.476 972.361 528.676 970.473 528.676C969.081 528.676 968.057 527.892 967.481 527.028L968.313 526.26C968.777 526.964 969.513 527.588 970.505 527.588C971.513 527.588 972.169 527.076 972.169 526.276C972.169 525.54 971.577 525.188 970.697 524.996L970.025 524.852C968.777 524.58 968.073 523.844 968.073 522.692C968.073 521.476 968.985 520.388 970.617 520.388C971.721 520.388 972.601 520.9 973.129 521.684ZM975.935 525.972V521.652H974.511V520.564H975.951V518.5H977.215V520.564H978.991V521.652H977.215V525.972C977.215 527.06 977.695 527.428 978.766 527.428H978.991V528.516C978.831 528.548 978.623 528.564 978.415 528.564C976.783 528.564 975.935 527.764 975.935 525.972Z" fill="black"/>
    <defs>
    <clipPath id="clip0_288_39387">
    <rect x="48" y="152" width="20" height="220" rx="10" fill="white"/>
    </clipPath>
    <clipPath id="clip1_288_39387">
    <rect width="250" height="250" fill="white" transform="translate(-67 137)"/>
    </clipPath>
    <clipPath id="clip2_288_39387">
    <rect x="144" y="152" width="20" height="220" rx="10" fill="white"/>
    </clipPath>
    <clipPath id="clip3_288_39387">
    <rect width="250" height="250" fill="white" transform="translate(29 137)"/>
    </clipPath>
    <clipPath id="clip4_288_39387">
    <rect x="240" y="152" width="20" height="220" rx="10" fill="white"/>
    </clipPath>
    <clipPath id="clip5_288_39387">
    <rect width="250" height="250" fill="white" transform="translate(125 137)"/>
    </clipPath>
    <clipPath id="clip6_288_39387">
    <rect x="336" y="152" width="20" height="220" rx="10" fill="white"/>
    </clipPath>
    <clipPath id="clip7_288_39387">
    <rect width="250" height="250" fill="white" transform="translate(221 137)"/>
    </clipPath>
    <clipPath id="clip8_288_39387">
    <rect x="432" y="152" width="20" height="220" rx="10" fill="white"/>
    </clipPath>
    <clipPath id="clip9_288_39387">
    <rect width="250" height="250" fill="white" transform="translate(317 137)"/>
    </clipPath>
    <clipPath id="clip10_288_39387">
    <rect x="528" y="152" width="20" height="220" rx="10" fill="white"/>
    </clipPath>
    <clipPath id="clip11_288_39387">
    <rect width="250" height="250" fill="white" transform="translate(413 137)"/>
    </clipPath>
    <clipPath id="clip12_288_39387">
    <rect x="624" y="152" width="20" height="220" rx="10" fill="white"/>
    </clipPath>
    <clipPath id="clip13_288_39387">
    <rect width="250" height="250" fill="white" transform="translate(509 137)"/>
    </clipPath>
    <clipPath id="clip14_288_39387">
    <rect x="720" y="152" width="20" height="220" rx="10" fill="white"/>
    </clipPath>
    <clipPath id="clip15_288_39387">
    <rect width="250" height="250" fill="white" transform="translate(605 137)"/>
    </clipPath>
    <clipPath id="clip16_288_39387">
    <rect x="816" y="152" width="20" height="220" rx="10" fill="white"/>
    </clipPath>
    <clipPath id="clip17_288_39387">
    <rect width="250" height="250" fill="white" transform="translate(701 137)"/>
    </clipPath>
    <clipPath id="clip18_288_39387">
    <rect x="912" y="152" width="20" height="220" rx="10" fill="white"/>
    </clipPath>
    <clipPath id="clip19_288_39387">
    <rect width="250" height="250" fill="white" transform="translate(797 137)"/>
    </clipPath>
    <clipPath id="clip20_288_39387">
    <rect width="24" height="24" fill="white" transform="translate(0 511)"/>
    </clipPath>
    <clipPath id="clip21_288_39387">
    <rect x="602" y="513" width="20" height="20" rx="10" fill="white"/>
    </clipPath>
    <clipPath id="clip22_288_39387">
    <rect x="893" y="513" width="20" height="20" rx="10" fill="white"/>
    </clipPath>
    </defs>
    </svg>
    