<svg width="980" height="559" viewBox="0 0 980 559" fill="none" xmlns="http://www.w3.org/2000/svg">
    <path d="M457.387 23V6.68H463.483C466.555 6.68 468.547 8.528 468.547 11.024C468.547 12.464 467.827 13.616 466.579 14.36C468.427 15.032 469.699 16.376 469.699 18.344C469.699 21.248 467.707 23 464.131 23H457.387ZM460.627 20.456H463.819C465.571 20.456 466.339 19.544 466.339 18.2C466.339 16.856 465.571 15.944 463.819 15.944H460.627V20.456ZM460.627 13.4H462.787C464.539 13.4 465.187 12.512 465.187 11.312C465.187 10.112 464.539 9.224 462.787 9.224H460.627V13.4ZM478.91 16.4V15.632C478.91 14.168 478.19 12.968 476.462 12.968C475.094 12.968 474.158 13.64 473.678 14.24L472.046 12.248C472.79 11.288 474.398 10.352 476.534 10.352C480.158 10.352 482.078 12.44 482.078 15.368V23H479.102V22.136C478.238 22.928 477.11 23.336 475.838 23.336C473.03 23.336 471.35 21.704 471.35 19.352C471.35 17 473.03 15.368 475.838 15.368C477.038 15.368 478.07 15.728 478.91 16.4ZM478.91 19.952V18.752C478.454 18.104 477.638 17.624 476.582 17.624C475.118 17.624 474.542 18.464 474.542 19.352C474.542 20.24 475.118 21.08 476.582 21.08C477.638 21.08 478.454 20.6 478.91 19.952ZM485.198 23V5.96H488.366V23H485.198ZM491.62 23V5.96H494.788V23H491.62ZM503.442 20.72C505.41 20.72 506.346 19.064 506.346 16.832C506.346 14.6 505.41 12.968 503.442 12.968C501.474 12.968 500.538 14.6 500.538 16.832C500.538 19.064 501.474 20.72 503.442 20.72ZM503.442 10.352C507.186 10.352 509.562 13.064 509.562 16.832C509.562 20.624 507.186 23.336 503.442 23.336C499.698 23.336 497.322 20.624 497.322 16.832C497.322 13.064 499.698 10.352 503.442 10.352ZM512.105 23V10.688H515.153V12.032C515.921 11.072 517.097 10.352 518.681 10.352C521.777 10.352 523.097 12.344 523.097 15.224V23H519.929V15.632C519.929 13.88 518.993 12.968 517.673 12.968C516.521 12.968 515.705 13.76 515.273 14.768V23H512.105Z" fill="black"/>
    <path d="M173.59 76L178.59 62.4H180.45L185.43 76H183.65L182.43 72.58H176.57L175.37 76H173.59ZM178.95 65.84L177.07 71.16H181.93L180.07 65.84C179.79 65.04 179.55 64.26 179.55 63.96H179.49C179.49 64.26 179.25 65.04 178.95 65.84ZM191.591 76V66.08H193.131V67.86C193.671 66.76 194.651 65.86 196.071 65.86C196.211 65.86 196.351 65.86 196.491 65.9V67.52H195.951C194.631 67.52 193.671 68.24 193.191 69.74V76H191.591ZM206.45 71.54H199.37C199.51 73.6 200.59 74.8 202.35 74.8C203.57 74.8 204.57 74.28 205.15 73.34L206.23 74.24C205.49 75.36 204.21 76.22 202.25 76.22C199.43 76.22 197.69 74.22 197.69 71.04C197.69 67.88 199.47 65.86 202.19 65.86C204.85 65.86 206.51 67.94 206.51 70.76C206.51 71.02 206.49 71.3 206.45 71.54ZM199.39 70.18H204.83C204.73 68.4 203.69 67.28 202.19 67.28C200.67 67.28 199.63 68.32 199.39 70.18ZM209.072 79.76V66.08H210.612V67.5C211.332 66.5 212.492 65.86 213.772 65.86C216.412 65.86 218.092 67.98 218.092 71.04C218.092 74.1 216.412 76.22 213.772 76.22C212.532 76.22 211.392 75.62 210.672 74.68V79.76H209.072ZM210.672 69.08V73.02C211.132 74.08 212.192 74.8 213.432 74.8C215.312 74.8 216.432 73.38 216.432 71.04C216.432 68.7 215.312 67.28 213.432 67.28C212.192 67.28 211.132 68.02 210.672 69.08ZM226.411 70.86V69.86C226.411 68.42 225.631 67.28 223.991 67.28C222.811 67.28 222.211 67.7 221.491 68.4L220.571 67.36C221.291 66.6 222.291 65.86 224.031 65.86C226.631 65.86 228.011 67.44 228.011 69.74V76H226.471V75.02C225.731 75.82 224.711 76.22 223.651 76.22C221.411 76.22 219.991 74.76 219.991 72.96C219.991 71.16 221.411 69.7 223.651 69.7C224.691 69.7 225.691 70.1 226.411 70.86ZM226.411 73.64V72.28C225.891 71.4 224.771 71.04 223.871 71.04C222.251 71.04 221.611 72.06 221.611 72.96C221.611 73.86 222.251 74.88 223.871 74.88C224.771 74.88 225.891 74.54 226.411 73.64ZM231.549 79.76L233.589 75L229.749 66.08H231.469L233.749 71.76C234.049 72.5 234.309 73.24 234.309 73.54H234.369C234.469 73.02 234.629 72.5 234.909 71.76L237.029 66.08H238.769L233.289 79.76H231.549ZM240.888 76V66.08H242.428V67.44C242.948 66.66 244.068 65.86 245.448 65.86C246.908 65.86 247.948 66.48 248.488 67.62C248.968 66.78 250.208 65.86 251.768 65.86C254.048 65.86 255.328 67.32 255.328 69.78V76H253.728V69.94C253.728 68.18 252.908 67.28 251.468 67.28C250.128 67.28 249.188 68.12 248.908 69.06V76H247.308V69.94C247.308 68.18 246.488 67.28 245.048 67.28C243.708 67.28 242.768 68.12 242.488 69.06V76H240.888ZM266.626 71.54H259.546C259.686 73.6 260.766 74.8 262.526 74.8C263.746 74.8 264.746 74.28 265.326 73.34L266.406 74.24C265.666 75.36 264.386 76.22 262.426 76.22C259.606 76.22 257.866 74.22 257.866 71.04C257.866 67.88 259.646 65.86 262.366 65.86C265.026 65.86 266.686 67.94 266.686 70.76C266.686 71.02 266.666 71.3 266.626 71.54ZM259.566 70.18H265.006C264.906 68.4 263.866 67.28 262.366 67.28C260.846 67.28 259.806 68.32 259.566 70.18ZM269.247 76V66.08H270.787V67.44C271.307 66.66 272.427 65.86 273.807 65.86C276.107 65.86 277.407 67.34 277.407 69.82V76H275.807V69.98C275.807 68.2 274.927 67.28 273.407 67.28C272.067 67.28 271.127 68.12 270.847 69.06V76H269.247ZM281.178 72.84V67.44H279.398V66.08H281.198V63.5H282.778V66.08H284.998V67.44H282.778V72.84C282.778 74.2 283.378 74.66 284.718 74.66H284.998V76.02C284.798 76.06 284.538 76.08 284.278 76.08C282.238 76.08 281.178 75.08 281.178 72.84ZM292.119 76V66.08H293.659V67.44C294.179 66.66 295.299 65.86 296.679 65.86C298.139 65.86 299.179 66.48 299.719 67.62C300.199 66.78 301.439 65.86 302.999 65.86C305.279 65.86 306.559 67.32 306.559 69.78V76H304.959V69.94C304.959 68.18 304.139 67.28 302.699 67.28C301.359 67.28 300.419 68.12 300.139 69.06V76H298.539V69.94C298.539 68.18 297.719 67.28 296.279 67.28C294.939 67.28 293.999 68.12 293.719 69.06V76H292.119ZM317.856 71.54H310.776C310.916 73.6 311.996 74.8 313.756 74.8C314.976 74.8 315.976 74.28 316.556 73.34L317.636 74.24C316.896 75.36 315.616 76.22 313.656 76.22C310.836 76.22 309.096 74.22 309.096 71.04C309.096 67.88 310.876 65.86 313.596 65.86C316.256 65.86 317.916 67.94 317.916 70.76C317.916 71.02 317.896 71.3 317.856 71.54ZM310.796 70.18H316.236C316.136 68.4 315.096 67.28 313.596 67.28C312.076 67.28 311.036 68.32 310.796 70.18ZM321.002 72.84V67.44H319.222V66.08H321.022V63.5H322.602V66.08H324.822V67.44H322.602V72.84C322.602 74.2 323.202 74.66 324.542 74.66H324.822V76.02C324.622 76.06 324.362 76.08 324.102 76.08C322.062 76.08 321.002 75.08 321.002 72.84ZM327.236 76V61.8H328.836V67.34C329.376 66.6 330.476 65.86 331.796 65.86C334.096 65.86 335.396 67.34 335.396 69.82V76H333.796V69.98C333.796 68.2 332.916 67.28 331.396 67.28C330.056 67.28 329.116 68.12 328.836 69.06V76H327.236ZM342.604 74.8C344.444 74.8 345.624 73.4 345.624 71.04C345.624 68.68 344.444 67.28 342.604 67.28C340.764 67.28 339.584 68.68 339.584 71.04C339.584 73.4 340.764 74.8 342.604 74.8ZM342.604 65.86C345.444 65.86 347.284 67.98 347.284 71.04C347.284 74.1 345.444 76.22 342.604 76.22C339.764 76.22 337.924 74.1 337.924 71.04C337.924 67.98 339.764 65.86 342.604 65.86ZM356.791 76V74.6C356.051 75.6 354.891 76.22 353.631 76.22C350.991 76.22 349.311 74.1 349.311 71.04C349.311 67.98 350.991 65.86 353.631 65.86C354.871 65.86 355.991 66.46 356.731 67.42V61.8H358.331V76H356.791ZM356.731 73.02V69.08C356.271 68.02 355.211 67.28 353.971 67.28C352.091 67.28 350.971 68.7 350.971 71.04C350.971 73.38 352.091 74.8 353.971 74.8C355.211 74.8 356.271 74.08 356.731 73.02ZM366.725 72.84V67.44H364.945V66.08H366.745V63.5H368.325V66.08H370.545V67.44H368.325V72.84C368.325 74.2 368.925 74.66 370.265 74.66H370.545V76.02C370.345 76.06 370.085 76.08 369.825 76.08C367.785 76.08 366.725 75.08 366.725 72.84ZM372.958 76V61.8H374.558V67.34C375.098 66.6 376.198 65.86 377.518 65.86C379.818 65.86 381.118 67.34 381.118 69.82V76H379.518V69.98C379.518 68.2 378.638 67.28 377.118 67.28C375.778 67.28 374.838 68.12 374.558 69.06V76H372.958ZM389.946 70.86V69.86C389.946 68.42 389.166 67.28 387.526 67.28C386.346 67.28 385.746 67.7 385.026 68.4L384.106 67.36C384.826 66.6 385.826 65.86 387.566 65.86C390.166 65.86 391.546 67.44 391.546 69.74V76H390.006V75.02C389.266 75.82 388.246 76.22 387.186 76.22C384.946 76.22 383.526 74.76 383.526 72.96C383.526 71.16 384.946 69.7 387.186 69.7C388.226 69.7 389.226 70.1 389.946 70.86ZM389.946 73.64V72.28C389.426 71.4 388.306 71.04 387.406 71.04C385.786 71.04 385.146 72.06 385.146 72.96C385.146 73.86 385.786 74.88 387.406 74.88C388.306 74.88 389.426 74.54 389.946 73.64ZM395.279 72.84V67.44H393.499V66.08H395.299V63.5H396.879V66.08H399.099V67.44H396.879V72.84C396.879 74.2 397.479 74.66 398.819 74.66H399.099V76.02C398.899 76.06 398.639 76.08 398.379 76.08C396.339 76.08 395.279 75.08 395.279 72.84ZM411.88 70.86V69.86C411.88 68.42 411.1 67.28 409.46 67.28C408.28 67.28 407.68 67.7 406.96 68.4L406.04 67.36C406.76 66.6 407.76 65.86 409.5 65.86C412.1 65.86 413.48 67.44 413.48 69.74V76H411.94V75.02C411.2 75.82 410.18 76.22 409.12 76.22C406.88 76.22 405.46 74.76 405.46 72.96C405.46 71.16 406.88 69.7 409.12 69.7C410.16 69.7 411.16 70.1 411.88 70.86ZM411.88 73.64V72.28C411.36 71.4 410.24 71.04 409.34 71.04C407.72 71.04 407.08 72.06 407.08 72.96C407.08 73.86 407.72 74.88 409.34 74.88C410.24 74.88 411.36 74.54 411.88 73.64ZM416.65 61.8H418.25V76H416.65V61.8ZM421.533 61.8H423.133V76H421.533V61.8ZM434.555 71.54H427.475C427.615 73.6 428.695 74.8 430.455 74.8C431.675 74.8 432.675 74.28 433.255 73.34L434.335 74.24C433.595 75.36 432.315 76.22 430.355 76.22C427.535 76.22 425.795 74.22 425.795 71.04C425.795 67.88 427.575 65.86 430.295 65.86C432.955 65.86 434.615 67.94 434.615 70.76C434.615 71.02 434.595 71.3 434.555 71.54ZM427.495 70.18H432.935C432.835 68.4 431.795 67.28 430.295 67.28C428.775 67.28 427.735 68.32 427.495 70.18ZM439.564 76L435.804 66.08H437.504L439.784 72.48C440.064 73.26 440.324 74.04 440.324 74.34H440.384C440.384 74.04 440.624 73.26 440.904 72.48L443.184 66.08H444.884L441.124 76H439.564ZM447.06 66.08H448.66V76H447.06V66.08ZM446.86 61.8H448.86V63.8H446.86V61.8ZM457.603 70.86V69.86C457.603 68.42 456.823 67.28 455.183 67.28C454.003 67.28 453.403 67.7 452.683 68.4L451.763 67.36C452.483 66.6 453.483 65.86 455.223 65.86C457.823 65.86 459.203 67.44 459.203 69.74V76H457.663V75.02C456.923 75.82 455.903 76.22 454.843 76.22C452.603 76.22 451.183 74.76 451.183 72.96C451.183 71.16 452.603 69.7 454.843 69.7C455.883 69.7 456.883 70.1 457.603 70.86ZM457.603 73.64V72.28C457.083 71.4 455.963 71.04 455.063 71.04C453.443 71.04 452.803 72.06 452.803 72.96C452.803 73.86 453.443 74.88 455.063 74.88C455.963 74.88 457.083 74.54 457.603 73.64ZM462.936 72.84V67.44H461.156V66.08H462.956V63.5H464.536V66.08H466.756V67.44H464.536V72.84C464.536 74.2 465.136 74.66 466.476 74.66H466.756V76.02C466.556 76.06 466.296 76.08 466.036 76.08C463.996 76.08 462.936 75.08 462.936 72.84ZM477.192 71.54H470.112C470.252 73.6 471.332 74.8 473.092 74.8C474.312 74.8 475.312 74.28 475.892 73.34L476.972 74.24C476.232 75.36 474.952 76.22 472.992 76.22C470.172 76.22 468.432 74.22 468.432 71.04C468.432 67.88 470.212 65.86 472.932 65.86C475.592 65.86 477.252 67.94 477.252 70.76C477.252 71.02 477.232 71.3 477.192 71.54ZM470.132 70.18H475.572C475.472 68.4 474.432 67.28 472.932 67.28C471.412 67.28 470.372 68.32 470.132 70.18ZM485.894 67.48L484.854 68.38C484.274 67.56 483.534 67.22 482.694 67.22C481.714 67.22 481.194 67.86 481.194 68.58C481.194 69.32 481.654 69.76 482.474 69.94L483.314 70.12C485.194 70.52 486.314 71.38 486.314 73.12C486.314 74.72 484.934 76.22 482.574 76.22C480.834 76.22 479.554 75.24 478.834 74.16L479.874 73.2C480.454 74.08 481.374 74.86 482.614 74.86C483.874 74.86 484.694 74.22 484.694 73.22C484.694 72.3 483.954 71.86 482.854 71.62L482.014 71.44C480.454 71.1 479.574 70.18 479.574 68.74C479.574 67.22 480.714 65.86 482.754 65.86C484.134 65.86 485.234 66.5 485.894 67.48ZM493.971 72.84V67.44H492.191V66.08H493.991V63.5H495.571V66.08H497.791V67.44H495.571V72.84C495.571 74.2 496.171 74.66 497.511 74.66H497.791V76.02C497.591 76.06 497.331 76.08 497.071 76.08C495.031 76.08 493.971 75.08 493.971 72.84ZM500.204 76V61.8H501.804V67.34C502.344 66.6 503.444 65.86 504.764 65.86C507.064 65.86 508.364 67.34 508.364 69.82V76H506.764V69.98C506.764 68.2 505.884 67.28 504.364 67.28C503.024 67.28 502.084 68.12 501.804 69.06V76H500.204ZM519.673 71.54H512.593C512.733 73.6 513.813 74.8 515.573 74.8C516.793 74.8 517.793 74.28 518.373 73.34L519.453 74.24C518.713 75.36 517.433 76.22 515.473 76.22C512.653 76.22 510.913 74.22 510.913 71.04C510.913 67.88 512.693 65.86 515.413 65.86C518.073 65.86 519.733 67.94 519.733 70.76C519.733 71.02 519.713 71.3 519.673 71.54ZM512.613 70.18H518.053C517.953 68.4 516.913 67.28 515.413 67.28C513.893 67.28 512.853 68.32 512.613 70.18ZM528.541 74.6V76H527.001V61.8H528.601V67.42C529.341 66.46 530.461 65.86 531.701 65.86C534.341 65.86 536.021 67.98 536.021 71.04C536.021 74.1 534.341 76.22 531.701 76.22C530.441 76.22 529.281 75.6 528.541 74.6ZM528.601 69.08V73.02C529.061 74.08 530.121 74.8 531.361 74.8C533.241 74.8 534.361 73.38 534.361 71.04C534.361 68.7 533.241 67.28 531.361 67.28C530.121 67.28 529.061 68.02 528.601 69.08ZM546.721 66.08V76H545.181V74.66C544.641 75.44 543.541 76.22 542.161 76.22C539.861 76.22 538.561 74.74 538.561 72.26V66.08H540.161V72.1C540.161 73.88 541.041 74.8 542.561 74.8C543.901 74.8 544.821 73.96 545.121 73.02V66.08H546.721ZM550.009 76V66.08H551.549V67.86C552.089 66.76 553.069 65.86 554.489 65.86C554.629 65.86 554.769 65.86 554.909 65.9V67.52H554.369C553.049 67.52 552.089 68.24 551.609 69.74V76H550.009ZM563.627 76V74.6C562.887 75.6 561.727 76.22 560.467 76.22C557.827 76.22 556.147 74.1 556.147 71.04C556.147 67.98 557.827 65.86 560.467 65.86C561.707 65.86 562.827 66.46 563.567 67.42V61.8H565.167V76H563.627ZM563.567 73.02V69.08C563.107 68.02 562.047 67.28 560.807 67.28C558.927 67.28 557.807 68.7 557.807 71.04C557.807 73.38 558.927 74.8 560.807 74.8C562.047 74.8 563.107 74.08 563.567 73.02ZM576.587 71.54H569.507C569.647 73.6 570.727 74.8 572.487 74.8C573.707 74.8 574.707 74.28 575.287 73.34L576.367 74.24C575.627 75.36 574.347 76.22 572.387 76.22C569.567 76.22 567.827 74.22 567.827 71.04C567.827 67.88 569.607 65.86 572.327 65.86C574.987 65.86 576.647 67.94 576.647 70.76C576.647 71.02 576.627 71.3 576.587 71.54ZM569.527 70.18H574.967C574.867 68.4 573.827 67.28 572.327 67.28C570.807 67.28 569.767 68.32 569.527 70.18ZM579.208 76V66.08H580.748V67.44C581.268 66.66 582.388 65.86 583.768 65.86C586.068 65.86 587.368 67.34 587.368 69.82V76H585.768V69.98C585.768 68.2 584.888 67.28 583.368 67.28C582.028 67.28 581.088 68.12 580.808 69.06V76H579.208ZM599.284 74.8C601.124 74.8 602.304 73.4 602.304 71.04C602.304 68.68 601.124 67.28 599.284 67.28C597.444 67.28 596.264 68.68 596.264 71.04C596.264 73.4 597.444 74.8 599.284 74.8ZM599.284 65.86C602.124 65.86 603.964 67.98 603.964 71.04C603.964 74.1 602.124 76.22 599.284 76.22C596.444 76.22 594.604 74.1 594.604 71.04C594.604 67.98 596.444 65.86 599.284 65.86ZM607.154 76V67.44H605.454V66.08H607.154V64.62C607.154 62.9 608.134 61.68 610.094 61.68C610.354 61.68 610.694 61.7 610.934 61.72V63.04H610.454C609.294 63.04 608.754 63.54 608.754 64.64V66.08H610.934V67.44H608.754V76H607.154ZM617.47 76V66.08H619.01V67.44C619.53 66.66 620.65 65.86 622.03 65.86C623.49 65.86 624.53 66.48 625.07 67.62C625.55 66.78 626.79 65.86 628.35 65.86C630.63 65.86 631.91 67.32 631.91 69.78V76H630.31V69.94C630.31 68.18 629.49 67.28 628.05 67.28C626.71 67.28 625.77 68.12 625.49 69.06V76H623.89V69.94C623.89 68.18 623.07 67.28 621.63 67.28C620.29 67.28 619.35 68.12 619.07 69.06V76H617.47ZM639.108 74.8C640.948 74.8 642.128 73.4 642.128 71.04C642.128 68.68 640.948 67.28 639.108 67.28C637.268 67.28 636.088 68.68 636.088 71.04C636.088 73.4 637.268 74.8 639.108 74.8ZM639.108 65.86C641.948 65.86 643.788 67.98 643.788 71.04C643.788 74.1 641.948 76.22 639.108 76.22C636.268 76.22 634.428 74.1 634.428 71.04C634.428 67.98 636.268 65.86 639.108 65.86ZM646.435 76V66.08H647.975V67.44C648.495 66.66 649.615 65.86 650.995 65.86C653.295 65.86 654.595 67.34 654.595 69.82V76H652.995V69.98C652.995 68.2 652.115 67.28 650.595 67.28C649.255 67.28 648.315 68.12 648.035 69.06V76H646.435ZM658.365 72.84V67.44H656.585V66.08H658.385V63.5H659.965V66.08H662.185V67.44H659.965V72.84C659.965 74.2 660.565 74.66 661.905 74.66H662.185V76.02C661.985 76.06 661.725 76.08 661.465 76.08C659.425 76.08 658.365 75.08 658.365 72.84ZM664.599 76V61.8H666.199V67.34C666.739 66.6 667.839 65.86 669.159 65.86C671.459 65.86 672.759 67.34 672.759 69.82V76H671.159V69.98C671.159 68.2 670.279 67.28 668.759 67.28C667.419 67.28 666.479 68.12 666.199 69.06V76H664.599ZM675.927 61.8H677.527V76H675.927V61.8ZM681.51 79.76L683.55 75L679.71 66.08H681.43L683.71 71.76C684.01 72.5 684.27 73.24 684.27 73.54H684.33C684.43 73.02 684.59 72.5 684.87 71.76L686.99 66.08H688.73L683.25 79.76H681.51ZM695.185 79.76V66.08H696.725V67.5C697.445 66.5 698.605 65.86 699.885 65.86C702.525 65.86 704.205 67.98 704.205 71.04C704.205 74.1 702.525 76.22 699.885 76.22C698.645 76.22 697.505 75.62 696.785 74.68V79.76H695.185ZM696.785 69.08V73.02C697.245 74.08 698.305 74.8 699.545 74.8C701.425 74.8 702.545 73.38 702.545 71.04C702.545 68.7 701.425 67.28 699.545 67.28C698.305 67.28 697.245 68.02 696.785 69.08ZM712.525 70.86V69.86C712.525 68.42 711.745 67.28 710.105 67.28C708.925 67.28 708.325 67.7 707.605 68.4L706.685 67.36C707.405 66.6 708.405 65.86 710.145 65.86C712.745 65.86 714.125 67.44 714.125 69.74V76H712.585V75.02C711.845 75.82 710.825 76.22 709.765 76.22C707.525 76.22 706.105 74.76 706.105 72.96C706.105 71.16 707.525 69.7 709.765 69.7C710.805 69.7 711.805 70.1 712.525 70.86ZM712.525 73.64V72.28C712.005 71.4 710.885 71.04 709.985 71.04C708.365 71.04 707.725 72.06 707.725 72.96C707.725 73.86 708.365 74.88 709.985 74.88C710.885 74.88 712.005 74.54 712.525 73.64ZM717.662 79.76L719.702 75L715.862 66.08H717.582L719.862 71.76C720.162 72.5 720.422 73.24 720.422 73.54H720.482C720.582 73.02 720.742 72.5 721.022 71.76L723.142 66.08H724.882L719.402 79.76H717.662ZM727.001 76V66.08H728.541V67.44C729.061 66.66 730.181 65.86 731.561 65.86C733.021 65.86 734.061 66.48 734.601 67.62C735.081 66.78 736.321 65.86 737.881 65.86C740.161 65.86 741.441 67.32 741.441 69.78V76H739.841V69.94C739.841 68.18 739.021 67.28 737.581 67.28C736.241 67.28 735.301 68.12 735.021 69.06V76H733.421V69.94C733.421 68.18 732.601 67.28 731.161 67.28C729.821 67.28 728.881 68.12 728.601 69.06V76H727.001ZM752.739 71.54H745.659C745.799 73.6 746.879 74.8 748.639 74.8C749.859 74.8 750.859 74.28 751.439 73.34L752.519 74.24C751.779 75.36 750.499 76.22 748.539 76.22C745.719 76.22 743.979 74.22 743.979 71.04C743.979 67.88 745.759 65.86 748.479 65.86C751.139 65.86 752.799 67.94 752.799 70.76C752.799 71.02 752.779 71.3 752.739 71.54ZM745.679 70.18H751.119C751.019 68.4 749.979 67.28 748.479 67.28C746.959 67.28 745.919 68.32 745.679 70.18ZM755.361 76V66.08H756.901V67.44C757.421 66.66 758.541 65.86 759.921 65.86C762.221 65.86 763.521 67.34 763.521 69.82V76H761.921V69.98C761.921 68.2 761.041 67.28 759.521 67.28C758.181 67.28 757.241 68.12 756.961 69.06V76H755.361ZM767.291 72.84V67.44H765.511V66.08H767.311V63.5H768.891V66.08H771.111V67.44H768.891V72.84C768.891 74.2 769.491 74.66 770.831 74.66H771.111V76.02C770.911 76.06 770.651 76.08 770.391 76.08C768.351 76.08 767.291 75.08 767.291 72.84ZM779.605 67.48L778.565 68.38C777.985 67.56 777.245 67.22 776.405 67.22C775.425 67.22 774.905 67.86 774.905 68.58C774.905 69.32 775.365 69.76 776.185 69.94L777.025 70.12C778.905 70.52 780.025 71.38 780.025 73.12C780.025 74.72 778.645 76.22 776.285 76.22C774.545 76.22 773.265 75.24 772.545 74.16L773.585 73.2C774.165 74.08 775.085 74.86 776.325 74.86C777.585 74.86 778.405 74.22 778.405 73.22C778.405 72.3 777.665 71.86 776.565 71.62L775.725 71.44C774.165 71.1 773.285 70.18 773.285 68.74C773.285 67.22 774.425 65.86 776.465 65.86C777.845 65.86 778.945 66.5 779.605 67.48ZM788.815 74.6V76H787.275V61.8H788.875V67.42C789.615 66.46 790.735 65.86 791.975 65.86C794.615 65.86 796.295 67.98 796.295 71.04C796.295 74.1 794.615 76.22 791.975 76.22C790.715 76.22 789.555 75.6 788.815 74.6ZM788.875 69.08V73.02C789.335 74.08 790.395 74.8 791.635 74.8C793.515 74.8 794.635 73.38 794.635 71.04C794.635 68.7 793.515 67.28 791.635 67.28C790.395 67.28 789.335 68.02 788.875 69.08ZM799.322 79.76L801.362 75L797.522 66.08H799.242L801.522 71.76C801.822 72.5 802.082 73.24 802.082 73.54H802.142C802.242 73.02 802.402 72.5 802.682 71.76L804.802 66.08H806.542L801.062 79.76H799.322ZM368.744 100V98.6C368.004 99.6 366.844 100.22 365.584 100.22C362.944 100.22 361.264 98.1 361.264 95.04C361.264 91.98 362.944 89.86 365.584 89.86C366.824 89.86 367.944 90.46 368.684 91.42V85.8H370.284V100H368.744ZM368.684 97.02V93.08C368.224 92.02 367.164 91.28 365.924 91.28C364.044 91.28 362.924 92.7 362.924 95.04C362.924 97.38 364.044 98.8 365.924 98.8C367.164 98.8 368.224 98.08 368.684 97.02ZM381.704 95.54H374.624C374.764 97.6 375.844 98.8 377.604 98.8C378.824 98.8 379.824 98.28 380.404 97.34L381.484 98.24C380.744 99.36 379.464 100.22 377.504 100.22C374.684 100.22 372.944 98.22 372.944 95.04C372.944 91.88 374.724 89.86 377.444 89.86C380.104 89.86 381.764 91.94 381.764 94.76C381.764 95.02 381.744 95.3 381.704 95.54ZM374.644 94.18H380.084C379.984 92.4 378.944 91.28 377.444 91.28C375.924 91.28 374.884 92.32 374.644 94.18ZM384.888 100V91.44H383.188V90.08H384.888V88.62C384.888 86.9 385.868 85.68 387.828 85.68C388.088 85.68 388.428 85.7 388.668 85.72V87.04H388.188C387.028 87.04 386.488 87.54 386.488 88.64V90.08H388.668V91.44H386.488V100H384.888ZM398.813 95.54H391.733C391.873 97.6 392.953 98.8 394.713 98.8C395.933 98.8 396.933 98.28 397.513 97.34L398.593 98.24C397.853 99.36 396.573 100.22 394.613 100.22C391.793 100.22 390.053 98.22 390.053 95.04C390.053 91.88 391.833 89.86 394.553 89.86C397.213 89.86 398.873 91.94 398.873 94.76C398.873 95.02 398.853 95.3 398.813 95.54ZM391.753 94.18H397.193C397.093 92.4 396.053 91.28 394.553 91.28C393.033 91.28 391.993 92.32 391.753 94.18ZM401.435 100V90.08H402.975V91.86C403.515 90.76 404.495 89.86 405.915 89.86C406.055 89.86 406.195 89.86 406.335 89.9V91.52H405.795C404.475 91.52 403.515 92.24 403.035 93.74V100H401.435ZM408.447 100V90.08H409.987V91.86C410.527 90.76 411.507 89.86 412.927 89.86C413.067 89.86 413.207 89.86 413.347 89.9V91.52H412.807C411.487 91.52 410.527 92.24 410.047 93.74V100H408.447ZM415.458 90.08H417.058V100H415.458V90.08ZM415.258 85.8H417.258V87.8H415.258V85.8ZM420.341 100V90.08H421.881V91.44C422.401 90.66 423.521 89.86 424.901 89.86C427.201 89.86 428.501 91.34 428.501 93.82V100H426.901V93.98C426.901 92.2 426.021 91.28 424.501 91.28C423.161 91.28 422.221 92.12 421.941 93.06V100H420.341ZM438.289 91.46V90.08H439.829V99.14C439.829 101.7 438.429 103.98 435.349 103.98C433.229 103.98 431.889 102.84 431.289 101.52L432.489 100.76C432.969 101.82 433.929 102.56 435.289 102.56C437.409 102.56 438.229 101.02 438.229 99.2V98.1C437.509 99.04 436.409 99.62 435.169 99.62C432.669 99.62 431.049 97.58 431.049 94.74C431.049 91.9 432.669 89.86 435.169 89.86C436.429 89.86 437.569 90.48 438.289 91.46ZM438.229 96.48V93.02C437.769 92 436.749 91.28 435.529 91.28C433.769 91.28 432.709 92.62 432.709 94.74C432.709 96.86 433.769 98.2 435.529 98.2C436.749 98.2 437.769 97.5 438.229 96.48ZM447.822 103.76V90.08H449.362V91.5C450.082 90.5 451.242 89.86 452.522 89.86C455.162 89.86 456.842 91.98 456.842 95.04C456.842 98.1 455.162 100.22 452.522 100.22C451.282 100.22 450.142 99.62 449.422 98.68V103.76H447.822ZM449.422 93.08V97.02C449.882 98.08 450.942 98.8 452.182 98.8C454.062 98.8 455.182 97.38 455.182 95.04C455.182 92.7 454.062 91.28 452.182 91.28C450.942 91.28 449.882 92.02 449.422 93.08ZM465.161 94.86V93.86C465.161 92.42 464.381 91.28 462.741 91.28C461.561 91.28 460.961 91.7 460.241 92.4L459.321 91.36C460.041 90.6 461.041 89.86 462.781 89.86C465.381 89.86 466.761 91.44 466.761 93.74V100H465.221V99.02C464.481 99.82 463.461 100.22 462.401 100.22C460.161 100.22 458.741 98.76 458.741 96.96C458.741 95.16 460.161 93.7 462.401 93.7C463.441 93.7 464.441 94.1 465.161 94.86ZM465.161 97.64V96.28C464.641 95.4 463.521 95.04 462.621 95.04C461.001 95.04 460.361 96.06 460.361 96.96C460.361 97.86 461.001 98.88 462.621 98.88C463.521 98.88 464.641 98.54 465.161 97.64ZM469.931 100V90.08H471.471V91.86C472.011 90.76 472.991 89.86 474.411 89.86C474.551 89.86 474.691 89.86 474.831 89.9V91.52H474.291C472.971 91.52 472.011 92.24 471.531 93.74V100H469.931ZM477.643 96.84V91.44H475.863V90.08H477.663V87.5H479.243V90.08H481.463V91.44H479.243V96.84C479.243 98.2 479.843 98.66 481.183 98.66H481.463V100.02C481.263 100.06 481.003 100.08 480.743 100.08C478.703 100.08 477.643 99.08 477.643 96.84ZM492.623 98.8C494.463 98.8 495.643 97.4 495.643 95.04C495.643 92.68 494.463 91.28 492.623 91.28C490.783 91.28 489.603 92.68 489.603 95.04C489.603 97.4 490.783 98.8 492.623 98.8ZM492.623 89.86C495.463 89.86 497.303 91.98 497.303 95.04C497.303 98.1 495.463 100.22 492.623 100.22C489.783 100.22 487.943 98.1 487.943 95.04C487.943 91.98 489.783 89.86 492.623 89.86ZM500.494 100V91.44H498.794V90.08H500.494V88.62C500.494 86.9 501.474 85.68 503.434 85.68C503.694 85.68 504.034 85.7 504.274 85.72V87.04H503.794C502.634 87.04 502.094 87.54 502.094 88.64V90.08H504.274V91.44H502.094V100H500.494ZM511.217 96.84V91.44H509.437V90.08H511.237V87.5H512.817V90.08H515.037V91.44H512.817V96.84C512.817 98.2 513.417 98.66 514.757 98.66H515.037V100.02C514.837 100.06 514.577 100.08 514.317 100.08C512.277 100.08 511.217 99.08 511.217 96.84ZM517.451 100V85.8H519.051V91.34C519.591 90.6 520.691 89.86 522.011 89.86C524.311 89.86 525.611 91.34 525.611 93.82V100H524.011V93.98C524.011 92.2 523.131 91.28 521.611 91.28C520.271 91.28 519.331 92.12 519.051 93.06V100H517.451ZM536.919 95.54H529.839C529.979 97.6 531.059 98.8 532.819 98.8C534.039 98.8 535.039 98.28 535.619 97.34L536.699 98.24C535.959 99.36 534.679 100.22 532.719 100.22C529.899 100.22 528.159 98.22 528.159 95.04C528.159 91.88 529.939 89.86 532.659 89.86C535.319 89.86 536.979 91.94 536.979 94.76C536.979 95.02 536.959 95.3 536.919 95.54ZM529.859 94.18H535.299C535.199 92.4 534.159 91.28 532.659 91.28C531.139 91.28 530.099 92.32 529.859 94.18ZM544.247 103.76V90.08H545.787V91.5C546.507 90.5 547.667 89.86 548.947 89.86C551.587 89.86 553.267 91.98 553.267 95.04C553.267 98.1 551.587 100.22 548.947 100.22C547.707 100.22 546.567 99.62 545.847 98.68V103.76H544.247ZM545.847 93.08V97.02C546.307 98.08 547.367 98.8 548.607 98.8C550.487 98.8 551.607 97.38 551.607 95.04C551.607 92.7 550.487 91.28 548.607 91.28C547.367 91.28 546.307 92.02 545.847 93.08ZM555.927 100V90.08H557.467V91.86C558.007 90.76 558.987 89.86 560.407 89.86C560.547 89.86 560.687 89.86 560.827 89.9V91.52H560.287C558.967 91.52 558.007 92.24 557.527 93.74V100H555.927ZM562.939 90.08H564.539V100H562.939V90.08ZM562.739 85.8H564.739V87.8H562.739V85.8ZM567.822 100V90.08H569.362V91.44C569.882 90.66 571.002 89.86 572.382 89.86C574.682 89.86 575.982 91.34 575.982 93.82V100H574.382V93.98C574.382 92.2 573.502 91.28 571.982 91.28C570.642 91.28 569.702 92.12 569.422 93.06V100H567.822ZM587.07 92.48L585.81 93.12C585.35 91.92 584.39 91.28 583.11 91.28C581.33 91.28 580.19 92.68 580.19 95.04C580.19 97.4 581.33 98.8 583.11 98.8C584.39 98.8 585.35 98.16 585.81 96.96L587.07 97.6C586.51 99.2 584.99 100.22 583.11 100.22C580.25 100.22 578.53 98.1 578.53 95.04C578.53 91.98 580.25 89.86 583.11 89.86C584.99 89.86 586.51 90.88 587.07 92.48ZM589.521 90.08H591.121V100H589.521V90.08ZM589.321 85.8H591.321V87.8H589.321V85.8ZM594.404 103.76V90.08H595.944V91.5C596.664 90.5 597.824 89.86 599.104 89.86C601.744 89.86 603.424 91.98 603.424 95.04C603.424 98.1 601.744 100.22 599.104 100.22C597.864 100.22 596.724 99.62 596.004 98.68V103.76H594.404ZM596.004 93.08V97.02C596.464 98.08 597.524 98.8 598.764 98.8C600.644 98.8 601.764 97.38 601.764 95.04C601.764 92.7 600.644 91.28 598.764 91.28C597.524 91.28 596.464 92.02 596.004 93.08ZM611.743 94.86V93.86C611.743 92.42 610.963 91.28 609.323 91.28C608.143 91.28 607.543 91.7 606.823 92.4L605.903 91.36C606.623 90.6 607.623 89.86 609.363 89.86C611.963 89.86 613.343 91.44 613.343 93.74V100H611.803V99.02C611.063 99.82 610.043 100.22 608.983 100.22C606.743 100.22 605.323 98.76 605.323 96.96C605.323 95.16 606.743 93.7 608.983 93.7C610.023 93.7 611.023 94.1 611.743 94.86ZM611.743 97.64V96.28C611.223 95.4 610.103 95.04 609.203 95.04C607.583 95.04 606.943 96.06 606.943 96.96C606.943 97.86 607.583 98.88 609.203 98.88C610.103 98.88 611.223 98.54 611.743 97.64ZM616.513 85.8H618.113V100H616.513V85.8Z" fill="black"/>
    <mask id="path-3-inside-1_988_48857" fill="white">
    <path d="M0 176H980V236H0V176Z"/>
    </mask>
    <path d="M0 176H980V236H0V176Z" fill="white"/>
    <path d="M980 235H0V237H980V235Z" fill="#E5E5E5" mask="url(#path-3-inside-1_988_48857)"/>
    <mask id="path-5-inside-2_988_48857" fill="white">
    <path d="M0 236H980V296H0V236Z"/>
    </mask>
    <path d="M0 236H980V296H0V236Z" fill="white"/>
    <path d="M980 295H0V297H980V295Z" fill="#E5E5E5" mask="url(#path-5-inside-2_988_48857)"/>
    <mask id="path-7-inside-3_988_48857" fill="white">
    <path d="M0 296H980V356H0V296Z"/>
    </mask>
    <path d="M0 296H980V356H0V296Z" fill="white"/>
    <path d="M980 355H0V357H980V355Z" fill="#E5E5E5" mask="url(#path-7-inside-3_988_48857)"/>
    <mask id="path-9-inside-4_988_48857" fill="white">
    <path d="M0 356H980V416H0V356Z"/>
    </mask>
    <path d="M0 356H980V416H0V356Z" fill="white"/>
    <path d="M980 415H0V417H980V415Z" fill="#666666" mask="url(#path-9-inside-4_988_48857)"/>
    <g clip-path="url(#clip0_988_48857)">
    <rect x="96" y="296" width="20" height="100" rx="10" fill="white"/>
    <g clip-path="url(#clip1_988_48857)">
    <line x1="91.6464" y1="370.789" x2="119.931" y2="342.505" stroke="#CCCCCC"/>
    <line x1="91.6464" y1="377.932" x2="119.931" y2="349.647" stroke="#CCCCCC"/>
    <line x1="91.6464" y1="384.932" x2="119.931" y2="356.647" stroke="#CCCCCC"/>
    <line x1="91.6464" y1="391.932" x2="119.931" y2="363.647" stroke="#CCCCCC"/>
    <line x1="91.6464" y1="398.932" x2="119.931" y2="370.647" stroke="#CCCCCC"/>
    <line x1="91.6464" y1="405.932" x2="119.931" y2="377.647" stroke="#CCCCCC"/>
    <line x1="91.6464" y1="412.932" x2="119.931" y2="384.647" stroke="#CCCCCC"/>
    <line x1="91.6464" y1="419.932" x2="119.931" y2="391.647" stroke="#CCCCCC"/>
    <line x1="91.6464" y1="301.073" x2="119.931" y2="272.789" stroke="#CCCCCC"/>
    <line x1="91.6464" y1="308.073" x2="119.931" y2="279.789" stroke="#CCCCCC"/>
    <line x1="91.6464" y1="315.073" x2="119.931" y2="286.789" stroke="#CCCCCC"/>
    <line x1="91.6464" y1="322.073" x2="119.931" y2="293.789" stroke="#CCCCCC"/>
    <line x1="91.6464" y1="329.073" x2="119.931" y2="300.789" stroke="#CCCCCC"/>
    <line x1="91.6464" y1="336.073" x2="119.931" y2="307.789" stroke="#CCCCCC"/>
    <line x1="91.6464" y1="343.073" x2="119.931" y2="314.789" stroke="#CCCCCC"/>
    <line x1="91.6464" y1="350.073" x2="119.931" y2="321.789" stroke="#CCCCCC"/>
    <line x1="91.6464" y1="357.073" x2="119.931" y2="328.789" stroke="#CCCCCC"/>
    <line x1="91.6464" y1="364.073" x2="119.931" y2="335.789" stroke="#CCCCCC"/>
    </g>
    </g>
    <rect x="96.5" y="296.5" width="19" height="99" rx="9.5" stroke="#CCCCCC"/>
    <rect x="96" y="352" width="20" height="44" rx="10" fill="#AF6249"/>
    <g clip-path="url(#clip2_988_48857)">
    <rect x="192" y="296" width="20" height="100" rx="10" fill="white"/>
    <g clip-path="url(#clip3_988_48857)">
    <line x1="187.646" y1="370.789" x2="215.931" y2="342.505" stroke="#CCCCCC"/>
    <line x1="187.646" y1="377.932" x2="215.931" y2="349.647" stroke="#CCCCCC"/>
    <line x1="187.646" y1="384.932" x2="215.931" y2="356.647" stroke="#CCCCCC"/>
    <line x1="187.646" y1="391.932" x2="215.931" y2="363.647" stroke="#CCCCCC"/>
    <line x1="187.646" y1="398.932" x2="215.931" y2="370.647" stroke="#CCCCCC"/>
    <line x1="187.646" y1="405.932" x2="215.931" y2="377.647" stroke="#CCCCCC"/>
    <line x1="187.646" y1="412.932" x2="215.931" y2="384.647" stroke="#CCCCCC"/>
    <line x1="187.646" y1="419.932" x2="215.931" y2="391.647" stroke="#CCCCCC"/>
    <line x1="187.646" y1="301.073" x2="215.931" y2="272.789" stroke="#CCCCCC"/>
    <line x1="187.646" y1="308.073" x2="215.931" y2="279.789" stroke="#CCCCCC"/>
    <line x1="187.646" y1="315.073" x2="215.931" y2="286.789" stroke="#CCCCCC"/>
    <line x1="187.646" y1="322.073" x2="215.931" y2="293.789" stroke="#CCCCCC"/>
    <line x1="187.646" y1="329.073" x2="215.931" y2="300.789" stroke="#CCCCCC"/>
    <line x1="187.646" y1="336.073" x2="215.931" y2="307.789" stroke="#CCCCCC"/>
    <line x1="187.646" y1="343.073" x2="215.931" y2="314.789" stroke="#CCCCCC"/>
    <line x1="187.646" y1="350.073" x2="215.931" y2="321.789" stroke="#CCCCCC"/>
    <line x1="187.646" y1="357.073" x2="215.931" y2="328.789" stroke="#CCCCCC"/>
    <line x1="187.646" y1="364.073" x2="215.931" y2="335.789" stroke="#CCCCCC"/>
    </g>
    </g>
    <rect x="192.5" y="296.5" width="19" height="99" rx="9.5" stroke="#CCCCCC"/>
    <rect x="192" y="352" width="20" height="44" rx="10" fill="#AF6249"/>
    <g clip-path="url(#clip4_988_48857)">
    <rect x="288" y="296" width="20" height="100" rx="10" fill="white"/>
    <g clip-path="url(#clip5_988_48857)">
    <line x1="283.646" y1="370.789" x2="311.931" y2="342.505" stroke="#CCCCCC"/>
    <line x1="283.646" y1="377.932" x2="311.931" y2="349.647" stroke="#CCCCCC"/>
    <line x1="283.646" y1="384.932" x2="311.931" y2="356.647" stroke="#CCCCCC"/>
    <line x1="283.646" y1="391.932" x2="311.931" y2="363.647" stroke="#CCCCCC"/>
    <line x1="283.646" y1="398.932" x2="311.931" y2="370.647" stroke="#CCCCCC"/>
    <line x1="283.646" y1="405.932" x2="311.931" y2="377.647" stroke="#CCCCCC"/>
    <line x1="283.646" y1="412.932" x2="311.931" y2="384.647" stroke="#CCCCCC"/>
    <line x1="283.646" y1="419.932" x2="311.931" y2="391.647" stroke="#CCCCCC"/>
    <line x1="283.646" y1="301.073" x2="311.931" y2="272.789" stroke="#CCCCCC"/>
    <line x1="283.646" y1="308.073" x2="311.931" y2="279.789" stroke="#CCCCCC"/>
    <line x1="283.646" y1="315.073" x2="311.931" y2="286.789" stroke="#CCCCCC"/>
    <line x1="283.646" y1="322.073" x2="311.931" y2="293.789" stroke="#CCCCCC"/>
    <line x1="283.646" y1="329.073" x2="311.931" y2="300.789" stroke="#CCCCCC"/>
    <line x1="283.646" y1="336.073" x2="311.931" y2="307.789" stroke="#CCCCCC"/>
    <line x1="283.646" y1="343.073" x2="311.931" y2="314.789" stroke="#CCCCCC"/>
    <line x1="283.646" y1="350.073" x2="311.931" y2="321.789" stroke="#CCCCCC"/>
    <line x1="283.646" y1="357.073" x2="311.931" y2="328.789" stroke="#CCCCCC"/>
    <line x1="283.646" y1="364.073" x2="311.931" y2="335.789" stroke="#CCCCCC"/>
    </g>
    </g>
    <rect x="288.5" y="296.5" width="19" height="99" rx="9.5" stroke="#CCCCCC"/>
    <rect x="288" y="352" width="20" height="44" rx="10" fill="#AF6249"/>
    <g clip-path="url(#clip6_988_48857)">
    <rect x="384" y="296" width="20" height="100" rx="10" fill="white"/>
    <g clip-path="url(#clip7_988_48857)">
    <line x1="379.646" y1="370.789" x2="407.931" y2="342.505" stroke="#CCCCCC"/>
    <line x1="379.646" y1="377.932" x2="407.931" y2="349.647" stroke="#CCCCCC"/>
    <line x1="379.646" y1="384.932" x2="407.931" y2="356.647" stroke="#CCCCCC"/>
    <line x1="379.646" y1="391.932" x2="407.931" y2="363.647" stroke="#CCCCCC"/>
    <line x1="379.646" y1="398.932" x2="407.931" y2="370.647" stroke="#CCCCCC"/>
    <line x1="379.646" y1="405.932" x2="407.931" y2="377.647" stroke="#CCCCCC"/>
    <line x1="379.646" y1="412.932" x2="407.931" y2="384.647" stroke="#CCCCCC"/>
    <line x1="379.646" y1="419.932" x2="407.931" y2="391.647" stroke="#CCCCCC"/>
    <line x1="379.646" y1="301.073" x2="407.931" y2="272.789" stroke="#CCCCCC"/>
    <line x1="379.646" y1="308.073" x2="407.931" y2="279.789" stroke="#CCCCCC"/>
    <line x1="379.646" y1="315.073" x2="407.931" y2="286.789" stroke="#CCCCCC"/>
    <line x1="379.646" y1="322.073" x2="407.931" y2="293.789" stroke="#CCCCCC"/>
    <line x1="379.646" y1="329.073" x2="407.931" y2="300.789" stroke="#CCCCCC"/>
    <line x1="379.646" y1="336.073" x2="407.931" y2="307.789" stroke="#CCCCCC"/>
    <line x1="379.646" y1="343.073" x2="407.931" y2="314.789" stroke="#CCCCCC"/>
    <line x1="379.646" y1="350.073" x2="407.931" y2="321.789" stroke="#CCCCCC"/>
    <line x1="379.646" y1="357.073" x2="407.931" y2="328.789" stroke="#CCCCCC"/>
    <line x1="379.646" y1="364.073" x2="407.931" y2="335.789" stroke="#CCCCCC"/>
    </g>
    </g>
    <rect x="384.5" y="296.5" width="19" height="99" rx="9.5" stroke="#CCCCCC"/>
    <rect x="384" y="352" width="20" height="44" rx="10" fill="#AF6249"/>
    <g clip-path="url(#clip8_988_48857)">
    <rect x="480" y="296" width="20" height="100" rx="10" fill="white"/>
    <g clip-path="url(#clip9_988_48857)">
    <line x1="475.646" y1="370.789" x2="503.931" y2="342.505" stroke="#CCCCCC"/>
    <line x1="475.646" y1="377.932" x2="503.931" y2="349.647" stroke="#CCCCCC"/>
    <line x1="475.646" y1="384.932" x2="503.931" y2="356.647" stroke="#CCCCCC"/>
    <line x1="475.646" y1="391.932" x2="503.931" y2="363.647" stroke="#CCCCCC"/>
    <line x1="475.646" y1="398.932" x2="503.931" y2="370.647" stroke="#CCCCCC"/>
    <line x1="475.646" y1="405.932" x2="503.931" y2="377.647" stroke="#CCCCCC"/>
    <line x1="475.646" y1="412.932" x2="503.931" y2="384.647" stroke="#CCCCCC"/>
    <line x1="475.646" y1="419.932" x2="503.931" y2="391.647" stroke="#CCCCCC"/>
    <line x1="475.646" y1="301.073" x2="503.931" y2="272.789" stroke="#CCCCCC"/>
    <line x1="475.646" y1="308.073" x2="503.931" y2="279.789" stroke="#CCCCCC"/>
    <line x1="475.646" y1="315.073" x2="503.931" y2="286.789" stroke="#CCCCCC"/>
    <line x1="475.646" y1="322.073" x2="503.931" y2="293.789" stroke="#CCCCCC"/>
    <line x1="475.646" y1="329.073" x2="503.931" y2="300.789" stroke="#CCCCCC"/>
    <line x1="475.646" y1="336.073" x2="503.931" y2="307.789" stroke="#CCCCCC"/>
    <line x1="475.646" y1="343.073" x2="503.931" y2="314.789" stroke="#CCCCCC"/>
    <line x1="475.646" y1="350.073" x2="503.931" y2="321.789" stroke="#CCCCCC"/>
    <line x1="475.646" y1="357.073" x2="503.931" y2="328.789" stroke="#CCCCCC"/>
    <line x1="475.646" y1="364.073" x2="503.931" y2="335.789" stroke="#CCCCCC"/>
    </g>
    </g>
    <rect x="480.5" y="296.5" width="19" height="99" rx="9.5" stroke="#CCCCCC"/>
    <rect x="480" y="352" width="20" height="44" rx="10" fill="#AF6249"/>
    <g clip-path="url(#clip10_988_48857)">
    <rect x="576" y="296" width="20" height="100" rx="10" fill="white"/>
    <g clip-path="url(#clip11_988_48857)">
    <line x1="571.646" y1="370.789" x2="599.931" y2="342.505" stroke="#CCCCCC"/>
    <line x1="571.646" y1="377.932" x2="599.931" y2="349.647" stroke="#CCCCCC"/>
    <line x1="571.646" y1="384.932" x2="599.931" y2="356.647" stroke="#CCCCCC"/>
    <line x1="571.646" y1="391.932" x2="599.931" y2="363.647" stroke="#CCCCCC"/>
    <line x1="571.646" y1="398.932" x2="599.931" y2="370.647" stroke="#CCCCCC"/>
    <line x1="571.646" y1="405.932" x2="599.931" y2="377.647" stroke="#CCCCCC"/>
    <line x1="571.646" y1="412.932" x2="599.931" y2="384.647" stroke="#CCCCCC"/>
    <line x1="571.646" y1="419.932" x2="599.931" y2="391.647" stroke="#CCCCCC"/>
    <line x1="571.646" y1="301.073" x2="599.931" y2="272.789" stroke="#CCCCCC"/>
    <line x1="571.646" y1="308.073" x2="599.931" y2="279.789" stroke="#CCCCCC"/>
    <line x1="571.646" y1="315.073" x2="599.931" y2="286.789" stroke="#CCCCCC"/>
    <line x1="571.646" y1="322.073" x2="599.931" y2="293.789" stroke="#CCCCCC"/>
    <line x1="571.646" y1="329.073" x2="599.931" y2="300.789" stroke="#CCCCCC"/>
    <line x1="571.646" y1="336.073" x2="599.931" y2="307.789" stroke="#CCCCCC"/>
    <line x1="571.646" y1="343.073" x2="599.931" y2="314.789" stroke="#CCCCCC"/>
    <line x1="571.646" y1="350.073" x2="599.931" y2="321.789" stroke="#CCCCCC"/>
    <line x1="571.646" y1="357.073" x2="599.931" y2="328.789" stroke="#CCCCCC"/>
    <line x1="571.646" y1="364.073" x2="599.931" y2="335.789" stroke="#CCCCCC"/>
    </g>
    </g>
    <rect x="576.5" y="296.5" width="19" height="99" rx="9.5" stroke="#CCCCCC"/>
    <rect x="576" y="352" width="20" height="44" rx="10" fill="#AF6249"/>
    <g clip-path="url(#clip12_988_48857)">
    <rect x="672" y="296" width="20" height="100" rx="10" fill="white"/>
    <g clip-path="url(#clip13_988_48857)">
    <line x1="667.646" y1="370.789" x2="695.931" y2="342.505" stroke="#CCCCCC"/>
    <line x1="667.646" y1="377.932" x2="695.931" y2="349.647" stroke="#CCCCCC"/>
    <line x1="667.646" y1="384.932" x2="695.931" y2="356.647" stroke="#CCCCCC"/>
    <line x1="667.646" y1="391.932" x2="695.931" y2="363.647" stroke="#CCCCCC"/>
    <line x1="667.646" y1="398.932" x2="695.931" y2="370.647" stroke="#CCCCCC"/>
    <line x1="667.646" y1="405.932" x2="695.931" y2="377.647" stroke="#CCCCCC"/>
    <line x1="667.646" y1="412.932" x2="695.931" y2="384.647" stroke="#CCCCCC"/>
    <line x1="667.646" y1="419.932" x2="695.931" y2="391.647" stroke="#CCCCCC"/>
    <line x1="667.646" y1="301.073" x2="695.931" y2="272.789" stroke="#CCCCCC"/>
    <line x1="667.646" y1="308.073" x2="695.931" y2="279.789" stroke="#CCCCCC"/>
    <line x1="667.646" y1="315.073" x2="695.931" y2="286.789" stroke="#CCCCCC"/>
    <line x1="667.646" y1="322.073" x2="695.931" y2="293.789" stroke="#CCCCCC"/>
    <line x1="667.646" y1="329.073" x2="695.931" y2="300.789" stroke="#CCCCCC"/>
    <line x1="667.646" y1="336.073" x2="695.931" y2="307.789" stroke="#CCCCCC"/>
    <line x1="667.646" y1="343.073" x2="695.931" y2="314.789" stroke="#CCCCCC"/>
    <line x1="667.646" y1="350.073" x2="695.931" y2="321.789" stroke="#CCCCCC"/>
    <line x1="667.646" y1="357.073" x2="695.931" y2="328.789" stroke="#CCCCCC"/>
    <line x1="667.646" y1="364.073" x2="695.931" y2="335.789" stroke="#CCCCCC"/>
    </g>
    </g>
    <rect x="672.5" y="296.5" width="19" height="99" rx="9.5" stroke="#CCCCCC"/>
    <rect x="672" y="352" width="20" height="44" rx="10" fill="#AF6249"/>
    <g clip-path="url(#clip14_988_48857)">
    <rect x="768" y="296" width="20" height="100" rx="10" fill="white"/>
    <g clip-path="url(#clip15_988_48857)">
    <line x1="763.646" y1="370.789" x2="791.931" y2="342.505" stroke="#CCCCCC"/>
    <line x1="763.646" y1="377.932" x2="791.931" y2="349.647" stroke="#CCCCCC"/>
    <line x1="763.646" y1="384.932" x2="791.931" y2="356.647" stroke="#CCCCCC"/>
    <line x1="763.646" y1="391.932" x2="791.931" y2="363.647" stroke="#CCCCCC"/>
    <line x1="763.646" y1="398.932" x2="791.931" y2="370.647" stroke="#CCCCCC"/>
    <line x1="763.646" y1="405.932" x2="791.931" y2="377.647" stroke="#CCCCCC"/>
    <line x1="763.646" y1="412.932" x2="791.931" y2="384.647" stroke="#CCCCCC"/>
    <line x1="763.646" y1="419.932" x2="791.931" y2="391.647" stroke="#CCCCCC"/>
    <line x1="763.646" y1="301.073" x2="791.931" y2="272.789" stroke="#CCCCCC"/>
    <line x1="763.646" y1="308.073" x2="791.931" y2="279.789" stroke="#CCCCCC"/>
    <line x1="763.646" y1="315.073" x2="791.931" y2="286.789" stroke="#CCCCCC"/>
    <line x1="763.646" y1="322.073" x2="791.931" y2="293.789" stroke="#CCCCCC"/>
    <line x1="763.646" y1="329.073" x2="791.931" y2="300.789" stroke="#CCCCCC"/>
    <line x1="763.646" y1="336.073" x2="791.931" y2="307.789" stroke="#CCCCCC"/>
    <line x1="763.646" y1="343.073" x2="791.931" y2="314.789" stroke="#CCCCCC"/>
    <line x1="763.646" y1="350.073" x2="791.931" y2="321.789" stroke="#CCCCCC"/>
    <line x1="763.646" y1="357.073" x2="791.931" y2="328.789" stroke="#CCCCCC"/>
    <line x1="763.646" y1="364.073" x2="791.931" y2="335.789" stroke="#CCCCCC"/>
    </g>
    </g>
    <rect x="768.5" y="296.5" width="19" height="99" rx="9.5" stroke="#CCCCCC"/>
    <rect x="768" y="352" width="20" height="44" rx="10" fill="#AF6249"/>
    <g clip-path="url(#clip16_988_48857)">
    <rect x="864" y="176" width="20" height="220" rx="10" fill="white"/>
    <g clip-path="url(#clip17_988_48857)">
    <line x1="859.646" y1="310.789" x2="887.931" y2="282.505" stroke="#CCCCCC"/>
    <line x1="859.646" y1="317.932" x2="887.931" y2="289.647" stroke="#CCCCCC"/>
    <line x1="859.646" y1="324.932" x2="887.931" y2="296.647" stroke="#CCCCCC"/>
    <line x1="859.646" y1="178.073" x2="887.931" y2="149.789" stroke="#CCCCCC"/>
    <line x1="859.646" y1="331.932" x2="887.931" y2="303.647" stroke="#CCCCCC"/>
    <line x1="859.646" y1="185.073" x2="887.931" y2="156.789" stroke="#CCCCCC"/>
    <line x1="859.646" y1="338.932" x2="887.931" y2="310.647" stroke="#CCCCCC"/>
    <line x1="859.646" y1="192.073" x2="887.931" y2="163.789" stroke="#CCCCCC"/>
    <line x1="859.646" y1="345.932" x2="887.931" y2="317.647" stroke="#CCCCCC"/>
    <line x1="859.646" y1="199.073" x2="887.931" y2="170.789" stroke="#CCCCCC"/>
    <line x1="859.646" y1="352.932" x2="887.931" y2="324.647" stroke="#CCCCCC"/>
    <line x1="859.646" y1="206.073" x2="887.931" y2="177.789" stroke="#CCCCCC"/>
    <line x1="859.646" y1="359.932" x2="887.931" y2="331.647" stroke="#CCCCCC"/>
    <line x1="859.646" y1="213.073" x2="887.931" y2="184.789" stroke="#CCCCCC"/>
    <line x1="859.646" y1="366.932" x2="887.931" y2="338.647" stroke="#CCCCCC"/>
    <line x1="859.646" y1="220.073" x2="887.931" y2="191.789" stroke="#CCCCCC"/>
    <line x1="859.646" y1="373.932" x2="887.931" y2="345.647" stroke="#CCCCCC"/>
    <line x1="859.646" y1="227.073" x2="887.931" y2="198.789" stroke="#CCCCCC"/>
    <line x1="859.646" y1="380.932" x2="887.931" y2="352.647" stroke="#CCCCCC"/>
    <line x1="859.646" y1="234.073" x2="887.931" y2="205.789" stroke="#CCCCCC"/>
    <line x1="859.646" y1="387.932" x2="887.931" y2="359.647" stroke="#CCCCCC"/>
    <line x1="859.646" y1="241.073" x2="887.931" y2="212.789" stroke="#CCCCCC"/>
    <line x1="859.646" y1="394.932" x2="887.931" y2="366.647" stroke="#CCCCCC"/>
    <line x1="859.646" y1="248.073" x2="887.931" y2="219.789" stroke="#CCCCCC"/>
    <line x1="859.646" y1="401.932" x2="887.931" y2="373.647" stroke="#CCCCCC"/>
    <line x1="859.646" y1="255.073" x2="887.931" y2="226.789" stroke="#CCCCCC"/>
    <line x1="859.646" y1="408.932" x2="887.931" y2="380.647" stroke="#CCCCCC"/>
    <line x1="859.646" y1="262.073" x2="887.931" y2="233.789" stroke="#CCCCCC"/>
    <line x1="859.646" y1="415.932" x2="887.931" y2="387.647" stroke="#CCCCCC"/>
    <line x1="859.646" y1="269.073" x2="887.931" y2="240.789" stroke="#CCCCCC"/>
    <line x1="859.646" y1="422.932" x2="887.931" y2="394.647" stroke="#CCCCCC"/>
    <line x1="859.646" y1="276.073" x2="887.931" y2="247.789" stroke="#CCCCCC"/>
    <line x1="859.646" y1="283.073" x2="887.931" y2="254.789" stroke="#CCCCCC"/>
    <line x1="859.646" y1="290.073" x2="887.931" y2="261.789" stroke="#CCCCCC"/>
    <line x1="859.646" y1="297.073" x2="887.931" y2="268.789" stroke="#CCCCCC"/>
    <line x1="859.646" y1="304.073" x2="887.931" y2="275.789" stroke="#CCCCCC"/>
    </g>
    </g>
    <rect x="864.5" y="176.5" width="19" height="219" rx="9.5" stroke="#CCCCCC"/>
    <rect x="864" y="297" width="20" height="99" rx="10" fill="#AF6249"/>
    <path d="M107.253 448.504V459H105.973V449.976L103.941 451.24L103.429 450.248L106.261 448.504H107.253Z" fill="black"/>
    <path d="M205.599 449.992L204.703 450.696C204.239 449.976 203.487 449.496 202.559 449.496C200.863 449.496 199.679 450.872 199.551 453.416C200.111 452.536 201.023 451.896 202.335 451.896C204.223 451.896 205.775 453.416 205.775 455.528C205.775 457.64 204.159 459.176 202.143 459.176C199.615 459.176 198.303 457.128 198.303 454.008C198.303 450.456 199.967 448.328 202.559 448.328C203.983 448.328 205.023 449.096 205.599 449.992ZM199.871 455.544C199.871 456.984 200.767 458.008 202.143 458.008C203.535 458.008 204.447 456.984 204.447 455.544C204.447 454.072 203.535 453.064 202.143 453.064C200.767 453.064 199.871 454.072 199.871 455.544Z" fill="black"/>
    <path d="M295.143 448.504V459H293.863V449.976L291.831 451.24L291.319 450.248L294.151 448.504H295.143ZM298.638 451.224L297.582 450.712C297.902 449.624 298.83 448.328 300.702 448.328C302.734 448.328 303.966 449.608 303.966 451.48C303.966 454.68 300.03 456.12 299.102 457.864H304.094V459H297.518V458.056C298.734 455.336 302.638 454.136 302.638 451.528C302.638 450.296 302.03 449.496 300.67 449.496C299.646 449.496 298.958 450.088 298.638 451.224Z" fill="black"/>
    <path d="M390.581 448.504V459H389.301V449.976L387.269 451.24L386.757 450.248L389.589 448.504H390.581ZM395.052 453.272C394.092 452.824 393.644 452.04 393.644 451.048C393.644 449.56 394.78 448.328 396.86 448.328C398.94 448.328 400.076 449.56 400.076 451.048C400.076 452.04 399.628 452.824 398.668 453.272C399.836 453.592 400.668 454.712 400.668 456.024C400.668 457.848 399.324 459.176 396.86 459.176C394.396 459.176 393.052 457.848 393.052 456.024C393.052 454.712 393.868 453.592 395.052 453.272ZM396.86 458.008C398.476 458.008 399.34 457.144 399.34 455.944C399.34 454.744 398.476 453.864 396.86 453.864C395.244 453.864 394.38 454.744 394.38 455.944C394.38 457.144 395.244 458.008 396.86 458.008ZM396.86 452.728C397.916 452.728 398.748 452.168 398.748 451.128C398.748 450.088 397.916 449.496 396.86 449.496C395.804 449.496 394.972 450.088 394.972 451.128C394.972 452.168 395.804 452.728 396.86 452.728Z" fill="black"/>
    <path d="M483.326 451.224L482.27 450.712C482.59 449.624 483.518 448.328 485.39 448.328C487.422 448.328 488.654 449.608 488.654 451.48C488.654 454.68 484.718 456.12 483.789 457.864H488.782V459H482.206V458.056C483.422 455.336 487.326 454.136 487.326 451.528C487.326 450.296 486.718 449.496 485.358 449.496C484.334 449.496 483.646 450.088 483.326 451.224ZM496.364 455.048H497.996V456.168H496.364V459H495.084V456.168H489.964V455.24L494.732 448.504H496.364V455.048ZM495.084 455.048V451.496C495.084 450.792 495.1 450.392 495.18 449.848H495.132C495.052 450.072 494.684 450.648 494.268 451.24L491.564 455.048H495.084Z" fill="black"/>
    <path d="M577.912 457.416L578.696 456.584C579.24 457.288 579.928 458.008 581.288 458.008C582.776 458.008 583.704 457.24 583.704 455.944C583.704 454.792 582.952 453.992 581.336 453.992H580.44V452.888H581.336C582.6 452.888 583.208 452.072 583.208 451.192C583.208 450.04 582.392 449.496 581.352 449.496C580.328 449.496 579.608 449.944 579.192 450.68L578.408 449.928C578.968 449.048 579.944 448.328 581.352 448.328C583.288 448.328 584.536 449.352 584.536 451.144C584.536 452.088 583.944 452.936 583.032 453.352C584.296 453.688 585.032 454.728 585.032 456.008C585.032 457.912 583.528 459.176 581.288 459.176C579.528 459.176 578.52 458.184 577.912 457.416ZM590.778 459.176C588.234 459.176 586.858 456.968 586.858 453.752C586.858 450.536 588.234 448.328 590.778 448.328C593.322 448.328 594.698 450.536 594.698 453.752C594.698 456.968 593.322 459.176 590.778 459.176ZM590.778 458.008C592.586 458.008 593.37 456.248 593.37 453.752C593.37 451.256 592.586 449.496 590.778 449.496C588.97 449.496 588.186 451.256 588.186 453.752C588.186 456.248 588.97 458.008 590.778 458.008Z" fill="black"/>
    <path d="M673.638 457.416L674.422 456.584C674.966 457.288 675.654 458.008 677.014 458.008C678.502 458.008 679.43 457.24 679.43 455.944C679.43 454.792 678.678 453.992 677.062 453.992H676.166V452.888H677.062C678.326 452.888 678.934 452.072 678.934 451.192C678.934 450.04 678.118 449.496 677.078 449.496C676.054 449.496 675.334 449.944 674.918 450.68L674.134 449.928C674.694 449.048 675.67 448.328 677.078 448.328C679.014 448.328 680.262 449.352 680.262 451.144C680.262 452.088 679.67 452.936 678.758 453.352C680.022 453.688 680.758 454.728 680.758 456.008C680.758 457.912 679.254 459.176 677.014 459.176C675.254 459.176 674.246 458.184 673.638 457.416ZM689.881 449.992L688.985 450.696C688.521 449.976 687.769 449.496 686.841 449.496C685.145 449.496 683.961 450.872 683.833 453.416C684.393 452.536 685.305 451.896 686.617 451.896C688.505 451.896 690.057 453.416 690.057 455.528C690.057 457.64 688.441 459.176 686.425 459.176C683.897 459.176 682.585 457.128 682.585 454.008C682.585 450.456 684.249 448.328 686.841 448.328C688.265 448.328 689.305 449.096 689.881 449.992ZM684.153 455.544C684.153 456.984 685.049 458.008 686.425 458.008C687.817 458.008 688.729 456.984 688.729 455.544C688.729 454.072 687.817 453.064 686.425 453.064C685.049 453.064 684.153 454.072 684.153 455.544Z" fill="black"/>
    <path d="M776.223 455.048H777.855V456.168H776.223V459H774.943V456.168H769.823V455.24L774.591 448.504H776.223V455.048ZM774.943 455.048V451.496C774.943 450.792 774.959 450.392 775.039 449.848H774.991C774.911 450.072 774.543 450.648 774.127 451.24L771.423 455.048H774.943ZM780.31 451.224L779.254 450.712C779.574 449.624 780.502 448.328 782.374 448.328C784.406 448.328 785.638 449.608 785.638 451.48C785.638 454.68 781.702 456.12 780.774 457.864H785.766V459H779.19V458.056C780.406 455.336 784.31 454.136 784.31 451.528C784.31 450.296 783.702 449.496 782.342 449.496C781.318 449.496 780.63 450.088 780.31 451.224Z" fill="black"/>
    <path d="M872.161 455.048H873.793V456.168H872.161V459H870.881V456.168H865.761V455.24L870.529 448.504H872.161V455.048ZM870.881 455.048V451.496C870.881 450.792 870.897 450.392 870.977 449.848H870.929C870.849 450.072 870.481 450.648 870.065 451.24L867.361 455.048H870.881ZM877.223 453.272C876.263 452.824 875.815 452.04 875.815 451.048C875.815 449.56 876.951 448.328 879.031 448.328C881.111 448.328 882.247 449.56 882.247 451.048C882.247 452.04 881.799 452.824 880.839 453.272C882.007 453.592 882.839 454.712 882.839 456.024C882.839 457.848 881.495 459.176 879.031 459.176C876.567 459.176 875.223 457.848 875.223 456.024C875.223 454.712 876.039 453.592 877.223 453.272ZM879.031 458.008C880.647 458.008 881.511 457.144 881.511 455.944C881.511 454.744 880.647 453.864 879.031 453.864C877.415 453.864 876.551 454.744 876.551 455.944C876.551 457.144 877.415 458.008 879.031 458.008ZM879.031 452.728C880.087 452.728 880.919 452.168 880.919 451.128C880.919 450.088 880.087 449.496 879.031 449.496C877.975 449.496 877.143 450.088 877.143 451.128C877.143 452.168 877.975 452.728 879.031 452.728Z" fill="black"/>
    <g clip-path="url(#clip18_988_48857)">
    <path d="M21.65 546.65L18.86 543.86C18.54 543.54 18 543.76 18 544.21V546H4C3.45 546 3 546.45 3 547C3 547.55 3.45 548 4 548H18V549.79C18 550.24 18.54 550.46 18.85 550.14L21.64 547.35C21.84 547.16 21.84 546.84 21.65 546.65Z" fill="black"/>
    </g>
    <path d="M33.8891 552.5V541.62H35.2171V552.5H33.8891ZM38.1323 552.5V544.564H39.3643V545.652C39.7803 545.028 40.6763 544.388 41.7803 544.388C43.6203 544.388 44.6603 545.572 44.6603 547.556V552.5H43.3803V547.684C43.3803 546.26 42.6763 545.524 41.4603 545.524C40.3883 545.524 39.6363 546.196 39.4123 546.948V552.5H38.1323ZM52.0588 545.684L51.2268 546.404C50.7628 545.748 50.1708 545.476 49.4988 545.476C48.7148 545.476 48.2988 545.988 48.2988 546.564C48.2988 547.156 48.6668 547.508 49.3228 547.652L49.9948 547.796C51.4988 548.116 52.3948 548.804 52.3948 550.196C52.3948 551.476 51.2908 552.676 49.4028 552.676C48.0108 552.676 46.9868 551.892 46.4108 551.028L47.2428 550.26C47.7068 550.964 48.4428 551.588 49.4348 551.588C50.4428 551.588 51.0988 551.076 51.0988 550.276C51.0988 549.54 50.5068 549.188 49.6268 548.996L48.9548 548.852C47.7068 548.58 47.0028 547.844 47.0028 546.692C47.0028 545.476 47.9148 544.388 49.5468 544.388C50.6508 544.388 51.5308 544.9 52.0588 545.684ZM54.8642 549.972V545.652H53.4402V544.564H54.8802V542.5H56.1442V544.564H57.9202V545.652H56.1442V549.972C56.1442 551.06 56.6242 551.428 57.6962 551.428H57.9202V552.516C57.7602 552.548 57.5522 552.564 57.3442 552.564C55.7122 552.564 54.8642 551.764 54.8642 549.972ZM64.3791 548.388V547.588C64.3791 546.436 63.7551 545.524 62.4431 545.524C61.4991 545.524 61.0191 545.86 60.4431 546.42L59.7071 545.588C60.2831 544.98 61.0831 544.388 62.4751 544.388C64.5551 544.388 65.6591 545.652 65.6591 547.492V552.5H64.4271V551.716C63.8351 552.356 63.0191 552.676 62.1711 552.676C60.3791 552.676 59.2431 551.508 59.2431 550.068C59.2431 548.628 60.3791 547.46 62.1711 547.46C63.0031 547.46 63.8031 547.78 64.3791 548.388ZM64.3791 550.612V549.524C63.9631 548.82 63.0671 548.532 62.3471 548.532C61.0511 548.532 60.5391 549.348 60.5391 550.068C60.5391 550.788 61.0511 551.604 62.3471 551.604C63.0671 551.604 63.9631 551.332 64.3791 550.612ZM68.1948 541.14H69.4748V552.5H68.1948V541.14ZM72.1011 541.14H73.3811V552.5H72.1011V541.14ZM76.0073 552.5V544.564H77.2393V545.652C77.6553 545.028 78.5513 544.388 79.6553 544.388C80.8233 544.388 81.6553 544.884 82.0873 545.796C82.4713 545.124 83.4633 544.388 84.7113 544.388C86.5353 544.388 87.5593 545.556 87.5593 547.524V552.5H86.2793V547.652C86.2793 546.244 85.6233 545.524 84.4713 545.524C83.3993 545.524 82.6473 546.196 82.4233 546.948V552.5H81.1433V547.652C81.1433 546.244 80.4873 545.524 79.3353 545.524C78.2633 545.524 77.5113 546.196 77.2873 546.948V552.5H76.0073ZM96.5974 548.932H90.9334C91.0454 550.58 91.9094 551.54 93.3174 551.54C94.2934 551.54 95.0934 551.124 95.5574 550.372L96.4214 551.092C95.8294 551.988 94.8054 552.676 93.2374 552.676C90.9814 552.676 89.5894 551.076 89.5894 548.532C89.5894 546.004 91.0134 544.388 93.1894 544.388C95.3174 544.388 96.6454 546.052 96.6454 548.308C96.6454 548.516 96.6294 548.74 96.5974 548.932ZM90.9494 547.844H95.3014C95.2214 546.42 94.3894 545.524 93.1894 545.524C91.9734 545.524 91.1414 546.356 90.9494 547.844ZM98.6948 552.5V544.564H99.9268V545.652C100.343 545.028 101.239 544.388 102.343 544.388C104.183 544.388 105.223 545.572 105.223 547.556V552.5H103.943V547.684C103.943 546.26 103.239 545.524 102.023 545.524C100.951 545.524 100.199 546.196 99.9748 546.948V552.5H98.6948ZM108.239 549.972V545.652H106.815V544.564H108.255V542.5H109.519V544.564H111.295V545.652H109.519V549.972C109.519 551.06 109.999 551.428 111.071 551.428H111.295V552.516C111.135 552.548 110.927 552.564 110.719 552.564C109.087 552.564 108.239 551.764 108.239 549.972ZM116.992 555.508V544.564H118.224V545.7C118.8 544.9 119.728 544.388 120.752 544.388C122.864 544.388 124.208 546.084 124.208 548.532C124.208 550.98 122.864 552.676 120.752 552.676C119.76 552.676 118.848 552.196 118.272 551.444V555.508H116.992ZM118.272 546.964V550.116C118.64 550.964 119.488 551.54 120.48 551.54C121.984 551.54 122.88 550.404 122.88 548.532C122.88 546.66 121.984 545.524 120.48 545.524C119.488 545.524 118.64 546.116 118.272 546.964ZM132.847 548.932H127.183C127.295 550.58 128.159 551.54 129.567 551.54C130.543 551.54 131.343 551.124 131.807 550.372L132.671 551.092C132.079 551.988 131.055 552.676 129.487 552.676C127.231 552.676 125.839 551.076 125.839 548.532C125.839 546.004 127.263 544.388 129.439 544.388C131.567 544.388 132.895 546.052 132.895 548.308C132.895 548.516 132.879 548.74 132.847 548.932ZM127.199 547.844H131.551C131.471 546.42 130.639 545.524 129.439 545.524C128.223 545.524 127.391 546.356 127.199 547.844ZM134.945 552.5V544.564H136.177V545.988C136.609 545.108 137.393 544.388 138.529 544.388C138.641 544.388 138.753 544.388 138.865 544.42V545.716H138.433C137.377 545.716 136.609 546.292 136.225 547.492V552.5H134.945ZM140.554 544.564H141.834V552.5H140.554V544.564ZM140.394 541.14H141.994V542.74H140.394V541.14ZM147.692 551.54C149.164 551.54 150.108 550.42 150.108 548.532C150.108 546.644 149.164 545.524 147.692 545.524C146.22 545.524 145.276 546.644 145.276 548.532C145.276 550.42 146.22 551.54 147.692 551.54ZM147.692 544.388C149.964 544.388 151.436 546.084 151.436 548.532C151.436 550.98 149.964 552.676 147.692 552.676C145.42 552.676 143.948 550.98 143.948 548.532C143.948 546.084 145.42 544.388 147.692 544.388ZM159.042 552.5V551.38C158.45 552.18 157.522 552.676 156.514 552.676C154.402 552.676 153.058 550.98 153.058 548.532C153.058 546.084 154.402 544.388 156.514 544.388C157.506 544.388 158.402 544.868 158.994 545.636V541.14H160.274V552.5H159.042ZM158.994 550.116V546.964C158.626 546.116 157.778 545.524 156.786 545.524C155.282 545.524 154.386 546.66 154.386 548.532C154.386 550.404 155.282 551.54 156.786 551.54C157.778 551.54 158.626 550.964 158.994 550.116ZM169.496 541.22L170.136 542.02C168.68 543.22 167.496 545.124 167.496 548.324C167.496 551.524 168.68 553.428 170.136 554.628L169.496 555.428C168.024 554.34 166.2 552.18 166.2 548.324C166.2 544.468 168.024 542.308 169.496 541.22ZM171.398 552.5V544.564H172.63V545.652C173.046 545.028 173.942 544.388 175.046 544.388C176.214 544.388 177.046 544.884 177.478 545.796C177.862 545.124 178.854 544.388 180.102 544.388C181.926 544.388 182.95 545.556 182.95 547.524V552.5H181.67V547.652C181.67 546.244 181.014 545.524 179.862 545.524C178.79 545.524 178.038 546.196 177.814 546.948V552.5H176.534V547.652C176.534 546.244 175.878 545.524 174.726 545.524C173.654 545.524 172.902 546.196 172.678 546.948V552.5H171.398ZM188.708 551.54C190.18 551.54 191.124 550.42 191.124 548.532C191.124 546.644 190.18 545.524 188.708 545.524C187.236 545.524 186.292 546.644 186.292 548.532C186.292 550.42 187.236 551.54 188.708 551.54ZM188.708 544.388C190.98 544.388 192.452 546.084 192.452 548.532C192.452 550.98 190.98 552.676 188.708 552.676C186.436 552.676 184.964 550.98 184.964 548.532C184.964 546.084 186.436 544.388 188.708 544.388ZM194.57 552.5V544.564H195.802V545.652C196.218 545.028 197.114 544.388 198.218 544.388C200.058 544.388 201.098 545.572 201.098 547.556V552.5H199.818V547.684C199.818 546.26 199.114 545.524 197.898 545.524C196.826 545.524 196.074 546.196 195.85 546.948V552.5H194.57ZM204.114 549.972V545.652H202.69V544.564H204.13V542.5H205.394V544.564H207.17V545.652H205.394V549.972C205.394 551.06 205.874 551.428 206.946 551.428H207.17V552.516C207.01 552.548 206.802 552.564 206.594 552.564C204.962 552.564 204.114 551.764 204.114 549.972ZM209.101 552.5V541.14H210.381V545.572C210.813 544.98 211.693 544.388 212.749 544.388C214.589 544.388 215.629 545.572 215.629 547.556V552.5H214.349V547.684C214.349 546.26 213.645 545.524 212.429 545.524C211.357 545.524 210.605 546.196 210.381 546.948V552.5H209.101ZM223.028 545.684L222.196 546.404C221.732 545.748 221.14 545.476 220.468 545.476C219.684 545.476 219.268 545.988 219.268 546.564C219.268 547.156 219.636 547.508 220.292 547.652L220.964 547.796C222.468 548.116 223.364 548.804 223.364 550.196C223.364 551.476 222.26 552.676 220.372 552.676C218.98 552.676 217.956 551.892 217.38 551.028L218.212 550.26C218.676 550.964 219.412 551.588 220.404 551.588C221.412 551.588 222.068 551.076 222.068 550.276C222.068 549.54 221.476 549.188 220.596 548.996L219.924 548.852C218.676 548.58 217.972 547.844 217.972 546.692C217.972 545.476 218.884 544.388 220.516 544.388C221.62 544.388 222.5 544.9 223.028 545.684ZM224.563 555.428L223.923 554.628C225.379 553.428 226.563 551.524 226.563 548.324C226.563 545.124 225.379 543.22 223.923 542.02L224.563 541.22C226.035 542.308 227.859 544.468 227.859 548.324C227.859 552.18 226.035 554.34 224.563 555.428Z" fill="black"/>
    <g clip-path="url(#clip19_988_48857)">
    <rect x="602" y="537" width="20" height="20" rx="10" fill="white"/>
    <line x1="597.646" y1="540.932" x2="625.931" y2="512.647" stroke="#CCCCCC"/>
    <line x1="597.646" y1="547.932" x2="625.931" y2="519.647" stroke="#CCCCCC"/>
    <line x1="597.646" y1="554.932" x2="625.931" y2="526.647" stroke="#CCCCCC"/>
    <line x1="597.646" y1="561.932" x2="625.931" y2="533.647" stroke="#CCCCCC"/>
    <line x1="597.646" y1="568.932" x2="625.931" y2="540.647" stroke="#CCCCCC"/>
    <line x1="597.646" y1="575.932" x2="625.931" y2="547.647" stroke="#CCCCCC"/>
    <line x1="597.646" y1="582.932" x2="625.931" y2="554.647" stroke="#CCCCCC"/>
    </g>
    <rect x="602.5" y="537.5" width="19" height="19" rx="9.5" stroke="#CCCCCC"/>
    <path d="M602 547H622C622 552.523 617.523 557 612 557C606.477 557 602 552.523 602 547Z" fill="#AF6249"/>
    <path d="M640.538 552.5L637.866 545.748C637.498 544.836 637.194 543.956 637.146 543.716H637.098C637.13 543.94 637.162 544.916 637.162 545.876V552.5H635.834V541.62H637.53L640.698 549.508C640.938 550.084 641.146 550.66 641.146 550.9H641.194C641.194 550.66 641.402 550.084 641.626 549.508L644.794 541.62H646.49V552.5H645.162V545.876C645.162 544.916 645.194 543.94 645.226 543.716H645.178C645.13 543.956 644.826 544.836 644.458 545.748L641.786 552.5H640.538ZM652.544 551.54C654.016 551.54 654.96 550.42 654.96 548.532C654.96 546.644 654.016 545.524 652.544 545.524C651.072 545.524 650.128 546.644 650.128 548.532C650.128 550.42 651.072 551.54 652.544 551.54ZM652.544 544.388C654.816 544.388 656.288 546.084 656.288 548.532C656.288 550.98 654.816 552.676 652.544 552.676C650.272 552.676 648.8 550.98 648.8 548.532C648.8 546.084 650.272 544.388 652.544 544.388ZM658.406 552.5V544.564H659.638V545.652C660.054 545.028 660.95 544.388 662.054 544.388C663.894 544.388 664.934 545.572 664.934 547.556V552.5H663.654V547.684C663.654 546.26 662.95 545.524 661.734 545.524C660.662 545.524 659.91 546.196 659.686 546.948V552.5H658.406ZM667.95 549.972V545.652H666.526V544.564H667.966V542.5H669.23V544.564H671.006V545.652H669.23V549.972C669.23 551.06 669.71 551.428 670.782 551.428H671.006V552.516C670.846 552.548 670.638 552.564 670.43 552.564C668.798 552.564 667.95 551.764 667.95 549.972ZM672.937 552.5V541.14H674.217V545.572C674.649 544.98 675.529 544.388 676.585 544.388C678.425 544.388 679.465 545.572 679.465 547.556V552.5H678.185V547.684C678.185 546.26 677.481 545.524 676.265 545.524C675.193 545.524 674.441 546.196 674.217 546.948V552.5H672.937ZM682 541.14H683.28V552.5H682V541.14ZM686.466 555.508L688.098 551.7L685.026 544.564H686.402L688.226 549.108C688.466 549.7 688.674 550.292 688.674 550.532H688.722C688.802 550.116 688.93 549.7 689.154 549.108L690.85 544.564H692.242L687.858 555.508H686.466ZM697.406 555.508V544.564H698.638V545.7C699.214 544.9 700.142 544.388 701.166 544.388C703.278 544.388 704.622 546.084 704.622 548.532C704.622 550.98 703.278 552.676 701.166 552.676C700.174 552.676 699.262 552.196 698.686 551.444V555.508H697.406ZM698.686 546.964V550.116C699.054 550.964 699.902 551.54 700.894 551.54C702.398 551.54 703.294 550.404 703.294 548.532C703.294 546.66 702.398 545.524 700.894 545.524C699.902 545.524 699.054 546.116 698.686 546.964ZM711.278 548.388V547.588C711.278 546.436 710.654 545.524 709.342 545.524C708.398 545.524 707.918 545.86 707.342 546.42L706.606 545.588C707.182 544.98 707.982 544.388 709.374 544.388C711.454 544.388 712.558 545.652 712.558 547.492V552.5H711.326V551.716C710.734 552.356 709.918 552.676 709.07 552.676C707.278 552.676 706.142 551.508 706.142 550.068C706.142 548.628 707.278 547.46 709.07 547.46C709.902 547.46 710.702 547.78 711.278 548.388ZM711.278 550.612V549.524C710.862 548.82 709.966 548.532 709.246 548.532C707.95 548.532 707.438 549.348 707.438 550.068C707.438 550.788 707.95 551.604 709.246 551.604C709.966 551.604 710.862 551.332 711.278 550.612ZM715.388 555.508L717.02 551.7L713.948 544.564H715.324L717.148 549.108C717.388 549.7 717.596 550.292 717.596 550.532H717.644C717.724 550.116 717.852 549.7 718.076 549.108L719.772 544.564H721.164L716.78 555.508H715.388ZM722.859 552.5V544.564H724.091V545.652C724.507 545.028 725.403 544.388 726.507 544.388C727.675 544.388 728.507 544.884 728.939 545.796C729.323 545.124 730.315 544.388 731.563 544.388C733.387 544.388 734.411 545.556 734.411 547.524V552.5H733.131V547.652C733.131 546.244 732.475 545.524 731.323 545.524C730.251 545.524 729.499 546.196 729.275 546.948V552.5H727.995V547.652C727.995 546.244 727.339 545.524 726.187 545.524C725.115 545.524 724.363 546.196 724.139 546.948V552.5H722.859ZM743.449 548.932H737.785C737.897 550.58 738.761 551.54 740.169 551.54C741.145 551.54 741.945 551.124 742.409 550.372L743.273 551.092C742.681 551.988 741.657 552.676 740.089 552.676C737.833 552.676 736.441 551.076 736.441 548.532C736.441 546.004 737.865 544.388 740.041 544.388C742.169 544.388 743.497 546.052 743.497 548.308C743.497 548.516 743.481 548.74 743.449 548.932ZM737.801 547.844H742.153C742.073 546.42 741.241 545.524 740.041 545.524C738.825 545.524 737.993 546.356 737.801 547.844ZM745.546 552.5V544.564H746.778V545.652C747.194 545.028 748.09 544.388 749.194 544.388C751.034 544.388 752.074 545.572 752.074 547.556V552.5H750.794V547.684C750.794 546.26 750.09 545.524 748.874 545.524C747.802 545.524 747.05 546.196 746.826 546.948V552.5H745.546ZM755.091 549.972V545.652H753.667V544.564H755.107V542.5H756.371V544.564H758.147V545.652H756.371V549.972C756.371 551.06 756.851 551.428 757.923 551.428H758.147V552.516C757.987 552.548 757.779 552.564 757.571 552.564C755.939 552.564 755.091 551.764 755.091 549.972Z" fill="black"/>
    <rect x="779" y="537" width="20" height="20" rx="10" fill="#AF6249"/>
    <path d="M816.388 548.052H814.1V552.5H812.772V541.62H816.388C818.548 541.62 819.86 542.788 819.86 544.836C819.86 546.884 818.548 548.052 816.388 548.052ZM816.228 542.756H814.1V546.916H816.228C817.732 546.916 818.484 546.18 818.484 544.836C818.484 543.492 817.732 542.756 816.228 542.756ZM821.765 552.5V544.564H822.997V545.988C823.429 545.108 824.213 544.388 825.349 544.388C825.461 544.388 825.573 544.388 825.685 544.42V545.716H825.253C824.197 545.716 823.429 546.292 823.045 547.492V552.5H821.765ZM827.375 544.564H828.655V552.5H827.375V544.564ZM827.215 541.14H828.815V542.74H827.215V541.14ZM831.281 552.5V544.564H832.513V545.652C832.929 545.028 833.825 544.388 834.929 544.388C836.769 544.388 837.809 545.572 837.809 547.556V552.5H836.529V547.684C836.529 546.26 835.825 545.524 834.609 545.524C833.537 545.524 832.785 546.196 832.561 546.948V552.5H831.281ZM846.679 546.484L845.671 546.996C845.303 546.036 844.535 545.524 843.511 545.524C842.087 545.524 841.175 546.644 841.175 548.532C841.175 550.42 842.087 551.54 843.511 551.54C844.535 551.54 845.303 551.028 845.671 550.068L846.679 550.58C846.231 551.86 845.015 552.676 843.511 552.676C841.223 552.676 839.847 550.98 839.847 548.532C839.847 546.084 841.223 544.388 843.511 544.388C845.015 544.388 846.231 545.204 846.679 546.484ZM848.64 544.564H849.92V552.5H848.64V544.564ZM848.48 541.14H850.08V542.74H848.48V541.14ZM852.546 555.508V544.564H853.778V545.7C854.354 544.9 855.282 544.388 856.306 544.388C858.418 544.388 859.762 546.084 859.762 548.532C859.762 550.98 858.418 552.676 856.306 552.676C855.314 552.676 854.402 552.196 853.826 551.444V555.508H852.546ZM853.826 546.964V550.116C854.194 550.964 855.042 551.54 856.034 551.54C857.538 551.54 858.434 550.404 858.434 548.532C858.434 546.66 857.538 545.524 856.034 545.524C855.042 545.524 854.194 546.116 853.826 546.964ZM866.418 548.388V547.588C866.418 546.436 865.794 545.524 864.482 545.524C863.538 545.524 863.058 545.86 862.482 546.42L861.746 545.588C862.322 544.98 863.122 544.388 864.514 544.388C866.594 544.388 867.698 545.652 867.698 547.492V552.5H866.466V551.716C865.874 552.356 865.058 552.676 864.21 552.676C862.418 552.676 861.282 551.508 861.282 550.068C861.282 548.628 862.418 547.46 864.21 547.46C865.042 547.46 865.842 547.78 866.418 548.388ZM866.418 550.612V549.524C866.002 548.82 865.106 548.532 864.386 548.532C863.09 548.532 862.578 549.348 862.578 550.068C862.578 550.788 863.09 551.604 864.386 551.604C865.106 551.604 866.002 551.332 866.418 550.612ZM870.234 541.14H871.514V552.5H870.234V541.14Z" fill="black"/>
    <g clip-path="url(#clip20_988_48857)">
    <rect x="893" y="537" width="20" height="20" rx="10" fill="white"/>
    <line x1="888.646" y1="540.932" x2="916.931" y2="512.647" stroke="#CCCCCC"/>
    <line x1="888.646" y1="547.932" x2="916.931" y2="519.647" stroke="#CCCCCC"/>
    <line x1="888.646" y1="554.932" x2="916.931" y2="526.647" stroke="#CCCCCC"/>
    <line x1="888.646" y1="561.932" x2="916.931" y2="533.647" stroke="#CCCCCC"/>
    <line x1="888.646" y1="568.932" x2="916.931" y2="540.647" stroke="#CCCCCC"/>
    <line x1="888.646" y1="575.932" x2="916.931" y2="547.647" stroke="#CCCCCC"/>
    <line x1="888.646" y1="582.932" x2="916.931" y2="554.647" stroke="#CCCCCC"/>
    </g>
    <rect x="893.5" y="537.5" width="19" height="19" rx="9.5" stroke="#CCCCCC"/>
    <path d="M926.991 552.5V541.62H928.319V552.5H926.991ZM931.234 552.5V544.564H932.466V545.652C932.882 545.028 933.778 544.388 934.882 544.388C936.722 544.388 937.762 545.572 937.762 547.556V552.5H936.482V547.684C936.482 546.26 935.778 545.524 934.562 545.524C933.49 545.524 932.738 546.196 932.514 546.948V552.5H931.234ZM940.778 549.972V545.652H939.354V544.564H940.794V542.5H942.058V544.564H943.834V545.652H942.058V549.972C942.058 551.06 942.538 551.428 943.61 551.428H943.834V552.516C943.674 552.548 943.466 552.564 943.258 552.564C941.626 552.564 940.778 551.764 940.778 549.972ZM952.183 548.932H946.519C946.631 550.58 947.495 551.54 948.903 551.54C949.879 551.54 950.679 551.124 951.143 550.372L952.007 551.092C951.415 551.988 950.391 552.676 948.823 552.676C946.567 552.676 945.175 551.076 945.175 548.532C945.175 546.004 946.599 544.388 948.775 544.388C950.903 544.388 952.231 546.052 952.231 548.308C952.231 548.516 952.215 548.74 952.183 548.932ZM946.535 547.844H950.887C950.807 546.42 949.975 545.524 948.775 545.524C947.559 545.524 946.727 546.356 946.535 547.844ZM954.281 552.5V544.564H955.513V545.988C955.945 545.108 956.729 544.388 957.865 544.388C957.977 544.388 958.089 544.388 958.201 544.42V545.716H957.769C956.713 545.716 955.945 546.292 955.561 547.492V552.5H954.281ZM966.168 548.932H960.504C960.616 550.58 961.48 551.54 962.888 551.54C963.864 551.54 964.664 551.124 965.128 550.372L965.992 551.092C965.4 551.988 964.376 552.676 962.808 552.676C960.552 552.676 959.16 551.076 959.16 548.532C959.16 546.004 960.584 544.388 962.76 544.388C964.888 544.388 966.216 546.052 966.216 548.308C966.216 548.516 966.2 548.74 966.168 548.932ZM960.52 547.844H964.872C964.792 546.42 963.96 545.524 962.76 545.524C961.544 545.524 960.712 546.356 960.52 547.844ZM973.129 545.684L972.297 546.404C971.833 545.748 971.241 545.476 970.569 545.476C969.785 545.476 969.369 545.988 969.369 546.564C969.369 547.156 969.737 547.508 970.393 547.652L971.065 547.796C972.569 548.116 973.465 548.804 973.465 550.196C973.465 551.476 972.361 552.676 970.473 552.676C969.081 552.676 968.057 551.892 967.481 551.028L968.313 550.26C968.777 550.964 969.513 551.588 970.505 551.588C971.513 551.588 972.169 551.076 972.169 550.276C972.169 549.54 971.577 549.188 970.697 548.996L970.025 548.852C968.777 548.58 968.073 547.844 968.073 546.692C968.073 545.476 968.985 544.388 970.617 544.388C971.721 544.388 972.601 544.9 973.129 545.684ZM975.935 549.972V545.652H974.511V544.564H975.951V542.5H977.215V544.564H978.991V545.652H977.215V549.972C977.215 551.06 977.695 551.428 978.766 551.428H978.991V552.516C978.831 552.548 978.623 552.564 978.415 552.564C976.783 552.564 975.935 551.764 975.935 549.972Z" fill="black"/>
    <defs>
    <clipPath id="clip0_988_48857">
    <rect x="96" y="296" width="20" height="100" rx="10" fill="white"/>
    </clipPath>
    <clipPath id="clip1_988_48857">
    <rect width="250" height="250" fill="white" transform="translate(-19 221)"/>
    </clipPath>
    <clipPath id="clip2_988_48857">
    <rect x="192" y="296" width="20" height="100" rx="10" fill="white"/>
    </clipPath>
    <clipPath id="clip3_988_48857">
    <rect width="250" height="250" fill="white" transform="translate(77 221)"/>
    </clipPath>
    <clipPath id="clip4_988_48857">
    <rect x="288" y="296" width="20" height="100" rx="10" fill="white"/>
    </clipPath>
    <clipPath id="clip5_988_48857">
    <rect width="250" height="250" fill="white" transform="translate(173 221)"/>
    </clipPath>
    <clipPath id="clip6_988_48857">
    <rect x="384" y="296" width="20" height="100" rx="10" fill="white"/>
    </clipPath>
    <clipPath id="clip7_988_48857">
    <rect width="250" height="250" fill="white" transform="translate(269 221)"/>
    </clipPath>
    <clipPath id="clip8_988_48857">
    <rect x="480" y="296" width="20" height="100" rx="10" fill="white"/>
    </clipPath>
    <clipPath id="clip9_988_48857">
    <rect width="250" height="250" fill="white" transform="translate(365 221)"/>
    </clipPath>
    <clipPath id="clip10_988_48857">
    <rect x="576" y="296" width="20" height="100" rx="10" fill="white"/>
    </clipPath>
    <clipPath id="clip11_988_48857">
    <rect width="250" height="250" fill="white" transform="translate(461 221)"/>
    </clipPath>
    <clipPath id="clip12_988_48857">
    <rect x="672" y="296" width="20" height="100" rx="10" fill="white"/>
    </clipPath>
    <clipPath id="clip13_988_48857">
    <rect width="250" height="250" fill="white" transform="translate(557 221)"/>
    </clipPath>
    <clipPath id="clip14_988_48857">
    <rect x="768" y="296" width="20" height="100" rx="10" fill="white"/>
    </clipPath>
    <clipPath id="clip15_988_48857">
    <rect width="250" height="250" fill="white" transform="translate(653 221)"/>
    </clipPath>
    <clipPath id="clip16_988_48857">
    <rect x="864" y="176" width="20" height="220" rx="10" fill="white"/>
    </clipPath>
    <clipPath id="clip17_988_48857">
    <rect width="250" height="250" fill="white" transform="translate(749 161)"/>
    </clipPath>
    <clipPath id="clip18_988_48857">
    <rect width="24" height="24" fill="white" transform="translate(0 535)"/>
    </clipPath>
    <clipPath id="clip19_988_48857">
    <rect x="602" y="537" width="20" height="20" rx="10" fill="white"/>
    </clipPath>
    <clipPath id="clip20_988_48857">
    <rect x="893" y="537" width="20" height="20" rx="10" fill="white"/>
    </clipPath>
    </defs>
    </svg>
    