<svg width="980" height="535" viewBox="0 0 980 535" fill="none" xmlns="http://www.w3.org/2000/svg">
    <path d="M333.693 19.616L335.925 17.912C336.789 19.424 337.989 20.648 340.125 20.648C341.757 20.648 342.669 19.64 342.669 18.488C342.669 17.36 342.021 16.568 340.197 16.064L338.973 15.728C336.597 15.104 334.845 13.664 334.845 10.976C334.845 8.408 336.741 6.344 340.269 6.344C342.501 6.344 344.277 7.448 345.381 9.128L343.125 10.808C342.357 9.632 341.397 9.032 340.173 9.032C338.901 9.032 338.205 9.872 338.205 10.808C338.205 11.816 338.709 12.32 340.101 12.704L341.325 13.04C343.917 13.76 346.029 15.296 346.029 18.272C346.029 21.224 343.533 23.336 340.053 23.336C336.789 23.336 334.869 21.56 333.693 19.616ZM348.999 18.656V13.04H346.983V10.688H349.095V7.544H352.167V10.688H354.855V13.04H352.167V18.56C352.167 20 352.719 20.528 354.087 20.528H354.855V23C354.351 23.072 353.679 23.144 353.103 23.144C350.391 23.144 348.999 21.776 348.999 18.656ZM363.879 16.4V15.632C363.879 14.168 363.159 12.968 361.431 12.968C360.063 12.968 359.127 13.64 358.647 14.24L357.015 12.248C357.759 11.288 359.367 10.352 361.503 10.352C365.127 10.352 367.047 12.44 367.047 15.368V23H364.071V22.136C363.207 22.928 362.079 23.336 360.807 23.336C357.999 23.336 356.319 21.704 356.319 19.352C356.319 17 357.999 15.368 360.807 15.368C362.007 15.368 363.039 15.728 363.879 16.4ZM363.879 19.952V18.752C363.423 18.104 362.607 17.624 361.551 17.624C360.087 17.624 359.511 18.464 359.511 19.352C359.511 20.24 360.087 21.08 361.551 21.08C362.607 21.08 363.423 20.6 363.879 19.952ZM370.167 23V10.688H373.215V12.032C373.983 11.072 375.159 10.352 376.743 10.352C379.839 10.352 381.159 12.344 381.159 15.224V23H377.991V15.632C377.991 13.88 377.055 12.968 375.735 12.968C374.583 12.968 373.767 13.76 373.335 14.768V23H370.167ZM392.532 23V21.536C391.74 22.616 390.54 23.336 389.1 23.336C385.956 23.336 383.604 20.912 383.604 16.832C383.604 12.752 385.956 10.328 389.1 10.328C390.468 10.328 391.62 10.976 392.412 11.96V5.96H395.58V23H392.532ZM392.412 18.848V14.816C391.908 13.64 390.852 12.944 389.796 12.944C388.116 12.944 386.82 14.144 386.82 16.832C386.82 19.52 388.116 20.72 389.796 20.72C390.852 20.72 391.908 20.024 392.412 18.848ZM405.551 16.4V15.632C405.551 14.168 404.831 12.968 403.103 12.968C401.735 12.968 400.799 13.64 400.319 14.24L398.687 12.248C399.431 11.288 401.039 10.352 403.175 10.352C406.799 10.352 408.719 12.44 408.719 15.368V23H405.743V22.136C404.879 22.928 403.751 23.336 402.479 23.336C399.671 23.336 397.991 21.704 397.991 19.352C397.991 17 399.671 15.368 402.479 15.368C403.679 15.368 404.711 15.728 405.551 16.4ZM405.551 19.952V18.752C405.095 18.104 404.279 17.624 403.223 17.624C401.759 17.624 401.183 18.464 401.183 19.352C401.183 20.24 401.759 21.08 403.223 21.08C404.279 21.08 405.095 20.6 405.551 19.952ZM415.007 23H411.839V10.688H414.863V12.488C415.487 11.216 416.735 10.352 418.151 10.352C418.463 10.352 418.703 10.376 418.967 10.4V13.376H418.271C416.855 13.376 415.631 13.808 415.007 15.32V23ZM428.977 23V21.536C428.185 22.616 426.985 23.336 425.545 23.336C422.401 23.336 420.049 20.912 420.049 16.832C420.049 12.752 422.401 10.328 425.545 10.328C426.913 10.328 428.065 10.976 428.857 11.96V5.96H432.025V23H428.977ZM428.857 18.848V14.816C428.353 13.64 427.297 12.944 426.241 12.944C424.561 12.944 423.265 14.144 423.265 16.832C423.265 19.52 424.561 20.72 426.241 20.72C427.297 20.72 428.353 20.024 428.857 18.848ZM444.779 6.08L446.195 7.664C444.083 9.728 442.763 12.248 442.763 16.736C442.763 21.224 444.083 23.744 446.195 25.808L444.779 27.392C442.499 25.76 439.691 22.448 439.691 16.736C439.691 11.024 442.499 7.712 444.779 6.08ZM448.728 23V13.04H446.76V10.688H448.728V9.848C448.728 7.472 450.024 5.672 452.736 5.672C453.264 5.672 453.72 5.696 454.224 5.768V8.264H453.72C452.4 8.264 451.896 8.72 451.896 9.896V10.688H454.224V13.04H451.896V23H448.728ZM456.277 23V10.688H459.445V23H456.277ZM456.133 8.672V5.648H459.589V8.672H456.133ZM461.642 10.688H465.146L467.402 14.696L469.658 10.688H473.162V10.784L469.562 16.688L473.546 22.928V23H469.994L467.402 18.608L464.81 23H461.258V22.928L465.242 16.688L461.642 10.784V10.688ZM485.568 17.696H477.192C477.432 19.52 478.464 20.768 480.36 20.768C481.776 20.768 482.736 20.12 483.408 19.04L485.376 20.672C483.984 22.52 482.304 23.336 480.12 23.336C476.568 23.336 474.072 20.816 474.072 16.88C474.072 12.728 476.856 10.352 480.024 10.352C483.312 10.352 485.664 12.896 485.664 16.424C485.664 16.808 485.616 17.336 485.568 17.696ZM477.24 15.536H482.616C482.424 13.688 481.44 12.824 480.024 12.824C478.536 12.824 477.552 13.736 477.24 15.536ZM496.337 23V21.536C495.545 22.616 494.345 23.336 492.905 23.336C489.761 23.336 487.409 20.912 487.409 16.832C487.409 12.752 489.761 10.328 492.905 10.328C494.273 10.328 495.425 10.976 496.217 11.96V5.96H499.385V23H496.337ZM496.217 18.848V14.816C495.713 13.64 494.657 12.944 493.601 12.944C491.921 12.944 490.625 14.144 490.625 16.832C490.625 19.52 491.921 20.72 493.601 20.72C494.657 20.72 495.713 20.024 496.217 18.848ZM507.698 23V10.688H510.866V23H507.698ZM507.554 8.672V5.648H511.01V8.672H507.554ZM514.12 23V10.688H517.168V12.032C517.936 11.072 519.112 10.352 520.696 10.352C523.792 10.352 525.112 12.344 525.112 15.224V23H521.944V15.632C521.944 13.88 521.008 12.968 519.688 12.968C518.536 12.968 517.72 13.76 517.288 14.768V23H514.12ZM528.975 18.656V13.04H526.959V10.688H529.071V7.544H532.143V10.688H534.831V13.04H532.143V18.56C532.143 20 532.695 20.528 534.063 20.528H534.831V23C534.327 23.072 533.655 23.144 533.079 23.144C530.367 23.144 528.975 21.776 528.975 18.656ZM547.795 17.696H539.419C539.659 19.52 540.691 20.768 542.587 20.768C544.003 20.768 544.963 20.12 545.635 19.04L547.603 20.672C546.211 22.52 544.531 23.336 542.347 23.336C538.795 23.336 536.299 20.816 536.299 16.88C536.299 12.728 539.083 10.352 542.251 10.352C545.539 10.352 547.891 12.896 547.891 16.424C547.891 16.808 547.843 17.336 547.795 17.696ZM539.467 15.536H544.843C544.651 13.688 543.667 12.824 542.251 12.824C540.763 12.824 539.779 13.736 539.467 15.536ZM553.499 23H550.331V10.688H553.355V12.488C553.979 11.216 555.227 10.352 556.643 10.352C556.955 10.352 557.195 10.376 557.459 10.4V13.376H556.763C555.347 13.376 554.123 13.808 553.499 15.32V23ZM570.013 17.696H561.637C561.877 19.52 562.909 20.768 564.805 20.768C566.221 20.768 567.181 20.12 567.853 19.04L569.821 20.672C568.429 22.52 566.749 23.336 564.565 23.336C561.013 23.336 558.517 20.816 558.517 16.88C558.517 12.728 561.301 10.352 564.469 10.352C567.757 10.352 570.109 12.896 570.109 16.424C570.109 16.808 570.061 17.336 570.013 17.696ZM561.685 15.536H567.061C566.869 13.688 565.885 12.824 564.469 12.824C562.981 12.824 561.997 13.736 561.685 15.536ZM580.71 12.368L578.766 14.048C578.142 13.28 577.518 12.824 576.63 12.824C575.886 12.824 575.334 13.328 575.334 13.976C575.334 14.576 575.622 14.96 576.486 15.176L577.398 15.392C579.99 15.992 581.238 17.12 581.238 19.376C581.238 21.536 579.342 23.336 576.318 23.336C574.182 23.336 572.526 22.352 571.422 20.792L573.318 19.016C574.158 20.312 575.19 20.864 576.438 20.864C577.422 20.864 578.142 20.36 578.142 19.568C578.142 18.776 577.662 18.416 576.438 18.128L575.502 17.912C573.39 17.432 572.238 16.208 572.238 14.168C572.238 12.128 573.822 10.352 576.678 10.352C578.55 10.352 579.87 11.216 580.71 12.368ZM584.264 18.656V13.04H582.248V10.688H584.36V7.544H587.432V10.688H590.12V13.04H587.432V18.56C587.432 20 587.984 20.528 589.352 20.528H590.12V23C589.616 23.072 588.944 23.144 588.368 23.144C585.656 23.144 584.264 21.776 584.264 18.656ZM600.655 23H597.487V10.688H600.511V12.488C601.135 11.216 602.383 10.352 603.799 10.352C604.111 10.352 604.351 10.376 604.615 10.4V13.376H603.919C602.503 13.376 601.279 13.808 600.655 15.32V23ZM613.019 16.4V15.632C613.019 14.168 612.299 12.968 610.571 12.968C609.203 12.968 608.267 13.64 607.787 14.24L606.155 12.248C606.899 11.288 608.507 10.352 610.643 10.352C614.267 10.352 616.187 12.44 616.187 15.368V23H613.211V22.136C612.347 22.928 611.219 23.336 609.947 23.336C607.139 23.336 605.459 21.704 605.459 19.352C605.459 17 607.139 15.368 609.947 15.368C611.147 15.368 612.179 15.728 613.019 16.4ZM613.019 19.952V18.752C612.563 18.104 611.747 17.624 610.691 17.624C609.227 17.624 608.651 18.464 608.651 19.352C608.651 20.24 609.227 21.08 610.691 21.08C611.747 21.08 612.563 20.6 613.019 19.952ZM619.983 18.656V13.04H617.967V10.688H620.079V7.544H623.151V10.688H625.839V13.04H623.151V18.56C623.151 20 623.703 20.528 625.071 20.528H625.839V23C625.335 23.072 624.663 23.144 624.087 23.144C621.375 23.144 619.983 21.776 619.983 18.656ZM638.803 17.696H630.427C630.667 19.52 631.699 20.768 633.595 20.768C635.011 20.768 635.971 20.12 636.643 19.04L638.611 20.672C637.219 22.52 635.539 23.336 633.355 23.336C629.803 23.336 627.307 20.816 627.307 16.88C627.307 12.728 630.091 10.352 633.259 10.352C636.547 10.352 638.899 12.896 638.899 16.424C638.899 16.808 638.851 17.336 638.803 17.696ZM630.475 15.536H635.851C635.659 13.688 634.675 12.824 633.259 12.824C631.771 12.824 630.787 13.736 630.475 15.536ZM640.64 27.392L639.224 25.808C641.336 23.744 642.656 21.224 642.656 16.736C642.656 12.248 641.336 9.728 639.224 7.664L640.64 6.08C642.92 7.712 645.728 11.024 645.728 16.736C645.728 22.448 642.92 25.76 640.64 27.392Z" fill="black"/>
    <path d="M205.455 76L210.455 62.4H212.315L217.295 76H215.515L214.295 72.58H208.435L207.235 76H205.455ZM210.815 65.84L208.935 71.16H213.795L211.935 65.84C211.655 65.04 211.415 64.26 211.415 63.96H211.355C211.355 64.26 211.115 65.04 210.815 65.84ZM223.456 76V66.08H224.996V67.86C225.536 66.76 226.516 65.86 227.936 65.86C228.076 65.86 228.216 65.86 228.356 65.9V67.52H227.816C226.496 67.52 225.536 68.24 225.056 69.74V76H223.456ZM238.315 71.54H231.235C231.375 73.6 232.455 74.8 234.215 74.8C235.435 74.8 236.435 74.28 237.015 73.34L238.095 74.24C237.355 75.36 236.075 76.22 234.115 76.22C231.295 76.22 229.555 74.22 229.555 71.04C229.555 67.88 231.335 65.86 234.055 65.86C236.715 65.86 238.375 67.94 238.375 70.76C238.375 71.02 238.355 71.3 238.315 71.54ZM231.255 70.18H236.695C236.595 68.4 235.555 67.28 234.055 67.28C232.535 67.28 231.495 68.32 231.255 70.18ZM240.937 79.76V66.08H242.477V67.5C243.197 66.5 244.357 65.86 245.637 65.86C248.277 65.86 249.957 67.98 249.957 71.04C249.957 74.1 248.277 76.22 245.637 76.22C244.397 76.22 243.257 75.62 242.537 74.68V79.76H240.937ZM242.537 69.08V73.02C242.997 74.08 244.057 74.8 245.297 74.8C247.177 74.8 248.297 73.38 248.297 71.04C248.297 68.7 247.177 67.28 245.297 67.28C244.057 67.28 242.997 68.02 242.537 69.08ZM258.277 70.86V69.86C258.277 68.42 257.497 67.28 255.857 67.28C254.677 67.28 254.077 67.7 253.357 68.4L252.437 67.36C253.157 66.6 254.157 65.86 255.897 65.86C258.497 65.86 259.877 67.44 259.877 69.74V76H258.337V75.02C257.597 75.82 256.577 76.22 255.517 76.22C253.277 76.22 251.857 74.76 251.857 72.96C251.857 71.16 253.277 69.7 255.517 69.7C256.557 69.7 257.557 70.1 258.277 70.86ZM258.277 73.64V72.28C257.757 71.4 256.637 71.04 255.737 71.04C254.117 71.04 253.477 72.06 253.477 72.96C253.477 73.86 254.117 74.88 255.737 74.88C256.637 74.88 257.757 74.54 258.277 73.64ZM263.414 79.76L265.454 75L261.614 66.08H263.334L265.614 71.76C265.914 72.5 266.174 73.24 266.174 73.54H266.234C266.334 73.02 266.494 72.5 266.774 71.76L268.894 66.08H270.634L265.154 79.76H263.414ZM272.753 76V66.08H274.293V67.44C274.813 66.66 275.933 65.86 277.313 65.86C278.773 65.86 279.813 66.48 280.353 67.62C280.833 66.78 282.073 65.86 283.633 65.86C285.913 65.86 287.193 67.32 287.193 69.78V76H285.593V69.94C285.593 68.18 284.773 67.28 283.333 67.28C281.993 67.28 281.053 68.12 280.773 69.06V76H279.173V69.94C279.173 68.18 278.353 67.28 276.913 67.28C275.573 67.28 274.633 68.12 274.353 69.06V76H272.753ZM298.491 71.54H291.411C291.551 73.6 292.631 74.8 294.391 74.8C295.611 74.8 296.611 74.28 297.191 73.34L298.271 74.24C297.531 75.36 296.251 76.22 294.291 76.22C291.471 76.22 289.731 74.22 289.731 71.04C289.731 67.88 291.511 65.86 294.231 65.86C296.891 65.86 298.551 67.94 298.551 70.76C298.551 71.02 298.531 71.3 298.491 71.54ZM291.431 70.18H296.871C296.771 68.4 295.731 67.28 294.231 67.28C292.711 67.28 291.671 68.32 291.431 70.18ZM301.113 76V66.08H302.653V67.44C303.173 66.66 304.293 65.86 305.673 65.86C307.973 65.86 309.273 67.34 309.273 69.82V76H307.673V69.98C307.673 68.2 306.793 67.28 305.273 67.28C303.933 67.28 302.993 68.12 302.713 69.06V76H301.113ZM313.043 72.84V67.44H311.263V66.08H313.063V63.5H314.643V66.08H316.863V67.44H314.643V72.84C314.643 74.2 315.243 74.66 316.583 74.66H316.863V76.02C316.663 76.06 316.403 76.08 316.143 76.08C314.103 76.08 313.043 75.08 313.043 72.84ZM323.984 76V66.08H325.524V67.44C326.044 66.66 327.164 65.86 328.544 65.86C330.004 65.86 331.044 66.48 331.584 67.62C332.064 66.78 333.304 65.86 334.864 65.86C337.144 65.86 338.424 67.32 338.424 69.78V76H336.824V69.94C336.824 68.18 336.004 67.28 334.564 67.28C333.224 67.28 332.284 68.12 332.004 69.06V76H330.404V69.94C330.404 68.18 329.584 67.28 328.144 67.28C326.804 67.28 325.864 68.12 325.584 69.06V76H323.984ZM349.721 71.54H342.641C342.781 73.6 343.861 74.8 345.621 74.8C346.841 74.8 347.841 74.28 348.421 73.34L349.501 74.24C348.761 75.36 347.481 76.22 345.521 76.22C342.701 76.22 340.961 74.22 340.961 71.04C340.961 67.88 342.741 65.86 345.461 65.86C348.121 65.86 349.781 67.94 349.781 70.76C349.781 71.02 349.761 71.3 349.721 71.54ZM342.661 70.18H348.101C348.001 68.4 346.961 67.28 345.461 67.28C343.941 67.28 342.901 68.32 342.661 70.18ZM352.867 72.84V67.44H351.087V66.08H352.887V63.5H354.467V66.08H356.687V67.44H354.467V72.84C354.467 74.2 355.067 74.66 356.407 74.66H356.687V76.02C356.487 76.06 356.227 76.08 355.967 76.08C353.927 76.08 352.867 75.08 352.867 72.84ZM359.101 76V61.8H360.701V67.34C361.241 66.6 362.341 65.86 363.661 65.86C365.961 65.86 367.261 67.34 367.261 69.82V76H365.661V69.98C365.661 68.2 364.781 67.28 363.261 67.28C361.921 67.28 360.981 68.12 360.701 69.06V76H359.101ZM374.469 74.8C376.309 74.8 377.489 73.4 377.489 71.04C377.489 68.68 376.309 67.28 374.469 67.28C372.629 67.28 371.449 68.68 371.449 71.04C371.449 73.4 372.629 74.8 374.469 74.8ZM374.469 65.86C377.309 65.86 379.149 67.98 379.149 71.04C379.149 74.1 377.309 76.22 374.469 76.22C371.629 76.22 369.789 74.1 369.789 71.04C369.789 67.98 371.629 65.86 374.469 65.86ZM388.656 76V74.6C387.916 75.6 386.756 76.22 385.496 76.22C382.856 76.22 381.176 74.1 381.176 71.04C381.176 67.98 382.856 65.86 385.496 65.86C386.736 65.86 387.856 66.46 388.596 67.42V61.8H390.196V76H388.656ZM388.596 73.02V69.08C388.136 68.02 387.076 67.28 385.836 67.28C383.956 67.28 382.836 68.7 382.836 71.04C382.836 73.38 383.956 74.8 385.836 74.8C387.076 74.8 388.136 74.08 388.596 73.02ZM398.59 72.84V67.44H396.81V66.08H398.61V63.5H400.19V66.08H402.41V67.44H400.19V72.84C400.19 74.2 400.79 74.66 402.13 74.66H402.41V76.02C402.21 76.06 401.95 76.08 401.69 76.08C399.65 76.08 398.59 75.08 398.59 72.84ZM404.824 76V61.8H406.424V67.34C406.964 66.6 408.064 65.86 409.384 65.86C411.684 65.86 412.984 67.34 412.984 69.82V76H411.384V69.98C411.384 68.2 410.504 67.28 408.984 67.28C407.644 67.28 406.704 68.12 406.424 69.06V76H404.824ZM421.812 70.86V69.86C421.812 68.42 421.032 67.28 419.392 67.28C418.212 67.28 417.612 67.7 416.892 68.4L415.972 67.36C416.692 66.6 417.692 65.86 419.432 65.86C422.032 65.86 423.412 67.44 423.412 69.74V76H421.872V75.02C421.132 75.82 420.112 76.22 419.052 76.22C416.812 76.22 415.392 74.76 415.392 72.96C415.392 71.16 416.812 69.7 419.052 69.7C420.092 69.7 421.092 70.1 421.812 70.86ZM421.812 73.64V72.28C421.292 71.4 420.172 71.04 419.272 71.04C417.652 71.04 417.012 72.06 417.012 72.96C417.012 73.86 417.652 74.88 419.272 74.88C420.172 74.88 421.292 74.54 421.812 73.64ZM427.145 72.84V67.44H425.365V66.08H427.165V63.5H428.745V66.08H430.965V67.44H428.745V72.84C428.745 74.2 429.345 74.66 430.685 74.66H430.965V76.02C430.765 76.06 430.505 76.08 430.245 76.08C428.205 76.08 427.145 75.08 427.145 72.84ZM444.945 76V74.6C444.205 75.6 443.045 76.22 441.785 76.22C439.145 76.22 437.465 74.1 437.465 71.04C437.465 67.98 439.145 65.86 441.785 65.86C443.025 65.86 444.145 66.46 444.885 67.42V61.8H446.485V76H444.945ZM444.885 73.02V69.08C444.425 68.02 443.365 67.28 442.125 67.28C440.245 67.28 439.125 68.7 439.125 71.04C439.125 73.38 440.245 74.8 442.125 74.8C443.365 74.8 444.425 74.08 444.885 73.02ZM449.765 66.08H451.365V76H449.765V66.08ZM449.565 61.8H451.565V63.8H449.565V61.8ZM457.308 76L453.548 66.08H455.248L457.528 72.48C457.808 73.26 458.068 74.04 458.068 74.34H458.128C458.128 74.04 458.368 73.26 458.648 72.48L460.928 66.08H462.628L458.868 76H457.308ZM464.804 66.08H466.404V76H464.804V66.08ZM464.604 61.8H466.604V63.8H464.604V61.8ZM476.547 76V74.6C475.807 75.6 474.647 76.22 473.387 76.22C470.747 76.22 469.067 74.1 469.067 71.04C469.067 67.98 470.747 65.86 473.387 65.86C474.627 65.86 475.747 66.46 476.487 67.42V61.8H478.087V76H476.547ZM476.487 73.02V69.08C476.027 68.02 474.967 67.28 473.727 67.28C471.847 67.28 470.727 68.7 470.727 71.04C470.727 73.38 471.847 74.8 473.727 74.8C474.967 74.8 476.027 74.08 476.487 73.02ZM489.507 71.54H482.427C482.567 73.6 483.647 74.8 485.407 74.8C486.627 74.8 487.627 74.28 488.207 73.34L489.287 74.24C488.547 75.36 487.267 76.22 485.307 76.22C482.487 76.22 480.747 74.22 480.747 71.04C480.747 67.88 482.527 65.86 485.247 65.86C487.907 65.86 489.567 67.94 489.567 70.76C489.567 71.02 489.547 71.3 489.507 71.54ZM482.447 70.18H487.887C487.787 68.4 486.747 67.28 485.247 67.28C483.727 67.28 482.687 68.32 482.447 70.18ZM498.208 67.48L497.168 68.38C496.588 67.56 495.848 67.22 495.008 67.22C494.028 67.22 493.508 67.86 493.508 68.58C493.508 69.32 493.968 69.76 494.788 69.94L495.628 70.12C497.508 70.52 498.628 71.38 498.628 73.12C498.628 74.72 497.248 76.22 494.888 76.22C493.148 76.22 491.868 75.24 491.148 74.16L492.188 73.2C492.768 74.08 493.688 74.86 494.928 74.86C496.188 74.86 497.008 74.22 497.008 73.22C497.008 72.3 496.268 71.86 495.168 71.62L494.328 71.44C492.768 71.1 491.888 70.18 491.888 68.74C491.888 67.22 493.028 65.86 495.068 65.86C496.448 65.86 497.548 66.5 498.208 67.48ZM506.285 72.84V67.44H504.505V66.08H506.305V63.5H507.885V66.08H510.105V67.44H507.885V72.84C507.885 74.2 508.485 74.66 509.825 74.66H510.105V76.02C509.905 76.06 509.645 76.08 509.385 76.08C507.345 76.08 506.285 75.08 506.285 72.84ZM512.519 76V61.8H514.119V67.34C514.659 66.6 515.759 65.86 517.079 65.86C519.379 65.86 520.679 67.34 520.679 69.82V76H519.079V69.98C519.079 68.2 518.199 67.28 516.679 67.28C515.339 67.28 514.399 68.12 514.119 69.06V76H512.519ZM531.987 71.54H524.907C525.047 73.6 526.127 74.8 527.887 74.8C529.107 74.8 530.107 74.28 530.687 73.34L531.767 74.24C531.027 75.36 529.747 76.22 527.787 76.22C524.967 76.22 523.227 74.22 523.227 71.04C523.227 67.88 525.007 65.86 527.727 65.86C530.387 65.86 532.047 67.94 532.047 70.76C532.047 71.02 532.027 71.3 531.987 71.54ZM524.927 70.18H530.367C530.267 68.4 529.227 67.28 527.727 67.28C526.207 67.28 525.167 68.32 524.927 70.18ZM545.396 67.48L544.356 68.38C543.776 67.56 543.036 67.22 542.196 67.22C541.216 67.22 540.696 67.86 540.696 68.58C540.696 69.32 541.156 69.76 541.976 69.94L542.816 70.12C544.696 70.52 545.816 71.38 545.816 73.12C545.816 74.72 544.436 76.22 542.076 76.22C540.336 76.22 539.056 75.24 538.336 74.16L539.376 73.2C539.956 74.08 540.876 74.86 542.116 74.86C543.376 74.86 544.196 74.22 544.196 73.22C544.196 72.3 543.456 71.86 542.356 71.62L541.516 71.44C539.956 71.1 539.076 70.18 539.076 68.74C539.076 67.22 540.216 65.86 542.256 65.86C543.636 65.86 544.736 66.5 545.396 67.48ZM554.019 70.86V69.86C554.019 68.42 553.239 67.28 551.599 67.28C550.419 67.28 549.819 67.7 549.099 68.4L548.179 67.36C548.899 66.6 549.899 65.86 551.639 65.86C554.239 65.86 555.619 67.44 555.619 69.74V76H554.079V75.02C553.339 75.82 552.319 76.22 551.259 76.22C549.019 76.22 547.599 74.76 547.599 72.96C547.599 71.16 549.019 69.7 551.259 69.7C552.299 69.7 553.299 70.1 554.019 70.86ZM554.019 73.64V72.28C553.499 71.4 552.379 71.04 551.479 71.04C549.859 71.04 549.219 72.06 549.219 72.96C549.219 73.86 549.859 74.88 551.479 74.88C552.379 74.88 553.499 74.54 554.019 73.64ZM558.788 76V66.08H560.328V67.44C560.848 66.66 561.968 65.86 563.348 65.86C564.808 65.86 565.848 66.48 566.388 67.62C566.868 66.78 568.108 65.86 569.668 65.86C571.948 65.86 573.228 67.32 573.228 69.78V76H571.628V69.94C571.628 68.18 570.808 67.28 569.368 67.28C568.028 67.28 567.088 68.12 566.808 69.06V76H565.208V69.94C565.208 68.18 564.388 67.28 562.948 67.28C561.608 67.28 560.668 68.12 560.388 69.06V76H558.788ZM584.526 71.54H577.446C577.586 73.6 578.666 74.8 580.426 74.8C581.646 74.8 582.646 74.28 583.226 73.34L584.306 74.24C583.566 75.36 582.286 76.22 580.326 76.22C577.506 76.22 575.766 74.22 575.766 71.04C575.766 67.88 577.546 65.86 580.266 65.86C582.926 65.86 584.586 67.94 584.586 70.76C584.586 71.02 584.566 71.3 584.526 71.54ZM577.466 70.18H582.906C582.806 68.4 581.766 67.28 580.266 67.28C578.746 67.28 577.706 68.32 577.466 70.18ZM597.515 70.86V69.86C597.515 68.42 596.735 67.28 595.095 67.28C593.915 67.28 593.315 67.7 592.595 68.4L591.675 67.36C592.395 66.6 593.395 65.86 595.135 65.86C597.735 65.86 599.115 67.44 599.115 69.74V76H597.575V75.02C596.835 75.82 595.815 76.22 594.755 76.22C592.515 76.22 591.095 74.76 591.095 72.96C591.095 71.16 592.515 69.7 594.755 69.7C595.795 69.7 596.795 70.1 597.515 70.86ZM597.515 73.64V72.28C596.995 71.4 595.875 71.04 594.975 71.04C593.355 71.04 592.715 72.06 592.715 72.96C592.715 73.86 593.355 74.88 594.975 74.88C595.875 74.88 596.995 74.54 597.515 73.64ZM602.285 76V66.08H603.825V67.44C604.345 66.66 605.465 65.86 606.845 65.86C608.305 65.86 609.345 66.48 609.885 67.62C610.365 66.78 611.605 65.86 613.165 65.86C615.445 65.86 616.725 67.32 616.725 69.78V76H615.125V69.94C615.125 68.18 614.305 67.28 612.865 67.28C611.525 67.28 610.585 68.12 610.305 69.06V76H608.705V69.94C608.705 68.18 607.885 67.28 606.445 67.28C605.105 67.28 604.165 68.12 603.885 69.06V76H602.285ZM623.922 74.8C625.762 74.8 626.942 73.4 626.942 71.04C626.942 68.68 625.762 67.28 623.922 67.28C622.082 67.28 620.902 68.68 620.902 71.04C620.902 73.4 622.082 74.8 623.922 74.8ZM623.922 65.86C626.762 65.86 628.602 67.98 628.602 71.04C628.602 74.1 626.762 76.22 623.922 76.22C621.082 76.22 619.242 74.1 619.242 71.04C619.242 67.98 621.082 65.86 623.922 65.86ZM639.289 66.08V76H637.749V74.66C637.209 75.44 636.109 76.22 634.729 76.22C632.429 76.22 631.129 74.74 631.129 72.26V66.08H632.729V72.1C632.729 73.88 633.609 74.8 635.129 74.8C636.469 74.8 637.389 73.96 637.689 73.02V66.08H639.289ZM642.578 76V66.08H644.118V67.44C644.638 66.66 645.758 65.86 647.138 65.86C649.438 65.86 650.738 67.34 650.738 69.82V76H649.138V69.98C649.138 68.2 648.258 67.28 646.738 67.28C645.398 67.28 644.458 68.12 644.178 69.06V76H642.578ZM654.508 72.84V67.44H652.728V66.08H654.528V63.5H656.108V66.08H658.328V67.44H656.108V72.84C656.108 74.2 656.708 74.66 658.048 74.66H658.328V76.02C658.128 76.06 657.868 76.08 657.608 76.08C655.568 76.08 654.508 75.08 654.508 72.84ZM673.589 71.54H666.509C666.649 73.6 667.729 74.8 669.489 74.8C670.709 74.8 671.709 74.28 672.289 73.34L673.369 74.24C672.629 75.36 671.349 76.22 669.389 76.22C666.569 76.22 664.829 74.22 664.829 71.04C664.829 67.88 666.609 65.86 669.329 65.86C671.989 65.86 673.649 67.94 673.649 70.76C673.649 71.02 673.629 71.3 673.589 71.54ZM666.529 70.18H671.969C671.869 68.4 670.829 67.28 669.329 67.28C667.809 67.28 666.769 68.32 666.529 70.18ZM678.597 76L674.837 66.08H676.537L678.817 72.48C679.097 73.26 679.357 74.04 679.357 74.34H679.417C679.417 74.04 679.657 73.26 679.937 72.48L682.217 66.08H683.917L680.157 76H678.597ZM693.96 71.54H686.88C687.02 73.6 688.1 74.8 689.86 74.8C691.08 74.8 692.08 74.28 692.66 73.34L693.74 74.24C693 75.36 691.72 76.22 689.76 76.22C686.94 76.22 685.2 74.22 685.2 71.04C685.2 67.88 686.98 65.86 689.7 65.86C692.36 65.86 694.02 67.94 694.02 70.76C694.02 71.02 694 71.3 693.96 71.54ZM686.9 70.18H692.34C692.24 68.4 691.2 67.28 689.7 67.28C688.18 67.28 687.14 68.32 686.9 70.18ZM696.581 76V66.08H698.121V67.86C698.661 66.76 699.641 65.86 701.061 65.86C701.201 65.86 701.341 65.86 701.481 65.9V67.52H700.941C699.621 67.52 698.661 68.24 698.181 69.74V76H696.581ZM704.293 79.76L706.333 75L702.493 66.08H704.213L706.493 71.76C706.793 72.5 707.053 73.24 707.053 73.54H707.113C707.213 73.02 707.373 72.5 707.653 71.76L709.773 66.08H711.513L706.033 79.76H704.293ZM717.968 76V66.08H719.508V67.44C720.028 66.66 721.148 65.86 722.528 65.86C723.988 65.86 725.028 66.48 725.568 67.62C726.048 66.78 727.288 65.86 728.848 65.86C731.128 65.86 732.408 67.32 732.408 69.78V76H730.808V69.94C730.808 68.18 729.988 67.28 728.548 67.28C727.208 67.28 726.268 68.12 725.988 69.06V76H724.388V69.94C724.388 68.18 723.568 67.28 722.128 67.28C720.788 67.28 719.848 68.12 719.568 69.06V76H717.968ZM739.606 74.8C741.446 74.8 742.626 73.4 742.626 71.04C742.626 68.68 741.446 67.28 739.606 67.28C737.766 67.28 736.586 68.68 736.586 71.04C736.586 73.4 737.766 74.8 739.606 74.8ZM739.606 65.86C742.446 65.86 744.286 67.98 744.286 71.04C744.286 74.1 742.446 76.22 739.606 76.22C736.766 76.22 734.926 74.1 734.926 71.04C734.926 67.98 736.766 65.86 739.606 65.86ZM746.933 76V66.08H748.473V67.44C748.993 66.66 750.113 65.86 751.493 65.86C753.793 65.86 755.093 67.34 755.093 69.82V76H753.493V69.98C753.493 68.2 752.613 67.28 751.093 67.28C749.753 67.28 748.813 68.12 748.533 69.06V76H746.933ZM758.863 72.84V67.44H757.083V66.08H758.883V63.5H760.463V66.08H762.683V67.44H760.463V72.84C760.463 74.2 761.063 74.66 762.403 74.66H762.683V76.02C762.483 76.06 762.223 76.08 761.963 76.08C759.923 76.08 758.863 75.08 758.863 72.84ZM765.097 76V61.8H766.697V67.34C767.237 66.6 768.337 65.86 769.657 65.86C771.957 65.86 773.257 67.34 773.257 69.82V76H771.657V69.98C771.657 68.2 770.777 67.28 769.257 67.28C767.917 67.28 766.977 68.12 766.697 69.06V76H765.097Z" fill="black"/>
    <mask id="path-3-inside-1_288_40039" fill="white">
    <path d="M0 152H980V212H0V152Z"/>
    </mask>
    <path d="M0 152H980V212H0V152Z" fill="white"/>
    <path d="M980 211H0V213H980V211Z" fill="#E5E5E5" mask="url(#path-3-inside-1_288_40039)"/>
    <mask id="path-5-inside-2_288_40039" fill="white">
    <path d="M0 212H980V272H0V212Z"/>
    </mask>
    <path d="M0 212H980V272H0V212Z" fill="white"/>
    <path d="M980 271H0V273H980V271Z" fill="#E5E5E5" mask="url(#path-5-inside-2_288_40039)"/>
    <mask id="path-7-inside-3_288_40039" fill="white">
    <path d="M0 272H980V332H0V272Z"/>
    </mask>
    <path d="M0 272H980V332H0V272Z" fill="white"/>
    <path d="M980 331H0V333H980V331Z" fill="#E5E5E5" mask="url(#path-7-inside-3_288_40039)"/>
    <mask id="path-9-inside-4_288_40039" fill="white">
    <path d="M0 332H980V392H0V332Z"/>
    </mask>
    <path d="M0 332H980V392H0V332Z" fill="white"/>
    <path d="M980 391H0V393H980V391Z" fill="#666666" mask="url(#path-9-inside-4_288_40039)"/>
    <g clip-path="url(#clip0_288_40039)">
    <rect x="48" y="152" width="20" height="220" rx="10" fill="white"/>
    <g clip-path="url(#clip1_288_40039)">
    <line x1="43.6464" y1="286.787" x2="71.9307" y2="258.503" stroke="#CCCCCC"/>
    <line x1="43.6464" y1="293.928" x2="71.9307" y2="265.643" stroke="#CCCCCC"/>
    <line x1="43.6464" y1="300.928" x2="71.9307" y2="272.643" stroke="#CCCCCC"/>
    <line x1="43.6464" y1="154.076" x2="71.9307" y2="125.792" stroke="#CCCCCC"/>
    <line x1="43.6464" y1="307.928" x2="71.9307" y2="279.643" stroke="#CCCCCC"/>
    <line x1="43.6464" y1="161.076" x2="71.9307" y2="132.792" stroke="#CCCCCC"/>
    <line x1="43.6464" y1="314.928" x2="71.9307" y2="286.643" stroke="#CCCCCC"/>
    <line x1="43.6464" y1="168.076" x2="71.9307" y2="139.792" stroke="#CCCCCC"/>
    <line x1="43.6464" y1="321.928" x2="71.9307" y2="293.643" stroke="#CCCCCC"/>
    <line x1="43.6464" y1="175.076" x2="71.9307" y2="146.792" stroke="#CCCCCC"/>
    <line x1="43.6464" y1="328.928" x2="71.9307" y2="300.643" stroke="#CCCCCC"/>
    <line x1="43.6464" y1="182.076" x2="71.9307" y2="153.792" stroke="#CCCCCC"/>
    <line x1="43.6464" y1="335.928" x2="71.9307" y2="307.643" stroke="#CCCCCC"/>
    <line x1="43.6464" y1="189.076" x2="71.9307" y2="160.792" stroke="#CCCCCC"/>
    <line x1="43.6464" y1="342.928" x2="71.9307" y2="314.643" stroke="#CCCCCC"/>
    <line x1="43.6464" y1="196.076" x2="71.9307" y2="167.792" stroke="#CCCCCC"/>
    <line x1="43.6464" y1="349.928" x2="71.9307" y2="321.643" stroke="#CCCCCC"/>
    <line x1="43.6464" y1="203.076" x2="71.9307" y2="174.792" stroke="#CCCCCC"/>
    <line x1="43.6464" y1="356.928" x2="71.9307" y2="328.643" stroke="#CCCCCC"/>
    <line x1="43.6464" y1="210.076" x2="71.9307" y2="181.792" stroke="#CCCCCC"/>
    <line x1="43.6464" y1="363.928" x2="71.9307" y2="335.643" stroke="#CCCCCC"/>
    <line x1="43.6464" y1="217.076" x2="71.9307" y2="188.792" stroke="#CCCCCC"/>
    <line x1="43.6464" y1="370.928" x2="71.9307" y2="342.643" stroke="#CCCCCC"/>
    <line x1="43.6464" y1="224.076" x2="71.9307" y2="195.792" stroke="#CCCCCC"/>
    <line x1="43.6464" y1="377.928" x2="71.9307" y2="349.643" stroke="#CCCCCC"/>
    <line x1="43.6464" y1="231.076" x2="71.9307" y2="202.792" stroke="#CCCCCC"/>
    <line x1="43.6464" y1="384.928" x2="71.9307" y2="356.643" stroke="#CCCCCC"/>
    <line x1="43.6464" y1="238.076" x2="71.9307" y2="209.792" stroke="#CCCCCC"/>
    <line x1="43.6464" y1="391.928" x2="71.9307" y2="363.643" stroke="#CCCCCC"/>
    <line x1="43.6464" y1="245.076" x2="71.9307" y2="216.792" stroke="#CCCCCC"/>
    <line x1="43.6464" y1="398.928" x2="71.9307" y2="370.643" stroke="#CCCCCC"/>
    <line x1="43.6464" y1="252.076" x2="71.9307" y2="223.792" stroke="#CCCCCC"/>
    <line x1="43.6464" y1="259.076" x2="71.9307" y2="230.792" stroke="#CCCCCC"/>
    <line x1="43.6464" y1="266.076" x2="71.9307" y2="237.792" stroke="#CCCCCC"/>
    <line x1="43.6464" y1="273.076" x2="71.9307" y2="244.792" stroke="#CCCCCC"/>
    <line x1="43.6464" y1="280.076" x2="71.9307" y2="251.792" stroke="#CCCCCC"/>
    </g>
    </g>
    <rect x="48.5" y="152.5" width="19" height="219" rx="9.5" stroke="#CCCCCC"/>
    <rect x="48" y="344" width="20" height="28" rx="10" fill="#AF6249"/>
    <g clip-path="url(#clip2_288_40039)">
    <rect x="144" y="152" width="20" height="220" rx="10" fill="white"/>
    <g clip-path="url(#clip3_288_40039)">
    <line x1="139.646" y1="286.787" x2="167.931" y2="258.503" stroke="#CCCCCC"/>
    <line x1="139.646" y1="293.928" x2="167.931" y2="265.643" stroke="#CCCCCC"/>
    <line x1="139.646" y1="300.928" x2="167.931" y2="272.643" stroke="#CCCCCC"/>
    <line x1="139.646" y1="154.076" x2="167.931" y2="125.792" stroke="#CCCCCC"/>
    <line x1="139.646" y1="307.928" x2="167.931" y2="279.643" stroke="#CCCCCC"/>
    <line x1="139.646" y1="161.076" x2="167.931" y2="132.792" stroke="#CCCCCC"/>
    <line x1="139.646" y1="314.928" x2="167.931" y2="286.643" stroke="#CCCCCC"/>
    <line x1="139.646" y1="168.076" x2="167.931" y2="139.792" stroke="#CCCCCC"/>
    <line x1="139.646" y1="321.928" x2="167.931" y2="293.643" stroke="#CCCCCC"/>
    <line x1="139.646" y1="175.076" x2="167.931" y2="146.792" stroke="#CCCCCC"/>
    <line x1="139.646" y1="328.928" x2="167.931" y2="300.643" stroke="#CCCCCC"/>
    <line x1="139.646" y1="182.076" x2="167.931" y2="153.792" stroke="#CCCCCC"/>
    <line x1="139.646" y1="335.928" x2="167.931" y2="307.643" stroke="#CCCCCC"/>
    <line x1="139.646" y1="189.076" x2="167.931" y2="160.792" stroke="#CCCCCC"/>
    <line x1="139.646" y1="342.928" x2="167.931" y2="314.643" stroke="#CCCCCC"/>
    <line x1="139.646" y1="196.076" x2="167.931" y2="167.792" stroke="#CCCCCC"/>
    <line x1="139.646" y1="349.928" x2="167.931" y2="321.643" stroke="#CCCCCC"/>
    <line x1="139.646" y1="203.076" x2="167.931" y2="174.792" stroke="#CCCCCC"/>
    <line x1="139.646" y1="356.928" x2="167.931" y2="328.643" stroke="#CCCCCC"/>
    <line x1="139.646" y1="210.076" x2="167.931" y2="181.792" stroke="#CCCCCC"/>
    <line x1="139.646" y1="363.928" x2="167.931" y2="335.643" stroke="#CCCCCC"/>
    <line x1="139.646" y1="217.076" x2="167.931" y2="188.792" stroke="#CCCCCC"/>
    <line x1="139.646" y1="370.928" x2="167.931" y2="342.643" stroke="#CCCCCC"/>
    <line x1="139.646" y1="224.076" x2="167.931" y2="195.792" stroke="#CCCCCC"/>
    <line x1="139.646" y1="377.928" x2="167.931" y2="349.643" stroke="#CCCCCC"/>
    <line x1="139.646" y1="231.076" x2="167.931" y2="202.792" stroke="#CCCCCC"/>
    <line x1="139.646" y1="384.928" x2="167.931" y2="356.643" stroke="#CCCCCC"/>
    <line x1="139.646" y1="238.076" x2="167.931" y2="209.792" stroke="#CCCCCC"/>
    <line x1="139.646" y1="391.928" x2="167.931" y2="363.643" stroke="#CCCCCC"/>
    <line x1="139.646" y1="245.076" x2="167.931" y2="216.792" stroke="#CCCCCC"/>
    <line x1="139.646" y1="398.928" x2="167.931" y2="370.643" stroke="#CCCCCC"/>
    <line x1="139.646" y1="252.076" x2="167.931" y2="223.792" stroke="#CCCCCC"/>
    <line x1="139.646" y1="259.076" x2="167.931" y2="230.792" stroke="#CCCCCC"/>
    <line x1="139.646" y1="266.076" x2="167.931" y2="237.792" stroke="#CCCCCC"/>
    <line x1="139.646" y1="273.076" x2="167.931" y2="244.792" stroke="#CCCCCC"/>
    <line x1="139.646" y1="280.076" x2="167.931" y2="251.792" stroke="#CCCCCC"/>
    </g>
    </g>
    <rect x="144.5" y="152.5" width="19" height="219" rx="9.5" stroke="#CCCCCC"/>
    <rect x="144" y="328" width="20" height="44" rx="10" fill="#AF6249"/>
    <g clip-path="url(#clip4_288_40039)">
    <rect x="240" y="152" width="20" height="220" rx="10" fill="white"/>
    <g clip-path="url(#clip5_288_40039)">
    <line x1="235.646" y1="286.787" x2="263.931" y2="258.503" stroke="#CCCCCC"/>
    <line x1="235.646" y1="293.928" x2="263.931" y2="265.643" stroke="#CCCCCC"/>
    <line x1="235.646" y1="300.928" x2="263.931" y2="272.643" stroke="#CCCCCC"/>
    <line x1="235.646" y1="154.076" x2="263.931" y2="125.792" stroke="#CCCCCC"/>
    <line x1="235.646" y1="307.928" x2="263.931" y2="279.643" stroke="#CCCCCC"/>
    <line x1="235.646" y1="161.076" x2="263.931" y2="132.792" stroke="#CCCCCC"/>
    <line x1="235.646" y1="314.928" x2="263.931" y2="286.643" stroke="#CCCCCC"/>
    <line x1="235.646" y1="168.076" x2="263.931" y2="139.792" stroke="#CCCCCC"/>
    <line x1="235.646" y1="321.928" x2="263.931" y2="293.643" stroke="#CCCCCC"/>
    <line x1="235.646" y1="175.076" x2="263.931" y2="146.792" stroke="#CCCCCC"/>
    <line x1="235.646" y1="328.928" x2="263.931" y2="300.643" stroke="#CCCCCC"/>
    <line x1="235.646" y1="182.076" x2="263.931" y2="153.792" stroke="#CCCCCC"/>
    <line x1="235.646" y1="335.928" x2="263.931" y2="307.643" stroke="#CCCCCC"/>
    <line x1="235.646" y1="189.076" x2="263.931" y2="160.792" stroke="#CCCCCC"/>
    <line x1="235.646" y1="342.928" x2="263.931" y2="314.643" stroke="#CCCCCC"/>
    <line x1="235.646" y1="196.076" x2="263.931" y2="167.792" stroke="#CCCCCC"/>
    <line x1="235.646" y1="349.928" x2="263.931" y2="321.643" stroke="#CCCCCC"/>
    <line x1="235.646" y1="203.076" x2="263.931" y2="174.792" stroke="#CCCCCC"/>
    <line x1="235.646" y1="356.928" x2="263.931" y2="328.643" stroke="#CCCCCC"/>
    <line x1="235.646" y1="210.076" x2="263.931" y2="181.792" stroke="#CCCCCC"/>
    <line x1="235.646" y1="363.928" x2="263.931" y2="335.643" stroke="#CCCCCC"/>
    <line x1="235.646" y1="217.076" x2="263.931" y2="188.792" stroke="#CCCCCC"/>
    <line x1="235.646" y1="370.928" x2="263.931" y2="342.643" stroke="#CCCCCC"/>
    <line x1="235.646" y1="224.076" x2="263.931" y2="195.792" stroke="#CCCCCC"/>
    <line x1="235.646" y1="377.928" x2="263.931" y2="349.643" stroke="#CCCCCC"/>
    <line x1="235.646" y1="231.076" x2="263.931" y2="202.792" stroke="#CCCCCC"/>
    <line x1="235.646" y1="384.928" x2="263.931" y2="356.643" stroke="#CCCCCC"/>
    <line x1="235.646" y1="238.076" x2="263.931" y2="209.792" stroke="#CCCCCC"/>
    <line x1="235.646" y1="391.928" x2="263.931" y2="363.643" stroke="#CCCCCC"/>
    <line x1="235.646" y1="245.076" x2="263.931" y2="216.792" stroke="#CCCCCC"/>
    <line x1="235.646" y1="398.928" x2="263.931" y2="370.643" stroke="#CCCCCC"/>
    <line x1="235.646" y1="252.076" x2="263.931" y2="223.792" stroke="#CCCCCC"/>
    <line x1="235.646" y1="259.076" x2="263.931" y2="230.792" stroke="#CCCCCC"/>
    <line x1="235.646" y1="266.076" x2="263.931" y2="237.792" stroke="#CCCCCC"/>
    <line x1="235.646" y1="273.076" x2="263.931" y2="244.792" stroke="#CCCCCC"/>
    <line x1="235.646" y1="280.076" x2="263.931" y2="251.792" stroke="#CCCCCC"/>
    </g>
    </g>
    <rect x="240.5" y="152.5" width="19" height="219" rx="9.5" stroke="#CCCCCC"/>
    <rect x="240" y="312" width="20" height="60" rx="10" fill="#AF6249"/>
    <g clip-path="url(#clip6_288_40039)">
    <rect x="336" y="152" width="20" height="220" rx="10" fill="white"/>
    <g clip-path="url(#clip7_288_40039)">
    <line x1="331.646" y1="286.787" x2="359.931" y2="258.503" stroke="#CCCCCC"/>
    <line x1="331.646" y1="293.928" x2="359.931" y2="265.643" stroke="#CCCCCC"/>
    <line x1="331.646" y1="300.928" x2="359.931" y2="272.643" stroke="#CCCCCC"/>
    <line x1="331.646" y1="154.076" x2="359.931" y2="125.792" stroke="#CCCCCC"/>
    <line x1="331.646" y1="307.928" x2="359.931" y2="279.643" stroke="#CCCCCC"/>
    <line x1="331.646" y1="161.076" x2="359.931" y2="132.792" stroke="#CCCCCC"/>
    <line x1="331.646" y1="314.928" x2="359.931" y2="286.643" stroke="#CCCCCC"/>
    <line x1="331.646" y1="168.076" x2="359.931" y2="139.792" stroke="#CCCCCC"/>
    <line x1="331.646" y1="321.928" x2="359.931" y2="293.643" stroke="#CCCCCC"/>
    <line x1="331.646" y1="175.076" x2="359.931" y2="146.792" stroke="#CCCCCC"/>
    <line x1="331.646" y1="328.928" x2="359.931" y2="300.643" stroke="#CCCCCC"/>
    <line x1="331.646" y1="182.076" x2="359.931" y2="153.792" stroke="#CCCCCC"/>
    <line x1="331.646" y1="335.928" x2="359.931" y2="307.643" stroke="#CCCCCC"/>
    <line x1="331.646" y1="189.076" x2="359.931" y2="160.792" stroke="#CCCCCC"/>
    <line x1="331.646" y1="342.928" x2="359.931" y2="314.643" stroke="#CCCCCC"/>
    <line x1="331.646" y1="196.076" x2="359.931" y2="167.792" stroke="#CCCCCC"/>
    <line x1="331.646" y1="349.928" x2="359.931" y2="321.643" stroke="#CCCCCC"/>
    <line x1="331.646" y1="203.076" x2="359.931" y2="174.792" stroke="#CCCCCC"/>
    <line x1="331.646" y1="356.928" x2="359.931" y2="328.643" stroke="#CCCCCC"/>
    <line x1="331.646" y1="210.076" x2="359.931" y2="181.792" stroke="#CCCCCC"/>
    <line x1="331.646" y1="363.928" x2="359.931" y2="335.643" stroke="#CCCCCC"/>
    <line x1="331.646" y1="217.076" x2="359.931" y2="188.792" stroke="#CCCCCC"/>
    <line x1="331.646" y1="370.928" x2="359.931" y2="342.643" stroke="#CCCCCC"/>
    <line x1="331.646" y1="224.076" x2="359.931" y2="195.792" stroke="#CCCCCC"/>
    <line x1="331.646" y1="377.928" x2="359.931" y2="349.643" stroke="#CCCCCC"/>
    <line x1="331.646" y1="231.076" x2="359.931" y2="202.792" stroke="#CCCCCC"/>
    <line x1="331.646" y1="384.928" x2="359.931" y2="356.643" stroke="#CCCCCC"/>
    <line x1="331.646" y1="238.076" x2="359.931" y2="209.792" stroke="#CCCCCC"/>
    <line x1="331.646" y1="391.928" x2="359.931" y2="363.643" stroke="#CCCCCC"/>
    <line x1="331.646" y1="245.076" x2="359.931" y2="216.792" stroke="#CCCCCC"/>
    <line x1="331.646" y1="398.928" x2="359.931" y2="370.643" stroke="#CCCCCC"/>
    <line x1="331.646" y1="252.076" x2="359.931" y2="223.792" stroke="#CCCCCC"/>
    <line x1="331.646" y1="259.076" x2="359.931" y2="230.792" stroke="#CCCCCC"/>
    <line x1="331.646" y1="266.076" x2="359.931" y2="237.792" stroke="#CCCCCC"/>
    <line x1="331.646" y1="273.076" x2="359.931" y2="244.792" stroke="#CCCCCC"/>
    <line x1="331.646" y1="280.076" x2="359.931" y2="251.792" stroke="#CCCCCC"/>
    </g>
    </g>
    <rect x="336.5" y="152.5" width="19" height="219" rx="9.5" stroke="#CCCCCC"/>
    <rect x="336" y="296" width="20" height="76" rx="10" fill="#AF6249"/>
    <g clip-path="url(#clip8_288_40039)">
    <rect x="432" y="152" width="20" height="220" rx="10" fill="white"/>
    <g clip-path="url(#clip9_288_40039)">
    <line x1="427.646" y1="286.787" x2="455.931" y2="258.503" stroke="#CCCCCC"/>
    <line x1="427.646" y1="293.928" x2="455.931" y2="265.643" stroke="#CCCCCC"/>
    <line x1="427.646" y1="300.928" x2="455.931" y2="272.643" stroke="#CCCCCC"/>
    <line x1="427.646" y1="154.076" x2="455.931" y2="125.792" stroke="#CCCCCC"/>
    <line x1="427.646" y1="307.928" x2="455.931" y2="279.643" stroke="#CCCCCC"/>
    <line x1="427.646" y1="161.076" x2="455.931" y2="132.792" stroke="#CCCCCC"/>
    <line x1="427.646" y1="314.928" x2="455.931" y2="286.643" stroke="#CCCCCC"/>
    <line x1="427.646" y1="168.076" x2="455.931" y2="139.792" stroke="#CCCCCC"/>
    <line x1="427.646" y1="321.928" x2="455.931" y2="293.643" stroke="#CCCCCC"/>
    <line x1="427.646" y1="175.076" x2="455.931" y2="146.792" stroke="#CCCCCC"/>
    <line x1="427.646" y1="328.928" x2="455.931" y2="300.643" stroke="#CCCCCC"/>
    <line x1="427.646" y1="182.076" x2="455.931" y2="153.792" stroke="#CCCCCC"/>
    <line x1="427.646" y1="335.928" x2="455.931" y2="307.643" stroke="#CCCCCC"/>
    <line x1="427.646" y1="189.076" x2="455.931" y2="160.792" stroke="#CCCCCC"/>
    <line x1="427.646" y1="342.928" x2="455.931" y2="314.643" stroke="#CCCCCC"/>
    <line x1="427.646" y1="196.076" x2="455.931" y2="167.792" stroke="#CCCCCC"/>
    <line x1="427.646" y1="349.928" x2="455.931" y2="321.643" stroke="#CCCCCC"/>
    <line x1="427.646" y1="203.076" x2="455.931" y2="174.792" stroke="#CCCCCC"/>
    <line x1="427.646" y1="356.928" x2="455.931" y2="328.643" stroke="#CCCCCC"/>
    <line x1="427.646" y1="210.076" x2="455.931" y2="181.792" stroke="#CCCCCC"/>
    <line x1="427.646" y1="363.928" x2="455.931" y2="335.643" stroke="#CCCCCC"/>
    <line x1="427.646" y1="217.076" x2="455.931" y2="188.792" stroke="#CCCCCC"/>
    <line x1="427.646" y1="370.928" x2="455.931" y2="342.643" stroke="#CCCCCC"/>
    <line x1="427.646" y1="224.076" x2="455.931" y2="195.792" stroke="#CCCCCC"/>
    <line x1="427.646" y1="377.928" x2="455.931" y2="349.643" stroke="#CCCCCC"/>
    <line x1="427.646" y1="231.076" x2="455.931" y2="202.792" stroke="#CCCCCC"/>
    <line x1="427.646" y1="384.928" x2="455.931" y2="356.643" stroke="#CCCCCC"/>
    <line x1="427.646" y1="238.076" x2="455.931" y2="209.792" stroke="#CCCCCC"/>
    <line x1="427.646" y1="391.928" x2="455.931" y2="363.643" stroke="#CCCCCC"/>
    <line x1="427.646" y1="245.076" x2="455.931" y2="216.792" stroke="#CCCCCC"/>
    <line x1="427.646" y1="398.928" x2="455.931" y2="370.643" stroke="#CCCCCC"/>
    <line x1="427.646" y1="252.076" x2="455.931" y2="223.792" stroke="#CCCCCC"/>
    <line x1="427.646" y1="259.076" x2="455.931" y2="230.792" stroke="#CCCCCC"/>
    <line x1="427.646" y1="266.076" x2="455.931" y2="237.792" stroke="#CCCCCC"/>
    <line x1="427.646" y1="273.076" x2="455.931" y2="244.792" stroke="#CCCCCC"/>
    <line x1="427.646" y1="280.076" x2="455.931" y2="251.792" stroke="#CCCCCC"/>
    </g>
    </g>
    <rect x="432.5" y="152.5" width="19" height="219" rx="9.5" stroke="#CCCCCC"/>
    <rect x="432" y="280" width="20" height="92" rx="10" fill="#AF6249"/>
    <g clip-path="url(#clip10_288_40039)">
    <rect x="528" y="152" width="20" height="220" rx="10" fill="white"/>
    <g clip-path="url(#clip11_288_40039)">
    <line x1="523.646" y1="286.787" x2="551.931" y2="258.503" stroke="#CCCCCC"/>
    <line x1="523.646" y1="293.928" x2="551.931" y2="265.643" stroke="#CCCCCC"/>
    <line x1="523.646" y1="300.928" x2="551.931" y2="272.643" stroke="#CCCCCC"/>
    <line x1="523.646" y1="154.076" x2="551.931" y2="125.792" stroke="#CCCCCC"/>
    <line x1="523.646" y1="307.928" x2="551.931" y2="279.643" stroke="#CCCCCC"/>
    <line x1="523.646" y1="161.076" x2="551.931" y2="132.792" stroke="#CCCCCC"/>
    <line x1="523.646" y1="314.928" x2="551.931" y2="286.643" stroke="#CCCCCC"/>
    <line x1="523.646" y1="168.076" x2="551.931" y2="139.792" stroke="#CCCCCC"/>
    <line x1="523.646" y1="321.928" x2="551.931" y2="293.643" stroke="#CCCCCC"/>
    <line x1="523.646" y1="175.076" x2="551.931" y2="146.792" stroke="#CCCCCC"/>
    <line x1="523.646" y1="328.928" x2="551.931" y2="300.643" stroke="#CCCCCC"/>
    <line x1="523.646" y1="182.076" x2="551.931" y2="153.792" stroke="#CCCCCC"/>
    <line x1="523.646" y1="335.928" x2="551.931" y2="307.643" stroke="#CCCCCC"/>
    <line x1="523.646" y1="189.076" x2="551.931" y2="160.792" stroke="#CCCCCC"/>
    <line x1="523.646" y1="342.928" x2="551.931" y2="314.643" stroke="#CCCCCC"/>
    <line x1="523.646" y1="196.076" x2="551.931" y2="167.792" stroke="#CCCCCC"/>
    <line x1="523.646" y1="349.928" x2="551.931" y2="321.643" stroke="#CCCCCC"/>
    <line x1="523.646" y1="203.076" x2="551.931" y2="174.792" stroke="#CCCCCC"/>
    <line x1="523.646" y1="356.928" x2="551.931" y2="328.643" stroke="#CCCCCC"/>
    <line x1="523.646" y1="210.076" x2="551.931" y2="181.792" stroke="#CCCCCC"/>
    <line x1="523.646" y1="363.928" x2="551.931" y2="335.643" stroke="#CCCCCC"/>
    <line x1="523.646" y1="217.076" x2="551.931" y2="188.792" stroke="#CCCCCC"/>
    <line x1="523.646" y1="370.928" x2="551.931" y2="342.643" stroke="#CCCCCC"/>
    <line x1="523.646" y1="224.076" x2="551.931" y2="195.792" stroke="#CCCCCC"/>
    <line x1="523.646" y1="377.928" x2="551.931" y2="349.643" stroke="#CCCCCC"/>
    <line x1="523.646" y1="231.076" x2="551.931" y2="202.792" stroke="#CCCCCC"/>
    <line x1="523.646" y1="384.928" x2="551.931" y2="356.643" stroke="#CCCCCC"/>
    <line x1="523.646" y1="238.076" x2="551.931" y2="209.792" stroke="#CCCCCC"/>
    <line x1="523.646" y1="391.928" x2="551.931" y2="363.643" stroke="#CCCCCC"/>
    <line x1="523.646" y1="245.076" x2="551.931" y2="216.792" stroke="#CCCCCC"/>
    <line x1="523.646" y1="398.928" x2="551.931" y2="370.643" stroke="#CCCCCC"/>
    <line x1="523.646" y1="252.076" x2="551.931" y2="223.792" stroke="#CCCCCC"/>
    <line x1="523.646" y1="259.076" x2="551.931" y2="230.792" stroke="#CCCCCC"/>
    <line x1="523.646" y1="266.076" x2="551.931" y2="237.792" stroke="#CCCCCC"/>
    <line x1="523.646" y1="273.076" x2="551.931" y2="244.792" stroke="#CCCCCC"/>
    <line x1="523.646" y1="280.076" x2="551.931" y2="251.792" stroke="#CCCCCC"/>
    </g>
    </g>
    <rect x="528.5" y="152.5" width="19" height="219" rx="9.5" stroke="#CCCCCC"/>
    <rect x="528" y="264" width="20" height="108" rx="10" fill="#AF6249"/>
    <g clip-path="url(#clip12_288_40039)">
    <rect x="624" y="152" width="20" height="220" rx="10" fill="white"/>
    <g clip-path="url(#clip13_288_40039)">
    <line x1="619.646" y1="286.787" x2="647.931" y2="258.503" stroke="#CCCCCC"/>
    <line x1="619.646" y1="293.928" x2="647.931" y2="265.643" stroke="#CCCCCC"/>
    <line x1="619.646" y1="300.928" x2="647.931" y2="272.643" stroke="#CCCCCC"/>
    <line x1="619.646" y1="154.076" x2="647.931" y2="125.792" stroke="#CCCCCC"/>
    <line x1="619.646" y1="307.928" x2="647.931" y2="279.643" stroke="#CCCCCC"/>
    <line x1="619.646" y1="161.076" x2="647.931" y2="132.792" stroke="#CCCCCC"/>
    <line x1="619.646" y1="314.928" x2="647.931" y2="286.643" stroke="#CCCCCC"/>
    <line x1="619.646" y1="168.076" x2="647.931" y2="139.792" stroke="#CCCCCC"/>
    <line x1="619.646" y1="321.928" x2="647.931" y2="293.643" stroke="#CCCCCC"/>
    <line x1="619.646" y1="175.076" x2="647.931" y2="146.792" stroke="#CCCCCC"/>
    <line x1="619.646" y1="328.928" x2="647.931" y2="300.643" stroke="#CCCCCC"/>
    <line x1="619.646" y1="182.076" x2="647.931" y2="153.792" stroke="#CCCCCC"/>
    <line x1="619.646" y1="335.928" x2="647.931" y2="307.643" stroke="#CCCCCC"/>
    <line x1="619.646" y1="189.076" x2="647.931" y2="160.792" stroke="#CCCCCC"/>
    <line x1="619.646" y1="342.928" x2="647.931" y2="314.643" stroke="#CCCCCC"/>
    <line x1="619.646" y1="196.076" x2="647.931" y2="167.792" stroke="#CCCCCC"/>
    <line x1="619.646" y1="349.928" x2="647.931" y2="321.643" stroke="#CCCCCC"/>
    <line x1="619.646" y1="203.076" x2="647.931" y2="174.792" stroke="#CCCCCC"/>
    <line x1="619.646" y1="356.928" x2="647.931" y2="328.643" stroke="#CCCCCC"/>
    <line x1="619.646" y1="210.076" x2="647.931" y2="181.792" stroke="#CCCCCC"/>
    <line x1="619.646" y1="363.928" x2="647.931" y2="335.643" stroke="#CCCCCC"/>
    <line x1="619.646" y1="217.076" x2="647.931" y2="188.792" stroke="#CCCCCC"/>
    <line x1="619.646" y1="370.928" x2="647.931" y2="342.643" stroke="#CCCCCC"/>
    <line x1="619.646" y1="224.076" x2="647.931" y2="195.792" stroke="#CCCCCC"/>
    <line x1="619.646" y1="377.928" x2="647.931" y2="349.643" stroke="#CCCCCC"/>
    <line x1="619.646" y1="231.076" x2="647.931" y2="202.792" stroke="#CCCCCC"/>
    <line x1="619.646" y1="384.928" x2="647.931" y2="356.643" stroke="#CCCCCC"/>
    <line x1="619.646" y1="238.076" x2="647.931" y2="209.792" stroke="#CCCCCC"/>
    <line x1="619.646" y1="391.928" x2="647.931" y2="363.643" stroke="#CCCCCC"/>
    <line x1="619.646" y1="245.076" x2="647.931" y2="216.792" stroke="#CCCCCC"/>
    <line x1="619.646" y1="398.928" x2="647.931" y2="370.643" stroke="#CCCCCC"/>
    <line x1="619.646" y1="252.076" x2="647.931" y2="223.792" stroke="#CCCCCC"/>
    <line x1="619.646" y1="259.076" x2="647.931" y2="230.792" stroke="#CCCCCC"/>
    <line x1="619.646" y1="266.076" x2="647.931" y2="237.792" stroke="#CCCCCC"/>
    <line x1="619.646" y1="273.076" x2="647.931" y2="244.792" stroke="#CCCCCC"/>
    <line x1="619.646" y1="280.076" x2="647.931" y2="251.792" stroke="#CCCCCC"/>
    </g>
    </g>
    <rect x="624.5" y="152.5" width="19" height="219" rx="9.5" stroke="#CCCCCC"/>
    <rect x="624" y="248" width="20" height="124" rx="10" fill="#AF6249"/>
    <g clip-path="url(#clip14_288_40039)">
    <rect x="720" y="152" width="20" height="220" rx="10" fill="white"/>
    <g clip-path="url(#clip15_288_40039)">
    <line x1="715.646" y1="286.787" x2="743.931" y2="258.503" stroke="#CCCCCC"/>
    <line x1="715.646" y1="293.928" x2="743.931" y2="265.643" stroke="#CCCCCC"/>
    <line x1="715.646" y1="300.928" x2="743.931" y2="272.643" stroke="#CCCCCC"/>
    <line x1="715.646" y1="154.076" x2="743.931" y2="125.792" stroke="#CCCCCC"/>
    <line x1="715.646" y1="307.928" x2="743.931" y2="279.643" stroke="#CCCCCC"/>
    <line x1="715.646" y1="161.076" x2="743.931" y2="132.792" stroke="#CCCCCC"/>
    <line x1="715.646" y1="314.928" x2="743.931" y2="286.643" stroke="#CCCCCC"/>
    <line x1="715.646" y1="168.076" x2="743.931" y2="139.792" stroke="#CCCCCC"/>
    <line x1="715.646" y1="321.928" x2="743.931" y2="293.643" stroke="#CCCCCC"/>
    <line x1="715.646" y1="175.076" x2="743.931" y2="146.792" stroke="#CCCCCC"/>
    <line x1="715.646" y1="328.928" x2="743.931" y2="300.643" stroke="#CCCCCC"/>
    <line x1="715.646" y1="182.076" x2="743.931" y2="153.792" stroke="#CCCCCC"/>
    <line x1="715.646" y1="335.928" x2="743.931" y2="307.643" stroke="#CCCCCC"/>
    <line x1="715.646" y1="189.076" x2="743.931" y2="160.792" stroke="#CCCCCC"/>
    <line x1="715.646" y1="342.928" x2="743.931" y2="314.643" stroke="#CCCCCC"/>
    <line x1="715.646" y1="196.076" x2="743.931" y2="167.792" stroke="#CCCCCC"/>
    <line x1="715.646" y1="349.928" x2="743.931" y2="321.643" stroke="#CCCCCC"/>
    <line x1="715.646" y1="203.076" x2="743.931" y2="174.792" stroke="#CCCCCC"/>
    <line x1="715.646" y1="356.928" x2="743.931" y2="328.643" stroke="#CCCCCC"/>
    <line x1="715.646" y1="210.076" x2="743.931" y2="181.792" stroke="#CCCCCC"/>
    <line x1="715.646" y1="363.928" x2="743.931" y2="335.643" stroke="#CCCCCC"/>
    <line x1="715.646" y1="217.076" x2="743.931" y2="188.792" stroke="#CCCCCC"/>
    <line x1="715.646" y1="370.928" x2="743.931" y2="342.643" stroke="#CCCCCC"/>
    <line x1="715.646" y1="224.076" x2="743.931" y2="195.792" stroke="#CCCCCC"/>
    <line x1="715.646" y1="377.928" x2="743.931" y2="349.643" stroke="#CCCCCC"/>
    <line x1="715.646" y1="231.076" x2="743.931" y2="202.792" stroke="#CCCCCC"/>
    <line x1="715.646" y1="384.928" x2="743.931" y2="356.643" stroke="#CCCCCC"/>
    <line x1="715.646" y1="238.076" x2="743.931" y2="209.792" stroke="#CCCCCC"/>
    <line x1="715.646" y1="391.928" x2="743.931" y2="363.643" stroke="#CCCCCC"/>
    <line x1="715.646" y1="245.076" x2="743.931" y2="216.792" stroke="#CCCCCC"/>
    <line x1="715.646" y1="398.928" x2="743.931" y2="370.643" stroke="#CCCCCC"/>
    <line x1="715.646" y1="252.076" x2="743.931" y2="223.792" stroke="#CCCCCC"/>
    <line x1="715.646" y1="259.076" x2="743.931" y2="230.792" stroke="#CCCCCC"/>
    <line x1="715.646" y1="266.076" x2="743.931" y2="237.792" stroke="#CCCCCC"/>
    <line x1="715.646" y1="273.076" x2="743.931" y2="244.792" stroke="#CCCCCC"/>
    <line x1="715.646" y1="280.076" x2="743.931" y2="251.792" stroke="#CCCCCC"/>
    </g>
    </g>
    <rect x="720.5" y="152.5" width="19" height="219" rx="9.5" stroke="#CCCCCC"/>
    <rect x="720" y="232" width="20" height="140" rx="10" fill="#AF6249"/>
    <g clip-path="url(#clip16_288_40039)">
    <rect x="816" y="152" width="20" height="220" rx="10" fill="white"/>
    <g clip-path="url(#clip17_288_40039)">
    <line x1="811.646" y1="286.787" x2="839.931" y2="258.503" stroke="#CCCCCC"/>
    <line x1="811.646" y1="293.928" x2="839.931" y2="265.643" stroke="#CCCCCC"/>
    <line x1="811.646" y1="300.928" x2="839.931" y2="272.643" stroke="#CCCCCC"/>
    <line x1="811.646" y1="154.076" x2="839.931" y2="125.792" stroke="#CCCCCC"/>
    <line x1="811.646" y1="307.928" x2="839.931" y2="279.643" stroke="#CCCCCC"/>
    <line x1="811.646" y1="161.076" x2="839.931" y2="132.792" stroke="#CCCCCC"/>
    <line x1="811.646" y1="314.928" x2="839.931" y2="286.643" stroke="#CCCCCC"/>
    <line x1="811.646" y1="168.076" x2="839.931" y2="139.792" stroke="#CCCCCC"/>
    <line x1="811.646" y1="321.928" x2="839.931" y2="293.643" stroke="#CCCCCC"/>
    <line x1="811.646" y1="175.076" x2="839.931" y2="146.792" stroke="#CCCCCC"/>
    <line x1="811.646" y1="328.928" x2="839.931" y2="300.643" stroke="#CCCCCC"/>
    <line x1="811.646" y1="182.076" x2="839.931" y2="153.792" stroke="#CCCCCC"/>
    <line x1="811.646" y1="335.928" x2="839.931" y2="307.643" stroke="#CCCCCC"/>
    <line x1="811.646" y1="189.076" x2="839.931" y2="160.792" stroke="#CCCCCC"/>
    <line x1="811.646" y1="342.928" x2="839.931" y2="314.643" stroke="#CCCCCC"/>
    <line x1="811.646" y1="196.076" x2="839.931" y2="167.792" stroke="#CCCCCC"/>
    <line x1="811.646" y1="349.928" x2="839.931" y2="321.643" stroke="#CCCCCC"/>
    <line x1="811.646" y1="203.076" x2="839.931" y2="174.792" stroke="#CCCCCC"/>
    <line x1="811.646" y1="356.928" x2="839.931" y2="328.643" stroke="#CCCCCC"/>
    <line x1="811.646" y1="210.076" x2="839.931" y2="181.792" stroke="#CCCCCC"/>
    <line x1="811.646" y1="363.928" x2="839.931" y2="335.643" stroke="#CCCCCC"/>
    <line x1="811.646" y1="217.076" x2="839.931" y2="188.792" stroke="#CCCCCC"/>
    <line x1="811.646" y1="370.928" x2="839.931" y2="342.643" stroke="#CCCCCC"/>
    <line x1="811.646" y1="224.076" x2="839.931" y2="195.792" stroke="#CCCCCC"/>
    <line x1="811.646" y1="377.928" x2="839.931" y2="349.643" stroke="#CCCCCC"/>
    <line x1="811.646" y1="231.076" x2="839.931" y2="202.792" stroke="#CCCCCC"/>
    <line x1="811.646" y1="384.928" x2="839.931" y2="356.643" stroke="#CCCCCC"/>
    <line x1="811.646" y1="238.076" x2="839.931" y2="209.792" stroke="#CCCCCC"/>
    <line x1="811.646" y1="391.928" x2="839.931" y2="363.643" stroke="#CCCCCC"/>
    <line x1="811.646" y1="245.076" x2="839.931" y2="216.792" stroke="#CCCCCC"/>
    <line x1="811.646" y1="398.928" x2="839.931" y2="370.643" stroke="#CCCCCC"/>
    <line x1="811.646" y1="252.076" x2="839.931" y2="223.792" stroke="#CCCCCC"/>
    <line x1="811.646" y1="259.076" x2="839.931" y2="230.792" stroke="#CCCCCC"/>
    <line x1="811.646" y1="266.076" x2="839.931" y2="237.792" stroke="#CCCCCC"/>
    <line x1="811.646" y1="273.076" x2="839.931" y2="244.792" stroke="#CCCCCC"/>
    <line x1="811.646" y1="280.076" x2="839.931" y2="251.792" stroke="#CCCCCC"/>
    </g>
    </g>
    <rect x="816.5" y="152.5" width="19" height="219" rx="9.5" stroke="#CCCCCC"/>
    <rect x="816" y="216" width="20" height="156" rx="10" fill="#AF6249"/>
    <g clip-path="url(#clip18_288_40039)">
    <rect x="912" y="152" width="20" height="220" rx="10" fill="white"/>
    <g clip-path="url(#clip19_288_40039)">
    <line x1="907.646" y1="286.787" x2="935.931" y2="258.503" stroke="#CCCCCC"/>
    <line x1="907.646" y1="293.928" x2="935.931" y2="265.643" stroke="#CCCCCC"/>
    <line x1="907.646" y1="300.928" x2="935.931" y2="272.643" stroke="#CCCCCC"/>
    <line x1="907.646" y1="154.076" x2="935.931" y2="125.792" stroke="#CCCCCC"/>
    <line x1="907.646" y1="307.928" x2="935.931" y2="279.643" stroke="#CCCCCC"/>
    <line x1="907.646" y1="161.076" x2="935.931" y2="132.792" stroke="#CCCCCC"/>
    <line x1="907.646" y1="314.928" x2="935.931" y2="286.643" stroke="#CCCCCC"/>
    <line x1="907.646" y1="168.076" x2="935.931" y2="139.792" stroke="#CCCCCC"/>
    <line x1="907.646" y1="321.928" x2="935.931" y2="293.643" stroke="#CCCCCC"/>
    <line x1="907.646" y1="175.076" x2="935.931" y2="146.792" stroke="#CCCCCC"/>
    <line x1="907.646" y1="328.928" x2="935.931" y2="300.643" stroke="#CCCCCC"/>
    <line x1="907.646" y1="182.076" x2="935.931" y2="153.792" stroke="#CCCCCC"/>
    <line x1="907.646" y1="335.928" x2="935.931" y2="307.643" stroke="#CCCCCC"/>
    <line x1="907.646" y1="189.076" x2="935.931" y2="160.792" stroke="#CCCCCC"/>
    <line x1="907.646" y1="342.928" x2="935.931" y2="314.643" stroke="#CCCCCC"/>
    <line x1="907.646" y1="196.076" x2="935.931" y2="167.792" stroke="#CCCCCC"/>
    <line x1="907.646" y1="349.928" x2="935.931" y2="321.643" stroke="#CCCCCC"/>
    <line x1="907.646" y1="203.076" x2="935.931" y2="174.792" stroke="#CCCCCC"/>
    <line x1="907.646" y1="356.928" x2="935.931" y2="328.643" stroke="#CCCCCC"/>
    <line x1="907.646" y1="210.076" x2="935.931" y2="181.792" stroke="#CCCCCC"/>
    <line x1="907.646" y1="363.928" x2="935.931" y2="335.643" stroke="#CCCCCC"/>
    <line x1="907.646" y1="217.076" x2="935.931" y2="188.792" stroke="#CCCCCC"/>
    <line x1="907.646" y1="370.928" x2="935.931" y2="342.643" stroke="#CCCCCC"/>
    <line x1="907.646" y1="224.076" x2="935.931" y2="195.792" stroke="#CCCCCC"/>
    <line x1="907.646" y1="377.928" x2="935.931" y2="349.643" stroke="#CCCCCC"/>
    <line x1="907.646" y1="231.076" x2="935.931" y2="202.792" stroke="#CCCCCC"/>
    <line x1="907.646" y1="384.928" x2="935.931" y2="356.643" stroke="#CCCCCC"/>
    <line x1="907.646" y1="238.076" x2="935.931" y2="209.792" stroke="#CCCCCC"/>
    <line x1="907.646" y1="391.928" x2="935.931" y2="363.643" stroke="#CCCCCC"/>
    <line x1="907.646" y1="245.076" x2="935.931" y2="216.792" stroke="#CCCCCC"/>
    <line x1="907.646" y1="398.928" x2="935.931" y2="370.643" stroke="#CCCCCC"/>
    <line x1="907.646" y1="252.076" x2="935.931" y2="223.792" stroke="#CCCCCC"/>
    <line x1="907.646" y1="259.076" x2="935.931" y2="230.792" stroke="#CCCCCC"/>
    <line x1="907.646" y1="266.076" x2="935.931" y2="237.792" stroke="#CCCCCC"/>
    <line x1="907.646" y1="273.076" x2="935.931" y2="244.792" stroke="#CCCCCC"/>
    <line x1="907.646" y1="280.076" x2="935.931" y2="251.792" stroke="#CCCCCC"/>
    </g>
    </g>
    <rect x="912.5" y="152.5" width="19" height="219" rx="9.5" stroke="#CCCCCC"/>
    <rect x="912" y="200" width="20" height="172" rx="10" fill="#AF6249"/>
    <path d="M59.2526 424.504V435H57.9726V425.976L55.9406 427.24L55.4286 426.248L58.2606 424.504H59.2526Z" fill="black"/>
    <path d="M150.779 433.416L151.563 432.584C152.107 433.288 152.795 434.008 154.155 434.008C155.643 434.008 156.571 433.24 156.571 431.944C156.571 430.792 155.819 429.992 154.203 429.992H153.307V428.888H154.203C155.467 428.888 156.075 428.072 156.075 427.192C156.075 426.04 155.259 425.496 154.219 425.496C153.195 425.496 152.475 425.944 152.059 426.68L151.275 425.928C151.835 425.048 152.811 424.328 154.219 424.328C156.155 424.328 157.403 425.352 157.403 427.144C157.403 428.088 156.811 428.936 155.899 429.352C157.163 429.688 157.899 430.728 157.899 432.008C157.899 433.912 156.395 435.176 154.155 435.176C152.395 435.176 151.387 434.184 150.779 433.416Z" fill="black"/>
    <path d="M253.599 425.992L252.703 426.696C252.239 425.976 251.487 425.496 250.559 425.496C248.863 425.496 247.679 426.872 247.551 429.416C248.111 428.536 249.023 427.896 250.335 427.896C252.223 427.896 253.775 429.416 253.775 431.528C253.775 433.64 252.159 435.176 250.143 435.176C247.615 435.176 246.303 433.128 246.303 430.008C246.303 426.456 247.967 424.328 250.559 424.328C251.983 424.328 253.023 425.096 253.599 425.992ZM247.871 431.544C247.871 432.984 248.767 434.008 250.143 434.008C251.535 434.008 252.447 432.984 252.447 431.544C252.447 430.072 251.535 429.064 250.143 429.064C248.767 429.064 247.871 430.072 247.871 431.544Z" fill="black"/>
    <path d="M342.391 433.512L343.287 432.808C343.751 433.528 344.503 434.008 345.431 434.008C347.127 434.008 348.311 432.632 348.439 430.088C347.879 430.968 346.967 431.608 345.655 431.608C343.767 431.608 342.215 430.088 342.215 427.976C342.215 425.864 343.831 424.328 345.847 424.328C348.375 424.328 349.687 426.376 349.687 429.496C349.687 433.048 348.023 435.176 345.431 435.176C344.007 435.176 342.967 434.408 342.391 433.512ZM348.119 427.96C348.119 426.52 347.223 425.496 345.847 425.496C344.455 425.496 343.543 426.52 343.543 427.96C343.543 429.432 344.455 430.44 345.847 430.44C347.223 430.44 348.119 429.432 348.119 427.96Z" fill="black"/>
    <path d="M439.143 424.504V435H437.863V425.976L435.831 427.24L435.319 426.248L438.151 424.504H439.143ZM442.638 427.224L441.582 426.712C441.902 425.624 442.83 424.328 444.702 424.328C446.734 424.328 447.966 425.608 447.966 427.48C447.966 430.68 444.03 432.12 443.102 433.864H448.094V435H441.518V434.056C442.734 431.336 446.638 430.136 446.638 427.528C446.638 426.296 446.03 425.496 444.67 425.496C443.646 425.496 442.958 426.088 442.638 427.224Z" fill="black"/>
    <path d="M534.581 424.504V435H533.301V425.976L531.269 427.24L530.757 426.248L533.589 424.504H534.581ZM539.052 429.272C538.092 428.824 537.644 428.04 537.644 427.048C537.644 425.56 538.78 424.328 540.86 424.328C542.94 424.328 544.076 425.56 544.076 427.048C544.076 428.04 543.628 428.824 542.668 429.272C543.836 429.592 544.668 430.712 544.668 432.024C544.668 433.848 543.324 435.176 540.86 435.176C538.396 435.176 537.052 433.848 537.052 432.024C537.052 430.712 537.868 429.592 539.052 429.272ZM540.86 434.008C542.476 434.008 543.34 433.144 543.34 431.944C543.34 430.744 542.476 429.864 540.86 429.864C539.244 429.864 538.38 430.744 538.38 431.944C538.38 433.144 539.244 434.008 540.86 434.008ZM540.86 428.728C541.916 428.728 542.748 428.168 542.748 427.128C542.748 426.088 541.916 425.496 540.86 425.496C539.804 425.496 538.972 426.088 538.972 427.128C538.972 428.168 539.804 428.728 540.86 428.728Z" fill="black"/>
    <path d="M627.326 427.224L626.27 426.712C626.59 425.624 627.518 424.328 629.39 424.328C631.422 424.328 632.654 425.608 632.654 427.48C632.654 430.68 628.718 432.12 627.789 433.864H632.782V435H626.206V434.056C627.422 431.336 631.326 430.136 631.326 427.528C631.326 426.296 630.718 425.496 629.358 425.496C628.334 425.496 627.646 426.088 627.326 427.224ZM640.364 431.048H641.996V432.168H640.364V435H639.084V432.168H633.964V431.24L638.732 424.504H640.364V431.048ZM639.084 431.048V427.496C639.084 426.792 639.1 426.392 639.18 425.848H639.132C639.052 426.072 638.684 426.648 638.268 427.24L635.564 431.048H639.084Z" fill="black"/>
    <path d="M721.638 433.416L722.422 432.584C722.966 433.288 723.654 434.008 725.014 434.008C726.502 434.008 727.43 433.24 727.43 431.944C727.43 430.792 726.678 429.992 725.062 429.992H724.166V428.888H725.062C726.326 428.888 726.934 428.072 726.934 427.192C726.934 426.04 726.118 425.496 725.078 425.496C724.054 425.496 723.334 425.944 722.918 426.68L722.134 425.928C722.694 425.048 723.67 424.328 725.078 424.328C727.014 424.328 728.262 425.352 728.262 427.144C728.262 428.088 727.67 428.936 726.758 429.352C728.022 429.688 728.758 430.728 728.758 432.008C728.758 433.912 727.254 435.176 725.014 435.176C723.254 435.176 722.246 434.184 721.638 433.416ZM737.881 425.992L736.985 426.696C736.521 425.976 735.769 425.496 734.841 425.496C733.145 425.496 731.961 426.872 731.833 429.416C732.393 428.536 733.305 427.896 734.617 427.896C736.505 427.896 738.057 429.416 738.057 431.528C738.057 433.64 736.441 435.176 734.425 435.176C731.897 435.176 730.585 433.128 730.585 430.008C730.585 426.456 732.249 424.328 734.841 424.328C736.265 424.328 737.305 425.096 737.881 425.992ZM732.153 431.544C732.153 432.984 733.049 434.008 734.425 434.008C735.817 434.008 736.729 432.984 736.729 431.544C736.729 430.072 735.817 429.064 734.425 429.064C733.049 429.064 732.153 430.072 732.153 431.544Z" fill="black"/>
    <path d="M824.161 431.048H825.793V432.168H824.161V435H822.881V432.168H817.761V431.24L822.529 424.504H824.161V431.048ZM822.881 431.048V427.496C822.881 426.792 822.897 426.392 822.977 425.848H822.929C822.849 426.072 822.481 426.648 822.065 427.24L819.361 431.048H822.881ZM829.223 429.272C828.263 428.824 827.815 428.04 827.815 427.048C827.815 425.56 828.951 424.328 831.031 424.328C833.111 424.328 834.247 425.56 834.247 427.048C834.247 428.04 833.799 428.824 832.839 429.272C834.007 429.592 834.839 430.712 834.839 432.024C834.839 433.848 833.495 435.176 831.031 435.176C828.567 435.176 827.223 433.848 827.223 432.024C827.223 430.712 828.039 429.592 829.223 429.272ZM831.031 434.008C832.647 434.008 833.511 433.144 833.511 431.944C833.511 430.744 832.647 429.864 831.031 429.864C829.415 429.864 828.551 430.744 828.551 431.944C828.551 433.144 829.415 434.008 831.031 434.008ZM831.031 428.728C832.087 428.728 832.919 428.168 832.919 427.128C832.919 426.088 832.087 425.496 831.031 425.496C829.975 425.496 829.143 426.088 829.143 427.128C829.143 428.168 829.975 428.728 831.031 428.728Z" fill="black"/>
    <path d="M920.732 425.992L919.836 426.696C919.372 425.976 918.62 425.496 917.692 425.496C915.996 425.496 914.812 426.872 914.684 429.416C915.244 428.536 916.156 427.896 917.468 427.896C919.356 427.896 920.908 429.416 920.908 431.528C920.908 433.64 919.292 435.176 917.276 435.176C914.748 435.176 913.436 433.128 913.436 430.008C913.436 426.456 915.1 424.328 917.692 424.328C919.116 424.328 920.156 425.096 920.732 425.992ZM915.004 431.544C915.004 432.984 915.9 434.008 917.276 434.008C918.668 434.008 919.58 432.984 919.58 431.544C919.58 430.072 918.668 429.064 917.276 429.064C915.9 429.064 915.004 430.072 915.004 431.544ZM926.637 435.176C924.093 435.176 922.717 432.968 922.717 429.752C922.717 426.536 924.093 424.328 926.637 424.328C929.181 424.328 930.557 426.536 930.557 429.752C930.557 432.968 929.181 435.176 926.637 435.176ZM926.637 434.008C928.445 434.008 929.229 432.248 929.229 429.752C929.229 427.256 928.445 425.496 926.637 425.496C924.829 425.496 924.045 427.256 924.045 429.752C924.045 432.248 924.829 434.008 926.637 434.008Z" fill="black"/>
    <g clip-path="url(#clip20_288_40039)">
    <path d="M21.65 522.652L18.86 519.862C18.54 519.542 18 519.762 18 520.212V522.002H4C3.45 522.002 3 522.452 3 523.002C3 523.552 3.45 524.002 4 524.002H18V525.792C18 526.242 18.54 526.462 18.85 526.142L21.64 523.352C21.84 523.162 21.84 522.842 21.65 522.652Z" fill="black"/>
    </g>
    <path d="M33.8891 528.5V517.62H35.2171V528.5H33.8891ZM38.1323 528.5V520.564H39.3643V521.652C39.7803 521.028 40.6763 520.388 41.7803 520.388C43.6203 520.388 44.6603 521.572 44.6603 523.556V528.5H43.3803V523.684C43.3803 522.26 42.6763 521.524 41.4603 521.524C40.3883 521.524 39.6363 522.196 39.4123 522.948V528.5H38.1323ZM52.0588 521.684L51.2268 522.404C50.7628 521.748 50.1708 521.476 49.4988 521.476C48.7148 521.476 48.2988 521.988 48.2988 522.564C48.2988 523.156 48.6668 523.508 49.3228 523.652L49.9948 523.796C51.4988 524.116 52.3948 524.804 52.3948 526.196C52.3948 527.476 51.2908 528.676 49.4028 528.676C48.0108 528.676 46.9868 527.892 46.4108 527.028L47.2428 526.26C47.7068 526.964 48.4428 527.588 49.4348 527.588C50.4428 527.588 51.0988 527.076 51.0988 526.276C51.0988 525.54 50.5068 525.188 49.6268 524.996L48.9548 524.852C47.7068 524.58 47.0028 523.844 47.0028 522.692C47.0028 521.476 47.9148 520.388 49.5468 520.388C50.6508 520.388 51.5308 520.9 52.0588 521.684ZM54.8642 525.972V521.652H53.4402V520.564H54.8802V518.5H56.1442V520.564H57.9202V521.652H56.1442V525.972C56.1442 527.06 56.6242 527.428 57.6962 527.428H57.9202V528.516C57.7602 528.548 57.5522 528.564 57.3442 528.564C55.7122 528.564 54.8642 527.764 54.8642 525.972ZM64.3791 524.388V523.588C64.3791 522.436 63.7551 521.524 62.4431 521.524C61.4991 521.524 61.0191 521.86 60.4431 522.42L59.7071 521.588C60.2831 520.98 61.0831 520.388 62.4751 520.388C64.5551 520.388 65.6591 521.652 65.6591 523.492V528.5H64.4271V527.716C63.8351 528.356 63.0191 528.676 62.1711 528.676C60.3791 528.676 59.2431 527.508 59.2431 526.068C59.2431 524.628 60.3791 523.46 62.1711 523.46C63.0031 523.46 63.8031 523.78 64.3791 524.388ZM64.3791 526.612V525.524C63.9631 524.82 63.0671 524.532 62.3471 524.532C61.0511 524.532 60.5391 525.348 60.5391 526.068C60.5391 526.788 61.0511 527.604 62.3471 527.604C63.0671 527.604 63.9631 527.332 64.3791 526.612ZM68.1948 517.14H69.4748V528.5H68.1948V517.14ZM72.1011 517.14H73.3811V528.5H72.1011V517.14ZM76.0073 528.5V520.564H77.2393V521.652C77.6553 521.028 78.5513 520.388 79.6553 520.388C80.8233 520.388 81.6553 520.884 82.0873 521.796C82.4713 521.124 83.4633 520.388 84.7113 520.388C86.5353 520.388 87.5593 521.556 87.5593 523.524V528.5H86.2793V523.652C86.2793 522.244 85.6233 521.524 84.4713 521.524C83.3993 521.524 82.6473 522.196 82.4233 522.948V528.5H81.1433V523.652C81.1433 522.244 80.4873 521.524 79.3353 521.524C78.2633 521.524 77.5113 522.196 77.2873 522.948V528.5H76.0073ZM96.5974 524.932H90.9334C91.0454 526.58 91.9094 527.54 93.3174 527.54C94.2934 527.54 95.0934 527.124 95.5574 526.372L96.4214 527.092C95.8294 527.988 94.8054 528.676 93.2374 528.676C90.9814 528.676 89.5894 527.076 89.5894 524.532C89.5894 522.004 91.0134 520.388 93.1894 520.388C95.3174 520.388 96.6454 522.052 96.6454 524.308C96.6454 524.516 96.6294 524.74 96.5974 524.932ZM90.9494 523.844H95.3014C95.2214 522.42 94.3894 521.524 93.1894 521.524C91.9734 521.524 91.1414 522.356 90.9494 523.844ZM98.6948 528.5V520.564H99.9268V521.652C100.343 521.028 101.239 520.388 102.343 520.388C104.183 520.388 105.223 521.572 105.223 523.556V528.5H103.943V523.684C103.943 522.26 103.239 521.524 102.023 521.524C100.951 521.524 100.199 522.196 99.9748 522.948V528.5H98.6948ZM108.239 525.972V521.652H106.815V520.564H108.255V518.5H109.519V520.564H111.295V521.652H109.519V525.972C109.519 527.06 109.999 527.428 111.071 527.428H111.295V528.516C111.135 528.548 110.927 528.564 110.719 528.564C109.087 528.564 108.239 527.764 108.239 525.972ZM116.992 531.508V520.564H118.224V521.7C118.8 520.9 119.728 520.388 120.752 520.388C122.864 520.388 124.208 522.084 124.208 524.532C124.208 526.98 122.864 528.676 120.752 528.676C119.76 528.676 118.848 528.196 118.272 527.444V531.508H116.992ZM118.272 522.964V526.116C118.64 526.964 119.488 527.54 120.48 527.54C121.984 527.54 122.88 526.404 122.88 524.532C122.88 522.66 121.984 521.524 120.48 521.524C119.488 521.524 118.64 522.116 118.272 522.964ZM132.847 524.932H127.183C127.295 526.58 128.159 527.54 129.567 527.54C130.543 527.54 131.343 527.124 131.807 526.372L132.671 527.092C132.079 527.988 131.055 528.676 129.487 528.676C127.231 528.676 125.839 527.076 125.839 524.532C125.839 522.004 127.263 520.388 129.439 520.388C131.567 520.388 132.895 522.052 132.895 524.308C132.895 524.516 132.879 524.74 132.847 524.932ZM127.199 523.844H131.551C131.471 522.42 130.639 521.524 129.439 521.524C128.223 521.524 127.391 522.356 127.199 523.844ZM134.945 528.5V520.564H136.177V521.988C136.609 521.108 137.393 520.388 138.529 520.388C138.641 520.388 138.753 520.388 138.865 520.42V521.716H138.433C137.377 521.716 136.609 522.292 136.225 523.492V528.5H134.945ZM140.554 520.564H141.834V528.5H140.554V520.564ZM140.394 517.14H141.994V518.74H140.394V517.14ZM147.692 527.54C149.164 527.54 150.108 526.42 150.108 524.532C150.108 522.644 149.164 521.524 147.692 521.524C146.22 521.524 145.276 522.644 145.276 524.532C145.276 526.42 146.22 527.54 147.692 527.54ZM147.692 520.388C149.964 520.388 151.436 522.084 151.436 524.532C151.436 526.98 149.964 528.676 147.692 528.676C145.42 528.676 143.948 526.98 143.948 524.532C143.948 522.084 145.42 520.388 147.692 520.388ZM159.042 528.5V527.38C158.45 528.18 157.522 528.676 156.514 528.676C154.402 528.676 153.058 526.98 153.058 524.532C153.058 522.084 154.402 520.388 156.514 520.388C157.506 520.388 158.402 520.868 158.994 521.636V517.14H160.274V528.5H159.042ZM158.994 526.116V522.964C158.626 522.116 157.778 521.524 156.786 521.524C155.282 521.524 154.386 522.66 154.386 524.532C154.386 526.404 155.282 527.54 156.786 527.54C157.778 527.54 158.626 526.964 158.994 526.116ZM169.496 517.22L170.136 518.02C168.68 519.22 167.496 521.124 167.496 524.324C167.496 527.524 168.68 529.428 170.136 530.628L169.496 531.428C168.024 530.34 166.2 528.18 166.2 524.324C166.2 520.468 168.024 518.308 169.496 517.22ZM171.398 528.5V520.564H172.63V521.652C173.046 521.028 173.942 520.388 175.046 520.388C176.214 520.388 177.046 520.884 177.478 521.796C177.862 521.124 178.854 520.388 180.102 520.388C181.926 520.388 182.95 521.556 182.95 523.524V528.5H181.67V523.652C181.67 522.244 181.014 521.524 179.862 521.524C178.79 521.524 178.038 522.196 177.814 522.948V528.5H176.534V523.652C176.534 522.244 175.878 521.524 174.726 521.524C173.654 521.524 172.902 522.196 172.678 522.948V528.5H171.398ZM188.708 527.54C190.18 527.54 191.124 526.42 191.124 524.532C191.124 522.644 190.18 521.524 188.708 521.524C187.236 521.524 186.292 522.644 186.292 524.532C186.292 526.42 187.236 527.54 188.708 527.54ZM188.708 520.388C190.98 520.388 192.452 522.084 192.452 524.532C192.452 526.98 190.98 528.676 188.708 528.676C186.436 528.676 184.964 526.98 184.964 524.532C184.964 522.084 186.436 520.388 188.708 520.388ZM194.57 528.5V520.564H195.802V521.652C196.218 521.028 197.114 520.388 198.218 520.388C200.058 520.388 201.098 521.572 201.098 523.556V528.5H199.818V523.684C199.818 522.26 199.114 521.524 197.898 521.524C196.826 521.524 196.074 522.196 195.85 522.948V528.5H194.57ZM204.114 525.972V521.652H202.69V520.564H204.13V518.5H205.394V520.564H207.17V521.652H205.394V525.972C205.394 527.06 205.874 527.428 206.946 527.428H207.17V528.516C207.01 528.548 206.802 528.564 206.594 528.564C204.962 528.564 204.114 527.764 204.114 525.972ZM209.101 528.5V517.14H210.381V521.572C210.813 520.98 211.693 520.388 212.749 520.388C214.589 520.388 215.629 521.572 215.629 523.556V528.5H214.349V523.684C214.349 522.26 213.645 521.524 212.429 521.524C211.357 521.524 210.605 522.196 210.381 522.948V528.5H209.101ZM223.028 521.684L222.196 522.404C221.732 521.748 221.14 521.476 220.468 521.476C219.684 521.476 219.268 521.988 219.268 522.564C219.268 523.156 219.636 523.508 220.292 523.652L220.964 523.796C222.468 524.116 223.364 524.804 223.364 526.196C223.364 527.476 222.26 528.676 220.372 528.676C218.98 528.676 217.956 527.892 217.38 527.028L218.212 526.26C218.676 526.964 219.412 527.588 220.404 527.588C221.412 527.588 222.068 527.076 222.068 526.276C222.068 525.54 221.476 525.188 220.596 524.996L219.924 524.852C218.676 524.58 217.972 523.844 217.972 522.692C217.972 521.476 218.884 520.388 220.516 520.388C221.62 520.388 222.5 520.9 223.028 521.684ZM224.563 531.428L223.923 530.628C225.379 529.428 226.563 527.524 226.563 524.324C226.563 521.124 225.379 519.22 223.923 518.02L224.563 517.22C226.035 518.308 227.859 520.468 227.859 524.324C227.859 528.18 226.035 530.34 224.563 531.428Z" fill="black"/>
    <g clip-path="url(#clip21_288_40039)">
    <rect x="602" y="513" width="20" height="20" rx="10" fill="white"/>
    <line x1="597.646" y1="516.936" x2="625.931" y2="488.651" stroke="#CCCCCC"/>
    <line x1="597.646" y1="523.936" x2="625.931" y2="495.651" stroke="#CCCCCC"/>
    <line x1="597.646" y1="530.936" x2="625.931" y2="502.651" stroke="#CCCCCC"/>
    <line x1="597.646" y1="537.936" x2="625.931" y2="509.651" stroke="#CCCCCC"/>
    <line x1="597.646" y1="544.936" x2="625.931" y2="516.651" stroke="#CCCCCC"/>
    <line x1="597.646" y1="551.936" x2="625.931" y2="523.651" stroke="#CCCCCC"/>
    <line x1="597.646" y1="558.936" x2="625.931" y2="530.651" stroke="#CCCCCC"/>
    </g>
    <rect x="602.5" y="513.5" width="19" height="19" rx="9.5" stroke="#CCCCCC"/>
    <path d="M602 523H622V523C622 528.523 617.523 533 612 533V533C606.477 533 602 528.523 602 523V523Z" fill="#AF6249"/>
    <path d="M640.538 528.5L637.866 521.748C637.498 520.836 637.194 519.956 637.146 519.716H637.098C637.13 519.94 637.162 520.916 637.162 521.876V528.5H635.834V517.62H637.53L640.698 525.508C640.938 526.084 641.146 526.66 641.146 526.9H641.194C641.194 526.66 641.402 526.084 641.626 525.508L644.794 517.62H646.49V528.5H645.162V521.876C645.162 520.916 645.194 519.94 645.226 519.716H645.178C645.13 519.956 644.826 520.836 644.458 521.748L641.786 528.5H640.538ZM652.544 527.54C654.016 527.54 654.96 526.42 654.96 524.532C654.96 522.644 654.016 521.524 652.544 521.524C651.072 521.524 650.128 522.644 650.128 524.532C650.128 526.42 651.072 527.54 652.544 527.54ZM652.544 520.388C654.816 520.388 656.288 522.084 656.288 524.532C656.288 526.98 654.816 528.676 652.544 528.676C650.272 528.676 648.8 526.98 648.8 524.532C648.8 522.084 650.272 520.388 652.544 520.388ZM658.406 528.5V520.564H659.638V521.652C660.054 521.028 660.95 520.388 662.054 520.388C663.894 520.388 664.934 521.572 664.934 523.556V528.5H663.654V523.684C663.654 522.26 662.95 521.524 661.734 521.524C660.662 521.524 659.91 522.196 659.686 522.948V528.5H658.406ZM667.95 525.972V521.652H666.526V520.564H667.966V518.5H669.23V520.564H671.006V521.652H669.23V525.972C669.23 527.06 669.71 527.428 670.782 527.428H671.006V528.516C670.846 528.548 670.638 528.564 670.43 528.564C668.798 528.564 667.95 527.764 667.95 525.972ZM672.937 528.5V517.14H674.217V521.572C674.649 520.98 675.529 520.388 676.585 520.388C678.425 520.388 679.465 521.572 679.465 523.556V528.5H678.185V523.684C678.185 522.26 677.481 521.524 676.265 521.524C675.193 521.524 674.441 522.196 674.217 522.948V528.5H672.937ZM682 517.14H683.28V528.5H682V517.14ZM686.466 531.508L688.098 527.7L685.026 520.564H686.402L688.226 525.108C688.466 525.7 688.674 526.292 688.674 526.532H688.722C688.802 526.116 688.93 525.7 689.154 525.108L690.85 520.564H692.242L687.858 531.508H686.466ZM697.406 531.508V520.564H698.638V521.7C699.214 520.9 700.142 520.388 701.166 520.388C703.278 520.388 704.622 522.084 704.622 524.532C704.622 526.98 703.278 528.676 701.166 528.676C700.174 528.676 699.262 528.196 698.686 527.444V531.508H697.406ZM698.686 522.964V526.116C699.054 526.964 699.902 527.54 700.894 527.54C702.398 527.54 703.294 526.404 703.294 524.532C703.294 522.66 702.398 521.524 700.894 521.524C699.902 521.524 699.054 522.116 698.686 522.964ZM711.278 524.388V523.588C711.278 522.436 710.654 521.524 709.342 521.524C708.398 521.524 707.918 521.86 707.342 522.42L706.606 521.588C707.182 520.98 707.982 520.388 709.374 520.388C711.454 520.388 712.558 521.652 712.558 523.492V528.5H711.326V527.716C710.734 528.356 709.918 528.676 709.07 528.676C707.278 528.676 706.142 527.508 706.142 526.068C706.142 524.628 707.278 523.46 709.07 523.46C709.902 523.46 710.702 523.78 711.278 524.388ZM711.278 526.612V525.524C710.862 524.82 709.966 524.532 709.246 524.532C707.95 524.532 707.438 525.348 707.438 526.068C707.438 526.788 707.95 527.604 709.246 527.604C709.966 527.604 710.862 527.332 711.278 526.612ZM715.388 531.508L717.02 527.7L713.948 520.564H715.324L717.148 525.108C717.388 525.7 717.596 526.292 717.596 526.532H717.644C717.724 526.116 717.852 525.7 718.076 525.108L719.772 520.564H721.164L716.78 531.508H715.388ZM722.859 528.5V520.564H724.091V521.652C724.507 521.028 725.403 520.388 726.507 520.388C727.675 520.388 728.507 520.884 728.939 521.796C729.323 521.124 730.315 520.388 731.563 520.388C733.387 520.388 734.411 521.556 734.411 523.524V528.5H733.131V523.652C733.131 522.244 732.475 521.524 731.323 521.524C730.251 521.524 729.499 522.196 729.275 522.948V528.5H727.995V523.652C727.995 522.244 727.339 521.524 726.187 521.524C725.115 521.524 724.363 522.196 724.139 522.948V528.5H722.859ZM743.449 524.932H737.785C737.897 526.58 738.761 527.54 740.169 527.54C741.145 527.54 741.945 527.124 742.409 526.372L743.273 527.092C742.681 527.988 741.657 528.676 740.089 528.676C737.833 528.676 736.441 527.076 736.441 524.532C736.441 522.004 737.865 520.388 740.041 520.388C742.169 520.388 743.497 522.052 743.497 524.308C743.497 524.516 743.481 524.74 743.449 524.932ZM737.801 523.844H742.153C742.073 522.42 741.241 521.524 740.041 521.524C738.825 521.524 737.993 522.356 737.801 523.844ZM745.546 528.5V520.564H746.778V521.652C747.194 521.028 748.09 520.388 749.194 520.388C751.034 520.388 752.074 521.572 752.074 523.556V528.5H750.794V523.684C750.794 522.26 750.09 521.524 748.874 521.524C747.802 521.524 747.05 522.196 746.826 522.948V528.5H745.546ZM755.091 525.972V521.652H753.667V520.564H755.107V518.5H756.371V520.564H758.147V521.652H756.371V525.972C756.371 527.06 756.851 527.428 757.923 527.428H758.147V528.516C757.987 528.548 757.779 528.564 757.571 528.564C755.939 528.564 755.091 527.764 755.091 525.972Z" fill="black"/>
    <rect x="779" y="513" width="20" height="20" rx="10" fill="#AF6249"/>
    <path d="M816.388 524.052H814.1V528.5H812.772V517.62H816.388C818.548 517.62 819.86 518.788 819.86 520.836C819.86 522.884 818.548 524.052 816.388 524.052ZM816.228 518.756H814.1V522.916H816.228C817.732 522.916 818.484 522.18 818.484 520.836C818.484 519.492 817.732 518.756 816.228 518.756ZM821.765 528.5V520.564H822.997V521.988C823.429 521.108 824.213 520.388 825.349 520.388C825.461 520.388 825.573 520.388 825.685 520.42V521.716H825.253C824.197 521.716 823.429 522.292 823.045 523.492V528.5H821.765ZM827.375 520.564H828.655V528.5H827.375V520.564ZM827.215 517.14H828.815V518.74H827.215V517.14ZM831.281 528.5V520.564H832.513V521.652C832.929 521.028 833.825 520.388 834.929 520.388C836.769 520.388 837.809 521.572 837.809 523.556V528.5H836.529V523.684C836.529 522.26 835.825 521.524 834.609 521.524C833.537 521.524 832.785 522.196 832.561 522.948V528.5H831.281ZM846.679 522.484L845.671 522.996C845.303 522.036 844.535 521.524 843.511 521.524C842.087 521.524 841.175 522.644 841.175 524.532C841.175 526.42 842.087 527.54 843.511 527.54C844.535 527.54 845.303 527.028 845.671 526.068L846.679 526.58C846.231 527.86 845.015 528.676 843.511 528.676C841.223 528.676 839.847 526.98 839.847 524.532C839.847 522.084 841.223 520.388 843.511 520.388C845.015 520.388 846.231 521.204 846.679 522.484ZM848.64 520.564H849.92V528.5H848.64V520.564ZM848.48 517.14H850.08V518.74H848.48V517.14ZM852.546 531.508V520.564H853.778V521.7C854.354 520.9 855.282 520.388 856.306 520.388C858.418 520.388 859.762 522.084 859.762 524.532C859.762 526.98 858.418 528.676 856.306 528.676C855.314 528.676 854.402 528.196 853.826 527.444V531.508H852.546ZM853.826 522.964V526.116C854.194 526.964 855.042 527.54 856.034 527.54C857.538 527.54 858.434 526.404 858.434 524.532C858.434 522.66 857.538 521.524 856.034 521.524C855.042 521.524 854.194 522.116 853.826 522.964ZM866.418 524.388V523.588C866.418 522.436 865.794 521.524 864.482 521.524C863.538 521.524 863.058 521.86 862.482 522.42L861.746 521.588C862.322 520.98 863.122 520.388 864.514 520.388C866.594 520.388 867.698 521.652 867.698 523.492V528.5H866.466V527.716C865.874 528.356 865.058 528.676 864.21 528.676C862.418 528.676 861.282 527.508 861.282 526.068C861.282 524.628 862.418 523.46 864.21 523.46C865.042 523.46 865.842 523.78 866.418 524.388ZM866.418 526.612V525.524C866.002 524.82 865.106 524.532 864.386 524.532C863.09 524.532 862.578 525.348 862.578 526.068C862.578 526.788 863.09 527.604 864.386 527.604C865.106 527.604 866.002 527.332 866.418 526.612ZM870.234 517.14H871.514V528.5H870.234V517.14Z" fill="black"/>
    <g clip-path="url(#clip22_288_40039)">
    <rect x="893" y="513" width="20" height="20" rx="10" fill="white"/>
    <line x1="888.646" y1="516.936" x2="916.931" y2="488.651" stroke="#CCCCCC"/>
    <line x1="888.646" y1="523.936" x2="916.931" y2="495.651" stroke="#CCCCCC"/>
    <line x1="888.646" y1="530.936" x2="916.931" y2="502.651" stroke="#CCCCCC"/>
    <line x1="888.646" y1="537.936" x2="916.931" y2="509.651" stroke="#CCCCCC"/>
    <line x1="888.646" y1="544.936" x2="916.931" y2="516.651" stroke="#CCCCCC"/>
    <line x1="888.646" y1="551.936" x2="916.931" y2="523.651" stroke="#CCCCCC"/>
    <line x1="888.646" y1="558.936" x2="916.931" y2="530.651" stroke="#CCCCCC"/>
    </g>
    <rect x="893.5" y="513.5" width="19" height="19" rx="9.5" stroke="#CCCCCC"/>
    <path d="M926.991 528.5V517.62H928.319V528.5H926.991ZM931.234 528.5V520.564H932.466V521.652C932.882 521.028 933.778 520.388 934.882 520.388C936.722 520.388 937.762 521.572 937.762 523.556V528.5H936.482V523.684C936.482 522.26 935.778 521.524 934.562 521.524C933.49 521.524 932.738 522.196 932.514 522.948V528.5H931.234ZM940.778 525.972V521.652H939.354V520.564H940.794V518.5H942.058V520.564H943.834V521.652H942.058V525.972C942.058 527.06 942.538 527.428 943.61 527.428H943.834V528.516C943.674 528.548 943.466 528.564 943.258 528.564C941.626 528.564 940.778 527.764 940.778 525.972ZM952.183 524.932H946.519C946.631 526.58 947.495 527.54 948.903 527.54C949.879 527.54 950.679 527.124 951.143 526.372L952.007 527.092C951.415 527.988 950.391 528.676 948.823 528.676C946.567 528.676 945.175 527.076 945.175 524.532C945.175 522.004 946.599 520.388 948.775 520.388C950.903 520.388 952.231 522.052 952.231 524.308C952.231 524.516 952.215 524.74 952.183 524.932ZM946.535 523.844H950.887C950.807 522.42 949.975 521.524 948.775 521.524C947.559 521.524 946.727 522.356 946.535 523.844ZM954.281 528.5V520.564H955.513V521.988C955.945 521.108 956.729 520.388 957.865 520.388C957.977 520.388 958.089 520.388 958.201 520.42V521.716H957.769C956.713 521.716 955.945 522.292 955.561 523.492V528.5H954.281ZM966.168 524.932H960.504C960.616 526.58 961.48 527.54 962.888 527.54C963.864 527.54 964.664 527.124 965.128 526.372L965.992 527.092C965.4 527.988 964.376 528.676 962.808 528.676C960.552 528.676 959.16 527.076 959.16 524.532C959.16 522.004 960.584 520.388 962.76 520.388C964.888 520.388 966.216 522.052 966.216 524.308C966.216 524.516 966.2 524.74 966.168 524.932ZM960.52 523.844H964.872C964.792 522.42 963.96 521.524 962.76 521.524C961.544 521.524 960.712 522.356 960.52 523.844ZM973.129 521.684L972.297 522.404C971.833 521.748 971.241 521.476 970.569 521.476C969.785 521.476 969.369 521.988 969.369 522.564C969.369 523.156 969.737 523.508 970.393 523.652L971.065 523.796C972.569 524.116 973.465 524.804 973.465 526.196C973.465 527.476 972.361 528.676 970.473 528.676C969.081 528.676 968.057 527.892 967.481 527.028L968.313 526.26C968.777 526.964 969.513 527.588 970.505 527.588C971.513 527.588 972.169 527.076 972.169 526.276C972.169 525.54 971.577 525.188 970.697 524.996L970.025 524.852C968.777 524.58 968.073 523.844 968.073 522.692C968.073 521.476 968.985 520.388 970.617 520.388C971.721 520.388 972.601 520.9 973.129 521.684ZM975.935 525.972V521.652H974.511V520.564H975.951V518.5H977.215V520.564H978.991V521.652H977.215V525.972C977.215 527.06 977.695 527.428 978.766 527.428H978.991V528.516C978.831 528.548 978.623 528.564 978.415 528.564C976.783 528.564 975.935 527.764 975.935 525.972Z" fill="black"/>
    <defs>
    <clipPath id="clip0_288_40039">
    <rect x="48" y="152" width="20" height="220" rx="10" fill="white"/>
    </clipPath>
    <clipPath id="clip1_288_40039">
    <rect width="250" height="250" fill="white" transform="translate(-67 137)"/>
    </clipPath>
    <clipPath id="clip2_288_40039">
    <rect x="144" y="152" width="20" height="220" rx="10" fill="white"/>
    </clipPath>
    <clipPath id="clip3_288_40039">
    <rect width="250" height="250" fill="white" transform="translate(29 137)"/>
    </clipPath>
    <clipPath id="clip4_288_40039">
    <rect x="240" y="152" width="20" height="220" rx="10" fill="white"/>
    </clipPath>
    <clipPath id="clip5_288_40039">
    <rect width="250" height="250" fill="white" transform="translate(125 137)"/>
    </clipPath>
    <clipPath id="clip6_288_40039">
    <rect x="336" y="152" width="20" height="220" rx="10" fill="white"/>
    </clipPath>
    <clipPath id="clip7_288_40039">
    <rect width="250" height="250" fill="white" transform="translate(221 137)"/>
    </clipPath>
    <clipPath id="clip8_288_40039">
    <rect x="432" y="152" width="20" height="220" rx="10" fill="white"/>
    </clipPath>
    <clipPath id="clip9_288_40039">
    <rect width="250" height="250" fill="white" transform="translate(317 137)"/>
    </clipPath>
    <clipPath id="clip10_288_40039">
    <rect x="528" y="152" width="20" height="220" rx="10" fill="white"/>
    </clipPath>
    <clipPath id="clip11_288_40039">
    <rect width="250" height="250" fill="white" transform="translate(413 137)"/>
    </clipPath>
    <clipPath id="clip12_288_40039">
    <rect x="624" y="152" width="20" height="220" rx="10" fill="white"/>
    </clipPath>
    <clipPath id="clip13_288_40039">
    <rect width="250" height="250" fill="white" transform="translate(509 137)"/>
    </clipPath>
    <clipPath id="clip14_288_40039">
    <rect x="720" y="152" width="20" height="220" rx="10" fill="white"/>
    </clipPath>
    <clipPath id="clip15_288_40039">
    <rect width="250" height="250" fill="white" transform="translate(605 137)"/>
    </clipPath>
    <clipPath id="clip16_288_40039">
    <rect x="816" y="152" width="20" height="220" rx="10" fill="white"/>
    </clipPath>
    <clipPath id="clip17_288_40039">
    <rect width="250" height="250" fill="white" transform="translate(701 137)"/>
    </clipPath>
    <clipPath id="clip18_288_40039">
    <rect x="912" y="152" width="20" height="220" rx="10" fill="white"/>
    </clipPath>
    <clipPath id="clip19_288_40039">
    <rect width="250" height="250" fill="white" transform="translate(797 137)"/>
    </clipPath>
    <clipPath id="clip20_288_40039">
    <rect width="24" height="24" fill="white" transform="translate(0 511)"/>
    </clipPath>
    <clipPath id="clip21_288_40039">
    <rect x="602" y="513" width="20" height="20" rx="10" fill="white"/>
    </clipPath>
    <clipPath id="clip22_288_40039">
    <rect x="893" y="513" width="20" height="20" rx="10" fill="white"/>
    </clipPath>
    </defs>
    </svg>
    