<svg width="980" height="559" viewBox="0 0 980 559" fill="none" xmlns="http://www.w3.org/2000/svg">
    <path d="M452.459 23H449.219V6.68H452.459V23ZM456.077 23V10.688H459.125V12.032C459.893 11.072 461.069 10.352 462.653 10.352C465.749 10.352 467.069 12.344 467.069 15.224V23H463.901V15.632C463.901 13.88 462.965 12.968 461.645 12.968C460.493 12.968 459.677 13.76 459.245 14.768V23H456.077ZM470.932 18.656V13.04H468.916V10.688H471.028V7.544H474.1V10.688H476.788V13.04H474.1V18.56C474.1 20 474.652 20.528 476.02 20.528H476.788V23C476.284 23.072 475.612 23.144 475.036 23.144C472.324 23.144 470.932 21.776 470.932 18.656ZM489.752 17.696H481.376C481.616 19.52 482.648 20.768 484.544 20.768C485.96 20.768 486.92 20.12 487.592 19.04L489.56 20.672C488.168 22.52 486.488 23.336 484.304 23.336C480.752 23.336 478.256 20.816 478.256 16.88C478.256 12.728 481.04 10.352 484.208 10.352C487.496 10.352 489.848 12.896 489.848 16.424C489.848 16.808 489.8 17.336 489.752 17.696ZM481.424 15.536H486.8C486.608 13.688 485.624 12.824 484.208 12.824C482.72 12.824 481.736 13.736 481.424 15.536ZM495.456 23H492.288V10.688H495.312V12.488C495.936 11.216 497.184 10.352 498.6 10.352C498.912 10.352 499.152 10.376 499.416 10.4V13.376H498.72C497.304 13.376 496.08 13.808 495.456 15.32V23ZM511.971 17.696H503.595C503.835 19.52 504.867 20.768 506.763 20.768C508.179 20.768 509.139 20.12 509.811 19.04L511.779 20.672C510.387 22.52 508.707 23.336 506.523 23.336C502.971 23.336 500.475 20.816 500.475 16.88C500.475 12.728 503.259 10.352 506.427 10.352C509.715 10.352 512.067 12.896 512.067 16.424C512.067 16.808 512.019 17.336 511.971 17.696ZM503.643 15.536H509.019C508.827 13.688 507.843 12.824 506.427 12.824C504.939 12.824 503.955 13.736 503.643 15.536ZM522.667 12.368L520.723 14.048C520.099 13.28 519.475 12.824 518.587 12.824C517.843 12.824 517.291 13.328 517.291 13.976C517.291 14.576 517.579 14.96 518.443 15.176L519.355 15.392C521.947 15.992 523.195 17.12 523.195 19.376C523.195 21.536 521.299 23.336 518.275 23.336C516.139 23.336 514.483 22.352 513.379 20.792L515.275 19.016C516.115 20.312 517.147 20.864 518.395 20.864C519.379 20.864 520.099 20.36 520.099 19.568C520.099 18.776 519.619 18.416 518.395 18.128L517.459 17.912C515.347 17.432 514.195 16.208 514.195 14.168C514.195 12.128 515.779 10.352 518.635 10.352C520.507 10.352 521.827 11.216 522.667 12.368ZM526.221 18.656V13.04H524.205V10.688H526.317V7.544H529.389V10.688H532.077V13.04H529.389V18.56C529.389 20 529.941 20.528 531.309 20.528H532.077V23C531.573 23.072 530.901 23.144 530.325 23.144C527.613 23.144 526.221 21.776 526.221 18.656Z" fill="black"/>
    <path d="M178.922 76L183.922 62.4H185.782L190.762 76H188.982L187.762 72.58H181.902L180.702 76H178.922ZM184.282 65.84L182.402 71.16H187.262L185.402 65.84C185.122 65.04 184.882 64.26 184.882 63.96H184.822C184.822 64.26 184.582 65.04 184.282 65.84ZM196.923 76V66.08H198.463V67.86C199.003 66.76 199.983 65.86 201.403 65.86C201.543 65.86 201.683 65.86 201.823 65.9V67.52H201.283C199.963 67.52 199.003 68.24 198.523 69.74V76H196.923ZM211.782 71.54H204.702C204.842 73.6 205.922 74.8 207.682 74.8C208.902 74.8 209.902 74.28 210.482 73.34L211.562 74.24C210.822 75.36 209.542 76.22 207.582 76.22C204.762 76.22 203.022 74.22 203.022 71.04C203.022 67.88 204.802 65.86 207.522 65.86C210.182 65.86 211.842 67.94 211.842 70.76C211.842 71.02 211.822 71.3 211.782 71.54ZM204.722 70.18H210.162C210.062 68.4 209.022 67.28 207.522 67.28C206.002 67.28 204.962 68.32 204.722 70.18ZM214.404 79.76V66.08H215.944V67.5C216.664 66.5 217.824 65.86 219.104 65.86C221.744 65.86 223.424 67.98 223.424 71.04C223.424 74.1 221.744 76.22 219.104 76.22C217.864 76.22 216.724 75.62 216.004 74.68V79.76H214.404ZM216.004 69.08V73.02C216.464 74.08 217.524 74.8 218.764 74.8C220.644 74.8 221.764 73.38 221.764 71.04C221.764 68.7 220.644 67.28 218.764 67.28C217.524 67.28 216.464 68.02 216.004 69.08ZM231.743 70.86V69.86C231.743 68.42 230.963 67.28 229.323 67.28C228.143 67.28 227.543 67.7 226.823 68.4L225.903 67.36C226.623 66.6 227.623 65.86 229.363 65.86C231.963 65.86 233.343 67.44 233.343 69.74V76H231.803V75.02C231.063 75.82 230.043 76.22 228.983 76.22C226.743 76.22 225.323 74.76 225.323 72.96C225.323 71.16 226.743 69.7 228.983 69.7C230.023 69.7 231.023 70.1 231.743 70.86ZM231.743 73.64V72.28C231.223 71.4 230.103 71.04 229.203 71.04C227.583 71.04 226.943 72.06 226.943 72.96C226.943 73.86 227.583 74.88 229.203 74.88C230.103 74.88 231.223 74.54 231.743 73.64ZM236.881 79.76L238.921 75L235.081 66.08H236.801L239.081 71.76C239.381 72.5 239.641 73.24 239.641 73.54H239.701C239.801 73.02 239.961 72.5 240.241 71.76L242.361 66.08H244.101L238.621 79.76H236.881ZM246.22 76V66.08H247.76V67.44C248.28 66.66 249.4 65.86 250.78 65.86C252.24 65.86 253.28 66.48 253.82 67.62C254.3 66.78 255.54 65.86 257.1 65.86C259.38 65.86 260.66 67.32 260.66 69.78V76H259.06V69.94C259.06 68.18 258.24 67.28 256.8 67.28C255.46 67.28 254.52 68.12 254.24 69.06V76H252.64V69.94C252.64 68.18 251.82 67.28 250.38 67.28C249.04 67.28 248.1 68.12 247.82 69.06V76H246.22ZM271.958 71.54H264.878C265.018 73.6 266.098 74.8 267.858 74.8C269.078 74.8 270.078 74.28 270.658 73.34L271.738 74.24C270.998 75.36 269.718 76.22 267.758 76.22C264.938 76.22 263.198 74.22 263.198 71.04C263.198 67.88 264.978 65.86 267.698 65.86C270.358 65.86 272.018 67.94 272.018 70.76C272.018 71.02 271.998 71.3 271.958 71.54ZM264.898 70.18H270.338C270.238 68.4 269.198 67.28 267.698 67.28C266.178 67.28 265.138 68.32 264.898 70.18ZM274.579 76V66.08H276.119V67.44C276.639 66.66 277.759 65.86 279.139 65.86C281.439 65.86 282.739 67.34 282.739 69.82V76H281.139V69.98C281.139 68.2 280.259 67.28 278.739 67.28C277.399 67.28 276.459 68.12 276.179 69.06V76H274.579ZM286.51 72.84V67.44H284.73V66.08H286.53V63.5H288.11V66.08H290.33V67.44H288.11V72.84C288.11 74.2 288.71 74.66 290.05 74.66H290.33V76.02C290.13 76.06 289.87 76.08 289.61 76.08C287.57 76.08 286.51 75.08 286.51 72.84ZM297.451 76V66.08H298.991V67.44C299.511 66.66 300.631 65.86 302.011 65.86C303.471 65.86 304.511 66.48 305.051 67.62C305.531 66.78 306.771 65.86 308.331 65.86C310.611 65.86 311.891 67.32 311.891 69.78V76H310.291V69.94C310.291 68.18 309.471 67.28 308.031 67.28C306.691 67.28 305.751 68.12 305.471 69.06V76H303.871V69.94C303.871 68.18 303.051 67.28 301.611 67.28C300.271 67.28 299.331 68.12 299.051 69.06V76H297.451ZM323.188 71.54H316.108C316.248 73.6 317.328 74.8 319.088 74.8C320.308 74.8 321.308 74.28 321.888 73.34L322.968 74.24C322.228 75.36 320.948 76.22 318.988 76.22C316.168 76.22 314.428 74.22 314.428 71.04C314.428 67.88 316.208 65.86 318.928 65.86C321.588 65.86 323.248 67.94 323.248 70.76C323.248 71.02 323.228 71.3 323.188 71.54ZM316.128 70.18H321.568C321.468 68.4 320.428 67.28 318.928 67.28C317.408 67.28 316.368 68.32 316.128 70.18ZM326.334 72.84V67.44H324.554V66.08H326.354V63.5H327.934V66.08H330.154V67.44H327.934V72.84C327.934 74.2 328.534 74.66 329.874 74.66H330.154V76.02C329.954 76.06 329.694 76.08 329.434 76.08C327.394 76.08 326.334 75.08 326.334 72.84ZM332.568 76V61.8H334.168V67.34C334.708 66.6 335.808 65.86 337.128 65.86C339.428 65.86 340.728 67.34 340.728 69.82V76H339.128V69.98C339.128 68.2 338.248 67.28 336.728 67.28C335.388 67.28 334.448 68.12 334.168 69.06V76H332.568ZM347.936 74.8C349.776 74.8 350.956 73.4 350.956 71.04C350.956 68.68 349.776 67.28 347.936 67.28C346.096 67.28 344.916 68.68 344.916 71.04C344.916 73.4 346.096 74.8 347.936 74.8ZM347.936 65.86C350.776 65.86 352.616 67.98 352.616 71.04C352.616 74.1 350.776 76.22 347.936 76.22C345.096 76.22 343.256 74.1 343.256 71.04C343.256 67.98 345.096 65.86 347.936 65.86ZM362.123 76V74.6C361.383 75.6 360.223 76.22 358.963 76.22C356.323 76.22 354.643 74.1 354.643 71.04C354.643 67.98 356.323 65.86 358.963 65.86C360.203 65.86 361.323 66.46 362.063 67.42V61.8H363.663V76H362.123ZM362.063 73.02V69.08C361.603 68.02 360.543 67.28 359.303 67.28C357.423 67.28 356.303 68.7 356.303 71.04C356.303 73.38 357.423 74.8 359.303 74.8C360.543 74.8 361.603 74.08 362.063 73.02ZM371.65 66.08H373.25V76H371.65V66.08ZM371.45 61.8H373.45V63.8H371.45V61.8ZM376.533 76V66.08H378.073V67.44C378.593 66.66 379.713 65.86 381.093 65.86C383.393 65.86 384.693 67.34 384.693 69.82V76H383.093V69.98C383.093 68.2 382.213 67.28 380.693 67.28C379.353 67.28 378.413 68.12 378.133 69.06V76H376.533ZM394.528 76L391.508 66.08H393.208L394.888 72.12C395.128 73 395.368 73.88 395.368 74.18H395.428C395.428 73.88 395.668 73 395.948 72.14L397.848 66.08H399.488L401.388 72.14C401.668 73 401.908 73.88 401.908 74.18H401.968C401.968 73.88 402.168 73 402.448 72.12L404.128 66.08H405.828L402.808 76H401.248L399.208 69.72C398.928 68.88 398.708 68.06 398.708 67.76H398.648C398.648 68.06 398.408 68.88 398.128 69.72L396.088 76H394.528ZM408.056 76V61.8H409.656V67.34C410.196 66.6 411.296 65.86 412.616 65.86C414.916 65.86 416.216 67.34 416.216 69.82V76H414.616V69.98C414.616 68.2 413.736 67.28 412.216 67.28C410.876 67.28 409.936 68.12 409.656 69.06V76H408.056ZM419.384 66.08H420.984V76H419.384V66.08ZM419.184 61.8H421.184V63.8H419.184V61.8ZM432.187 68.48L430.927 69.12C430.467 67.92 429.507 67.28 428.227 67.28C426.447 67.28 425.307 68.68 425.307 71.04C425.307 73.4 426.447 74.8 428.227 74.8C429.507 74.8 430.467 74.16 430.927 72.96L432.187 73.6C431.627 75.2 430.107 76.22 428.227 76.22C425.367 76.22 423.647 74.1 423.647 71.04C423.647 67.98 425.367 65.86 428.227 65.86C430.107 65.86 431.627 66.88 432.187 68.48ZM434.638 76V61.8H436.238V67.34C436.778 66.6 437.878 65.86 439.198 65.86C441.498 65.86 442.798 67.34 442.798 69.82V76H441.198V69.98C441.198 68.2 440.318 67.28 438.798 67.28C437.458 67.28 436.518 68.12 436.238 69.06V76H434.638ZM454.713 74.8C456.553 74.8 457.733 73.4 457.733 71.04C457.733 68.68 456.553 67.28 454.713 67.28C452.873 67.28 451.693 68.68 451.693 71.04C451.693 73.4 452.873 74.8 454.713 74.8ZM454.713 65.86C457.553 65.86 459.393 67.98 459.393 71.04C459.393 74.1 457.553 76.22 454.713 76.22C451.873 76.22 450.033 74.1 450.033 71.04C450.033 67.98 451.873 65.86 454.713 65.86ZM462.04 76V66.08H463.58V67.44C464.1 66.66 465.22 65.86 466.6 65.86C468.9 65.86 470.2 67.34 470.2 69.82V76H468.6V69.98C468.6 68.2 467.72 67.28 466.2 67.28C464.86 67.28 463.92 68.12 463.64 69.06V76H462.04ZM473.369 61.8H474.969V76H473.369V61.8ZM478.951 79.76L480.991 75L477.151 66.08H478.871L481.151 71.76C481.451 72.5 481.711 73.24 481.711 73.54H481.771C481.871 73.02 482.031 72.5 482.311 71.76L484.431 66.08H486.171L480.691 79.76H478.951ZM492.626 66.08H494.226V76H492.626V66.08ZM492.426 61.8H494.426V63.8H492.426V61.8ZM497.509 76V66.08H499.049V67.44C499.569 66.66 500.689 65.86 502.069 65.86C504.369 65.86 505.669 67.34 505.669 69.82V76H504.069V69.98C504.069 68.2 503.189 67.28 501.669 67.28C500.329 67.28 499.389 68.12 499.109 69.06V76H497.509ZM509.44 72.84V67.44H507.66V66.08H509.46V63.5H511.04V66.08H513.26V67.44H511.04V72.84C511.04 74.2 511.64 74.66 512.98 74.66H513.26V76.02C513.06 76.06 512.8 76.08 512.54 76.08C510.5 76.08 509.44 75.08 509.44 72.84ZM523.696 71.54H516.616C516.756 73.6 517.836 74.8 519.596 74.8C520.816 74.8 521.816 74.28 522.396 73.34L523.476 74.24C522.736 75.36 521.456 76.22 519.496 76.22C516.676 76.22 514.936 74.22 514.936 71.04C514.936 67.88 516.716 65.86 519.436 65.86C522.096 65.86 523.756 67.94 523.756 70.76C523.756 71.02 523.736 71.3 523.696 71.54ZM516.636 70.18H522.076C521.976 68.4 520.936 67.28 519.436 67.28C517.916 67.28 516.876 68.32 516.636 70.18ZM526.318 76V66.08H527.858V67.86C528.398 66.76 529.378 65.86 530.798 65.86C530.938 65.86 531.078 65.86 531.218 65.9V67.52H530.678C529.358 67.52 528.398 68.24 527.918 69.74V76H526.318ZM541.176 71.54H534.096C534.236 73.6 535.316 74.8 537.076 74.8C538.296 74.8 539.296 74.28 539.876 73.34L540.956 74.24C540.216 75.36 538.936 76.22 536.976 76.22C534.156 76.22 532.416 74.22 532.416 71.04C532.416 67.88 534.196 65.86 536.916 65.86C539.576 65.86 541.236 67.94 541.236 70.76C541.236 71.02 541.216 71.3 541.176 71.54ZM534.116 70.18H539.556C539.456 68.4 538.416 67.28 536.916 67.28C535.396 67.28 534.356 68.32 534.116 70.18ZM549.878 67.48L548.838 68.38C548.258 67.56 547.518 67.22 546.678 67.22C545.698 67.22 545.178 67.86 545.178 68.58C545.178 69.32 545.638 69.76 546.458 69.94L547.298 70.12C549.178 70.52 550.298 71.38 550.298 73.12C550.298 74.72 548.918 76.22 546.558 76.22C544.818 76.22 543.538 75.24 542.818 74.16L543.858 73.2C544.438 74.08 545.358 74.86 546.598 74.86C547.858 74.86 548.678 74.22 548.678 73.22C548.678 72.3 547.938 71.86 546.838 71.62L545.998 71.44C544.438 71.1 543.558 70.18 543.558 68.74C543.558 67.22 544.698 65.86 546.738 65.86C548.118 65.86 549.218 66.5 549.878 67.48ZM553.385 72.84V67.44H551.605V66.08H553.405V63.5H554.985V66.08H557.205V67.44H554.985V72.84C554.985 74.2 555.585 74.66 556.925 74.66H557.205V76.02C557.005 76.06 556.745 76.08 556.485 76.08C554.445 76.08 553.385 75.08 553.385 72.84ZM564.326 66.08H565.926V76H564.326V66.08ZM564.126 61.8H566.126V63.8H564.126V61.8ZM575.288 67.48L574.248 68.38C573.668 67.56 572.928 67.22 572.088 67.22C571.108 67.22 570.588 67.86 570.588 68.58C570.588 69.32 571.048 69.76 571.868 69.94L572.708 70.12C574.588 70.52 575.708 71.38 575.708 73.12C575.708 74.72 574.328 76.22 571.968 76.22C570.228 76.22 568.948 75.24 568.228 74.16L569.268 73.2C569.848 74.08 570.768 74.86 572.008 74.86C573.268 74.86 574.088 74.22 574.088 73.22C574.088 72.3 573.348 71.86 572.248 71.62L571.408 71.44C569.848 71.1 568.968 70.18 568.968 68.74C568.968 67.22 570.108 65.86 572.148 65.86C573.528 65.86 574.628 66.5 575.288 67.48ZM582.958 79.76V66.08H584.498V67.5C585.218 66.5 586.378 65.86 587.658 65.86C590.298 65.86 591.978 67.98 591.978 71.04C591.978 74.1 590.298 76.22 587.658 76.22C586.418 76.22 585.278 75.62 584.558 74.68V79.76H582.958ZM584.558 69.08V73.02C585.018 74.08 586.078 74.8 587.318 74.8C589.198 74.8 590.318 73.38 590.318 71.04C590.318 68.7 589.198 67.28 587.318 67.28C586.078 67.28 585.018 68.02 584.558 69.08ZM600.298 70.86V69.86C600.298 68.42 599.518 67.28 597.878 67.28C596.698 67.28 596.098 67.7 595.378 68.4L594.458 67.36C595.178 66.6 596.178 65.86 597.918 65.86C600.518 65.86 601.898 67.44 601.898 69.74V76H600.358V75.02C599.618 75.82 598.598 76.22 597.538 76.22C595.298 76.22 593.878 74.76 593.878 72.96C593.878 71.16 595.298 69.7 597.538 69.7C598.578 69.7 599.578 70.1 600.298 70.86ZM600.298 73.64V72.28C599.778 71.4 598.658 71.04 597.758 71.04C596.138 71.04 595.498 72.06 595.498 72.96C595.498 73.86 596.138 74.88 597.758 74.88C598.658 74.88 599.778 74.54 600.298 73.64ZM605.068 66.08H606.668V76H605.068V66.08ZM604.868 61.8H606.868V63.8H604.868V61.8ZM616.811 76V74.6C616.071 75.6 614.911 76.22 613.651 76.22C611.011 76.22 609.331 74.1 609.331 71.04C609.331 67.98 611.011 65.86 613.651 65.86C614.891 65.86 616.011 66.46 616.751 67.42V61.8H618.351V76H616.811ZM616.751 73.02V69.08C616.291 68.02 615.231 67.28 613.991 67.28C612.111 67.28 610.991 68.7 610.991 71.04C610.991 73.38 612.111 74.8 613.991 74.8C615.231 74.8 616.291 74.08 616.751 73.02ZM627.017 76V67.44H625.317V66.08H627.017V64.62C627.017 62.9 627.997 61.68 629.957 61.68C630.217 61.68 630.557 61.7 630.797 61.72V63.04H630.317C629.157 63.04 628.617 63.54 628.617 64.64V66.08H630.797V67.44H628.617V76H627.017ZM636.842 74.8C638.682 74.8 639.862 73.4 639.862 71.04C639.862 68.68 638.682 67.28 636.842 67.28C635.002 67.28 633.822 68.68 633.822 71.04C633.822 73.4 635.002 74.8 636.842 74.8ZM636.842 65.86C639.682 65.86 641.522 67.98 641.522 71.04C641.522 74.1 639.682 76.22 636.842 76.22C634.002 76.22 632.162 74.1 632.162 71.04C632.162 67.98 634.002 65.86 636.842 65.86ZM644.169 76V66.08H645.709V67.86C646.249 66.76 647.229 65.86 648.649 65.86C648.789 65.86 648.929 65.86 649.069 65.9V67.52H648.529C647.209 67.52 646.249 68.24 645.769 69.74V76H644.169ZM655.807 72.84V67.44H654.027V66.08H655.827V63.5H657.407V66.08H659.627V67.44H657.407V72.84C657.407 74.2 658.007 74.66 659.347 74.66H659.627V76.02C659.427 76.06 659.167 76.08 658.907 76.08C656.867 76.08 655.807 75.08 655.807 72.84ZM662.04 76V61.8H663.64V67.34C664.18 66.6 665.28 65.86 666.6 65.86C668.9 65.86 670.2 67.34 670.2 69.82V76H668.6V69.98C668.6 68.2 667.72 67.28 666.2 67.28C664.86 67.28 663.92 68.12 663.64 69.06V76H662.04ZM681.509 71.54H674.429C674.569 73.6 675.649 74.8 677.409 74.8C678.629 74.8 679.629 74.28 680.209 73.34L681.289 74.24C680.549 75.36 679.269 76.22 677.309 76.22C674.489 76.22 672.749 74.22 672.749 71.04C672.749 67.88 674.529 65.86 677.249 65.86C679.909 65.86 681.569 67.94 681.569 70.76C681.569 71.02 681.549 71.3 681.509 71.54ZM674.449 70.18H679.889C679.789 68.4 678.749 67.28 677.249 67.28C675.729 67.28 674.689 68.32 674.449 70.18ZM689.517 76V67.44H687.817V66.08H689.517V64.62C689.517 62.9 690.497 61.68 692.457 61.68C692.717 61.68 693.057 61.7 693.297 61.72V63.04H692.817C691.657 63.04 691.117 63.54 691.117 64.64V66.08H693.297V67.44H691.117V76H689.517ZM695.497 66.08H697.097V76H695.497V66.08ZM695.297 61.8H697.297V63.8H695.297V61.8ZM700.38 76V66.08H701.92V67.86C702.46 66.76 703.44 65.86 704.86 65.86C705 65.86 705.14 65.86 705.28 65.9V67.52H704.74C703.42 67.52 702.46 68.24 701.98 69.74V76H700.38ZM713.296 67.48L712.256 68.38C711.676 67.56 710.936 67.22 710.096 67.22C709.116 67.22 708.596 67.86 708.596 68.58C708.596 69.32 709.056 69.76 709.876 69.94L710.716 70.12C712.596 70.52 713.716 71.38 713.716 73.12C713.716 74.72 712.336 76.22 709.976 76.22C708.236 76.22 706.956 75.24 706.236 74.16L707.276 73.2C707.856 74.08 708.776 74.86 710.016 74.86C711.276 74.86 712.096 74.22 712.096 73.22C712.096 72.3 711.356 71.86 710.256 71.62L709.416 71.44C707.856 71.1 706.976 70.18 706.976 68.74C706.976 67.22 708.116 65.86 710.156 65.86C711.536 65.86 712.636 66.5 713.296 67.48ZM716.803 72.84V67.44H715.023V66.08H716.823V63.5H718.403V66.08H720.623V67.44H718.403V72.84C718.403 74.2 719.003 74.66 720.343 74.66H720.623V76.02C720.423 76.06 720.163 76.08 719.903 76.08C717.863 76.08 716.803 75.08 716.803 72.84ZM728.053 79.76L730.093 75L726.253 66.08H727.973L730.253 71.76C730.553 72.5 730.813 73.24 730.813 73.54H730.873C730.973 73.02 731.133 72.5 731.413 71.76L733.533 66.08H735.273L729.793 79.76H728.053ZM745.239 71.54H738.159C738.299 73.6 739.379 74.8 741.139 74.8C742.359 74.8 743.359 74.28 743.939 73.34L745.019 74.24C744.279 75.36 742.999 76.22 741.039 76.22C738.219 76.22 736.479 74.22 736.479 71.04C736.479 67.88 738.259 65.86 740.979 65.86C743.639 65.86 745.299 67.94 745.299 70.76C745.299 71.02 745.279 71.3 745.239 71.54ZM738.179 70.18H743.619C743.519 68.4 742.479 67.28 740.979 67.28C739.459 67.28 738.419 68.32 738.179 70.18ZM753.521 70.86V69.86C753.521 68.42 752.741 67.28 751.101 67.28C749.921 67.28 749.321 67.7 748.601 68.4L747.681 67.36C748.401 66.6 749.401 65.86 751.141 65.86C753.741 65.86 755.121 67.44 755.121 69.74V76H753.581V75.02C752.841 75.82 751.821 76.22 750.761 76.22C748.521 76.22 747.101 74.76 747.101 72.96C747.101 71.16 748.521 69.7 750.761 69.7C751.801 69.7 752.801 70.1 753.521 70.86ZM753.521 73.64V72.28C753.001 71.4 751.881 71.04 750.981 71.04C749.361 71.04 748.721 72.06 748.721 72.96C748.721 73.86 749.361 74.88 750.981 74.88C751.881 74.88 753.001 74.54 753.521 73.64ZM758.29 76V66.08H759.83V67.86C760.37 66.76 761.35 65.86 762.77 65.86C762.91 65.86 763.05 65.86 763.19 65.9V67.52H762.65C761.33 67.52 760.37 68.24 759.89 69.74V76H758.29ZM775.181 70.86V69.86C775.181 68.42 774.401 67.28 772.761 67.28C771.581 67.28 770.981 67.7 770.261 68.4L769.341 67.36C770.061 66.6 771.061 65.86 772.801 65.86C775.401 65.86 776.781 67.44 776.781 69.74V76H775.241V75.02C774.501 75.82 773.481 76.22 772.421 76.22C770.181 76.22 768.761 74.76 768.761 72.96C768.761 71.16 770.181 69.7 772.421 69.7C773.461 69.7 774.461 70.1 775.181 70.86ZM775.181 73.64V72.28C774.661 71.4 773.541 71.04 772.641 71.04C771.021 71.04 770.381 72.06 770.381 72.96C770.381 73.86 771.021 74.88 772.641 74.88C773.541 74.88 774.661 74.54 775.181 73.64ZM779.951 76V66.08H781.491V67.44C782.011 66.66 783.131 65.86 784.511 65.86C786.811 65.86 788.111 67.34 788.111 69.82V76H786.511V69.98C786.511 68.2 785.631 67.28 784.111 67.28C782.771 67.28 781.831 68.12 781.551 69.06V76H779.951ZM798.139 76V74.6C797.399 75.6 796.239 76.22 794.979 76.22C792.339 76.22 790.659 74.1 790.659 71.04C790.659 67.98 792.339 65.86 794.979 65.86C796.219 65.86 797.339 66.46 798.079 67.42V61.8H799.679V76H798.139ZM798.079 73.02V69.08C797.619 68.02 796.559 67.28 795.319 67.28C793.439 67.28 792.319 68.7 792.319 71.04C792.319 73.38 793.439 74.8 795.319 74.8C796.559 74.8 797.619 74.08 798.079 73.02ZM367.379 96.84V91.44H365.599V90.08H367.399V87.5H368.979V90.08H371.199V91.44H368.979V96.84C368.979 98.2 369.579 98.66 370.919 98.66H371.199V100.02C370.999 100.06 370.739 100.08 370.479 100.08C368.439 100.08 367.379 99.08 367.379 96.84ZM373.613 100V85.8H375.213V91.34C375.753 90.6 376.853 89.86 378.173 89.86C380.473 89.86 381.773 91.34 381.773 93.82V100H380.173V93.98C380.173 92.2 379.293 91.28 377.773 91.28C376.433 91.28 375.493 92.12 375.213 93.06V100H373.613ZM393.081 95.54H386.001C386.141 97.6 387.221 98.8 388.981 98.8C390.201 98.8 391.201 98.28 391.781 97.34L392.861 98.24C392.121 99.36 390.841 100.22 388.881 100.22C386.061 100.22 384.321 98.22 384.321 95.04C384.321 91.88 386.101 89.86 388.821 89.86C391.481 89.86 393.141 91.94 393.141 94.76C393.141 95.02 393.121 95.3 393.081 95.54ZM386.021 94.18H391.461C391.361 92.4 390.321 91.28 388.821 91.28C387.301 91.28 386.261 92.32 386.021 94.18ZM400.41 103.76V90.08H401.95V91.5C402.67 90.5 403.83 89.86 405.11 89.86C407.75 89.86 409.43 91.98 409.43 95.04C409.43 98.1 407.75 100.22 405.11 100.22C403.87 100.22 402.73 99.62 402.01 98.68V103.76H400.41ZM402.01 93.08V97.02C402.47 98.08 403.53 98.8 404.77 98.8C406.65 98.8 407.77 97.38 407.77 95.04C407.77 92.7 406.65 91.28 404.77 91.28C403.53 91.28 402.47 92.02 402.01 93.08ZM412.089 100V90.08H413.629V91.86C414.169 90.76 415.149 89.86 416.569 89.86C416.709 89.86 416.849 89.86 416.989 89.9V91.52H416.449C415.129 91.52 414.169 92.24 413.689 93.74V100H412.089ZM419.101 90.08H420.701V100H419.101V90.08ZM418.901 85.8H420.901V87.8H418.901V85.8ZM423.984 100V90.08H425.524V91.44C426.044 90.66 427.164 89.86 428.544 89.86C430.844 89.86 432.144 91.34 432.144 93.82V100H430.544V93.98C430.544 92.2 429.664 91.28 428.144 91.28C426.804 91.28 425.864 92.12 425.584 93.06V100H423.984ZM443.232 92.48L441.972 93.12C441.512 91.92 440.552 91.28 439.272 91.28C437.492 91.28 436.352 92.68 436.352 95.04C436.352 97.4 437.492 98.8 439.272 98.8C440.552 98.8 441.512 98.16 441.972 96.96L443.232 97.6C442.672 99.2 441.152 100.22 439.272 100.22C436.412 100.22 434.692 98.1 434.692 95.04C434.692 91.98 436.412 89.86 439.272 89.86C441.152 89.86 442.672 90.88 443.232 92.48ZM445.683 90.08H447.283V100H445.683V90.08ZM445.483 85.8H447.483V87.8H445.483V85.8ZM450.566 103.76V90.08H452.106V91.5C452.826 90.5 453.986 89.86 455.266 89.86C457.906 89.86 459.586 91.98 459.586 95.04C459.586 98.1 457.906 100.22 455.266 100.22C454.026 100.22 452.886 99.62 452.166 98.68V103.76H450.566ZM452.166 93.08V97.02C452.626 98.08 453.686 98.8 454.926 98.8C456.806 98.8 457.926 97.38 457.926 95.04C457.926 92.7 456.806 91.28 454.926 91.28C453.686 91.28 452.626 92.02 452.166 93.08ZM467.905 94.86V93.86C467.905 92.42 467.125 91.28 465.485 91.28C464.305 91.28 463.705 91.7 462.985 92.4L462.065 91.36C462.785 90.6 463.785 89.86 465.525 89.86C468.125 89.86 469.505 91.44 469.505 93.74V100H467.965V99.02C467.225 99.82 466.205 100.22 465.145 100.22C462.905 100.22 461.485 98.76 461.485 96.96C461.485 95.16 462.905 93.7 465.145 93.7C466.185 93.7 467.185 94.1 467.905 94.86ZM467.905 97.64V96.28C467.385 95.4 466.265 95.04 465.365 95.04C463.745 95.04 463.105 96.06 463.105 96.96C463.105 97.86 463.745 98.88 465.365 98.88C466.265 98.88 467.385 98.54 467.905 97.64ZM472.675 85.8H474.275V100H472.675V85.8ZM482.265 90.08H483.865V100H482.265V90.08ZM482.065 85.8H484.065V87.8H482.065V85.8ZM493.228 91.48L492.188 92.38C491.608 91.56 490.868 91.22 490.028 91.22C489.048 91.22 488.528 91.86 488.528 92.58C488.528 93.32 488.988 93.76 489.808 93.94L490.648 94.12C492.528 94.52 493.648 95.38 493.648 97.12C493.648 98.72 492.268 100.22 489.908 100.22C488.168 100.22 486.888 99.24 486.168 98.16L487.208 97.2C487.788 98.08 488.708 98.86 489.948 98.86C491.208 98.86 492.028 98.22 492.028 97.22C492.028 96.3 491.288 95.86 490.188 95.62L489.348 95.44C487.788 95.1 486.908 94.18 486.908 92.74C486.908 91.22 488.048 89.86 490.088 89.86C491.468 89.86 492.568 90.5 493.228 91.48ZM501.305 96.84V91.44H499.525V90.08H501.325V87.5H502.905V90.08H505.125V91.44H502.905V96.84C502.905 98.2 503.505 98.66 504.845 98.66H505.125V100.02C504.925 100.06 504.665 100.08 504.405 100.08C502.365 100.08 501.305 99.08 501.305 96.84ZM507.538 100V85.8H509.138V91.34C509.678 90.6 510.778 89.86 512.098 89.86C514.398 89.86 515.698 91.34 515.698 93.82V100H514.098V93.98C514.098 92.2 513.218 91.28 511.698 91.28C510.358 91.28 509.418 92.12 509.138 93.06V100H507.538ZM527.007 95.54H519.927C520.067 97.6 521.147 98.8 522.907 98.8C524.127 98.8 525.127 98.28 525.707 97.34L526.787 98.24C526.047 99.36 524.767 100.22 522.807 100.22C519.987 100.22 518.247 98.22 518.247 95.04C518.247 91.88 520.027 89.86 522.747 89.86C525.407 89.86 527.067 91.94 527.067 94.76C527.067 95.02 527.047 95.3 527.007 95.54ZM519.947 94.18H525.387C525.287 92.4 524.247 91.28 522.747 91.28C521.227 91.28 520.187 92.32 519.947 94.18ZM529.628 100V90.08H531.168V91.44C531.688 90.66 532.808 89.86 534.188 89.86C536.488 89.86 537.788 91.34 537.788 93.82V100H536.188V93.98C536.188 92.2 535.308 91.28 533.788 91.28C532.448 91.28 531.508 92.12 531.228 93.06V100H529.628ZM552.523 100V98.6C551.783 99.6 550.623 100.22 549.363 100.22C546.723 100.22 545.043 98.1 545.043 95.04C545.043 91.98 546.723 89.86 549.363 89.86C550.603 89.86 551.723 90.46 552.463 91.42V85.8H554.063V100H552.523ZM552.463 97.02V93.08C552.003 92.02 550.943 91.28 549.703 91.28C547.823 91.28 546.703 92.7 546.703 95.04C546.703 97.38 547.823 98.8 549.703 98.8C550.943 98.8 552.003 98.08 552.463 97.02ZM557.343 90.08H558.943V100H557.343V90.08ZM557.143 85.8H559.143V87.8H557.143V85.8ZM564.886 100L561.126 90.08H562.826L565.106 96.48C565.386 97.26 565.646 98.04 565.646 98.34H565.706C565.706 98.04 565.946 97.26 566.226 96.48L568.506 90.08H570.206L566.446 100H564.886ZM572.382 90.08H573.982V100H572.382V90.08ZM572.182 85.8H574.182V87.8H572.182V85.8ZM584.125 100V98.6C583.385 99.6 582.225 100.22 580.965 100.22C578.325 100.22 576.645 98.1 576.645 95.04C576.645 91.98 578.325 89.86 580.965 89.86C582.205 89.86 583.325 90.46 584.065 91.42V85.8H585.665V100H584.125ZM584.065 97.02V93.08C583.605 92.02 582.545 91.28 581.305 91.28C579.425 91.28 578.305 92.7 578.305 95.04C578.305 97.38 579.425 98.8 581.305 98.8C582.545 98.8 583.605 98.08 584.065 97.02ZM597.085 95.54H590.005C590.145 97.6 591.225 98.8 592.985 98.8C594.205 98.8 595.205 98.28 595.785 97.34L596.865 98.24C596.125 99.36 594.845 100.22 592.885 100.22C590.065 100.22 588.325 98.22 588.325 95.04C588.325 91.88 590.105 89.86 592.825 89.86C595.485 89.86 597.145 91.94 597.145 94.76C597.145 95.02 597.125 95.3 597.085 95.54ZM590.025 94.18H595.465C595.365 92.4 594.325 91.28 592.825 91.28C591.305 91.28 590.265 92.32 590.025 94.18ZM606.566 100V98.6C605.826 99.6 604.666 100.22 603.406 100.22C600.766 100.22 599.086 98.1 599.086 95.04C599.086 91.98 600.766 89.86 603.406 89.86C604.646 89.86 605.766 90.46 606.506 91.42V85.8H608.106V100H606.566ZM606.506 97.02V93.08C606.046 92.02 604.986 91.28 603.746 91.28C601.866 91.28 600.746 92.7 600.746 95.04C600.746 97.38 601.866 98.8 603.746 98.8C604.986 98.8 606.046 98.08 606.506 97.02ZM611.166 100V97.62H613.546V100H611.166Z" fill="black"/>
    <mask id="path-3-inside-1_288_38783" fill="white">
    <path d="M0 176H980V236H0V176Z"/>
    </mask>
    <path d="M0 176H980V236H0V176Z" fill="white"/>
    <path d="M980 235H0V237H980V235Z" fill="#E5E5E5" mask="url(#path-3-inside-1_288_38783)"/>
    <mask id="path-5-inside-2_288_38783" fill="white">
    <path d="M0 236H980V296H0V236Z"/>
    </mask>
    <path d="M0 236H980V296H0V236Z" fill="white"/>
    <path d="M980 295H0V297H980V295Z" fill="#E5E5E5" mask="url(#path-5-inside-2_288_38783)"/>
    <mask id="path-7-inside-3_288_38783" fill="white">
    <path d="M0 296H980V356H0V296Z"/>
    </mask>
    <path d="M0 296H980V356H0V296Z" fill="white"/>
    <path d="M980 355H0V357H980V355Z" fill="#E5E5E5" mask="url(#path-7-inside-3_288_38783)"/>
    <mask id="path-9-inside-4_288_38783" fill="white">
    <path d="M0 356H980V416H0V356Z"/>
    </mask>
    <path d="M0 356H980V416H0V356Z" fill="white"/>
    <path d="M980 415H0V417H980V415Z" fill="#666666" mask="url(#path-9-inside-4_288_38783)"/>
    <g clip-path="url(#clip0_288_38783)">
    <rect x="96" y="296" width="20" height="100" rx="10" fill="white"/>
    <g clip-path="url(#clip1_288_38783)">
    <line x1="91.6464" y1="370.787" x2="119.931" y2="342.503" stroke="#CCCCCC"/>
    <line x1="91.6464" y1="377.928" x2="119.931" y2="349.643" stroke="#CCCCCC"/>
    <line x1="91.6464" y1="384.928" x2="119.931" y2="356.643" stroke="#CCCCCC"/>
    <line x1="91.6464" y1="391.928" x2="119.931" y2="363.643" stroke="#CCCCCC"/>
    <line x1="91.6464" y1="398.928" x2="119.931" y2="370.643" stroke="#CCCCCC"/>
    <line x1="91.6464" y1="405.928" x2="119.931" y2="377.643" stroke="#CCCCCC"/>
    <line x1="91.6464" y1="412.928" x2="119.931" y2="384.643" stroke="#CCCCCC"/>
    <line x1="91.6464" y1="419.928" x2="119.931" y2="391.643" stroke="#CCCCCC"/>
    <line x1="91.6464" y1="301.076" x2="119.931" y2="272.792" stroke="#CCCCCC"/>
    <line x1="91.6464" y1="308.076" x2="119.931" y2="279.792" stroke="#CCCCCC"/>
    <line x1="91.6464" y1="315.076" x2="119.931" y2="286.792" stroke="#CCCCCC"/>
    <line x1="91.6464" y1="322.076" x2="119.931" y2="293.792" stroke="#CCCCCC"/>
    <line x1="91.6464" y1="329.076" x2="119.931" y2="300.792" stroke="#CCCCCC"/>
    <line x1="91.6464" y1="336.076" x2="119.931" y2="307.792" stroke="#CCCCCC"/>
    <line x1="91.6464" y1="343.076" x2="119.931" y2="314.792" stroke="#CCCCCC"/>
    <line x1="91.6464" y1="350.076" x2="119.931" y2="321.792" stroke="#CCCCCC"/>
    <line x1="91.6464" y1="357.076" x2="119.931" y2="328.792" stroke="#CCCCCC"/>
    <line x1="91.6464" y1="364.076" x2="119.931" y2="335.792" stroke="#CCCCCC"/>
    </g>
    </g>
    <rect x="96.5" y="296.5" width="19" height="99" rx="9.5" stroke="#CCCCCC"/>
    <g clip-path="url(#clip2_288_38783)">
    <rect x="192" y="296" width="20" height="100" rx="10" fill="white"/>
    <g clip-path="url(#clip3_288_38783)">
    <line x1="187.646" y1="370.787" x2="215.931" y2="342.503" stroke="#CCCCCC"/>
    <line x1="187.646" y1="377.928" x2="215.931" y2="349.643" stroke="#CCCCCC"/>
    <line x1="187.646" y1="384.928" x2="215.931" y2="356.643" stroke="#CCCCCC"/>
    <line x1="187.646" y1="391.928" x2="215.931" y2="363.643" stroke="#CCCCCC"/>
    <line x1="187.646" y1="398.928" x2="215.931" y2="370.643" stroke="#CCCCCC"/>
    <line x1="187.646" y1="405.928" x2="215.931" y2="377.643" stroke="#CCCCCC"/>
    <line x1="187.646" y1="412.928" x2="215.931" y2="384.643" stroke="#CCCCCC"/>
    <line x1="187.646" y1="419.928" x2="215.931" y2="391.643" stroke="#CCCCCC"/>
    <line x1="187.646" y1="301.076" x2="215.931" y2="272.792" stroke="#CCCCCC"/>
    <line x1="187.646" y1="308.076" x2="215.931" y2="279.792" stroke="#CCCCCC"/>
    <line x1="187.646" y1="315.076" x2="215.931" y2="286.792" stroke="#CCCCCC"/>
    <line x1="187.646" y1="322.076" x2="215.931" y2="293.792" stroke="#CCCCCC"/>
    <line x1="187.646" y1="329.076" x2="215.931" y2="300.792" stroke="#CCCCCC"/>
    <line x1="187.646" y1="336.076" x2="215.931" y2="307.792" stroke="#CCCCCC"/>
    <line x1="187.646" y1="343.076" x2="215.931" y2="314.792" stroke="#CCCCCC"/>
    <line x1="187.646" y1="350.076" x2="215.931" y2="321.792" stroke="#CCCCCC"/>
    <line x1="187.646" y1="357.076" x2="215.931" y2="328.792" stroke="#CCCCCC"/>
    <line x1="187.646" y1="364.076" x2="215.931" y2="335.792" stroke="#CCCCCC"/>
    </g>
    </g>
    <rect x="192.5" y="296.5" width="19" height="99" rx="9.5" stroke="#CCCCCC"/>
    <g clip-path="url(#clip4_288_38783)">
    <rect x="288" y="296" width="20" height="100" rx="10" fill="white"/>
    <g clip-path="url(#clip5_288_38783)">
    <line x1="283.646" y1="370.787" x2="311.931" y2="342.503" stroke="#CCCCCC"/>
    <line x1="283.646" y1="377.928" x2="311.931" y2="349.643" stroke="#CCCCCC"/>
    <line x1="283.646" y1="384.928" x2="311.931" y2="356.643" stroke="#CCCCCC"/>
    <line x1="283.646" y1="391.928" x2="311.931" y2="363.643" stroke="#CCCCCC"/>
    <line x1="283.646" y1="398.928" x2="311.931" y2="370.643" stroke="#CCCCCC"/>
    <line x1="283.646" y1="405.928" x2="311.931" y2="377.643" stroke="#CCCCCC"/>
    <line x1="283.646" y1="412.928" x2="311.931" y2="384.643" stroke="#CCCCCC"/>
    <line x1="283.646" y1="419.928" x2="311.931" y2="391.643" stroke="#CCCCCC"/>
    <line x1="283.646" y1="301.076" x2="311.931" y2="272.792" stroke="#CCCCCC"/>
    <line x1="283.646" y1="308.076" x2="311.931" y2="279.792" stroke="#CCCCCC"/>
    <line x1="283.646" y1="315.076" x2="311.931" y2="286.792" stroke="#CCCCCC"/>
    <line x1="283.646" y1="322.076" x2="311.931" y2="293.792" stroke="#CCCCCC"/>
    <line x1="283.646" y1="329.076" x2="311.931" y2="300.792" stroke="#CCCCCC"/>
    <line x1="283.646" y1="336.076" x2="311.931" y2="307.792" stroke="#CCCCCC"/>
    <line x1="283.646" y1="343.076" x2="311.931" y2="314.792" stroke="#CCCCCC"/>
    <line x1="283.646" y1="350.076" x2="311.931" y2="321.792" stroke="#CCCCCC"/>
    <line x1="283.646" y1="357.076" x2="311.931" y2="328.792" stroke="#CCCCCC"/>
    <line x1="283.646" y1="364.076" x2="311.931" y2="335.792" stroke="#CCCCCC"/>
    </g>
    </g>
    <rect x="288.5" y="296.5" width="19" height="99" rx="9.5" stroke="#CCCCCC"/>
    <g clip-path="url(#clip6_288_38783)">
    <rect x="384" y="176" width="20" height="220" rx="10" fill="white"/>
    <g clip-path="url(#clip7_288_38783)">
    <line x1="379.646" y1="310.787" x2="407.931" y2="282.503" stroke="#CCCCCC"/>
    <line x1="379.646" y1="317.928" x2="407.931" y2="289.643" stroke="#CCCCCC"/>
    <line x1="379.646" y1="324.928" x2="407.931" y2="296.643" stroke="#CCCCCC"/>
    <line x1="379.646" y1="178.076" x2="407.931" y2="149.792" stroke="#CCCCCC"/>
    <line x1="379.646" y1="331.928" x2="407.931" y2="303.643" stroke="#CCCCCC"/>
    <line x1="379.646" y1="185.076" x2="407.931" y2="156.792" stroke="#CCCCCC"/>
    <line x1="379.646" y1="338.928" x2="407.931" y2="310.643" stroke="#CCCCCC"/>
    <line x1="379.646" y1="192.076" x2="407.931" y2="163.792" stroke="#CCCCCC"/>
    <line x1="379.646" y1="345.928" x2="407.931" y2="317.643" stroke="#CCCCCC"/>
    <line x1="379.646" y1="199.076" x2="407.931" y2="170.792" stroke="#CCCCCC"/>
    <line x1="379.646" y1="352.928" x2="407.931" y2="324.643" stroke="#CCCCCC"/>
    <line x1="379.646" y1="206.076" x2="407.931" y2="177.792" stroke="#CCCCCC"/>
    <line x1="379.646" y1="359.928" x2="407.931" y2="331.643" stroke="#CCCCCC"/>
    <line x1="379.646" y1="213.076" x2="407.931" y2="184.792" stroke="#CCCCCC"/>
    <line x1="379.646" y1="366.928" x2="407.931" y2="338.643" stroke="#CCCCCC"/>
    <line x1="379.646" y1="220.076" x2="407.931" y2="191.792" stroke="#CCCCCC"/>
    <line x1="379.646" y1="373.928" x2="407.931" y2="345.643" stroke="#CCCCCC"/>
    <line x1="379.646" y1="227.076" x2="407.931" y2="198.792" stroke="#CCCCCC"/>
    <line x1="379.646" y1="380.928" x2="407.931" y2="352.643" stroke="#CCCCCC"/>
    <line x1="379.646" y1="234.076" x2="407.931" y2="205.792" stroke="#CCCCCC"/>
    <line x1="379.646" y1="387.928" x2="407.931" y2="359.643" stroke="#CCCCCC"/>
    <line x1="379.646" y1="241.076" x2="407.931" y2="212.792" stroke="#CCCCCC"/>
    <line x1="379.646" y1="394.928" x2="407.931" y2="366.643" stroke="#CCCCCC"/>
    <line x1="379.646" y1="248.076" x2="407.931" y2="219.792" stroke="#CCCCCC"/>
    <line x1="379.646" y1="401.928" x2="407.931" y2="373.643" stroke="#CCCCCC"/>
    <line x1="379.646" y1="255.076" x2="407.931" y2="226.792" stroke="#CCCCCC"/>
    <line x1="379.646" y1="408.928" x2="407.931" y2="380.643" stroke="#CCCCCC"/>
    <line x1="379.646" y1="262.076" x2="407.931" y2="233.792" stroke="#CCCCCC"/>
    <line x1="379.646" y1="415.928" x2="407.931" y2="387.643" stroke="#CCCCCC"/>
    <line x1="379.646" y1="269.076" x2="407.931" y2="240.792" stroke="#CCCCCC"/>
    <line x1="379.646" y1="422.928" x2="407.931" y2="394.643" stroke="#CCCCCC"/>
    <line x1="379.646" y1="276.076" x2="407.931" y2="247.792" stroke="#CCCCCC"/>
    <line x1="379.646" y1="283.076" x2="407.931" y2="254.792" stroke="#CCCCCC"/>
    <line x1="379.646" y1="290.076" x2="407.931" y2="261.792" stroke="#CCCCCC"/>
    <line x1="379.646" y1="297.076" x2="407.931" y2="268.792" stroke="#CCCCCC"/>
    <line x1="379.646" y1="304.076" x2="407.931" y2="275.792" stroke="#CCCCCC"/>
    </g>
    </g>
    <rect x="384.5" y="176.5" width="19" height="219" rx="9.5" stroke="#CCCCCC"/>
    <rect x="384" y="297" width="20" height="99" rx="10" fill="#AF6249"/>
    <g clip-path="url(#clip8_288_38783)">
    <rect x="480" y="176" width="20" height="220" rx="10" fill="white"/>
    <g clip-path="url(#clip9_288_38783)">
    <line x1="475.646" y1="310.787" x2="503.931" y2="282.503" stroke="#CCCCCC"/>
    <line x1="475.646" y1="317.928" x2="503.931" y2="289.643" stroke="#CCCCCC"/>
    <line x1="475.646" y1="324.928" x2="503.931" y2="296.643" stroke="#CCCCCC"/>
    <line x1="475.646" y1="178.076" x2="503.931" y2="149.792" stroke="#CCCCCC"/>
    <line x1="475.646" y1="331.928" x2="503.931" y2="303.643" stroke="#CCCCCC"/>
    <line x1="475.646" y1="185.076" x2="503.931" y2="156.792" stroke="#CCCCCC"/>
    <line x1="475.646" y1="338.928" x2="503.931" y2="310.643" stroke="#CCCCCC"/>
    <line x1="475.646" y1="192.076" x2="503.931" y2="163.792" stroke="#CCCCCC"/>
    <line x1="475.646" y1="345.928" x2="503.931" y2="317.643" stroke="#CCCCCC"/>
    <line x1="475.646" y1="199.076" x2="503.931" y2="170.792" stroke="#CCCCCC"/>
    <line x1="475.646" y1="352.928" x2="503.931" y2="324.643" stroke="#CCCCCC"/>
    <line x1="475.646" y1="206.076" x2="503.931" y2="177.792" stroke="#CCCCCC"/>
    <line x1="475.646" y1="359.928" x2="503.931" y2="331.643" stroke="#CCCCCC"/>
    <line x1="475.646" y1="213.076" x2="503.931" y2="184.792" stroke="#CCCCCC"/>
    <line x1="475.646" y1="366.928" x2="503.931" y2="338.643" stroke="#CCCCCC"/>
    <line x1="475.646" y1="220.076" x2="503.931" y2="191.792" stroke="#CCCCCC"/>
    <line x1="475.646" y1="373.928" x2="503.931" y2="345.643" stroke="#CCCCCC"/>
    <line x1="475.646" y1="227.076" x2="503.931" y2="198.792" stroke="#CCCCCC"/>
    <line x1="475.646" y1="380.928" x2="503.931" y2="352.643" stroke="#CCCCCC"/>
    <line x1="475.646" y1="234.076" x2="503.931" y2="205.792" stroke="#CCCCCC"/>
    <line x1="475.646" y1="387.928" x2="503.931" y2="359.643" stroke="#CCCCCC"/>
    <line x1="475.646" y1="241.076" x2="503.931" y2="212.792" stroke="#CCCCCC"/>
    <line x1="475.646" y1="394.928" x2="503.931" y2="366.643" stroke="#CCCCCC"/>
    <line x1="475.646" y1="248.076" x2="503.931" y2="219.792" stroke="#CCCCCC"/>
    <line x1="475.646" y1="401.928" x2="503.931" y2="373.643" stroke="#CCCCCC"/>
    <line x1="475.646" y1="255.076" x2="503.931" y2="226.792" stroke="#CCCCCC"/>
    <line x1="475.646" y1="408.928" x2="503.931" y2="380.643" stroke="#CCCCCC"/>
    <line x1="475.646" y1="262.076" x2="503.931" y2="233.792" stroke="#CCCCCC"/>
    <line x1="475.646" y1="415.928" x2="503.931" y2="387.643" stroke="#CCCCCC"/>
    <line x1="475.646" y1="269.076" x2="503.931" y2="240.792" stroke="#CCCCCC"/>
    <line x1="475.646" y1="422.928" x2="503.931" y2="394.643" stroke="#CCCCCC"/>
    <line x1="475.646" y1="276.076" x2="503.931" y2="247.792" stroke="#CCCCCC"/>
    <line x1="475.646" y1="283.076" x2="503.931" y2="254.792" stroke="#CCCCCC"/>
    <line x1="475.646" y1="290.076" x2="503.931" y2="261.792" stroke="#CCCCCC"/>
    <line x1="475.646" y1="297.076" x2="503.931" y2="268.792" stroke="#CCCCCC"/>
    <line x1="475.646" y1="304.076" x2="503.931" y2="275.792" stroke="#CCCCCC"/>
    </g>
    </g>
    <rect x="480.5" y="176.5" width="19" height="219" rx="9.5" stroke="#CCCCCC"/>
    <rect x="480" y="280" width="20" height="116" rx="10" fill="#AF6249"/>
    <g clip-path="url(#clip10_288_38783)">
    <rect x="576" y="176" width="20" height="220" rx="10" fill="white"/>
    <g clip-path="url(#clip11_288_38783)">
    <line x1="571.646" y1="310.787" x2="599.931" y2="282.503" stroke="#CCCCCC"/>
    <line x1="571.646" y1="317.928" x2="599.931" y2="289.643" stroke="#CCCCCC"/>
    <line x1="571.646" y1="324.928" x2="599.931" y2="296.643" stroke="#CCCCCC"/>
    <line x1="571.646" y1="178.076" x2="599.931" y2="149.792" stroke="#CCCCCC"/>
    <line x1="571.646" y1="331.928" x2="599.931" y2="303.643" stroke="#CCCCCC"/>
    <line x1="571.646" y1="185.076" x2="599.931" y2="156.792" stroke="#CCCCCC"/>
    <line x1="571.646" y1="338.928" x2="599.931" y2="310.643" stroke="#CCCCCC"/>
    <line x1="571.646" y1="192.076" x2="599.931" y2="163.792" stroke="#CCCCCC"/>
    <line x1="571.646" y1="345.928" x2="599.931" y2="317.643" stroke="#CCCCCC"/>
    <line x1="571.646" y1="199.076" x2="599.931" y2="170.792" stroke="#CCCCCC"/>
    <line x1="571.646" y1="352.928" x2="599.931" y2="324.643" stroke="#CCCCCC"/>
    <line x1="571.646" y1="206.076" x2="599.931" y2="177.792" stroke="#CCCCCC"/>
    <line x1="571.646" y1="359.928" x2="599.931" y2="331.643" stroke="#CCCCCC"/>
    <line x1="571.646" y1="213.076" x2="599.931" y2="184.792" stroke="#CCCCCC"/>
    <line x1="571.646" y1="366.928" x2="599.931" y2="338.643" stroke="#CCCCCC"/>
    <line x1="571.646" y1="220.076" x2="599.931" y2="191.792" stroke="#CCCCCC"/>
    <line x1="571.646" y1="373.928" x2="599.931" y2="345.643" stroke="#CCCCCC"/>
    <line x1="571.646" y1="227.076" x2="599.931" y2="198.792" stroke="#CCCCCC"/>
    <line x1="571.646" y1="380.928" x2="599.931" y2="352.643" stroke="#CCCCCC"/>
    <line x1="571.646" y1="234.076" x2="599.931" y2="205.792" stroke="#CCCCCC"/>
    <line x1="571.646" y1="387.928" x2="599.931" y2="359.643" stroke="#CCCCCC"/>
    <line x1="571.646" y1="241.076" x2="599.931" y2="212.792" stroke="#CCCCCC"/>
    <line x1="571.646" y1="394.928" x2="599.931" y2="366.643" stroke="#CCCCCC"/>
    <line x1="571.646" y1="248.076" x2="599.931" y2="219.792" stroke="#CCCCCC"/>
    <line x1="571.646" y1="401.928" x2="599.931" y2="373.643" stroke="#CCCCCC"/>
    <line x1="571.646" y1="255.076" x2="599.931" y2="226.792" stroke="#CCCCCC"/>
    <line x1="571.646" y1="408.928" x2="599.931" y2="380.643" stroke="#CCCCCC"/>
    <line x1="571.646" y1="262.076" x2="599.931" y2="233.792" stroke="#CCCCCC"/>
    <line x1="571.646" y1="415.928" x2="599.931" y2="387.643" stroke="#CCCCCC"/>
    <line x1="571.646" y1="269.076" x2="599.931" y2="240.792" stroke="#CCCCCC"/>
    <line x1="571.646" y1="422.928" x2="599.931" y2="394.643" stroke="#CCCCCC"/>
    <line x1="571.646" y1="276.076" x2="599.931" y2="247.792" stroke="#CCCCCC"/>
    <line x1="571.646" y1="283.076" x2="599.931" y2="254.792" stroke="#CCCCCC"/>
    <line x1="571.646" y1="290.076" x2="599.931" y2="261.792" stroke="#CCCCCC"/>
    <line x1="571.646" y1="297.076" x2="599.931" y2="268.792" stroke="#CCCCCC"/>
    <line x1="571.646" y1="304.076" x2="599.931" y2="275.792" stroke="#CCCCCC"/>
    </g>
    </g>
    <rect x="576.5" y="176.5" width="19" height="219" rx="9.5" stroke="#CCCCCC"/>
    <rect x="576" y="264" width="20" height="132" rx="10" fill="#AF6249"/>
    <g clip-path="url(#clip12_288_38783)">
    <rect x="672" y="176" width="20" height="220" rx="10" fill="white"/>
    <g clip-path="url(#clip13_288_38783)">
    <line x1="667.646" y1="310.787" x2="695.931" y2="282.503" stroke="#CCCCCC"/>
    <line x1="667.646" y1="317.928" x2="695.931" y2="289.643" stroke="#CCCCCC"/>
    <line x1="667.646" y1="324.928" x2="695.931" y2="296.643" stroke="#CCCCCC"/>
    <line x1="667.646" y1="178.076" x2="695.931" y2="149.792" stroke="#CCCCCC"/>
    <line x1="667.646" y1="331.928" x2="695.931" y2="303.643" stroke="#CCCCCC"/>
    <line x1="667.646" y1="185.076" x2="695.931" y2="156.792" stroke="#CCCCCC"/>
    <line x1="667.646" y1="338.928" x2="695.931" y2="310.643" stroke="#CCCCCC"/>
    <line x1="667.646" y1="192.076" x2="695.931" y2="163.792" stroke="#CCCCCC"/>
    <line x1="667.646" y1="345.928" x2="695.931" y2="317.643" stroke="#CCCCCC"/>
    <line x1="667.646" y1="199.076" x2="695.931" y2="170.792" stroke="#CCCCCC"/>
    <line x1="667.646" y1="352.928" x2="695.931" y2="324.643" stroke="#CCCCCC"/>
    <line x1="667.646" y1="206.076" x2="695.931" y2="177.792" stroke="#CCCCCC"/>
    <line x1="667.646" y1="359.928" x2="695.931" y2="331.643" stroke="#CCCCCC"/>
    <line x1="667.646" y1="213.076" x2="695.931" y2="184.792" stroke="#CCCCCC"/>
    <line x1="667.646" y1="366.928" x2="695.931" y2="338.643" stroke="#CCCCCC"/>
    <line x1="667.646" y1="220.076" x2="695.931" y2="191.792" stroke="#CCCCCC"/>
    <line x1="667.646" y1="373.928" x2="695.931" y2="345.643" stroke="#CCCCCC"/>
    <line x1="667.646" y1="227.076" x2="695.931" y2="198.792" stroke="#CCCCCC"/>
    <line x1="667.646" y1="380.928" x2="695.931" y2="352.643" stroke="#CCCCCC"/>
    <line x1="667.646" y1="234.076" x2="695.931" y2="205.792" stroke="#CCCCCC"/>
    <line x1="667.646" y1="387.928" x2="695.931" y2="359.643" stroke="#CCCCCC"/>
    <line x1="667.646" y1="241.076" x2="695.931" y2="212.792" stroke="#CCCCCC"/>
    <line x1="667.646" y1="394.928" x2="695.931" y2="366.643" stroke="#CCCCCC"/>
    <line x1="667.646" y1="248.076" x2="695.931" y2="219.792" stroke="#CCCCCC"/>
    <line x1="667.646" y1="401.928" x2="695.931" y2="373.643" stroke="#CCCCCC"/>
    <line x1="667.646" y1="255.076" x2="695.931" y2="226.792" stroke="#CCCCCC"/>
    <line x1="667.646" y1="408.928" x2="695.931" y2="380.643" stroke="#CCCCCC"/>
    <line x1="667.646" y1="262.076" x2="695.931" y2="233.792" stroke="#CCCCCC"/>
    <line x1="667.646" y1="415.928" x2="695.931" y2="387.643" stroke="#CCCCCC"/>
    <line x1="667.646" y1="269.076" x2="695.931" y2="240.792" stroke="#CCCCCC"/>
    <line x1="667.646" y1="422.928" x2="695.931" y2="394.643" stroke="#CCCCCC"/>
    <line x1="667.646" y1="276.076" x2="695.931" y2="247.792" stroke="#CCCCCC"/>
    <line x1="667.646" y1="283.076" x2="695.931" y2="254.792" stroke="#CCCCCC"/>
    <line x1="667.646" y1="290.076" x2="695.931" y2="261.792" stroke="#CCCCCC"/>
    <line x1="667.646" y1="297.076" x2="695.931" y2="268.792" stroke="#CCCCCC"/>
    <line x1="667.646" y1="304.076" x2="695.931" y2="275.792" stroke="#CCCCCC"/>
    </g>
    </g>
    <rect x="672.5" y="176.5" width="19" height="219" rx="9.5" stroke="#CCCCCC"/>
    <rect x="672" y="232" width="20" height="164" rx="10" fill="#AF6249"/>
    <g clip-path="url(#clip14_288_38783)">
    <rect x="768" y="176" width="20" height="220" rx="10" fill="white"/>
    <g clip-path="url(#clip15_288_38783)">
    <line x1="763.646" y1="310.787" x2="791.931" y2="282.503" stroke="#CCCCCC"/>
    <line x1="763.646" y1="317.928" x2="791.931" y2="289.643" stroke="#CCCCCC"/>
    <line x1="763.646" y1="324.928" x2="791.931" y2="296.643" stroke="#CCCCCC"/>
    <line x1="763.646" y1="178.076" x2="791.931" y2="149.792" stroke="#CCCCCC"/>
    <line x1="763.646" y1="331.928" x2="791.931" y2="303.643" stroke="#CCCCCC"/>
    <line x1="763.646" y1="185.076" x2="791.931" y2="156.792" stroke="#CCCCCC"/>
    <line x1="763.646" y1="338.928" x2="791.931" y2="310.643" stroke="#CCCCCC"/>
    <line x1="763.646" y1="192.076" x2="791.931" y2="163.792" stroke="#CCCCCC"/>
    <line x1="763.646" y1="345.928" x2="791.931" y2="317.643" stroke="#CCCCCC"/>
    <line x1="763.646" y1="199.076" x2="791.931" y2="170.792" stroke="#CCCCCC"/>
    <line x1="763.646" y1="352.928" x2="791.931" y2="324.643" stroke="#CCCCCC"/>
    <line x1="763.646" y1="206.076" x2="791.931" y2="177.792" stroke="#CCCCCC"/>
    <line x1="763.646" y1="359.928" x2="791.931" y2="331.643" stroke="#CCCCCC"/>
    <line x1="763.646" y1="213.076" x2="791.931" y2="184.792" stroke="#CCCCCC"/>
    <line x1="763.646" y1="366.928" x2="791.931" y2="338.643" stroke="#CCCCCC"/>
    <line x1="763.646" y1="220.076" x2="791.931" y2="191.792" stroke="#CCCCCC"/>
    <line x1="763.646" y1="373.928" x2="791.931" y2="345.643" stroke="#CCCCCC"/>
    <line x1="763.646" y1="227.076" x2="791.931" y2="198.792" stroke="#CCCCCC"/>
    <line x1="763.646" y1="380.928" x2="791.931" y2="352.643" stroke="#CCCCCC"/>
    <line x1="763.646" y1="234.076" x2="791.931" y2="205.792" stroke="#CCCCCC"/>
    <line x1="763.646" y1="387.928" x2="791.931" y2="359.643" stroke="#CCCCCC"/>
    <line x1="763.646" y1="241.076" x2="791.931" y2="212.792" stroke="#CCCCCC"/>
    <line x1="763.646" y1="394.928" x2="791.931" y2="366.643" stroke="#CCCCCC"/>
    <line x1="763.646" y1="248.076" x2="791.931" y2="219.792" stroke="#CCCCCC"/>
    <line x1="763.646" y1="401.928" x2="791.931" y2="373.643" stroke="#CCCCCC"/>
    <line x1="763.646" y1="255.076" x2="791.931" y2="226.792" stroke="#CCCCCC"/>
    <line x1="763.646" y1="408.928" x2="791.931" y2="380.643" stroke="#CCCCCC"/>
    <line x1="763.646" y1="262.076" x2="791.931" y2="233.792" stroke="#CCCCCC"/>
    <line x1="763.646" y1="415.928" x2="791.931" y2="387.643" stroke="#CCCCCC"/>
    <line x1="763.646" y1="269.076" x2="791.931" y2="240.792" stroke="#CCCCCC"/>
    <line x1="763.646" y1="422.928" x2="791.931" y2="394.643" stroke="#CCCCCC"/>
    <line x1="763.646" y1="276.076" x2="791.931" y2="247.792" stroke="#CCCCCC"/>
    <line x1="763.646" y1="283.076" x2="791.931" y2="254.792" stroke="#CCCCCC"/>
    <line x1="763.646" y1="290.076" x2="791.931" y2="261.792" stroke="#CCCCCC"/>
    <line x1="763.646" y1="297.076" x2="791.931" y2="268.792" stroke="#CCCCCC"/>
    <line x1="763.646" y1="304.076" x2="791.931" y2="275.792" stroke="#CCCCCC"/>
    </g>
    </g>
    <rect x="768.5" y="176.5" width="19" height="219" rx="9.5" stroke="#CCCCCC"/>
    <rect x="768" y="216" width="20" height="180" rx="10" fill="#AF6249"/>
    <g clip-path="url(#clip16_288_38783)">
    <rect x="864" y="176" width="20" height="220" rx="10" fill="white"/>
    <g clip-path="url(#clip17_288_38783)">
    <line x1="859.646" y1="310.787" x2="887.931" y2="282.503" stroke="#CCCCCC"/>
    <line x1="859.646" y1="317.928" x2="887.931" y2="289.643" stroke="#CCCCCC"/>
    <line x1="859.646" y1="324.928" x2="887.931" y2="296.643" stroke="#CCCCCC"/>
    <line x1="859.646" y1="178.076" x2="887.931" y2="149.792" stroke="#CCCCCC"/>
    <line x1="859.646" y1="331.928" x2="887.931" y2="303.643" stroke="#CCCCCC"/>
    <line x1="859.646" y1="185.076" x2="887.931" y2="156.792" stroke="#CCCCCC"/>
    <line x1="859.646" y1="338.928" x2="887.931" y2="310.643" stroke="#CCCCCC"/>
    <line x1="859.646" y1="192.076" x2="887.931" y2="163.792" stroke="#CCCCCC"/>
    <line x1="859.646" y1="345.928" x2="887.931" y2="317.643" stroke="#CCCCCC"/>
    <line x1="859.646" y1="199.076" x2="887.931" y2="170.792" stroke="#CCCCCC"/>
    <line x1="859.646" y1="352.928" x2="887.931" y2="324.643" stroke="#CCCCCC"/>
    <line x1="859.646" y1="206.076" x2="887.931" y2="177.792" stroke="#CCCCCC"/>
    <line x1="859.646" y1="359.928" x2="887.931" y2="331.643" stroke="#CCCCCC"/>
    <line x1="859.646" y1="213.076" x2="887.931" y2="184.792" stroke="#CCCCCC"/>
    <line x1="859.646" y1="366.928" x2="887.931" y2="338.643" stroke="#CCCCCC"/>
    <line x1="859.646" y1="220.076" x2="887.931" y2="191.792" stroke="#CCCCCC"/>
    <line x1="859.646" y1="373.928" x2="887.931" y2="345.643" stroke="#CCCCCC"/>
    <line x1="859.646" y1="227.076" x2="887.931" y2="198.792" stroke="#CCCCCC"/>
    <line x1="859.646" y1="380.928" x2="887.931" y2="352.643" stroke="#CCCCCC"/>
    <line x1="859.646" y1="234.076" x2="887.931" y2="205.792" stroke="#CCCCCC"/>
    <line x1="859.646" y1="387.928" x2="887.931" y2="359.643" stroke="#CCCCCC"/>
    <line x1="859.646" y1="241.076" x2="887.931" y2="212.792" stroke="#CCCCCC"/>
    <line x1="859.646" y1="394.928" x2="887.931" y2="366.643" stroke="#CCCCCC"/>
    <line x1="859.646" y1="248.076" x2="887.931" y2="219.792" stroke="#CCCCCC"/>
    <line x1="859.646" y1="401.928" x2="887.931" y2="373.643" stroke="#CCCCCC"/>
    <line x1="859.646" y1="255.076" x2="887.931" y2="226.792" stroke="#CCCCCC"/>
    <line x1="859.646" y1="408.928" x2="887.931" y2="380.643" stroke="#CCCCCC"/>
    <line x1="859.646" y1="262.076" x2="887.931" y2="233.792" stroke="#CCCCCC"/>
    <line x1="859.646" y1="415.928" x2="887.931" y2="387.643" stroke="#CCCCCC"/>
    <line x1="859.646" y1="269.076" x2="887.931" y2="240.792" stroke="#CCCCCC"/>
    <line x1="859.646" y1="422.928" x2="887.931" y2="394.643" stroke="#CCCCCC"/>
    <line x1="859.646" y1="276.076" x2="887.931" y2="247.792" stroke="#CCCCCC"/>
    <line x1="859.646" y1="283.076" x2="887.931" y2="254.792" stroke="#CCCCCC"/>
    <line x1="859.646" y1="290.076" x2="887.931" y2="261.792" stroke="#CCCCCC"/>
    <line x1="859.646" y1="297.076" x2="887.931" y2="268.792" stroke="#CCCCCC"/>
    <line x1="859.646" y1="304.076" x2="887.931" y2="275.792" stroke="#CCCCCC"/>
    </g>
    </g>
    <rect x="864.5" y="176.5" width="19" height="219" rx="9.5" stroke="#CCCCCC"/>
    <rect x="864" y="200" width="20" height="196" rx="10" fill="#AF6249"/>
    <path d="M107.253 448.504V459H105.973V449.976L103.941 451.24L103.429 450.248L106.261 448.504H107.253Z" fill="black"/>
    <path d="M205.599 449.992L204.703 450.696C204.239 449.976 203.487 449.496 202.559 449.496C200.863 449.496 199.679 450.872 199.551 453.416C200.111 452.536 201.023 451.896 202.335 451.896C204.223 451.896 205.775 453.416 205.775 455.528C205.775 457.64 204.159 459.176 202.143 459.176C199.615 459.176 198.303 457.128 198.303 454.008C198.303 450.456 199.967 448.328 202.559 448.328C203.983 448.328 205.023 449.096 205.599 449.992ZM199.871 455.544C199.871 456.984 200.767 458.008 202.143 458.008C203.535 458.008 204.447 456.984 204.447 455.544C204.447 454.072 203.535 453.064 202.143 453.064C200.767 453.064 199.871 454.072 199.871 455.544Z" fill="black"/>
    <path d="M295.143 448.504V459H293.863V449.976L291.831 451.24L291.319 450.248L294.151 448.504H295.143ZM298.638 451.224L297.582 450.712C297.902 449.624 298.83 448.328 300.702 448.328C302.734 448.328 303.966 449.608 303.966 451.48C303.966 454.68 300.03 456.12 299.102 457.864H304.094V459H297.518V458.056C298.734 455.336 302.638 454.136 302.638 451.528C302.638 450.296 302.03 449.496 300.67 449.496C299.646 449.496 298.958 450.088 298.638 451.224Z" fill="black"/>
    <path d="M872.732 449.992L871.836 450.696C871.372 449.976 870.62 449.496 869.692 449.496C867.996 449.496 866.812 450.872 866.684 453.416C867.244 452.536 868.156 451.896 869.468 451.896C871.356 451.896 872.908 453.416 872.908 455.528C872.908 457.64 871.292 459.176 869.276 459.176C866.748 459.176 865.436 457.128 865.436 454.008C865.436 450.456 867.1 448.328 869.692 448.328C871.116 448.328 872.156 449.096 872.732 449.992ZM867.004 455.544C867.004 456.984 867.9 458.008 869.276 458.008C870.668 458.008 871.58 456.984 871.58 455.544C871.58 454.072 870.668 453.064 869.276 453.064C867.9 453.064 867.004 454.072 867.004 455.544ZM878.637 459.176C876.093 459.176 874.717 456.968 874.717 453.752C874.717 450.536 876.093 448.328 878.637 448.328C881.181 448.328 882.557 450.536 882.557 453.752C882.557 456.968 881.181 459.176 878.637 459.176ZM878.637 458.008C880.445 458.008 881.229 456.248 881.229 453.752C881.229 451.256 880.445 449.496 878.637 449.496C876.829 449.496 876.045 451.256 876.045 453.752C876.045 456.248 876.829 458.008 878.637 458.008Z" fill="black"/>
    <g clip-path="url(#clip18_288_38783)">
    <path d="M21.65 546.652L18.86 543.862C18.54 543.542 18 543.762 18 544.212V546.002H4C3.45 546.002 3 546.452 3 547.002C3 547.552 3.45 548.002 4 548.002H18V549.792C18 550.242 18.54 550.462 18.85 550.142L21.64 547.352C21.84 547.162 21.84 546.842 21.65 546.652Z" fill="black"/>
    </g>
    <path d="M33.8891 552.5V541.62H35.2171V552.5H33.8891ZM38.1323 552.5V544.564H39.3643V545.652C39.7803 545.028 40.6763 544.388 41.7803 544.388C43.6203 544.388 44.6603 545.572 44.6603 547.556V552.5H43.3803V547.684C43.3803 546.26 42.6763 545.524 41.4603 545.524C40.3883 545.524 39.6363 546.196 39.4123 546.948V552.5H38.1323ZM52.0588 545.684L51.2268 546.404C50.7628 545.748 50.1708 545.476 49.4988 545.476C48.7148 545.476 48.2988 545.988 48.2988 546.564C48.2988 547.156 48.6668 547.508 49.3228 547.652L49.9948 547.796C51.4988 548.116 52.3948 548.804 52.3948 550.196C52.3948 551.476 51.2908 552.676 49.4028 552.676C48.0108 552.676 46.9868 551.892 46.4108 551.028L47.2428 550.26C47.7068 550.964 48.4428 551.588 49.4348 551.588C50.4428 551.588 51.0988 551.076 51.0988 550.276C51.0988 549.54 50.5068 549.188 49.6268 548.996L48.9548 548.852C47.7068 548.58 47.0028 547.844 47.0028 546.692C47.0028 545.476 47.9148 544.388 49.5468 544.388C50.6508 544.388 51.5308 544.9 52.0588 545.684ZM54.8642 549.972V545.652H53.4402V544.564H54.8802V542.5H56.1442V544.564H57.9202V545.652H56.1442V549.972C56.1442 551.06 56.6242 551.428 57.6962 551.428H57.9202V552.516C57.7602 552.548 57.5522 552.564 57.3442 552.564C55.7122 552.564 54.8642 551.764 54.8642 549.972ZM64.3791 548.388V547.588C64.3791 546.436 63.7551 545.524 62.4431 545.524C61.4991 545.524 61.0191 545.86 60.4431 546.42L59.7071 545.588C60.2831 544.98 61.0831 544.388 62.4751 544.388C64.5551 544.388 65.6591 545.652 65.6591 547.492V552.5H64.4271V551.716C63.8351 552.356 63.0191 552.676 62.1711 552.676C60.3791 552.676 59.2431 551.508 59.2431 550.068C59.2431 548.628 60.3791 547.46 62.1711 547.46C63.0031 547.46 63.8031 547.78 64.3791 548.388ZM64.3791 550.612V549.524C63.9631 548.82 63.0671 548.532 62.3471 548.532C61.0511 548.532 60.5391 549.348 60.5391 550.068C60.5391 550.788 61.0511 551.604 62.3471 551.604C63.0671 551.604 63.9631 551.332 64.3791 550.612ZM68.1948 541.14H69.4748V552.5H68.1948V541.14ZM72.1011 541.14H73.3811V552.5H72.1011V541.14ZM76.0073 552.5V544.564H77.2393V545.652C77.6553 545.028 78.5513 544.388 79.6553 544.388C80.8233 544.388 81.6553 544.884 82.0873 545.796C82.4713 545.124 83.4633 544.388 84.7113 544.388C86.5353 544.388 87.5593 545.556 87.5593 547.524V552.5H86.2793V547.652C86.2793 546.244 85.6233 545.524 84.4713 545.524C83.3993 545.524 82.6473 546.196 82.4233 546.948V552.5H81.1433V547.652C81.1433 546.244 80.4873 545.524 79.3353 545.524C78.2633 545.524 77.5113 546.196 77.2873 546.948V552.5H76.0073ZM96.5974 548.932H90.9334C91.0454 550.58 91.9094 551.54 93.3174 551.54C94.2934 551.54 95.0934 551.124 95.5574 550.372L96.4214 551.092C95.8294 551.988 94.8054 552.676 93.2374 552.676C90.9814 552.676 89.5894 551.076 89.5894 548.532C89.5894 546.004 91.0134 544.388 93.1894 544.388C95.3174 544.388 96.6454 546.052 96.6454 548.308C96.6454 548.516 96.6294 548.74 96.5974 548.932ZM90.9494 547.844H95.3014C95.2214 546.42 94.3894 545.524 93.1894 545.524C91.9734 545.524 91.1414 546.356 90.9494 547.844ZM98.6948 552.5V544.564H99.9268V545.652C100.343 545.028 101.239 544.388 102.343 544.388C104.183 544.388 105.223 545.572 105.223 547.556V552.5H103.943V547.684C103.943 546.26 103.239 545.524 102.023 545.524C100.951 545.524 100.199 546.196 99.9748 546.948V552.5H98.6948ZM108.239 549.972V545.652H106.815V544.564H108.255V542.5H109.519V544.564H111.295V545.652H109.519V549.972C109.519 551.06 109.999 551.428 111.071 551.428H111.295V552.516C111.135 552.548 110.927 552.564 110.719 552.564C109.087 552.564 108.239 551.764 108.239 549.972ZM116.992 555.508V544.564H118.224V545.7C118.8 544.9 119.728 544.388 120.752 544.388C122.864 544.388 124.208 546.084 124.208 548.532C124.208 550.98 122.864 552.676 120.752 552.676C119.76 552.676 118.848 552.196 118.272 551.444V555.508H116.992ZM118.272 546.964V550.116C118.64 550.964 119.488 551.54 120.48 551.54C121.984 551.54 122.88 550.404 122.88 548.532C122.88 546.66 121.984 545.524 120.48 545.524C119.488 545.524 118.64 546.116 118.272 546.964ZM132.847 548.932H127.183C127.295 550.58 128.159 551.54 129.567 551.54C130.543 551.54 131.343 551.124 131.807 550.372L132.671 551.092C132.079 551.988 131.055 552.676 129.487 552.676C127.231 552.676 125.839 551.076 125.839 548.532C125.839 546.004 127.263 544.388 129.439 544.388C131.567 544.388 132.895 546.052 132.895 548.308C132.895 548.516 132.879 548.74 132.847 548.932ZM127.199 547.844H131.551C131.471 546.42 130.639 545.524 129.439 545.524C128.223 545.524 127.391 546.356 127.199 547.844ZM134.945 552.5V544.564H136.177V545.988C136.609 545.108 137.393 544.388 138.529 544.388C138.641 544.388 138.753 544.388 138.865 544.42V545.716H138.433C137.377 545.716 136.609 546.292 136.225 547.492V552.5H134.945ZM140.554 544.564H141.834V552.5H140.554V544.564ZM140.394 541.14H141.994V542.74H140.394V541.14ZM147.692 551.54C149.164 551.54 150.108 550.42 150.108 548.532C150.108 546.644 149.164 545.524 147.692 545.524C146.22 545.524 145.276 546.644 145.276 548.532C145.276 550.42 146.22 551.54 147.692 551.54ZM147.692 544.388C149.964 544.388 151.436 546.084 151.436 548.532C151.436 550.98 149.964 552.676 147.692 552.676C145.42 552.676 143.948 550.98 143.948 548.532C143.948 546.084 145.42 544.388 147.692 544.388ZM159.042 552.5V551.38C158.45 552.18 157.522 552.676 156.514 552.676C154.402 552.676 153.058 550.98 153.058 548.532C153.058 546.084 154.402 544.388 156.514 544.388C157.506 544.388 158.402 544.868 158.994 545.636V541.14H160.274V552.5H159.042ZM158.994 550.116V546.964C158.626 546.116 157.778 545.524 156.786 545.524C155.282 545.524 154.386 546.66 154.386 548.532C154.386 550.404 155.282 551.54 156.786 551.54C157.778 551.54 158.626 550.964 158.994 550.116ZM169.496 541.22L170.136 542.02C168.68 543.22 167.496 545.124 167.496 548.324C167.496 551.524 168.68 553.428 170.136 554.628L169.496 555.428C168.024 554.34 166.2 552.18 166.2 548.324C166.2 544.468 168.024 542.308 169.496 541.22ZM171.398 552.5V544.564H172.63V545.652C173.046 545.028 173.942 544.388 175.046 544.388C176.214 544.388 177.046 544.884 177.478 545.796C177.862 545.124 178.854 544.388 180.102 544.388C181.926 544.388 182.95 545.556 182.95 547.524V552.5H181.67V547.652C181.67 546.244 181.014 545.524 179.862 545.524C178.79 545.524 178.038 546.196 177.814 546.948V552.5H176.534V547.652C176.534 546.244 175.878 545.524 174.726 545.524C173.654 545.524 172.902 546.196 172.678 546.948V552.5H171.398ZM188.708 551.54C190.18 551.54 191.124 550.42 191.124 548.532C191.124 546.644 190.18 545.524 188.708 545.524C187.236 545.524 186.292 546.644 186.292 548.532C186.292 550.42 187.236 551.54 188.708 551.54ZM188.708 544.388C190.98 544.388 192.452 546.084 192.452 548.532C192.452 550.98 190.98 552.676 188.708 552.676C186.436 552.676 184.964 550.98 184.964 548.532C184.964 546.084 186.436 544.388 188.708 544.388ZM194.57 552.5V544.564H195.802V545.652C196.218 545.028 197.114 544.388 198.218 544.388C200.058 544.388 201.098 545.572 201.098 547.556V552.5H199.818V547.684C199.818 546.26 199.114 545.524 197.898 545.524C196.826 545.524 196.074 546.196 195.85 546.948V552.5H194.57ZM204.114 549.972V545.652H202.69V544.564H204.13V542.5H205.394V544.564H207.17V545.652H205.394V549.972C205.394 551.06 205.874 551.428 206.946 551.428H207.17V552.516C207.01 552.548 206.802 552.564 206.594 552.564C204.962 552.564 204.114 551.764 204.114 549.972ZM209.101 552.5V541.14H210.381V545.572C210.813 544.98 211.693 544.388 212.749 544.388C214.589 544.388 215.629 545.572 215.629 547.556V552.5H214.349V547.684C214.349 546.26 213.645 545.524 212.429 545.524C211.357 545.524 210.605 546.196 210.381 546.948V552.5H209.101ZM223.028 545.684L222.196 546.404C221.732 545.748 221.14 545.476 220.468 545.476C219.684 545.476 219.268 545.988 219.268 546.564C219.268 547.156 219.636 547.508 220.292 547.652L220.964 547.796C222.468 548.116 223.364 548.804 223.364 550.196C223.364 551.476 222.26 552.676 220.372 552.676C218.98 552.676 217.956 551.892 217.38 551.028L218.212 550.26C218.676 550.964 219.412 551.588 220.404 551.588C221.412 551.588 222.068 551.076 222.068 550.276C222.068 549.54 221.476 549.188 220.596 548.996L219.924 548.852C218.676 548.58 217.972 547.844 217.972 546.692C217.972 545.476 218.884 544.388 220.516 544.388C221.62 544.388 222.5 544.9 223.028 545.684ZM224.563 555.428L223.923 554.628C225.379 553.428 226.563 551.524 226.563 548.324C226.563 545.124 225.379 543.22 223.923 542.02L224.563 541.22C226.035 542.308 227.859 544.468 227.859 548.324C227.859 552.18 226.035 554.34 224.563 555.428Z" fill="black"/>
    <g clip-path="url(#clip19_288_38783)">
    <rect x="602" y="537" width="20" height="20" rx="10" fill="white"/>
    <line x1="597.646" y1="540.936" x2="625.931" y2="512.651" stroke="#CCCCCC"/>
    <line x1="597.646" y1="547.936" x2="625.931" y2="519.651" stroke="#CCCCCC"/>
    <line x1="597.646" y1="554.936" x2="625.931" y2="526.651" stroke="#CCCCCC"/>
    <line x1="597.646" y1="561.936" x2="625.931" y2="533.651" stroke="#CCCCCC"/>
    <line x1="597.646" y1="568.936" x2="625.931" y2="540.651" stroke="#CCCCCC"/>
    <line x1="597.646" y1="575.936" x2="625.931" y2="547.651" stroke="#CCCCCC"/>
    <line x1="597.646" y1="582.936" x2="625.931" y2="554.651" stroke="#CCCCCC"/>
    </g>
    <rect x="602.5" y="537.5" width="19" height="19" rx="9.5" stroke="#CCCCCC"/>
    <path d="M602 547H622V547C622 552.523 617.523 557 612 557V557C606.477 557 602 552.523 602 547V547Z" fill="#AF6249"/>
    <path d="M640.538 552.5L637.866 545.748C637.498 544.836 637.194 543.956 637.146 543.716H637.098C637.13 543.94 637.162 544.916 637.162 545.876V552.5H635.834V541.62H637.53L640.698 549.508C640.938 550.084 641.146 550.66 641.146 550.9H641.194C641.194 550.66 641.402 550.084 641.626 549.508L644.794 541.62H646.49V552.5H645.162V545.876C645.162 544.916 645.194 543.94 645.226 543.716H645.178C645.13 543.956 644.826 544.836 644.458 545.748L641.786 552.5H640.538ZM652.544 551.54C654.016 551.54 654.96 550.42 654.96 548.532C654.96 546.644 654.016 545.524 652.544 545.524C651.072 545.524 650.128 546.644 650.128 548.532C650.128 550.42 651.072 551.54 652.544 551.54ZM652.544 544.388C654.816 544.388 656.288 546.084 656.288 548.532C656.288 550.98 654.816 552.676 652.544 552.676C650.272 552.676 648.8 550.98 648.8 548.532C648.8 546.084 650.272 544.388 652.544 544.388ZM658.406 552.5V544.564H659.638V545.652C660.054 545.028 660.95 544.388 662.054 544.388C663.894 544.388 664.934 545.572 664.934 547.556V552.5H663.654V547.684C663.654 546.26 662.95 545.524 661.734 545.524C660.662 545.524 659.91 546.196 659.686 546.948V552.5H658.406ZM667.95 549.972V545.652H666.526V544.564H667.966V542.5H669.23V544.564H671.006V545.652H669.23V549.972C669.23 551.06 669.71 551.428 670.782 551.428H671.006V552.516C670.846 552.548 670.638 552.564 670.43 552.564C668.798 552.564 667.95 551.764 667.95 549.972ZM672.937 552.5V541.14H674.217V545.572C674.649 544.98 675.529 544.388 676.585 544.388C678.425 544.388 679.465 545.572 679.465 547.556V552.5H678.185V547.684C678.185 546.26 677.481 545.524 676.265 545.524C675.193 545.524 674.441 546.196 674.217 546.948V552.5H672.937ZM682 541.14H683.28V552.5H682V541.14ZM686.466 555.508L688.098 551.7L685.026 544.564H686.402L688.226 549.108C688.466 549.7 688.674 550.292 688.674 550.532H688.722C688.802 550.116 688.93 549.7 689.154 549.108L690.85 544.564H692.242L687.858 555.508H686.466ZM697.406 555.508V544.564H698.638V545.7C699.214 544.9 700.142 544.388 701.166 544.388C703.278 544.388 704.622 546.084 704.622 548.532C704.622 550.98 703.278 552.676 701.166 552.676C700.174 552.676 699.262 552.196 698.686 551.444V555.508H697.406ZM698.686 546.964V550.116C699.054 550.964 699.902 551.54 700.894 551.54C702.398 551.54 703.294 550.404 703.294 548.532C703.294 546.66 702.398 545.524 700.894 545.524C699.902 545.524 699.054 546.116 698.686 546.964ZM711.278 548.388V547.588C711.278 546.436 710.654 545.524 709.342 545.524C708.398 545.524 707.918 545.86 707.342 546.42L706.606 545.588C707.182 544.98 707.982 544.388 709.374 544.388C711.454 544.388 712.558 545.652 712.558 547.492V552.5H711.326V551.716C710.734 552.356 709.918 552.676 709.07 552.676C707.278 552.676 706.142 551.508 706.142 550.068C706.142 548.628 707.278 547.46 709.07 547.46C709.902 547.46 710.702 547.78 711.278 548.388ZM711.278 550.612V549.524C710.862 548.82 709.966 548.532 709.246 548.532C707.95 548.532 707.438 549.348 707.438 550.068C707.438 550.788 707.95 551.604 709.246 551.604C709.966 551.604 710.862 551.332 711.278 550.612ZM715.388 555.508L717.02 551.7L713.948 544.564H715.324L717.148 549.108C717.388 549.7 717.596 550.292 717.596 550.532H717.644C717.724 550.116 717.852 549.7 718.076 549.108L719.772 544.564H721.164L716.78 555.508H715.388ZM722.859 552.5V544.564H724.091V545.652C724.507 545.028 725.403 544.388 726.507 544.388C727.675 544.388 728.507 544.884 728.939 545.796C729.323 545.124 730.315 544.388 731.563 544.388C733.387 544.388 734.411 545.556 734.411 547.524V552.5H733.131V547.652C733.131 546.244 732.475 545.524 731.323 545.524C730.251 545.524 729.499 546.196 729.275 546.948V552.5H727.995V547.652C727.995 546.244 727.339 545.524 726.187 545.524C725.115 545.524 724.363 546.196 724.139 546.948V552.5H722.859ZM743.449 548.932H737.785C737.897 550.58 738.761 551.54 740.169 551.54C741.145 551.54 741.945 551.124 742.409 550.372L743.273 551.092C742.681 551.988 741.657 552.676 740.089 552.676C737.833 552.676 736.441 551.076 736.441 548.532C736.441 546.004 737.865 544.388 740.041 544.388C742.169 544.388 743.497 546.052 743.497 548.308C743.497 548.516 743.481 548.74 743.449 548.932ZM737.801 547.844H742.153C742.073 546.42 741.241 545.524 740.041 545.524C738.825 545.524 737.993 546.356 737.801 547.844ZM745.546 552.5V544.564H746.778V545.652C747.194 545.028 748.09 544.388 749.194 544.388C751.034 544.388 752.074 545.572 752.074 547.556V552.5H750.794V547.684C750.794 546.26 750.09 545.524 748.874 545.524C747.802 545.524 747.05 546.196 746.826 546.948V552.5H745.546ZM755.091 549.972V545.652H753.667V544.564H755.107V542.5H756.371V544.564H758.147V545.652H756.371V549.972C756.371 551.06 756.851 551.428 757.923 551.428H758.147V552.516C757.987 552.548 757.779 552.564 757.571 552.564C755.939 552.564 755.091 551.764 755.091 549.972Z" fill="black"/>
    <rect x="779" y="537" width="20" height="20" rx="10" fill="#AF6249"/>
    <path d="M816.388 548.052H814.1V552.5H812.772V541.62H816.388C818.548 541.62 819.86 542.788 819.86 544.836C819.86 546.884 818.548 548.052 816.388 548.052ZM816.228 542.756H814.1V546.916H816.228C817.732 546.916 818.484 546.18 818.484 544.836C818.484 543.492 817.732 542.756 816.228 542.756ZM821.765 552.5V544.564H822.997V545.988C823.429 545.108 824.213 544.388 825.349 544.388C825.461 544.388 825.573 544.388 825.685 544.42V545.716H825.253C824.197 545.716 823.429 546.292 823.045 547.492V552.5H821.765ZM827.375 544.564H828.655V552.5H827.375V544.564ZM827.215 541.14H828.815V542.74H827.215V541.14ZM831.281 552.5V544.564H832.513V545.652C832.929 545.028 833.825 544.388 834.929 544.388C836.769 544.388 837.809 545.572 837.809 547.556V552.5H836.529V547.684C836.529 546.26 835.825 545.524 834.609 545.524C833.537 545.524 832.785 546.196 832.561 546.948V552.5H831.281ZM846.679 546.484L845.671 546.996C845.303 546.036 844.535 545.524 843.511 545.524C842.087 545.524 841.175 546.644 841.175 548.532C841.175 550.42 842.087 551.54 843.511 551.54C844.535 551.54 845.303 551.028 845.671 550.068L846.679 550.58C846.231 551.86 845.015 552.676 843.511 552.676C841.223 552.676 839.847 550.98 839.847 548.532C839.847 546.084 841.223 544.388 843.511 544.388C845.015 544.388 846.231 545.204 846.679 546.484ZM848.64 544.564H849.92V552.5H848.64V544.564ZM848.48 541.14H850.08V542.74H848.48V541.14ZM852.546 555.508V544.564H853.778V545.7C854.354 544.9 855.282 544.388 856.306 544.388C858.418 544.388 859.762 546.084 859.762 548.532C859.762 550.98 858.418 552.676 856.306 552.676C855.314 552.676 854.402 552.196 853.826 551.444V555.508H852.546ZM853.826 546.964V550.116C854.194 550.964 855.042 551.54 856.034 551.54C857.538 551.54 858.434 550.404 858.434 548.532C858.434 546.66 857.538 545.524 856.034 545.524C855.042 545.524 854.194 546.116 853.826 546.964ZM866.418 548.388V547.588C866.418 546.436 865.794 545.524 864.482 545.524C863.538 545.524 863.058 545.86 862.482 546.42L861.746 545.588C862.322 544.98 863.122 544.388 864.514 544.388C866.594 544.388 867.698 545.652 867.698 547.492V552.5H866.466V551.716C865.874 552.356 865.058 552.676 864.21 552.676C862.418 552.676 861.282 551.508 861.282 550.068C861.282 548.628 862.418 547.46 864.21 547.46C865.042 547.46 865.842 547.78 866.418 548.388ZM866.418 550.612V549.524C866.002 548.82 865.106 548.532 864.386 548.532C863.09 548.532 862.578 549.348 862.578 550.068C862.578 550.788 863.09 551.604 864.386 551.604C865.106 551.604 866.002 551.332 866.418 550.612ZM870.234 541.14H871.514V552.5H870.234V541.14Z" fill="black"/>
    <g clip-path="url(#clip20_288_38783)">
    <rect x="893" y="537" width="20" height="20" rx="10" fill="white"/>
    <line x1="888.646" y1="540.936" x2="916.931" y2="512.651" stroke="#CCCCCC"/>
    <line x1="888.646" y1="547.936" x2="916.931" y2="519.651" stroke="#CCCCCC"/>
    <line x1="888.646" y1="554.936" x2="916.931" y2="526.651" stroke="#CCCCCC"/>
    <line x1="888.646" y1="561.936" x2="916.931" y2="533.651" stroke="#CCCCCC"/>
    <line x1="888.646" y1="568.936" x2="916.931" y2="540.651" stroke="#CCCCCC"/>
    <line x1="888.646" y1="575.936" x2="916.931" y2="547.651" stroke="#CCCCCC"/>
    <line x1="888.646" y1="582.936" x2="916.931" y2="554.651" stroke="#CCCCCC"/>
    </g>
    <rect x="893.5" y="537.5" width="19" height="19" rx="9.5" stroke="#CCCCCC"/>
    <path d="M926.991 552.5V541.62H928.319V552.5H926.991ZM931.234 552.5V544.564H932.466V545.652C932.882 545.028 933.778 544.388 934.882 544.388C936.722 544.388 937.762 545.572 937.762 547.556V552.5H936.482V547.684C936.482 546.26 935.778 545.524 934.562 545.524C933.49 545.524 932.738 546.196 932.514 546.948V552.5H931.234ZM940.778 549.972V545.652H939.354V544.564H940.794V542.5H942.058V544.564H943.834V545.652H942.058V549.972C942.058 551.06 942.538 551.428 943.61 551.428H943.834V552.516C943.674 552.548 943.466 552.564 943.258 552.564C941.626 552.564 940.778 551.764 940.778 549.972ZM952.183 548.932H946.519C946.631 550.58 947.495 551.54 948.903 551.54C949.879 551.54 950.679 551.124 951.143 550.372L952.007 551.092C951.415 551.988 950.391 552.676 948.823 552.676C946.567 552.676 945.175 551.076 945.175 548.532C945.175 546.004 946.599 544.388 948.775 544.388C950.903 544.388 952.231 546.052 952.231 548.308C952.231 548.516 952.215 548.74 952.183 548.932ZM946.535 547.844H950.887C950.807 546.42 949.975 545.524 948.775 545.524C947.559 545.524 946.727 546.356 946.535 547.844ZM954.281 552.5V544.564H955.513V545.988C955.945 545.108 956.729 544.388 957.865 544.388C957.977 544.388 958.089 544.388 958.201 544.42V545.716H957.769C956.713 545.716 955.945 546.292 955.561 547.492V552.5H954.281ZM966.168 548.932H960.504C960.616 550.58 961.48 551.54 962.888 551.54C963.864 551.54 964.664 551.124 965.128 550.372L965.992 551.092C965.4 551.988 964.376 552.676 962.808 552.676C960.552 552.676 959.16 551.076 959.16 548.532C959.16 546.004 960.584 544.388 962.76 544.388C964.888 544.388 966.216 546.052 966.216 548.308C966.216 548.516 966.2 548.74 966.168 548.932ZM960.52 547.844H964.872C964.792 546.42 963.96 545.524 962.76 545.524C961.544 545.524 960.712 546.356 960.52 547.844ZM973.129 545.684L972.297 546.404C971.833 545.748 971.241 545.476 970.569 545.476C969.785 545.476 969.369 545.988 969.369 546.564C969.369 547.156 969.737 547.508 970.393 547.652L971.065 547.796C972.569 548.116 973.465 548.804 973.465 550.196C973.465 551.476 972.361 552.676 970.473 552.676C969.081 552.676 968.057 551.892 967.481 551.028L968.313 550.26C968.777 550.964 969.513 551.588 970.505 551.588C971.513 551.588 972.169 551.076 972.169 550.276C972.169 549.54 971.577 549.188 970.697 548.996L970.025 548.852C968.777 548.58 968.073 547.844 968.073 546.692C968.073 545.476 968.985 544.388 970.617 544.388C971.721 544.388 972.601 544.9 973.129 545.684ZM975.935 549.972V545.652H974.511V544.564H975.951V542.5H977.215V544.564H978.991V545.652H977.215V549.972C977.215 551.06 977.695 551.428 978.766 551.428H978.991V552.516C978.831 552.548 978.623 552.564 978.415 552.564C976.783 552.564 975.935 551.764 975.935 549.972Z" fill="black"/>
    <defs>
    <clipPath id="clip0_288_38783">
    <rect x="96" y="296" width="20" height="100" rx="10" fill="white"/>
    </clipPath>
    <clipPath id="clip1_288_38783">
    <rect width="250" height="250" fill="white" transform="translate(-19 221)"/>
    </clipPath>
    <clipPath id="clip2_288_38783">
    <rect x="192" y="296" width="20" height="100" rx="10" fill="white"/>
    </clipPath>
    <clipPath id="clip3_288_38783">
    <rect width="250" height="250" fill="white" transform="translate(77 221)"/>
    </clipPath>
    <clipPath id="clip4_288_38783">
    <rect x="288" y="296" width="20" height="100" rx="10" fill="white"/>
    </clipPath>
    <clipPath id="clip5_288_38783">
    <rect width="250" height="250" fill="white" transform="translate(173 221)"/>
    </clipPath>
    <clipPath id="clip6_288_38783">
    <rect x="384" y="176" width="20" height="220" rx="10" fill="white"/>
    </clipPath>
    <clipPath id="clip7_288_38783">
    <rect width="250" height="250" fill="white" transform="translate(269 161)"/>
    </clipPath>
    <clipPath id="clip8_288_38783">
    <rect x="480" y="176" width="20" height="220" rx="10" fill="white"/>
    </clipPath>
    <clipPath id="clip9_288_38783">
    <rect width="250" height="250" fill="white" transform="translate(365 161)"/>
    </clipPath>
    <clipPath id="clip10_288_38783">
    <rect x="576" y="176" width="20" height="220" rx="10" fill="white"/>
    </clipPath>
    <clipPath id="clip11_288_38783">
    <rect width="250" height="250" fill="white" transform="translate(461 161)"/>
    </clipPath>
    <clipPath id="clip12_288_38783">
    <rect x="672" y="176" width="20" height="220" rx="10" fill="white"/>
    </clipPath>
    <clipPath id="clip13_288_38783">
    <rect width="250" height="250" fill="white" transform="translate(557 161)"/>
    </clipPath>
    <clipPath id="clip14_288_38783">
    <rect x="768" y="176" width="20" height="220" rx="10" fill="white"/>
    </clipPath>
    <clipPath id="clip15_288_38783">
    <rect width="250" height="250" fill="white" transform="translate(653 161)"/>
    </clipPath>
    <clipPath id="clip16_288_38783">
    <rect x="864" y="176" width="20" height="220" rx="10" fill="white"/>
    </clipPath>
    <clipPath id="clip17_288_38783">
    <rect width="250" height="250" fill="white" transform="translate(749 161)"/>
    </clipPath>
    <clipPath id="clip18_288_38783">
    <rect width="24" height="24" fill="white" transform="translate(0 535)"/>
    </clipPath>
    <clipPath id="clip19_288_38783">
    <rect x="602" y="537" width="20" height="20" rx="10" fill="white"/>
    </clipPath>
    <clipPath id="clip20_288_38783">
    <rect x="893" y="537" width="20" height="20" rx="10" fill="white"/>
    </clipPath>
    </defs>
    </svg>
    