<svg width="980" height="559" viewBox="0 0 980 559" fill="none" xmlns="http://www.w3.org/2000/svg">
    <path d="M482.861 9.968L480.389 11.648C479.525 10.112 478.349 9.128 476.237 9.128C473.165 9.128 471.869 11.6 471.869 14.84C471.869 18.08 473.189 20.552 476.309 20.552C477.821 20.552 478.805 20.144 479.621 19.496V16.688H476.501V14.048H482.861V20.888C481.397 22.232 478.901 23.336 476.189 23.336C471.533 23.336 468.509 19.688 468.509 14.84C468.509 9.992 471.533 6.344 476.189 6.344C479.429 6.344 481.541 7.76 482.861 9.968ZM489.373 23H486.133V6.68H496.525V9.32H489.373V13.592H495.613V16.232H489.373V23ZM502.977 23L497.361 6.68H500.721L504.273 17.696C504.609 18.8 504.873 19.88 504.873 20.288H504.969C504.969 19.88 505.233 18.8 505.569 17.696L509.121 6.68H512.481L506.865 23H502.977Z" fill="black"/>
    <path d="M166.519 76L171.519 62.4H173.379L178.359 76H176.579L175.359 72.58H169.499L168.299 76H166.519ZM171.879 65.84L169.999 71.16H174.859L172.999 65.84C172.719 65.04 172.479 64.26 172.479 63.96H172.419C172.419 64.26 172.179 65.04 171.879 65.84ZM184.521 76V66.08H186.061V67.86C186.601 66.76 187.581 65.86 189.001 65.86C189.141 65.86 189.281 65.86 189.421 65.9V67.52H188.881C187.561 67.52 186.601 68.24 186.121 69.74V76H184.521ZM199.38 71.54H192.3C192.44 73.6 193.52 74.8 195.28 74.8C196.5 74.8 197.5 74.28 198.08 73.34L199.16 74.24C198.42 75.36 197.14 76.22 195.18 76.22C192.36 76.22 190.62 74.22 190.62 71.04C190.62 67.88 192.4 65.86 195.12 65.86C197.78 65.86 199.44 67.94 199.44 70.76C199.44 71.02 199.42 71.3 199.38 71.54ZM192.32 70.18H197.76C197.66 68.4 196.62 67.28 195.12 67.28C193.6 67.28 192.56 68.32 192.32 70.18ZM202.001 79.76V66.08H203.541V67.5C204.261 66.5 205.421 65.86 206.701 65.86C209.341 65.86 211.021 67.98 211.021 71.04C211.021 74.1 209.341 76.22 206.701 76.22C205.461 76.22 204.321 75.62 203.601 74.68V79.76H202.001ZM203.601 69.08V73.02C204.061 74.08 205.121 74.8 206.361 74.8C208.241 74.8 209.361 73.38 209.361 71.04C209.361 68.7 208.241 67.28 206.361 67.28C205.121 67.28 204.061 68.02 203.601 69.08ZM219.341 70.86V69.86C219.341 68.42 218.561 67.28 216.921 67.28C215.741 67.28 215.141 67.7 214.421 68.4L213.501 67.36C214.221 66.6 215.221 65.86 216.961 65.86C219.561 65.86 220.941 67.44 220.941 69.74V76H219.401V75.02C218.661 75.82 217.641 76.22 216.581 76.22C214.341 76.22 212.921 74.76 212.921 72.96C212.921 71.16 214.341 69.7 216.581 69.7C217.621 69.7 218.621 70.1 219.341 70.86ZM219.341 73.64V72.28C218.821 71.4 217.701 71.04 216.801 71.04C215.181 71.04 214.541 72.06 214.541 72.96C214.541 73.86 215.181 74.88 216.801 74.88C217.701 74.88 218.821 74.54 219.341 73.64ZM224.479 79.76L226.519 75L222.679 66.08H224.399L226.679 71.76C226.979 72.5 227.239 73.24 227.239 73.54H227.299C227.399 73.02 227.559 72.5 227.839 71.76L229.959 66.08H231.699L226.219 79.76H224.479ZM233.818 76V66.08H235.358V67.44C235.878 66.66 236.998 65.86 238.378 65.86C239.838 65.86 240.878 66.48 241.418 67.62C241.898 66.78 243.138 65.86 244.698 65.86C246.978 65.86 248.258 67.32 248.258 69.78V76H246.658V69.94C246.658 68.18 245.838 67.28 244.398 67.28C243.058 67.28 242.118 68.12 241.838 69.06V76H240.238V69.94C240.238 68.18 239.418 67.28 237.978 67.28C236.638 67.28 235.698 68.12 235.418 69.06V76H233.818ZM259.555 71.54H252.475C252.615 73.6 253.695 74.8 255.455 74.8C256.675 74.8 257.675 74.28 258.255 73.34L259.335 74.24C258.595 75.36 257.315 76.22 255.355 76.22C252.535 76.22 250.795 74.22 250.795 71.04C250.795 67.88 252.575 65.86 255.295 65.86C257.955 65.86 259.615 67.94 259.615 70.76C259.615 71.02 259.595 71.3 259.555 71.54ZM252.495 70.18H257.935C257.835 68.4 256.795 67.28 255.295 67.28C253.775 67.28 252.735 68.32 252.495 70.18ZM262.177 76V66.08H263.717V67.44C264.237 66.66 265.357 65.86 266.737 65.86C269.037 65.86 270.337 67.34 270.337 69.82V76H268.737V69.98C268.737 68.2 267.857 67.28 266.337 67.28C264.997 67.28 264.057 68.12 263.777 69.06V76H262.177ZM274.108 72.84V67.44H272.328V66.08H274.128V63.5H275.708V66.08H277.928V67.44H275.708V72.84C275.708 74.2 276.308 74.66 277.648 74.66H277.928V76.02C277.728 76.06 277.468 76.08 277.208 76.08C275.168 76.08 274.108 75.08 274.108 72.84ZM285.048 76V66.08H286.588V67.44C287.108 66.66 288.228 65.86 289.608 65.86C291.068 65.86 292.108 66.48 292.648 67.62C293.128 66.78 294.368 65.86 295.928 65.86C298.208 65.86 299.488 67.32 299.488 69.78V76H297.888V69.94C297.888 68.18 297.068 67.28 295.628 67.28C294.288 67.28 293.348 68.12 293.068 69.06V76H291.468V69.94C291.468 68.18 290.648 67.28 289.208 67.28C287.868 67.28 286.928 68.12 286.648 69.06V76H285.048ZM310.786 71.54H303.706C303.846 73.6 304.926 74.8 306.686 74.8C307.906 74.8 308.906 74.28 309.486 73.34L310.566 74.24C309.826 75.36 308.546 76.22 306.586 76.22C303.766 76.22 302.026 74.22 302.026 71.04C302.026 67.88 303.806 65.86 306.526 65.86C309.186 65.86 310.846 67.94 310.846 70.76C310.846 71.02 310.826 71.3 310.786 71.54ZM303.726 70.18H309.166C309.066 68.4 308.026 67.28 306.526 67.28C305.006 67.28 303.966 68.32 303.726 70.18ZM313.932 72.84V67.44H312.152V66.08H313.952V63.5H315.532V66.08H317.752V67.44H315.532V72.84C315.532 74.2 316.132 74.66 317.472 74.66H317.752V76.02C317.552 76.06 317.292 76.08 317.032 76.08C314.992 76.08 313.932 75.08 313.932 72.84ZM320.165 76V61.8H321.765V67.34C322.305 66.6 323.405 65.86 324.725 65.86C327.025 65.86 328.325 67.34 328.325 69.82V76H326.725V69.98C326.725 68.2 325.845 67.28 324.325 67.28C322.985 67.28 322.045 68.12 321.765 69.06V76H320.165ZM335.534 74.8C337.374 74.8 338.554 73.4 338.554 71.04C338.554 68.68 337.374 67.28 335.534 67.28C333.694 67.28 332.514 68.68 332.514 71.04C332.514 73.4 333.694 74.8 335.534 74.8ZM335.534 65.86C338.374 65.86 340.214 67.98 340.214 71.04C340.214 74.1 338.374 76.22 335.534 76.22C332.694 76.22 330.854 74.1 330.854 71.04C330.854 67.98 332.694 65.86 335.534 65.86ZM349.721 76V74.6C348.981 75.6 347.821 76.22 346.561 76.22C343.921 76.22 342.241 74.1 342.241 71.04C342.241 67.98 343.921 65.86 346.561 65.86C347.801 65.86 348.921 66.46 349.661 67.42V61.8H351.261V76H349.721ZM349.661 73.02V69.08C349.201 68.02 348.141 67.28 346.901 67.28C345.021 67.28 343.901 68.7 343.901 71.04C343.901 73.38 345.021 74.8 346.901 74.8C348.141 74.8 349.201 74.08 349.661 73.02ZM359.247 66.08H360.847V76H359.247V66.08ZM359.047 61.8H361.047V63.8H359.047V61.8ZM364.13 76V66.08H365.67V67.44C366.19 66.66 367.31 65.86 368.69 65.86C370.99 65.86 372.29 67.34 372.29 69.82V76H370.69V69.98C370.69 68.2 369.81 67.28 368.29 67.28C366.95 67.28 366.01 68.12 365.73 69.06V76H364.13ZM382.125 76L379.105 66.08H380.805L382.485 72.12C382.725 73 382.965 73.88 382.965 74.18H383.025C383.025 73.88 383.265 73 383.545 72.14L385.445 66.08H387.085L388.985 72.14C389.265 73 389.505 73.88 389.505 74.18H389.565C389.565 73.88 389.765 73 390.045 72.12L391.725 66.08H393.425L390.405 76H388.845L386.805 69.72C386.525 68.88 386.305 68.06 386.305 67.76H386.245C386.245 68.06 386.005 68.88 385.725 69.72L383.685 76H382.125ZM395.654 76V61.8H397.254V67.34C397.794 66.6 398.894 65.86 400.214 65.86C402.514 65.86 403.814 67.34 403.814 69.82V76H402.214V69.98C402.214 68.2 401.334 67.28 399.814 67.28C398.474 67.28 397.534 68.12 397.254 69.06V76H395.654ZM406.982 66.08H408.582V76H406.982V66.08ZM406.782 61.8H408.782V63.8H406.782V61.8ZM419.785 68.48L418.525 69.12C418.065 67.92 417.105 67.28 415.825 67.28C414.045 67.28 412.905 68.68 412.905 71.04C412.905 73.4 414.045 74.8 415.825 74.8C417.105 74.8 418.065 74.16 418.525 72.96L419.785 73.6C419.225 75.2 417.705 76.22 415.825 76.22C412.965 76.22 411.245 74.1 411.245 71.04C411.245 67.98 412.965 65.86 415.825 65.86C417.705 65.86 419.225 66.88 419.785 68.48ZM422.236 76V61.8H423.836V67.34C424.376 66.6 425.476 65.86 426.796 65.86C429.096 65.86 430.396 67.34 430.396 69.82V76H428.796V69.98C428.796 68.2 427.916 67.28 426.396 67.28C425.056 67.28 424.116 68.12 423.836 69.06V76H422.236ZM438.678 72.84V67.44H436.898V66.08H438.698V63.5H440.278V66.08H442.498V67.44H440.278V72.84C440.278 74.2 440.878 74.66 442.218 74.66H442.498V76.02C442.298 76.06 442.038 76.08 441.778 76.08C439.738 76.08 438.678 75.08 438.678 72.84ZM444.911 76V61.8H446.511V67.34C447.051 66.6 448.151 65.86 449.471 65.86C451.771 65.86 453.071 67.34 453.071 69.82V76H451.471V69.98C451.471 68.2 450.591 67.28 449.071 67.28C447.731 67.28 446.791 68.12 446.511 69.06V76H444.911ZM464.38 71.54H457.3C457.44 73.6 458.52 74.8 460.28 74.8C461.5 74.8 462.5 74.28 463.08 73.34L464.16 74.24C463.42 75.36 462.14 76.22 460.18 76.22C457.36 76.22 455.62 74.22 455.62 71.04C455.62 67.88 457.4 65.86 460.12 65.86C462.78 65.86 464.44 67.94 464.44 70.76C464.44 71.02 464.42 71.3 464.38 71.54ZM457.32 70.18H462.76C462.66 68.4 461.62 67.28 460.12 67.28C458.6 67.28 457.56 68.32 457.32 70.18ZM479.748 66.08V76H478.208V74.66C477.668 75.44 476.568 76.22 475.188 76.22C472.888 76.22 471.588 74.74 471.588 72.26V66.08H473.188V72.1C473.188 73.88 474.068 74.8 475.588 74.8C476.928 74.8 477.848 73.96 478.148 73.02V66.08H479.748ZM489.116 67.48L488.076 68.38C487.496 67.56 486.756 67.22 485.916 67.22C484.936 67.22 484.416 67.86 484.416 68.58C484.416 69.32 484.876 69.76 485.696 69.94L486.536 70.12C488.416 70.52 489.536 71.38 489.536 73.12C489.536 74.72 488.156 76.22 485.796 76.22C484.056 76.22 482.776 75.24 482.056 74.16L483.096 73.2C483.676 74.08 484.596 74.86 485.836 74.86C487.096 74.86 487.916 74.22 487.916 73.22C487.916 72.3 487.176 71.86 486.076 71.62L485.236 71.44C483.676 71.1 482.796 70.18 482.796 68.74C482.796 67.22 483.936 65.86 485.976 65.86C487.356 65.86 488.456 66.5 489.116 67.48ZM500.219 71.54H493.139C493.279 73.6 494.359 74.8 496.119 74.8C497.339 74.8 498.339 74.28 498.919 73.34L499.999 74.24C499.259 75.36 497.979 76.22 496.019 76.22C493.199 76.22 491.459 74.22 491.459 71.04C491.459 67.88 493.239 65.86 495.959 65.86C498.619 65.86 500.279 67.94 500.279 70.76C500.279 71.02 500.259 71.3 500.219 71.54ZM493.159 70.18H498.599C498.499 68.4 497.459 67.28 495.959 67.28C494.439 67.28 493.399 68.32 493.159 70.18ZM509.701 76V74.6C508.961 75.6 507.801 76.22 506.541 76.22C503.901 76.22 502.221 74.1 502.221 71.04C502.221 67.98 503.901 65.86 506.541 65.86C507.781 65.86 508.901 66.46 509.641 67.42V61.8H511.241V76H509.701ZM509.641 73.02V69.08C509.181 68.02 508.121 67.28 506.881 67.28C505.001 67.28 503.881 68.7 503.881 71.04C503.881 73.38 505.001 74.8 506.881 74.8C508.121 74.8 509.181 74.08 509.641 73.02ZM527.148 68.48L525.888 69.12C525.428 67.92 524.468 67.28 523.188 67.28C521.408 67.28 520.268 68.68 520.268 71.04C520.268 73.4 521.408 74.8 523.188 74.8C524.468 74.8 525.428 74.16 525.888 72.96L527.148 73.6C526.588 75.2 525.068 76.22 523.188 76.22C520.328 76.22 518.608 74.1 518.608 71.04C518.608 67.98 520.328 65.86 523.188 65.86C525.068 65.86 526.588 66.88 527.148 68.48ZM535.259 70.86V69.86C535.259 68.42 534.479 67.28 532.839 67.28C531.659 67.28 531.059 67.7 530.339 68.4L529.419 67.36C530.139 66.6 531.139 65.86 532.879 65.86C535.479 65.86 536.859 67.44 536.859 69.74V76H535.319V75.02C534.579 75.82 533.559 76.22 532.499 76.22C530.259 76.22 528.839 74.76 528.839 72.96C528.839 71.16 530.259 69.7 532.499 69.7C533.539 69.7 534.539 70.1 535.259 70.86ZM535.259 73.64V72.28C534.739 71.4 533.619 71.04 532.719 71.04C531.099 71.04 530.459 72.06 530.459 72.96C530.459 73.86 531.099 74.88 532.719 74.88C533.619 74.88 534.739 74.54 535.259 73.64ZM540.029 76V66.08H541.569V67.86C542.109 66.76 543.089 65.86 544.509 65.86C544.649 65.86 544.789 65.86 544.929 65.9V67.52H544.389C543.069 67.52 542.109 68.24 541.629 69.74V76H540.029ZM551.259 79.76V66.08H552.799V67.5C553.519 66.5 554.679 65.86 555.959 65.86C558.599 65.86 560.279 67.98 560.279 71.04C560.279 74.1 558.599 76.22 555.959 76.22C554.719 76.22 553.579 75.62 552.859 74.68V79.76H551.259ZM552.859 69.08V73.02C553.319 74.08 554.379 74.8 555.619 74.8C557.499 74.8 558.619 73.38 558.619 71.04C558.619 68.7 557.499 67.28 555.619 67.28C554.379 67.28 553.319 68.02 552.859 69.08ZM562.939 76V66.08H564.479V67.86C565.019 66.76 565.999 65.86 567.419 65.86C567.559 65.86 567.699 65.86 567.839 65.9V67.52H567.299C565.979 67.52 565.019 68.24 564.539 69.74V76H562.939ZM569.951 66.08H571.551V76H569.951V66.08ZM569.751 61.8H571.751V63.8H569.751V61.8ZM582.753 68.48L581.493 69.12C581.033 67.92 580.073 67.28 578.793 67.28C577.013 67.28 575.873 68.68 575.873 71.04C575.873 73.4 577.013 74.8 578.793 74.8C580.073 74.8 581.033 74.16 581.493 72.96L582.753 73.6C582.193 75.2 580.673 76.22 578.793 76.22C575.933 76.22 574.213 74.1 574.213 71.04C574.213 67.98 575.933 65.86 578.793 65.86C580.673 65.86 582.193 66.88 582.753 68.48ZM593.344 71.54H586.264C586.404 73.6 587.484 74.8 589.244 74.8C590.464 74.8 591.464 74.28 592.044 73.34L593.124 74.24C592.384 75.36 591.104 76.22 589.144 76.22C586.324 76.22 584.584 74.22 584.584 71.04C584.584 67.88 586.364 65.86 589.084 65.86C591.744 65.86 593.404 67.94 593.404 70.76C593.404 71.02 593.384 71.3 593.344 71.54ZM586.284 70.18H591.724C591.624 68.4 590.584 67.28 589.084 67.28C587.564 67.28 586.524 68.32 586.284 70.18ZM600.673 66.08H602.273V76H600.673V66.08ZM600.473 61.8H602.473V63.8H600.473V61.8ZM611.636 67.48L610.596 68.38C610.016 67.56 609.276 67.22 608.436 67.22C607.456 67.22 606.936 67.86 606.936 68.58C606.936 69.32 607.396 69.76 608.216 69.94L609.056 70.12C610.936 70.52 612.056 71.38 612.056 73.12C612.056 74.72 610.676 76.22 608.316 76.22C606.576 76.22 605.296 75.24 604.576 74.16L605.616 73.2C606.196 74.08 607.116 74.86 608.356 74.86C609.616 74.86 610.436 74.22 610.436 73.22C610.436 72.3 609.696 71.86 608.596 71.62L607.756 71.44C606.196 71.1 605.316 70.18 605.316 68.74C605.316 67.22 606.456 65.86 608.496 65.86C609.876 65.86 610.976 66.5 611.636 67.48ZM625.386 67.48L624.346 68.38C623.766 67.56 623.026 67.22 622.186 67.22C621.206 67.22 620.686 67.86 620.686 68.58C620.686 69.32 621.146 69.76 621.966 69.94L622.806 70.12C624.686 70.52 625.806 71.38 625.806 73.12C625.806 74.72 624.426 76.22 622.066 76.22C620.326 76.22 619.046 75.24 618.326 74.16L619.366 73.2C619.946 74.08 620.866 74.86 622.106 74.86C623.366 74.86 624.186 74.22 624.186 73.22C624.186 72.3 623.446 71.86 622.346 71.62L621.506 71.44C619.946 71.1 619.066 70.18 619.066 68.74C619.066 67.22 620.206 65.86 622.246 65.86C623.626 65.86 624.726 66.5 625.386 67.48ZM636.389 66.08V76H634.849V74.66C634.309 75.44 633.209 76.22 631.829 76.22C629.529 76.22 628.229 74.74 628.229 72.26V66.08H629.829V72.1C629.829 73.88 630.709 74.8 632.229 74.8C633.569 74.8 634.489 73.96 634.789 73.02V66.08H636.389ZM641.217 74.6V76H639.677V61.8H641.277V67.42C642.017 66.46 643.137 65.86 644.377 65.86C647.017 65.86 648.697 67.98 648.697 71.04C648.697 74.1 647.017 76.22 644.377 76.22C643.117 76.22 641.957 75.6 641.217 74.6ZM641.277 69.08V73.02C641.737 74.08 642.797 74.8 644.037 74.8C645.917 74.8 647.037 73.38 647.037 71.04C647.037 68.7 645.917 67.28 644.037 67.28C642.797 67.28 641.737 68.02 641.277 69.08ZM651.92 72.84V67.44H650.14V66.08H651.94V63.5H653.52V66.08H655.74V67.44H653.52V72.84C653.52 74.2 654.12 74.66 655.46 74.66H655.74V76.02C655.54 76.06 655.28 76.08 655.02 76.08C652.98 76.08 651.92 75.08 651.92 72.84ZM658.154 76V66.08H659.694V67.86C660.234 66.76 661.214 65.86 662.634 65.86C662.774 65.86 662.914 65.86 663.054 65.9V67.52H662.514C661.194 67.52 660.234 68.24 659.754 69.74V76H658.154ZM670.552 70.86V69.86C670.552 68.42 669.772 67.28 668.132 67.28C666.952 67.28 666.352 67.7 665.632 68.4L664.712 67.36C665.432 66.6 666.432 65.86 668.172 65.86C670.772 65.86 672.152 67.44 672.152 69.74V76H670.612V75.02C669.872 75.82 668.852 76.22 667.792 76.22C665.552 76.22 664.132 74.76 664.132 72.96C664.132 71.16 665.552 69.7 667.792 69.7C668.832 69.7 669.832 70.1 670.552 70.86ZM670.552 73.64V72.28C670.032 71.4 668.912 71.04 668.012 71.04C666.392 71.04 665.752 72.06 665.752 72.96C665.752 73.86 666.392 74.88 668.012 74.88C668.912 74.88 670.032 74.54 670.552 73.64ZM683.242 68.48L681.982 69.12C681.522 67.92 680.562 67.28 679.282 67.28C677.502 67.28 676.362 68.68 676.362 71.04C676.362 73.4 677.502 74.8 679.282 74.8C680.562 74.8 681.522 74.16 681.982 72.96L683.242 73.6C682.682 75.2 681.162 76.22 679.282 76.22C676.422 76.22 674.702 74.1 674.702 71.04C674.702 67.98 676.422 65.86 679.282 65.86C681.162 65.86 682.682 66.88 683.242 68.48ZM686.393 72.84V67.44H684.613V66.08H686.413V63.5H687.993V66.08H690.213V67.44H687.993V72.84C687.993 74.2 688.593 74.66 689.933 74.66H690.213V76.02C690.013 76.06 689.753 76.08 689.493 76.08C687.453 76.08 686.393 75.08 686.393 72.84ZM700.649 71.54H693.569C693.709 73.6 694.789 74.8 696.549 74.8C697.769 74.8 698.769 74.28 699.349 73.34L700.429 74.24C699.689 75.36 698.409 76.22 696.449 76.22C693.629 76.22 691.889 74.22 691.889 71.04C691.889 67.88 693.669 65.86 696.389 65.86C699.049 65.86 700.709 67.94 700.709 70.76C700.709 71.02 700.689 71.3 700.649 71.54ZM693.589 70.18H699.029C698.929 68.4 697.889 67.28 696.389 67.28C694.869 67.28 693.829 68.32 693.589 70.18ZM710.131 76V74.6C709.391 75.6 708.231 76.22 706.971 76.22C704.331 76.22 702.651 74.1 702.651 71.04C702.651 67.98 704.331 65.86 706.971 65.86C708.211 65.86 709.331 66.46 710.071 67.42V61.8H711.671V76H710.131ZM710.071 73.02V69.08C709.611 68.02 708.551 67.28 707.311 67.28C705.431 67.28 704.311 68.7 704.311 71.04C704.311 73.38 705.431 74.8 707.311 74.8C708.551 74.8 709.611 74.08 710.071 73.02ZM719.658 66.08H721.258V76H719.658V66.08ZM719.458 61.8H721.458V63.8H719.458V61.8ZM724.54 76V66.08H726.08V67.44C726.6 66.66 727.72 65.86 729.1 65.86C731.4 65.86 732.7 67.34 732.7 69.82V76H731.1V69.98C731.1 68.2 730.22 67.28 728.7 67.28C727.36 67.28 726.42 68.12 726.14 69.06V76H724.54ZM746.236 70.86V69.86C746.236 68.42 745.456 67.28 743.816 67.28C742.636 67.28 742.036 67.7 741.316 68.4L740.396 67.36C741.116 66.6 742.116 65.86 743.856 65.86C746.456 65.86 747.836 67.44 747.836 69.74V76H746.296V75.02C745.556 75.82 744.536 76.22 743.476 76.22C741.236 76.22 739.816 74.76 739.816 72.96C739.816 71.16 741.236 69.7 743.476 69.7C744.516 69.7 745.516 70.1 746.236 70.86ZM746.236 73.64V72.28C745.716 71.4 744.596 71.04 743.696 71.04C742.076 71.04 741.436 72.06 741.436 72.96C741.436 73.86 742.076 74.88 743.696 74.88C744.596 74.88 745.716 74.54 746.236 73.64ZM757.865 76V74.6C757.125 75.6 755.965 76.22 754.705 76.22C752.065 76.22 750.385 74.1 750.385 71.04C750.385 67.98 752.065 65.86 754.705 65.86C755.945 65.86 757.065 66.46 757.805 67.42V61.8H759.405V76H757.865ZM757.805 73.02V69.08C757.345 68.02 756.285 67.28 755.045 67.28C753.165 67.28 752.045 68.7 752.045 71.04C752.045 73.38 753.165 74.8 755.045 74.8C756.285 74.8 757.345 74.08 757.805 73.02ZM765.345 76L761.585 66.08H763.285L765.565 72.48C765.845 73.26 766.105 74.04 766.105 74.34H766.165C766.165 74.04 766.405 73.26 766.685 72.48L768.965 66.08H770.665L766.905 76H765.345ZM778.13 70.86V69.86C778.13 68.42 777.35 67.28 775.71 67.28C774.53 67.28 773.93 67.7 773.21 68.4L772.29 67.36C773.01 66.6 774.01 65.86 775.75 65.86C778.35 65.86 779.73 67.44 779.73 69.74V76H778.19V75.02C777.45 75.82 776.43 76.22 775.37 76.22C773.13 76.22 771.71 74.76 771.71 72.96C771.71 71.16 773.13 69.7 775.37 69.7C776.41 69.7 777.41 70.1 778.13 70.86ZM778.13 73.64V72.28C777.61 71.4 776.49 71.04 775.59 71.04C773.97 71.04 773.33 72.06 773.33 72.96C773.33 73.86 773.97 74.88 775.59 74.88C776.49 74.88 777.61 74.54 778.13 73.64ZM782.9 76V66.08H784.44V67.44C784.96 66.66 786.08 65.86 787.46 65.86C789.76 65.86 791.06 67.34 791.06 69.82V76H789.46V69.98C789.46 68.2 788.58 67.28 787.06 67.28C785.72 67.28 784.78 68.12 784.5 69.06V76H782.9ZM802.148 68.48L800.888 69.12C800.428 67.92 799.468 67.28 798.188 67.28C796.408 67.28 795.268 68.68 795.268 71.04C795.268 73.4 796.408 74.8 798.188 74.8C799.468 74.8 800.428 74.16 800.888 72.96L802.148 73.6C801.588 75.2 800.068 76.22 798.188 76.22C795.328 76.22 793.608 74.1 793.608 71.04C793.608 67.98 795.328 65.86 798.188 65.86C800.068 65.86 801.588 66.88 802.148 68.48ZM812.739 71.54H805.659C805.799 73.6 806.879 74.8 808.639 74.8C809.859 74.8 810.859 74.28 811.439 73.34L812.519 74.24C811.779 75.36 810.499 76.22 808.539 76.22C805.719 76.22 803.979 74.22 803.979 71.04C803.979 67.88 805.759 65.86 808.479 65.86C811.139 65.86 812.799 67.94 812.799 70.76C812.799 71.02 812.779 71.3 812.739 71.54ZM805.679 70.18H811.119C811.019 68.4 809.979 67.28 808.479 67.28C806.959 67.28 805.919 68.32 805.679 70.18ZM348.052 94.86V93.86C348.052 92.42 347.272 91.28 345.632 91.28C344.452 91.28 343.852 91.7 343.132 92.4L342.212 91.36C342.932 90.6 343.932 89.86 345.672 89.86C348.272 89.86 349.652 91.44 349.652 93.74V100H348.112V99.02C347.372 99.82 346.352 100.22 345.292 100.22C343.052 100.22 341.632 98.76 341.632 96.96C341.632 95.16 343.052 93.7 345.292 93.7C346.332 93.7 347.332 94.1 348.052 94.86ZM348.052 97.64V96.28C347.532 95.4 346.412 95.04 345.512 95.04C343.892 95.04 343.252 96.06 343.252 96.96C343.252 97.86 343.892 98.88 345.512 98.88C346.412 98.88 347.532 98.54 348.052 97.64ZM352.822 100V90.08H354.362V91.44C354.882 90.66 356.002 89.86 357.382 89.86C359.682 89.86 360.982 91.34 360.982 93.82V100H359.382V93.98C359.382 92.2 358.502 91.28 356.982 91.28C355.642 91.28 354.702 92.12 354.422 93.06V100H352.822ZM371.01 100V98.6C370.27 99.6 369.11 100.22 367.85 100.22C365.21 100.22 363.53 98.1 363.53 95.04C363.53 91.98 365.21 89.86 367.85 89.86C369.09 89.86 370.21 90.46 370.95 91.42V85.8H372.55V100H371.01ZM370.95 97.02V93.08C370.49 92.02 369.43 91.28 368.19 91.28C366.31 91.28 365.19 92.7 365.19 95.04C365.19 97.38 366.31 98.8 368.19 98.8C369.43 98.8 370.49 98.08 370.95 97.02ZM384.576 98.8C386.416 98.8 387.596 97.4 387.596 95.04C387.596 92.68 386.416 91.28 384.576 91.28C382.736 91.28 381.556 92.68 381.556 95.04C381.556 97.4 382.736 98.8 384.576 98.8ZM384.576 89.86C387.416 89.86 389.256 91.98 389.256 95.04C389.256 98.1 387.416 100.22 384.576 100.22C381.736 100.22 379.896 98.1 379.896 95.04C379.896 91.98 381.736 89.86 384.576 89.86ZM391.904 100V90.08H393.444V91.44C393.964 90.66 395.084 89.86 396.464 89.86C398.764 89.86 400.064 91.34 400.064 93.82V100H398.464V93.98C398.464 92.2 397.584 91.28 396.064 91.28C394.724 91.28 393.784 92.12 393.504 93.06V100H391.904ZM403.232 85.8H404.832V100H403.232V85.8ZM408.815 103.76L410.855 99L407.015 90.08H408.735L411.015 95.76C411.315 96.5 411.575 97.24 411.575 97.54H411.635C411.735 97.02 411.895 96.5 412.175 95.76L414.295 90.08H416.035L410.555 103.76H408.815ZM422.897 96.84V91.44H421.117V90.08H422.917V87.5H424.497V90.08H426.717V91.44H424.497V96.84C424.497 98.2 425.097 98.66 426.437 98.66H426.717V100.02C426.517 100.06 426.257 100.08 425.997 100.08C423.957 100.08 422.897 99.08 422.897 96.84ZM429.13 100V85.8H430.73V91.34C431.27 90.6 432.37 89.86 433.69 89.86C435.99 89.86 437.29 91.34 437.29 93.82V100H435.69V93.98C435.69 92.2 434.81 91.28 433.29 91.28C431.95 91.28 431.01 92.12 430.73 93.06V100H429.13ZM448.598 95.54H441.518C441.658 97.6 442.738 98.8 444.498 98.8C445.718 98.8 446.718 98.28 447.298 97.34L448.378 98.24C447.638 99.36 446.358 100.22 444.398 100.22C441.578 100.22 439.838 98.22 439.838 95.04C439.838 91.88 441.618 89.86 444.338 89.86C446.998 89.86 448.658 91.94 448.658 94.76C448.658 95.02 448.638 95.3 448.598 95.54ZM441.538 94.18H446.978C446.878 92.4 445.838 91.28 444.338 91.28C442.818 91.28 441.778 92.32 441.538 94.18ZM455.927 100V90.08H457.467V91.86C458.007 90.76 458.987 89.86 460.407 89.86C460.547 89.86 460.687 89.86 460.827 89.9V91.52H460.287C458.967 91.52 458.007 92.24 457.527 93.74V100H455.927ZM470.786 95.54H463.706C463.846 97.6 464.926 98.8 466.686 98.8C467.906 98.8 468.906 98.28 469.486 97.34L470.566 98.24C469.826 99.36 468.546 100.22 466.586 100.22C463.766 100.22 462.026 98.22 462.026 95.04C462.026 91.88 463.806 89.86 466.526 89.86C469.186 89.86 470.846 91.94 470.846 94.76C470.846 95.02 470.826 95.3 470.786 95.54ZM463.726 94.18H469.166C469.066 92.4 468.026 91.28 466.526 91.28C465.006 91.28 463.966 92.32 463.726 94.18ZM473.408 100V90.08H474.948V91.44C475.468 90.66 476.588 89.86 477.968 89.86C479.428 89.86 480.468 90.48 481.008 91.62C481.488 90.78 482.728 89.86 484.288 89.86C486.568 89.86 487.848 91.32 487.848 93.78V100H486.248V93.94C486.248 92.18 485.428 91.28 483.988 91.28C482.648 91.28 481.708 92.12 481.428 93.06V100H479.828V93.94C479.828 92.18 479.008 91.28 477.568 91.28C476.228 91.28 475.288 92.12 475.008 93.06V100H473.408ZM496.665 94.86V93.86C496.665 92.42 495.885 91.28 494.245 91.28C493.065 91.28 492.465 91.7 491.745 92.4L490.825 91.36C491.545 90.6 492.545 89.86 494.285 89.86C496.885 89.86 498.265 91.44 498.265 93.74V100H496.725V99.02C495.985 99.82 494.965 100.22 493.905 100.22C491.665 100.22 490.245 98.76 490.245 96.96C490.245 95.16 491.665 93.7 493.905 93.7C494.945 93.7 495.945 94.1 496.665 94.86ZM496.665 97.64V96.28C496.145 95.4 495.025 95.04 494.125 95.04C492.505 95.04 491.865 96.06 491.865 96.96C491.865 97.86 492.505 98.88 494.125 98.88C495.025 98.88 496.145 98.54 496.665 97.64ZM501.435 90.08H503.035V100H501.435V90.08ZM501.235 85.8H503.235V87.8H501.235V85.8ZM506.318 100V90.08H507.858V91.44C508.378 90.66 509.498 89.86 510.878 89.86C513.178 89.86 514.478 91.34 514.478 93.82V100H512.878V93.98C512.878 92.2 511.998 91.28 510.478 91.28C509.138 91.28 508.198 92.12 507.918 93.06V100H506.318ZM524.506 100V98.6C523.766 99.6 522.606 100.22 521.346 100.22C518.706 100.22 517.026 98.1 517.026 95.04C517.026 91.98 518.706 89.86 521.346 89.86C522.586 89.86 523.706 90.46 524.446 91.42V85.8H526.046V100H524.506ZM524.446 97.02V93.08C523.986 92.02 522.926 91.28 521.686 91.28C519.806 91.28 518.686 92.7 518.686 95.04C518.686 97.38 519.806 98.8 521.686 98.8C522.926 98.8 523.986 98.08 524.446 97.02ZM537.466 95.54H530.386C530.526 97.6 531.606 98.8 533.366 98.8C534.586 98.8 535.586 98.28 536.166 97.34L537.246 98.24C536.506 99.36 535.226 100.22 533.266 100.22C530.446 100.22 528.706 98.22 528.706 95.04C528.706 91.88 530.486 89.86 533.206 89.86C535.866 89.86 537.526 91.94 537.526 94.76C537.526 95.02 537.506 95.3 537.466 95.54ZM530.406 94.18H535.846C535.746 92.4 534.706 91.28 533.206 91.28C531.686 91.28 530.646 92.32 530.406 94.18ZM540.087 100V90.08H541.627V91.86C542.167 90.76 543.147 89.86 544.567 89.86C544.707 89.86 544.847 89.86 544.987 89.9V91.52H544.447C543.127 91.52 542.167 92.24 541.687 93.74V100H540.087ZM551.318 90.08H552.918V100H551.318V90.08ZM551.118 85.8H553.118V87.8H551.118V85.8ZM562.281 91.48L561.241 92.38C560.661 91.56 559.921 91.22 559.081 91.22C558.101 91.22 557.581 91.86 557.581 92.58C557.581 93.32 558.041 93.76 558.861 93.94L559.701 94.12C561.581 94.52 562.701 95.38 562.701 97.12C562.701 98.72 561.321 100.22 558.961 100.22C557.221 100.22 555.941 99.24 555.221 98.16L556.261 97.2C556.841 98.08 557.761 98.86 559.001 98.86C560.261 98.86 561.081 98.22 561.081 97.22C561.081 96.3 560.341 95.86 559.241 95.62L558.401 95.44C556.841 95.1 555.961 94.18 555.961 92.74C555.961 91.22 557.101 89.86 559.141 89.86C560.521 89.86 561.621 90.5 562.281 91.48ZM576.811 100V98.6C576.071 99.6 574.911 100.22 573.651 100.22C571.011 100.22 569.331 98.1 569.331 95.04C569.331 91.98 571.011 89.86 573.651 89.86C574.891 89.86 576.011 90.46 576.751 91.42V85.8H578.351V100H576.811ZM576.751 97.02V93.08C576.291 92.02 575.231 91.28 573.991 91.28C572.111 91.28 570.991 92.7 570.991 95.04C570.991 97.38 572.111 98.8 573.991 98.8C575.231 98.8 576.291 98.08 576.751 97.02ZM581.63 90.08H583.23V100H581.63V90.08ZM581.43 85.8H583.43V87.8H581.43V85.8ZM589.173 100L585.413 90.08H587.113L589.393 96.48C589.673 97.26 589.933 98.04 589.933 98.34H589.993C589.993 98.04 590.233 97.26 590.513 96.48L592.793 90.08H594.493L590.733 100H589.173ZM596.669 90.08H598.269V100H596.669V90.08ZM596.469 85.8H598.469V87.8H596.469V85.8ZM608.412 100V98.6C607.672 99.6 606.512 100.22 605.252 100.22C602.612 100.22 600.932 98.1 600.932 95.04C600.932 91.98 602.612 89.86 605.252 89.86C606.492 89.86 607.612 90.46 608.352 91.42V85.8H609.952V100H608.412ZM608.352 97.02V93.08C607.892 92.02 606.832 91.28 605.592 91.28C603.712 91.28 602.592 92.7 602.592 95.04C602.592 97.38 603.712 98.8 605.592 98.8C606.832 98.8 607.892 98.08 608.352 97.02ZM621.372 95.54H614.292C614.432 97.6 615.512 98.8 617.272 98.8C618.492 98.8 619.492 98.28 620.072 97.34L621.152 98.24C620.412 99.36 619.132 100.22 617.172 100.22C614.352 100.22 612.612 98.22 612.612 95.04C612.612 91.88 614.392 89.86 617.112 89.86C619.772 89.86 621.432 91.94 621.432 94.76C621.432 95.02 621.412 95.3 621.372 95.54ZM614.312 94.18H619.752C619.652 92.4 618.612 91.28 617.112 91.28C615.592 91.28 614.552 92.32 614.312 94.18ZM630.854 100V98.6C630.114 99.6 628.954 100.22 627.694 100.22C625.054 100.22 623.374 98.1 623.374 95.04C623.374 91.98 625.054 89.86 627.694 89.86C628.934 89.86 630.054 90.46 630.794 91.42V85.8H632.394V100H630.854ZM630.794 97.02V93.08C630.334 92.02 629.274 91.28 628.034 91.28C626.154 91.28 625.034 92.7 625.034 95.04C625.034 97.38 626.154 98.8 628.034 98.8C629.274 98.8 630.334 98.08 630.794 97.02ZM635.453 100V97.62H637.833V100H635.453Z" fill="black"/>
    <mask id="path-3-inside-1_288_37575" fill="white">
    <path d="M0 176H980V236H0V176Z"/>
    </mask>
    <path d="M0 176H980V236H0V176Z" fill="white"/>
    <path d="M980 235H0V237H980V235Z" fill="#E5E5E5" mask="url(#path-3-inside-1_288_37575)"/>
    <mask id="path-5-inside-2_288_37575" fill="white">
    <path d="M0 236H980V296H0V236Z"/>
    </mask>
    <path d="M0 236H980V296H0V236Z" fill="white"/>
    <path d="M980 295H0V297H980V295Z" fill="#E5E5E5" mask="url(#path-5-inside-2_288_37575)"/>
    <mask id="path-7-inside-3_288_37575" fill="white">
    <path d="M0 296H980V356H0V296Z"/>
    </mask>
    <path d="M0 296H980V356H0V296Z" fill="white"/>
    <path d="M980 355H0V357H980V355Z" fill="#E5E5E5" mask="url(#path-7-inside-3_288_37575)"/>
    <mask id="path-9-inside-4_288_37575" fill="white">
    <path d="M0 356H980V416H0V356Z"/>
    </mask>
    <path d="M0 356H980V416H0V356Z" fill="white"/>
    <path d="M980 415H0V417H980V415Z" fill="#666666" mask="url(#path-9-inside-4_288_37575)"/>
    <g clip-path="url(#clip0_288_37575)">
    <rect x="96" y="296" width="20" height="100" rx="10" fill="white"/>
    <g clip-path="url(#clip1_288_37575)">
    <line x1="91.6464" y1="370.787" x2="119.931" y2="342.503" stroke="#CCCCCC"/>
    <line x1="91.6464" y1="377.928" x2="119.931" y2="349.643" stroke="#CCCCCC"/>
    <line x1="91.6464" y1="384.928" x2="119.931" y2="356.643" stroke="#CCCCCC"/>
    <line x1="91.6464" y1="391.928" x2="119.931" y2="363.643" stroke="#CCCCCC"/>
    <line x1="91.6464" y1="398.928" x2="119.931" y2="370.643" stroke="#CCCCCC"/>
    <line x1="91.6464" y1="405.928" x2="119.931" y2="377.643" stroke="#CCCCCC"/>
    <line x1="91.6464" y1="412.928" x2="119.931" y2="384.643" stroke="#CCCCCC"/>
    <line x1="91.6464" y1="419.928" x2="119.931" y2="391.643" stroke="#CCCCCC"/>
    <line x1="91.6464" y1="301.076" x2="119.931" y2="272.792" stroke="#CCCCCC"/>
    <line x1="91.6464" y1="308.076" x2="119.931" y2="279.792" stroke="#CCCCCC"/>
    <line x1="91.6464" y1="315.076" x2="119.931" y2="286.792" stroke="#CCCCCC"/>
    <line x1="91.6464" y1="322.076" x2="119.931" y2="293.792" stroke="#CCCCCC"/>
    <line x1="91.6464" y1="329.076" x2="119.931" y2="300.792" stroke="#CCCCCC"/>
    <line x1="91.6464" y1="336.076" x2="119.931" y2="307.792" stroke="#CCCCCC"/>
    <line x1="91.6464" y1="343.076" x2="119.931" y2="314.792" stroke="#CCCCCC"/>
    <line x1="91.6464" y1="350.076" x2="119.931" y2="321.792" stroke="#CCCCCC"/>
    <line x1="91.6464" y1="357.076" x2="119.931" y2="328.792" stroke="#CCCCCC"/>
    <line x1="91.6464" y1="364.076" x2="119.931" y2="335.792" stroke="#CCCCCC"/>
    </g>
    </g>
    <rect x="96.5" y="296.5" width="19" height="99" rx="9.5" stroke="#CCCCCC"/>
    <rect x="96" y="352" width="20" height="44" rx="10" fill="#AF6249"/>
    <g clip-path="url(#clip2_288_37575)">
    <rect x="192" y="296" width="20" height="100" rx="10" fill="white"/>
    <g clip-path="url(#clip3_288_37575)">
    <line x1="187.646" y1="370.787" x2="215.931" y2="342.503" stroke="#CCCCCC"/>
    <line x1="187.646" y1="377.928" x2="215.931" y2="349.643" stroke="#CCCCCC"/>
    <line x1="187.646" y1="384.928" x2="215.931" y2="356.643" stroke="#CCCCCC"/>
    <line x1="187.646" y1="391.928" x2="215.931" y2="363.643" stroke="#CCCCCC"/>
    <line x1="187.646" y1="398.928" x2="215.931" y2="370.643" stroke="#CCCCCC"/>
    <line x1="187.646" y1="405.928" x2="215.931" y2="377.643" stroke="#CCCCCC"/>
    <line x1="187.646" y1="412.928" x2="215.931" y2="384.643" stroke="#CCCCCC"/>
    <line x1="187.646" y1="419.928" x2="215.931" y2="391.643" stroke="#CCCCCC"/>
    <line x1="187.646" y1="301.076" x2="215.931" y2="272.792" stroke="#CCCCCC"/>
    <line x1="187.646" y1="308.076" x2="215.931" y2="279.792" stroke="#CCCCCC"/>
    <line x1="187.646" y1="315.076" x2="215.931" y2="286.792" stroke="#CCCCCC"/>
    <line x1="187.646" y1="322.076" x2="215.931" y2="293.792" stroke="#CCCCCC"/>
    <line x1="187.646" y1="329.076" x2="215.931" y2="300.792" stroke="#CCCCCC"/>
    <line x1="187.646" y1="336.076" x2="215.931" y2="307.792" stroke="#CCCCCC"/>
    <line x1="187.646" y1="343.076" x2="215.931" y2="314.792" stroke="#CCCCCC"/>
    <line x1="187.646" y1="350.076" x2="215.931" y2="321.792" stroke="#CCCCCC"/>
    <line x1="187.646" y1="357.076" x2="215.931" y2="328.792" stroke="#CCCCCC"/>
    <line x1="187.646" y1="364.076" x2="215.931" y2="335.792" stroke="#CCCCCC"/>
    </g>
    </g>
    <rect x="192.5" y="296.5" width="19" height="99" rx="9.5" stroke="#CCCCCC"/>
    <rect x="192" y="352" width="20" height="44" rx="10" fill="#AF6249"/>
    <g clip-path="url(#clip4_288_37575)">
    <rect x="288" y="296" width="20" height="100" rx="10" fill="white"/>
    <g clip-path="url(#clip5_288_37575)">
    <line x1="283.646" y1="370.787" x2="311.931" y2="342.503" stroke="#CCCCCC"/>
    <line x1="283.646" y1="377.928" x2="311.931" y2="349.643" stroke="#CCCCCC"/>
    <line x1="283.646" y1="384.928" x2="311.931" y2="356.643" stroke="#CCCCCC"/>
    <line x1="283.646" y1="391.928" x2="311.931" y2="363.643" stroke="#CCCCCC"/>
    <line x1="283.646" y1="398.928" x2="311.931" y2="370.643" stroke="#CCCCCC"/>
    <line x1="283.646" y1="405.928" x2="311.931" y2="377.643" stroke="#CCCCCC"/>
    <line x1="283.646" y1="412.928" x2="311.931" y2="384.643" stroke="#CCCCCC"/>
    <line x1="283.646" y1="419.928" x2="311.931" y2="391.643" stroke="#CCCCCC"/>
    <line x1="283.646" y1="301.076" x2="311.931" y2="272.792" stroke="#CCCCCC"/>
    <line x1="283.646" y1="308.076" x2="311.931" y2="279.792" stroke="#CCCCCC"/>
    <line x1="283.646" y1="315.076" x2="311.931" y2="286.792" stroke="#CCCCCC"/>
    <line x1="283.646" y1="322.076" x2="311.931" y2="293.792" stroke="#CCCCCC"/>
    <line x1="283.646" y1="329.076" x2="311.931" y2="300.792" stroke="#CCCCCC"/>
    <line x1="283.646" y1="336.076" x2="311.931" y2="307.792" stroke="#CCCCCC"/>
    <line x1="283.646" y1="343.076" x2="311.931" y2="314.792" stroke="#CCCCCC"/>
    <line x1="283.646" y1="350.076" x2="311.931" y2="321.792" stroke="#CCCCCC"/>
    <line x1="283.646" y1="357.076" x2="311.931" y2="328.792" stroke="#CCCCCC"/>
    <line x1="283.646" y1="364.076" x2="311.931" y2="335.792" stroke="#CCCCCC"/>
    </g>
    </g>
    <rect x="288.5" y="296.5" width="19" height="99" rx="9.5" stroke="#CCCCCC"/>
    <rect x="288" y="352" width="20" height="44" rx="10" fill="#AF6249"/>
    <g clip-path="url(#clip6_288_37575)">
    <rect x="384" y="296" width="20" height="100" rx="10" fill="white"/>
    <g clip-path="url(#clip7_288_37575)">
    <line x1="379.646" y1="370.787" x2="407.931" y2="342.503" stroke="#CCCCCC"/>
    <line x1="379.646" y1="377.928" x2="407.931" y2="349.643" stroke="#CCCCCC"/>
    <line x1="379.646" y1="384.928" x2="407.931" y2="356.643" stroke="#CCCCCC"/>
    <line x1="379.646" y1="391.928" x2="407.931" y2="363.643" stroke="#CCCCCC"/>
    <line x1="379.646" y1="398.928" x2="407.931" y2="370.643" stroke="#CCCCCC"/>
    <line x1="379.646" y1="405.928" x2="407.931" y2="377.643" stroke="#CCCCCC"/>
    <line x1="379.646" y1="412.928" x2="407.931" y2="384.643" stroke="#CCCCCC"/>
    <line x1="379.646" y1="419.928" x2="407.931" y2="391.643" stroke="#CCCCCC"/>
    <line x1="379.646" y1="301.076" x2="407.931" y2="272.792" stroke="#CCCCCC"/>
    <line x1="379.646" y1="308.076" x2="407.931" y2="279.792" stroke="#CCCCCC"/>
    <line x1="379.646" y1="315.076" x2="407.931" y2="286.792" stroke="#CCCCCC"/>
    <line x1="379.646" y1="322.076" x2="407.931" y2="293.792" stroke="#CCCCCC"/>
    <line x1="379.646" y1="329.076" x2="407.931" y2="300.792" stroke="#CCCCCC"/>
    <line x1="379.646" y1="336.076" x2="407.931" y2="307.792" stroke="#CCCCCC"/>
    <line x1="379.646" y1="343.076" x2="407.931" y2="314.792" stroke="#CCCCCC"/>
    <line x1="379.646" y1="350.076" x2="407.931" y2="321.792" stroke="#CCCCCC"/>
    <line x1="379.646" y1="357.076" x2="407.931" y2="328.792" stroke="#CCCCCC"/>
    <line x1="379.646" y1="364.076" x2="407.931" y2="335.792" stroke="#CCCCCC"/>
    </g>
    </g>
    <rect x="384.5" y="296.5" width="19" height="99" rx="9.5" stroke="#CCCCCC"/>
    <rect x="384" y="352" width="20" height="44" rx="10" fill="#AF6249"/>
    <g clip-path="url(#clip8_288_37575)">
    <rect x="480" y="296" width="20" height="100" rx="10" fill="white"/>
    <g clip-path="url(#clip9_288_37575)">
    <line x1="475.646" y1="370.787" x2="503.931" y2="342.503" stroke="#CCCCCC"/>
    <line x1="475.646" y1="377.928" x2="503.931" y2="349.643" stroke="#CCCCCC"/>
    <line x1="475.646" y1="384.928" x2="503.931" y2="356.643" stroke="#CCCCCC"/>
    <line x1="475.646" y1="391.928" x2="503.931" y2="363.643" stroke="#CCCCCC"/>
    <line x1="475.646" y1="398.928" x2="503.931" y2="370.643" stroke="#CCCCCC"/>
    <line x1="475.646" y1="405.928" x2="503.931" y2="377.643" stroke="#CCCCCC"/>
    <line x1="475.646" y1="412.928" x2="503.931" y2="384.643" stroke="#CCCCCC"/>
    <line x1="475.646" y1="419.928" x2="503.931" y2="391.643" stroke="#CCCCCC"/>
    <line x1="475.646" y1="301.076" x2="503.931" y2="272.792" stroke="#CCCCCC"/>
    <line x1="475.646" y1="308.076" x2="503.931" y2="279.792" stroke="#CCCCCC"/>
    <line x1="475.646" y1="315.076" x2="503.931" y2="286.792" stroke="#CCCCCC"/>
    <line x1="475.646" y1="322.076" x2="503.931" y2="293.792" stroke="#CCCCCC"/>
    <line x1="475.646" y1="329.076" x2="503.931" y2="300.792" stroke="#CCCCCC"/>
    <line x1="475.646" y1="336.076" x2="503.931" y2="307.792" stroke="#CCCCCC"/>
    <line x1="475.646" y1="343.076" x2="503.931" y2="314.792" stroke="#CCCCCC"/>
    <line x1="475.646" y1="350.076" x2="503.931" y2="321.792" stroke="#CCCCCC"/>
    <line x1="475.646" y1="357.076" x2="503.931" y2="328.792" stroke="#CCCCCC"/>
    <line x1="475.646" y1="364.076" x2="503.931" y2="335.792" stroke="#CCCCCC"/>
    </g>
    </g>
    <rect x="480.5" y="296.5" width="19" height="99" rx="9.5" stroke="#CCCCCC"/>
    <rect x="480" y="352" width="20" height="44" rx="10" fill="#AF6249"/>
    <g clip-path="url(#clip10_288_37575)">
    <rect x="576" y="296" width="20" height="100" rx="10" fill="white"/>
    <g clip-path="url(#clip11_288_37575)">
    <line x1="571.646" y1="370.787" x2="599.931" y2="342.503" stroke="#CCCCCC"/>
    <line x1="571.646" y1="377.928" x2="599.931" y2="349.643" stroke="#CCCCCC"/>
    <line x1="571.646" y1="384.928" x2="599.931" y2="356.643" stroke="#CCCCCC"/>
    <line x1="571.646" y1="391.928" x2="599.931" y2="363.643" stroke="#CCCCCC"/>
    <line x1="571.646" y1="398.928" x2="599.931" y2="370.643" stroke="#CCCCCC"/>
    <line x1="571.646" y1="405.928" x2="599.931" y2="377.643" stroke="#CCCCCC"/>
    <line x1="571.646" y1="412.928" x2="599.931" y2="384.643" stroke="#CCCCCC"/>
    <line x1="571.646" y1="419.928" x2="599.931" y2="391.643" stroke="#CCCCCC"/>
    <line x1="571.646" y1="301.076" x2="599.931" y2="272.792" stroke="#CCCCCC"/>
    <line x1="571.646" y1="308.076" x2="599.931" y2="279.792" stroke="#CCCCCC"/>
    <line x1="571.646" y1="315.076" x2="599.931" y2="286.792" stroke="#CCCCCC"/>
    <line x1="571.646" y1="322.076" x2="599.931" y2="293.792" stroke="#CCCCCC"/>
    <line x1="571.646" y1="329.076" x2="599.931" y2="300.792" stroke="#CCCCCC"/>
    <line x1="571.646" y1="336.076" x2="599.931" y2="307.792" stroke="#CCCCCC"/>
    <line x1="571.646" y1="343.076" x2="599.931" y2="314.792" stroke="#CCCCCC"/>
    <line x1="571.646" y1="350.076" x2="599.931" y2="321.792" stroke="#CCCCCC"/>
    <line x1="571.646" y1="357.076" x2="599.931" y2="328.792" stroke="#CCCCCC"/>
    <line x1="571.646" y1="364.076" x2="599.931" y2="335.792" stroke="#CCCCCC"/>
    </g>
    </g>
    <rect x="576.5" y="296.5" width="19" height="99" rx="9.5" stroke="#CCCCCC"/>
    <rect x="576" y="352" width="20" height="44" rx="10" fill="#AF6249"/>
    <g clip-path="url(#clip12_288_37575)">
    <rect x="672" y="296" width="20" height="100" rx="10" fill="white"/>
    <g clip-path="url(#clip13_288_37575)">
    <line x1="667.646" y1="370.787" x2="695.931" y2="342.503" stroke="#CCCCCC"/>
    <line x1="667.646" y1="377.928" x2="695.931" y2="349.643" stroke="#CCCCCC"/>
    <line x1="667.646" y1="384.928" x2="695.931" y2="356.643" stroke="#CCCCCC"/>
    <line x1="667.646" y1="391.928" x2="695.931" y2="363.643" stroke="#CCCCCC"/>
    <line x1="667.646" y1="398.928" x2="695.931" y2="370.643" stroke="#CCCCCC"/>
    <line x1="667.646" y1="405.928" x2="695.931" y2="377.643" stroke="#CCCCCC"/>
    <line x1="667.646" y1="412.928" x2="695.931" y2="384.643" stroke="#CCCCCC"/>
    <line x1="667.646" y1="419.928" x2="695.931" y2="391.643" stroke="#CCCCCC"/>
    <line x1="667.646" y1="301.076" x2="695.931" y2="272.792" stroke="#CCCCCC"/>
    <line x1="667.646" y1="308.076" x2="695.931" y2="279.792" stroke="#CCCCCC"/>
    <line x1="667.646" y1="315.076" x2="695.931" y2="286.792" stroke="#CCCCCC"/>
    <line x1="667.646" y1="322.076" x2="695.931" y2="293.792" stroke="#CCCCCC"/>
    <line x1="667.646" y1="329.076" x2="695.931" y2="300.792" stroke="#CCCCCC"/>
    <line x1="667.646" y1="336.076" x2="695.931" y2="307.792" stroke="#CCCCCC"/>
    <line x1="667.646" y1="343.076" x2="695.931" y2="314.792" stroke="#CCCCCC"/>
    <line x1="667.646" y1="350.076" x2="695.931" y2="321.792" stroke="#CCCCCC"/>
    <line x1="667.646" y1="357.076" x2="695.931" y2="328.792" stroke="#CCCCCC"/>
    <line x1="667.646" y1="364.076" x2="695.931" y2="335.792" stroke="#CCCCCC"/>
    </g>
    </g>
    <rect x="672.5" y="296.5" width="19" height="99" rx="9.5" stroke="#CCCCCC"/>
    <rect x="672" y="352" width="20" height="44" rx="10" fill="#AF6249"/>
    <g clip-path="url(#clip14_288_37575)">
    <rect x="768" y="296" width="20" height="100" rx="10" fill="white"/>
    <g clip-path="url(#clip15_288_37575)">
    <line x1="763.646" y1="370.787" x2="791.931" y2="342.503" stroke="#CCCCCC"/>
    <line x1="763.646" y1="377.928" x2="791.931" y2="349.643" stroke="#CCCCCC"/>
    <line x1="763.646" y1="384.928" x2="791.931" y2="356.643" stroke="#CCCCCC"/>
    <line x1="763.646" y1="391.928" x2="791.931" y2="363.643" stroke="#CCCCCC"/>
    <line x1="763.646" y1="398.928" x2="791.931" y2="370.643" stroke="#CCCCCC"/>
    <line x1="763.646" y1="405.928" x2="791.931" y2="377.643" stroke="#CCCCCC"/>
    <line x1="763.646" y1="412.928" x2="791.931" y2="384.643" stroke="#CCCCCC"/>
    <line x1="763.646" y1="419.928" x2="791.931" y2="391.643" stroke="#CCCCCC"/>
    <line x1="763.646" y1="301.076" x2="791.931" y2="272.792" stroke="#CCCCCC"/>
    <line x1="763.646" y1="308.076" x2="791.931" y2="279.792" stroke="#CCCCCC"/>
    <line x1="763.646" y1="315.076" x2="791.931" y2="286.792" stroke="#CCCCCC"/>
    <line x1="763.646" y1="322.076" x2="791.931" y2="293.792" stroke="#CCCCCC"/>
    <line x1="763.646" y1="329.076" x2="791.931" y2="300.792" stroke="#CCCCCC"/>
    <line x1="763.646" y1="336.076" x2="791.931" y2="307.792" stroke="#CCCCCC"/>
    <line x1="763.646" y1="343.076" x2="791.931" y2="314.792" stroke="#CCCCCC"/>
    <line x1="763.646" y1="350.076" x2="791.931" y2="321.792" stroke="#CCCCCC"/>
    <line x1="763.646" y1="357.076" x2="791.931" y2="328.792" stroke="#CCCCCC"/>
    <line x1="763.646" y1="364.076" x2="791.931" y2="335.792" stroke="#CCCCCC"/>
    </g>
    </g>
    <rect x="768.5" y="296.5" width="19" height="99" rx="9.5" stroke="#CCCCCC"/>
    <rect x="768" y="352" width="20" height="44" rx="10" fill="#AF6249"/>
    <g clip-path="url(#clip16_288_37575)">
    <rect x="864" y="176" width="20" height="220" rx="10" fill="white"/>
    <g clip-path="url(#clip17_288_37575)">
    <line x1="859.646" y1="310.787" x2="887.931" y2="282.503" stroke="#CCCCCC"/>
    <line x1="859.646" y1="317.928" x2="887.931" y2="289.643" stroke="#CCCCCC"/>
    <line x1="859.646" y1="324.928" x2="887.931" y2="296.643" stroke="#CCCCCC"/>
    <line x1="859.646" y1="178.076" x2="887.931" y2="149.792" stroke="#CCCCCC"/>
    <line x1="859.646" y1="331.928" x2="887.931" y2="303.643" stroke="#CCCCCC"/>
    <line x1="859.646" y1="185.076" x2="887.931" y2="156.792" stroke="#CCCCCC"/>
    <line x1="859.646" y1="338.928" x2="887.931" y2="310.643" stroke="#CCCCCC"/>
    <line x1="859.646" y1="192.076" x2="887.931" y2="163.792" stroke="#CCCCCC"/>
    <line x1="859.646" y1="345.928" x2="887.931" y2="317.643" stroke="#CCCCCC"/>
    <line x1="859.646" y1="199.076" x2="887.931" y2="170.792" stroke="#CCCCCC"/>
    <line x1="859.646" y1="352.928" x2="887.931" y2="324.643" stroke="#CCCCCC"/>
    <line x1="859.646" y1="206.076" x2="887.931" y2="177.792" stroke="#CCCCCC"/>
    <line x1="859.646" y1="359.928" x2="887.931" y2="331.643" stroke="#CCCCCC"/>
    <line x1="859.646" y1="213.076" x2="887.931" y2="184.792" stroke="#CCCCCC"/>
    <line x1="859.646" y1="366.928" x2="887.931" y2="338.643" stroke="#CCCCCC"/>
    <line x1="859.646" y1="220.076" x2="887.931" y2="191.792" stroke="#CCCCCC"/>
    <line x1="859.646" y1="373.928" x2="887.931" y2="345.643" stroke="#CCCCCC"/>
    <line x1="859.646" y1="227.076" x2="887.931" y2="198.792" stroke="#CCCCCC"/>
    <line x1="859.646" y1="380.928" x2="887.931" y2="352.643" stroke="#CCCCCC"/>
    <line x1="859.646" y1="234.076" x2="887.931" y2="205.792" stroke="#CCCCCC"/>
    <line x1="859.646" y1="387.928" x2="887.931" y2="359.643" stroke="#CCCCCC"/>
    <line x1="859.646" y1="241.076" x2="887.931" y2="212.792" stroke="#CCCCCC"/>
    <line x1="859.646" y1="394.928" x2="887.931" y2="366.643" stroke="#CCCCCC"/>
    <line x1="859.646" y1="248.076" x2="887.931" y2="219.792" stroke="#CCCCCC"/>
    <line x1="859.646" y1="401.928" x2="887.931" y2="373.643" stroke="#CCCCCC"/>
    <line x1="859.646" y1="255.076" x2="887.931" y2="226.792" stroke="#CCCCCC"/>
    <line x1="859.646" y1="408.928" x2="887.931" y2="380.643" stroke="#CCCCCC"/>
    <line x1="859.646" y1="262.076" x2="887.931" y2="233.792" stroke="#CCCCCC"/>
    <line x1="859.646" y1="415.928" x2="887.931" y2="387.643" stroke="#CCCCCC"/>
    <line x1="859.646" y1="269.076" x2="887.931" y2="240.792" stroke="#CCCCCC"/>
    <line x1="859.646" y1="422.928" x2="887.931" y2="394.643" stroke="#CCCCCC"/>
    <line x1="859.646" y1="276.076" x2="887.931" y2="247.792" stroke="#CCCCCC"/>
    <line x1="859.646" y1="283.076" x2="887.931" y2="254.792" stroke="#CCCCCC"/>
    <line x1="859.646" y1="290.076" x2="887.931" y2="261.792" stroke="#CCCCCC"/>
    <line x1="859.646" y1="297.076" x2="887.931" y2="268.792" stroke="#CCCCCC"/>
    <line x1="859.646" y1="304.076" x2="887.931" y2="275.792" stroke="#CCCCCC"/>
    </g>
    </g>
    <rect x="864.5" y="176.5" width="19" height="219" rx="9.5" stroke="#CCCCCC"/>
    <rect x="864" y="297" width="20" height="99" rx="10" fill="#AF6249"/>
    <path d="M107.253 448.504V459H105.973V449.976L103.941 451.24L103.429 450.248L106.261 448.504H107.253Z" fill="black"/>
    <path d="M205.599 449.992L204.703 450.696C204.239 449.976 203.487 449.496 202.559 449.496C200.863 449.496 199.679 450.872 199.551 453.416C200.111 452.536 201.023 451.896 202.335 451.896C204.223 451.896 205.775 453.416 205.775 455.528C205.775 457.64 204.159 459.176 202.143 459.176C199.615 459.176 198.303 457.128 198.303 454.008C198.303 450.456 199.967 448.328 202.559 448.328C203.983 448.328 205.023 449.096 205.599 449.992ZM199.871 455.544C199.871 456.984 200.767 458.008 202.143 458.008C203.535 458.008 204.447 456.984 204.447 455.544C204.447 454.072 203.535 453.064 202.143 453.064C200.767 453.064 199.871 454.072 199.871 455.544Z" fill="black"/>
    <path d="M295.143 448.504V459H293.863V449.976L291.831 451.24L291.319 450.248L294.151 448.504H295.143ZM298.638 451.224L297.582 450.712C297.902 449.624 298.83 448.328 300.702 448.328C302.734 448.328 303.966 449.608 303.966 451.48C303.966 454.68 300.03 456.12 299.102 457.864H304.094V459H297.518V458.056C298.734 455.336 302.638 454.136 302.638 451.528C302.638 450.296 302.03 449.496 300.67 449.496C299.646 449.496 298.958 450.088 298.638 451.224Z" fill="black"/>
    <path d="M390.581 448.504V459H389.301V449.976L387.269 451.24L386.757 450.248L389.589 448.504H390.581ZM395.052 453.272C394.092 452.824 393.644 452.04 393.644 451.048C393.644 449.56 394.78 448.328 396.86 448.328C398.94 448.328 400.076 449.56 400.076 451.048C400.076 452.04 399.628 452.824 398.668 453.272C399.836 453.592 400.668 454.712 400.668 456.024C400.668 457.848 399.324 459.176 396.86 459.176C394.396 459.176 393.052 457.848 393.052 456.024C393.052 454.712 393.868 453.592 395.052 453.272ZM396.86 458.008C398.476 458.008 399.34 457.144 399.34 455.944C399.34 454.744 398.476 453.864 396.86 453.864C395.244 453.864 394.38 454.744 394.38 455.944C394.38 457.144 395.244 458.008 396.86 458.008ZM396.86 452.728C397.916 452.728 398.748 452.168 398.748 451.128C398.748 450.088 397.916 449.496 396.86 449.496C395.804 449.496 394.972 450.088 394.972 451.128C394.972 452.168 395.804 452.728 396.86 452.728Z" fill="black"/>
    <path d="M483.326 451.224L482.27 450.712C482.59 449.624 483.518 448.328 485.39 448.328C487.422 448.328 488.654 449.608 488.654 451.48C488.654 454.68 484.718 456.12 483.789 457.864H488.782V459H482.206V458.056C483.422 455.336 487.326 454.136 487.326 451.528C487.326 450.296 486.718 449.496 485.358 449.496C484.334 449.496 483.646 450.088 483.326 451.224ZM496.364 455.048H497.996V456.168H496.364V459H495.084V456.168H489.964V455.24L494.732 448.504H496.364V455.048ZM495.084 455.048V451.496C495.084 450.792 495.1 450.392 495.18 449.848H495.132C495.052 450.072 494.684 450.648 494.268 451.24L491.564 455.048H495.084Z" fill="black"/>
    <path d="M577.912 457.416L578.696 456.584C579.24 457.288 579.928 458.008 581.288 458.008C582.776 458.008 583.704 457.24 583.704 455.944C583.704 454.792 582.952 453.992 581.336 453.992H580.44V452.888H581.336C582.6 452.888 583.208 452.072 583.208 451.192C583.208 450.04 582.392 449.496 581.352 449.496C580.328 449.496 579.608 449.944 579.192 450.68L578.408 449.928C578.968 449.048 579.944 448.328 581.352 448.328C583.288 448.328 584.536 449.352 584.536 451.144C584.536 452.088 583.944 452.936 583.032 453.352C584.296 453.688 585.032 454.728 585.032 456.008C585.032 457.912 583.528 459.176 581.288 459.176C579.528 459.176 578.52 458.184 577.912 457.416ZM590.778 459.176C588.234 459.176 586.858 456.968 586.858 453.752C586.858 450.536 588.234 448.328 590.778 448.328C593.322 448.328 594.698 450.536 594.698 453.752C594.698 456.968 593.322 459.176 590.778 459.176ZM590.778 458.008C592.586 458.008 593.37 456.248 593.37 453.752C593.37 451.256 592.586 449.496 590.778 449.496C588.97 449.496 588.186 451.256 588.186 453.752C588.186 456.248 588.97 458.008 590.778 458.008Z" fill="black"/>
    <path d="M673.638 457.416L674.422 456.584C674.966 457.288 675.654 458.008 677.014 458.008C678.502 458.008 679.43 457.24 679.43 455.944C679.43 454.792 678.678 453.992 677.062 453.992H676.166V452.888H677.062C678.326 452.888 678.934 452.072 678.934 451.192C678.934 450.04 678.118 449.496 677.078 449.496C676.054 449.496 675.334 449.944 674.918 450.68L674.134 449.928C674.694 449.048 675.67 448.328 677.078 448.328C679.014 448.328 680.262 449.352 680.262 451.144C680.262 452.088 679.67 452.936 678.758 453.352C680.022 453.688 680.758 454.728 680.758 456.008C680.758 457.912 679.254 459.176 677.014 459.176C675.254 459.176 674.246 458.184 673.638 457.416ZM689.881 449.992L688.985 450.696C688.521 449.976 687.769 449.496 686.841 449.496C685.145 449.496 683.961 450.872 683.833 453.416C684.393 452.536 685.305 451.896 686.617 451.896C688.505 451.896 690.057 453.416 690.057 455.528C690.057 457.64 688.441 459.176 686.425 459.176C683.897 459.176 682.585 457.128 682.585 454.008C682.585 450.456 684.249 448.328 686.841 448.328C688.265 448.328 689.305 449.096 689.881 449.992ZM684.153 455.544C684.153 456.984 685.049 458.008 686.425 458.008C687.817 458.008 688.729 456.984 688.729 455.544C688.729 454.072 687.817 453.064 686.425 453.064C685.049 453.064 684.153 454.072 684.153 455.544Z" fill="black"/>
    <path d="M776.223 455.048H777.855V456.168H776.223V459H774.943V456.168H769.823V455.24L774.591 448.504H776.223V455.048ZM774.943 455.048V451.496C774.943 450.792 774.959 450.392 775.039 449.848H774.991C774.911 450.072 774.543 450.648 774.127 451.24L771.423 455.048H774.943ZM780.31 451.224L779.254 450.712C779.574 449.624 780.502 448.328 782.374 448.328C784.406 448.328 785.638 449.608 785.638 451.48C785.638 454.68 781.702 456.12 780.774 457.864H785.766V459H779.19V458.056C780.406 455.336 784.31 454.136 784.31 451.528C784.31 450.296 783.702 449.496 782.342 449.496C781.318 449.496 780.63 450.088 780.31 451.224Z" fill="black"/>
    <path d="M872.161 455.048H873.793V456.168H872.161V459H870.881V456.168H865.761V455.24L870.529 448.504H872.161V455.048ZM870.881 455.048V451.496C870.881 450.792 870.897 450.392 870.977 449.848H870.929C870.849 450.072 870.481 450.648 870.065 451.24L867.361 455.048H870.881ZM877.223 453.272C876.263 452.824 875.815 452.04 875.815 451.048C875.815 449.56 876.951 448.328 879.031 448.328C881.111 448.328 882.247 449.56 882.247 451.048C882.247 452.04 881.799 452.824 880.839 453.272C882.007 453.592 882.839 454.712 882.839 456.024C882.839 457.848 881.495 459.176 879.031 459.176C876.567 459.176 875.223 457.848 875.223 456.024C875.223 454.712 876.039 453.592 877.223 453.272ZM879.031 458.008C880.647 458.008 881.511 457.144 881.511 455.944C881.511 454.744 880.647 453.864 879.031 453.864C877.415 453.864 876.551 454.744 876.551 455.944C876.551 457.144 877.415 458.008 879.031 458.008ZM879.031 452.728C880.087 452.728 880.919 452.168 880.919 451.128C880.919 450.088 880.087 449.496 879.031 449.496C877.975 449.496 877.143 450.088 877.143 451.128C877.143 452.168 877.975 452.728 879.031 452.728Z" fill="black"/>
    <g clip-path="url(#clip18_288_37575)">
    <path d="M21.65 546.652L18.86 543.862C18.54 543.542 18 543.762 18 544.212V546.002H4C3.45 546.002 3 546.452 3 547.002C3 547.552 3.45 548.002 4 548.002H18V549.792C18 550.242 18.54 550.462 18.85 550.142L21.64 547.352C21.84 547.162 21.84 546.842 21.65 546.652Z" fill="black"/>
    </g>
    <path d="M33.8891 552.5V541.62H35.2171V552.5H33.8891ZM38.1323 552.5V544.564H39.3643V545.652C39.7803 545.028 40.6763 544.388 41.7803 544.388C43.6203 544.388 44.6603 545.572 44.6603 547.556V552.5H43.3803V547.684C43.3803 546.26 42.6763 545.524 41.4603 545.524C40.3883 545.524 39.6363 546.196 39.4123 546.948V552.5H38.1323ZM52.0588 545.684L51.2268 546.404C50.7628 545.748 50.1708 545.476 49.4988 545.476C48.7148 545.476 48.2988 545.988 48.2988 546.564C48.2988 547.156 48.6668 547.508 49.3228 547.652L49.9948 547.796C51.4988 548.116 52.3948 548.804 52.3948 550.196C52.3948 551.476 51.2908 552.676 49.4028 552.676C48.0108 552.676 46.9868 551.892 46.4108 551.028L47.2428 550.26C47.7068 550.964 48.4428 551.588 49.4348 551.588C50.4428 551.588 51.0988 551.076 51.0988 550.276C51.0988 549.54 50.5068 549.188 49.6268 548.996L48.9548 548.852C47.7068 548.58 47.0028 547.844 47.0028 546.692C47.0028 545.476 47.9148 544.388 49.5468 544.388C50.6508 544.388 51.5308 544.9 52.0588 545.684ZM54.8642 549.972V545.652H53.4402V544.564H54.8802V542.5H56.1442V544.564H57.9202V545.652H56.1442V549.972C56.1442 551.06 56.6242 551.428 57.6962 551.428H57.9202V552.516C57.7602 552.548 57.5522 552.564 57.3442 552.564C55.7122 552.564 54.8642 551.764 54.8642 549.972ZM64.3791 548.388V547.588C64.3791 546.436 63.7551 545.524 62.4431 545.524C61.4991 545.524 61.0191 545.86 60.4431 546.42L59.7071 545.588C60.2831 544.98 61.0831 544.388 62.4751 544.388C64.5551 544.388 65.6591 545.652 65.6591 547.492V552.5H64.4271V551.716C63.8351 552.356 63.0191 552.676 62.1711 552.676C60.3791 552.676 59.2431 551.508 59.2431 550.068C59.2431 548.628 60.3791 547.46 62.1711 547.46C63.0031 547.46 63.8031 547.78 64.3791 548.388ZM64.3791 550.612V549.524C63.9631 548.82 63.0671 548.532 62.3471 548.532C61.0511 548.532 60.5391 549.348 60.5391 550.068C60.5391 550.788 61.0511 551.604 62.3471 551.604C63.0671 551.604 63.9631 551.332 64.3791 550.612ZM68.1948 541.14H69.4748V552.5H68.1948V541.14ZM72.1011 541.14H73.3811V552.5H72.1011V541.14ZM76.0073 552.5V544.564H77.2393V545.652C77.6553 545.028 78.5513 544.388 79.6553 544.388C80.8233 544.388 81.6553 544.884 82.0873 545.796C82.4713 545.124 83.4633 544.388 84.7113 544.388C86.5353 544.388 87.5593 545.556 87.5593 547.524V552.5H86.2793V547.652C86.2793 546.244 85.6233 545.524 84.4713 545.524C83.3993 545.524 82.6473 546.196 82.4233 546.948V552.5H81.1433V547.652C81.1433 546.244 80.4873 545.524 79.3353 545.524C78.2633 545.524 77.5113 546.196 77.2873 546.948V552.5H76.0073ZM96.5974 548.932H90.9334C91.0454 550.58 91.9094 551.54 93.3174 551.54C94.2934 551.54 95.0934 551.124 95.5574 550.372L96.4214 551.092C95.8294 551.988 94.8054 552.676 93.2374 552.676C90.9814 552.676 89.5894 551.076 89.5894 548.532C89.5894 546.004 91.0134 544.388 93.1894 544.388C95.3174 544.388 96.6454 546.052 96.6454 548.308C96.6454 548.516 96.6294 548.74 96.5974 548.932ZM90.9494 547.844H95.3014C95.2214 546.42 94.3894 545.524 93.1894 545.524C91.9734 545.524 91.1414 546.356 90.9494 547.844ZM98.6948 552.5V544.564H99.9268V545.652C100.343 545.028 101.239 544.388 102.343 544.388C104.183 544.388 105.223 545.572 105.223 547.556V552.5H103.943V547.684C103.943 546.26 103.239 545.524 102.023 545.524C100.951 545.524 100.199 546.196 99.9748 546.948V552.5H98.6948ZM108.239 549.972V545.652H106.815V544.564H108.255V542.5H109.519V544.564H111.295V545.652H109.519V549.972C109.519 551.06 109.999 551.428 111.071 551.428H111.295V552.516C111.135 552.548 110.927 552.564 110.719 552.564C109.087 552.564 108.239 551.764 108.239 549.972ZM116.992 555.508V544.564H118.224V545.7C118.8 544.9 119.728 544.388 120.752 544.388C122.864 544.388 124.208 546.084 124.208 548.532C124.208 550.98 122.864 552.676 120.752 552.676C119.76 552.676 118.848 552.196 118.272 551.444V555.508H116.992ZM118.272 546.964V550.116C118.64 550.964 119.488 551.54 120.48 551.54C121.984 551.54 122.88 550.404 122.88 548.532C122.88 546.66 121.984 545.524 120.48 545.524C119.488 545.524 118.64 546.116 118.272 546.964ZM132.847 548.932H127.183C127.295 550.58 128.159 551.54 129.567 551.54C130.543 551.54 131.343 551.124 131.807 550.372L132.671 551.092C132.079 551.988 131.055 552.676 129.487 552.676C127.231 552.676 125.839 551.076 125.839 548.532C125.839 546.004 127.263 544.388 129.439 544.388C131.567 544.388 132.895 546.052 132.895 548.308C132.895 548.516 132.879 548.74 132.847 548.932ZM127.199 547.844H131.551C131.471 546.42 130.639 545.524 129.439 545.524C128.223 545.524 127.391 546.356 127.199 547.844ZM134.945 552.5V544.564H136.177V545.988C136.609 545.108 137.393 544.388 138.529 544.388C138.641 544.388 138.753 544.388 138.865 544.42V545.716H138.433C137.377 545.716 136.609 546.292 136.225 547.492V552.5H134.945ZM140.554 544.564H141.834V552.5H140.554V544.564ZM140.394 541.14H141.994V542.74H140.394V541.14ZM147.692 551.54C149.164 551.54 150.108 550.42 150.108 548.532C150.108 546.644 149.164 545.524 147.692 545.524C146.22 545.524 145.276 546.644 145.276 548.532C145.276 550.42 146.22 551.54 147.692 551.54ZM147.692 544.388C149.964 544.388 151.436 546.084 151.436 548.532C151.436 550.98 149.964 552.676 147.692 552.676C145.42 552.676 143.948 550.98 143.948 548.532C143.948 546.084 145.42 544.388 147.692 544.388ZM159.042 552.5V551.38C158.45 552.18 157.522 552.676 156.514 552.676C154.402 552.676 153.058 550.98 153.058 548.532C153.058 546.084 154.402 544.388 156.514 544.388C157.506 544.388 158.402 544.868 158.994 545.636V541.14H160.274V552.5H159.042ZM158.994 550.116V546.964C158.626 546.116 157.778 545.524 156.786 545.524C155.282 545.524 154.386 546.66 154.386 548.532C154.386 550.404 155.282 551.54 156.786 551.54C157.778 551.54 158.626 550.964 158.994 550.116ZM169.496 541.22L170.136 542.02C168.68 543.22 167.496 545.124 167.496 548.324C167.496 551.524 168.68 553.428 170.136 554.628L169.496 555.428C168.024 554.34 166.2 552.18 166.2 548.324C166.2 544.468 168.024 542.308 169.496 541.22ZM171.398 552.5V544.564H172.63V545.652C173.046 545.028 173.942 544.388 175.046 544.388C176.214 544.388 177.046 544.884 177.478 545.796C177.862 545.124 178.854 544.388 180.102 544.388C181.926 544.388 182.95 545.556 182.95 547.524V552.5H181.67V547.652C181.67 546.244 181.014 545.524 179.862 545.524C178.79 545.524 178.038 546.196 177.814 546.948V552.5H176.534V547.652C176.534 546.244 175.878 545.524 174.726 545.524C173.654 545.524 172.902 546.196 172.678 546.948V552.5H171.398ZM188.708 551.54C190.18 551.54 191.124 550.42 191.124 548.532C191.124 546.644 190.18 545.524 188.708 545.524C187.236 545.524 186.292 546.644 186.292 548.532C186.292 550.42 187.236 551.54 188.708 551.54ZM188.708 544.388C190.98 544.388 192.452 546.084 192.452 548.532C192.452 550.98 190.98 552.676 188.708 552.676C186.436 552.676 184.964 550.98 184.964 548.532C184.964 546.084 186.436 544.388 188.708 544.388ZM194.57 552.5V544.564H195.802V545.652C196.218 545.028 197.114 544.388 198.218 544.388C200.058 544.388 201.098 545.572 201.098 547.556V552.5H199.818V547.684C199.818 546.26 199.114 545.524 197.898 545.524C196.826 545.524 196.074 546.196 195.85 546.948V552.5H194.57ZM204.114 549.972V545.652H202.69V544.564H204.13V542.5H205.394V544.564H207.17V545.652H205.394V549.972C205.394 551.06 205.874 551.428 206.946 551.428H207.17V552.516C207.01 552.548 206.802 552.564 206.594 552.564C204.962 552.564 204.114 551.764 204.114 549.972ZM209.101 552.5V541.14H210.381V545.572C210.813 544.98 211.693 544.388 212.749 544.388C214.589 544.388 215.629 545.572 215.629 547.556V552.5H214.349V547.684C214.349 546.26 213.645 545.524 212.429 545.524C211.357 545.524 210.605 546.196 210.381 546.948V552.5H209.101ZM223.028 545.684L222.196 546.404C221.732 545.748 221.14 545.476 220.468 545.476C219.684 545.476 219.268 545.988 219.268 546.564C219.268 547.156 219.636 547.508 220.292 547.652L220.964 547.796C222.468 548.116 223.364 548.804 223.364 550.196C223.364 551.476 222.26 552.676 220.372 552.676C218.98 552.676 217.956 551.892 217.38 551.028L218.212 550.26C218.676 550.964 219.412 551.588 220.404 551.588C221.412 551.588 222.068 551.076 222.068 550.276C222.068 549.54 221.476 549.188 220.596 548.996L219.924 548.852C218.676 548.58 217.972 547.844 217.972 546.692C217.972 545.476 218.884 544.388 220.516 544.388C221.62 544.388 222.5 544.9 223.028 545.684ZM224.563 555.428L223.923 554.628C225.379 553.428 226.563 551.524 226.563 548.324C226.563 545.124 225.379 543.22 223.923 542.02L224.563 541.22C226.035 542.308 227.859 544.468 227.859 548.324C227.859 552.18 226.035 554.34 224.563 555.428Z" fill="black"/>
    <g clip-path="url(#clip19_288_37575)">
    <rect x="602" y="537" width="20" height="20" rx="10" fill="white"/>
    <line x1="597.646" y1="540.936" x2="625.931" y2="512.651" stroke="#CCCCCC"/>
    <line x1="597.646" y1="547.936" x2="625.931" y2="519.651" stroke="#CCCCCC"/>
    <line x1="597.646" y1="554.936" x2="625.931" y2="526.651" stroke="#CCCCCC"/>
    <line x1="597.646" y1="561.936" x2="625.931" y2="533.651" stroke="#CCCCCC"/>
    <line x1="597.646" y1="568.936" x2="625.931" y2="540.651" stroke="#CCCCCC"/>
    <line x1="597.646" y1="575.936" x2="625.931" y2="547.651" stroke="#CCCCCC"/>
    <line x1="597.646" y1="582.936" x2="625.931" y2="554.651" stroke="#CCCCCC"/>
    </g>
    <rect x="602.5" y="537.5" width="19" height="19" rx="9.5" stroke="#CCCCCC"/>
    <path d="M602 547H622V547C622 552.523 617.523 557 612 557V557C606.477 557 602 552.523 602 547V547Z" fill="#AF6249"/>
    <path d="M640.538 552.5L637.866 545.748C637.498 544.836 637.194 543.956 637.146 543.716H637.098C637.13 543.94 637.162 544.916 637.162 545.876V552.5H635.834V541.62H637.53L640.698 549.508C640.938 550.084 641.146 550.66 641.146 550.9H641.194C641.194 550.66 641.402 550.084 641.626 549.508L644.794 541.62H646.49V552.5H645.162V545.876C645.162 544.916 645.194 543.94 645.226 543.716H645.178C645.13 543.956 644.826 544.836 644.458 545.748L641.786 552.5H640.538ZM652.544 551.54C654.016 551.54 654.96 550.42 654.96 548.532C654.96 546.644 654.016 545.524 652.544 545.524C651.072 545.524 650.128 546.644 650.128 548.532C650.128 550.42 651.072 551.54 652.544 551.54ZM652.544 544.388C654.816 544.388 656.288 546.084 656.288 548.532C656.288 550.98 654.816 552.676 652.544 552.676C650.272 552.676 648.8 550.98 648.8 548.532C648.8 546.084 650.272 544.388 652.544 544.388ZM658.406 552.5V544.564H659.638V545.652C660.054 545.028 660.95 544.388 662.054 544.388C663.894 544.388 664.934 545.572 664.934 547.556V552.5H663.654V547.684C663.654 546.26 662.95 545.524 661.734 545.524C660.662 545.524 659.91 546.196 659.686 546.948V552.5H658.406ZM667.95 549.972V545.652H666.526V544.564H667.966V542.5H669.23V544.564H671.006V545.652H669.23V549.972C669.23 551.06 669.71 551.428 670.782 551.428H671.006V552.516C670.846 552.548 670.638 552.564 670.43 552.564C668.798 552.564 667.95 551.764 667.95 549.972ZM672.937 552.5V541.14H674.217V545.572C674.649 544.98 675.529 544.388 676.585 544.388C678.425 544.388 679.465 545.572 679.465 547.556V552.5H678.185V547.684C678.185 546.26 677.481 545.524 676.265 545.524C675.193 545.524 674.441 546.196 674.217 546.948V552.5H672.937ZM682 541.14H683.28V552.5H682V541.14ZM686.466 555.508L688.098 551.7L685.026 544.564H686.402L688.226 549.108C688.466 549.7 688.674 550.292 688.674 550.532H688.722C688.802 550.116 688.93 549.7 689.154 549.108L690.85 544.564H692.242L687.858 555.508H686.466ZM697.406 555.508V544.564H698.638V545.7C699.214 544.9 700.142 544.388 701.166 544.388C703.278 544.388 704.622 546.084 704.622 548.532C704.622 550.98 703.278 552.676 701.166 552.676C700.174 552.676 699.262 552.196 698.686 551.444V555.508H697.406ZM698.686 546.964V550.116C699.054 550.964 699.902 551.54 700.894 551.54C702.398 551.54 703.294 550.404 703.294 548.532C703.294 546.66 702.398 545.524 700.894 545.524C699.902 545.524 699.054 546.116 698.686 546.964ZM711.278 548.388V547.588C711.278 546.436 710.654 545.524 709.342 545.524C708.398 545.524 707.918 545.86 707.342 546.42L706.606 545.588C707.182 544.98 707.982 544.388 709.374 544.388C711.454 544.388 712.558 545.652 712.558 547.492V552.5H711.326V551.716C710.734 552.356 709.918 552.676 709.07 552.676C707.278 552.676 706.142 551.508 706.142 550.068C706.142 548.628 707.278 547.46 709.07 547.46C709.902 547.46 710.702 547.78 711.278 548.388ZM711.278 550.612V549.524C710.862 548.82 709.966 548.532 709.246 548.532C707.95 548.532 707.438 549.348 707.438 550.068C707.438 550.788 707.95 551.604 709.246 551.604C709.966 551.604 710.862 551.332 711.278 550.612ZM715.388 555.508L717.02 551.7L713.948 544.564H715.324L717.148 549.108C717.388 549.7 717.596 550.292 717.596 550.532H717.644C717.724 550.116 717.852 549.7 718.076 549.108L719.772 544.564H721.164L716.78 555.508H715.388ZM722.859 552.5V544.564H724.091V545.652C724.507 545.028 725.403 544.388 726.507 544.388C727.675 544.388 728.507 544.884 728.939 545.796C729.323 545.124 730.315 544.388 731.563 544.388C733.387 544.388 734.411 545.556 734.411 547.524V552.5H733.131V547.652C733.131 546.244 732.475 545.524 731.323 545.524C730.251 545.524 729.499 546.196 729.275 546.948V552.5H727.995V547.652C727.995 546.244 727.339 545.524 726.187 545.524C725.115 545.524 724.363 546.196 724.139 546.948V552.5H722.859ZM743.449 548.932H737.785C737.897 550.58 738.761 551.54 740.169 551.54C741.145 551.54 741.945 551.124 742.409 550.372L743.273 551.092C742.681 551.988 741.657 552.676 740.089 552.676C737.833 552.676 736.441 551.076 736.441 548.532C736.441 546.004 737.865 544.388 740.041 544.388C742.169 544.388 743.497 546.052 743.497 548.308C743.497 548.516 743.481 548.74 743.449 548.932ZM737.801 547.844H742.153C742.073 546.42 741.241 545.524 740.041 545.524C738.825 545.524 737.993 546.356 737.801 547.844ZM745.546 552.5V544.564H746.778V545.652C747.194 545.028 748.09 544.388 749.194 544.388C751.034 544.388 752.074 545.572 752.074 547.556V552.5H750.794V547.684C750.794 546.26 750.09 545.524 748.874 545.524C747.802 545.524 747.05 546.196 746.826 546.948V552.5H745.546ZM755.091 549.972V545.652H753.667V544.564H755.107V542.5H756.371V544.564H758.147V545.652H756.371V549.972C756.371 551.06 756.851 551.428 757.923 551.428H758.147V552.516C757.987 552.548 757.779 552.564 757.571 552.564C755.939 552.564 755.091 551.764 755.091 549.972Z" fill="black"/>
    <rect x="779" y="537" width="20" height="20" rx="10" fill="#AF6249"/>
    <path d="M816.388 548.052H814.1V552.5H812.772V541.62H816.388C818.548 541.62 819.86 542.788 819.86 544.836C819.86 546.884 818.548 548.052 816.388 548.052ZM816.228 542.756H814.1V546.916H816.228C817.732 546.916 818.484 546.18 818.484 544.836C818.484 543.492 817.732 542.756 816.228 542.756ZM821.765 552.5V544.564H822.997V545.988C823.429 545.108 824.213 544.388 825.349 544.388C825.461 544.388 825.573 544.388 825.685 544.42V545.716H825.253C824.197 545.716 823.429 546.292 823.045 547.492V552.5H821.765ZM827.375 544.564H828.655V552.5H827.375V544.564ZM827.215 541.14H828.815V542.74H827.215V541.14ZM831.281 552.5V544.564H832.513V545.652C832.929 545.028 833.825 544.388 834.929 544.388C836.769 544.388 837.809 545.572 837.809 547.556V552.5H836.529V547.684C836.529 546.26 835.825 545.524 834.609 545.524C833.537 545.524 832.785 546.196 832.561 546.948V552.5H831.281ZM846.679 546.484L845.671 546.996C845.303 546.036 844.535 545.524 843.511 545.524C842.087 545.524 841.175 546.644 841.175 548.532C841.175 550.42 842.087 551.54 843.511 551.54C844.535 551.54 845.303 551.028 845.671 550.068L846.679 550.58C846.231 551.86 845.015 552.676 843.511 552.676C841.223 552.676 839.847 550.98 839.847 548.532C839.847 546.084 841.223 544.388 843.511 544.388C845.015 544.388 846.231 545.204 846.679 546.484ZM848.64 544.564H849.92V552.5H848.64V544.564ZM848.48 541.14H850.08V542.74H848.48V541.14ZM852.546 555.508V544.564H853.778V545.7C854.354 544.9 855.282 544.388 856.306 544.388C858.418 544.388 859.762 546.084 859.762 548.532C859.762 550.98 858.418 552.676 856.306 552.676C855.314 552.676 854.402 552.196 853.826 551.444V555.508H852.546ZM853.826 546.964V550.116C854.194 550.964 855.042 551.54 856.034 551.54C857.538 551.54 858.434 550.404 858.434 548.532C858.434 546.66 857.538 545.524 856.034 545.524C855.042 545.524 854.194 546.116 853.826 546.964ZM866.418 548.388V547.588C866.418 546.436 865.794 545.524 864.482 545.524C863.538 545.524 863.058 545.86 862.482 546.42L861.746 545.588C862.322 544.98 863.122 544.388 864.514 544.388C866.594 544.388 867.698 545.652 867.698 547.492V552.5H866.466V551.716C865.874 552.356 865.058 552.676 864.21 552.676C862.418 552.676 861.282 551.508 861.282 550.068C861.282 548.628 862.418 547.46 864.21 547.46C865.042 547.46 865.842 547.78 866.418 548.388ZM866.418 550.612V549.524C866.002 548.82 865.106 548.532 864.386 548.532C863.09 548.532 862.578 549.348 862.578 550.068C862.578 550.788 863.09 551.604 864.386 551.604C865.106 551.604 866.002 551.332 866.418 550.612ZM870.234 541.14H871.514V552.5H870.234V541.14Z" fill="black"/>
    <g clip-path="url(#clip20_288_37575)">
    <rect x="893" y="537" width="20" height="20" rx="10" fill="white"/>
    <line x1="888.646" y1="540.936" x2="916.931" y2="512.651" stroke="#CCCCCC"/>
    <line x1="888.646" y1="547.936" x2="916.931" y2="519.651" stroke="#CCCCCC"/>
    <line x1="888.646" y1="554.936" x2="916.931" y2="526.651" stroke="#CCCCCC"/>
    <line x1="888.646" y1="561.936" x2="916.931" y2="533.651" stroke="#CCCCCC"/>
    <line x1="888.646" y1="568.936" x2="916.931" y2="540.651" stroke="#CCCCCC"/>
    <line x1="888.646" y1="575.936" x2="916.931" y2="547.651" stroke="#CCCCCC"/>
    <line x1="888.646" y1="582.936" x2="916.931" y2="554.651" stroke="#CCCCCC"/>
    </g>
    <rect x="893.5" y="537.5" width="19" height="19" rx="9.5" stroke="#CCCCCC"/>
    <path d="M926.991 552.5V541.62H928.319V552.5H926.991ZM931.234 552.5V544.564H932.466V545.652C932.882 545.028 933.778 544.388 934.882 544.388C936.722 544.388 937.762 545.572 937.762 547.556V552.5H936.482V547.684C936.482 546.26 935.778 545.524 934.562 545.524C933.49 545.524 932.738 546.196 932.514 546.948V552.5H931.234ZM940.778 549.972V545.652H939.354V544.564H940.794V542.5H942.058V544.564H943.834V545.652H942.058V549.972C942.058 551.06 942.538 551.428 943.61 551.428H943.834V552.516C943.674 552.548 943.466 552.564 943.258 552.564C941.626 552.564 940.778 551.764 940.778 549.972ZM952.183 548.932H946.519C946.631 550.58 947.495 551.54 948.903 551.54C949.879 551.54 950.679 551.124 951.143 550.372L952.007 551.092C951.415 551.988 950.391 552.676 948.823 552.676C946.567 552.676 945.175 551.076 945.175 548.532C945.175 546.004 946.599 544.388 948.775 544.388C950.903 544.388 952.231 546.052 952.231 548.308C952.231 548.516 952.215 548.74 952.183 548.932ZM946.535 547.844H950.887C950.807 546.42 949.975 545.524 948.775 545.524C947.559 545.524 946.727 546.356 946.535 547.844ZM954.281 552.5V544.564H955.513V545.988C955.945 545.108 956.729 544.388 957.865 544.388C957.977 544.388 958.089 544.388 958.201 544.42V545.716H957.769C956.713 545.716 955.945 546.292 955.561 547.492V552.5H954.281ZM966.168 548.932H960.504C960.616 550.58 961.48 551.54 962.888 551.54C963.864 551.54 964.664 551.124 965.128 550.372L965.992 551.092C965.4 551.988 964.376 552.676 962.808 552.676C960.552 552.676 959.16 551.076 959.16 548.532C959.16 546.004 960.584 544.388 962.76 544.388C964.888 544.388 966.216 546.052 966.216 548.308C966.216 548.516 966.2 548.74 966.168 548.932ZM960.52 547.844H964.872C964.792 546.42 963.96 545.524 962.76 545.524C961.544 545.524 960.712 546.356 960.52 547.844ZM973.129 545.684L972.297 546.404C971.833 545.748 971.241 545.476 970.569 545.476C969.785 545.476 969.369 545.988 969.369 546.564C969.369 547.156 969.737 547.508 970.393 547.652L971.065 547.796C972.569 548.116 973.465 548.804 973.465 550.196C973.465 551.476 972.361 552.676 970.473 552.676C969.081 552.676 968.057 551.892 967.481 551.028L968.313 550.26C968.777 550.964 969.513 551.588 970.505 551.588C971.513 551.588 972.169 551.076 972.169 550.276C972.169 549.54 971.577 549.188 970.697 548.996L970.025 548.852C968.777 548.58 968.073 547.844 968.073 546.692C968.073 545.476 968.985 544.388 970.617 544.388C971.721 544.388 972.601 544.9 973.129 545.684ZM975.935 549.972V545.652H974.511V544.564H975.951V542.5H977.215V544.564H978.991V545.652H977.215V549.972C977.215 551.06 977.695 551.428 978.766 551.428H978.991V552.516C978.831 552.548 978.623 552.564 978.415 552.564C976.783 552.564 975.935 551.764 975.935 549.972Z" fill="black"/>
    <defs>
    <clipPath id="clip0_288_37575">
    <rect x="96" y="296" width="20" height="100" rx="10" fill="white"/>
    </clipPath>
    <clipPath id="clip1_288_37575">
    <rect width="250" height="250" fill="white" transform="translate(-19 221)"/>
    </clipPath>
    <clipPath id="clip2_288_37575">
    <rect x="192" y="296" width="20" height="100" rx="10" fill="white"/>
    </clipPath>
    <clipPath id="clip3_288_37575">
    <rect width="250" height="250" fill="white" transform="translate(77 221)"/>
    </clipPath>
    <clipPath id="clip4_288_37575">
    <rect x="288" y="296" width="20" height="100" rx="10" fill="white"/>
    </clipPath>
    <clipPath id="clip5_288_37575">
    <rect width="250" height="250" fill="white" transform="translate(173 221)"/>
    </clipPath>
    <clipPath id="clip6_288_37575">
    <rect x="384" y="296" width="20" height="100" rx="10" fill="white"/>
    </clipPath>
    <clipPath id="clip7_288_37575">
    <rect width="250" height="250" fill="white" transform="translate(269 221)"/>
    </clipPath>
    <clipPath id="clip8_288_37575">
    <rect x="480" y="296" width="20" height="100" rx="10" fill="white"/>
    </clipPath>
    <clipPath id="clip9_288_37575">
    <rect width="250" height="250" fill="white" transform="translate(365 221)"/>
    </clipPath>
    <clipPath id="clip10_288_37575">
    <rect x="576" y="296" width="20" height="100" rx="10" fill="white"/>
    </clipPath>
    <clipPath id="clip11_288_37575">
    <rect width="250" height="250" fill="white" transform="translate(461 221)"/>
    </clipPath>
    <clipPath id="clip12_288_37575">
    <rect x="672" y="296" width="20" height="100" rx="10" fill="white"/>
    </clipPath>
    <clipPath id="clip13_288_37575">
    <rect width="250" height="250" fill="white" transform="translate(557 221)"/>
    </clipPath>
    <clipPath id="clip14_288_37575">
    <rect x="768" y="296" width="20" height="100" rx="10" fill="white"/>
    </clipPath>
    <clipPath id="clip15_288_37575">
    <rect width="250" height="250" fill="white" transform="translate(653 221)"/>
    </clipPath>
    <clipPath id="clip16_288_37575">
    <rect x="864" y="176" width="20" height="220" rx="10" fill="white"/>
    </clipPath>
    <clipPath id="clip17_288_37575">
    <rect width="250" height="250" fill="white" transform="translate(749 161)"/>
    </clipPath>
    <clipPath id="clip18_288_37575">
    <rect width="24" height="24" fill="white" transform="translate(0 535)"/>
    </clipPath>
    <clipPath id="clip19_288_37575">
    <rect x="602" y="537" width="20" height="20" rx="10" fill="white"/>
    </clipPath>
    <clipPath id="clip20_288_37575">
    <rect x="893" y="537" width="20" height="20" rx="10" fill="white"/>
    </clipPath>
    </defs>
    </svg>
    