<svg width="20" height="20" viewBox="0 0 20 20" fill="none" xmlns="http://www.w3.org/2000/svg">
<g id="whatsapp-fill">
<path id="Vector" d="M9.99935 1.62891C5.39685 1.62891 1.66602 5.35991 1.66602 9.96224C1.66602 11.1572 1.94102 12.3086 2.42102 13.3737C1.73769 16.9029 1.69185 17.306 1.69185 17.306C1.58019 17.884 2.07685 18.379 2.65602 18.2696C2.65602 18.2696 3.02352 18.1888 6.58769 17.5143C7.65269 17.9942 8.80435 18.2956 9.99935 18.2956C14.6018 18.2956 18.3327 14.5646 18.3327 9.96224C18.3327 5.35991 14.6018 1.62891 9.99935 1.62891ZM7.65601 5.79557C8.43684 5.79557 9.47852 6.83724 9.47852 7.61849C9.47852 7.87891 8.93352 8.80507 8.95768 8.92057C9.13102 9.74791 10.211 10.8541 11.041 11.0039C11.1402 11.0218 12.0827 10.4831 12.3427 10.4831C13.1244 10.4831 14.166 11.5247 14.166 12.306C14.166 13.0872 13.1244 14.1289 12.3427 14.1289C11.336 14.1289 9.47852 13.0872 8.43685 12.0456C8.32435 11.9335 8.02852 11.6368 7.91602 11.5247C6.87435 10.4831 5.83268 8.62532 5.83268 7.61849C5.83268 6.83724 6.87434 5.79557 7.65601 5.79557Z" fill="#2A343D"/>
</g>
</svg>
