<svg width="220" height="24" viewBox="0 0 220 24" fill="none" xmlns="http://www.w3.org/2000/svg">
    <g clip-path="url(#clip0_64_1996)">
    <path d="M0 11.6169C0 6.77104 3.54738 3 8.4429 3C11.7728 3 14.2455 4.56558 15.6868 7.01334L13.9969 8.26208C12.8725 6.35482 11.0335 5.13091 8.4429 5.13091C4.72156 5.13091 2.3235 7.94521 2.3235 11.6169C2.3235 15.2885 4.82096 18.1028 8.63549 18.1028C10.7664 18.1028 12.6488 17.2703 13.705 16.1707V12.8905H10.375V10.8589H15.9539V17.1523C14.1212 18.9664 11.6237 20.2337 8.61064 20.2337C3.62194 20.2337 0 16.4627 0 11.6169Z" fill="black"/>
    <path d="M20.75 3.29834H29.4414V5.30499H23.0052V10.5422H28.9506V12.5488H23.0052V17.9352H29.4414V19.9418H20.75V3.29834Z" fill="black"/>
    <path d="M36.6103 8.09431V19.9417H34.3613V3.29199H34.9267L46.333 15.1394V3.29199H48.5819V20.2275H48.0166L36.6103 8.09431Z" fill="black"/>
    <path d="M54.2539 3.29834H62.9453V5.30499H56.5091V10.5422H62.4545V12.5488H56.5091V17.9352H62.9453V19.9418H54.2539V3.29834Z" fill="black"/>
    <path d="M66.4434 15.9781L68.2077 14.953C68.916 16.7609 70.2641 18.109 72.4882 18.109C74.5694 18.109 75.7933 16.91 75.7933 15.2699C75.7933 13.9217 74.9857 13.0458 73.0535 12.5301L71.3637 12.089C69.0154 11.4802 67.3752 9.95812 67.3752 7.70916C67.3752 5.04396 69.4068 3.01245 72.6125 3.01245C75.2342 3.01245 77.1166 4.50345 77.8745 6.21813L76.1847 7.3426C75.4019 5.96962 74.178 5.13714 72.5876 5.13714C70.8232 5.13714 69.6988 6.14358 69.6988 7.5849C69.6988 8.73423 70.5064 9.54186 71.8794 9.9084L73.5195 10.3495C76.3835 11.1074 78.123 12.6233 78.123 15.1953C78.123 18.0842 75.7995 20.2399 72.4696 20.2399C69.0651 20.2337 67.251 18.1028 66.4434 15.9781Z" fill="black"/>
    <path d="M82.5596 3.29834H84.8085V19.9418H82.5596V3.29834Z" fill="black"/>
    <path d="M88.8398 15.9781L90.6042 14.953C91.3125 16.7609 92.6606 18.109 94.8847 18.109C96.9659 18.109 98.1898 16.91 98.1898 15.2699C98.1898 13.9217 97.3822 13.0458 95.45 12.5301L93.7602 12.089C91.4119 11.4802 89.7717 9.95812 89.7717 7.70916C89.7717 5.04396 91.8033 3.01245 95.009 3.01245C97.6307 3.01245 99.5131 4.50345 100.271 6.21813L98.5812 7.3426C97.7984 5.96962 96.5745 5.13714 94.9841 5.13714C93.2197 5.13714 92.0953 6.14358 92.0953 7.5849C92.0953 8.73423 92.9029 9.54186 94.2759 9.9084L95.916 10.3495C98.78 11.1074 100.52 12.6233 100.52 15.1953C100.52 18.0842 98.196 20.2399 94.8661 20.2399C91.4616 20.2337 89.6475 18.1028 88.8398 15.9781Z" fill="black"/>
    <path d="M116.443 3.37891H125.048V5.3669H118.674V10.5544H124.563V12.5425H118.674V19.8609H116.443V3.37891Z" fill="black"/>
    <path d="M129.19 3.37891H131.421V19.8547H129.19V3.37891Z" fill="black"/>
    <path d="M139.076 8.13141V19.8608H136.846V3.09302H137.405L148.693 15.1081V3.37881H150.923V20.1466H150.364L139.076 8.13141Z" fill="black"/>
    <path d="M161.802 3.09302H162.261L169.723 19.8608H167.324L165.746 16.1767H158.31L156.732 19.8608H154.334L161.802 3.09302ZM159.161 14.1887H164.902L162.044 7.50394L159.161 14.1887Z" fill="black"/>
    <path d="M175.369 8.13141V19.8608H173.139V3.09302H173.698L184.986 15.1081V3.37881H187.216V20.1466H186.657L175.369 8.13141Z" fill="black"/>
    <path d="M199.941 20.1467C198.729 20.1467 197.611 19.9292 196.586 19.4943C195.561 19.0595 194.679 18.4568 193.946 17.6865C193.213 16.9223 192.635 16.0153 192.212 14.9716C191.79 13.9279 191.585 12.8096 191.585 11.6168C191.585 10.424 191.796 9.30572 192.212 8.26201C192.635 7.21829 193.213 6.31747 193.946 5.54711C194.679 4.78296 195.561 4.18032 196.586 3.73923C197.611 3.30435 198.729 3.08691 199.941 3.08691C201.656 3.08691 203.14 3.47209 204.414 4.24866C205.681 5.02524 206.663 6.05652 207.359 7.34874L205.613 8.53536C205.079 7.5165 204.339 6.70884 203.395 6.1C202.451 5.49738 201.308 5.19299 199.966 5.19299C199.046 5.19299 198.214 5.36072 197.468 5.68999C196.723 6.01926 196.089 6.47277 195.555 7.04433C195.021 7.61588 194.61 8.29307 194.318 9.08207C194.027 9.86486 193.884 10.7097 193.884 11.6168C193.884 12.5238 194.027 13.3625 194.318 14.1515C194.61 14.9343 195.021 15.6115 195.555 16.1893C196.089 16.7608 196.723 17.2143 197.468 17.5436C198.214 17.8729 199.04 18.0406 199.966 18.0406C201.308 18.0406 202.451 17.7362 203.395 17.1336C204.339 16.5309 205.079 15.7171 205.613 14.6982L207.359 15.8848C206.663 17.177 205.681 18.2084 204.414 18.9849C203.14 19.7615 201.649 20.1467 199.941 20.1467Z" fill="black"/>
    <path d="M211.396 3.37891H220.001V5.3669H213.627V10.5544H219.516V12.5425H213.627V17.8728H220.001V19.8609H211.396V3.37891Z" fill="black"/>
    </g>
    <defs>
    <clipPath id="clip0_64_1996">
    <rect width="220" height="24" fill="white"/>
    </clipPath>
    </defs>
    </svg>
    