<svg width="24" height="24" viewBox="0 0 24 24" fill="none" xmlns="http://www.w3.org/2000/svg">
<path d="M6.30484 17.2563C6.59068 17.5422 7.05151 17.5422 7.33734 17.2563L12.1848 12.4088C12.4123 12.1813 12.4123 11.8138 12.1848 11.5863L7.33734 6.73883C7.05151 6.45299 6.59068 6.45299 6.30484 6.73883C6.01901 7.02466 6.01901 7.48549 6.30484 7.77133L10.5282 12.0005L6.29901 16.2297C6.01901 16.5097 6.01901 16.9763 6.30484 17.2563Z" fill="black"/>
<path d="M11.9494 17.2563C12.2352 17.5422 12.696 17.5422 12.9819 17.2563L17.8294 12.4088C18.0569 12.1813 18.0569 11.8138 17.8294 11.5863L12.9819 6.73883C12.696 6.45299 12.2352 6.45299 11.9494 6.73883C11.6635 7.02466 11.6635 7.48549 11.9494 7.77133L16.1727 12.0005L11.9435 16.2297C11.6635 16.5097 11.6635 16.9763 11.9494 17.2563Z" fill="black"/>
</svg>
