<svg width="20" height="21" viewBox="0 0 20 21" fill="none" xmlns="http://www.w3.org/2000/svg">
<g id="Search">
<path id="Search_2" fill-rule="evenodd" clip-rule="evenodd" d="M0 8.94922C0 4.16095 3.84034 0.279297 8.57764 0.279297C10.8526 0.279297 13.0343 1.19273 14.6429 2.81866C16.2516 4.44459 17.1553 6.64982 17.1553 8.94922C17.1553 13.7375 13.3149 17.6191 8.57764 17.6191C3.84034 17.6191 0 13.7375 0 8.94922ZM17.0134 15.9336L19.568 17.9957H19.6124C20.1292 18.5181 20.1292 19.3651 19.6124 19.8875C19.0955 20.4099 18.2576 20.4099 17.7407 19.8875L15.6207 17.4578C15.4203 17.2559 15.3076 16.9817 15.3076 16.6957C15.3076 16.4097 15.4203 16.1355 15.6207 15.9336C16.0072 15.5497 16.6268 15.5497 17.0134 15.9336Z" fill="black"/>
</g>
</svg>
