<svg width="296" height="336" viewBox="0 0 296 336" fill="none" xmlns="http://www.w3.org/2000/svg">
    <g clip-path="url(#clip0_1_2543)">
    <path d="M21.65 228.65L18.86 225.86C18.54 225.54 18 225.76 18 226.21V228H4C3.45 228 3 228.45 3 229C3 229.55 3.45 230 4 230H18V231.79C18 232.24 18.54 232.46 18.85 232.14L21.64 229.35C21.84 229.16 21.84 228.84 21.65 228.65Z" fill="black"/>
    </g>
    <path d="M33.4654 223.98H34.6274V233.5H33.4654V223.98ZM37.1783 226.556H38.2563V227.508C38.3496 227.368 38.4663 227.233 38.6063 227.102C38.7463 226.971 38.9049 226.855 39.0823 226.752C39.2689 226.649 39.4696 226.565 39.6843 226.5C39.8989 226.435 40.1276 226.402 40.3703 226.402C41.1823 226.402 41.8029 226.645 42.2323 227.13C42.6709 227.615 42.8903 228.297 42.8903 229.174V233.5H41.7703V229.286C41.7703 228.661 41.6209 228.189 41.3223 227.872C41.0329 227.555 40.6223 227.396 40.0903 227.396C39.6143 227.396 39.2223 227.522 38.9143 227.774C38.6063 228.026 38.4009 228.315 38.2983 228.642V233.5H37.1783V226.556ZM48.636 228.166C48.4306 227.877 48.202 227.671 47.95 227.55C47.698 227.419 47.4226 227.354 47.124 227.354C46.7786 227.354 46.5173 227.452 46.34 227.648C46.1626 227.835 46.074 228.054 46.074 228.306C46.074 228.81 46.3726 229.127 46.97 229.258L47.558 229.384C48.2206 229.524 48.734 229.757 49.098 230.084C49.4713 230.401 49.658 230.868 49.658 231.484C49.658 231.764 49.5973 232.035 49.476 232.296C49.364 232.557 49.196 232.791 48.972 232.996C48.748 233.192 48.4726 233.351 48.146 233.472C47.8193 233.593 47.4506 233.654 47.04 233.654C46.732 233.654 46.4473 233.612 46.186 233.528C45.9246 233.453 45.682 233.351 45.458 233.22C45.2433 233.089 45.0473 232.935 44.87 232.758C44.6926 232.581 44.5433 232.399 44.422 232.212L45.15 231.54C45.3553 231.848 45.6166 232.119 45.934 232.352C46.2513 232.585 46.6293 232.702 47.068 232.702C47.516 232.702 47.8706 232.599 48.132 232.394C48.3933 232.189 48.524 231.909 48.524 231.554C48.524 231.227 48.4073 230.98 48.174 230.812C47.9406 230.644 47.628 230.518 47.236 230.434L46.648 230.308C46.0973 230.187 45.6726 229.967 45.374 229.65C45.0846 229.333 44.94 228.922 44.94 228.418C44.94 228.157 44.9866 227.905 45.08 227.662C45.1826 227.41 45.3273 227.195 45.514 227.018C45.7006 226.831 45.934 226.682 46.214 226.57C46.494 226.458 46.8113 226.402 47.166 226.402C47.6513 226.402 48.0806 226.505 48.454 226.71C48.8273 226.915 49.1306 227.191 49.364 227.536L48.636 228.166ZM53.9887 233.556C53.27 233.556 52.7287 233.379 52.3647 233.024C52.0007 232.66 51.8187 232.081 51.8187 231.288V227.508H50.5727V226.556H51.8327V224.75H52.9387V226.556H54.4927V227.508H52.9387V231.288C52.9387 231.764 53.046 232.095 53.2607 232.282C53.4753 232.469 53.8207 232.562 54.2967 232.562H54.4927V233.514C54.3527 233.542 54.1847 233.556 53.9887 233.556ZM58.2122 233.654C57.8202 233.654 57.4655 233.593 57.1482 233.472C56.8308 233.351 56.5602 233.187 56.3362 232.982C56.1215 232.777 55.9535 232.539 55.8322 232.268C55.7108 231.988 55.6502 231.689 55.6502 231.372C55.6502 231.055 55.7108 230.761 55.8322 230.49C55.9535 230.21 56.1215 229.967 56.3362 229.762C56.5602 229.557 56.8308 229.393 57.1482 229.272C57.4655 229.151 57.8202 229.09 58.2122 229.09C58.5762 229.09 58.9262 229.16 59.2622 229.3C59.5982 229.431 59.8922 229.631 60.1442 229.902V229.202C60.1442 228.698 60.0042 228.273 59.7242 227.928C59.4535 227.573 59.0288 227.396 58.4502 227.396C58.0395 227.396 57.7082 227.466 57.4562 227.606C57.2042 227.746 56.9522 227.937 56.7002 228.18L56.0562 227.452C56.1775 227.321 56.3128 227.195 56.4622 227.074C56.6208 226.943 56.7982 226.831 56.9942 226.738C57.1902 226.635 57.4095 226.556 57.6522 226.5C57.8948 226.435 58.1702 226.402 58.4782 226.402C58.9355 226.402 59.3368 226.467 59.6822 226.598C60.0275 226.729 60.3168 226.915 60.5502 227.158C60.7835 227.391 60.9608 227.676 61.0822 228.012C61.2035 228.348 61.2642 228.717 61.2642 229.118V233.5H60.1862V232.814C59.9248 233.094 59.6215 233.304 59.2762 233.444C58.9402 233.584 58.5855 233.654 58.2122 233.654ZM58.3662 232.716C58.6835 232.716 59.0102 232.651 59.3462 232.52C59.6915 232.389 59.9575 232.165 60.1442 231.848V230.896C59.9575 230.588 59.6915 230.369 59.3462 230.238C59.0102 230.098 58.6835 230.028 58.3662 230.028C58.0862 230.028 57.8435 230.07 57.6382 230.154C57.4422 230.229 57.2788 230.331 57.1482 230.462C57.0268 230.593 56.9335 230.737 56.8682 230.896C56.8122 231.055 56.7842 231.213 56.7842 231.372C56.7842 231.531 56.8122 231.689 56.8682 231.848C56.9335 232.007 57.0268 232.151 57.1482 232.282C57.2788 232.413 57.4422 232.52 57.6382 232.604C57.8435 232.679 58.0862 232.716 58.3662 232.716ZM64.603 223.56V233.5H63.483V223.56H64.603ZM68.0209 223.56V233.5H66.9009V223.56H68.0209ZM70.3189 226.556H71.3969V227.508C71.4902 227.368 71.6069 227.233 71.7469 227.102C71.8869 226.971 72.0456 226.855 72.2229 226.752C72.4096 226.649 72.6102 226.565 72.8249 226.5C73.0396 226.435 73.2682 226.402 73.5109 226.402C74.0242 226.402 74.4582 226.509 74.8129 226.724C75.1769 226.929 75.4522 227.233 75.6389 227.634C75.7229 227.485 75.8396 227.34 75.9889 227.2C76.1382 227.051 76.3109 226.92 76.5069 226.808C76.7029 226.687 76.9222 226.589 77.1649 226.514C77.4076 226.439 77.6642 226.402 77.9349 226.402C78.7376 226.402 79.3536 226.645 79.7829 227.13C80.2122 227.606 80.4269 228.278 80.4269 229.146V233.5H79.3069V229.258C79.3069 228.642 79.1669 228.18 78.8869 227.872C78.6162 227.555 78.2289 227.396 77.7249 227.396C77.2489 227.396 76.8569 227.522 76.5489 227.774C76.2409 228.026 76.0356 228.315 75.9329 228.642V233.5H74.8129V229.258C74.8129 228.642 74.6729 228.18 74.3929 227.872C74.1222 227.555 73.7349 227.396 73.2309 227.396C72.7549 227.396 72.3629 227.522 72.0549 227.774C71.7469 228.026 71.5416 228.315 71.4389 228.642V233.5H70.3189V226.556ZM85.3953 233.654C84.9006 233.654 84.4573 233.57 84.0653 233.402C83.6733 233.234 83.3373 232.991 83.0573 232.674C82.7866 232.357 82.5766 231.979 82.4273 231.54C82.2779 231.092 82.2033 230.588 82.2033 230.028C82.2033 229.477 82.2779 228.978 82.4273 228.53C82.5766 228.082 82.7866 227.704 83.0573 227.396C83.3373 227.079 83.6686 226.836 84.0513 226.668C84.4433 226.491 84.8773 226.402 85.3533 226.402C85.8199 226.402 86.2399 226.491 86.6133 226.668C86.9866 226.836 87.3039 227.074 87.5653 227.382C87.8266 227.681 88.0273 228.04 88.1673 228.46C88.3073 228.88 88.3773 229.337 88.3773 229.832C88.3773 230.028 88.3633 230.21 88.3353 230.378H83.3793C83.4259 231.106 83.6313 231.671 83.9953 232.072C84.3593 232.464 84.8493 232.66 85.4653 232.66C85.8946 232.66 86.2773 232.571 86.6133 232.394C86.9493 232.217 87.2199 231.965 87.4253 231.638L88.1813 232.268C87.9199 232.66 87.5606 232.991 87.1033 233.262C86.6553 233.523 86.0859 233.654 85.3953 233.654ZM85.3533 227.396C84.8213 227.396 84.3826 227.573 84.0373 227.928C83.6919 228.273 83.4773 228.773 83.3933 229.426H87.2013C87.1639 228.801 86.9773 228.306 86.6413 227.942C86.3146 227.578 85.8853 227.396 85.3533 227.396ZM90.1705 226.556H91.2485V227.508C91.3418 227.368 91.4585 227.233 91.5985 227.102C91.7385 226.971 91.8971 226.855 92.0745 226.752C92.2611 226.649 92.4618 226.565 92.6765 226.5C92.8911 226.435 93.1198 226.402 93.3625 226.402C94.1745 226.402 94.7951 226.645 95.2245 227.13C95.6631 227.615 95.8825 228.297 95.8825 229.174V233.5H94.7625V229.286C94.7625 228.661 94.6131 228.189 94.3145 227.872C94.0251 227.555 93.6145 227.396 93.0825 227.396C92.6065 227.396 92.2145 227.522 91.9065 227.774C91.5985 228.026 91.3931 228.315 91.2905 228.642V233.5H90.1705V226.556ZM100.692 233.556C99.9731 233.556 99.4318 233.379 99.0678 233.024C98.7038 232.66 98.5218 232.081 98.5218 231.288V227.508H97.2758V226.556H98.5358V224.75H99.6418V226.556H101.196V227.508H99.6418V231.288C99.6418 231.764 99.7491 232.095 99.9638 232.282C100.178 232.469 100.524 232.562 101 232.562H101.196V233.514C101.056 233.542 100.888 233.556 100.692 233.556ZM106.18 226.556H107.258V227.55C107.51 227.195 107.828 226.915 108.21 226.71C108.602 226.505 109.022 226.402 109.47 226.402C109.928 226.402 110.343 226.491 110.716 226.668C111.09 226.845 111.407 227.093 111.668 227.41C111.939 227.727 112.144 228.11 112.284 228.558C112.424 229.006 112.494 229.496 112.494 230.028C112.494 230.56 112.424 231.05 112.284 231.498C112.144 231.946 111.939 232.329 111.668 232.646C111.407 232.963 111.09 233.211 110.716 233.388C110.343 233.565 109.928 233.654 109.47 233.654C109.032 233.654 108.621 233.556 108.238 233.36C107.865 233.164 107.552 232.903 107.3 232.576V236.132H106.18V226.556ZM109.232 232.66C109.895 232.66 110.408 232.427 110.772 231.96C111.146 231.493 111.332 230.849 111.332 230.028C111.332 229.207 111.146 228.563 110.772 228.096C110.408 227.629 109.895 227.396 109.232 227.396C108.794 227.396 108.402 227.513 108.056 227.746C107.711 227.979 107.459 228.283 107.3 228.656V231.414C107.459 231.787 107.711 232.091 108.056 232.324C108.402 232.548 108.794 232.66 109.232 232.66ZM117.114 233.654C116.619 233.654 116.176 233.57 115.784 233.402C115.392 233.234 115.056 232.991 114.776 232.674C114.505 232.357 114.295 231.979 114.146 231.54C113.997 231.092 113.922 230.588 113.922 230.028C113.922 229.477 113.997 228.978 114.146 228.53C114.295 228.082 114.505 227.704 114.776 227.396C115.056 227.079 115.387 226.836 115.77 226.668C116.162 226.491 116.596 226.402 117.072 226.402C117.539 226.402 117.959 226.491 118.332 226.668C118.705 226.836 119.023 227.074 119.284 227.382C119.545 227.681 119.746 228.04 119.886 228.46C120.026 228.88 120.096 229.337 120.096 229.832C120.096 230.028 120.082 230.21 120.054 230.378H115.098C115.145 231.106 115.35 231.671 115.714 232.072C116.078 232.464 116.568 232.66 117.184 232.66C117.613 232.66 117.996 232.571 118.332 232.394C118.668 232.217 118.939 231.965 119.144 231.638L119.9 232.268C119.639 232.66 119.279 232.991 118.822 233.262C118.374 233.523 117.805 233.654 117.114 233.654ZM117.072 227.396C116.54 227.396 116.101 227.573 115.756 227.928C115.411 228.273 115.196 228.773 115.112 229.426H118.92C118.883 228.801 118.696 228.306 118.36 227.942C118.033 227.578 117.604 227.396 117.072 227.396ZM121.889 226.556H122.967V227.802C123.154 227.419 123.42 227.093 123.765 226.822C124.111 226.542 124.531 226.402 125.025 226.402C125.072 226.402 125.119 226.402 125.165 226.402C125.221 226.402 125.273 226.411 125.319 226.43V227.564H124.941C124.475 227.564 124.078 227.69 123.751 227.942C123.425 228.194 123.177 228.586 123.009 229.118V233.5H121.889V226.556ZM127.917 226.556V233.5H126.797V226.556H127.917ZM128.057 223.56V224.96H126.657V223.56H128.057ZM133.043 232.66C133.687 232.66 134.201 232.431 134.583 231.974C134.966 231.507 135.157 230.859 135.157 230.028C135.157 229.197 134.966 228.553 134.583 228.096C134.201 227.629 133.687 227.396 133.043 227.396C132.399 227.396 131.886 227.629 131.503 228.096C131.121 228.553 130.929 229.197 130.929 230.028C130.929 230.859 131.121 231.507 131.503 231.974C131.886 232.431 132.399 232.66 133.043 232.66ZM133.043 226.402C133.538 226.402 133.986 226.491 134.387 226.668C134.798 226.845 135.143 227.093 135.423 227.41C135.713 227.727 135.932 228.11 136.081 228.558C136.24 229.006 136.319 229.496 136.319 230.028C136.319 230.56 136.24 231.05 136.081 231.498C135.932 231.946 135.713 232.329 135.423 232.646C135.143 232.963 134.798 233.211 134.387 233.388C133.986 233.565 133.538 233.654 133.043 233.654C132.549 233.654 132.096 233.565 131.685 233.388C131.284 233.211 130.939 232.963 130.649 232.646C130.369 232.329 130.15 231.946 129.991 231.498C129.842 231.05 129.767 230.56 129.767 230.028C129.767 229.496 129.842 229.006 129.991 228.558C130.15 228.11 130.369 227.727 130.649 227.41C130.939 227.093 131.284 226.845 131.685 226.668C132.096 226.491 132.549 226.402 133.043 226.402ZM142.974 232.52C142.713 232.875 142.391 233.155 142.008 233.36C141.626 233.556 141.21 233.654 140.762 233.654C140.296 233.654 139.876 233.565 139.502 233.388C139.138 233.211 138.821 232.963 138.55 232.646C138.289 232.329 138.088 231.946 137.948 231.498C137.808 231.05 137.738 230.56 137.738 230.028C137.738 229.496 137.808 229.006 137.948 228.558C138.088 228.11 138.289 227.727 138.55 227.41C138.821 227.093 139.138 226.845 139.502 226.668C139.876 226.491 140.296 226.402 140.762 226.402C141.201 226.402 141.607 226.5 141.98 226.696C142.354 226.892 142.671 227.158 142.932 227.494V223.56H144.052V233.5H142.974V232.52ZM141 232.66C141.439 232.66 141.831 232.548 142.176 232.324C142.522 232.091 142.774 231.787 142.932 231.414V228.656C142.774 228.283 142.522 227.979 142.176 227.746C141.831 227.513 141.439 227.396 141 227.396C140.338 227.396 139.82 227.629 139.446 228.096C139.082 228.563 138.9 229.207 138.9 230.028C138.9 230.849 139.082 231.493 139.446 231.96C139.82 232.427 140.338 232.66 141 232.66ZM149.237 229.846C149.237 229.006 149.326 228.255 149.503 227.592C149.68 226.92 149.909 226.332 150.189 225.828C150.469 225.324 150.777 224.895 151.113 224.54C151.458 224.176 151.794 223.873 152.121 223.63L152.681 224.33C152.364 224.591 152.065 224.895 151.785 225.24C151.505 225.585 151.258 225.982 151.043 226.43C150.838 226.878 150.674 227.387 150.553 227.956C150.432 228.516 150.371 229.146 150.371 229.846C150.371 230.546 150.432 231.181 150.553 231.75C150.674 232.31 150.838 232.814 151.043 233.262C151.258 233.71 151.505 234.107 151.785 234.452C152.065 234.797 152.364 235.101 152.681 235.362L152.121 236.062C151.794 235.829 151.458 235.53 151.113 235.166C150.777 234.802 150.469 234.368 150.189 233.864C149.909 233.36 149.68 232.777 149.503 232.114C149.326 231.442 149.237 230.686 149.237 229.846ZM153.786 226.556H154.864V227.508C154.957 227.368 155.074 227.233 155.214 227.102C155.354 226.971 155.512 226.855 155.69 226.752C155.876 226.649 156.077 226.565 156.292 226.5C156.506 226.435 156.735 226.402 156.978 226.402C157.491 226.402 157.925 226.509 158.28 226.724C158.644 226.929 158.919 227.233 159.106 227.634C159.19 227.485 159.306 227.34 159.456 227.2C159.605 227.051 159.778 226.92 159.974 226.808C160.17 226.687 160.389 226.589 160.632 226.514C160.874 226.439 161.131 226.402 161.402 226.402C162.204 226.402 162.82 226.645 163.25 227.13C163.679 227.606 163.894 228.278 163.894 229.146V233.5H162.774V229.258C162.774 228.642 162.634 228.18 162.354 227.872C162.083 227.555 161.696 227.396 161.192 227.396C160.716 227.396 160.324 227.522 160.016 227.774C159.708 228.026 159.502 228.315 159.4 228.642V233.5H158.28V229.258C158.28 228.642 158.14 228.18 157.86 227.872C157.589 227.555 157.202 227.396 156.698 227.396C156.222 227.396 155.83 227.522 155.522 227.774C155.214 228.026 155.008 228.315 154.906 228.642V233.5H153.786V226.556ZM168.932 232.66C169.576 232.66 170.089 232.431 170.472 231.974C170.855 231.507 171.046 230.859 171.046 230.028C171.046 229.197 170.855 228.553 170.472 228.096C170.089 227.629 169.576 227.396 168.932 227.396C168.288 227.396 167.775 227.629 167.392 228.096C167.009 228.553 166.818 229.197 166.818 230.028C166.818 230.859 167.009 231.507 167.392 231.974C167.775 232.431 168.288 232.66 168.932 232.66ZM168.932 226.402C169.427 226.402 169.875 226.491 170.276 226.668C170.687 226.845 171.032 227.093 171.312 227.41C171.601 227.727 171.821 228.11 171.97 228.558C172.129 229.006 172.208 229.496 172.208 230.028C172.208 230.56 172.129 231.05 171.97 231.498C171.821 231.946 171.601 232.329 171.312 232.646C171.032 232.963 170.687 233.211 170.276 233.388C169.875 233.565 169.427 233.654 168.932 233.654C168.437 233.654 167.985 233.565 167.574 233.388C167.173 233.211 166.827 232.963 166.538 232.646C166.258 232.329 166.039 231.946 165.88 231.498C165.731 231.05 165.656 230.56 165.656 230.028C165.656 229.496 165.731 229.006 165.88 228.558C166.039 228.11 166.258 227.727 166.538 227.41C166.827 227.093 167.173 226.845 167.574 226.668C167.985 226.491 168.437 226.402 168.932 226.402ZM174.061 226.556H175.139V227.508C175.232 227.368 175.349 227.233 175.489 227.102C175.629 226.971 175.788 226.855 175.965 226.752C176.152 226.649 176.352 226.565 176.567 226.5C176.782 226.435 177.01 226.402 177.253 226.402C178.065 226.402 178.686 226.645 179.115 227.13C179.554 227.615 179.773 228.297 179.773 229.174V233.5H178.653V229.286C178.653 228.661 178.504 228.189 178.205 227.872C177.916 227.555 177.505 227.396 176.973 227.396C176.497 227.396 176.105 227.522 175.797 227.774C175.489 228.026 175.284 228.315 175.181 228.642V233.5H174.061V226.556ZM184.582 233.556C183.864 233.556 183.322 233.379 182.958 233.024C182.594 232.66 182.412 232.081 182.412 231.288V227.508H181.166V226.556H182.426V224.75H183.532V226.556H185.086V227.508H183.532V231.288C183.532 231.764 183.64 232.095 183.854 232.282C184.069 232.469 184.414 232.562 184.89 232.562H185.086V233.514C184.946 233.542 184.778 233.556 184.582 233.556ZM186.776 223.56H187.896V227.438C188.083 227.177 188.358 226.939 188.722 226.724C189.086 226.509 189.501 226.402 189.968 226.402C190.78 226.402 191.401 226.645 191.83 227.13C192.269 227.615 192.488 228.297 192.488 229.174V233.5H191.368V229.286C191.368 228.661 191.219 228.189 190.92 227.872C190.631 227.555 190.22 227.396 189.688 227.396C189.212 227.396 188.82 227.522 188.512 227.774C188.204 228.026 187.999 228.315 187.896 228.642V233.5H186.776V223.56ZM198.234 228.166C198.028 227.877 197.8 227.671 197.548 227.55C197.296 227.419 197.02 227.354 196.722 227.354C196.376 227.354 196.115 227.452 195.938 227.648C195.76 227.835 195.672 228.054 195.672 228.306C195.672 228.81 195.97 229.127 196.568 229.258L197.156 229.384C197.818 229.524 198.332 229.757 198.696 230.084C199.069 230.401 199.256 230.868 199.256 231.484C199.256 231.764 199.195 232.035 199.074 232.296C198.962 232.557 198.794 232.791 198.57 232.996C198.346 233.192 198.07 233.351 197.744 233.472C197.417 233.593 197.048 233.654 196.638 233.654C196.33 233.654 196.045 233.612 195.784 233.528C195.522 233.453 195.28 233.351 195.056 233.22C194.841 233.089 194.645 232.935 194.468 232.758C194.29 232.581 194.141 232.399 194.02 232.212L194.748 231.54C194.953 231.848 195.214 232.119 195.532 232.352C195.849 232.585 196.227 232.702 196.666 232.702C197.114 232.702 197.468 232.599 197.73 232.394C197.991 232.189 198.122 231.909 198.122 231.554C198.122 231.227 198.005 230.98 197.772 230.812C197.538 230.644 197.226 230.518 196.834 230.434L196.246 230.308C195.695 230.187 195.27 229.967 194.972 229.65C194.682 229.333 194.538 228.922 194.538 228.418C194.538 228.157 194.584 227.905 194.678 227.662C194.78 227.41 194.925 227.195 195.112 227.018C195.298 226.831 195.532 226.682 195.812 226.57C196.092 226.458 196.409 226.402 196.764 226.402C197.249 226.402 197.678 226.505 198.052 226.71C198.425 226.915 198.728 227.191 198.962 227.536L198.234 228.166ZM203.19 229.846C203.19 230.686 203.096 231.442 202.91 232.114C202.732 232.777 202.504 233.36 202.224 233.864C201.944 234.368 201.631 234.802 201.286 235.166C200.95 235.53 200.623 235.829 200.306 236.062L199.746 235.362C200.063 235.101 200.362 234.797 200.642 234.452C200.922 234.107 201.164 233.71 201.37 233.262C201.584 232.814 201.752 232.31 201.874 231.75C201.995 231.181 202.056 230.546 202.056 229.846C202.056 229.146 201.995 228.516 201.874 227.956C201.752 227.387 201.584 226.878 201.37 226.43C201.164 225.982 200.922 225.585 200.642 225.24C200.362 224.895 200.063 224.591 199.746 224.33L200.306 223.63C200.623 223.873 200.95 224.176 201.286 224.54C201.631 224.895 201.944 225.324 202.224 225.828C202.504 226.332 202.732 226.92 202.91 227.592C203.096 228.255 203.19 229.006 203.19 229.846Z" fill="black"/>
    <mask id="path-3-inside-1_1_2543" fill="white">
    <path d="M0.5 0H295.5V40H0.5V0Z"/>
    </mask>
    <path d="M0.5 0H295.5V40H0.5V0Z" fill="white"/>
    <path d="M295.5 39H0.5V41H295.5V39Z" fill="#E5E5E5" mask="url(#path-3-inside-1_1_2543)"/>
    <mask id="path-5-inside-2_1_2543" fill="white">
    <path d="M0.5 40H295.5V80H0.5V40Z"/>
    </mask>
    <path d="M0.5 40H295.5V80H0.5V40Z" fill="white"/>
    <path d="M295.5 79H0.5V81H295.5V79Z" fill="#E5E5E5" mask="url(#path-5-inside-2_1_2543)"/>
    <mask id="path-7-inside-3_1_2543" fill="white">
    <path d="M0.5 80H295.5V120H0.5V80Z"/>
    </mask>
    <path d="M0.5 80H295.5V120H0.5V80Z" fill="white"/>
    <path d="M295.5 119H0.5V121H295.5V119Z" fill="#E5E5E5" mask="url(#path-7-inside-3_1_2543)"/>
    <mask id="path-9-inside-4_1_2543" fill="white">
    <path d="M0.5 120H295.5V160H0.5V120Z"/>
    </mask>
    <path d="M0.5 120H295.5V160H0.5V120Z" fill="white"/>
    <path d="M295.5 159H0.5V161H295.5V159Z" fill="#444444" mask="url(#path-9-inside-4_1_2543)"/>
    <g clip-path="url(#clip1_1_2543)">
    <rect x="20.5" width="16" height="150" rx="8" fill="white"/>
    <line x1="14.1464" y1="19.789" x2="42.4307" y2="-8.49525" stroke="#CCCCCC"/>
    <line x1="14.1464" y1="26.9316" x2="42.4307" y2="-1.35267" stroke="#CCCCCC"/>
    <line x1="14.1464" y1="33.9316" x2="42.4307" y2="5.64733" stroke="#CCCCCC"/>
    <line x1="14.1464" y1="40.9316" x2="42.4307" y2="12.6473" stroke="#CCCCCC"/>
    <line x1="14.1464" y1="47.9316" x2="42.4307" y2="19.6473" stroke="#CCCCCC"/>
    <line x1="14.1464" y1="54.9316" x2="42.4307" y2="26.6473" stroke="#CCCCCC"/>
    <line x1="14.1464" y1="61.9316" x2="42.4307" y2="33.6473" stroke="#CCCCCC"/>
    <line x1="14.1464" y1="68.9316" x2="42.4307" y2="40.6473" stroke="#CCCCCC"/>
    <line x1="14.1464" y1="75.9316" x2="42.4307" y2="47.6473" stroke="#CCCCCC"/>
    <line x1="14.1464" y1="82.9316" x2="42.4307" y2="54.6473" stroke="#CCCCCC"/>
    <line x1="14.1464" y1="89.9316" x2="42.4307" y2="61.6473" stroke="#CCCCCC"/>
    <line x1="14.1464" y1="96.9316" x2="42.4307" y2="68.6473" stroke="#CCCCCC"/>
    <line x1="14.1464" y1="103.932" x2="42.4307" y2="75.6473" stroke="#CCCCCC"/>
    <line x1="14.1464" y1="110.932" x2="42.4307" y2="82.6473" stroke="#CCCCCC"/>
    <line x1="14.1464" y1="117.932" x2="42.4307" y2="89.6473" stroke="#CCCCCC"/>
    <line x1="14.1464" y1="124.932" x2="42.4307" y2="96.6473" stroke="#CCCCCC"/>
    <line x1="14.1464" y1="131.932" x2="42.4307" y2="103.647" stroke="#CCCCCC"/>
    <line x1="14.1464" y1="138.932" x2="42.4307" y2="110.647" stroke="#CCCCCC"/>
    <line x1="14.1464" y1="145.932" x2="42.4307" y2="117.647" stroke="#CCCCCC"/>
    <line x1="14.1464" y1="152.932" x2="42.4307" y2="124.647" stroke="#CCCCCC"/>
    <line x1="14.1464" y1="159.932" x2="42.4307" y2="131.647" stroke="#CCCCCC"/>
    </g>
    <rect x="21" y="0.5" width="15" height="149" rx="7.5" stroke="#CCCCCC"/>
    <rect x="20.5" y="130" width="16" height="20" rx="8" fill="#5d7d2b"/>
    <g clip-path="url(#clip2_1_2543)">
    <rect x="68.5" width="16" height="150" rx="8" fill="white"/>
    <line x1="62.1464" y1="19.789" x2="90.4307" y2="-8.49525" stroke="#CCCCCC"/>
    <line x1="62.1464" y1="26.9316" x2="90.4307" y2="-1.35267" stroke="#CCCCCC"/>
    <line x1="62.1464" y1="33.9316" x2="90.4307" y2="5.64733" stroke="#CCCCCC"/>
    <line x1="62.1464" y1="40.9316" x2="90.4307" y2="12.6473" stroke="#CCCCCC"/>
    <line x1="62.1464" y1="47.9316" x2="90.4307" y2="19.6473" stroke="#CCCCCC"/>
    <line x1="62.1464" y1="54.9316" x2="90.4307" y2="26.6473" stroke="#CCCCCC"/>
    <line x1="62.1464" y1="61.9316" x2="90.4307" y2="33.6473" stroke="#CCCCCC"/>
    <line x1="62.1464" y1="68.9316" x2="90.4307" y2="40.6473" stroke="#CCCCCC"/>
    <line x1="62.1464" y1="75.9316" x2="90.4307" y2="47.6473" stroke="#CCCCCC"/>
    <line x1="62.1464" y1="82.9316" x2="90.4307" y2="54.6473" stroke="#CCCCCC"/>
    <line x1="62.1464" y1="89.9316" x2="90.4307" y2="61.6473" stroke="#CCCCCC"/>
    <line x1="62.1464" y1="96.9316" x2="90.4307" y2="68.6473" stroke="#CCCCCC"/>
    <line x1="62.1464" y1="103.932" x2="90.4307" y2="75.6473" stroke="#CCCCCC"/>
    <line x1="62.1464" y1="110.932" x2="90.4307" y2="82.6473" stroke="#CCCCCC"/>
    <line x1="62.1464" y1="117.932" x2="90.4307" y2="89.6473" stroke="#CCCCCC"/>
    <line x1="62.1464" y1="124.932" x2="90.4307" y2="96.6473" stroke="#CCCCCC"/>
    <line x1="62.1464" y1="131.932" x2="90.4307" y2="103.647" stroke="#CCCCCC"/>
    <line x1="62.1464" y1="138.932" x2="90.4307" y2="110.647" stroke="#CCCCCC"/>
    <line x1="62.1464" y1="145.932" x2="90.4307" y2="117.647" stroke="#CCCCCC"/>
    <line x1="62.1464" y1="152.932" x2="90.4307" y2="124.647" stroke="#CCCCCC"/>
    <line x1="62.1464" y1="159.932" x2="90.4307" y2="131.647" stroke="#CCCCCC"/>
    </g>
    <rect x="69" y="0.5" width="15" height="149" rx="7.5" stroke="#CCCCCC"/>
    <rect x="68.5" y="106" width="16" height="44" rx="8" fill="#5d7d2b"/>
    <g clip-path="url(#clip3_1_2543)">
    <rect x="116.5" width="16" height="150" rx="8" fill="white"/>
    <line x1="110.146" y1="19.789" x2="138.431" y2="-8.49525" stroke="#CCCCCC"/>
    <line x1="110.146" y1="26.9316" x2="138.431" y2="-1.35267" stroke="#CCCCCC"/>
    <line x1="110.146" y1="33.9316" x2="138.431" y2="5.64733" stroke="#CCCCCC"/>
    <line x1="110.146" y1="40.9316" x2="138.431" y2="12.6473" stroke="#CCCCCC"/>
    <line x1="110.146" y1="47.9316" x2="138.431" y2="19.6473" stroke="#CCCCCC"/>
    <line x1="110.146" y1="54.9316" x2="138.431" y2="26.6473" stroke="#CCCCCC"/>
    <line x1="110.146" y1="61.9316" x2="138.431" y2="33.6473" stroke="#CCCCCC"/>
    <line x1="110.146" y1="68.9316" x2="138.431" y2="40.6473" stroke="#CCCCCC"/>
    <line x1="110.146" y1="75.9316" x2="138.431" y2="47.6473" stroke="#CCCCCC"/>
    <line x1="110.146" y1="82.9316" x2="138.431" y2="54.6473" stroke="#CCCCCC"/>
    <line x1="110.146" y1="89.9316" x2="138.431" y2="61.6473" stroke="#CCCCCC"/>
    <line x1="110.146" y1="96.9316" x2="138.431" y2="68.6473" stroke="#CCCCCC"/>
    <line x1="110.146" y1="103.932" x2="138.431" y2="75.6473" stroke="#CCCCCC"/>
    <line x1="110.146" y1="110.932" x2="138.431" y2="82.6473" stroke="#CCCCCC"/>
    <line x1="110.146" y1="117.932" x2="138.431" y2="89.6473" stroke="#CCCCCC"/>
    <line x1="110.146" y1="124.932" x2="138.431" y2="96.6473" stroke="#CCCCCC"/>
    <line x1="110.146" y1="131.932" x2="138.431" y2="103.647" stroke="#CCCCCC"/>
    <line x1="110.146" y1="138.932" x2="138.431" y2="110.647" stroke="#CCCCCC"/>
    <line x1="110.146" y1="145.932" x2="138.431" y2="117.647" stroke="#CCCCCC"/>
    <line x1="110.146" y1="152.932" x2="138.431" y2="124.647" stroke="#CCCCCC"/>
    <line x1="110.146" y1="159.932" x2="138.431" y2="131.647" stroke="#CCCCCC"/>
    </g>
    <rect x="117" y="0.5" width="15" height="149" rx="7.5" stroke="#CCCCCC"/>
    <rect x="116.5" y="82" width="16" height="68" rx="8" fill="#5d7d2b"/>
    <g clip-path="url(#clip4_1_2543)">
    <rect x="164.5" width="16" height="150" rx="8" fill="white"/>
    <line x1="158.146" y1="19.789" x2="186.431" y2="-8.49525" stroke="#CCCCCC"/>
    <line x1="158.146" y1="26.9316" x2="186.431" y2="-1.35267" stroke="#CCCCCC"/>
    <line x1="158.146" y1="33.9316" x2="186.431" y2="5.64733" stroke="#CCCCCC"/>
    <line x1="158.146" y1="40.9316" x2="186.431" y2="12.6473" stroke="#CCCCCC"/>
    <line x1="158.146" y1="47.9316" x2="186.431" y2="19.6473" stroke="#CCCCCC"/>
    <line x1="158.146" y1="54.9316" x2="186.431" y2="26.6473" stroke="#CCCCCC"/>
    <line x1="158.146" y1="61.9316" x2="186.431" y2="33.6473" stroke="#CCCCCC"/>
    <line x1="158.146" y1="68.9316" x2="186.431" y2="40.6473" stroke="#CCCCCC"/>
    <line x1="158.146" y1="75.9316" x2="186.431" y2="47.6473" stroke="#CCCCCC"/>
    <line x1="158.146" y1="82.9316" x2="186.431" y2="54.6473" stroke="#CCCCCC"/>
    <line x1="158.146" y1="89.9316" x2="186.431" y2="61.6473" stroke="#CCCCCC"/>
    <line x1="158.146" y1="96.9316" x2="186.431" y2="68.6473" stroke="#CCCCCC"/>
    <line x1="158.146" y1="103.932" x2="186.431" y2="75.6473" stroke="#CCCCCC"/>
    <line x1="158.146" y1="110.932" x2="186.431" y2="82.6473" stroke="#CCCCCC"/>
    <line x1="158.146" y1="117.932" x2="186.431" y2="89.6473" stroke="#CCCCCC"/>
    <line x1="158.146" y1="124.932" x2="186.431" y2="96.6473" stroke="#CCCCCC"/>
    <line x1="158.146" y1="131.932" x2="186.431" y2="103.647" stroke="#CCCCCC"/>
    <line x1="158.146" y1="138.932" x2="186.431" y2="110.647" stroke="#CCCCCC"/>
    <line x1="158.146" y1="145.932" x2="186.431" y2="117.647" stroke="#CCCCCC"/>
    <line x1="158.146" y1="152.932" x2="186.431" y2="124.647" stroke="#CCCCCC"/>
    <line x1="158.146" y1="159.932" x2="186.431" y2="131.647" stroke="#CCCCCC"/>
    </g>
    <rect x="165" y="0.5" width="15" height="149" rx="7.5" stroke="#CCCCCC"/>
    <rect x="165" y="58" width="16" height="92" rx="8" fill="#5d7d2b"/>
    <g clip-path="url(#clip5_1_2543)">
    <rect x="212.5" width="16" height="150" rx="8" fill="white"/>
    <line x1="206.146" y1="19.789" x2="234.431" y2="-8.49525" stroke="#CCCCCC"/>
    <line x1="206.146" y1="26.9316" x2="234.431" y2="-1.35267" stroke="#CCCCCC"/>
    <line x1="206.146" y1="33.9316" x2="234.431" y2="5.64733" stroke="#CCCCCC"/>
    <line x1="206.146" y1="40.9316" x2="234.431" y2="12.6473" stroke="#CCCCCC"/>
    <line x1="206.146" y1="47.9316" x2="234.431" y2="19.6473" stroke="#CCCCCC"/>
    <line x1="206.146" y1="54.9316" x2="234.431" y2="26.6473" stroke="#CCCCCC"/>
    <line x1="206.146" y1="61.9316" x2="234.431" y2="33.6473" stroke="#CCCCCC"/>
    <line x1="206.146" y1="68.9316" x2="234.431" y2="40.6473" stroke="#CCCCCC"/>
    <line x1="206.146" y1="75.9316" x2="234.431" y2="47.6473" stroke="#CCCCCC"/>
    <line x1="206.146" y1="82.9316" x2="234.431" y2="54.6473" stroke="#CCCCCC"/>
    <line x1="206.146" y1="89.9316" x2="234.431" y2="61.6473" stroke="#CCCCCC"/>
    <line x1="206.146" y1="96.9316" x2="234.431" y2="68.6473" stroke="#CCCCCC"/>
    <line x1="206.146" y1="103.932" x2="234.431" y2="75.6473" stroke="#CCCCCC"/>
    <line x1="206.146" y1="110.932" x2="234.431" y2="82.6473" stroke="#CCCCCC"/>
    <line x1="206.146" y1="117.932" x2="234.431" y2="89.6473" stroke="#CCCCCC"/>
    <line x1="206.146" y1="124.932" x2="234.431" y2="96.6473" stroke="#CCCCCC"/>
    <line x1="206.146" y1="131.932" x2="234.431" y2="103.647" stroke="#CCCCCC"/>
    <line x1="206.146" y1="138.932" x2="234.431" y2="110.647" stroke="#CCCCCC"/>
    <line x1="206.146" y1="145.932" x2="234.431" y2="117.647" stroke="#CCCCCC"/>
    <line x1="206.146" y1="152.932" x2="234.431" y2="124.647" stroke="#CCCCCC"/>
    <line x1="206.146" y1="159.932" x2="234.431" y2="131.647" stroke="#CCCCCC"/>
    </g>
    <rect x="213" y="0.5" width="15" height="149" rx="7.5" stroke="#CCCCCC"/>
    <rect x="212.5" y="34" width="16" height="116" rx="8" fill="#5d7d2b"/>
    <g clip-path="url(#clip6_1_2543)">
    <rect x="260.5" width="16" height="150" rx="8" fill="white"/>
    <line x1="254.146" y1="19.789" x2="282.431" y2="-8.49525" stroke="#CCCCCC"/>
    <line x1="254.146" y1="26.9316" x2="282.431" y2="-1.35267" stroke="#CCCCCC"/>
    <line x1="254.146" y1="33.9316" x2="282.431" y2="5.64733" stroke="#CCCCCC"/>
    <line x1="254.146" y1="40.9316" x2="282.431" y2="12.6473" stroke="#CCCCCC"/>
    <line x1="254.146" y1="47.9316" x2="282.431" y2="19.6473" stroke="#CCCCCC"/>
    <line x1="254.146" y1="54.9316" x2="282.431" y2="26.6473" stroke="#CCCCCC"/>
    <line x1="254.146" y1="61.9316" x2="282.431" y2="33.6473" stroke="#CCCCCC"/>
    <line x1="254.146" y1="68.9316" x2="282.431" y2="40.6473" stroke="#CCCCCC"/>
    <line x1="254.146" y1="75.9316" x2="282.431" y2="47.6473" stroke="#CCCCCC"/>
    <line x1="254.146" y1="82.9316" x2="282.431" y2="54.6473" stroke="#CCCCCC"/>
    <line x1="254.146" y1="89.9316" x2="282.431" y2="61.6473" stroke="#CCCCCC"/>
    <line x1="254.146" y1="96.9316" x2="282.431" y2="68.6473" stroke="#CCCCCC"/>
    <line x1="254.146" y1="103.932" x2="282.431" y2="75.6473" stroke="#CCCCCC"/>
    <line x1="254.146" y1="110.932" x2="282.431" y2="82.6473" stroke="#CCCCCC"/>
    <line x1="254.146" y1="117.932" x2="282.431" y2="89.6473" stroke="#CCCCCC"/>
    <line x1="254.146" y1="124.932" x2="282.431" y2="96.6473" stroke="#CCCCCC"/>
    <line x1="254.146" y1="131.932" x2="282.431" y2="103.647" stroke="#CCCCCC"/>
    <line x1="254.146" y1="138.932" x2="282.431" y2="110.647" stroke="#CCCCCC"/>
    <line x1="254.146" y1="145.932" x2="282.431" y2="117.647" stroke="#CCCCCC"/>
    <line x1="254.146" y1="152.932" x2="282.431" y2="124.647" stroke="#CCCCCC"/>
    <line x1="254.146" y1="159.932" x2="282.431" y2="131.647" stroke="#CCCCCC"/>
    </g>
    <rect x="261" y="0.5" width="15" height="149" rx="7.5" stroke="#CCCCCC"/>
    <rect x="260.5" y="20" width="16" height="130" rx="8" fill="#5d7d2b"/>
    <path d="M28.815 192.006H30.901V193H25.567V192.006H27.695V185.104L25.917 186.21L25.469 185.342L27.947 183.816H28.815V192.006Z" fill="black"/>
    <path d="M78.383 185.734C78.1777 185.417 77.9163 185.165 77.599 184.978C77.2817 184.782 76.9177 184.684 76.507 184.684C75.7603 184.684 75.149 184.978 74.673 185.566C74.197 186.145 73.931 186.994 73.875 188.114C74.1177 187.722 74.4397 187.405 74.841 187.162C75.2423 186.91 75.7323 186.784 76.311 186.784C76.7217 186.784 77.109 186.863 77.473 187.022C77.837 187.181 78.1543 187.4 78.425 187.68C78.705 187.96 78.9243 188.296 79.083 188.688C79.2417 189.08 79.321 189.505 79.321 189.962C79.321 190.429 79.237 190.858 79.069 191.25C78.901 191.633 78.6723 191.969 78.383 192.258C78.103 192.538 77.767 192.757 77.375 192.916C76.9923 193.075 76.5817 193.154 76.143 193.154C75.5923 193.154 75.107 193.047 74.687 192.832C74.267 192.617 73.917 192.314 73.637 191.922C73.357 191.521 73.1423 191.045 72.993 190.494C72.853 189.934 72.783 189.313 72.783 188.632C72.783 187.857 72.8717 187.162 73.049 186.546C73.2263 185.93 73.4737 185.412 73.791 184.992C74.1177 184.563 74.5097 184.236 74.967 184.012C75.4243 183.779 75.9377 183.662 76.507 183.662C77.1323 183.662 77.669 183.807 78.117 184.096C78.565 184.385 78.915 184.726 79.167 185.118L78.383 185.734ZM74.155 189.976C74.155 190.611 74.3323 191.129 74.687 191.53C75.051 191.931 75.5363 192.132 76.143 192.132C76.759 192.132 77.249 191.931 77.613 191.53C77.977 191.129 78.159 190.611 78.159 189.976C78.159 189.659 78.1077 189.365 78.005 189.094C77.9117 188.823 77.7763 188.595 77.599 188.408C77.431 188.221 77.221 188.077 76.969 187.974C76.7263 187.862 76.451 187.806 76.143 187.806C75.8443 187.806 75.569 187.862 75.317 187.974C75.0743 188.077 74.8643 188.221 74.687 188.408C74.519 188.595 74.3883 188.823 74.295 189.094C74.2017 189.365 74.155 189.659 74.155 189.976Z" fill="black"/>
    <path d="M120.898 192.006H122.984V193H117.65V192.006H119.778V185.104L118 186.21L117.552 185.342L120.03 183.816H120.898V192.006ZM125.05 185.748C125.115 185.515 125.218 185.277 125.358 185.034C125.498 184.782 125.68 184.553 125.904 184.348C126.128 184.143 126.394 183.979 126.702 183.858C127.01 183.727 127.369 183.662 127.78 183.662C128.228 183.662 128.625 183.732 128.97 183.872C129.325 184.003 129.623 184.189 129.866 184.432C130.118 184.675 130.309 184.964 130.44 185.3C130.571 185.636 130.636 186.009 130.636 186.42C130.636 186.887 130.547 187.316 130.37 187.708C130.202 188.091 129.983 188.445 129.712 188.772C129.441 189.099 129.138 189.407 128.802 189.696C128.475 189.976 128.153 190.247 127.836 190.508C127.528 190.76 127.239 191.012 126.968 191.264C126.707 191.507 126.511 191.754 126.38 192.006H130.748V193H124.994V192.174C125.171 191.782 125.405 191.423 125.694 191.096C125.983 190.76 126.291 190.443 126.618 190.144C126.954 189.845 127.29 189.561 127.626 189.29C127.971 189.01 128.279 188.725 128.55 188.436C128.821 188.137 129.04 187.829 129.208 187.512C129.385 187.195 129.474 186.845 129.474 186.462C129.474 185.921 129.334 185.491 129.054 185.174C128.783 184.847 128.349 184.684 127.752 184.684C126.847 184.684 126.254 185.188 125.974 186.196L125.05 185.748Z" fill="black"/>
    <path d="M165.216 185.748C165.281 185.515 165.384 185.277 165.524 185.034C165.664 184.782 165.846 184.553 166.07 184.348C166.294 184.143 166.56 183.979 166.868 183.858C167.176 183.727 167.535 183.662 167.946 183.662C168.394 183.662 168.791 183.732 169.136 183.872C169.491 184.003 169.789 184.189 170.032 184.432C170.284 184.675 170.475 184.964 170.606 185.3C170.737 185.636 170.802 186.009 170.802 186.42C170.802 186.887 170.713 187.316 170.536 187.708C170.368 188.091 170.149 188.445 169.878 188.772C169.607 189.099 169.304 189.407 168.968 189.696C168.641 189.976 168.319 190.247 168.002 190.508C167.694 190.76 167.405 191.012 167.134 191.264C166.873 191.507 166.677 191.754 166.546 192.006H170.914V193H165.16V192.174C165.337 191.782 165.571 191.423 165.86 191.096C166.149 190.76 166.457 190.443 166.784 190.144C167.12 189.845 167.456 189.561 167.792 189.29C168.137 189.01 168.445 188.725 168.716 188.436C168.987 188.137 169.206 187.829 169.374 187.512C169.551 187.195 169.64 186.845 169.64 186.462C169.64 185.921 169.5 185.491 169.22 185.174C168.949 184.847 168.515 184.684 167.918 184.684C167.013 184.684 166.42 185.188 166.14 186.196L165.216 185.748ZM179.406 189.542V190.522H177.978V193H176.858V190.522H172.378V189.71L176.55 183.816H177.978V189.542H179.406ZM176.858 186.434C176.858 186.126 176.863 185.869 176.872 185.664C176.881 185.459 176.905 185.235 176.942 184.992H176.9C176.863 185.095 176.774 185.258 176.634 185.482C176.494 185.706 176.331 185.949 176.144 186.21L173.778 189.542H176.858V186.434Z" fill="black"/>
    <path d="M219.572 189.542V190.522H218.144V193H217.024V190.522H212.544V189.71L216.716 183.816H218.144V189.542H219.572ZM217.024 186.434C217.024 186.126 217.029 185.869 217.038 185.664C217.047 185.459 217.071 185.235 217.108 184.992H217.066C217.029 185.095 216.94 185.258 216.8 185.482C216.66 185.706 216.497 185.949 216.31 186.21L213.944 189.542H217.024V186.434ZM223.934 193.154C223.393 193.154 222.912 193.089 222.492 192.958C222.081 192.818 221.736 192.627 221.456 192.384C221.176 192.132 220.961 191.838 220.812 191.502C220.672 191.166 220.602 190.797 220.602 190.396C220.602 189.817 220.761 189.309 221.078 188.87C221.405 188.422 221.829 188.128 222.352 187.988C221.932 187.792 221.619 187.531 221.414 187.204C221.218 186.868 221.12 186.481 221.12 186.042C221.12 185.715 221.181 185.407 221.302 185.118C221.423 184.829 221.601 184.577 221.834 184.362C222.077 184.147 222.371 183.979 222.716 183.858C223.071 183.727 223.477 183.662 223.934 183.662C224.391 183.662 224.793 183.727 225.138 183.858C225.493 183.979 225.787 184.147 226.02 184.362C226.263 184.577 226.445 184.829 226.566 185.118C226.687 185.407 226.748 185.715 226.748 186.042C226.748 186.481 226.645 186.868 226.44 187.204C226.244 187.531 225.936 187.792 225.516 187.988C225.768 188.063 226.001 188.175 226.216 188.324C226.431 188.473 226.613 188.655 226.762 188.87C226.921 189.075 227.042 189.309 227.126 189.57C227.219 189.831 227.266 190.107 227.266 190.396C227.266 190.797 227.191 191.166 227.042 191.502C226.902 191.838 226.692 192.132 226.412 192.384C226.132 192.627 225.782 192.818 225.362 192.958C224.951 193.089 224.475 193.154 223.934 193.154ZM223.934 192.132C224.643 192.132 225.18 191.964 225.544 191.628C225.917 191.292 226.104 190.858 226.104 190.326C226.104 189.794 225.917 189.36 225.544 189.024C225.18 188.679 224.643 188.506 223.934 188.506C223.225 188.506 222.683 188.679 222.31 189.024C221.946 189.36 221.764 189.794 221.764 190.326C221.764 190.858 221.946 191.292 222.31 191.628C222.683 191.964 223.225 192.132 223.934 192.132ZM223.934 187.512C224.401 187.512 224.793 187.395 225.11 187.162C225.427 186.919 225.586 186.569 225.586 186.112C225.586 185.655 225.427 185.305 225.11 185.062C224.793 184.81 224.401 184.684 223.934 184.684C223.467 184.684 223.075 184.81 222.758 185.062C222.441 185.305 222.282 185.655 222.282 186.112C222.282 186.569 222.441 186.919 222.758 187.162C223.075 187.395 223.467 187.512 223.934 187.512Z" fill="black"/>
    <path d="M266.466 185.734C266.261 185.417 265.999 185.165 265.682 184.978C265.365 184.782 265.001 184.684 264.59 184.684C263.843 184.684 263.232 184.978 262.756 185.566C262.28 186.145 262.014 186.994 261.958 188.114C262.201 187.722 262.523 187.405 262.924 187.162C263.325 186.91 263.815 186.784 264.394 186.784C264.805 186.784 265.192 186.863 265.556 187.022C265.92 187.181 266.237 187.4 266.508 187.68C266.788 187.96 267.007 188.296 267.166 188.688C267.325 189.08 267.404 189.505 267.404 189.962C267.404 190.429 267.32 190.858 267.152 191.25C266.984 191.633 266.755 191.969 266.466 192.258C266.186 192.538 265.85 192.757 265.458 192.916C265.075 193.075 264.665 193.154 264.226 193.154C263.675 193.154 263.19 193.047 262.77 192.832C262.35 192.617 262 192.314 261.72 191.922C261.44 191.521 261.225 191.045 261.076 190.494C260.936 189.934 260.866 189.313 260.866 188.632C260.866 187.857 260.955 187.162 261.132 186.546C261.309 185.93 261.557 185.412 261.874 184.992C262.201 184.563 262.593 184.236 263.05 184.012C263.507 183.779 264.021 183.662 264.59 183.662C265.215 183.662 265.752 183.807 266.2 184.096C266.648 184.385 266.998 184.726 267.25 185.118L266.466 185.734ZM262.238 189.976C262.238 190.611 262.415 191.129 262.77 191.53C263.134 191.931 263.619 192.132 264.226 192.132C264.842 192.132 265.332 191.931 265.696 191.53C266.06 191.129 266.242 190.611 266.242 189.976C266.242 189.659 266.191 189.365 266.088 189.094C265.995 188.823 265.859 188.595 265.682 188.408C265.514 188.221 265.304 188.077 265.052 187.974C264.809 187.862 264.534 187.806 264.226 187.806C263.927 187.806 263.652 187.862 263.4 187.974C263.157 188.077 262.947 188.221 262.77 188.408C262.602 188.595 262.471 188.823 262.378 189.094C262.285 189.365 262.238 189.659 262.238 189.976ZM271.92 193.154C271.397 193.154 270.935 193.047 270.534 192.832C270.133 192.608 269.797 192.291 269.526 191.88C269.255 191.469 269.05 190.97 268.91 190.382C268.77 189.794 268.7 189.136 268.7 188.408C268.7 187.68 268.77 187.022 268.91 186.434C269.05 185.846 269.255 185.347 269.526 184.936C269.797 184.525 270.133 184.213 270.534 183.998C270.935 183.774 271.397 183.662 271.92 183.662C272.443 183.662 272.905 183.774 273.306 183.998C273.707 184.213 274.043 184.525 274.314 184.936C274.585 185.347 274.79 185.846 274.93 186.434C275.07 187.022 275.14 187.68 275.14 188.408C275.14 189.136 275.07 189.794 274.93 190.382C274.79 190.97 274.585 191.469 274.314 191.88C274.043 192.291 273.707 192.608 273.306 192.832C272.905 193.047 272.443 193.154 271.92 193.154ZM271.92 192.132C273.292 192.132 273.978 190.891 273.978 188.408C273.978 185.925 273.292 184.684 271.92 184.684C270.548 184.684 269.862 185.925 269.862 188.408C269.862 190.891 270.548 192.132 271.92 192.132Z" fill="black"/>
    <g clip-path="url(#clip7_1_2543)">
    <rect y="270" width="16" height="16" rx="8" fill="white"/>
    <line x1="-6.35355" y1="271.932" x2="21.9307" y2="243.647" stroke="#CCCCCC"/>
    <line x1="-6.35355" y1="278.932" x2="21.9307" y2="250.647" stroke="#CCCCCC"/>
    <line x1="-6.35355" y1="285.932" x2="21.9307" y2="257.647" stroke="#CCCCCC"/>
    <line x1="-6.35355" y1="292.932" x2="21.9307" y2="264.647" stroke="#CCCCCC"/>
    <line x1="-6.35355" y1="299.932" x2="21.9307" y2="271.647" stroke="#CCCCCC"/>
    <line x1="-6.35355" y1="306.932" x2="21.9307" y2="278.647" stroke="#CCCCCC"/>
    <line x1="-6.35355" y1="313.932" x2="21.9307" y2="285.647" stroke="#CCCCCC"/>
    </g>
    <rect x="0.5" y="270.5" width="15" height="15" rx="7.5" stroke="#CCCCCC"/>
    <path d="M0 278H16V278C16 282.418 12.4183 286 8 286V286C3.58172 286 0 282.418 0 278V278Z" fill="#5d7d2b"/>
    <path d="M27.5657 276.092C27.4817 275.896 27.4024 275.705 27.3277 275.518C27.2624 275.322 27.2017 275.145 27.1457 274.986C27.0897 274.827 27.043 274.692 27.0057 274.58C26.9684 274.459 26.945 274.37 26.9357 274.314H26.8937C26.903 274.361 26.9077 274.449 26.9077 274.58C26.917 274.701 26.9217 274.851 26.9217 275.028C26.931 275.196 26.9357 275.383 26.9357 275.588C26.945 275.793 26.9497 275.999 26.9497 276.204V282H25.7877V272.48H27.2717L30.0437 279.382C30.1464 279.634 30.235 279.877 30.3097 280.11C30.3937 280.334 30.4357 280.497 30.4357 280.6H30.4777C30.4777 280.497 30.515 280.334 30.5897 280.11C30.6644 279.877 30.753 279.634 30.8557 279.382L33.6277 272.48H35.1117V282H33.9497V276.204C33.9497 275.999 33.9497 275.793 33.9497 275.588C33.959 275.383 33.9637 275.196 33.9637 275.028C33.973 274.851 33.9777 274.701 33.9777 274.58C33.987 274.449 33.9964 274.361 34.0057 274.314H33.9637C33.9544 274.37 33.931 274.459 33.8937 274.58C33.8564 274.692 33.8097 274.827 33.7537 274.986C33.6977 275.145 33.6324 275.322 33.5577 275.518C33.4924 275.705 33.4177 275.896 33.3337 276.092L30.9957 282H29.9037L27.5657 276.092ZM40.4086 281.16C41.0526 281.16 41.566 280.931 41.9486 280.474C42.3313 280.007 42.5226 279.359 42.5226 278.528C42.5226 277.697 42.3313 277.053 41.9486 276.596C41.566 276.129 41.0526 275.896 40.4086 275.896C39.7646 275.896 39.2513 276.129 38.8686 276.596C38.486 277.053 38.2946 277.697 38.2946 278.528C38.2946 279.359 38.486 280.007 38.8686 280.474C39.2513 280.931 39.7646 281.16 40.4086 281.16ZM40.4086 274.902C40.9033 274.902 41.3513 274.991 41.7526 275.168C42.1633 275.345 42.5086 275.593 42.7886 275.91C43.078 276.227 43.2973 276.61 43.4466 277.058C43.6053 277.506 43.6846 277.996 43.6846 278.528C43.6846 279.06 43.6053 279.55 43.4466 279.998C43.2973 280.446 43.078 280.829 42.7886 281.146C42.5086 281.463 42.1633 281.711 41.7526 281.888C41.3513 282.065 40.9033 282.154 40.4086 282.154C39.914 282.154 39.4613 282.065 39.0506 281.888C38.6493 281.711 38.304 281.463 38.0146 281.146C37.7346 280.829 37.5153 280.446 37.3566 279.998C37.2073 279.55 37.1326 279.06 37.1326 278.528C37.1326 277.996 37.2073 277.506 37.3566 277.058C37.5153 276.61 37.7346 276.227 38.0146 275.91C38.304 275.593 38.6493 275.345 39.0506 275.168C39.4613 274.991 39.914 274.902 40.4086 274.902ZM45.5376 275.056H46.6156V276.008C46.709 275.868 46.8256 275.733 46.9656 275.602C47.1056 275.471 47.2643 275.355 47.4416 275.252C47.6283 275.149 47.829 275.065 48.0436 275C48.2583 274.935 48.487 274.902 48.7296 274.902C49.5416 274.902 50.1623 275.145 50.5916 275.63C51.0303 276.115 51.2496 276.797 51.2496 277.674V282H50.1296V277.786C50.1296 277.161 49.9803 276.689 49.6816 276.372C49.3923 276.055 48.9816 275.896 48.4496 275.896C47.9736 275.896 47.5816 276.022 47.2736 276.274C46.9656 276.526 46.7603 276.815 46.6576 277.142V282H45.5376V275.056ZM56.059 282.056C55.3403 282.056 54.799 281.879 54.435 281.524C54.071 281.16 53.889 280.581 53.889 279.788V276.008H52.643V275.056H53.903V273.25H55.009V275.056H56.563V276.008H55.009V279.788C55.009 280.264 55.1163 280.595 55.331 280.782C55.5456 280.969 55.891 281.062 56.367 281.062H56.563V282.014C56.423 282.042 56.255 282.056 56.059 282.056ZM58.2525 272.06H59.3725V275.938C59.5592 275.677 59.8345 275.439 60.1985 275.224C60.5625 275.009 60.9778 274.902 61.4445 274.902C62.2565 274.902 62.8772 275.145 63.3065 275.63C63.7452 276.115 63.9645 276.797 63.9645 277.674V282H62.8445V277.786C62.8445 277.161 62.6952 276.689 62.3965 276.372C62.1072 276.055 61.6965 275.896 61.1645 275.896C60.6885 275.896 60.2965 276.022 59.9885 276.274C59.6805 276.526 59.4752 276.815 59.3725 277.142V282H58.2525V272.06ZM67.3022 272.06V282H66.1822V272.06H67.3022ZM71.5181 281.3L68.8301 275.056H70.0341L71.6301 279.032C71.7328 279.293 71.8215 279.541 71.8961 279.774C71.9801 280.007 72.0221 280.175 72.0221 280.278H72.0641C72.1015 280.091 72.1481 279.905 72.2041 279.718C72.2601 279.522 72.3395 279.293 72.4421 279.032L73.9261 275.056H75.1441L71.3081 284.632H70.0901L71.5181 281.3ZM79.9224 275.056H81.0004V276.05C81.2524 275.695 81.5697 275.415 81.9524 275.21C82.3444 275.005 82.7644 274.902 83.2124 274.902C83.6697 274.902 84.0851 274.991 84.4584 275.168C84.8317 275.345 85.1491 275.593 85.4104 275.91C85.6811 276.227 85.8864 276.61 86.0264 277.058C86.1664 277.506 86.2364 277.996 86.2364 278.528C86.2364 279.06 86.1664 279.55 86.0264 279.998C85.8864 280.446 85.6811 280.829 85.4104 281.146C85.1491 281.463 84.8317 281.711 84.4584 281.888C84.0851 282.065 83.6697 282.154 83.2124 282.154C82.7737 282.154 82.3631 282.056 81.9804 281.86C81.6071 281.664 81.2944 281.403 81.0424 281.076V284.632H79.9224V275.056ZM82.9744 281.16C83.6371 281.16 84.1504 280.927 84.5144 280.46C84.8877 279.993 85.0744 279.349 85.0744 278.528C85.0744 277.707 84.8877 277.063 84.5144 276.596C84.1504 276.129 83.6371 275.896 82.9744 275.896C82.5357 275.896 82.1437 276.013 81.7984 276.246C81.4531 276.479 81.2011 276.783 81.0424 277.156V279.914C81.2011 280.287 81.4531 280.591 81.7984 280.824C82.1437 281.048 82.5357 281.16 82.9744 281.16ZM90.1282 282.154C89.7362 282.154 89.3815 282.093 89.0642 281.972C88.7469 281.851 88.4762 281.687 88.2522 281.482C88.0375 281.277 87.8695 281.039 87.7482 280.768C87.6269 280.488 87.5662 280.189 87.5662 279.872C87.5662 279.555 87.6269 279.261 87.7482 278.99C87.8695 278.71 88.0375 278.467 88.2522 278.262C88.4762 278.057 88.7469 277.893 89.0642 277.772C89.3815 277.651 89.7362 277.59 90.1282 277.59C90.4922 277.59 90.8422 277.66 91.1782 277.8C91.5142 277.931 91.8082 278.131 92.0602 278.402V277.702C92.0602 277.198 91.9202 276.773 91.6402 276.428C91.3695 276.073 90.9449 275.896 90.3662 275.896C89.9555 275.896 89.6242 275.966 89.3722 276.106C89.1202 276.246 88.8682 276.437 88.6162 276.68L87.9722 275.952C88.0935 275.821 88.2289 275.695 88.3782 275.574C88.5369 275.443 88.7142 275.331 88.9102 275.238C89.1062 275.135 89.3255 275.056 89.5682 275C89.8109 274.935 90.0862 274.902 90.3942 274.902C90.8515 274.902 91.2529 274.967 91.5982 275.098C91.9435 275.229 92.2329 275.415 92.4662 275.658C92.6995 275.891 92.8769 276.176 92.9982 276.512C93.1195 276.848 93.1802 277.217 93.1802 277.618V282H92.1022V281.314C91.8409 281.594 91.5375 281.804 91.1922 281.944C90.8562 282.084 90.5015 282.154 90.1282 282.154ZM90.2822 281.216C90.5995 281.216 90.9262 281.151 91.2622 281.02C91.6075 280.889 91.8735 280.665 92.0602 280.348V279.396C91.8735 279.088 91.6075 278.869 91.2622 278.738C90.9262 278.598 90.5995 278.528 90.2822 278.528C90.0022 278.528 89.7595 278.57 89.5542 278.654C89.3582 278.729 89.1949 278.831 89.0642 278.962C88.9429 279.093 88.8495 279.237 88.7842 279.396C88.7282 279.555 88.7002 279.713 88.7002 279.872C88.7002 280.031 88.7282 280.189 88.7842 280.348C88.8495 280.507 88.9429 280.651 89.0642 280.782C89.1949 280.913 89.3582 281.02 89.5542 281.104C89.7595 281.179 90.0022 281.216 90.2822 281.216ZM97.0846 281.3L94.3966 275.056H95.6006L97.1966 279.032C97.2992 279.293 97.3879 279.541 97.4626 279.774C97.5466 280.007 97.5886 280.175 97.5886 280.278H97.6306C97.6679 280.091 97.7146 279.905 97.7706 279.718C97.8266 279.522 97.9059 279.293 98.0086 279.032L99.4926 275.056H100.711L96.8746 284.632H95.6566L97.0846 281.3ZM102.194 275.056H103.272V276.008C103.365 275.868 103.482 275.733 103.622 275.602C103.762 275.471 103.921 275.355 104.098 275.252C104.285 275.149 104.485 275.065 104.7 275C104.915 274.935 105.143 274.902 105.386 274.902C105.899 274.902 106.333 275.009 106.688 275.224C107.052 275.429 107.327 275.733 107.514 276.134C107.598 275.985 107.715 275.84 107.864 275.7C108.013 275.551 108.186 275.42 108.382 275.308C108.578 275.187 108.797 275.089 109.04 275.014C109.283 274.939 109.539 274.902 109.81 274.902C110.613 274.902 111.229 275.145 111.658 275.63C112.087 276.106 112.302 276.778 112.302 277.646V282H111.182V277.758C111.182 277.142 111.042 276.68 110.762 276.372C110.491 276.055 110.104 275.896 109.6 275.896C109.124 275.896 108.732 276.022 108.424 276.274C108.116 276.526 107.911 276.815 107.808 277.142V282H106.688V277.758C106.688 277.142 106.548 276.68 106.268 276.372C105.997 276.055 105.61 275.896 105.106 275.896C104.63 275.896 104.238 276.022 103.93 276.274C103.622 276.526 103.417 276.815 103.314 277.142V282H102.194V275.056ZM117.27 282.154C116.776 282.154 116.332 282.07 115.94 281.902C115.548 281.734 115.212 281.491 114.932 281.174C114.662 280.857 114.452 280.479 114.302 280.04C114.153 279.592 114.078 279.088 114.078 278.528C114.078 277.977 114.153 277.478 114.302 277.03C114.452 276.582 114.662 276.204 114.932 275.896C115.212 275.579 115.544 275.336 115.926 275.168C116.318 274.991 116.752 274.902 117.228 274.902C117.695 274.902 118.115 274.991 118.488 275.168C118.862 275.336 119.179 275.574 119.44 275.882C119.702 276.181 119.902 276.54 120.042 276.96C120.182 277.38 120.252 277.837 120.252 278.332C120.252 278.528 120.238 278.71 120.21 278.878H115.254C115.301 279.606 115.506 280.171 115.87 280.572C116.234 280.964 116.724 281.16 117.34 281.16C117.77 281.16 118.152 281.071 118.488 280.894C118.824 280.717 119.095 280.465 119.3 280.138L120.056 280.768C119.795 281.16 119.436 281.491 118.978 281.762C118.53 282.023 117.961 282.154 117.27 282.154ZM117.228 275.896C116.696 275.896 116.258 276.073 115.912 276.428C115.567 276.773 115.352 277.273 115.268 277.926H119.076C119.039 277.301 118.852 276.806 118.516 276.442C118.19 276.078 117.76 275.896 117.228 275.896ZM122.045 275.056H123.123V276.008C123.217 275.868 123.333 275.733 123.473 275.602C123.613 275.471 123.772 275.355 123.949 275.252C124.136 275.149 124.337 275.065 124.551 275C124.766 274.935 124.995 274.902 125.237 274.902C126.049 274.902 126.67 275.145 127.099 275.63C127.538 276.115 127.757 276.797 127.757 277.674V282H126.637V277.786C126.637 277.161 126.488 276.689 126.189 276.372C125.9 276.055 125.489 275.896 124.957 275.896C124.481 275.896 124.089 276.022 123.781 276.274C123.473 276.526 123.268 276.815 123.165 277.142V282H122.045V275.056ZM132.567 282.056C131.848 282.056 131.307 281.879 130.943 281.524C130.579 281.16 130.397 280.581 130.397 279.788V276.008H129.151V275.056H130.411V273.25H131.517V275.056H133.071V276.008H131.517V279.788C131.517 280.264 131.624 280.595 131.839 280.782C132.053 280.969 132.399 281.062 132.875 281.062H133.071V282.014C132.931 282.042 132.763 282.056 132.567 282.056Z" fill="black"/>
    <g clip-path="url(#clip8_1_2543)">
    <rect y="295" width="16" height="16" rx="8" fill="white"/>
    <line x1="-6.35355" y1="296.932" x2="21.9307" y2="268.647" stroke="#E5E5E5"/>
    <line x1="-6.35355" y1="303.932" x2="21.9307" y2="275.647" stroke="#E5E5E5"/>
    <line x1="-6.35355" y1="310.932" x2="21.9307" y2="282.647" stroke="#E5E5E5"/>
    <line x1="-6.35355" y1="317.932" x2="21.9307" y2="289.647" stroke="#E5E5E5"/>
    <line x1="-6.35355" y1="324.932" x2="21.9307" y2="296.647" stroke="#E5E5E5"/>
    <line x1="-6.35355" y1="331.932" x2="21.9307" y2="303.647" stroke="#E5E5E5"/>
    <line x1="-6.35355" y1="338.932" x2="21.9307" y2="310.647" stroke="#E5E5E5"/>
    </g>
    <rect x="0.5" y="295.5" width="15" height="15" rx="7.5" stroke="#E5E5E5"/>
    <path d="M0 303C0 298.582 3.58172 295 8 295V295C12.4183 295 16 298.582 16 303V303C16 307.418 12.4183 311 8 311V311C3.58172 311 0 307.418 0 303V303Z" fill="#5d7d2b"/>
    <path d="M31.6274 300.294C31.6274 301.199 31.3567 301.895 30.8154 302.38C30.2834 302.865 29.5414 303.108 28.5894 303.108H26.5874V307H25.4254V297.48H28.5894C29.5414 297.48 30.2834 297.723 30.8154 298.208C31.3567 298.693 31.6274 299.389 31.6274 300.294ZM30.4234 300.294C30.4234 299.706 30.2601 299.258 29.9334 298.95C29.6067 298.633 29.1121 298.474 28.4494 298.474H26.5874V302.114H28.4494C29.1121 302.114 29.6067 301.96 29.9334 301.652C30.2601 301.335 30.4234 300.882 30.4234 300.294ZM33.2945 300.056H34.3725V301.302C34.5592 300.919 34.8252 300.593 35.1705 300.322C35.5158 300.042 35.9358 299.902 36.4305 299.902C36.4772 299.902 36.5238 299.902 36.5705 299.902C36.6265 299.902 36.6778 299.911 36.7245 299.93V301.064H36.3465C35.8798 301.064 35.4832 301.19 35.1565 301.442C34.8298 301.694 34.5825 302.086 34.4145 302.618V307H33.2945V300.056ZM39.3227 300.056V307H38.2027V300.056H39.3227ZM39.4627 297.06V298.46H38.0627V297.06H39.4627ZM41.6207 300.056H42.6987V301.008C42.792 300.868 42.9087 300.733 43.0487 300.602C43.1887 300.471 43.3473 300.355 43.5247 300.252C43.7113 300.149 43.912 300.065 44.1267 300C44.3413 299.935 44.57 299.902 44.8127 299.902C45.6247 299.902 46.2453 300.145 46.6747 300.63C47.1133 301.115 47.3327 301.797 47.3327 302.674V307H46.2127V302.786C46.2127 302.161 46.0633 301.689 45.7647 301.372C45.4753 301.055 45.0647 300.896 44.5327 300.896C44.0567 300.896 43.6647 301.022 43.3567 301.274C43.0487 301.526 42.8433 301.815 42.7407 302.142V307H41.6207V300.056ZM49.1163 303.528C49.1163 302.996 49.1863 302.506 49.3263 302.058C49.4757 301.61 49.6857 301.227 49.9563 300.91C50.2363 300.593 50.5723 300.345 50.9643 300.168C51.3657 299.991 51.8183 299.902 52.3223 299.902C52.985 299.902 53.5637 300.07 54.0583 300.406C54.553 300.733 54.8983 301.176 55.0943 301.736L54.2123 302.184C54.0537 301.764 53.811 301.447 53.4843 301.232C53.1577 301.008 52.7703 300.896 52.3223 300.896C51.697 300.896 51.1977 301.129 50.8243 301.596C50.4603 302.053 50.2783 302.697 50.2783 303.528C50.2783 304.359 50.4603 305.007 50.8243 305.474C51.1977 305.931 51.697 306.16 52.3223 306.16C52.7703 306.16 53.1577 306.053 53.4843 305.838C53.811 305.614 54.0537 305.292 54.2123 304.872L55.0943 305.32C54.8983 305.88 54.553 306.328 54.0583 306.664C53.5637 306.991 52.985 307.154 52.3223 307.154C51.8183 307.154 51.3657 307.065 50.9643 306.888C50.5723 306.711 50.2363 306.463 49.9563 306.146C49.6857 305.829 49.4757 305.446 49.3263 304.998C49.1863 304.55 49.1163 304.06 49.1163 303.528ZM57.9301 300.056V307H56.8101V300.056H57.9301ZM58.0701 297.06V298.46H56.6701V297.06H58.0701ZM60.2281 300.056H61.3061V301.05C61.5581 300.695 61.8754 300.415 62.2581 300.21C62.6501 300.005 63.0701 299.902 63.5181 299.902C63.9754 299.902 64.3907 299.991 64.7641 300.168C65.1374 300.345 65.4547 300.593 65.7161 300.91C65.9867 301.227 66.1921 301.61 66.3321 302.058C66.4721 302.506 66.5421 302.996 66.5421 303.528C66.5421 304.06 66.4721 304.55 66.3321 304.998C66.1921 305.446 65.9867 305.829 65.7161 306.146C65.4547 306.463 65.1374 306.711 64.7641 306.888C64.3907 307.065 63.9754 307.154 63.5181 307.154C63.0794 307.154 62.6687 307.056 62.2861 306.86C61.9127 306.664 61.6001 306.403 61.3481 306.076V309.632H60.2281V300.056ZM63.2801 306.16C63.9427 306.16 64.4561 305.927 64.8201 305.46C65.1934 304.993 65.3801 304.349 65.3801 303.528C65.3801 302.707 65.1934 302.063 64.8201 301.596C64.4561 301.129 63.9427 300.896 63.2801 300.896C62.8414 300.896 62.4494 301.013 62.1041 301.246C61.7587 301.479 61.5067 301.783 61.3481 302.156V304.914C61.5067 305.287 61.7587 305.591 62.1041 305.824C62.4494 306.048 62.8414 306.16 63.2801 306.16ZM70.4339 307.154C70.0419 307.154 69.6872 307.093 69.3699 306.972C69.0525 306.851 68.7819 306.687 68.5579 306.482C68.3432 306.277 68.1752 306.039 68.0539 305.768C67.9325 305.488 67.8719 305.189 67.8719 304.872C67.8719 304.555 67.9325 304.261 68.0539 303.99C68.1752 303.71 68.3432 303.467 68.5579 303.262C68.7819 303.057 69.0525 302.893 69.3699 302.772C69.6872 302.651 70.0419 302.59 70.4339 302.59C70.7979 302.59 71.1479 302.66 71.4839 302.8C71.8199 302.931 72.1139 303.131 72.3659 303.402V302.702C72.3659 302.198 72.2259 301.773 71.9459 301.428C71.6752 301.073 71.2505 300.896 70.6719 300.896C70.2612 300.896 69.9299 300.966 69.6779 301.106C69.4259 301.246 69.1739 301.437 68.9219 301.68L68.2779 300.952C68.3992 300.821 68.5345 300.695 68.6839 300.574C68.8425 300.443 69.0199 300.331 69.2159 300.238C69.4119 300.135 69.6312 300.056 69.8739 300C70.1165 299.935 70.3919 299.902 70.6999 299.902C71.1572 299.902 71.5585 299.967 71.9039 300.098C72.2492 300.229 72.5385 300.415 72.7719 300.658C73.0052 300.891 73.1825 301.176 73.3039 301.512C73.4252 301.848 73.4859 302.217 73.4859 302.618V307H72.4079V306.314C72.1465 306.594 71.8432 306.804 71.4979 306.944C71.1619 307.084 70.8072 307.154 70.4339 307.154ZM70.5879 306.216C70.9052 306.216 71.2319 306.151 71.5679 306.02C71.9132 305.889 72.1792 305.665 72.3659 305.348V304.396C72.1792 304.088 71.9132 303.869 71.5679 303.738C71.2319 303.598 70.9052 303.528 70.5879 303.528C70.3079 303.528 70.0652 303.57 69.8599 303.654C69.6639 303.729 69.5005 303.831 69.3699 303.962C69.2485 304.093 69.1552 304.237 69.0899 304.396C69.0339 304.555 69.0059 304.713 69.0059 304.872C69.0059 305.031 69.0339 305.189 69.0899 305.348C69.1552 305.507 69.2485 305.651 69.3699 305.782C69.5005 305.913 69.6639 306.02 69.8599 306.104C70.0652 306.179 70.3079 306.216 70.5879 306.216ZM76.8246 297.06V307H75.7046V297.06H76.8246Z" fill="black"/>
    <g clip-path="url(#clip9_1_2543)">
    <rect y="320" width="16" height="16" rx="8" fill="white"/>
    <line x1="-6.35355" y1="321.932" x2="21.9307" y2="293.647" stroke="#CCCCCC"/>
    <line x1="-6.35355" y1="328.932" x2="21.9307" y2="300.647" stroke="#CCCCCC"/>
    <line x1="-6.35355" y1="335.932" x2="21.9307" y2="307.647" stroke="#CCCCCC"/>
    <line x1="-6.35355" y1="342.932" x2="21.9307" y2="314.647" stroke="#CCCCCC"/>
    <line x1="-6.35355" y1="349.932" x2="21.9307" y2="321.647" stroke="#CCCCCC"/>
    <line x1="-6.35355" y1="356.932" x2="21.9307" y2="328.647" stroke="#CCCCCC"/>
    <line x1="-6.35355" y1="363.932" x2="21.9307" y2="335.647" stroke="#CCCCCC"/>
    </g>
    <rect x="0.5" y="320.5" width="15" height="15" rx="7.5" stroke="#CCCCCC"/>
    <path d="M25.6793 322.48H26.8413V332H25.6793V322.48ZM29.3921 325.056H30.4701V326.008C30.5635 325.868 30.6801 325.733 30.8201 325.602C30.9601 325.471 31.1188 325.355 31.2961 325.252C31.4828 325.149 31.6835 325.065 31.8981 325C32.1128 324.935 32.3415 324.902 32.5841 324.902C33.3961 324.902 34.0168 325.145 34.4461 325.63C34.8848 326.115 35.1041 326.797 35.1041 327.674V332H33.9841V327.786C33.9841 327.161 33.8348 326.689 33.5361 326.372C33.2468 326.055 32.8361 325.896 32.3041 325.896C31.8281 325.896 31.4361 326.022 31.1281 326.274C30.8201 326.526 30.6148 326.815 30.5121 327.142V332H29.3921V325.056ZM39.9135 332.056C39.1948 332.056 38.6535 331.879 38.2895 331.524C37.9255 331.16 37.7435 330.581 37.7435 329.788V326.008H36.4975V325.056H37.7575V323.25H38.8635V325.056H40.4175V326.008H38.8635V329.788C38.8635 330.264 38.9708 330.595 39.1855 330.782C39.4001 330.969 39.7455 331.062 40.2215 331.062H40.4175V332.014C40.2775 332.042 40.1095 332.056 39.9135 332.056ZM44.783 332.154C44.2883 332.154 43.845 332.07 43.453 331.902C43.061 331.734 42.725 331.491 42.445 331.174C42.1743 330.857 41.9643 330.479 41.815 330.04C41.6656 329.592 41.591 329.088 41.591 328.528C41.591 327.977 41.6656 327.478 41.815 327.03C41.9643 326.582 42.1743 326.204 42.445 325.896C42.725 325.579 43.0563 325.336 43.439 325.168C43.831 324.991 44.265 324.902 44.741 324.902C45.2076 324.902 45.6276 324.991 46.001 325.168C46.3743 325.336 46.6916 325.574 46.953 325.882C47.2143 326.181 47.415 326.54 47.555 326.96C47.695 327.38 47.765 327.837 47.765 328.332C47.765 328.528 47.751 328.71 47.723 328.878H42.767C42.8136 329.606 43.019 330.171 43.383 330.572C43.747 330.964 44.237 331.16 44.853 331.16C45.2823 331.16 45.665 331.071 46.001 330.894C46.337 330.717 46.6076 330.465 46.813 330.138L47.569 330.768C47.3076 331.16 46.9483 331.491 46.491 331.762C46.043 332.023 45.4736 332.154 44.783 332.154ZM44.741 325.896C44.209 325.896 43.7703 326.073 43.425 326.428C43.0796 326.773 42.865 327.273 42.781 327.926H46.589C46.5516 327.301 46.365 326.806 46.029 326.442C45.7023 326.078 45.273 325.896 44.741 325.896ZM49.5582 325.056H50.6362V326.302C50.8228 325.919 51.0888 325.593 51.4342 325.322C51.7795 325.042 52.1995 324.902 52.6942 324.902C52.7408 324.902 52.7875 324.902 52.8342 324.902C52.8902 324.902 52.9415 324.911 52.9882 324.93V326.064H52.6102C52.1435 326.064 51.7468 326.19 51.4202 326.442C51.0935 326.694 50.8462 327.086 50.6782 327.618V332H49.5582V325.056ZM57.0193 332.154C56.5246 332.154 56.0813 332.07 55.6893 331.902C55.2973 331.734 54.9613 331.491 54.6813 331.174C54.4106 330.857 54.2006 330.479 54.0513 330.04C53.9019 329.592 53.8273 329.088 53.8273 328.528C53.8273 327.977 53.9019 327.478 54.0513 327.03C54.2006 326.582 54.4106 326.204 54.6813 325.896C54.9613 325.579 55.2926 325.336 55.6753 325.168C56.0673 324.991 56.5013 324.902 56.9773 324.902C57.4439 324.902 57.8639 324.991 58.2373 325.168C58.6106 325.336 58.9279 325.574 59.1893 325.882C59.4506 326.181 59.6513 326.54 59.7913 326.96C59.9313 327.38 60.0013 327.837 60.0013 328.332C60.0013 328.528 59.9873 328.71 59.9593 328.878H55.0033C55.0499 329.606 55.2553 330.171 55.6193 330.572C55.9833 330.964 56.4733 331.16 57.0893 331.16C57.5186 331.16 57.9013 331.071 58.2373 330.894C58.5733 330.717 58.8439 330.465 59.0493 330.138L59.8053 330.768C59.5439 331.16 59.1846 331.491 58.7273 331.762C58.2793 332.023 57.7099 332.154 57.0193 332.154ZM56.9773 325.896C56.4453 325.896 56.0066 326.073 55.6613 326.428C55.3159 326.773 55.1013 327.273 55.0173 327.926H58.8253C58.7879 327.301 58.6013 326.806 58.2653 326.442C57.9386 326.078 57.5093 325.896 56.9773 325.896ZM65.3225 326.666C65.1172 326.377 64.8885 326.171 64.6365 326.05C64.3845 325.919 64.1092 325.854 63.8105 325.854C63.4652 325.854 63.2038 325.952 63.0265 326.148C62.8492 326.335 62.7605 326.554 62.7605 326.806C62.7605 327.31 63.0592 327.627 63.6565 327.758L64.2445 327.884C64.9072 328.024 65.4205 328.257 65.7845 328.584C66.1578 328.901 66.3445 329.368 66.3445 329.984C66.3445 330.264 66.2838 330.535 66.1625 330.796C66.0505 331.057 65.8825 331.291 65.6585 331.496C65.4345 331.692 65.1592 331.851 64.8325 331.972C64.5058 332.093 64.1372 332.154 63.7265 332.154C63.4185 332.154 63.1338 332.112 62.8725 332.028C62.6112 331.953 62.3685 331.851 62.1445 331.72C61.9298 331.589 61.7338 331.435 61.5565 331.258C61.3792 331.081 61.2298 330.899 61.1085 330.712L61.8365 330.04C62.0418 330.348 62.3032 330.619 62.6205 330.852C62.9378 331.085 63.3158 331.202 63.7545 331.202C64.2025 331.202 64.5572 331.099 64.8185 330.894C65.0798 330.689 65.2105 330.409 65.2105 330.054C65.2105 329.727 65.0938 329.48 64.8605 329.312C64.6272 329.144 64.3145 329.018 63.9225 328.934L63.3345 328.808C62.7838 328.687 62.3592 328.467 62.0605 328.15C61.7712 327.833 61.6265 327.422 61.6265 326.918C61.6265 326.657 61.6732 326.405 61.7665 326.162C61.8692 325.91 62.0138 325.695 62.2005 325.518C62.3872 325.331 62.6205 325.182 62.9005 325.07C63.1805 324.958 63.4978 324.902 63.8525 324.902C64.3378 324.902 64.7672 325.005 65.1405 325.21C65.5138 325.415 65.8172 325.691 66.0505 326.036L65.3225 326.666ZM70.6752 332.056C69.9565 332.056 69.4152 331.879 69.0512 331.524C68.6872 331.16 68.5052 330.581 68.5052 329.788V326.008H67.2592V325.056H68.5192V323.25H69.6252V325.056H71.1792V326.008H69.6252V329.788C69.6252 330.264 69.7325 330.595 69.9472 330.782C70.1619 330.969 70.5072 331.062 70.9832 331.062H71.1792V332.014C71.0392 332.042 70.8712 332.056 70.6752 332.056Z" fill="black"/>
    <defs>
    <clipPath id="clip0_1_2543">
    <rect width="24" height="24" fill="white" transform="translate(0 217)"/>
    </clipPath>
    <clipPath id="clip1_1_2543">
    <rect x="20.5" width="16" height="150" rx="8" fill="white"/>
    </clipPath>
    <clipPath id="clip2_1_2543">
    <rect x="68.5" width="16" height="150" rx="8" fill="white"/>
    </clipPath>
    <clipPath id="clip3_1_2543">
    <rect x="116.5" width="16" height="150" rx="8" fill="white"/>
    </clipPath>
    <clipPath id="clip4_1_2543">
    <rect x="164.5" width="16" height="150" rx="8" fill="white"/>
    </clipPath>
    <clipPath id="clip5_1_2543">
    <rect x="212.5" width="16" height="150" rx="8" fill="white"/>
    </clipPath>
    <clipPath id="clip6_1_2543">
    <rect x="260.5" width="16" height="150" rx="8" fill="white"/>
    </clipPath>
    <clipPath id="clip7_1_2543">
    <rect y="270" width="16" height="16" rx="8" fill="white"/>
    </clipPath>
    <clipPath id="clip8_1_2543">
    <rect y="295" width="16" height="16" rx="8" fill="white"/>
    </clipPath>
    <clipPath id="clip9_1_2543">
    <rect y="320" width="16" height="16" rx="8" fill="white"/>
    </clipPath>
    </defs>
    </svg>
