<svg width="295" height="334" viewBox="0 0 295 334" fill="none" xmlns="http://www.w3.org/2000/svg">
<g clip-path="url(#clip0_50_15585)">
<path d="M21.65 229.651L18.86 226.861C18.54 226.541 18 226.761 18 227.211V229.001H4C3.45 229.001 3 229.451 3 230.001C3 230.551 3.45 231.001 4 231.001H18V232.791C18 233.241 18.54 233.461 18.85 233.141L21.64 230.351C21.84 230.161 21.84 229.841 21.65 229.651Z" fill="#05141F"/>
</g>
<path d="M34.5895 234.195H33.3805V224.315H34.5895V234.195ZM37.9253 234.195H36.7813V227.097H37.8213L37.9123 228.527C38.3673 227.734 39.2513 226.902 40.4473 226.902C41.9423 226.902 42.7743 227.825 42.7743 229.528V234.195H41.6173V229.619C41.6173 228.501 41.2793 227.825 40.2653 227.825C39.2773 227.825 38.2113 228.865 37.9253 230.009V234.195ZM44.4807 233.623V232.401C45.0657 233.116 45.8457 233.467 46.7297 233.467C47.6787 233.467 48.2637 233.038 48.2637 232.375C48.2637 231.92 48.0817 231.582 47.2237 231.231L46.2617 230.841C45.1307 230.373 44.5457 229.762 44.5457 228.813C44.5457 227.812 45.3647 226.902 46.9507 226.902C47.8477 226.902 48.6537 227.292 49.1217 227.708V228.917C48.4717 228.176 47.6917 227.825 46.9507 227.825C46.0277 227.825 45.6767 228.319 45.6767 228.774C45.6767 229.229 46.0147 229.502 46.7817 229.814L47.7177 230.191C48.9007 230.672 49.4077 231.322 49.4077 232.297C49.4077 233.597 48.2897 234.39 46.7297 234.39C45.6767 234.39 44.9097 234.013 44.4807 233.623ZM51.7399 228.02H50.1799V227.097H51.7399V224.939H52.8839V227.097H54.4569V228.02H52.8839V234.195H51.7399V228.02ZM55.2157 232.323C55.2157 231.842 55.3457 231.439 55.6057 231.088C56.0477 230.49 56.8667 230.217 58.2057 229.97L59.9737 229.658C59.9477 228.436 59.3757 227.799 58.0887 227.799C57.1527 227.799 56.3207 228.28 55.7877 228.943V227.812C56.2817 227.331 57.1267 226.902 58.2057 226.902C59.9347 226.902 61.1177 227.747 61.1177 229.619V234.195H60.2207L60.0127 233.103C59.3757 233.896 58.4657 234.39 57.3867 234.39C56.0867 234.39 55.2157 233.649 55.2157 232.323ZM56.3727 232.271C56.3727 233.064 56.8797 233.454 57.6077 233.454C58.4657 233.454 59.4667 232.869 59.9867 231.894V230.529L58.8037 230.75C57.7117 230.945 56.9577 231.101 56.6067 231.53C56.4377 231.738 56.3727 231.985 56.3727 232.271ZM64.3062 234.195H63.1622V224.237H64.3062V234.195ZM67.5816 234.195H66.4376V224.237H67.5816V234.195ZM70.857 234.195H69.713V227.097H70.74L70.818 228.384C71.299 227.591 72.053 226.902 73.145 226.902C74.133 226.902 74.874 227.435 75.121 228.462C75.641 227.591 76.434 226.902 77.539 226.902C78.8 226.902 79.658 227.734 79.658 229.372V234.195H78.514V229.463C78.514 228.358 78.176 227.812 77.318 227.812C76.499 227.812 75.537 228.709 75.251 229.71V234.195H74.107V229.437C74.107 228.358 73.769 227.812 72.911 227.812C72.105 227.812 71.169 228.683 70.857 229.71V234.195ZM81.1393 230.763V230.477C81.1393 228.397 82.4263 226.902 84.3243 226.902C86.1963 226.902 87.3793 228.15 87.3793 230.555V231.023H82.2833C82.3613 232.427 83.1413 233.467 84.4673 233.48C85.5983 233.48 86.4043 233.012 86.9763 232.401V233.558C86.4173 234.039 85.6763 234.39 84.4673 234.39C82.3483 234.39 81.1393 232.895 81.1393 230.763ZM82.2963 230.126H86.2353C86.2093 228.527 85.4033 227.799 84.3113 227.812C83.2453 227.812 82.3743 228.709 82.2963 230.126ZM90.1665 234.195H89.0225V227.097H90.0625L90.1535 228.527C90.6085 227.734 91.4925 226.902 92.6885 226.902C94.1835 226.902 95.0155 227.825 95.0155 229.528V234.195H93.8585V229.619C93.8585 228.501 93.5205 227.825 92.5065 227.825C91.5185 227.825 90.4525 228.865 90.1665 230.009V234.195ZM97.6969 228.02H96.1369V227.097H97.6969V224.939H98.8409V227.097H100.414V228.02H98.8409V234.195H97.6969V228.02ZM106.467 237.055H105.323V227.097H106.363L106.454 228.241C106.922 227.474 107.78 226.902 108.755 226.902C110.523 226.902 111.862 228.358 111.862 230.633C111.862 232.934 110.523 234.39 108.755 234.39C107.806 234.39 106.974 233.857 106.467 233.129V237.055ZM106.467 229.515V231.777C106.805 232.739 107.663 233.467 108.56 233.467C109.743 233.467 110.679 232.401 110.679 230.633C110.679 228.878 109.769 227.812 108.573 227.812C107.663 227.812 106.805 228.566 106.467 229.515ZM113.106 230.763V230.477C113.106 228.397 114.393 226.902 116.291 226.902C118.163 226.902 119.346 228.15 119.346 230.555V231.023H114.25C114.328 232.427 115.108 233.467 116.434 233.48C117.565 233.48 118.371 233.012 118.943 232.401V233.558C118.384 234.039 117.643 234.39 116.434 234.39C114.315 234.39 113.106 232.895 113.106 230.763ZM114.263 230.126H118.202C118.176 228.527 117.37 227.799 116.278 227.812C115.212 227.812 114.341 228.709 114.263 230.126ZM122.133 234.195H120.989V227.097H122.029L122.107 228.332C122.497 227.474 123.212 226.902 124.226 226.902C124.473 226.902 124.772 226.941 124.889 226.993V228.007C124.707 227.942 124.473 227.903 124.161 227.903C123.277 227.903 122.445 228.54 122.133 229.58V234.195ZM127.3 225.927H126.156V224.484H127.3V225.927ZM127.3 234.195H126.156V227.097H127.3V234.195ZM128.925 230.763V230.542C128.925 228.371 130.303 226.902 132.253 226.902C134.216 226.902 135.581 228.371 135.581 230.542V230.763C135.581 232.934 134.216 234.39 132.253 234.39C130.303 234.39 128.925 232.934 128.925 230.763ZM130.121 230.542V230.763C130.121 232.401 130.927 233.48 132.253 233.48C133.592 233.48 134.398 232.401 134.398 230.763V230.542C134.398 228.904 133.592 227.812 132.253 227.812C130.927 227.812 130.121 228.904 130.121 230.542ZM136.834 230.633C136.834 228.358 138.173 226.902 139.954 226.902C140.89 226.902 141.722 227.422 142.229 228.15V224.237H143.373V234.195H142.333L142.242 233.09C141.761 233.831 140.916 234.39 139.954 234.39C138.173 234.39 136.834 232.934 136.834 230.633ZM138.03 230.633C138.03 232.414 138.94 233.48 140.136 233.48C141.033 233.48 141.878 232.739 142.229 231.803V229.489C141.878 228.54 141.033 227.812 140.149 227.812C138.966 227.812 138.03 228.878 138.03 230.633ZM149.083 229.58C149.083 226.681 150.058 224.796 151.007 223.6H152.021C151.15 224.77 150.344 226.941 150.344 229.58C150.344 232.219 151.15 234.39 152.021 235.56H151.007C150.058 234.364 149.083 232.479 149.083 229.58ZM154.798 234.195H153.654V227.097H154.681L154.759 228.384C155.24 227.591 155.994 226.902 157.086 226.902C158.074 226.902 158.815 227.435 159.062 228.462C159.582 227.591 160.375 226.902 161.48 226.902C162.741 226.902 163.599 227.734 163.599 229.372V234.195H162.455V229.463C162.455 228.358 162.117 227.812 161.259 227.812C160.44 227.812 159.478 228.709 159.192 229.71V234.195H158.048V229.437C158.048 228.358 157.71 227.812 156.852 227.812C156.046 227.812 155.11 228.683 154.798 229.71V234.195ZM165.094 230.763V230.542C165.094 228.371 166.472 226.902 168.422 226.902C170.385 226.902 171.75 228.371 171.75 230.542V230.763C171.75 232.934 170.385 234.39 168.422 234.39C166.472 234.39 165.094 232.934 165.094 230.763ZM166.29 230.542V230.763C166.29 232.401 167.096 233.48 168.422 233.48C169.761 233.48 170.567 232.401 170.567 230.763V230.542C170.567 228.904 169.761 227.812 168.422 227.812C167.096 227.812 166.29 228.904 166.29 230.542ZM174.527 234.195H173.383V227.097H174.423L174.514 228.527C174.969 227.734 175.853 226.902 177.049 226.902C178.544 226.902 179.376 227.825 179.376 229.528V234.195H178.219V229.619C178.219 228.501 177.881 227.825 176.867 227.825C175.879 227.825 174.813 228.865 174.527 230.009V234.195ZM182.057 228.02H180.497V227.097H182.057V224.939H183.201V227.097H184.774V228.02H183.201V234.195H182.057V228.02ZM187.184 234.195H186.04V224.237H187.184V228.501C187.639 227.721 188.523 226.902 189.693 226.902C191.201 226.902 192.02 227.825 192.02 229.528V234.195H190.876V229.619C190.876 228.501 190.538 227.825 189.524 227.825C188.536 227.825 187.483 228.839 187.184 229.97V234.195ZM193.739 233.623V232.401C194.324 233.116 195.104 233.467 195.988 233.467C196.937 233.467 197.522 233.038 197.522 232.375C197.522 231.92 197.34 231.582 196.482 231.231L195.52 230.841C194.389 230.373 193.804 229.762 193.804 228.813C193.804 227.812 194.623 226.902 196.209 226.902C197.106 226.902 197.912 227.292 198.38 227.708V228.917C197.73 228.176 196.95 227.825 196.209 227.825C195.286 227.825 194.935 228.319 194.935 228.774C194.935 229.229 195.273 229.502 196.04 229.814L196.976 230.191C198.159 230.672 198.666 231.322 198.666 232.297C198.666 233.597 197.548 234.39 195.988 234.39C194.935 234.39 194.168 234.013 193.739 233.623ZM200.83 235.56H199.803C200.674 234.39 201.48 232.219 201.48 229.58C201.48 226.941 200.674 224.77 199.803 223.6H200.83C201.779 224.796 202.754 226.681 202.754 229.58C202.754 232.479 201.779 234.364 200.83 235.56Z" fill="#05141F"/>
<mask id="path-3-inside-1_50_15585" fill="white">
<path d="M0 1H295V41H0V1Z"/>
</mask>
<path d="M0 1H295V41H0V1Z" fill="white"/>
<path d="M295 40H0V42H295V40Z" fill="#E5E5E5" mask="url(#path-3-inside-1_50_15585)"/>
<mask id="path-5-inside-2_50_15585" fill="white">
<path d="M0 41H295V81H0V41Z"/>
</mask>
<path d="M0 41H295V81H0V41Z" fill="white"/>
<path d="M295 80H0V82H295V80Z" fill="#E5E5E5" mask="url(#path-5-inside-2_50_15585)"/>
<mask id="path-7-inside-3_50_15585" fill="white">
<path d="M0 81H295V121H0V81Z"/>
</mask>
<path d="M0 81H295V121H0V81Z" fill="white"/>
<path d="M295 120H0V122H295V120Z" fill="#E5E5E5" mask="url(#path-7-inside-3_50_15585)"/>
<mask id="path-9-inside-4_50_15585" fill="white">
<path d="M0 121H295V161H0V121Z"/>
</mask>
<path d="M0 121H295V161H0V121Z" fill="white"/>
<path d="M295 160H0V162H295V160Z" fill="#37434C" mask="url(#path-9-inside-4_50_15585)"/>
<g clip-path="url(#clip1_50_15585)">
<rect x="20" y="80" width="16" height="71" rx="8" fill="white"/>
<line x1="13.6464" y1="81.9316" x2="41.9307" y2="53.6473" stroke="#CCCCCC"/>
<line x1="13.6464" y1="88.9316" x2="41.9307" y2="60.6473" stroke="#CCCCCC"/>
<line x1="13.6464" y1="95.9316" x2="41.9307" y2="67.6473" stroke="#CCCCCC"/>
<line x1="13.6464" y1="102.932" x2="41.9307" y2="74.6473" stroke="#CCCCCC"/>
<line x1="13.6464" y1="109.932" x2="41.9307" y2="81.6473" stroke="#CCCCCC"/>
<line x1="13.6464" y1="116.932" x2="41.9307" y2="88.6473" stroke="#CCCCCC"/>
<line x1="13.6464" y1="123.932" x2="41.9307" y2="95.6473" stroke="#CCCCCC"/>
<line x1="13.6464" y1="130.932" x2="41.9307" y2="102.647" stroke="#CCCCCC"/>
<line x1="13.6464" y1="137.932" x2="41.9307" y2="109.647" stroke="#CCCCCC"/>
<line x1="13.6464" y1="144.932" x2="41.9307" y2="116.647" stroke="#CCCCCC"/>
<line x1="13.6464" y1="151.932" x2="41.9307" y2="123.647" stroke="#CCCCCC"/>
<line x1="13.6464" y1="158.932" x2="41.9307" y2="130.647" stroke="#CCCCCC"/>
<line x1="13.6464" y1="165.932" x2="41.9307" y2="137.647" stroke="#CCCCCC"/>
<line x1="13.6464" y1="172.932" x2="41.9307" y2="144.647" stroke="#CCCCCC"/>
</g>
<rect x="20.5" y="80.5" width="15" height="70" rx="7.5" stroke="#CCCCCC"/>
<g clip-path="url(#clip2_50_15585)">
<rect x="68" y="80" width="16" height="71" rx="8" fill="white"/>
<line x1="61.6464" y1="81.9316" x2="89.9307" y2="53.6473" stroke="#CCCCCC"/>
<line x1="61.6464" y1="88.9316" x2="89.9307" y2="60.6473" stroke="#CCCCCC"/>
<line x1="61.6464" y1="95.9316" x2="89.9307" y2="67.6473" stroke="#CCCCCC"/>
<line x1="61.6464" y1="102.932" x2="89.9307" y2="74.6473" stroke="#CCCCCC"/>
<line x1="61.6464" y1="109.932" x2="89.9307" y2="81.6473" stroke="#CCCCCC"/>
<line x1="61.6464" y1="116.932" x2="89.9307" y2="88.6473" stroke="#CCCCCC"/>
<line x1="61.6464" y1="123.932" x2="89.9307" y2="95.6473" stroke="#CCCCCC"/>
<line x1="61.6464" y1="130.932" x2="89.9307" y2="102.647" stroke="#CCCCCC"/>
<line x1="61.6464" y1="137.932" x2="89.9307" y2="109.647" stroke="#CCCCCC"/>
<line x1="61.6464" y1="144.932" x2="89.9307" y2="116.647" stroke="#CCCCCC"/>
<line x1="61.6464" y1="151.932" x2="89.9307" y2="123.647" stroke="#CCCCCC"/>
<line x1="61.6464" y1="158.932" x2="89.9307" y2="130.647" stroke="#CCCCCC"/>
<line x1="61.6464" y1="165.932" x2="89.9307" y2="137.647" stroke="#CCCCCC"/>
<line x1="61.6464" y1="172.932" x2="89.9307" y2="144.647" stroke="#CCCCCC"/>
</g>
<rect x="68.5" y="80.5" width="15" height="70" rx="7.5" stroke="#CCCCCC"/>
<g clip-path="url(#clip3_50_15585)">
<rect x="116" width="16" height="151" rx="8" fill="white"/>
<line x1="109.646" y1="20.789" x2="137.931" y2="-7.49525" stroke="#CCCCCC"/>
<line x1="109.646" y1="27.9316" x2="137.931" y2="-0.352668" stroke="#CCCCCC"/>
<line x1="109.646" y1="34.9316" x2="137.931" y2="6.64733" stroke="#CCCCCC"/>
<line x1="109.646" y1="41.9316" x2="137.931" y2="13.6473" stroke="#CCCCCC"/>
<line x1="109.646" y1="48.9316" x2="137.931" y2="20.6473" stroke="#CCCCCC"/>
<line x1="109.646" y1="55.9316" x2="137.931" y2="27.6473" stroke="#CCCCCC"/>
<line x1="109.646" y1="62.9316" x2="137.931" y2="34.6473" stroke="#CCCCCC"/>
<line x1="109.646" y1="69.9316" x2="137.931" y2="41.6473" stroke="#CCCCCC"/>
<line x1="109.646" y1="76.9316" x2="137.931" y2="48.6473" stroke="#CCCCCC"/>
<line x1="109.646" y1="83.9316" x2="137.931" y2="55.6473" stroke="#CCCCCC"/>
<line x1="109.646" y1="90.9316" x2="137.931" y2="62.6473" stroke="#CCCCCC"/>
<line x1="109.646" y1="97.9316" x2="137.931" y2="69.6473" stroke="#CCCCCC"/>
<line x1="109.646" y1="104.932" x2="137.931" y2="76.6473" stroke="#CCCCCC"/>
<line x1="109.646" y1="111.932" x2="137.931" y2="83.6473" stroke="#CCCCCC"/>
<line x1="109.646" y1="118.932" x2="137.931" y2="90.6473" stroke="#CCCCCC"/>
<line x1="109.646" y1="125.932" x2="137.931" y2="97.6473" stroke="#CCCCCC"/>
<line x1="109.646" y1="132.932" x2="137.931" y2="104.647" stroke="#CCCCCC"/>
<line x1="109.646" y1="139.932" x2="137.931" y2="111.647" stroke="#CCCCCC"/>
<line x1="109.646" y1="146.932" x2="137.931" y2="118.647" stroke="#CCCCCC"/>
<line x1="109.646" y1="153.932" x2="137.931" y2="125.647" stroke="#CCCCCC"/>
<line x1="109.646" y1="160.932" x2="137.931" y2="132.647" stroke="#CCCCCC"/>
</g>
<rect x="116.5" y="0.5" width="15" height="150" rx="7.5" stroke="#CCCCCC"/>
<rect x="116" y="81" width="16" height="70" rx="8" fill="#5D7D2B"/>
<g clip-path="url(#clip4_50_15585)">
<rect x="164" y="1" width="16" height="150" rx="8" fill="white"/>
<line x1="157.646" y1="20.789" x2="185.931" y2="-7.49525" stroke="#CCCCCC"/>
<line x1="157.646" y1="27.9316" x2="185.931" y2="-0.352668" stroke="#CCCCCC"/>
<line x1="157.646" y1="34.9316" x2="185.931" y2="6.64733" stroke="#CCCCCC"/>
<line x1="157.646" y1="41.9316" x2="185.931" y2="13.6473" stroke="#CCCCCC"/>
<line x1="157.646" y1="48.9316" x2="185.931" y2="20.6473" stroke="#CCCCCC"/>
<line x1="157.646" y1="55.9316" x2="185.931" y2="27.6473" stroke="#CCCCCC"/>
<line x1="157.646" y1="62.9316" x2="185.931" y2="34.6473" stroke="#CCCCCC"/>
<line x1="157.646" y1="69.9316" x2="185.931" y2="41.6473" stroke="#CCCCCC"/>
<line x1="157.646" y1="76.9316" x2="185.931" y2="48.6473" stroke="#CCCCCC"/>
<line x1="157.646" y1="83.9316" x2="185.931" y2="55.6473" stroke="#CCCCCC"/>
<line x1="157.646" y1="90.9316" x2="185.931" y2="62.6473" stroke="#CCCCCC"/>
<line x1="157.646" y1="97.9316" x2="185.931" y2="69.6473" stroke="#CCCCCC"/>
<line x1="157.646" y1="104.932" x2="185.931" y2="76.6473" stroke="#CCCCCC"/>
<line x1="157.646" y1="111.932" x2="185.931" y2="83.6473" stroke="#CCCCCC"/>
<line x1="157.646" y1="118.932" x2="185.931" y2="90.6473" stroke="#CCCCCC"/>
<line x1="157.646" y1="125.932" x2="185.931" y2="97.6473" stroke="#CCCCCC"/>
<line x1="157.646" y1="132.932" x2="185.931" y2="104.647" stroke="#CCCCCC"/>
<line x1="157.646" y1="139.932" x2="185.931" y2="111.647" stroke="#CCCCCC"/>
<line x1="157.646" y1="146.932" x2="185.931" y2="118.647" stroke="#CCCCCC"/>
<line x1="157.646" y1="153.932" x2="185.931" y2="125.647" stroke="#CCCCCC"/>
<line x1="157.646" y1="160.932" x2="185.931" y2="132.647" stroke="#CCCCCC"/>
</g>
<rect x="164.5" y="1.5" width="15" height="149" rx="7.5" stroke="#CCCCCC"/>
<rect x="164" y="61" width="16" height="90" rx="8" fill="#5D7D2B"/>
<g clip-path="url(#clip5_50_15585)">
<rect x="212" y="1" width="16" height="150" rx="8" fill="white"/>
<line x1="205.646" y1="20.789" x2="233.931" y2="-7.49525" stroke="#CCCCCC"/>
<line x1="205.646" y1="27.9316" x2="233.931" y2="-0.352668" stroke="#CCCCCC"/>
<line x1="205.646" y1="34.9316" x2="233.931" y2="6.64733" stroke="#CCCCCC"/>
<line x1="205.646" y1="41.9316" x2="233.931" y2="13.6473" stroke="#CCCCCC"/>
<line x1="205.646" y1="48.9316" x2="233.931" y2="20.6473" stroke="#CCCCCC"/>
<line x1="205.646" y1="55.9316" x2="233.931" y2="27.6473" stroke="#CCCCCC"/>
<line x1="205.646" y1="62.9316" x2="233.931" y2="34.6473" stroke="#CCCCCC"/>
<line x1="205.646" y1="69.9316" x2="233.931" y2="41.6473" stroke="#CCCCCC"/>
<line x1="205.646" y1="76.9316" x2="233.931" y2="48.6473" stroke="#CCCCCC"/>
<line x1="205.646" y1="83.9316" x2="233.931" y2="55.6473" stroke="#CCCCCC"/>
<line x1="205.646" y1="90.9316" x2="233.931" y2="62.6473" stroke="#CCCCCC"/>
<line x1="205.646" y1="97.9316" x2="233.931" y2="69.6473" stroke="#CCCCCC"/>
<line x1="205.646" y1="104.932" x2="233.931" y2="76.6473" stroke="#CCCCCC"/>
<line x1="205.646" y1="111.932" x2="233.931" y2="83.6473" stroke="#CCCCCC"/>
<line x1="205.646" y1="118.932" x2="233.931" y2="90.6473" stroke="#CCCCCC"/>
<line x1="205.646" y1="125.932" x2="233.931" y2="97.6473" stroke="#CCCCCC"/>
<line x1="205.646" y1="132.932" x2="233.931" y2="104.647" stroke="#CCCCCC"/>
<line x1="205.646" y1="139.932" x2="233.931" y2="111.647" stroke="#CCCCCC"/>
<line x1="205.646" y1="146.932" x2="233.931" y2="118.647" stroke="#CCCCCC"/>
<line x1="205.646" y1="153.932" x2="233.931" y2="125.647" stroke="#CCCCCC"/>
<line x1="205.646" y1="160.932" x2="233.931" y2="132.647" stroke="#CCCCCC"/>
</g>
<rect x="212.5" y="1.5" width="15" height="149" rx="7.5" stroke="#CCCCCC"/>
<rect x="212" y="41" width="16" height="110" rx="8" fill="#5D7D2B"/>
<g clip-path="url(#clip6_50_15585)">
<rect x="260" y="1" width="16" height="150" rx="8" fill="white"/>
<line x1="253.646" y1="20.789" x2="281.931" y2="-7.49525" stroke="#CCCCCC"/>
<line x1="253.646" y1="27.9316" x2="281.931" y2="-0.352668" stroke="#CCCCCC"/>
<line x1="253.646" y1="34.9316" x2="281.931" y2="6.64733" stroke="#CCCCCC"/>
<line x1="253.646" y1="41.9316" x2="281.931" y2="13.6473" stroke="#CCCCCC"/>
<line x1="253.646" y1="48.9316" x2="281.931" y2="20.6473" stroke="#CCCCCC"/>
<line x1="253.646" y1="55.9316" x2="281.931" y2="27.6473" stroke="#CCCCCC"/>
<line x1="253.646" y1="62.9316" x2="281.931" y2="34.6473" stroke="#CCCCCC"/>
<line x1="253.646" y1="69.9316" x2="281.931" y2="41.6473" stroke="#CCCCCC"/>
<line x1="253.646" y1="76.9316" x2="281.931" y2="48.6473" stroke="#CCCCCC"/>
<line x1="253.646" y1="83.9316" x2="281.931" y2="55.6473" stroke="#CCCCCC"/>
<line x1="253.646" y1="90.9316" x2="281.931" y2="62.6473" stroke="#CCCCCC"/>
<line x1="253.646" y1="97.9316" x2="281.931" y2="69.6473" stroke="#CCCCCC"/>
<line x1="253.646" y1="104.932" x2="281.931" y2="76.6473" stroke="#CCCCCC"/>
<line x1="253.646" y1="111.932" x2="281.931" y2="83.6473" stroke="#CCCCCC"/>
<line x1="253.646" y1="118.932" x2="281.931" y2="90.6473" stroke="#CCCCCC"/>
<line x1="253.646" y1="125.932" x2="281.931" y2="97.6473" stroke="#CCCCCC"/>
<line x1="253.646" y1="132.932" x2="281.931" y2="104.647" stroke="#CCCCCC"/>
<line x1="253.646" y1="139.932" x2="281.931" y2="111.647" stroke="#CCCCCC"/>
<line x1="253.646" y1="146.932" x2="281.931" y2="118.647" stroke="#CCCCCC"/>
<line x1="253.646" y1="153.932" x2="281.931" y2="125.647" stroke="#CCCCCC"/>
<line x1="253.646" y1="160.932" x2="281.931" y2="132.647" stroke="#CCCCCC"/>
</g>
<rect x="260.5" y="1.5" width="15" height="149" rx="7.5" stroke="#CCCCCC"/>
<rect x="260" y="21" width="16" height="130" rx="8" fill="#5D7D2B"/>
<path d="M25.5325 186.175L25.5195 184.901L27.7815 183.445H28.8995V193.195H27.6905V184.758L25.5325 186.175Z" fill="#05141F"/>
<path d="M69.6351 186.175L69.6221 184.901L71.8841 183.445H73.0021V193.195H71.7931V184.758L69.6351 186.175ZM82.968 193.195H76.845V192.363L80.225 188.697C81.07 187.787 81.473 187.176 81.473 186.175C81.473 185.148 80.758 184.303 79.653 184.303C78.561 184.303 77.768 184.94 77.235 185.811V184.342C77.664 183.874 78.535 183.315 79.718 183.315C81.616 183.315 82.708 184.589 82.708 186.162C82.708 187.644 81.941 188.528 80.953 189.581L78.509 192.207H82.968V193.195Z" fill="#05141F"/>
<path d="M260.829 188.814V188.619C260.829 185.252 262.389 183.315 264.547 183.315C265.548 183.315 266.302 183.757 266.718 184.147V185.564C266.224 184.797 265.509 184.29 264.586 184.29C263.286 184.29 262.207 185.447 262.09 188.138C262.649 187.371 263.585 187.007 264.417 187.007C266.029 187.007 267.381 188.151 267.381 190.14C267.381 192.077 265.977 193.325 264.235 193.325C262.506 193.325 260.829 192.22 260.829 188.814ZM262.077 189.308C262.181 191.245 263 192.35 264.235 192.35C265.353 192.35 266.133 191.427 266.133 190.166C266.133 188.931 265.366 187.982 264.183 187.982C263.351 187.982 262.571 188.437 262.077 189.308ZM268.416 188.463V188.203C268.416 185.382 269.534 183.315 271.913 183.315C274.292 183.315 275.397 185.369 275.397 188.203V188.463C275.397 191.297 274.292 193.325 271.913 193.325C269.534 193.325 268.416 191.297 268.416 188.463ZM269.664 188.203V188.463C269.664 190.764 270.366 192.35 271.913 192.35C273.447 192.35 274.149 190.764 274.149 188.463V188.203C274.149 185.889 273.46 184.29 271.913 184.29C270.353 184.29 269.664 185.889 269.664 188.203Z" fill="#05141F"/>
<g clip-path="url(#clip7_50_15585)">
<rect y="270" width="16" height="16" rx="8" fill="white"/>
<line x1="-6.35355" y1="271.932" x2="21.9307" y2="243.647" stroke="#CCCCCC"/>
<line x1="-6.35355" y1="278.932" x2="21.9307" y2="250.647" stroke="#CCCCCC"/>
<line x1="-6.35355" y1="285.932" x2="21.9307" y2="257.647" stroke="#CCCCCC"/>
<line x1="-6.35355" y1="292.932" x2="21.9307" y2="264.647" stroke="#CCCCCC"/>
<line x1="-6.35355" y1="299.932" x2="21.9307" y2="271.647" stroke="#CCCCCC"/>
<line x1="-6.35355" y1="306.932" x2="21.9307" y2="278.647" stroke="#CCCCCC"/>
<line x1="-6.35355" y1="313.932" x2="21.9307" y2="285.647" stroke="#CCCCCC"/>
</g>
<rect x="0.5" y="270.5" width="15" height="15" rx="7.5" stroke="#CCCCCC"/>
<path d="M0 278H16C16 282.418 12.4183 286 8 286C3.58172 286 0 282.418 0 278Z" fill="#5D7D2B"/>
<path d="M26.6607 282.195H25.4777V272.315H26.9857L30.2617 280.063L33.5507 272.315H34.9547V282.195H33.7717V274.395L30.4567 282.195H29.9627L26.6607 274.395V282.195ZM36.8139 278.763V278.542C36.8139 276.371 38.1919 274.902 40.1419 274.902C42.1049 274.902 43.4699 276.371 43.4699 278.542V278.763C43.4699 280.934 42.1049 282.39 40.1419 282.39C38.1919 282.39 36.8139 280.934 36.8139 278.763ZM38.0099 278.542V278.763C38.0099 280.401 38.8159 281.48 40.1419 281.48C41.4809 281.48 42.2869 280.401 42.2869 278.763V278.542C42.2869 276.904 41.4809 275.812 40.1419 275.812C38.8159 275.812 38.0099 276.904 38.0099 278.542ZM46.2471 282.195H45.1031V275.097H46.1431L46.2341 276.527C46.6891 275.734 47.5731 274.902 48.7691 274.902C50.2641 274.902 51.0961 275.825 51.0961 277.528V282.195H49.9391V277.619C49.9391 276.501 49.6011 275.825 48.5871 275.825C47.5991 275.825 46.5331 276.865 46.2471 278.009V282.195ZM53.7775 276.02H52.2175V275.097H53.7775V272.939H54.9215V275.097H56.4945V276.02H54.9215V282.195H53.7775V276.02ZM58.9043 282.195H57.7603V272.237H58.9043V276.501C59.3593 275.721 60.2433 274.902 61.4133 274.902C62.9213 274.902 63.7403 275.825 63.7403 277.528V282.195H62.5963V277.619C62.5963 276.501 62.2583 275.825 61.2443 275.825C60.2563 275.825 59.2033 276.839 58.9043 277.97V282.195ZM66.8897 282.195H65.7457V272.237H66.8897V282.195ZM70.9971 282.169L68.1891 275.097H69.4371L71.6081 280.778L73.7791 275.097H74.9621L70.9971 285.055H69.7881L70.9971 282.169ZM81.045 285.055H79.901V275.097H80.941L81.032 276.241C81.5 275.474 82.358 274.902 83.333 274.902C85.101 274.902 86.44 276.358 86.44 278.633C86.44 280.934 85.101 282.39 83.333 282.39C82.384 282.39 81.552 281.857 81.045 281.129V285.055ZM81.045 277.515V279.777C81.383 280.739 82.241 281.467 83.138 281.467C84.321 281.467 85.257 280.401 85.257 278.633C85.257 276.878 84.347 275.812 83.151 275.812C82.241 275.812 81.383 276.566 81.045 277.515ZM87.5697 280.323C87.5697 279.842 87.6997 279.439 87.9597 279.088C88.4017 278.49 89.2207 278.217 90.5597 277.97L92.3277 277.658C92.3017 276.436 91.7297 275.799 90.4427 275.799C89.5067 275.799 88.6747 276.28 88.1417 276.943V275.812C88.6357 275.331 89.4807 274.902 90.5597 274.902C92.2887 274.902 93.4717 275.747 93.4717 277.619V282.195H92.5747L92.3667 281.103C91.7297 281.896 90.8197 282.39 89.7407 282.39C88.4407 282.39 87.5697 281.649 87.5697 280.323ZM88.7267 280.271C88.7267 281.064 89.2337 281.454 89.9617 281.454C90.8197 281.454 91.8207 280.869 92.3407 279.894V278.529L91.1577 278.75C90.0657 278.945 89.3117 279.101 88.9607 279.53C88.7917 279.738 88.7267 279.985 88.7267 280.271ZM97.4922 282.169L94.6842 275.097H95.9322L98.1032 280.778L100.274 275.097H101.457L97.4922 285.055H96.2832L97.4922 282.169ZM103.897 282.195H102.753V275.097H103.78L103.858 276.384C104.339 275.591 105.093 274.902 106.185 274.902C107.173 274.902 107.914 275.435 108.161 276.462C108.681 275.591 109.474 274.902 110.579 274.902C111.84 274.902 112.698 275.734 112.698 277.372V282.195H111.554V277.463C111.554 276.358 111.216 275.812 110.358 275.812C109.539 275.812 108.577 276.709 108.291 277.71V282.195H107.147V277.437C107.147 276.358 106.809 275.812 105.951 275.812C105.145 275.812 104.209 276.683 103.897 277.71V282.195ZM114.179 278.763V278.477C114.179 276.397 115.466 274.902 117.364 274.902C119.236 274.902 120.419 276.15 120.419 278.555V279.023H115.323C115.401 280.427 116.181 281.467 117.507 281.48C118.638 281.48 119.444 281.012 120.016 280.401V281.558C119.457 282.039 118.716 282.39 117.507 282.39C115.388 282.39 114.179 280.895 114.179 278.763ZM115.336 278.126H119.275C119.249 276.527 118.443 275.799 117.351 275.812C116.285 275.812 115.414 276.709 115.336 278.126ZM123.206 282.195H122.062V275.097H123.102L123.193 276.527C123.648 275.734 124.532 274.902 125.728 274.902C127.223 274.902 128.055 275.825 128.055 277.528V282.195H126.898V277.619C126.898 276.501 126.56 275.825 125.546 275.825C124.558 275.825 123.492 276.865 123.206 278.009V282.195ZM130.736 276.02H129.176V275.097H130.736V272.939H131.88V275.097H133.453V276.02H131.88V282.195H130.736V276.02Z" fill="#05141F"/>
<g clip-path="url(#clip8_50_15585)">
<rect y="294" width="16" height="16" rx="8" fill="white"/>
<line x1="-6.35355" y1="295.932" x2="21.9307" y2="267.647" stroke="#E5E5E5"/>
<line x1="-6.35355" y1="302.932" x2="21.9307" y2="274.647" stroke="#E5E5E5"/>
<line x1="-6.35355" y1="309.932" x2="21.9307" y2="281.647" stroke="#E5E5E5"/>
<line x1="-6.35355" y1="316.932" x2="21.9307" y2="288.647" stroke="#E5E5E5"/>
<line x1="-6.35355" y1="323.932" x2="21.9307" y2="295.647" stroke="#E5E5E5"/>
<line x1="-6.35355" y1="330.932" x2="21.9307" y2="302.647" stroke="#E5E5E5"/>
<line x1="-6.35355" y1="337.932" x2="21.9307" y2="309.647" stroke="#E5E5E5"/>
</g>
<rect x="0.5" y="294.5" width="15" height="15" rx="7.5" stroke="#E5E5E5"/>
<path d="M0 302C0 297.582 3.58172 294 8 294C12.4183 294 16 297.582 16 302C16 306.418 12.4183 310 8 310C3.58172 310 0 306.418 0 302Z" fill="#5D7D2B"/>
<path d="M26.3879 306.195H25.1789V296.315H28.7409C30.7169 296.315 32.0299 297.472 32.0299 299.11V299.318C32.0299 300.956 30.7169 302.113 28.7409 302.113H26.3879V306.195ZM26.3879 297.29V301.125H28.6109C29.9759 301.125 30.7819 300.397 30.7819 299.305V299.11C30.7819 298.031 29.9759 297.29 28.6109 297.29H26.3879ZM34.8272 306.195H33.6832V299.097H34.7232L34.8012 300.332C35.1912 299.474 35.9062 298.902 36.9202 298.902C37.1672 298.902 37.4662 298.941 37.5832 298.993V300.007C37.4012 299.942 37.1672 299.903 36.8552 299.903C35.9712 299.903 35.1392 300.54 34.8272 301.58V306.195ZM39.9942 297.927H38.8502V296.484H39.9942V297.927ZM39.9942 306.195H38.8502V299.097H39.9942V306.195ZM43.2696 306.195H42.1256V299.097H43.1656L43.2566 300.527C43.7116 299.734 44.5956 298.902 45.7916 298.902C47.2866 298.902 48.1186 299.825 48.1186 301.528V306.195H46.9616V301.619C46.9616 300.501 46.6236 299.825 45.6096 299.825C44.6216 299.825 43.5556 300.865 43.2696 302.009V306.195ZM49.6039 302.75V302.503C49.6039 300.423 51.0339 298.902 53.0879 298.902C53.8939 298.902 54.6609 299.227 55.1679 299.695V300.904C54.6089 300.189 53.8809 299.825 53.0749 299.825C51.8009 299.825 50.7999 300.904 50.7999 302.503V302.737C50.7999 304.349 51.8269 305.454 53.0749 305.454C53.8809 305.454 54.5829 305.103 55.1679 304.401V305.597C54.6739 306.052 53.8939 306.39 53.0619 306.39C51.0469 306.39 49.6039 304.843 49.6039 302.75ZM57.9961 297.927H56.8521V296.484H57.9961V297.927ZM57.9961 306.195H56.8521V299.097H57.9961V306.195ZM61.2715 309.055H60.1275V299.097H61.1675L61.2585 300.241C61.7265 299.474 62.5845 298.902 63.5595 298.902C65.3275 298.902 66.6665 300.358 66.6665 302.633C66.6665 304.934 65.3275 306.39 63.5595 306.39C62.6105 306.39 61.7785 305.857 61.2715 305.129V309.055ZM61.2715 301.515V303.777C61.6095 304.739 62.4675 305.467 63.3645 305.467C64.5475 305.467 65.4835 304.401 65.4835 302.633C65.4835 300.878 64.5735 299.812 63.3775 299.812C62.4675 299.812 61.6095 300.566 61.2715 301.515ZM67.7963 304.323C67.7963 303.842 67.9263 303.439 68.1863 303.088C68.6283 302.49 69.4473 302.217 70.7863 301.97L72.5543 301.658C72.5283 300.436 71.9563 299.799 70.6693 299.799C69.7333 299.799 68.9013 300.28 68.3683 300.943V299.812C68.8623 299.331 69.7073 298.902 70.7863 298.902C72.5153 298.902 73.6983 299.747 73.6983 301.619V306.195H72.8013L72.5933 305.103C71.9563 305.896 71.0463 306.39 69.9673 306.39C68.6673 306.39 67.7963 305.649 67.7963 304.323ZM68.9533 304.271C68.9533 305.064 69.4603 305.454 70.1883 305.454C71.0463 305.454 72.0473 304.869 72.5673 303.894V302.529L71.3843 302.75C70.2923 302.945 69.5383 303.101 69.1873 303.53C69.0183 303.738 68.9533 303.985 68.9533 304.271ZM76.8868 306.195H75.7428V296.237H76.8868V306.195Z" fill="#05141F"/>
<g clip-path="url(#clip9_50_15585)">
<rect y="318" width="16" height="16" rx="8" fill="white"/>
<line x1="-6.35355" y1="319.932" x2="21.9307" y2="291.647" stroke="#CCCCCC"/>
<line x1="-6.35355" y1="326.932" x2="21.9307" y2="298.647" stroke="#CCCCCC"/>
<line x1="-6.35355" y1="333.932" x2="21.9307" y2="305.647" stroke="#CCCCCC"/>
<line x1="-6.35355" y1="340.932" x2="21.9307" y2="312.647" stroke="#CCCCCC"/>
<line x1="-6.35355" y1="347.932" x2="21.9307" y2="319.647" stroke="#CCCCCC"/>
<line x1="-6.35355" y1="354.932" x2="21.9307" y2="326.647" stroke="#CCCCCC"/>
<line x1="-6.35355" y1="361.932" x2="21.9307" y2="333.647" stroke="#CCCCCC"/>
</g>
<rect x="0.5" y="318.5" width="15" height="15" rx="7.5" stroke="#CCCCCC"/>
<path d="M26.3537 330.195H25.1447V320.315H26.3537V330.195ZM29.6895 330.195H28.5455V323.097H29.5855L29.6765 324.527C30.1315 323.734 31.0155 322.902 32.2115 322.902C33.7065 322.902 34.5385 323.825 34.5385 325.528V330.195H33.3815V325.619C33.3815 324.501 33.0435 323.825 32.0295 323.825C31.0415 323.825 29.9755 324.865 29.6895 326.009V330.195ZM37.2198 324.02H35.6598V323.097H37.2198V320.939H38.3638V323.097H39.9368V324.02H38.3638V330.195H37.2198V324.02ZM40.6827 326.763V326.477C40.6827 324.397 41.9697 322.902 43.8677 322.902C45.7397 322.902 46.9227 324.15 46.9227 326.555V327.023H41.8267C41.9047 328.427 42.6847 329.467 44.0107 329.48C45.1417 329.48 45.9477 329.012 46.5197 328.401V329.558C45.9607 330.039 45.2197 330.39 44.0107 330.39C41.8917 330.39 40.6827 328.895 40.6827 326.763ZM41.8397 326.126H45.7787C45.7527 324.527 44.9467 323.799 43.8547 323.812C42.7887 323.812 41.9177 324.709 41.8397 326.126ZM49.71 330.195H48.566V323.097H49.606L49.684 324.332C50.074 323.474 50.789 322.902 51.803 322.902C52.05 322.902 52.349 322.941 52.466 322.993V324.007C52.284 323.942 52.05 323.903 51.738 323.903C50.854 323.903 50.022 324.54 49.71 325.58V330.195ZM53.213 326.763V326.477C53.213 324.397 54.5 322.902 56.398 322.902C58.27 322.902 59.453 324.15 59.453 326.555V327.023H54.357C54.435 328.427 55.215 329.467 56.541 329.48C57.672 329.48 58.478 329.012 59.05 328.401V329.558C58.491 330.039 57.75 330.39 56.541 330.39C54.422 330.39 53.213 328.895 53.213 326.763ZM54.37 326.126H58.309C58.283 324.527 57.477 323.799 56.385 323.812C55.319 323.812 54.448 324.709 54.37 326.126ZM60.8103 329.623V328.401C61.3953 329.116 62.1753 329.467 63.0593 329.467C64.0083 329.467 64.5933 329.038 64.5933 328.375C64.5933 327.92 64.4113 327.582 63.5533 327.231L62.5913 326.841C61.4603 326.373 60.8753 325.762 60.8753 324.813C60.8753 323.812 61.6943 322.902 63.2803 322.902C64.1773 322.902 64.9833 323.292 65.4513 323.708V324.917C64.8013 324.176 64.0213 323.825 63.2803 323.825C62.3573 323.825 62.0063 324.319 62.0063 324.774C62.0063 325.229 62.3443 325.502 63.1113 325.814L64.0473 326.191C65.2303 326.672 65.7373 327.322 65.7373 328.297C65.7373 329.597 64.6193 330.39 63.0593 330.39C62.0063 330.39 61.2393 330.013 60.8103 329.623ZM68.0695 324.02H66.5095V323.097H68.0695V320.939H69.2135V323.097H70.7865V324.02H69.2135V330.195H68.0695V324.02Z" fill="#05141F"/>
<defs>
<clipPath id="clip0_50_15585">
<rect width="24" height="24" fill="white" transform="translate(0 218)"/>
</clipPath>
<clipPath id="clip1_50_15585">
<rect x="20" y="80" width="16" height="71" rx="8" fill="white"/>
</clipPath>
<clipPath id="clip2_50_15585">
<rect x="68" y="80" width="16" height="71" rx="8" fill="white"/>
</clipPath>
<clipPath id="clip3_50_15585">
<rect x="116" width="16" height="151" rx="8" fill="white"/>
</clipPath>
<clipPath id="clip4_50_15585">
<rect x="164" y="1" width="16" height="150" rx="8" fill="white"/>
</clipPath>
<clipPath id="clip5_50_15585">
<rect x="212" y="1" width="16" height="150" rx="8" fill="white"/>
</clipPath>
<clipPath id="clip6_50_15585">
<rect x="260" y="1" width="16" height="150" rx="8" fill="white"/>
</clipPath>
<clipPath id="clip7_50_15585">
<rect y="270" width="16" height="16" rx="8" fill="white"/>
</clipPath>
<clipPath id="clip8_50_15585">
<rect y="294" width="16" height="16" rx="8" fill="white"/>
</clipPath>
<clipPath id="clip9_50_15585">
<rect y="318" width="16" height="16" rx="8" fill="white"/>
</clipPath>
</defs>
</svg>
