<svg width="40" height="40" viewBox="0 0 40 40" fill="none" xmlns="http://www.w3.org/2000/svg">
<path d="M36.8636 7H25V40H39.5V9.64C39.5 8.93983 39.2222 8.26833 38.7278 7.77324C38.2334 7.27814 37.5628 7 36.8636 7ZM30.2727 29.44H27.6364V26.8H30.2727V29.44ZM30.2727 22.84H27.6364V20.2H30.2727V22.84ZM30.2727 16.24H27.6364V13.6H30.2727V16.24ZM35.5455 29.44H32.9091V26.8H35.5455V29.44ZM35.5455 22.84H32.9091V20.2H35.5455V22.84ZM35.5455 16.24H32.9091V13.6H35.5455V16.24Z" fill="#999999"/>
<path d="M19.2175 0.5H3.7825C3.04453 0.5 2.3368 0.794086 1.81498 1.31756C1.29316 1.84104 1 2.55103 1 3.29133V40H7.5625V36.05H15.4375V40H22V3.29133C22 2.55103 21.7068 1.84104 21.185 1.31756C20.6632 0.794086 19.9555 0.5 19.2175 0.5ZM7.5625 29.4667H4.9375V26.8333H7.5625V29.4667ZM7.5625 22.8833H4.9375V20.25H7.5625V22.8833ZM7.5625 16.3H4.9375V13.6667H7.5625V16.3ZM7.5625 9.71667H4.9375V7.08333H7.5625V9.71667ZM12.8125 29.4667H10.1875V26.8333H12.8125V29.4667ZM12.8125 22.8833H10.1875V20.25H12.8125V22.8833ZM12.8125 16.3H10.1875V13.6667H12.8125V16.3ZM12.8125 9.71667H10.1875V7.08333H12.8125V9.71667ZM18.0625 29.4667H15.4375V26.8333H18.0625V29.4667ZM18.0625 22.8833H15.4375V20.25H18.0625V22.8833ZM18.0625 16.3H15.4375V13.6667H18.0625V16.3ZM18.0625 9.71667H15.4375V7.08333H18.0625V9.71667Z" fill="#999999"/>
</svg>
