<svg width="41" height="40" viewBox="0 0 41 40" fill="none" xmlns="http://www.w3.org/2000/svg">
<g clip-path="url(#clip0_30_98825)">
<path d="M40.9895 19.7446C40.9895 20.9947 39.9478 21.9739 38.7671 21.9739H36.5447L36.5933 33.0999C36.6072 35.5654 34.614 37.5655 32.1485 37.5655H9.89659C7.44499 37.5655 5.45177 35.5723 5.45177 33.1207V21.9739H3.22241C1.9723 21.9739 1 21.0016 1 19.7446C1 19.1195 1.20835 18.5639 1.6945 18.0778L19.5016 2.5556C19.9877 2.06945 20.5433 2 21.0295 2C21.5156 2 22.0712 2.1389 22.4879 2.48615L40.2256 18.0778C40.7812 18.5639 41.059 19.1195 40.9895 19.7446ZM25.4465 17.5569C25.4465 16.378 24.9782 15.2475 24.1447 14.4139C23.3111 13.5803 22.1805 13.1121 21.0017 13.1121C19.8229 13.1121 18.6923 13.5803 17.8587 14.4139C17.0252 15.2475 16.5569 16.378 16.5569 17.5569C16.5569 18.7357 17.0252 19.8663 17.8587 20.6998C18.6923 21.5334 19.8229 22.0017 21.0017 22.0017C22.1805 22.0017 23.3111 21.5334 24.1447 20.6998C24.9782 19.8663 25.4465 18.7357 25.4465 17.5569ZM18.7793 24.2241C15.7096 24.2241 13.2233 26.7104 13.2233 29.7801C13.2233 30.3913 13.7233 30.8913 14.3345 30.8913H27.6689C28.2801 30.8913 28.7801 30.3913 28.7801 29.7801C28.7801 26.7104 26.2938 24.2241 23.2241 24.2241H18.7793Z" fill="#999999"/>
</g>
<defs>
<clipPath id="clip0_30_98825">
<rect width="40" height="40" fill="white" transform="translate(0.75)"/>
</clipPath>
</defs>
</svg>
