<svg width="101" height="100" viewBox="0 0 101 100" fill="none" xmlns="http://www.w3.org/2000/svg">
<g id="fluent:calendar-error-20-filled" clip-path="url(#clip0_1773_34833)">
<path id="Subtract" fill-rule="evenodd" clip-rule="evenodd" d="M88.5 15.625V19H0.5V15.625V8C0.5 3.58172 4.08172 0 8.5 0H16.125H72.875H80.5C84.9183 0 88.5 3.58172 88.5 8V15.625ZM0.5 25H88.5V41.25C82.0299 37.9448 74.6789 36.7746 67.5023 37.9074C60.3257 39.0402 53.1926 42.4177 48.0552 47.5552C42.9177 52.6926 39.5402 59.3257 38.4074 66.5023C37.2746 73.6789 38.4448 81.5299 41.75 88H27.5H16.125H8.5C4.08172 88 0.5 84.4183 0.5 80V72.375V69V25ZM13.5 13C15.1569 13 16.5 11.6569 16.5 10C16.5 8.34315 15.1569 7 13.5 7C11.8431 7 10.5 8.34315 10.5 10C10.5 11.6569 11.8431 13 13.5 13ZM26.5 10C26.5 11.6569 25.1569 13 23.5 13C21.8431 13 20.5 11.6569 20.5 10C20.5 8.34315 21.8431 7 23.5 7C25.1569 7 26.5 8.34315 26.5 10ZM33.5 13C35.1569 13 36.5 11.6569 36.5 10C36.5 8.34315 35.1569 7 33.5 7C31.8431 7 30.5 8.34315 30.5 10C30.5 11.6569 31.8431 13 33.5 13Z" fill="#E5E5E5"/>
<path id="Vector" d="M100.5 71.875C100.5 79.3342 97.5368 86.4879 92.2624 91.7624C86.9879 97.0368 79.8342 100 72.375 100C64.9158 100 57.7621 97.0368 52.4876 91.7624C47.2132 86.4879 44.25 79.3342 44.25 71.875C44.25 64.4158 47.2132 57.2621 52.4876 51.9876C57.7621 46.7132 64.9158 43.75 72.375 43.75C79.8342 43.75 86.9879 46.7132 92.2624 51.9876C97.5368 57.2621 100.5 64.4158 100.5 71.875ZM72.375 56.25C71.5462 56.25 70.7513 56.5792 70.1653 57.1653C69.5792 57.7513 69.25 58.5462 69.25 59.375V71.875C69.25 72.7038 69.5792 73.4987 70.1653 74.0847C70.7513 74.6708 71.5462 75 72.375 75C73.2038 75 73.9987 74.6708 74.5847 74.0847C75.1708 73.4987 75.5 72.7038 75.5 71.875V59.375C75.5 58.5462 75.1708 57.7513 74.5847 57.1653C73.9987 56.5792 73.2038 56.25 72.375 56.25ZM72.375 88.2812C73.411 88.2812 74.4046 87.8697 75.1371 87.1371C75.8697 86.4046 76.2812 85.411 76.2812 84.375C76.2812 83.339 75.8697 82.3454 75.1371 81.6129C74.4046 80.8803 73.411 80.4688 72.375 80.4688C71.339 80.4688 70.3454 80.8803 69.6129 81.6129C68.8803 82.3454 68.4688 83.339 68.4688 84.375C68.4688 85.411 68.8803 86.4046 69.6129 87.1371C70.3454 87.8697 71.339 88.2812 72.375 88.2812Z" fill="#5D7D2B"/>
</g>
<defs>
<clipPath id="clip0_1773_34833">
<rect width="100" height="100" fill="white" transform="translate(0.5)"/>
</clipPath>
</defs>
</svg>
