<svg width="101" height="100" viewBox="0 0 101 100" fill="none" xmlns="http://www.w3.org/2000/svg">
<g id="mingcute:bank-card-fill" clip-path="url(#clip0_1773_33331)">
<path id="Vector" d="M68.3571 31.6667H77.4048C78.6045 31.6667 79.7552 32.1433 80.6036 32.9917C81.452 33.84 81.9286 34.9907 81.9286 36.1905V90.4762C81.9286 91.676 81.452 92.8266 80.6036 93.675C79.7552 94.5234 78.6045 95 77.4048 95H5.02381C3.82402 95 2.67337 94.5234 1.82499 93.675C0.976614 92.8266 0.5 91.676 0.5 90.4762V36.1905C0.5 34.9907 0.976614 33.84 1.82499 32.9917C2.67337 32.1433 3.82402 31.6667 5.02381 31.6667H14.0714V27.1429C14.0714 19.9441 16.9311 13.0402 22.0214 7.94996C27.1117 2.85969 34.0156 0 41.2143 0C48.413 0 55.3169 2.85969 60.4072 7.94996C65.4975 13.0402 68.3571 19.9441 68.3571 27.1429V31.6667ZM59.3095 31.6667V27.1429C59.3095 22.3437 57.4031 17.7411 54.0096 14.3476C50.616 10.9541 46.0134 9.04762 41.2143 9.04762C36.4151 9.04762 31.8125 10.9541 28.419 14.3476C25.0255 17.7411 23.119 22.3437 23.119 27.1429V31.6667H59.3095ZM36.6905 58.8095V67.8571H45.7381V58.8095H36.6905ZM18.5952 58.8095V67.8571H27.6429V58.8095H18.5952ZM54.7857 58.8095V67.8571H63.8333V58.8095H54.7857Z" fill="#E5E5E5"/>
<g id="Group 2658">
<path id="Subtract" d="M80.2794 101.084L80.2807 101.082L102.212 76.4523C102.984 75.6181 103.585 74.6389 103.977 73.5688C104.376 72.4796 104.55 71.3208 104.487 70.1614C104.425 69.002 104.126 67.8691 103.612 66.8299C103.098 65.7908 102.38 64.8682 101.504 64.1141C100.628 63.3601 99.6114 62.7893 98.515 62.432C97.4188 62.0747 96.2626 61.9372 95.1138 62.0264C93.965 62.1156 92.8435 62.43 91.8151 62.9535C90.8038 63.4683 89.901 64.176 89.1604 65.0393L72.5269 83.7223L66.4024 79.2084L64.2099 82.1833L66.4024 79.2084C65.4875 78.5341 64.4501 78.0461 63.3503 77.7692C62.2505 77.4923 61.107 77.4312 59.9842 77.5888C58.8614 77.7464 57.7782 78.1202 56.7965 78.6914C55.8148 79.2626 54.9524 80.021 54.2614 80.9264C53.5703 81.832 53.0646 82.8663 52.7766 83.9711C52.4885 85.076 52.4246 86.2269 52.5889 87.3573C52.7532 88.4875 53.1421 89.5718 53.7304 90.5483C54.3187 91.5246 55.0941 92.3729 56.0091 93.0473L68.5579 102.296L68.559 102.297C70.3139 103.589 72.4893 104.176 74.6513 103.954C76.8138 103.732 78.8263 102.714 80.2794 101.084Z" fill="white" stroke="white" stroke-width="8"/>
<path id="Subtract_2" d="M100.221 72.1919C100.008 72.7725 99.6795 73.3055 99.2537 73.7592L77.2933 98.4225C76.5118 99.2993 75.4222 99.8537 74.2426 99.9749C73.0629 100.096 71.8802 99.7751 70.9311 99.076L58.3823 89.8273C57.8879 89.463 57.4714 89.0065 57.1566 88.4839C56.8417 87.9614 56.6347 87.383 56.5473 86.7818C56.4599 86.1806 56.4939 85.5684 56.6472 84.9802C56.8006 84.3919 57.0704 83.8391 57.4412 83.3532C57.8119 82.8674 58.2765 82.4581 58.8082 82.1487C59.34 81.8393 59.9285 81.6358 60.5403 81.55C61.1521 81.4641 61.775 81.4975 62.3737 81.6482C62.9723 81.7989 63.5349 82.064 64.0293 82.4284L73.0895 89.1059L92.1761 67.6674C92.5778 67.1929 93.072 66.8021 93.6297 66.5182C94.1874 66.2343 94.7974 66.063 95.4235 66.0144C96.0497 65.9657 96.6794 66.0408 97.2756 66.2351C97.8717 66.4294 98.4223 66.739 98.8948 67.1457C99.3673 67.5524 99.7521 68.0479 100.027 68.6031C100.301 69.1582 100.46 69.7617 100.493 70.3781C100.527 70.9945 100.434 71.6112 100.221 72.1919Z" fill="#5D7D2B"/>
</g>
</g>
<defs>
<clipPath id="clip0_1773_33331">
<rect width="100" height="100" fill="white" transform="translate(0.5)"/>
</clipPath>
</defs>
</svg>
