<svg width="101" height="100" viewBox="0 0 101 100" fill="none" xmlns="http://www.w3.org/2000/svg">
<g clip-path="url(#clip0_1773_33726)">
<path d="M52.8738 27.775L89.4977 41.1051C91.926 41.9889 93.9469 43.6827 95.1158 45.8138C96.2847 47.9449 96.5058 50.3388 95.7306 52.4689L89.8843 68.5314C89.109 70.6614 87.4008 72.3531 85.1356 73.2343C82.8703 74.1155 80.2334 74.114 77.8051 73.2302L73.2271 71.5639L67.3808 87.6265C66.9932 88.6915 66.1391 89.5374 65.0065 89.978C63.8739 90.4186 62.5554 90.4178 61.3413 89.9759L52.1853 86.6434C50.9711 86.2015 49.9607 85.3546 49.3763 84.289C48.7918 83.2235 48.6813 82.0265 49.0689 80.9615L54.9152 64.8989L41.1812 59.9002L12.445 67.6315L35.8302 3.38122L52.8738 27.775ZM3.53661 28.0082C1.03732 34.875 3.16675 42.6988 9.13529 48.2364L20.8279 16.1113C12.7274 16.5737 6.02128 21.1816 3.53661 28.0082Z" fill="#E5E5E5"/>
<g clip-path="url(#clip1_1773_33726)">
<mask id="path-2-outside-1_1773_33726" maskUnits="userSpaceOnUse" x="49.8359" y="5.33398" width="48" height="48" fill="black">
<rect fill="white" x="49.8359" y="5.33398" width="48" height="48"/>
<path d="M59.6601 15.1581C59.921 14.8969 60.2308 14.6896 60.5719 14.5482C60.9129 14.4068 61.2785 14.334 61.6478 14.334C62.017 14.334 62.3826 14.4068 62.7236 14.5482C63.0647 14.6896 63.3746 14.8969 63.6354 15.1581L73.8364 25.3553L84.0373 15.1581C84.2983 14.8971 84.6082 14.6901 84.9492 14.5488C85.2903 14.4075 85.6558 14.3348 86.0249 14.3348C86.3941 14.3348 86.7596 14.4075 87.1007 14.5488C87.4417 14.6901 87.7516 14.8971 88.0126 15.1581C88.2736 15.4192 88.4807 15.729 88.622 16.0701C88.7632 16.4111 88.8359 16.7767 88.8359 17.1458C88.8359 17.515 88.7632 17.8805 88.622 18.2215C88.4807 18.5626 88.2736 18.8725 88.0126 19.1335L77.8155 29.3344L88.0126 39.5353C88.5398 40.0625 88.8359 40.7775 88.8359 41.523C88.8359 42.2685 88.5398 42.9835 88.0126 43.5107C87.4854 44.0378 86.7705 44.334 86.0249 44.334C85.2794 44.334 84.5644 44.0378 84.0373 43.5107L73.8364 33.3135L63.6354 43.5107C63.1083 44.0378 62.3933 44.334 61.6478 44.334C60.9022 44.334 60.1873 44.0378 59.6601 43.5107C59.1329 42.9835 58.8368 42.2685 58.8368 41.523C58.8368 40.7775 59.1329 40.0625 59.6601 39.5353L69.8572 29.3344L59.6601 19.1335C59.3988 18.8726 59.1916 18.5628 59.0501 18.2217C58.9087 17.8806 58.8359 17.515 58.8359 17.1458C58.8359 16.7766 58.9087 16.411 59.0501 16.0699C59.1916 15.7289 59.3988 15.419 59.6601 15.1581Z"/>
</mask>
<path d="M59.6601 15.1581L66.0195 21.5266L66.0286 21.5176L59.6601 15.1581ZM61.6478 14.334V23.334V14.334ZM63.6354 15.1581L57.2669 21.5176L57.2727 21.5233L63.6354 15.1581ZM73.8364 25.3553L67.4736 31.7204C70.988 35.2336 76.6847 35.2336 80.1991 31.7204L73.8364 25.3553ZM84.0373 15.1581L90.4001 21.5233L90.4012 21.5221L84.0373 15.1581ZM86.0249 14.3348V5.33481V14.3348ZM88.0126 19.1335L81.6487 12.7695L81.6475 12.7707L88.0126 19.1335ZM77.8155 29.3344L71.4503 22.9716C67.9372 26.4861 67.9372 32.1827 71.4503 35.6972L77.8155 29.3344ZM88.0126 39.5353L81.6475 45.8981L81.6487 45.8993L88.0126 39.5353ZM84.0373 43.5107L90.4012 37.1467L90.4001 37.1455L84.0373 43.5107ZM73.8364 33.3135L80.1991 26.9484C76.6847 23.4352 70.988 23.4352 67.4736 26.9484L73.8364 33.3135ZM63.6354 43.5107L57.2727 37.1455L57.2715 37.1467L63.6354 43.5107ZM59.6601 39.5353L66.0241 45.8993L66.0252 45.8981L59.6601 39.5353ZM69.8572 29.3344L76.2224 35.6972C79.7355 32.1827 79.7355 26.4861 76.2224 22.9716L69.8572 29.3344ZM59.6601 19.1335L66.0252 12.7707L66.0195 12.765L59.6601 19.1335ZM66.0286 21.5176C65.4536 22.0934 64.7707 22.5502 64.019 22.8619L57.1248 6.2345C55.6909 6.82901 54.3884 7.70036 53.2916 8.79871L66.0286 21.5176ZM64.019 22.8619C63.2673 23.1736 62.4615 23.334 61.6478 23.334V5.33398C60.0956 5.33398 58.5586 5.64 57.1248 6.2345L64.019 22.8619ZM61.6478 23.334C60.834 23.334 60.0282 23.1736 59.2765 22.8619L66.1708 6.2345C64.7369 5.64 63.2 5.33398 61.6478 5.33398V23.334ZM59.2765 22.8619C58.5248 22.5502 57.842 22.0934 57.267 21.5176L70.0039 8.79871C68.9071 7.70036 67.6046 6.82901 66.1708 6.2345L59.2765 22.8619ZM57.2727 21.5233L67.4736 31.7204L80.1991 18.9902L69.9982 8.79301L57.2727 21.5233ZM80.1991 31.7204L90.4001 21.5233L77.6745 8.79301L67.4736 18.9902L80.1991 31.7204ZM90.4012 21.5221C89.8265 22.0968 89.1443 22.5527 88.3934 22.8637L81.5051 6.23387C80.0721 6.82743 78.77 7.69743 77.6733 8.79418L90.4012 21.5221ZM88.3934 22.8637C87.6425 23.1747 86.8377 23.3348 86.0249 23.3348V5.33481C84.4739 5.33481 82.938 5.64031 81.5051 6.23387L88.3934 22.8637ZM86.0249 23.3348C85.2122 23.3348 84.4074 23.1747 83.6565 22.8637L90.5448 6.23387C89.1118 5.64031 87.576 5.33481 86.0249 5.33481V23.3348ZM83.6565 22.8637C82.9056 22.5527 82.2233 22.0968 81.6487 21.5221L94.3766 8.79418C93.2798 7.69743 91.9778 6.82743 90.5448 6.23387L83.6565 22.8637ZM81.6487 21.5221C81.074 20.9474 80.6181 20.2651 80.307 19.5142L96.9369 12.6259C96.3433 11.193 95.4733 9.89092 94.3766 8.79418L81.6487 21.5221ZM80.307 19.5142C79.996 18.7634 79.8359 17.9586 79.8359 17.1458L97.8359 17.1458C97.8359 15.5947 97.5304 14.0589 96.9369 12.6259L80.307 19.5142ZM79.8359 17.1458C79.8359 16.333 79.996 15.5282 80.307 14.7774L96.9369 21.6657C97.5304 20.2327 97.8359 18.6969 97.8359 17.1458L79.8359 17.1458ZM80.307 14.7774C80.6181 14.0265 81.074 13.3442 81.6487 12.7695L94.3766 25.4975C95.4733 24.4007 96.3433 23.0987 96.9369 21.6657L80.307 14.7774ZM81.6475 12.7707L71.4503 22.9716L84.1806 35.6972L94.3777 25.4963L81.6475 12.7707ZM71.4503 35.6972L81.6475 45.8981L94.3777 33.1725L84.1806 22.9716L71.4503 35.6972ZM81.6487 45.8993C80.488 44.7386 79.8359 43.1644 79.8359 41.523H97.8359C97.8359 38.3905 96.5915 35.3863 94.3766 33.1713L81.6487 45.8993ZM79.8359 41.523C79.8359 39.8815 80.488 38.3073 81.6487 37.1467L94.3766 49.8746C96.5915 47.6596 97.8359 44.6555 97.8359 41.523H79.8359ZM81.6487 37.1467C82.8093 35.9861 84.3835 35.334 86.0249 35.334V53.334C89.1574 53.334 92.1616 52.0896 94.3766 49.8746L81.6487 37.1467ZM86.0249 35.334C87.6664 35.334 89.2406 35.9861 90.4012 37.1467L77.6733 49.8746C79.8883 52.0896 82.8924 53.334 86.0249 53.334V35.334ZM90.4001 37.1455L80.1991 26.9484L67.4736 39.6786L77.6745 49.8758L90.4001 37.1455ZM67.4736 26.9484L57.2727 37.1455L69.9982 49.8758L80.1991 39.6786L67.4736 26.9484ZM57.2715 37.1467C58.4321 35.9861 60.0063 35.334 61.6478 35.334V53.334C64.7803 53.334 67.7844 52.0896 69.9994 49.8746L57.2715 37.1467ZM61.6478 35.334C63.2892 35.334 64.8634 35.9861 66.0241 37.1467L53.2961 49.8746C55.5111 52.0896 58.5153 53.334 61.6478 53.334V35.334ZM66.0241 37.1467C67.1847 38.3074 67.8368 39.8816 67.8368 41.523H49.8368C49.8368 44.6555 51.0811 47.6596 53.2961 49.8746L66.0241 37.1467ZM67.8368 41.523C67.8368 43.1644 67.1847 44.7386 66.0241 45.8993L53.2961 33.1713C51.0811 35.3863 49.8368 38.3905 49.8368 41.523H67.8368ZM66.0252 45.8981L76.2224 35.6972L63.4921 22.9716L53.295 33.1725L66.0252 45.8981ZM76.2224 22.9716L66.0252 12.7707L53.295 25.4963L63.4921 35.6972L76.2224 22.9716ZM66.0195 12.765C66.5953 13.34 67.0522 14.0229 67.3638 14.7746L50.7365 21.6688C51.331 23.1026 52.2023 24.4052 53.3007 25.502L66.0195 12.765ZM67.3638 14.7746C67.6755 15.5263 67.8359 16.332 67.8359 17.1458H49.8359C49.8359 18.698 50.1419 20.235 50.7365 21.6688L67.3638 14.7746ZM67.8359 17.1458C67.8359 17.9596 67.6755 18.7654 67.3638 19.517L50.7365 12.6228C50.1419 14.0566 49.8359 15.5936 49.8359 17.1458H67.8359ZM67.3638 19.517C67.0522 20.2687 66.5953 20.9516 66.0195 21.5266L53.3007 8.78965C52.2023 9.88643 51.331 11.189 50.7365 12.6228L67.3638 19.517Z" fill="white" mask="url(#path-2-outside-1_1773_33726)"/>
<path d="M60.1889 13.6264C59.7266 13.8181 59.3066 14.0989 58.953 14.453C58.5989 14.8066 58.3181 15.2266 58.1264 15.6889C57.9346 16.1514 57.8359 16.6471 57.8359 17.1478C57.8359 17.6484 57.9346 18.1442 58.1264 18.6067C58.3181 19.069 58.599 19.489 58.9531 19.8427C58.9533 19.8428 58.9534 19.8429 58.9535 19.8431L68.4433 29.3364L58.953 38.8302C58.2383 39.5449 57.8368 40.5142 57.8368 41.5249C57.8368 42.5357 58.2383 43.505 58.953 44.2197L59.6543 43.5184L58.953 44.2197C59.6677 44.9344 60.637 45.3359 61.6478 45.3359C62.6584 45.3359 63.6277 44.9345 64.3424 44.2199C64.3425 44.2198 64.3425 44.2198 64.3426 44.2197L73.8364 34.7294L83.3302 44.2197C84.0449 44.9344 85.0142 45.3359 86.0249 45.3359C87.0357 45.3359 88.005 44.9344 88.7197 44.2197C89.4344 43.505 89.8359 42.5357 89.8359 41.5249C89.8359 40.5142 89.4344 39.5449 88.7197 38.8302L79.2294 29.3364L88.7197 19.8425C88.7198 19.8425 88.7198 19.8425 88.7199 19.8424C89.0737 19.4886 89.3543 19.0685 89.5458 18.6062C89.7374 18.1438 89.8359 17.6482 89.8359 17.1478C89.8359 16.6473 89.7374 16.1517 89.5458 15.6894C89.3543 15.227 89.0736 14.8069 88.7197 14.453C88.3658 14.0991 87.9457 13.8184 87.4833 13.6269C87.021 13.4353 86.5254 13.3368 86.0249 13.3368C85.5245 13.3368 85.0289 13.4353 84.5665 13.6269C84.1042 13.8184 83.684 14.0991 83.3302 14.453L73.8364 23.9433L64.3431 14.4535C64.3429 14.4534 64.3428 14.4533 64.3427 14.4531C63.989 14.099 63.569 13.8181 63.1067 13.6264C62.6442 13.4346 62.1484 13.3359 61.6478 13.3359C61.1471 13.3359 60.6514 13.4346 60.1889 13.6264Z" fill="#5D7D2B" stroke="#5D7D2B" stroke-width="2" stroke-linejoin="round"/>
</g>
</g>
<defs>
<clipPath id="clip0_1773_33726">
<rect width="100" height="100" fill="white" transform="translate(0.5)"/>
</clipPath>
<clipPath id="clip1_1773_33726">
<rect width="50" height="50" fill="white" transform="translate(50.5 6)"/>
</clipPath>
</defs>
</svg>
