<svg width="101" height="100" viewBox="0 0 101 100" fill="none" xmlns="http://www.w3.org/2000/svg">
<g clip-path="url(#clip0_1773_33227)">
<g clip-path="url(#clip1_1773_33227)">
<path d="M43.875 46C56.3027 46 66.375 35.9277 66.375 23.5C66.375 11.0723 56.3027 1 43.875 1C31.4473 1 21.375 11.0723 21.375 23.5C21.375 35.9277 31.4473 46 43.875 46ZM59.625 51.625H56.6895C52.7871 53.418 48.4453 54.4375 43.875 54.4375C39.3047 54.4375 34.9805 53.418 31.0605 51.625H28.125C15.082 51.625 4.5 62.207 4.5 75.25V82.5625C4.5 87.2207 8.2793 91 12.9375 91H74.8125C79.4707 91 83.25 87.2207 83.25 82.5625V75.25C83.25 62.207 72.668 51.625 59.625 51.625Z" fill="#E5E5E5"/>
</g>
<path d="M77.2794 93.0839L77.2807 93.0825L99.2116 68.4523C99.9835 67.6181 100.585 66.6389 100.977 65.5688C101.376 64.4796 101.55 63.3208 101.487 62.1614C101.425 61.002 101.126 59.8691 100.612 58.8299C100.098 57.7908 99.3804 56.8682 98.5042 56.1141C97.6282 55.3601 96.6114 54.7893 95.515 54.432C94.4188 54.0747 93.2626 53.9372 92.1138 54.0264C90.965 54.1156 89.8435 54.43 88.8151 54.9535C87.8038 55.4683 86.901 56.176 86.1604 57.0393L69.5269 75.7223L63.4024 71.2084L61.2099 74.1833L63.4024 71.2084C62.4875 70.5341 61.4501 70.0461 60.3503 69.7692C59.2505 69.4923 58.107 69.4312 56.9842 69.5888C55.8614 69.7464 54.7782 70.1202 53.7965 70.6914C52.8148 71.2626 51.9524 72.021 51.2614 72.9264C50.5703 73.832 50.0646 74.8663 49.7766 75.9711C49.4885 77.076 49.4246 78.2269 49.5889 79.3573C49.7532 80.4875 50.1421 81.5718 50.7304 82.5483C51.3187 83.5246 52.0941 84.3729 53.0091 85.0473L65.5579 94.296L65.559 94.2968C67.3139 95.5893 69.4893 96.1761 71.6513 95.954C73.8138 95.7318 75.8263 94.7142 77.2794 93.0839Z" fill="white" stroke="white" stroke-width="8"/>
<path d="M97.2214 64.1919C97.0085 64.7725 96.6795 65.3055 96.2537 65.7592L74.2933 90.4225C73.5118 91.2993 72.4222 91.8537 71.2426 91.9749C70.0629 92.0961 68.8802 91.7751 67.9311 91.076L55.3823 81.8273C54.8879 81.463 54.4714 81.0065 54.1566 80.4839C53.8417 79.9614 53.6347 79.383 53.5473 78.7818C53.4599 78.1806 53.4939 77.5684 53.6472 76.9802C53.8006 76.3919 54.0704 75.8391 54.4412 75.3532C54.8119 74.8674 55.2765 74.4581 55.8082 74.1487C56.34 73.8393 56.9285 73.6358 57.5403 73.55C58.1521 73.4641 58.775 73.4975 59.3737 73.6482C59.9723 73.7989 60.5349 74.064 61.0293 74.4284L70.0895 81.1059L89.1761 59.6674C89.5778 59.1929 90.072 58.8021 90.6297 58.5182C91.1874 58.2343 91.7974 58.063 92.4235 58.0144C93.0497 57.9657 93.6794 58.0408 94.2756 58.2351C94.8717 58.4294 95.4223 58.739 95.8948 59.1457C96.3673 59.5524 96.7521 60.0479 97.0267 60.6031C97.3012 61.1582 97.4599 61.7617 97.4933 62.3781C97.5268 62.9945 97.4343 63.6112 97.2214 64.1919Z" fill="#5D7D2B"/>
</g>
<defs>
<clipPath id="clip0_1773_33227">
<rect width="100" height="100" fill="white" transform="translate(0.5)"/>
</clipPath>
<clipPath id="clip1_1773_33227">
<rect width="78.75" height="90" fill="white" transform="translate(4.5 1)"/>
</clipPath>
</defs>
</svg>
