<svg width="101" height="100" viewBox="0 0 101 100" fill="none" xmlns="http://www.w3.org/2000/svg">
<g id="fluent:mail-32-filled" clip-path="url(#clip0_30_150306)">
<path id="Vector" d="M90.918 23.8905V62.6184C90.918 69.4868 85.3522 75.0526 78.4838 75.0526H13.3522C10.0544 75.0526 6.89173 73.7426 4.55986 71.4107C2.228 69.0789 0.917969 65.9162 0.917969 62.6184V23.8905L44.4922 47.859C45.3803 48.3469 46.458 48.3469 47.3438 47.859L90.918 23.8905ZM78.4838 4C81.7296 4.0003 84.8467 5.26984 87.1692 7.53742C89.4916 9.805 90.8353 10.8908 90.9132 14.1358L45.918 38.8858L0.922705 14.1334L0.927443 13.9203C1.06008 10.714 2.42714 9.68322 4.74275 7.46163C7.05836 5.24004 10.1432 3.9997 13.3522 4H78.4838Z" fill="#E5E5E5"/>
<g id="Group 2657">
<path id="Subtract" d="M77.2794 89.0839L77.2807 89.0825L99.2116 64.4523C99.9835 63.6181 100.585 62.6389 100.977 61.5688C101.376 60.4796 101.55 59.3208 101.487 58.1614C101.425 57.002 101.126 55.8691 100.612 54.8299C100.098 53.7908 99.3804 52.8682 98.5042 52.1141C97.6282 51.3601 96.6114 50.7893 95.515 50.432C94.4188 50.0747 93.2626 49.9372 92.1138 50.0264C90.965 50.1156 89.8435 50.43 88.8151 50.9535C87.8038 51.4683 86.901 52.176 86.1604 53.0393L69.5269 71.7223L63.4024 67.2084L61.2099 70.1833L63.4024 67.2084C62.4875 66.5341 61.4501 66.0461 60.3503 65.7692C59.2505 65.4923 58.107 65.4312 56.9842 65.5888C55.8614 65.7464 54.7782 66.1202 53.7965 66.6914C52.8148 67.2626 51.9524 68.021 51.2614 68.9264C50.5703 69.832 50.0646 70.8663 49.7766 71.9711C49.4885 73.076 49.4246 74.2269 49.5889 75.3573C49.7532 76.4875 50.1421 77.5718 50.7304 78.5483C51.3187 79.5246 52.0941 80.3729 53.0091 81.0473L65.5579 90.296L65.559 90.2968C67.3139 91.5893 69.4893 92.1761 71.6513 91.954C73.8138 91.7318 75.8263 90.7142 77.2794 89.0839Z" fill="white" stroke="white" stroke-width="8"/>
<path id="Subtract_2" d="M97.2214 60.1919C97.0085 60.7725 96.6795 61.3055 96.2537 61.7592L74.2933 86.4225C73.5118 87.2993 72.4222 87.8537 71.2426 87.9749C70.0629 88.0961 68.8802 87.7751 67.9311 87.076L55.3823 77.8273C54.8879 77.463 54.4714 77.0065 54.1566 76.4839C53.8417 75.9614 53.6347 75.383 53.5473 74.7818C53.4599 74.1806 53.4939 73.5684 53.6472 72.9802C53.8006 72.3919 54.0704 71.8391 54.4412 71.3532C54.8119 70.8674 55.2765 70.4581 55.8082 70.1487C56.34 69.8393 56.9285 69.6358 57.5403 69.55C58.1521 69.4641 58.775 69.4975 59.3737 69.6482C59.9723 69.7989 60.5349 70.064 61.0293 70.4284L70.0895 77.1059L89.1761 55.6674C89.5778 55.1929 90.072 54.8021 90.6297 54.5182C91.1874 54.2343 91.7974 54.063 92.4235 54.0144C93.0497 53.9657 93.6794 54.0408 94.2756 54.2351C94.8717 54.4294 95.4223 54.739 95.8948 55.1457C96.3673 55.5524 96.7521 56.0479 97.0267 56.6031C97.3012 57.1582 97.4599 57.7617 97.4933 58.3781C97.5268 58.9945 97.4343 59.6112 97.2214 60.1919Z" fill="#5D7D2B"/>
</g>
</g>
<defs>
<clipPath id="clip0_30_150306">
<rect width="100" height="100" fill="white" transform="translate(0.5)"/>
</clipPath>
</defs>
</svg>
