<svg width="101" height="100" viewBox="0 0 101 100" fill="none" xmlns="http://www.w3.org/2000/svg">
<g id="ic:round-car-crash" clip-path="url(#clip0_1773_35194)">
<path id="Vector" d="M89.1758 49.9707L86.9805 44.4824L83.0879 34.75C79.7461 26.3965 71.7754 21 62.7773 21H37.9727C28.9766 21 21.0039 26.3965 17.6621 34.75L13.7695 44.4824L11.5742 49.9707C6.86328 51.7617 3.5 56.2852 3.5 61.625V71C3.5 74.1484 4.70312 76.9902 6.625 79.1895V89.75C6.625 93.2012 9.42383 96 12.875 96H19.125C22.5762 96 25.375 93.2012 25.375 89.75V83.5H75.375V89.75C75.375 93.2012 78.1738 96 81.625 96H87.875C91.3262 96 94.125 93.2012 94.125 89.75V79.1895C96.0469 76.9922 97.25 74.1504 97.25 71V61.625C97.25 56.2852 93.8867 51.7617 89.1758 49.9707ZM29.2676 39.3926C30.6914 35.834 34.1387 33.5 37.9727 33.5H62.7773C66.6113 33.5 70.0586 35.834 71.4824 39.3926L75.375 49.125H25.375L29.2676 39.3926ZM19.125 70.9609C15.375 70.9609 12.875 68.4688 12.875 64.7305C12.875 60.9922 15.375 58.5 19.125 58.5C22.875 58.5 28.5 64.1074 28.5 67.8457C28.5 71.584 22.875 70.9609 19.125 70.9609ZM81.625 70.9609C77.875 70.9609 72.25 71.584 72.25 67.8457C72.25 64.1074 77.875 58.5 81.625 58.5C85.375 58.5 87.875 60.9922 87.875 64.7305C87.875 68.4688 85.375 70.9609 81.625 70.9609Z" fill="#E5E5E5"/>
<g id="Group 2658">
<path id="Vector_2" d="M74.1302 -0.832031C59.662 -0.832031 47.9219 10.9081 47.9219 25.3763C47.9219 39.8444 59.662 51.5845 74.1302 51.5845C88.5983 51.5845 100.338 39.8444 100.338 25.3763C100.338 10.9081 88.5983 -0.832031 74.1302 -0.832031Z" stroke="white" stroke-width="8"/>
<path id="Vector_3" d="M74.1302 3.16797C61.8712 3.16797 51.9219 13.1173 51.9219 25.3763C51.9219 37.6352 61.8712 47.5845 74.1302 47.5845C86.3891 47.5845 96.3385 37.6352 96.3385 25.3763C96.3385 13.1173 86.3891 3.16797 74.1302 3.16797Z" fill="#5D7D2B"/>
<path id="Vector_4" d="M78.6304 19.4526C78.6304 20.7091 78.1313 21.9142 77.2428 22.8027C76.3543 23.6912 75.1492 24.1904 73.8927 24.1904C72.6361 24.1904 71.4311 23.6912 70.5425 22.8027C69.654 21.9142 69.1549 20.7091 69.1549 19.4526C69.1549 18.1961 69.654 16.991 70.5425 16.1025C71.4311 15.214 72.6361 14.7148 73.8927 14.7148C75.1492 14.7148 76.3543 15.214 77.2428 16.1025C78.1313 16.991 78.6304 18.1961 78.6304 19.4526ZM82.1838 30.1126C82.1838 33.0619 79.8149 36.0348 73.8927 36.0348C67.9704 36.0348 65.6016 33.0737 65.6016 30.1126C65.6016 29.1702 65.9759 28.2664 66.6423 27.6C67.3087 26.9336 68.2125 26.5593 69.1549 26.5593H78.6304C79.5728 26.5593 80.4766 26.9336 81.143 27.6C81.8094 28.2664 82.1838 29.1702 82.1838 30.1126Z" fill="white"/>
</g>
</g>
<defs>
<clipPath id="clip0_1773_35194">
<rect width="100" height="100" fill="white" transform="translate(0.5)"/>
</clipPath>
</defs>
</svg>
