<svg width="40" height="40" viewBox="0 0 40 40" fill="none" xmlns="http://www.w3.org/2000/svg">
<g clip-path="url(#clip0_30_100782)">
<path d="M36.6136 7H24.75V40H39.25V9.64C39.25 8.93983 38.9722 8.26833 38.4778 7.77324C37.9834 7.27814 37.3128 7 36.6136 7ZM30.0227 29.44H27.3864V26.8H30.0227V29.44ZM30.0227 22.84H27.3864V20.2H30.0227V22.84ZM30.0227 16.24H27.3864V13.6H30.0227V16.24ZM35.2955 29.44H32.6591V26.8H35.2955V29.44ZM35.2955 22.84H32.6591V20.2H35.2955V22.84ZM35.2955 16.24H32.6591V13.6H35.2955V16.24Z" fill="#5d7d2b"/>
<path d="M18.9675 0.5H3.5325C2.79453 0.5 2.0868 0.794086 1.56498 1.31756C1.04316 1.84104 0.75 2.55103 0.75 3.29133V40H7.3125V36.05H15.1875V40H21.75V3.29133C21.75 2.55103 21.4568 1.84104 20.935 1.31756C20.4132 0.794086 19.7055 0.5 18.9675 0.5ZM7.3125 29.4667H4.6875V26.8333H7.3125V29.4667ZM7.3125 22.8833H4.6875V20.25H7.3125V22.8833ZM7.3125 16.3H4.6875V13.6667H7.3125V16.3ZM7.3125 9.71667H4.6875V7.08333H7.3125V9.71667ZM12.5625 29.4667H9.9375V26.8333H12.5625V29.4667ZM12.5625 22.8833H9.9375V20.25H12.5625V22.8833ZM12.5625 16.3H9.9375V13.6667H12.5625V16.3ZM12.5625 9.71667H9.9375V7.08333H12.5625V9.71667ZM17.8125 29.4667H15.1875V26.8333H17.8125V29.4667ZM17.8125 22.8833H15.1875V20.25H17.8125V22.8833ZM17.8125 16.3H15.1875V13.6667H17.8125V16.3ZM17.8125 9.71667H15.1875V7.08333H17.8125V9.71667Z" fill="#5d7d2b"/>
</g>
<defs>
<clipPath id="clip0_30_100782">
<rect width="40" height="40" fill="white" transform="translate(-0.25)"/>
</clipPath>
</defs>
</svg>
