<svg width="101" height="100" viewBox="0 0 101 100" fill="none" xmlns="http://www.w3.org/2000/svg">
<g id="teenyicons:face-id-solid" clip-path="url(#clip0_30_98641)">
<path id="Vector" fill-rule="evenodd" clip-rule="evenodd" d="M17.1667 6.66667C14.5145 6.66667 11.971 7.72024 10.0956 9.5956C8.22024 11.471 7.16667 14.0145 7.16667 16.6667V33.3333H0.5V16.6667C0.5 12.2464 2.25595 8.00716 5.38155 4.88155C8.50716 1.75595 12.7464 0 17.1667 0L33.8333 0V6.66667H17.1667ZM83.8333 6.66667H67.1667V0H83.8333C88.2536 0 92.4928 1.75595 95.6184 4.88155C98.744 8.00716 100.5 12.2464 100.5 16.6667V33.3333H93.8333V16.6667C93.8333 14.0145 92.7798 11.471 90.9044 9.5956C89.029 7.72024 86.4855 6.66667 83.8333 6.66667ZM0.5 83.3333V66.6667H7.16667V83.3333C7.16667 85.9855 8.22024 88.529 10.0956 90.4044C11.971 92.2798 14.5145 93.3333 17.1667 93.3333H33.8333V100H17.1667C12.7464 100 8.50716 98.244 5.38155 95.1184C2.25595 91.9928 0.5 87.7536 0.5 83.3333ZM100.5 66.6667V83.3333C100.5 87.7536 98.744 91.9928 95.6184 95.1184C92.4928 98.244 88.2536 100 83.8333 100H67.1667V93.3333H83.8333C86.4855 93.3333 89.029 92.2798 90.9044 90.4044C92.7798 88.529 93.8333 85.9855 93.8333 83.3333V66.6667H100.5Z" fill="#F5F5F5"/>
<path id="Vector_2" d="M50.5 26C57.1187 26 62.5 31.4934 62.5 38.25C62.5 45.0066 57.1187 50.5 50.5 50.5C43.8813 50.5 38.5 45.0066 38.5 38.25C38.5 31.4934 43.8813 26 50.5 26ZM71.5 71.325C71.5 73.3539 69.625 75 67.3 75H33.7C31.375 75 29.5 73.3539 29.5 71.325V67.65C29.5 61.5633 35.1437 56.625 42.1 56.625H43.0375C45.3437 57.6012 47.8563 58.1562 50.5 58.1562C53.1437 58.1562 55.675 57.6012 57.9625 56.625H58.9C65.8563 56.625 71.5 61.5633 71.5 67.65V71.325Z" fill="#5d7d2b"/>
</g>
<defs>
<clipPath id="clip0_30_98641">
<rect width="100" height="100" fill="white" transform="translate(0.5)"/>
</clipPath>
</defs>
</svg>
