<svg width="101" height="100" viewBox="0 0 101 100" fill="none" xmlns="http://www.w3.org/2000/svg">
<g id="mdi:paper-check" clip-path="url(#clip0_167_32564)">
<path id="Vector" d="M76.9444 47.7778C80.2889 47.7778 83.49 48.3989 86.5 49.45V28.6667L57.8333 0H10.0556C4.75222 0 0.5 4.25222 0.5 9.55556V76.4444C0.5 78.9787 1.50674 81.4092 3.29876 83.2012C5.09077 84.9932 7.52126 86 10.0556 86H49.95C48.8989 82.99 48.2778 79.7889 48.2778 76.4444C48.2778 60.63 61.13 47.7778 76.9444 47.7778ZM53.0556 7.16667L79.3333 33.4444H53.0556V7.16667Z" fill="#E5E5E5"/>
<path id="Subtract" d="M100.221 64.1919C100.008 64.7725 99.6795 65.3055 99.2537 65.7592L77.2933 90.4225C76.5118 91.2993 75.4222 91.8537 74.2426 91.9749C73.0629 92.0961 71.8802 91.7751 70.9311 91.076L58.3823 81.8273C57.8879 81.463 57.4714 81.0065 57.1566 80.4839C56.8417 79.9614 56.6347 79.383 56.5473 78.7818C56.4599 78.1806 56.4939 77.5684 56.6472 76.9802C56.8006 76.3919 57.0704 75.8391 57.4412 75.3532C57.8119 74.8674 58.2765 74.4581 58.8082 74.1487C59.34 73.8393 59.9285 73.6358 60.5403 73.55C61.1521 73.4641 61.775 73.4975 62.3737 73.6482C62.9723 73.7989 63.5349 74.064 64.0293 74.4284L73.0895 81.1059L92.1761 59.6674C92.5778 59.1929 93.072 58.8021 93.6297 58.5182C94.1874 58.2343 94.7974 58.063 95.4235 58.0144C96.0497 57.9657 96.6794 58.0408 97.2756 58.2351C97.8717 58.4294 98.4223 58.739 98.8948 59.1457C99.3673 59.5524 99.7521 60.0479 100.027 60.6031C100.301 61.1582 100.46 61.7617 100.493 62.3781C100.527 62.9945 100.434 63.6112 100.221 64.1919Z" fill="#5D7D2B"/>
</g>
<defs>
<clipPath id="clip0_167_32564">
<rect width="100" height="100" fill="white" transform="translate(0.5)"/>
</clipPath>
</defs>
</svg>
