<svg width="101" height="100" viewBox="0 0 101 100" fill="none" xmlns="http://www.w3.org/2000/svg">
<g id="mingcute:bank-card-fill" clip-path="url(#clip0_1773_33419)">
<path id="Vector" d="M51.4051 29.775L88.029 43.1051C90.4573 43.9889 92.4782 45.6827 93.6471 47.8138C94.8159 49.9449 95.0371 52.3388 94.2618 54.4689L88.4155 70.5314C87.6402 72.6614 85.9321 74.3531 83.6668 75.2343C81.4015 76.1155 78.7647 76.114 76.3364 75.2302L71.7584 73.5639L65.9121 89.6265C65.5245 90.6915 64.6704 91.5374 63.5377 91.978C62.4051 92.4186 61.0867 92.4178 59.8725 91.9759L50.7166 88.6434C49.5024 88.2015 48.492 87.3546 47.9075 86.289C47.3231 85.2235 47.2125 84.0265 47.6001 82.9615L53.4464 66.8989L39.7125 61.9002L10.9762 69.6315L34.3614 5.38122L51.4051 29.775ZM2.06786 30.0082C-0.431434 36.875 1.698 44.6988 7.66654 50.2364L19.3591 18.1113C11.2586 18.5737 4.55253 23.1816 2.06786 30.0082Z" fill="#E5E5E5"/>
<g id="Group 2657">
<path id="Subtract" d="M75.2794 47.0839L75.2807 47.0825L97.2116 22.4523C97.9835 21.6181 98.5846 20.6389 98.9769 19.5688C99.3763 18.4796 99.5504 17.3208 99.4874 16.1614C99.4245 15.002 99.1261 13.8691 98.6122 12.8299C98.0983 11.7908 97.3804 10.8682 96.5042 10.1141C95.6282 9.36005 94.6114 8.7893 93.515 8.43199C92.4188 8.07471 91.2626 7.93717 90.1138 8.02638C88.965 8.11559 87.8435 8.43002 86.8151 8.95349C85.8038 9.46831 84.901 10.176 84.1604 11.0393L67.5269 29.7223L61.4024 25.2084L59.2099 28.1833L61.4024 25.2084C60.4875 24.5341 59.4501 24.0461 58.3503 23.7692C57.2505 23.4923 56.107 23.4312 54.9842 23.5888C53.8614 23.7464 52.7782 24.1202 51.7965 24.6914C50.8148 25.2626 49.9524 26.021 49.2614 26.9264C48.5703 27.832 48.0646 28.8663 47.7766 29.9711C47.4885 31.076 47.4246 32.2269 47.5889 33.3573C47.7532 34.4875 48.1421 35.5718 48.7304 36.5483C49.3187 37.5246 50.0941 38.3729 51.0091 39.0473L63.5579 48.296L63.559 48.2968C65.3139 49.5893 67.4893 50.1761 69.6513 49.954C71.8138 49.7318 73.8263 48.7142 75.2794 47.0839Z" fill="white" stroke="white" stroke-width="8"/>
<path id="Subtract_2" d="M95.2214 18.1919C95.0085 18.7725 94.6795 19.3055 94.2537 19.7592L72.2933 44.4225C71.5118 45.2993 70.4222 45.8537 69.2426 45.9749C68.0629 46.0961 66.8802 45.7751 65.9311 45.076L53.3823 35.8273C52.8879 35.463 52.4714 35.0065 52.1566 34.4839C51.8417 33.9614 51.6347 33.383 51.5473 32.7818C51.4599 32.1806 51.4939 31.5684 51.6472 30.9802C51.8006 30.3919 52.0704 29.8391 52.4412 29.3532C52.8119 28.8674 53.2765 28.4581 53.8082 28.1487C54.34 27.8393 54.9285 27.6358 55.5403 27.55C56.1521 27.4641 56.775 27.4975 57.3737 27.6482C57.9723 27.7989 58.5349 28.064 59.0293 28.4284L68.0895 35.1059L87.1761 13.6674C87.5778 13.1929 88.072 12.8021 88.6297 12.5182C89.1874 12.2343 89.7974 12.063 90.4235 12.0144C91.0497 11.9657 91.6794 12.0408 92.2756 12.2351C92.8717 12.4294 93.4223 12.739 93.8948 13.1457C94.3673 13.5524 94.7521 14.0479 95.0267 14.6031C95.3012 15.1582 95.4599 15.7617 95.4933 16.3781C95.5268 16.9945 95.4343 17.6112 95.2214 18.1919Z" fill="#5D7D2B"/>
</g>
</g>
<defs>
<clipPath id="clip0_1773_33419">
<rect width="100" height="100" fill="white" transform="translate(0.5)"/>
</clipPath>
</defs>
</svg>
