<svg width="101" height="100" viewBox="0 0 101 100" fill="none" xmlns="http://www.w3.org/2000/svg">
<g clip-path="url(#clip0_1773_35757)">
<g clip-path="url(#clip1_1773_35757)">
<path d="M44.875 46C57.3027 46 67.375 35.9277 67.375 23.5C67.375 11.0723 57.3027 1 44.875 1C32.4473 1 22.375 11.0723 22.375 23.5C22.375 35.9277 32.4473 46 44.875 46ZM60.625 51.625H57.6895C53.7871 53.418 49.4453 54.4375 44.875 54.4375C40.3047 54.4375 35.9805 53.418 32.0605 51.625H29.125C16.082 51.625 5.5 62.207 5.5 75.25V82.5625C5.5 87.2207 9.2793 91 13.9375 91H75.8125C80.4707 91 84.25 87.2207 84.25 82.5625V75.25C84.25 62.207 73.668 51.625 60.625 51.625Z" fill="#E5E5E5"/>
</g>
<g clip-path="url(#clip2_1773_35757)">
<mask id="path-2-outside-1_1773_35757" maskUnits="userSpaceOnUse" x="50.8359" y="49.334" width="48" height="48" fill="black">
<rect fill="white" x="50.8359" y="49.334" width="48" height="48"/>
<path d="M60.6601 59.1581C60.921 58.8969 61.2308 58.6896 61.5719 58.5482C61.9129 58.4068 62.2785 58.334 62.6478 58.334C63.017 58.334 63.3826 58.4068 63.7236 58.5482C64.0647 58.6896 64.3746 58.8969 64.6354 59.1581L74.8364 69.3553L85.0373 59.1581C85.2983 58.8971 85.6082 58.6901 85.9492 58.5488C86.2903 58.4075 86.6558 58.3348 87.0249 58.3348C87.3941 58.3348 87.7596 58.4075 88.1007 58.5488C88.4417 58.6901 88.7516 58.8971 89.0126 59.1581C89.2736 59.4192 89.4807 59.729 89.622 60.0701C89.7632 60.4111 89.8359 60.7767 89.8359 61.1458C89.8359 61.515 89.7632 61.8805 89.622 62.2215C89.4807 62.5626 89.2736 62.8725 89.0126 63.1335L78.8155 73.3344L89.0126 83.5353C89.5398 84.0625 89.8359 84.7775 89.8359 85.523C89.8359 86.2685 89.5398 86.9835 89.0126 87.5107C88.4854 88.0378 87.7705 88.334 87.0249 88.334C86.2794 88.334 85.5644 88.0378 85.0373 87.5107L74.8364 77.3135L64.6354 87.5107C64.1083 88.0378 63.3933 88.334 62.6478 88.334C61.9022 88.334 61.1873 88.0378 60.6601 87.5107C60.1329 86.9835 59.8368 86.2685 59.8368 85.523C59.8368 84.7775 60.1329 84.0625 60.6601 83.5353L70.8572 73.3344L60.6601 63.1335C60.3988 62.8726 60.1916 62.5628 60.0501 62.2217C59.9087 61.8806 59.8359 61.515 59.8359 61.1458C59.8359 60.7766 59.9087 60.411 60.0501 60.0699C60.1916 59.7289 60.3988 59.419 60.6601 59.1581Z"/>
</mask>
<path d="M60.6601 59.1581L67.0195 65.5266L67.0286 65.5176L60.6601 59.1581ZM62.6478 58.334V67.334V58.334ZM64.6354 59.1581L58.2669 65.5176L58.2727 65.5233L64.6354 59.1581ZM74.8364 69.3553L68.4736 75.7204C71.988 79.2336 77.6847 79.2336 81.1991 75.7204L74.8364 69.3553ZM85.0373 59.1581L91.4001 65.5233L91.4012 65.5221L85.0373 59.1581ZM87.0249 58.3348V49.3348V58.3348ZM89.0126 63.1335L82.6487 56.7695L82.6475 56.7707L89.0126 63.1335ZM78.8155 73.3344L72.4503 66.9716C68.9372 70.4861 68.9372 76.1827 72.4503 79.6972L78.8155 73.3344ZM89.0126 83.5353L82.6475 89.8981L82.6487 89.8993L89.0126 83.5353ZM85.0373 87.5107L91.4012 81.1467L91.4001 81.1455L85.0373 87.5107ZM74.8364 77.3135L81.1991 70.9484C77.6847 67.4352 71.988 67.4352 68.4736 70.9484L74.8364 77.3135ZM64.6354 87.5107L58.2727 81.1455L58.2715 81.1467L64.6354 87.5107ZM60.6601 83.5353L67.0241 89.8993L67.0252 89.8981L60.6601 83.5353ZM70.8572 73.3344L77.2224 79.6972C80.7355 76.1827 80.7355 70.4861 77.2224 66.9716L70.8572 73.3344ZM60.6601 63.1335L67.0252 56.7707L67.0195 56.765L60.6601 63.1335ZM67.0286 65.5176C66.4536 66.0934 65.7707 66.5502 65.019 66.8619L58.1248 50.2345C56.6909 50.829 55.3884 51.7004 54.2916 52.7987L67.0286 65.5176ZM65.019 66.8619C64.2673 67.1736 63.4615 67.334 62.6478 67.334V49.334C61.0956 49.334 59.5586 49.64 58.1248 50.2345L65.019 66.8619ZM62.6478 67.334C61.834 67.334 61.0282 67.1736 60.2765 66.8619L67.1708 50.2345C65.7369 49.64 64.2 49.334 62.6478 49.334V67.334ZM60.2765 66.8619C59.5248 66.5502 58.842 66.0934 58.267 65.5176L71.0039 52.7987C69.9071 51.7004 68.6046 50.829 67.1708 50.2345L60.2765 66.8619ZM58.2727 65.5233L68.4736 75.7204L81.1991 62.9902L70.9982 52.793L58.2727 65.5233ZM81.1991 75.7204L91.4001 65.5233L78.6745 52.793L68.4736 62.9902L81.1991 75.7204ZM91.4012 65.5221C90.8265 66.0968 90.1443 66.5527 89.3934 66.8637L82.5051 50.2339C81.0721 50.8274 79.77 51.6974 78.6733 52.7942L91.4012 65.5221ZM89.3934 66.8637C88.6425 67.1747 87.8377 67.3348 87.0249 67.3348V49.3348C85.4739 49.3348 83.938 49.6403 82.5051 50.2339L89.3934 66.8637ZM87.0249 67.3348C86.2122 67.3348 85.4074 67.1747 84.6565 66.8637L91.5448 50.2339C90.1118 49.6403 88.576 49.3348 87.0249 49.3348V67.3348ZM84.6565 66.8637C83.9056 66.5527 83.2233 66.0968 82.6487 65.5221L95.3766 52.7942C94.2798 51.6974 92.9778 50.8274 91.5448 50.2339L84.6565 66.8637ZM82.6487 65.5221C82.074 64.9474 81.6181 64.2651 81.307 63.5142L97.9369 56.6259C97.3433 55.193 96.4733 53.8909 95.3766 52.7942L82.6487 65.5221ZM81.307 63.5142C80.996 62.7634 80.8359 61.9586 80.8359 61.1458L98.8359 61.1458C98.8359 59.5947 98.5304 58.0589 97.9369 56.6259L81.307 63.5142ZM80.8359 61.1458C80.8359 60.333 80.996 59.5282 81.307 58.7774L97.9369 65.6657C98.5304 64.2327 98.8359 62.6969 98.8359 61.1458L80.8359 61.1458ZM81.307 58.7774C81.6181 58.0265 82.074 57.3442 82.6487 56.7695L95.3766 69.4975C96.4733 68.4007 97.3433 67.0987 97.9369 65.6657L81.307 58.7774ZM82.6475 56.7707L72.4503 66.9716L85.1806 79.6972L95.3777 69.4963L82.6475 56.7707ZM72.4503 79.6972L82.6475 89.8981L95.3777 77.1725L85.1806 66.9716L72.4503 79.6972ZM82.6487 89.8993C81.488 88.7386 80.8359 87.1644 80.8359 85.523H98.8359C98.8359 82.3905 97.5915 79.3863 95.3766 77.1713L82.6487 89.8993ZM80.8359 85.523C80.8359 83.8815 81.488 82.3073 82.6487 81.1467L95.3766 93.8746C97.5915 91.6596 98.8359 88.6555 98.8359 85.523H80.8359ZM82.6487 81.1467C83.8093 79.9861 85.3835 79.334 87.0249 79.334V97.334C90.1574 97.334 93.1616 96.0896 95.3766 93.8746L82.6487 81.1467ZM87.0249 79.334C88.6664 79.334 90.2406 79.9861 91.4012 81.1467L78.6733 93.8746C80.8883 96.0896 83.8924 97.334 87.0249 97.334V79.334ZM91.4001 81.1455L81.1991 70.9484L68.4736 83.6786L78.6745 93.8758L91.4001 81.1455ZM68.4736 70.9484L58.2727 81.1455L70.9982 93.8758L81.1991 83.6786L68.4736 70.9484ZM58.2715 81.1467C59.4321 79.9861 61.0063 79.334 62.6478 79.334V97.334C65.7803 97.334 68.7844 96.0896 70.9994 93.8746L58.2715 81.1467ZM62.6478 79.334C64.2892 79.334 65.8634 79.9861 67.0241 81.1467L54.2961 93.8746C56.5111 96.0896 59.5153 97.334 62.6478 97.334V79.334ZM67.0241 81.1467C68.1847 82.3074 68.8368 83.8816 68.8368 85.523H50.8368C50.8368 88.6555 52.0811 91.6596 54.2961 93.8746L67.0241 81.1467ZM68.8368 85.523C68.8368 87.1644 68.1847 88.7386 67.0241 89.8993L54.2961 77.1713C52.0811 79.3863 50.8368 82.3905 50.8368 85.523H68.8368ZM67.0252 89.8981L77.2224 79.6972L64.4921 66.9716L54.295 77.1725L67.0252 89.8981ZM77.2224 66.9716L67.0252 56.7707L54.295 69.4963L64.4921 79.6972L77.2224 66.9716ZM67.0195 56.765C67.5953 57.34 68.0522 58.0229 68.3638 58.7746L51.7365 65.6688C52.331 67.1026 53.2023 68.4052 54.3007 69.502L67.0195 56.765ZM68.3638 58.7746C68.6755 59.5263 68.8359 60.332 68.8359 61.1458H50.8359C50.8359 62.698 51.1419 64.235 51.7365 65.6688L68.3638 58.7746ZM68.8359 61.1458C68.8359 61.9596 68.6755 62.7654 68.3638 63.517L51.7365 56.6228C51.1419 58.0566 50.8359 59.5936 50.8359 61.1458H68.8359ZM68.3638 63.517C68.0522 64.2687 67.5953 64.9516 67.0195 65.5266L54.3007 52.7896C53.2023 53.8864 52.331 55.189 51.7365 56.6228L68.3638 63.517Z" fill="white" mask="url(#path-2-outside-1_1773_35757)"/>
<path d="M61.1889 57.6264C60.7266 57.8181 60.3066 58.0989 59.953 58.453C59.5989 58.8066 59.3181 59.2266 59.1264 59.6889C58.9346 60.1514 58.8359 60.6471 58.8359 61.1478C58.8359 61.6484 58.9346 62.1442 59.1264 62.6067C59.3181 63.069 59.599 63.489 59.9531 63.8427C59.9533 63.8428 59.9534 63.8429 59.9535 63.8431L69.4433 73.3364L59.953 82.8302C59.2383 83.5449 58.8368 84.5142 58.8368 85.5249C58.8368 86.5357 59.2383 87.505 59.953 88.2197L60.6543 87.5184L59.953 88.2197C60.6677 88.9344 61.637 89.3359 62.6478 89.3359C63.6584 89.3359 64.6277 88.9345 65.3424 88.2199C65.3425 88.2198 65.3425 88.2198 65.3426 88.2197L74.8364 78.7294L84.3302 88.2197C85.0449 88.9344 86.0142 89.3359 87.0249 89.3359C88.0357 89.3359 89.005 88.9344 89.7197 88.2197C90.4344 87.505 90.8359 86.5357 90.8359 85.5249C90.8359 84.5142 90.4344 83.5449 89.7197 82.8302L80.2294 73.3364L89.7197 63.8425C89.7198 63.8425 89.7198 63.8425 89.7199 63.8424C90.0737 63.4886 90.3543 63.0685 90.5458 62.6062C90.7374 62.1438 90.8359 61.6482 90.8359 61.1478C90.8359 60.6473 90.7374 60.1517 90.5458 59.6894C90.3543 59.227 90.0736 58.8069 89.7197 58.453C89.3658 58.0991 88.9457 57.8184 88.4833 57.6269C88.021 57.4353 87.5254 57.3368 87.0249 57.3368C86.5245 57.3368 86.0289 57.4353 85.5665 57.6269C85.1042 57.8184 84.684 58.0991 84.3302 58.453L74.8364 67.9433L65.3431 58.4535C65.3429 58.4534 65.3428 58.4533 65.3427 58.4531C64.989 58.099 64.569 57.8181 64.1067 57.6264C63.6442 57.4346 63.1484 57.3359 62.6478 57.3359C62.1471 57.3359 61.6514 57.4346 61.1889 57.6264Z" fill="#5D7D2B" stroke="#5D7D2B" stroke-width="2" stroke-linejoin="round"/>
</g>
</g>
<defs>
<clipPath id="clip0_1773_35757">
<rect width="100" height="100" fill="white" transform="translate(0.5)"/>
</clipPath>
<clipPath id="clip1_1773_35757">
<rect width="78.75" height="90" fill="white" transform="translate(5.5 1)"/>
</clipPath>
<clipPath id="clip2_1773_35757">
<rect width="50" height="50" fill="white" transform="translate(51.5 50)"/>
</clipPath>
</defs>
</svg>
