<svg width="101" height="100" viewBox="0 0 101 100" fill="none" xmlns="http://www.w3.org/2000/svg">
<g clip-path="url(#clip0_1773_33505)">
<path d="M98 70.9998H85.5V18.7264C85.5 14.467 82.1359 10.9998 78 10.9998H60.5V20.9998H75.5V80.9998H98C99.3812 80.9998 100.5 79.8811 100.5 78.4998V73.4998C100.5 72.1186 99.3812 70.9998 98 70.9998ZM49.2875 1.15766L19.2875 8.92954C17.0609 9.5061 15.5 11.578 15.5 13.9561V70.9998H3C1.61875 70.9998 0.5 72.1186 0.5 73.4998V78.4998C0.5 79.8811 1.61875 80.9998 3 80.9998H55.5V6.18422C55.5 2.81235 52.4437 0.33891 49.2875 1.15766ZM41.75 45.9998C39.6797 45.9998 38 43.7608 38 40.9998C38 38.2389 39.6797 35.9998 41.75 35.9998C43.8203 35.9998 45.5 38.2389 45.5 40.9998C45.5 43.7608 43.8203 45.9998 41.75 45.9998Z" fill="#E5E5E5"/>
<path d="M74.2794 101.084L74.2807 101.082L96.2116 76.4523C96.9835 75.6181 97.5846 74.6389 97.9769 73.5688C98.3763 72.4796 98.5504 71.3208 98.4874 70.1614C98.4245 69.002 98.1261 67.8691 97.6122 66.8299C97.0983 65.7908 96.3804 64.8682 95.5042 64.1141C94.6282 63.3601 93.6114 62.7893 92.515 62.432C91.4188 62.0747 90.2626 61.9372 89.1138 62.0264C87.965 62.1156 86.8435 62.43 85.8151 62.9535C84.8038 63.4683 83.901 64.176 83.1604 65.0393L66.5269 83.7223L60.4024 79.2084L58.2099 82.1833L60.4024 79.2084C59.4875 78.5341 58.4501 78.0461 57.3503 77.7692C56.2505 77.4923 55.107 77.4312 53.9842 77.5888C52.8614 77.7464 51.7782 78.1202 50.7965 78.6914C49.8148 79.2626 48.9524 80.021 48.2614 80.9264C47.5703 81.832 47.0646 82.8663 46.7766 83.9711C46.4885 85.076 46.4246 86.2269 46.5889 87.3573C46.7532 88.4875 47.1421 89.5718 47.7304 90.5483C48.3187 91.5246 49.0941 92.3729 50.0091 93.0473L62.5579 102.296L62.559 102.297C64.3139 103.589 66.4893 104.176 68.6513 103.954C70.8138 103.732 72.8263 102.714 74.2794 101.084Z" fill="white" stroke="white" stroke-width="8"/>
<path d="M94.2214 72.1919C94.0085 72.7725 93.6795 73.3055 93.2537 73.7592L71.2933 98.4225C70.5118 99.2993 69.4222 99.8537 68.2426 99.9749C67.0629 100.096 65.8802 99.7751 64.9311 99.076L52.3823 89.8273C51.8879 89.463 51.4714 89.0065 51.1566 88.4839C50.8417 87.9614 50.6347 87.383 50.5473 86.7818C50.4599 86.1806 50.4939 85.5684 50.6472 84.9802C50.8006 84.3919 51.0704 83.8391 51.4412 83.3532C51.8119 82.8674 52.2765 82.4581 52.8082 82.1487C53.34 81.8393 53.9285 81.6358 54.5403 81.55C55.1521 81.4641 55.775 81.4975 56.3737 81.6482C56.9723 81.7989 57.5349 82.064 58.0293 82.4284L67.0895 89.1059L86.1761 67.6674C86.5778 67.1929 87.072 66.8021 87.6297 66.5182C88.1874 66.2343 88.7974 66.063 89.4235 66.0144C90.0497 65.9657 90.6794 66.0408 91.2756 66.2351C91.8717 66.4294 92.4223 66.739 92.8948 67.1457C93.3673 67.5524 93.7521 68.0479 94.0267 68.6031C94.3012 69.1582 94.4599 69.7617 94.4933 70.3781C94.5268 70.9945 94.4343 71.6112 94.2214 72.1919Z" fill="#5D7D2B"/>
</g>
<defs>
<clipPath id="clip0_1773_33505">
<rect width="100" height="100" fill="white" transform="translate(0.5)"/>
</clipPath>
</defs>
</svg>
