<svg width="101" height="100" viewBox="0 0 101 100" fill="none" xmlns="http://www.w3.org/2000/svg">
<g clip-path="url(#clip0_1773_33842)">
<path d="M98 69.9998H85.5V17.7264C85.5 13.467 82.1359 9.99985 78 9.99985H60.5V19.9998H75.5V79.9998H98C99.3812 79.9998 100.5 78.8811 100.5 77.4998V72.4998C100.5 71.1186 99.3812 69.9998 98 69.9998ZM49.2875 0.15766L19.2875 7.92954C17.0609 8.5061 15.5 10.578 15.5 12.9561V69.9998H3C1.61875 69.9998 0.5 71.1186 0.5 72.4998V77.4998C0.5 78.8811 1.61875 79.9998 3 79.9998H55.5V5.18422C55.5 1.81235 52.4437 -0.66109 49.2875 0.15766ZM41.75 44.9998C39.6797 44.9998 38 42.7608 38 39.9998C38 37.2389 39.6797 34.9998 41.75 34.9998C43.8203 34.9998 45.5 37.2389 45.5 39.9998C45.5 42.7608 43.8203 44.9998 41.75 44.9998Z" fill="#E5E5E5"/>
<g clip-path="url(#clip1_1773_33842)">
<mask id="path-2-outside-1_1773_33842" maskUnits="userSpaceOnUse" x="58.8359" y="49.334" width="48" height="48" fill="black">
<rect fill="white" x="58.8359" y="49.334" width="48" height="48"/>
<path d="M68.6601 59.1581C68.921 58.8969 69.2308 58.6896 69.5719 58.5482C69.9129 58.4068 70.2785 58.334 70.6478 58.334C71.017 58.334 71.3826 58.4068 71.7236 58.5482C72.0647 58.6896 72.3746 58.8969 72.6354 59.1581L82.8364 69.3553L93.0373 59.1581C93.2983 58.8971 93.6082 58.6901 93.9492 58.5488C94.2903 58.4075 94.6558 58.3348 95.0249 58.3348C95.3941 58.3348 95.7596 58.4075 96.1007 58.5488C96.4417 58.6901 96.7516 58.8971 97.0126 59.1581C97.2736 59.4192 97.4807 59.729 97.622 60.0701C97.7632 60.4111 97.8359 60.7767 97.8359 61.1458C97.8359 61.515 97.7632 61.8805 97.622 62.2215C97.4807 62.5626 97.2736 62.8725 97.0126 63.1335L86.8155 73.3344L97.0126 83.5353C97.5398 84.0625 97.8359 84.7775 97.8359 85.523C97.8359 86.2685 97.5398 86.9835 97.0126 87.5107C96.4854 88.0378 95.7705 88.334 95.0249 88.334C94.2794 88.334 93.5644 88.0378 93.0373 87.5107L82.8364 77.3135L72.6354 87.5107C72.1083 88.0378 71.3933 88.334 70.6478 88.334C69.9022 88.334 69.1873 88.0378 68.6601 87.5107C68.1329 86.9835 67.8368 86.2685 67.8368 85.523C67.8368 84.7775 68.1329 84.0625 68.6601 83.5353L78.8572 73.3344L68.6601 63.1335C68.3988 62.8726 68.1916 62.5628 68.0501 62.2217C67.9087 61.8806 67.8359 61.515 67.8359 61.1458C67.8359 60.7766 67.9087 60.411 68.0501 60.0699C68.1916 59.7289 68.3988 59.419 68.6601 59.1581Z"/>
</mask>
<path d="M68.6601 59.1581L75.0195 65.5266L75.0286 65.5176L68.6601 59.1581ZM70.6478 58.334V67.334V58.334ZM72.6354 59.1581L66.2669 65.5176L66.2727 65.5233L72.6354 59.1581ZM82.8364 69.3553L76.4736 75.7204C79.988 79.2336 85.6847 79.2336 89.1991 75.7204L82.8364 69.3553ZM93.0373 59.1581L99.4001 65.5233L99.4012 65.5221L93.0373 59.1581ZM95.0249 58.3348V49.3348V58.3348ZM97.0126 63.1335L90.6487 56.7695L90.6475 56.7707L97.0126 63.1335ZM86.8155 73.3344L80.4503 66.9716C76.9372 70.4861 76.9372 76.1827 80.4503 79.6972L86.8155 73.3344ZM97.0126 83.5353L90.6475 89.8981L90.6487 89.8993L97.0126 83.5353ZM93.0373 87.5107L99.4012 81.1467L99.4001 81.1455L93.0373 87.5107ZM82.8364 77.3135L89.1991 70.9484C85.6847 67.4352 79.988 67.4352 76.4736 70.9484L82.8364 77.3135ZM72.6354 87.5107L66.2727 81.1455L66.2715 81.1467L72.6354 87.5107ZM68.6601 83.5353L75.0241 89.8993L75.0252 89.8981L68.6601 83.5353ZM78.8572 73.3344L85.2224 79.6972C88.7355 76.1827 88.7355 70.4861 85.2224 66.9716L78.8572 73.3344ZM68.6601 63.1335L75.0252 56.7707L75.0195 56.765L68.6601 63.1335ZM75.0286 65.5176C74.4536 66.0934 73.7707 66.5502 73.019 66.8619L66.1248 50.2345C64.6909 50.829 63.3884 51.7004 62.2916 52.7987L75.0286 65.5176ZM73.019 66.8619C72.2673 67.1736 71.4615 67.334 70.6478 67.334V49.334C69.0956 49.334 67.5586 49.64 66.1248 50.2345L73.019 66.8619ZM70.6478 67.334C69.834 67.334 69.0282 67.1736 68.2765 66.8619L75.1708 50.2345C73.7369 49.64 72.2 49.334 70.6478 49.334V67.334ZM68.2765 66.8619C67.5248 66.5502 66.842 66.0934 66.267 65.5176L79.0039 52.7987C77.9071 51.7004 76.6046 50.829 75.1708 50.2345L68.2765 66.8619ZM66.2727 65.5233L76.4736 75.7204L89.1991 62.9902L78.9982 52.793L66.2727 65.5233ZM89.1991 75.7204L99.4001 65.5233L86.6745 52.793L76.4736 62.9902L89.1991 75.7204ZM99.4012 65.5221C98.8265 66.0968 98.1443 66.5527 97.3934 66.8637L90.5051 50.2339C89.0721 50.8274 87.77 51.6974 86.6733 52.7942L99.4012 65.5221ZM97.3934 66.8637C96.6425 67.1747 95.8377 67.3348 95.0249 67.3348V49.3348C93.4739 49.3348 91.938 49.6403 90.5051 50.2339L97.3934 66.8637ZM95.0249 67.3348C94.2122 67.3348 93.4074 67.1747 92.6565 66.8637L99.5448 50.2339C98.1118 49.6403 96.576 49.3348 95.0249 49.3348V67.3348ZM92.6565 66.8637C91.9056 66.5527 91.2233 66.0968 90.6487 65.5221L103.377 52.7942C102.28 51.6974 100.978 50.8274 99.5448 50.2339L92.6565 66.8637ZM90.6487 65.5221C90.074 64.9474 89.6181 64.2651 89.307 63.5142L105.937 56.6259C105.343 55.193 104.473 53.8909 103.377 52.7942L90.6487 65.5221ZM89.307 63.5142C88.996 62.7634 88.8359 61.9586 88.8359 61.1458L106.836 61.1458C106.836 59.5947 106.53 58.0589 105.937 56.6259L89.307 63.5142ZM88.8359 61.1458C88.8359 60.333 88.996 59.5282 89.307 58.7774L105.937 65.6657C106.53 64.2327 106.836 62.6969 106.836 61.1458L88.8359 61.1458ZM89.307 58.7774C89.6181 58.0265 90.074 57.3442 90.6487 56.7695L103.377 69.4975C104.473 68.4007 105.343 67.0987 105.937 65.6657L89.307 58.7774ZM90.6475 56.7707L80.4503 66.9716L93.1806 79.6972L103.378 69.4963L90.6475 56.7707ZM80.4503 79.6972L90.6475 89.8981L103.378 77.1725L93.1806 66.9716L80.4503 79.6972ZM90.6487 89.8993C89.488 88.7386 88.8359 87.1644 88.8359 85.523H106.836C106.836 82.3905 105.592 79.3863 103.377 77.1713L90.6487 89.8993ZM88.8359 85.523C88.8359 83.8815 89.488 82.3073 90.6487 81.1467L103.377 93.8746C105.592 91.6596 106.836 88.6555 106.836 85.523H88.8359ZM90.6487 81.1467C91.8093 79.9861 93.3835 79.334 95.0249 79.334V97.334C98.1574 97.334 101.162 96.0896 103.377 93.8746L90.6487 81.1467ZM95.0249 79.334C96.6664 79.334 98.2406 79.9861 99.4012 81.1467L86.6733 93.8746C88.8883 96.0896 91.8924 97.334 95.0249 97.334V79.334ZM99.4001 81.1455L89.1991 70.9484L76.4736 83.6786L86.6745 93.8758L99.4001 81.1455ZM76.4736 70.9484L66.2727 81.1455L78.9982 93.8758L89.1991 83.6786L76.4736 70.9484ZM66.2715 81.1467C67.4321 79.9861 69.0063 79.334 70.6478 79.334V97.334C73.7803 97.334 76.7844 96.0896 78.9994 93.8746L66.2715 81.1467ZM70.6478 79.334C72.2892 79.334 73.8634 79.9861 75.0241 81.1467L62.2961 93.8746C64.5111 96.0896 67.5153 97.334 70.6478 97.334V79.334ZM75.0241 81.1467C76.1847 82.3074 76.8368 83.8816 76.8368 85.523H58.8368C58.8368 88.6555 60.0811 91.6596 62.2961 93.8746L75.0241 81.1467ZM76.8368 85.523C76.8368 87.1644 76.1847 88.7386 75.0241 89.8993L62.2961 77.1713C60.0811 79.3863 58.8368 82.3905 58.8368 85.523H76.8368ZM75.0252 89.8981L85.2224 79.6972L72.4921 66.9716L62.295 77.1725L75.0252 89.8981ZM85.2224 66.9716L75.0252 56.7707L62.295 69.4963L72.4921 79.6972L85.2224 66.9716ZM75.0195 56.765C75.5953 57.34 76.0522 58.0229 76.3638 58.7746L59.7365 65.6688C60.331 67.1026 61.2023 68.4052 62.3007 69.502L75.0195 56.765ZM76.3638 58.7746C76.6755 59.5263 76.8359 60.332 76.8359 61.1458H58.8359C58.8359 62.698 59.1419 64.235 59.7365 65.6688L76.3638 58.7746ZM76.8359 61.1458C76.8359 61.9596 76.6755 62.7654 76.3638 63.517L59.7365 56.6228C59.1419 58.0566 58.8359 59.5936 58.8359 61.1458H76.8359ZM76.3638 63.517C76.0522 64.2687 75.5953 64.9516 75.0195 65.5266L62.3007 52.7896C61.2023 53.8864 60.331 55.189 59.7365 56.6228L76.3638 63.517Z" fill="white" mask="url(#path-2-outside-1_1773_33842)"/>
<path d="M69.1889 57.6264C68.7266 57.8181 68.3066 58.0989 67.953 58.453C67.5989 58.8066 67.3181 59.2266 67.1264 59.6889C66.9346 60.1514 66.8359 60.6471 66.8359 61.1478C66.8359 61.6484 66.9346 62.1442 67.1264 62.6067C67.3181 63.069 67.599 63.489 67.9531 63.8427C67.9533 63.8428 67.9534 63.8429 67.9535 63.8431L77.4433 73.3364L67.953 82.8302C67.2383 83.5449 66.8368 84.5142 66.8368 85.5249C66.8368 86.5357 67.2383 87.505 67.953 88.2197L68.6543 87.5184L67.953 88.2197C68.6677 88.9344 69.637 89.3359 70.6478 89.3359C71.6584 89.3359 72.6277 88.9345 73.3424 88.2199C73.3425 88.2198 73.3425 88.2198 73.3426 88.2197L82.8364 78.7294L92.3302 88.2197C93.0449 88.9344 94.0142 89.3359 95.0249 89.3359C96.0357 89.3359 97.005 88.9344 97.7197 88.2197C98.4344 87.505 98.8359 86.5357 98.8359 85.5249C98.8359 84.5142 98.4344 83.5449 97.7197 82.8302L88.2294 73.3364L97.7197 63.8425C97.7198 63.8425 97.7198 63.8425 97.7199 63.8424C98.0737 63.4886 98.3543 63.0685 98.5458 62.6062C98.7374 62.1438 98.8359 61.6482 98.8359 61.1478C98.8359 60.6473 98.7374 60.1517 98.5458 59.6894C98.3543 59.227 98.0736 58.8069 97.7197 58.453C97.3658 58.0991 96.9457 57.8184 96.4833 57.6269C96.021 57.4353 95.5254 57.3368 95.0249 57.3368C94.5245 57.3368 94.0289 57.4353 93.5665 57.6269C93.1042 57.8184 92.684 58.0991 92.3302 58.453L82.8364 67.9433L73.3431 58.4535C73.3429 58.4534 73.3428 58.4533 73.3427 58.4531C72.989 58.099 72.569 57.8181 72.1067 57.6264C71.6442 57.4346 71.1484 57.3359 70.6478 57.3359C70.1471 57.3359 69.6514 57.4346 69.1889 57.6264Z" fill="#5D7D2B" stroke="#5D7D2B" stroke-width="2" stroke-linejoin="round"/>
</g>
</g>
<defs>
<clipPath id="clip0_1773_33842">
<rect width="100" height="100" fill="white" transform="translate(0.5)"/>
</clipPath>
<clipPath id="clip1_1773_33842">
<rect width="50" height="50" fill="white" transform="translate(59.5 50)"/>
</clipPath>
</defs>
</svg>
