<svg width="20" height="21" viewBox="0 0 20 21" fill="none" xmlns="http://www.w3.org/2000/svg">
<path fill-rule="evenodd" clip-rule="evenodd" d="M9.88609 0.662964H14.9254C17.445 0.662964 19.5 2.66296 19.5 5.10296V16.223C19.5 18.673 17.445 20.663 14.9047 20.663H9.87576C7.35611 20.663 5.29083 18.673 5.29083 16.233V11.433H11.6932L10.041 13.033C9.73119 13.333 9.73119 13.823 10.041 14.123C10.1959 14.273 10.4024 14.343 10.6089 14.343C10.8051 14.343 11.0117 14.273 11.1666 14.123L14.1819 11.213C14.3368 11.073 14.4194 10.873 14.4194 10.663C14.4194 10.463 14.3368 10.263 14.1819 10.123L11.1666 7.21296C10.8568 6.91296 10.3508 6.91296 10.041 7.21296C9.73119 7.51296 9.73119 8.00296 10.041 8.30296L11.6932 9.89296H5.29083V5.11296C5.29083 2.66296 7.35611 0.662964 9.88609 0.662964ZM0.5 10.6629C0.5 10.2429 0.855229 9.89286 1.2815 9.89286H5.29052V11.4329H1.2815C0.855229 11.4329 0.5 11.0929 0.5 10.6629Z" fill="white"/>
</svg>
