<svg width="220" height="24" viewBox="0 0 220 24" fill="none" xmlns="http://www.w3.org/2000/svg">
<path d="M47.2497 19.5124C47.2497 19.6612 47.2973 19.7506 47.3866 19.7506C47.4521 19.7506 47.5117 19.7208 47.5831 19.6731L72.8644 3.25756C73.305 2.96581 73.7159 2.81694 74.3232 2.81694H79.8784C80.7358 2.81694 81.3015 3.38855 81.3015 4.23999V14.8503C81.3015 16.1304 81.0157 16.8747 79.8784 17.5594L73.1383 21.6083C73.049 21.6618 72.9776 21.6916 72.9121 21.6916C72.8287 21.6916 72.7573 21.6261 72.7573 21.3999V9.01522C72.7573 8.87827 72.7096 8.77706 72.6203 8.77706C72.5548 8.77706 72.5012 8.80682 72.4238 8.8485L53.9421 20.8521C53.4241 21.1855 52.9954 21.2867 52.5251 21.2867H40.2714C39.414 21.2867 38.8484 20.7151 38.8484 19.8637V4.57342C38.8484 4.46029 38.8007 4.35906 38.7114 4.35906C38.6459 4.35906 38.5923 4.38885 38.5149 4.43053L26.3268 11.7541C26.2077 11.8256 26.172 11.8851 26.172 11.9447C26.172 11.9983 26.1958 12.0459 26.2791 12.1352L34.9841 20.8402C35.0972 20.9593 35.1806 21.0426 35.1806 21.1379C35.1806 21.2391 35.0556 21.2867 34.9067 21.2867H27.0294C26.4101 21.2867 25.9338 21.1915 25.6063 20.858L20.325 15.5767C20.2714 15.5231 20.2297 15.4933 20.1702 15.4933C20.1226 15.4933 20.063 15.5172 20.0094 15.5529L11.1794 20.858C10.6435 21.1796 10.2744 21.2867 9.75042 21.2867H1.62299C0.765595 21.2867 0.199951 20.7151 0.199951 19.8637V9.44988C0.199951 8.16973 0.48575 7.43141 1.62299 6.74669L8.40477 2.67405C8.47027 2.63237 8.53576 2.6145 8.58935 2.6145C8.69057 2.6145 8.75012 2.72169 8.75012 2.95985V16.8866C8.75012 17.0355 8.79179 17.101 8.88706 17.101C8.95255 17.101 9.0121 17.0652 9.08951 17.0176L32.0011 3.24564C32.5489 2.91816 32.8823 2.81694 33.5134 2.81694H45.8445C46.7019 2.81694 47.2675 3.38855 47.2675 4.23999V19.5124H47.2497Z" fill="#ffffff"/>
<path d="M96.3475 21.763V2.30481H108.839V5.12113H99.801V10.5215H107.202V13.4153H99.801V21.763H96.3475Z" fill="#ffffff"/>
<path d="M112.043 5.65703V2.15002H115.347V5.65703H112.043ZM112.043 21.763V7.78265H115.347V21.763H112.043Z" fill="#ffffff"/>
<path d="M119.7 21.763V7.78267H122.796L122.998 9.80709C123.868 8.62817 125.428 7.40161 127.452 7.40161C130.524 7.40161 132.37 9.24739 132.37 12.6234V21.763H129.066V12.6234C129.066 11.1408 128.554 9.96189 126.916 9.96189C125.225 9.96189 123.564 11.4445 122.998 13.2367V21.763H119.7Z" fill="#ffffff"/>
<path d="M136.496 15.1599C137.598 13.9333 139.39 13.3915 141.563 13.0581L144.511 12.5996C144.356 10.8074 143.254 9.86068 141.129 9.86068C139.593 9.86068 137.902 10.73 136.854 12.2185V9.01518C137.777 8.27091 139.337 7.40161 141.819 7.40161C145.094 7.40161 147.833 9.06282 147.833 13.189V21.763H145.07L144.761 20.1495C143.457 21.4058 142.075 22.1441 140.051 22.1441C137.235 22.1441 135.574 20.5067 135.574 17.8452C135.574 16.7199 135.931 15.8208 136.496 15.1599ZM140.694 19.5124C142.433 19.5124 143.945 18.2858 144.588 16.8747V14.9277L142.927 15.2075C140.343 15.6422 139.777 16.053 139.343 16.4638C139.033 16.7735 138.854 17.1783 138.854 17.6904C138.848 18.8217 139.593 19.5124 140.694 19.5124Z" fill="#ffffff"/>
<path d="M151.93 21.763V7.78267H155.026L155.228 9.80709C156.097 8.62817 157.657 7.40161 159.682 7.40161C162.754 7.40161 164.6 9.24739 164.6 12.6234V21.763H161.295V12.6234C161.295 11.1408 160.783 9.96189 159.146 9.96189C157.455 9.96189 155.794 11.4445 155.228 13.2367V21.763H151.93Z" fill="#ffffff"/>
<path d="M167.803 14.5168C167.803 10.6764 170.673 7.40161 175.228 7.40161C176.943 7.40161 178.354 7.96725 179.271 8.62817V12.0101C178.324 10.6288 176.866 10.0155 175.454 10.0155C173.204 10.0155 171.257 11.7839 171.257 14.5228V15.0348C171.257 17.6487 173.305 19.5183 175.454 19.5183C176.866 19.5183 178.17 18.8753 179.271 17.5951V20.8699C178.426 21.5368 177.02 22.15 175.121 22.15C170.745 22.15 167.797 18.8991 167.797 15.0586V14.5168H167.803Z" fill="#ffffff"/>
<path d="M181.837 14.493C181.837 10.3966 184.499 7.40161 188.44 7.40161C192.537 7.40161 194.841 10.1941 194.841 14.6478V15.928H185.088C185.321 18.2084 186.648 19.5898 188.929 19.6136C190.721 19.6374 192.311 19.1015 193.895 17.4879V20.6377C192.668 21.5844 190.876 22.15 188.929 22.15C184.296 22.15 181.837 19.1551 181.837 15.0051V14.493ZM191.566 13.4153C191.566 11.1646 190.286 9.85473 188.363 9.8845C186.672 9.90832 185.237 11.2659 185.112 13.4153H191.566Z" fill="#ffffff"/>
</svg>
