<svg width="22" height="20" viewBox="0 0 22 20" fill="none" xmlns="http://www.w3.org/2000/svg">
<g id="Filter">
<path id="Stroke 1" d="M9.11693 15.9867H1.88281" stroke="black" stroke-width="2" stroke-linecap="round" stroke-linejoin="round"/>
<path id="Stroke 3" fill-rule="evenodd" clip-rule="evenodd" d="M20.1194 15.9864C20.1194 17.577 18.83 18.8664 17.2394 18.8664C15.6488 18.8664 14.3594 17.577 14.3594 15.9864C14.3594 14.3947 15.6488 13.1064 17.2394 13.1064C18.83 13.1064 20.1194 14.3947 20.1194 15.9864Z" stroke="black" stroke-width="2" stroke-linecap="round" stroke-linejoin="round"/>
<path id="Stroke 5" d="M12.8828 4.26206H20.1181" stroke="black" stroke-width="2" stroke-linecap="round" stroke-linejoin="round"/>
<path id="Stroke 7" fill-rule="evenodd" clip-rule="evenodd" d="M1.88281 4.26184C1.88281 5.8536 3.17222 7.14184 4.76281 7.14184C6.3534 7.14184 7.64281 5.8536 7.64281 4.26184C7.64281 2.67125 6.3534 1.38184 4.76281 1.38184C3.17222 1.38184 1.88281 2.67125 1.88281 4.26184Z" stroke="black" stroke-width="2" stroke-linecap="round" stroke-linejoin="round"/>
</g>
</svg>
