<svg width="24" height="24" viewBox="0 0 24 24" fill="none" xmlns="http://www.w3.org/2000/svg">
    <path d="M16.25 12.5H12.25C12.0511 12.5 11.8603 12.421 11.7197 12.2803C11.579 12.1397 11.5 11.9489 11.5 11.75V5.75C11.5 5.55109 11.579 5.36032 11.7197 5.21967C11.8603 5.07902 12.0511 5 12.25 5C12.4489 5 12.6397 5.07902 12.7803 5.21967C12.921 5.36032 13 5.55109 13 5.75V11H16.25C16.4489 11 16.6397 11.079 16.7803 11.2197C16.921 11.3603 17 11.5511 17 11.75C17 11.9489 16.921 12.1397 16.7803 12.2803C16.6397 12.421 16.4489 12.5 16.25 12.5ZM13 1C7.478 1 3 5.478 3 11C3 11.334 3.016 11.665 3.049 11.991C4.29567 11.2093 5.7707 10.8737 7.23285 11.0391C8.69501 11.2046 10.0578 11.8612 11.0983 12.9017C12.1388 13.9422 12.7954 15.305 12.9609 16.7671C13.1263 18.2293 12.7907 19.7043 12.009 20.951C12.335 20.984 12.666 21 13 21C18.522 21 23 16.522 23 11C23 5.478 18.522 1 13 1ZM12 17.5C12 18.2223 11.8577 18.9375 11.5813 19.6048C11.3049 20.2721 10.8998 20.8784 10.3891 21.3891C9.87837 21.8998 9.27205 22.3049 8.60476 22.5813C7.93747 22.8577 7.22227 23 6.5 23C5.77773 23 5.06253 22.8577 4.39524 22.5813C3.72795 22.3049 3.12163 21.8998 2.61091 21.3891C2.10019 20.8784 1.69506 20.2721 1.41866 19.6048C1.14226 18.9375 1 18.2223 1 17.5C1 16.0413 1.57946 14.6424 2.61091 13.6109C3.64236 12.5795 5.04131 12 6.5 12C7.95869 12 9.35764 12.5795 10.3891 13.6109C11.4205 14.6424 12 16.0413 12 17.5ZM4.5 20.5C4.63261 20.5 4.75979 20.4473 4.85355 20.3536C4.94732 20.2598 5 20.1326 5 20V15C5 14.8674 4.94732 14.7402 4.85355 14.6464C4.75979 14.5527 4.63261 14.5 4.5 14.5C4.36739 14.5 4.24021 14.5527 4.14645 14.6464C4.05268 14.7402 4 14.8674 4 15V20C4 20.1326 4.05268 20.2598 4.14645 20.3536C4.24021 20.4473 4.36739 20.5 4.5 20.5ZM8.5 20.5C8.63261 20.5 8.75979 20.4473 8.85355 20.3536C8.94732 20.2598 9 20.1326 9 20V15C9 14.8674 8.94732 14.7402 8.85355 14.6464C8.75979 14.5527 8.63261 14.5 8.5 14.5C8.36739 14.5 8.24021 14.5527 8.14645 14.6464C8.05268 14.7402 8 14.8674 8 15V20C8 20.1326 8.05268 20.2598 8.14645 20.3536C8.24021 20.4473 8.36739 20.5 8.5 20.5Z" fill="#999999"/>
    </svg>
    