<svg width="36" height="36" viewBox="0 0 36 36" fill="none" xmlns="http://www.w3.org/2000/svg">
    <rect width="36" height="36" rx="18" fill="white"/>
    <path d="M28.5326 24.0018L23.5012 18.9704C22.5087 17.9779 21.0264 17.7846 19.8319 18.3732L15.2517 13.793V11.1248L9.752 7L7.00215 9.74985L11.1269 15.2495H13.7951L18.3753 19.8298C17.791 21.0242 17.9801 22.5066 18.9726 23.4991L24.0039 28.5304C24.6312 29.1578 25.6453 29.1578 26.2683 28.5304L28.5326 26.2661C29.1556 25.6388 29.1556 24.6248 28.5326 24.0018ZM21.2541 16.6674C22.47 16.6674 23.6129 17.1401 24.4723 17.9994L25.3058 18.8329C25.9847 18.5365 26.6292 18.124 27.1877 17.5654C28.7818 15.9714 29.3232 13.7285 28.8162 11.6919C28.7216 11.3052 28.2361 11.172 27.9525 11.4556L24.7558 14.6523L21.8384 14.1668L21.3529 11.2494L24.5496 8.05268C24.8332 7.7691 24.6957 7.28358 24.3047 7.18476C22.2681 6.68205 20.0253 7.22343 18.4355 8.81318C17.211 10.0377 16.6352 11.6533 16.6653 13.2645L20.1928 16.792C20.5408 16.7104 20.9018 16.6674 21.2541 16.6674ZM16.7899 20.1907L14.3537 17.7545L7.80562 24.3068C6.73146 25.381 6.73146 27.1211 7.80562 28.1953C8.87978 29.2695 10.6199 29.2695 11.6941 28.1953L17.0047 22.8847C16.6782 22.0296 16.5793 21.0973 16.7899 20.1907ZM9.752 27.2801C9.18484 27.2801 8.7208 26.8161 8.7208 26.2489C8.7208 25.6775 9.18054 25.2177 9.752 25.2177C10.3234 25.2177 10.7832 25.6775 10.7832 26.2489C10.7832 26.8161 10.3234 27.2801 9.752 27.2801Z" fill="#999999"/>
    </svg>
    