<svg width="36" height="36" viewBox="0 0 36 36" fill="none" xmlns="http://www.w3.org/2000/svg">
    <rect width="36" height="36" rx="18" fill="white"/>
    <path fill-rule="evenodd" clip-rule="evenodd" d="M25.0583 8.81728C24.5015 8.29233 23.7652 7.99996 23 8H13L12.824 8.005C12.0601 8.04989 11.3423 8.38499 10.8173 8.94174C10.2923 9.49849 9.99997 10.2348 10 11V23L9.87901 23.007C9.65638 23.0337 9.44919 23.1344 9.29069 23.293C9.1322 23.4516 9.03161 23.6589 9.00507 23.8816C8.97854 24.1042 9.02761 24.3293 9.14439 24.5207C9.26117 24.7121 9.43889 24.8587 9.64901 24.937L17.649 27.937L17.787 27.977C17.975 28.0179 18.1709 28.0036 18.351 27.936L26.351 24.936L26.458 24.89C26.6579 24.7876 26.8175 24.6209 26.9111 24.4167C27.0047 24.2125 27.0268 23.9828 26.9739 23.7645C26.921 23.5462 26.7962 23.3521 26.6195 23.2134C26.4428 23.0747 26.2246 22.9995 26 23V11L25.995 10.824C25.9501 10.0601 25.615 9.34224 25.0583 8.81728ZM16.4367 15.9923C16.6451 15.7839 16.9277 15.6668 17.2224 15.6668V17.8892C16.9277 17.8892 16.6451 17.7721 16.4367 17.5637C16.2283 17.3554 16.1112 17.0727 16.1112 16.778C16.1112 16.4833 16.2283 16.2007 16.4367 15.9923ZM18.3336 14V14.5556C18.7933 14.5556 19.2416 14.6981 19.6169 14.9635C19.9923 15.2288 20.2761 15.604 20.4293 16.0374C20.4561 16.1067 20.4686 16.1807 20.4663 16.2549C20.4639 16.3292 20.4467 16.4022 20.4156 16.4697C20.3845 16.5372 20.3402 16.5977 20.2853 16.6478C20.2304 16.6978 20.1661 16.7364 20.096 16.7611C20.026 16.7859 19.9517 16.7963 19.8775 16.7919C19.8034 16.7874 19.7309 16.7681 19.6643 16.7351C19.5977 16.7021 19.5385 16.6562 19.49 16.5999C19.4415 16.5436 19.4048 16.4781 19.382 16.4074C19.2287 15.9752 18.817 15.6668 18.3336 15.6668V17.8892C18.923 17.8892 19.4883 18.1234 19.9051 18.5401C20.3219 18.9569 20.556 19.5222 20.556 20.1116C20.556 20.701 20.3219 21.2663 19.9051 21.6831C19.4883 22.0999 18.923 22.334 18.3336 22.334V22.8896H17.2224V22.334C16.7627 22.334 16.3144 22.1915 15.9391 21.9262C15.5638 21.6608 15.2799 21.2856 15.1267 20.8522C15.1 20.7829 15.0874 20.709 15.0898 20.6347C15.0921 20.5604 15.1094 20.4874 15.1404 20.4199C15.1715 20.3525 15.2158 20.2919 15.2707 20.2418C15.3256 20.1918 15.3899 20.1532 15.46 20.1285C15.53 20.1037 15.6043 20.0933 15.6785 20.0978C15.7526 20.1022 15.8252 20.1215 15.8917 20.1545C15.9583 20.1875 16.0176 20.2335 16.066 20.2898C16.1145 20.346 16.1512 20.4115 16.174 20.4822C16.3273 20.9145 16.739 21.2228 17.2224 21.2228V19.0004C16.633 19.0004 16.0677 18.7663 15.6509 18.3495C15.2341 17.9327 15 17.3674 15 16.778C15 16.1886 15.2341 15.6233 15.6509 15.2065C16.0677 14.7897 16.633 14.5556 17.2224 14.5556V14H18.3336ZM18.3336 21.2228V19.0004C18.6283 19.0004 18.911 19.1175 19.1193 19.3259C19.3277 19.5343 19.4448 19.8169 19.4448 20.1116C19.4448 20.4063 19.3277 20.689 19.1193 20.8974C18.911 21.1058 18.6283 21.2228 18.3336 21.2228Z" fill="#999999"/>
    </svg>
    