<svg id="Shipping" xmlns="http://www.w3.org/2000/svg" width="18" height="18" viewBox="0 0 18 18">
  <rect id="Container" width="18" height="18" fill="none"/>
  <path id="shipping-2" data-name="shipping" d="M17.78,23.837a.313.313,0,0,1-.249.1H16.16a2.1,2.1,0,0,0-3.222-1.062V17h3.078a.713.713,0,0,1,.654.541l.058.3H14.9a.561.561,0,0,0-.558.563v2.063a.561.561,0,0,0,.558.563h2.44l.489,2.543A.313.313,0,0,1,17.78,23.837Zm-2.391,1.038a1.266,1.266,0,0,1-2.5-.282,1.266,1.266,0,0,1,2.531,0A1.268,1.268,0,0,1,15.389,24.875ZM17.2,20.281h-2.1V18.594h1.779ZM12,23.938H7.535a2.108,2.108,0,0,0-4.007,0H2.438v-9H12v9Zm-5.236.938a1.244,1.244,0,1,1,.033-.281A1.267,1.267,0,0,1,6.764,24.875ZM18.752,23.4l-1.161-6.034a1.648,1.648,0,0,0-1.575-1.3H12.938V14.656A.657.657,0,0,0,12.281,14H2.156a.657.657,0,0,0-.656.656v9.562a.657.657,0,0,0,.656.656H3.443a2.107,2.107,0,0,0,4.177,0h4.448a2.107,2.107,0,0,0,4.177,0h1.287A1.215,1.215,0,0,0,18.752,23.4Z" transform="translate(-1.125 -11.375)"/>
</svg>
