<svg width="100" height="100" viewBox="0 0 100 100" fill="none" xmlns="http://www.w3.org/2000/svg">
<path d="M84.2273 24H60.5V90H89.5V29.28C89.5 27.8797 88.9445 26.5367 87.9557 25.5465C86.9668 24.5563 85.6257 24 84.2273 24ZM71.0455 68.88H65.7727V63.6H71.0455V68.88ZM71.0455 55.68H65.7727V50.4H71.0455V55.68ZM71.0455 42.48H65.7727V37.2H71.0455V42.48ZM81.5909 68.88H76.3182V63.6H81.5909V68.88ZM81.5909 55.68H76.3182V50.4H81.5909V55.68ZM81.5909 42.48H76.3182V37.2H81.5909V42.48Z" fill="#5d7d2b"/>
<path d="M48.935 11H18.065C16.5891 11 15.1736 11.5882 14.13 12.6351C13.0863 13.6821 12.5 15.1021 12.5 16.5827V90H25.625V82.1H41.375V90H54.5V16.5827C54.5 15.1021 53.9137 13.6821 52.87 12.6351C51.8264 11.5882 50.4109 11 48.935 11ZM25.625 68.9333H20.375V63.6667H25.625V68.9333ZM25.625 55.7667H20.375V50.5H25.625V55.7667ZM25.625 42.6H20.375V37.3333H25.625V42.6ZM25.625 29.4333H20.375V24.1667H25.625V29.4333ZM36.125 68.9333H30.875V63.6667H36.125V68.9333ZM36.125 55.7667H30.875V50.5H36.125V55.7667ZM36.125 42.6H30.875V37.3333H36.125V42.6ZM36.125 29.4333H30.875V24.1667H36.125V29.4333ZM46.625 68.9333H41.375V63.6667H46.625V68.9333ZM46.625 55.7667H41.375V50.5H46.625V55.7667ZM46.625 42.6H41.375V37.3333H46.625V42.6ZM46.625 29.4333H41.375V24.1667H46.625V29.4333Z" fill="#5d7d2b"/>
</svg>
