<svg width="100" height="100" viewBox="0 0 100 100" fill="none" xmlns="http://www.w3.org/2000/svg">
<rect width="100" height="100" fill="#252525"/>
<g clip-path="url(#clip0_0_1)">
<rect width="1920" height="1000" transform="translate(-1092 -309)" fill="white"/>
<mask id="path-1-inside-1_0_1" fill="white">
<path d="M-467 -309H828V2195H-467V-309Z"/>
</mask>
<path d="M-467 -309H828V2195H-467V-309Z" fill="white"/>
<path d="M-466 2195V-309H-468V2195H-466Z" fill="#E5E5E5" mask="url(#path-1-inside-1_0_1)"/>
<g clip-path="url(#clip1_0_1)">
<g clip-path="url(#clip2_0_1)">
<path fill-rule="evenodd" clip-rule="evenodd" d="M16.6667 6.66667C14.0145 6.66667 11.471 7.72024 9.5956 9.5956C7.72024 11.471 6.66667 14.0145 6.66667 16.6667V33.3333H0V16.6667C0 12.2464 1.75595 8.00716 4.88155 4.88155C8.00716 1.75595 12.2464 0 16.6667 0L33.3333 0V6.66667H16.6667ZM83.3333 6.66667H66.6667V0H83.3333C87.7536 0 91.9928 1.75595 95.1184 4.88155C98.244 8.00716 100 12.2464 100 16.6667V33.3333H93.3333V16.6667C93.3333 14.0145 92.2798 11.471 90.4044 9.5956C88.529 7.72024 85.9855 6.66667 83.3333 6.66667ZM0 83.3333V66.6667H6.66667V83.3333C6.66667 85.9855 7.72024 88.529 9.5956 90.4044C11.471 92.2798 14.0145 93.3333 16.6667 93.3333H33.3333V100H16.6667C12.2464 100 8.00716 98.244 4.88155 95.1184C1.75595 91.9928 0 87.7536 0 83.3333ZM100 66.6667V83.3333C100 87.7536 98.244 91.9928 95.1184 95.1184C91.9928 98.244 87.7536 100 83.3333 100H66.6667V93.3333H83.3333C85.9855 93.3333 88.529 92.2798 90.4044 90.4044C92.2798 88.529 93.3333 85.9855 93.3333 83.3333V66.6667H100Z" fill="#F2F2F2"/>
<path d="M50 26C56.6187 26 62 31.4934 62 38.25C62 45.0066 56.6187 50.5 50 50.5C43.3813 50.5 38 45.0066 38 38.25C38 31.4934 43.3813 26 50 26ZM71 71.325C71 73.3539 69.125 75 66.8 75H33.2C30.875 75 29 73.3539 29 71.325V67.65C29 61.5633 34.6437 56.625 41.6 56.625H42.5375C44.8437 57.6012 47.3563 58.1562 50 58.1562C52.6437 58.1562 55.175 57.6012 57.4625 56.625H58.4C65.3563 56.625 71 61.5633 71 67.65V71.325Z" fill="#5d7d2b"/>
</g>
</g>
<path d="M-405 -79H505V-81H-405V-79Z" fill="#E5E5E5" mask="url(#path-3-inside-2_0_1)"/>
</g>
<defs>
<clipPath id="clip0_0_1">
<rect width="1920" height="1000" fill="white" transform="translate(-1092 -309)"/>
</clipPath>
<clipPath id="clip1_0_1">
<rect width="100" height="100" fill="white"/>
</clipPath>
<clipPath id="clip2_0_1">
<rect width="100" height="100" fill="white"/>
</clipPath>
</defs>
</svg>
