<svg width="690" height="271" viewBox="0 0 690 271" fill="none" xmlns="http://www.w3.org/2000/svg">
<mask id="path-1-inside-1_0_8" fill="white">
<path d="M0 0H690V40H0V0Z"/>
</mask>
<path d="M0 0H690V40H0V0Z" fill="white"/>
<path d="M690 39H0V41H690V39Z" fill="#E5E5E5" mask="url(#path-1-inside-1_0_8)"/>
<mask id="path-3-inside-2_0_8" fill="white">
<path d="M0 40H690V80H0V40Z"/>
</mask>
<path d="M0 40H690V80H0V40Z" fill="white"/>
<path d="M690 79H0V81H690V79Z" fill="#E5E5E5" mask="url(#path-3-inside-2_0_8)"/>
<mask id="path-5-inside-3_0_8" fill="white">
<path d="M0 80H690V120H0V80Z"/>
</mask>
<path d="M0 80H690V120H0V80Z" fill="white"/>
<path d="M690 119H0V121H690V119Z" fill="#E5E5E5" mask="url(#path-5-inside-3_0_8)"/>
<mask id="path-7-inside-4_0_8" fill="white">
<path d="M0 120H690V160H0V120Z"/>
</mask>
<path d="M0 120H690V160H0V120Z" fill="white"/>
<path d="M690 159H0V161H690V159Z" fill="#444444" mask="url(#path-7-inside-4_0_8)"/>
<g clip-path="url(#clip0_0_8)">
<rect x="41" y="80" width="16" height="70" rx="8" fill="white"/>
<line x1="34.6464" y1="80.9316" x2="62.9307" y2="52.6473" stroke="#CCCCCC"/>
<line x1="34.6464" y1="87.9316" x2="62.9307" y2="59.6473" stroke="#CCCCCC"/>
<line x1="34.6464" y1="94.9316" x2="62.9307" y2="66.6473" stroke="#CCCCCC"/>
<line x1="34.6464" y1="101.932" x2="62.9307" y2="73.6473" stroke="#CCCCCC"/>
<line x1="34.6464" y1="108.932" x2="62.9307" y2="80.6473" stroke="#CCCCCC"/>
<line x1="34.6464" y1="115.932" x2="62.9307" y2="87.6473" stroke="#CCCCCC"/>
<line x1="34.6464" y1="122.932" x2="62.9307" y2="94.6473" stroke="#CCCCCC"/>
<line x1="34.6464" y1="129.932" x2="62.9307" y2="101.647" stroke="#CCCCCC"/>
<line x1="34.6464" y1="136.932" x2="62.9307" y2="108.647" stroke="#CCCCCC"/>
<line x1="34.6464" y1="143.932" x2="62.9307" y2="115.647" stroke="#CCCCCC"/>
<line x1="34.6464" y1="150.932" x2="62.9307" y2="122.647" stroke="#CCCCCC"/>
<line x1="34.6464" y1="157.932" x2="62.9307" y2="129.647" stroke="#CCCCCC"/>
<line x1="34.6464" y1="164.932" x2="62.9307" y2="136.647" stroke="#CCCCCC"/>
<line x1="34.6464" y1="171.932" x2="62.9307" y2="143.647" stroke="#CCCCCC"/>
</g>
<rect x="41.5" y="80.5" width="15" height="69" rx="7.5" stroke="#CCCCCC"/>
<g clip-path="url(#clip1_0_8)">
<rect x="115" y="80" width="16" height="70" rx="8" fill="white"/>
<line x1="108.646" y1="80.9316" x2="136.931" y2="52.6473" stroke="#CCCCCC"/>
<line x1="108.646" y1="87.9316" x2="136.931" y2="59.6473" stroke="#CCCCCC"/>
<line x1="108.646" y1="94.9316" x2="136.931" y2="66.6473" stroke="#CCCCCC"/>
<line x1="108.646" y1="101.932" x2="136.931" y2="73.6473" stroke="#CCCCCC"/>
<line x1="108.646" y1="108.932" x2="136.931" y2="80.6473" stroke="#CCCCCC"/>
<line x1="108.646" y1="115.932" x2="136.931" y2="87.6473" stroke="#CCCCCC"/>
<line x1="108.646" y1="122.932" x2="136.931" y2="94.6473" stroke="#CCCCCC"/>
<line x1="108.646" y1="129.932" x2="136.931" y2="101.647" stroke="#CCCCCC"/>
<line x1="108.646" y1="136.932" x2="136.931" y2="108.647" stroke="#CCCCCC"/>
<line x1="108.646" y1="143.932" x2="136.931" y2="115.647" stroke="#CCCCCC"/>
<line x1="108.646" y1="150.932" x2="136.931" y2="122.647" stroke="#CCCCCC"/>
<line x1="108.646" y1="157.932" x2="136.931" y2="129.647" stroke="#CCCCCC"/>
<line x1="108.646" y1="164.932" x2="136.931" y2="136.647" stroke="#CCCCCC"/>
<line x1="108.646" y1="171.932" x2="136.931" y2="143.647" stroke="#CCCCCC"/>
</g>
<rect x="115.5" y="80.5" width="15" height="69" rx="7.5" stroke="#CCCCCC"/>
<g clip-path="url(#clip2_0_8)">
<rect x="189" y="80" width="16" height="70" rx="8" fill="white"/>
<line x1="182.646" y1="80.9316" x2="210.931" y2="52.6473" stroke="#CCCCCC"/>
<line x1="182.646" y1="87.9316" x2="210.931" y2="59.6473" stroke="#CCCCCC"/>
<line x1="182.646" y1="94.9316" x2="210.931" y2="66.6473" stroke="#CCCCCC"/>
<line x1="182.646" y1="101.932" x2="210.931" y2="73.6473" stroke="#CCCCCC"/>
<line x1="182.646" y1="108.932" x2="210.931" y2="80.6473" stroke="#CCCCCC"/>
<line x1="182.646" y1="115.932" x2="210.931" y2="87.6473" stroke="#CCCCCC"/>
<line x1="182.646" y1="122.932" x2="210.931" y2="94.6473" stroke="#CCCCCC"/>
<line x1="182.646" y1="129.932" x2="210.931" y2="101.647" stroke="#CCCCCC"/>
<line x1="182.646" y1="136.932" x2="210.931" y2="108.647" stroke="#CCCCCC"/>
<line x1="182.646" y1="143.932" x2="210.931" y2="115.647" stroke="#CCCCCC"/>
<line x1="182.646" y1="150.932" x2="210.931" y2="122.647" stroke="#CCCCCC"/>
<line x1="182.646" y1="157.932" x2="210.931" y2="129.647" stroke="#CCCCCC"/>
<line x1="182.646" y1="164.932" x2="210.931" y2="136.647" stroke="#CCCCCC"/>
<line x1="182.646" y1="171.932" x2="210.931" y2="143.647" stroke="#CCCCCC"/>
</g>
<rect x="189.5" y="80.5" width="15" height="69" rx="7.5" stroke="#CCCCCC"/>
<g clip-path="url(#clip3_0_8)">
<rect x="263" width="16" height="150" rx="8" fill="white"/>
<line x1="256.646" y1="19.789" x2="284.931" y2="-8.49525" stroke="#CCCCCC"/>
<line x1="256.646" y1="26.9316" x2="284.931" y2="-1.35267" stroke="#CCCCCC"/>
<line x1="256.646" y1="33.9316" x2="284.931" y2="5.64733" stroke="#CCCCCC"/>
<line x1="256.646" y1="40.9316" x2="284.931" y2="12.6473" stroke="#CCCCCC"/>
<line x1="256.646" y1="47.9316" x2="284.931" y2="19.6473" stroke="#CCCCCC"/>
<line x1="256.646" y1="54.9316" x2="284.931" y2="26.6473" stroke="#CCCCCC"/>
<line x1="256.646" y1="61.9316" x2="284.931" y2="33.6473" stroke="#CCCCCC"/>
<line x1="256.646" y1="68.9316" x2="284.931" y2="40.6473" stroke="#CCCCCC"/>
<line x1="256.646" y1="75.9316" x2="284.931" y2="47.6473" stroke="#CCCCCC"/>
<line x1="256.646" y1="82.9316" x2="284.931" y2="54.6473" stroke="#CCCCCC"/>
<line x1="256.646" y1="89.9316" x2="284.931" y2="61.6473" stroke="#CCCCCC"/>
<line x1="256.646" y1="96.9316" x2="284.931" y2="68.6473" stroke="#CCCCCC"/>
<line x1="256.646" y1="103.932" x2="284.931" y2="75.6473" stroke="#CCCCCC"/>
<line x1="256.646" y1="110.932" x2="284.931" y2="82.6473" stroke="#CCCCCC"/>
<line x1="256.646" y1="117.932" x2="284.931" y2="89.6473" stroke="#CCCCCC"/>
<line x1="256.646" y1="124.932" x2="284.931" y2="96.6473" stroke="#CCCCCC"/>
<line x1="256.646" y1="131.932" x2="284.931" y2="103.647" stroke="#CCCCCC"/>
<line x1="256.646" y1="138.932" x2="284.931" y2="110.647" stroke="#CCCCCC"/>
<line x1="256.646" y1="145.932" x2="284.931" y2="117.647" stroke="#CCCCCC"/>
<line x1="256.646" y1="152.932" x2="284.931" y2="124.647" stroke="#CCCCCC"/>
<line x1="256.646" y1="159.932" x2="284.931" y2="131.647" stroke="#CCCCCC"/>
</g>
<rect x="263.5" y="0.5" width="15" height="149" rx="7.5" stroke="#CCCCCC"/>
<rect x="263" y="80" width="16" height="70" rx="8" fill="#00AAD2"/>
<g clip-path="url(#clip4_0_8)">
<rect x="337" width="16" height="150" rx="8" fill="white"/>
<line x1="330.646" y1="19.789" x2="358.931" y2="-8.49525" stroke="#CCCCCC"/>
<line x1="330.646" y1="26.9316" x2="358.931" y2="-1.35267" stroke="#CCCCCC"/>
<line x1="330.646" y1="33.9316" x2="358.931" y2="5.64733" stroke="#CCCCCC"/>
<line x1="330.646" y1="40.9316" x2="358.931" y2="12.6473" stroke="#CCCCCC"/>
<line x1="330.646" y1="47.9316" x2="358.931" y2="19.6473" stroke="#CCCCCC"/>
<line x1="330.646" y1="54.9316" x2="358.931" y2="26.6473" stroke="#CCCCCC"/>
<line x1="330.646" y1="61.9316" x2="358.931" y2="33.6473" stroke="#CCCCCC"/>
<line x1="330.646" y1="68.9316" x2="358.931" y2="40.6473" stroke="#CCCCCC"/>
<line x1="330.646" y1="75.9316" x2="358.931" y2="47.6473" stroke="#CCCCCC"/>
<line x1="330.646" y1="82.9316" x2="358.931" y2="54.6473" stroke="#CCCCCC"/>
<line x1="330.646" y1="89.9316" x2="358.931" y2="61.6473" stroke="#CCCCCC"/>
<line x1="330.646" y1="96.9316" x2="358.931" y2="68.6473" stroke="#CCCCCC"/>
<line x1="330.646" y1="103.932" x2="358.931" y2="75.6473" stroke="#CCCCCC"/>
<line x1="330.646" y1="110.932" x2="358.931" y2="82.6473" stroke="#CCCCCC"/>
<line x1="330.646" y1="117.932" x2="358.931" y2="89.6473" stroke="#CCCCCC"/>
<line x1="330.646" y1="124.932" x2="358.931" y2="96.6473" stroke="#CCCCCC"/>
<line x1="330.646" y1="131.932" x2="358.931" y2="103.647" stroke="#CCCCCC"/>
<line x1="330.646" y1="138.932" x2="358.931" y2="110.647" stroke="#CCCCCC"/>
<line x1="330.646" y1="145.932" x2="358.931" y2="117.647" stroke="#CCCCCC"/>
<line x1="330.646" y1="152.932" x2="358.931" y2="124.647" stroke="#CCCCCC"/>
<line x1="330.646" y1="159.932" x2="358.931" y2="131.647" stroke="#CCCCCC"/>
</g>
<rect x="337.5" y="0.5" width="15" height="149" rx="7.5" stroke="#CCCCCC"/>
<rect x="337" y="68" width="16" height="82" rx="8" fill="#00AAD2"/>
<g clip-path="url(#clip5_0_8)">
<rect x="411" width="16" height="150" rx="8" fill="white"/>
<line x1="404.646" y1="19.789" x2="432.931" y2="-8.49525" stroke="#CCCCCC"/>
<line x1="404.646" y1="26.9316" x2="432.931" y2="-1.35267" stroke="#CCCCCC"/>
<line x1="404.646" y1="33.9316" x2="432.931" y2="5.64733" stroke="#CCCCCC"/>
<line x1="404.646" y1="40.9316" x2="432.931" y2="12.6473" stroke="#CCCCCC"/>
<line x1="404.646" y1="47.9316" x2="432.931" y2="19.6473" stroke="#CCCCCC"/>
<line x1="404.646" y1="54.9316" x2="432.931" y2="26.6473" stroke="#CCCCCC"/>
<line x1="404.646" y1="61.9316" x2="432.931" y2="33.6473" stroke="#CCCCCC"/>
<line x1="404.646" y1="68.9316" x2="432.931" y2="40.6473" stroke="#CCCCCC"/>
<line x1="404.646" y1="75.9316" x2="432.931" y2="47.6473" stroke="#CCCCCC"/>
<line x1="404.646" y1="82.9316" x2="432.931" y2="54.6473" stroke="#CCCCCC"/>
<line x1="404.646" y1="89.9316" x2="432.931" y2="61.6473" stroke="#CCCCCC"/>
<line x1="404.646" y1="96.9316" x2="432.931" y2="68.6473" stroke="#CCCCCC"/>
<line x1="404.646" y1="103.932" x2="432.931" y2="75.6473" stroke="#CCCCCC"/>
<line x1="404.646" y1="110.932" x2="432.931" y2="82.6473" stroke="#CCCCCC"/>
<line x1="404.646" y1="117.932" x2="432.931" y2="89.6473" stroke="#CCCCCC"/>
<line x1="404.646" y1="124.932" x2="432.931" y2="96.6473" stroke="#CCCCCC"/>
<line x1="404.646" y1="131.932" x2="432.931" y2="103.647" stroke="#CCCCCC"/>
<line x1="404.646" y1="138.932" x2="432.931" y2="110.647" stroke="#CCCCCC"/>
<line x1="404.646" y1="145.932" x2="432.931" y2="117.647" stroke="#CCCCCC"/>
<line x1="404.646" y1="152.932" x2="432.931" y2="124.647" stroke="#CCCCCC"/>
<line x1="404.646" y1="159.932" x2="432.931" y2="131.647" stroke="#CCCCCC"/>
</g>
<rect x="411.5" y="0.5" width="15" height="149" rx="7.5" stroke="#CCCCCC"/>
<rect x="411" y="56" width="16" height="94" rx="8" fill="#00AAD2"/>
<g clip-path="url(#clip6_0_8)">
<rect x="485" width="16" height="150" rx="8" fill="white"/>
<line x1="478.646" y1="19.789" x2="506.931" y2="-8.49525" stroke="#CCCCCC"/>
<line x1="478.646" y1="26.9316" x2="506.931" y2="-1.35267" stroke="#CCCCCC"/>
<line x1="478.646" y1="33.9316" x2="506.931" y2="5.64733" stroke="#CCCCCC"/>
<line x1="478.646" y1="40.9316" x2="506.931" y2="12.6473" stroke="#CCCCCC"/>
<line x1="478.646" y1="47.9316" x2="506.931" y2="19.6473" stroke="#CCCCCC"/>
<line x1="478.646" y1="54.9316" x2="506.931" y2="26.6473" stroke="#CCCCCC"/>
<line x1="478.646" y1="61.9316" x2="506.931" y2="33.6473" stroke="#CCCCCC"/>
<line x1="478.646" y1="68.9316" x2="506.931" y2="40.6473" stroke="#CCCCCC"/>
<line x1="478.646" y1="75.9316" x2="506.931" y2="47.6473" stroke="#CCCCCC"/>
<line x1="478.646" y1="82.9316" x2="506.931" y2="54.6473" stroke="#CCCCCC"/>
<line x1="478.646" y1="89.9316" x2="506.931" y2="61.6473" stroke="#CCCCCC"/>
<line x1="478.646" y1="96.9316" x2="506.931" y2="68.6473" stroke="#CCCCCC"/>
<line x1="478.646" y1="103.932" x2="506.931" y2="75.6473" stroke="#CCCCCC"/>
<line x1="478.646" y1="110.932" x2="506.931" y2="82.6473" stroke="#CCCCCC"/>
<line x1="478.646" y1="117.932" x2="506.931" y2="89.6473" stroke="#CCCCCC"/>
<line x1="478.646" y1="124.932" x2="506.931" y2="96.6473" stroke="#CCCCCC"/>
<line x1="478.646" y1="131.932" x2="506.931" y2="103.647" stroke="#CCCCCC"/>
<line x1="478.646" y1="138.932" x2="506.931" y2="110.647" stroke="#CCCCCC"/>
<line x1="478.646" y1="145.932" x2="506.931" y2="117.647" stroke="#CCCCCC"/>
<line x1="478.646" y1="152.932" x2="506.931" y2="124.647" stroke="#CCCCCC"/>
<line x1="478.646" y1="159.932" x2="506.931" y2="131.647" stroke="#CCCCCC"/>
</g>
<rect x="485.5" y="0.5" width="15" height="149" rx="7.5" stroke="#CCCCCC"/>
<rect x="485" y="44" width="16" height="106" rx="8" fill="#00AAD2"/>
<g clip-path="url(#clip7_0_8)">
<rect x="559" width="16" height="150" rx="8" fill="white"/>
<line x1="552.646" y1="19.789" x2="580.931" y2="-8.49525" stroke="#CCCCCC"/>
<line x1="552.646" y1="26.9316" x2="580.931" y2="-1.35267" stroke="#CCCCCC"/>
<line x1="552.646" y1="33.9316" x2="580.931" y2="5.64733" stroke="#CCCCCC"/>
<line x1="552.646" y1="40.9316" x2="580.931" y2="12.6473" stroke="#CCCCCC"/>
<line x1="552.646" y1="47.9316" x2="580.931" y2="19.6473" stroke="#CCCCCC"/>
<line x1="552.646" y1="54.9316" x2="580.931" y2="26.6473" stroke="#CCCCCC"/>
<line x1="552.646" y1="61.9316" x2="580.931" y2="33.6473" stroke="#CCCCCC"/>
<line x1="552.646" y1="68.9316" x2="580.931" y2="40.6473" stroke="#CCCCCC"/>
<line x1="552.646" y1="75.9316" x2="580.931" y2="47.6473" stroke="#CCCCCC"/>
<line x1="552.646" y1="82.9316" x2="580.931" y2="54.6473" stroke="#CCCCCC"/>
<line x1="552.646" y1="89.9316" x2="580.931" y2="61.6473" stroke="#CCCCCC"/>
<line x1="552.646" y1="96.9316" x2="580.931" y2="68.6473" stroke="#CCCCCC"/>
<line x1="552.646" y1="103.932" x2="580.931" y2="75.6473" stroke="#CCCCCC"/>
<line x1="552.646" y1="110.932" x2="580.931" y2="82.6473" stroke="#CCCCCC"/>
<line x1="552.646" y1="117.932" x2="580.931" y2="89.6473" stroke="#CCCCCC"/>
<line x1="552.646" y1="124.932" x2="580.931" y2="96.6473" stroke="#CCCCCC"/>
<line x1="552.646" y1="131.932" x2="580.931" y2="103.647" stroke="#CCCCCC"/>
<line x1="552.646" y1="138.932" x2="580.931" y2="110.647" stroke="#CCCCCC"/>
<line x1="552.646" y1="145.932" x2="580.931" y2="117.647" stroke="#CCCCCC"/>
<line x1="552.646" y1="152.932" x2="580.931" y2="124.647" stroke="#CCCCCC"/>
<line x1="552.646" y1="159.932" x2="580.931" y2="131.647" stroke="#CCCCCC"/>
</g>
<rect x="559.5" y="0.5" width="15" height="149" rx="7.5" stroke="#CCCCCC"/>
<rect x="559" y="32" width="16" height="118" rx="8" fill="#00AAD2"/>
<g clip-path="url(#clip8_0_8)">
<rect x="633" width="16" height="150" rx="8" fill="white"/>
<line x1="626.646" y1="19.789" x2="654.931" y2="-8.49525" stroke="#CCCCCC"/>
<line x1="626.646" y1="26.9316" x2="654.931" y2="-1.35267" stroke="#CCCCCC"/>
<line x1="626.646" y1="33.9316" x2="654.931" y2="5.64733" stroke="#CCCCCC"/>
<line x1="626.646" y1="40.9316" x2="654.931" y2="12.6473" stroke="#CCCCCC"/>
<line x1="626.646" y1="47.9316" x2="654.931" y2="19.6473" stroke="#CCCCCC"/>
<line x1="626.646" y1="54.9316" x2="654.931" y2="26.6473" stroke="#CCCCCC"/>
<line x1="626.646" y1="61.9316" x2="654.931" y2="33.6473" stroke="#CCCCCC"/>
<line x1="626.646" y1="68.9316" x2="654.931" y2="40.6473" stroke="#CCCCCC"/>
<line x1="626.646" y1="75.9316" x2="654.931" y2="47.6473" stroke="#CCCCCC"/>
<line x1="626.646" y1="82.9316" x2="654.931" y2="54.6473" stroke="#CCCCCC"/>
<line x1="626.646" y1="89.9316" x2="654.931" y2="61.6473" stroke="#CCCCCC"/>
<line x1="626.646" y1="96.9316" x2="654.931" y2="68.6473" stroke="#CCCCCC"/>
<line x1="626.646" y1="103.932" x2="654.931" y2="75.6473" stroke="#CCCCCC"/>
<line x1="626.646" y1="110.932" x2="654.931" y2="82.6473" stroke="#CCCCCC"/>
<line x1="626.646" y1="117.932" x2="654.931" y2="89.6473" stroke="#CCCCCC"/>
<line x1="626.646" y1="124.932" x2="654.931" y2="96.6473" stroke="#CCCCCC"/>
<line x1="626.646" y1="131.932" x2="654.931" y2="103.647" stroke="#CCCCCC"/>
<line x1="626.646" y1="138.932" x2="654.931" y2="110.647" stroke="#CCCCCC"/>
<line x1="626.646" y1="145.932" x2="654.931" y2="117.647" stroke="#CCCCCC"/>
<line x1="626.646" y1="152.932" x2="654.931" y2="124.647" stroke="#CCCCCC"/>
<line x1="626.646" y1="159.932" x2="654.931" y2="131.647" stroke="#CCCCCC"/>
</g>
<rect x="633.5" y="0.5" width="15" height="149" rx="7.5" stroke="#CCCCCC"/>
<rect x="633" y="20" width="16" height="130" rx="8" fill="#00AAD2"/>
<path d="M48.815 192.006H50.901V193H45.567V192.006H47.695V185.104L45.917 186.21L45.469 185.342L47.947 183.816H48.815V192.006Z" fill="black"/>
<path d="M125.383 185.734C125.178 185.417 124.916 185.165 124.599 184.978C124.282 184.782 123.918 184.684 123.507 184.684C122.76 184.684 122.149 184.978 121.673 185.566C121.197 186.145 120.931 186.994 120.875 188.114C121.118 187.722 121.44 187.405 121.841 187.162C122.242 186.91 122.732 186.784 123.311 186.784C123.722 186.784 124.109 186.863 124.473 187.022C124.837 187.181 125.154 187.4 125.425 187.68C125.705 187.96 125.924 188.296 126.083 188.688C126.242 189.08 126.321 189.505 126.321 189.962C126.321 190.429 126.237 190.858 126.069 191.25C125.901 191.633 125.672 191.969 125.383 192.258C125.103 192.538 124.767 192.757 124.375 192.916C123.992 193.075 123.582 193.154 123.143 193.154C122.592 193.154 122.107 193.047 121.687 192.832C121.267 192.617 120.917 192.314 120.637 191.922C120.357 191.521 120.142 191.045 119.993 190.494C119.853 189.934 119.783 189.313 119.783 188.632C119.783 187.857 119.872 187.162 120.049 186.546C120.226 185.93 120.474 185.412 120.791 184.992C121.118 184.563 121.51 184.236 121.967 184.012C122.424 183.779 122.938 183.662 123.507 183.662C124.132 183.662 124.669 183.807 125.117 184.096C125.565 184.385 125.915 184.726 126.167 185.118L125.383 185.734ZM121.155 189.976C121.155 190.611 121.332 191.129 121.687 191.53C122.051 191.931 122.536 192.132 123.143 192.132C123.759 192.132 124.249 191.931 124.613 191.53C124.977 191.129 125.159 190.611 125.159 189.976C125.159 189.659 125.108 189.365 125.005 189.094C124.912 188.823 124.776 188.595 124.599 188.408C124.431 188.221 124.221 188.077 123.969 187.974C123.726 187.862 123.451 187.806 123.143 187.806C122.844 187.806 122.569 187.862 122.317 187.974C122.074 188.077 121.864 188.221 121.687 188.408C121.519 188.595 121.388 188.823 121.295 189.094C121.202 189.365 121.155 189.659 121.155 189.976Z" fill="black"/>
<path d="M193.898 192.006H195.984V193H190.65V192.006H192.778V185.104L191 186.21L190.552 185.342L193.03 183.816H193.898V192.006ZM198.05 185.748C198.115 185.515 198.218 185.277 198.358 185.034C198.498 184.782 198.68 184.553 198.904 184.348C199.128 184.143 199.394 183.979 199.702 183.858C200.01 183.727 200.369 183.662 200.78 183.662C201.228 183.662 201.625 183.732 201.97 183.872C202.325 184.003 202.623 184.189 202.866 184.432C203.118 184.675 203.309 184.964 203.44 185.3C203.571 185.636 203.636 186.009 203.636 186.42C203.636 186.887 203.547 187.316 203.37 187.708C203.202 188.091 202.983 188.445 202.712 188.772C202.441 189.099 202.138 189.407 201.802 189.696C201.475 189.976 201.153 190.247 200.836 190.508C200.528 190.76 200.239 191.012 199.968 191.264C199.707 191.507 199.511 191.754 199.38 192.006H203.748V193H197.994V192.174C198.171 191.782 198.405 191.423 198.694 191.096C198.983 190.76 199.291 190.443 199.618 190.144C199.954 189.845 200.29 189.561 200.626 189.29C200.971 189.01 201.279 188.725 201.55 188.436C201.821 188.137 202.04 187.829 202.208 187.512C202.385 187.195 202.474 186.845 202.474 186.462C202.474 185.921 202.334 185.491 202.054 185.174C201.783 184.847 201.349 184.684 200.752 184.684C199.847 184.684 199.254 185.188 198.974 186.196L198.05 185.748Z" fill="black"/>
<path d="M639.466 185.734C639.261 185.417 638.999 185.165 638.682 184.978C638.365 184.782 638.001 184.684 637.59 184.684C636.843 184.684 636.232 184.978 635.756 185.566C635.28 186.145 635.014 186.994 634.958 188.114C635.201 187.722 635.523 187.405 635.924 187.162C636.325 186.91 636.815 186.784 637.394 186.784C637.805 186.784 638.192 186.863 638.556 187.022C638.92 187.181 639.237 187.4 639.508 187.68C639.788 187.96 640.007 188.296 640.166 188.688C640.325 189.08 640.404 189.505 640.404 189.962C640.404 190.429 640.32 190.858 640.152 191.25C639.984 191.633 639.755 191.969 639.466 192.258C639.186 192.538 638.85 192.757 638.458 192.916C638.075 193.075 637.665 193.154 637.226 193.154C636.675 193.154 636.19 193.047 635.77 192.832C635.35 192.617 635 192.314 634.72 191.922C634.44 191.521 634.225 191.045 634.076 190.494C633.936 189.934 633.866 189.313 633.866 188.632C633.866 187.857 633.955 187.162 634.132 186.546C634.309 185.93 634.557 185.412 634.874 184.992C635.201 184.563 635.593 184.236 636.05 184.012C636.507 183.779 637.021 183.662 637.59 183.662C638.215 183.662 638.752 183.807 639.2 184.096C639.648 184.385 639.998 184.726 640.25 185.118L639.466 185.734ZM635.238 189.976C635.238 190.611 635.415 191.129 635.77 191.53C636.134 191.931 636.619 192.132 637.226 192.132C637.842 192.132 638.332 191.931 638.696 191.53C639.06 191.129 639.242 190.611 639.242 189.976C639.242 189.659 639.191 189.365 639.088 189.094C638.995 188.823 638.859 188.595 638.682 188.408C638.514 188.221 638.304 188.077 638.052 187.974C637.809 187.862 637.534 187.806 637.226 187.806C636.927 187.806 636.652 187.862 636.4 187.974C636.157 188.077 635.947 188.221 635.77 188.408C635.602 188.595 635.471 188.823 635.378 189.094C635.285 189.365 635.238 189.659 635.238 189.976ZM644.92 193.154C644.397 193.154 643.935 193.047 643.534 192.832C643.133 192.608 642.797 192.291 642.526 191.88C642.255 191.469 642.05 190.97 641.91 190.382C641.77 189.794 641.7 189.136 641.7 188.408C641.7 187.68 641.77 187.022 641.91 186.434C642.05 185.846 642.255 185.347 642.526 184.936C642.797 184.525 643.133 184.213 643.534 183.998C643.935 183.774 644.397 183.662 644.92 183.662C645.443 183.662 645.905 183.774 646.306 183.998C646.707 184.213 647.043 184.525 647.314 184.936C647.585 185.347 647.79 185.846 647.93 186.434C648.07 187.022 648.14 187.68 648.14 188.408C648.14 189.136 648.07 189.794 647.93 190.382C647.79 190.97 647.585 191.469 647.314 191.88C647.043 192.291 646.707 192.608 646.306 192.832C645.905 193.047 645.443 193.154 644.92 193.154ZM644.92 192.132C646.292 192.132 646.978 190.891 646.978 188.408C646.978 185.925 646.292 184.684 644.92 184.684C643.548 184.684 642.862 185.925 642.862 188.408C642.862 190.891 643.548 192.132 644.92 192.132Z" fill="black"/>
<g clip-path="url(#clip9_0_8)">
<path d="M21.65 258.65L18.86 255.86C18.54 255.54 18 255.76 18 256.21V258H4C3.45 258 3 258.45 3 259C3 259.55 3.45 260 4 260H18V261.79C18 262.24 18.54 262.46 18.85 262.14L21.64 259.35C21.84 259.16 21.84 258.84 21.65 258.65Z" fill="black"/>
</g>
<path d="M33.4654 253.98H34.6274V263.5H33.4654V253.98ZM37.1783 256.556H38.2563V257.508C38.3496 257.368 38.4663 257.233 38.6063 257.102C38.7463 256.971 38.9049 256.855 39.0823 256.752C39.2689 256.649 39.4696 256.565 39.6843 256.5C39.8989 256.435 40.1276 256.402 40.3703 256.402C41.1823 256.402 41.8029 256.645 42.2323 257.13C42.6709 257.615 42.8903 258.297 42.8903 259.174V263.5H41.7703V259.286C41.7703 258.661 41.6209 258.189 41.3223 257.872C41.0329 257.555 40.6223 257.396 40.0903 257.396C39.6143 257.396 39.2223 257.522 38.9143 257.774C38.6063 258.026 38.4009 258.315 38.2983 258.642V263.5H37.1783V256.556ZM48.636 258.166C48.4306 257.877 48.202 257.671 47.95 257.55C47.698 257.419 47.4226 257.354 47.124 257.354C46.7786 257.354 46.5173 257.452 46.34 257.648C46.1626 257.835 46.074 258.054 46.074 258.306C46.074 258.81 46.3726 259.127 46.97 259.258L47.558 259.384C48.2206 259.524 48.734 259.757 49.098 260.084C49.4713 260.401 49.658 260.868 49.658 261.484C49.658 261.764 49.5973 262.035 49.476 262.296C49.364 262.557 49.196 262.791 48.972 262.996C48.748 263.192 48.4726 263.351 48.146 263.472C47.8193 263.593 47.4506 263.654 47.04 263.654C46.732 263.654 46.4473 263.612 46.186 263.528C45.9246 263.453 45.682 263.351 45.458 263.22C45.2433 263.089 45.0473 262.935 44.87 262.758C44.6926 262.581 44.5433 262.399 44.422 262.212L45.15 261.54C45.3553 261.848 45.6166 262.119 45.934 262.352C46.2513 262.585 46.6293 262.702 47.068 262.702C47.516 262.702 47.8706 262.599 48.132 262.394C48.3933 262.189 48.524 261.909 48.524 261.554C48.524 261.227 48.4073 260.98 48.174 260.812C47.9406 260.644 47.628 260.518 47.236 260.434L46.648 260.308C46.0973 260.187 45.6726 259.967 45.374 259.65C45.0846 259.333 44.94 258.922 44.94 258.418C44.94 258.157 44.9866 257.905 45.08 257.662C45.1826 257.41 45.3273 257.195 45.514 257.018C45.7006 256.831 45.934 256.682 46.214 256.57C46.494 256.458 46.8113 256.402 47.166 256.402C47.6513 256.402 48.0806 256.505 48.454 256.71C48.8273 256.915 49.1306 257.191 49.364 257.536L48.636 258.166ZM53.9887 263.556C53.27 263.556 52.7287 263.379 52.3647 263.024C52.0007 262.66 51.8187 262.081 51.8187 261.288V257.508H50.5727V256.556H51.8327V254.75H52.9387V256.556H54.4927V257.508H52.9387V261.288C52.9387 261.764 53.046 262.095 53.2607 262.282C53.4753 262.469 53.8207 262.562 54.2967 262.562H54.4927V263.514C54.3527 263.542 54.1847 263.556 53.9887 263.556ZM58.2122 263.654C57.8202 263.654 57.4655 263.593 57.1482 263.472C56.8308 263.351 56.5602 263.187 56.3362 262.982C56.1215 262.777 55.9535 262.539 55.8322 262.268C55.7108 261.988 55.6502 261.689 55.6502 261.372C55.6502 261.055 55.7108 260.761 55.8322 260.49C55.9535 260.21 56.1215 259.967 56.3362 259.762C56.5602 259.557 56.8308 259.393 57.1482 259.272C57.4655 259.151 57.8202 259.09 58.2122 259.09C58.5762 259.09 58.9262 259.16 59.2622 259.3C59.5982 259.431 59.8922 259.631 60.1442 259.902V259.202C60.1442 258.698 60.0042 258.273 59.7242 257.928C59.4535 257.573 59.0288 257.396 58.4502 257.396C58.0395 257.396 57.7082 257.466 57.4562 257.606C57.2042 257.746 56.9522 257.937 56.7002 258.18L56.0562 257.452C56.1775 257.321 56.3128 257.195 56.4622 257.074C56.6208 256.943 56.7982 256.831 56.9942 256.738C57.1902 256.635 57.4095 256.556 57.6522 256.5C57.8948 256.435 58.1702 256.402 58.4782 256.402C58.9355 256.402 59.3368 256.467 59.6822 256.598C60.0275 256.729 60.3168 256.915 60.5502 257.158C60.7835 257.391 60.9608 257.676 61.0822 258.012C61.2035 258.348 61.2642 258.717 61.2642 259.118V263.5H60.1862V262.814C59.9248 263.094 59.6215 263.304 59.2762 263.444C58.9402 263.584 58.5855 263.654 58.2122 263.654ZM58.3662 262.716C58.6835 262.716 59.0102 262.651 59.3462 262.52C59.6915 262.389 59.9575 262.165 60.1442 261.848V260.896C59.9575 260.588 59.6915 260.369 59.3462 260.238C59.0102 260.098 58.6835 260.028 58.3662 260.028C58.0862 260.028 57.8435 260.07 57.6382 260.154C57.4422 260.229 57.2788 260.331 57.1482 260.462C57.0268 260.593 56.9335 260.737 56.8682 260.896C56.8122 261.055 56.7842 261.213 56.7842 261.372C56.7842 261.531 56.8122 261.689 56.8682 261.848C56.9335 262.007 57.0268 262.151 57.1482 262.282C57.2788 262.413 57.4422 262.52 57.6382 262.604C57.8435 262.679 58.0862 262.716 58.3662 262.716ZM64.603 253.56V263.5H63.483V253.56H64.603ZM68.0209 253.56V263.5H66.9009V253.56H68.0209ZM70.3189 256.556H71.3969V257.508C71.4902 257.368 71.6069 257.233 71.7469 257.102C71.8869 256.971 72.0456 256.855 72.2229 256.752C72.4096 256.649 72.6102 256.565 72.8249 256.5C73.0396 256.435 73.2682 256.402 73.5109 256.402C74.0242 256.402 74.4582 256.509 74.8129 256.724C75.1769 256.929 75.4522 257.233 75.6389 257.634C75.7229 257.485 75.8396 257.34 75.9889 257.2C76.1382 257.051 76.3109 256.92 76.5069 256.808C76.7029 256.687 76.9222 256.589 77.1649 256.514C77.4076 256.439 77.6642 256.402 77.9349 256.402C78.7376 256.402 79.3536 256.645 79.7829 257.13C80.2122 257.606 80.4269 258.278 80.4269 259.146V263.5H79.3069V259.258C79.3069 258.642 79.1669 258.18 78.8869 257.872C78.6162 257.555 78.2289 257.396 77.7249 257.396C77.2489 257.396 76.8569 257.522 76.5489 257.774C76.2409 258.026 76.0356 258.315 75.9329 258.642V263.5H74.8129V259.258C74.8129 258.642 74.6729 258.18 74.3929 257.872C74.1222 257.555 73.7349 257.396 73.2309 257.396C72.7549 257.396 72.3629 257.522 72.0549 257.774C71.7469 258.026 71.5416 258.315 71.4389 258.642V263.5H70.3189V256.556ZM85.3953 263.654C84.9006 263.654 84.4573 263.57 84.0653 263.402C83.6733 263.234 83.3373 262.991 83.0573 262.674C82.7866 262.357 82.5766 261.979 82.4273 261.54C82.2779 261.092 82.2033 260.588 82.2033 260.028C82.2033 259.477 82.2779 258.978 82.4273 258.53C82.5766 258.082 82.7866 257.704 83.0573 257.396C83.3373 257.079 83.6686 256.836 84.0513 256.668C84.4433 256.491 84.8773 256.402 85.3533 256.402C85.8199 256.402 86.2399 256.491 86.6133 256.668C86.9866 256.836 87.3039 257.074 87.5653 257.382C87.8266 257.681 88.0273 258.04 88.1673 258.46C88.3073 258.88 88.3773 259.337 88.3773 259.832C88.3773 260.028 88.3633 260.21 88.3353 260.378H83.3793C83.4259 261.106 83.6313 261.671 83.9953 262.072C84.3593 262.464 84.8493 262.66 85.4653 262.66C85.8946 262.66 86.2773 262.571 86.6133 262.394C86.9493 262.217 87.2199 261.965 87.4253 261.638L88.1813 262.268C87.9199 262.66 87.5606 262.991 87.1033 263.262C86.6553 263.523 86.0859 263.654 85.3953 263.654ZM85.3533 257.396C84.8213 257.396 84.3826 257.573 84.0373 257.928C83.6919 258.273 83.4773 258.773 83.3933 259.426H87.2013C87.1639 258.801 86.9773 258.306 86.6413 257.942C86.3146 257.578 85.8853 257.396 85.3533 257.396ZM90.1705 256.556H91.2485V257.508C91.3418 257.368 91.4585 257.233 91.5985 257.102C91.7385 256.971 91.8971 256.855 92.0745 256.752C92.2611 256.649 92.4618 256.565 92.6765 256.5C92.8911 256.435 93.1198 256.402 93.3625 256.402C94.1745 256.402 94.7951 256.645 95.2245 257.13C95.6631 257.615 95.8825 258.297 95.8825 259.174V263.5H94.7625V259.286C94.7625 258.661 94.6131 258.189 94.3145 257.872C94.0251 257.555 93.6145 257.396 93.0825 257.396C92.6065 257.396 92.2145 257.522 91.9065 257.774C91.5985 258.026 91.3931 258.315 91.2905 258.642V263.5H90.1705V256.556ZM100.692 263.556C99.9731 263.556 99.4318 263.379 99.0678 263.024C98.7038 262.66 98.5218 262.081 98.5218 261.288V257.508H97.2758V256.556H98.5358V254.75H99.6418V256.556H101.196V257.508H99.6418V261.288C99.6418 261.764 99.7491 262.095 99.9638 262.282C100.178 262.469 100.524 262.562 101 262.562H101.196V263.514C101.056 263.542 100.888 263.556 100.692 263.556ZM106.18 256.556H107.258V257.55C107.51 257.195 107.828 256.915 108.21 256.71C108.602 256.505 109.022 256.402 109.47 256.402C109.928 256.402 110.343 256.491 110.716 256.668C111.09 256.845 111.407 257.093 111.668 257.41C111.939 257.727 112.144 258.11 112.284 258.558C112.424 259.006 112.494 259.496 112.494 260.028C112.494 260.56 112.424 261.05 112.284 261.498C112.144 261.946 111.939 262.329 111.668 262.646C111.407 262.963 111.09 263.211 110.716 263.388C110.343 263.565 109.928 263.654 109.47 263.654C109.032 263.654 108.621 263.556 108.238 263.36C107.865 263.164 107.552 262.903 107.3 262.576V266.132H106.18V256.556ZM109.232 262.66C109.895 262.66 110.408 262.427 110.772 261.96C111.146 261.493 111.332 260.849 111.332 260.028C111.332 259.207 111.146 258.563 110.772 258.096C110.408 257.629 109.895 257.396 109.232 257.396C108.794 257.396 108.402 257.513 108.056 257.746C107.711 257.979 107.459 258.283 107.3 258.656V261.414C107.459 261.787 107.711 262.091 108.056 262.324C108.402 262.548 108.794 262.66 109.232 262.66ZM117.114 263.654C116.619 263.654 116.176 263.57 115.784 263.402C115.392 263.234 115.056 262.991 114.776 262.674C114.505 262.357 114.295 261.979 114.146 261.54C113.997 261.092 113.922 260.588 113.922 260.028C113.922 259.477 113.997 258.978 114.146 258.53C114.295 258.082 114.505 257.704 114.776 257.396C115.056 257.079 115.387 256.836 115.77 256.668C116.162 256.491 116.596 256.402 117.072 256.402C117.539 256.402 117.959 256.491 118.332 256.668C118.705 256.836 119.023 257.074 119.284 257.382C119.545 257.681 119.746 258.04 119.886 258.46C120.026 258.88 120.096 259.337 120.096 259.832C120.096 260.028 120.082 260.21 120.054 260.378H115.098C115.145 261.106 115.35 261.671 115.714 262.072C116.078 262.464 116.568 262.66 117.184 262.66C117.613 262.66 117.996 262.571 118.332 262.394C118.668 262.217 118.939 261.965 119.144 261.638L119.9 262.268C119.639 262.66 119.279 262.991 118.822 263.262C118.374 263.523 117.805 263.654 117.114 263.654ZM117.072 257.396C116.54 257.396 116.101 257.573 115.756 257.928C115.411 258.273 115.196 258.773 115.112 259.426H118.92C118.883 258.801 118.696 258.306 118.36 257.942C118.033 257.578 117.604 257.396 117.072 257.396ZM121.889 256.556H122.967V257.802C123.154 257.419 123.42 257.093 123.765 256.822C124.111 256.542 124.531 256.402 125.025 256.402C125.072 256.402 125.119 256.402 125.165 256.402C125.221 256.402 125.273 256.411 125.319 256.43V257.564H124.941C124.475 257.564 124.078 257.69 123.751 257.942C123.425 258.194 123.177 258.586 123.009 259.118V263.5H121.889V256.556ZM127.917 256.556V263.5H126.797V256.556H127.917ZM128.057 253.56V254.96H126.657V253.56H128.057ZM133.043 262.66C133.687 262.66 134.201 262.431 134.583 261.974C134.966 261.507 135.157 260.859 135.157 260.028C135.157 259.197 134.966 258.553 134.583 258.096C134.201 257.629 133.687 257.396 133.043 257.396C132.399 257.396 131.886 257.629 131.503 258.096C131.121 258.553 130.929 259.197 130.929 260.028C130.929 260.859 131.121 261.507 131.503 261.974C131.886 262.431 132.399 262.66 133.043 262.66ZM133.043 256.402C133.538 256.402 133.986 256.491 134.387 256.668C134.798 256.845 135.143 257.093 135.423 257.41C135.713 257.727 135.932 258.11 136.081 258.558C136.24 259.006 136.319 259.496 136.319 260.028C136.319 260.56 136.24 261.05 136.081 261.498C135.932 261.946 135.713 262.329 135.423 262.646C135.143 262.963 134.798 263.211 134.387 263.388C133.986 263.565 133.538 263.654 133.043 263.654C132.549 263.654 132.096 263.565 131.685 263.388C131.284 263.211 130.939 262.963 130.649 262.646C130.369 262.329 130.15 261.946 129.991 261.498C129.842 261.05 129.767 260.56 129.767 260.028C129.767 259.496 129.842 259.006 129.991 258.558C130.15 258.11 130.369 257.727 130.649 257.41C130.939 257.093 131.284 256.845 131.685 256.668C132.096 256.491 132.549 256.402 133.043 256.402ZM142.974 262.52C142.713 262.875 142.391 263.155 142.008 263.36C141.626 263.556 141.21 263.654 140.762 263.654C140.296 263.654 139.876 263.565 139.502 263.388C139.138 263.211 138.821 262.963 138.55 262.646C138.289 262.329 138.088 261.946 137.948 261.498C137.808 261.05 137.738 260.56 137.738 260.028C137.738 259.496 137.808 259.006 137.948 258.558C138.088 258.11 138.289 257.727 138.55 257.41C138.821 257.093 139.138 256.845 139.502 256.668C139.876 256.491 140.296 256.402 140.762 256.402C141.201 256.402 141.607 256.5 141.98 256.696C142.354 256.892 142.671 257.158 142.932 257.494V253.56H144.052V263.5H142.974V262.52ZM141 262.66C141.439 262.66 141.831 262.548 142.176 262.324C142.522 262.091 142.774 261.787 142.932 261.414V258.656C142.774 258.283 142.522 257.979 142.176 257.746C141.831 257.513 141.439 257.396 141 257.396C140.338 257.396 139.82 257.629 139.446 258.096C139.082 258.563 138.9 259.207 138.9 260.028C138.9 260.849 139.082 261.493 139.446 261.96C139.82 262.427 140.338 262.66 141 262.66ZM149.237 259.846C149.237 259.006 149.326 258.255 149.503 257.592C149.68 256.92 149.909 256.332 150.189 255.828C150.469 255.324 150.777 254.895 151.113 254.54C151.458 254.176 151.794 253.873 152.121 253.63L152.681 254.33C152.364 254.591 152.065 254.895 151.785 255.24C151.505 255.585 151.258 255.982 151.043 256.43C150.838 256.878 150.674 257.387 150.553 257.956C150.432 258.516 150.371 259.146 150.371 259.846C150.371 260.546 150.432 261.181 150.553 261.75C150.674 262.31 150.838 262.814 151.043 263.262C151.258 263.71 151.505 264.107 151.785 264.452C152.065 264.797 152.364 265.101 152.681 265.362L152.121 266.062C151.794 265.829 151.458 265.53 151.113 265.166C150.777 264.802 150.469 264.368 150.189 263.864C149.909 263.36 149.68 262.777 149.503 262.114C149.326 261.442 149.237 260.686 149.237 259.846ZM153.786 256.556H154.864V257.508C154.957 257.368 155.074 257.233 155.214 257.102C155.354 256.971 155.512 256.855 155.69 256.752C155.876 256.649 156.077 256.565 156.292 256.5C156.506 256.435 156.735 256.402 156.978 256.402C157.491 256.402 157.925 256.509 158.28 256.724C158.644 256.929 158.919 257.233 159.106 257.634C159.19 257.485 159.306 257.34 159.456 257.2C159.605 257.051 159.778 256.92 159.974 256.808C160.17 256.687 160.389 256.589 160.632 256.514C160.874 256.439 161.131 256.402 161.402 256.402C162.204 256.402 162.82 256.645 163.25 257.13C163.679 257.606 163.894 258.278 163.894 259.146V263.5H162.774V259.258C162.774 258.642 162.634 258.18 162.354 257.872C162.083 257.555 161.696 257.396 161.192 257.396C160.716 257.396 160.324 257.522 160.016 257.774C159.708 258.026 159.502 258.315 159.4 258.642V263.5H158.28V259.258C158.28 258.642 158.14 258.18 157.86 257.872C157.589 257.555 157.202 257.396 156.698 257.396C156.222 257.396 155.83 257.522 155.522 257.774C155.214 258.026 155.008 258.315 154.906 258.642V263.5H153.786V256.556ZM168.932 262.66C169.576 262.66 170.089 262.431 170.472 261.974C170.855 261.507 171.046 260.859 171.046 260.028C171.046 259.197 170.855 258.553 170.472 258.096C170.089 257.629 169.576 257.396 168.932 257.396C168.288 257.396 167.775 257.629 167.392 258.096C167.009 258.553 166.818 259.197 166.818 260.028C166.818 260.859 167.009 261.507 167.392 261.974C167.775 262.431 168.288 262.66 168.932 262.66ZM168.932 256.402C169.427 256.402 169.875 256.491 170.276 256.668C170.687 256.845 171.032 257.093 171.312 257.41C171.601 257.727 171.821 258.11 171.97 258.558C172.129 259.006 172.208 259.496 172.208 260.028C172.208 260.56 172.129 261.05 171.97 261.498C171.821 261.946 171.601 262.329 171.312 262.646C171.032 262.963 170.687 263.211 170.276 263.388C169.875 263.565 169.427 263.654 168.932 263.654C168.437 263.654 167.985 263.565 167.574 263.388C167.173 263.211 166.827 262.963 166.538 262.646C166.258 262.329 166.039 261.946 165.88 261.498C165.731 261.05 165.656 260.56 165.656 260.028C165.656 259.496 165.731 259.006 165.88 258.558C166.039 258.11 166.258 257.727 166.538 257.41C166.827 257.093 167.173 256.845 167.574 256.668C167.985 256.491 168.437 256.402 168.932 256.402ZM174.061 256.556H175.139V257.508C175.232 257.368 175.349 257.233 175.489 257.102C175.629 256.971 175.788 256.855 175.965 256.752C176.152 256.649 176.352 256.565 176.567 256.5C176.782 256.435 177.01 256.402 177.253 256.402C178.065 256.402 178.686 256.645 179.115 257.13C179.554 257.615 179.773 258.297 179.773 259.174V263.5H178.653V259.286C178.653 258.661 178.504 258.189 178.205 257.872C177.916 257.555 177.505 257.396 176.973 257.396C176.497 257.396 176.105 257.522 175.797 257.774C175.489 258.026 175.284 258.315 175.181 258.642V263.5H174.061V256.556ZM184.582 263.556C183.864 263.556 183.322 263.379 182.958 263.024C182.594 262.66 182.412 262.081 182.412 261.288V257.508H181.166V256.556H182.426V254.75H183.532V256.556H185.086V257.508H183.532V261.288C183.532 261.764 183.64 262.095 183.854 262.282C184.069 262.469 184.414 262.562 184.89 262.562H185.086V263.514C184.946 263.542 184.778 263.556 184.582 263.556ZM186.776 253.56H187.896V257.438C188.083 257.177 188.358 256.939 188.722 256.724C189.086 256.509 189.501 256.402 189.968 256.402C190.78 256.402 191.401 256.645 191.83 257.13C192.269 257.615 192.488 258.297 192.488 259.174V263.5H191.368V259.286C191.368 258.661 191.219 258.189 190.92 257.872C190.631 257.555 190.22 257.396 189.688 257.396C189.212 257.396 188.82 257.522 188.512 257.774C188.204 258.026 187.999 258.315 187.896 258.642V263.5H186.776V253.56ZM198.234 258.166C198.028 257.877 197.8 257.671 197.548 257.55C197.296 257.419 197.02 257.354 196.722 257.354C196.376 257.354 196.115 257.452 195.938 257.648C195.76 257.835 195.672 258.054 195.672 258.306C195.672 258.81 195.97 259.127 196.568 259.258L197.156 259.384C197.818 259.524 198.332 259.757 198.696 260.084C199.069 260.401 199.256 260.868 199.256 261.484C199.256 261.764 199.195 262.035 199.074 262.296C198.962 262.557 198.794 262.791 198.57 262.996C198.346 263.192 198.07 263.351 197.744 263.472C197.417 263.593 197.048 263.654 196.638 263.654C196.33 263.654 196.045 263.612 195.784 263.528C195.522 263.453 195.28 263.351 195.056 263.22C194.841 263.089 194.645 262.935 194.468 262.758C194.29 262.581 194.141 262.399 194.02 262.212L194.748 261.54C194.953 261.848 195.214 262.119 195.532 262.352C195.849 262.585 196.227 262.702 196.666 262.702C197.114 262.702 197.468 262.599 197.73 262.394C197.991 262.189 198.122 261.909 198.122 261.554C198.122 261.227 198.005 260.98 197.772 260.812C197.538 260.644 197.226 260.518 196.834 260.434L196.246 260.308C195.695 260.187 195.27 259.967 194.972 259.65C194.682 259.333 194.538 258.922 194.538 258.418C194.538 258.157 194.584 257.905 194.678 257.662C194.78 257.41 194.925 257.195 195.112 257.018C195.298 256.831 195.532 256.682 195.812 256.57C196.092 256.458 196.409 256.402 196.764 256.402C197.249 256.402 197.678 256.505 198.052 256.71C198.425 256.915 198.728 257.191 198.962 257.536L198.234 258.166ZM203.19 259.846C203.19 260.686 203.096 261.442 202.91 262.114C202.732 262.777 202.504 263.36 202.224 263.864C201.944 264.368 201.631 264.802 201.286 265.166C200.95 265.53 200.623 265.829 200.306 266.062L199.746 265.362C200.063 265.101 200.362 264.797 200.642 264.452C200.922 264.107 201.164 263.71 201.37 263.262C201.584 262.814 201.752 262.31 201.874 261.75C201.995 261.181 202.056 260.546 202.056 259.846C202.056 259.146 201.995 258.516 201.874 257.956C201.752 257.387 201.584 256.878 201.37 256.43C201.164 255.982 200.922 255.585 200.642 255.24C200.362 254.895 200.063 254.591 199.746 254.33L200.306 253.63C200.623 253.873 200.95 254.176 201.286 254.54C201.631 254.895 201.944 255.324 202.224 255.828C202.504 256.332 202.732 256.92 202.91 257.592C203.096 258.255 203.19 259.006 203.19 259.846Z" fill="black"/>
<g clip-path="url(#clip10_0_8)">
<rect x="366" y="251.5" width="16" height="16" rx="8" fill="white"/>
<line x1="359.646" y1="253.432" x2="387.931" y2="225.147" stroke="#CCCCCC"/>
<line x1="359.646" y1="260.432" x2="387.931" y2="232.147" stroke="#CCCCCC"/>
<line x1="359.646" y1="267.432" x2="387.931" y2="239.147" stroke="#CCCCCC"/>
<line x1="359.646" y1="274.432" x2="387.931" y2="246.147" stroke="#CCCCCC"/>
<line x1="359.646" y1="281.432" x2="387.931" y2="253.147" stroke="#CCCCCC"/>
<line x1="359.646" y1="288.432" x2="387.931" y2="260.147" stroke="#CCCCCC"/>
<line x1="359.646" y1="295.432" x2="387.931" y2="267.147" stroke="#CCCCCC"/>
</g>
<rect x="366.5" y="252" width="15" height="15" rx="7.5" stroke="#CCCCCC"/>
<path d="M366 259.5H382C382 263.918 378.418 267.5 374 267.5C369.582 267.5 366 263.918 366 259.5Z" fill="#00AAD2"/>
<path d="M393.566 257.592C393.482 257.396 393.402 257.205 393.328 257.018C393.262 256.822 393.202 256.645 393.146 256.486C393.09 256.327 393.043 256.192 393.006 256.08C392.968 255.959 392.945 255.87 392.936 255.814H392.894C392.903 255.861 392.908 255.949 392.908 256.08C392.917 256.201 392.922 256.351 392.922 256.528C392.931 256.696 392.936 256.883 392.936 257.088C392.945 257.293 392.95 257.499 392.95 257.704V263.5H391.788V253.98H393.272L396.044 260.882C396.146 261.134 396.235 261.377 396.31 261.61C396.394 261.834 396.436 261.997 396.436 262.1H396.478C396.478 261.997 396.515 261.834 396.59 261.61C396.664 261.377 396.753 261.134 396.856 260.882L399.628 253.98H401.112V263.5H399.95V257.704C399.95 257.499 399.95 257.293 399.95 257.088C399.959 256.883 399.964 256.696 399.964 256.528C399.973 256.351 399.978 256.201 399.978 256.08C399.987 255.949 399.996 255.861 400.006 255.814H399.964C399.954 255.87 399.931 255.959 399.894 256.08C399.856 256.192 399.81 256.327 399.754 256.486C399.698 256.645 399.632 256.822 399.558 257.018C399.492 257.205 399.418 257.396 399.334 257.592L396.996 263.5H395.904L393.566 257.592ZM406.409 262.66C407.053 262.66 407.566 262.431 407.949 261.974C408.331 261.507 408.523 260.859 408.523 260.028C408.523 259.197 408.331 258.553 407.949 258.096C407.566 257.629 407.053 257.396 406.409 257.396C405.765 257.396 405.251 257.629 404.869 258.096C404.486 258.553 404.295 259.197 404.295 260.028C404.295 260.859 404.486 261.507 404.869 261.974C405.251 262.431 405.765 262.66 406.409 262.66ZM406.409 256.402C406.903 256.402 407.351 256.491 407.753 256.668C408.163 256.845 408.509 257.093 408.789 257.41C409.078 257.727 409.297 258.11 409.447 258.558C409.605 259.006 409.685 259.496 409.685 260.028C409.685 260.56 409.605 261.05 409.447 261.498C409.297 261.946 409.078 262.329 408.789 262.646C408.509 262.963 408.163 263.211 407.753 263.388C407.351 263.565 406.903 263.654 406.409 263.654C405.914 263.654 405.461 263.565 405.051 263.388C404.649 263.211 404.304 262.963 404.015 262.646C403.735 262.329 403.515 261.946 403.357 261.498C403.207 261.05 403.133 260.56 403.133 260.028C403.133 259.496 403.207 259.006 403.357 258.558C403.515 258.11 403.735 257.727 404.015 257.41C404.304 257.093 404.649 256.845 405.051 256.668C405.461 256.491 405.914 256.402 406.409 256.402ZM411.538 256.556H412.616V257.508C412.709 257.368 412.826 257.233 412.966 257.102C413.106 256.971 413.264 256.855 413.442 256.752C413.628 256.649 413.829 256.565 414.044 256.5C414.258 256.435 414.487 256.402 414.73 256.402C415.542 256.402 416.162 256.645 416.592 257.13C417.03 257.615 417.25 258.297 417.25 259.174V263.5H416.13V259.286C416.13 258.661 415.98 258.189 415.682 257.872C415.392 257.555 414.982 257.396 414.45 257.396C413.974 257.396 413.582 257.522 413.274 257.774C412.966 258.026 412.76 258.315 412.658 258.642V263.5H411.538V256.556ZM422.059 263.556C421.34 263.556 420.799 263.379 420.435 263.024C420.071 262.66 419.889 262.081 419.889 261.288V257.508H418.643V256.556H419.903V254.75H421.009V256.556H422.563V257.508H421.009V261.288C421.009 261.764 421.116 262.095 421.331 262.282C421.546 262.469 421.891 262.562 422.367 262.562H422.563V263.514C422.423 263.542 422.255 263.556 422.059 263.556ZM424.252 253.56H425.372V257.438C425.559 257.177 425.834 256.939 426.198 256.724C426.562 256.509 426.978 256.402 427.444 256.402C428.256 256.402 428.877 256.645 429.306 257.13C429.745 257.615 429.964 258.297 429.964 259.174V263.5H428.844V259.286C428.844 258.661 428.695 258.189 428.396 257.872C428.107 257.555 427.696 257.396 427.164 257.396C426.688 257.396 426.296 257.522 425.988 257.774C425.68 258.026 425.475 258.315 425.372 258.642V263.5H424.252V253.56ZM433.302 253.56V263.5H432.182V253.56H433.302ZM437.518 262.8L434.83 256.556H436.034L437.63 260.532C437.733 260.793 437.821 261.041 437.896 261.274C437.98 261.507 438.022 261.675 438.022 261.778H438.064C438.101 261.591 438.148 261.405 438.204 261.218C438.26 261.022 438.339 260.793 438.442 260.532L439.926 256.556H441.144L437.308 266.132H436.09L437.518 262.8ZM445.922 256.556H447V257.55C447.252 257.195 447.57 256.915 447.952 256.71C448.344 256.505 448.764 256.402 449.212 256.402C449.67 256.402 450.085 256.491 450.458 256.668C450.832 256.845 451.149 257.093 451.41 257.41C451.681 257.727 451.886 258.11 452.026 258.558C452.166 259.006 452.236 259.496 452.236 260.028C452.236 260.56 452.166 261.05 452.026 261.498C451.886 261.946 451.681 262.329 451.41 262.646C451.149 262.963 450.832 263.211 450.458 263.388C450.085 263.565 449.67 263.654 449.212 263.654C448.774 263.654 448.363 263.556 447.98 263.36C447.607 263.164 447.294 262.903 447.042 262.576V266.132H445.922V256.556ZM448.974 262.66C449.637 262.66 450.15 262.427 450.514 261.96C450.888 261.493 451.074 260.849 451.074 260.028C451.074 259.207 450.888 258.563 450.514 258.096C450.15 257.629 449.637 257.396 448.974 257.396C448.536 257.396 448.144 257.513 447.798 257.746C447.453 257.979 447.201 258.283 447.042 258.656V261.414C447.201 261.787 447.453 262.091 447.798 262.324C448.144 262.548 448.536 262.66 448.974 262.66ZM456.128 263.654C455.736 263.654 455.382 263.593 455.064 263.472C454.747 263.351 454.476 263.187 454.252 262.982C454.038 262.777 453.87 262.539 453.748 262.268C453.627 261.988 453.566 261.689 453.566 261.372C453.566 261.055 453.627 260.761 453.748 260.49C453.87 260.21 454.038 259.967 454.252 259.762C454.476 259.557 454.747 259.393 455.064 259.272C455.382 259.151 455.736 259.09 456.128 259.09C456.492 259.09 456.842 259.16 457.178 259.3C457.514 259.431 457.808 259.631 458.06 259.902V259.202C458.06 258.698 457.92 258.273 457.64 257.928C457.37 257.573 456.945 257.396 456.366 257.396C455.956 257.396 455.624 257.466 455.372 257.606C455.12 257.746 454.868 257.937 454.616 258.18L453.972 257.452C454.094 257.321 454.229 257.195 454.378 257.074C454.537 256.943 454.714 256.831 454.91 256.738C455.106 256.635 455.326 256.556 455.568 256.5C455.811 256.435 456.086 256.402 456.394 256.402C456.852 256.402 457.253 256.467 457.598 256.598C457.944 256.729 458.233 256.915 458.466 257.158C458.7 257.391 458.877 257.676 458.998 258.012C459.12 258.348 459.18 258.717 459.18 259.118V263.5H458.102V262.814C457.841 263.094 457.538 263.304 457.192 263.444C456.856 263.584 456.502 263.654 456.128 263.654ZM456.282 262.716C456.6 262.716 456.926 262.651 457.262 262.52C457.608 262.389 457.874 262.165 458.06 261.848V260.896C457.874 260.588 457.608 260.369 457.262 260.238C456.926 260.098 456.6 260.028 456.282 260.028C456.002 260.028 455.76 260.07 455.554 260.154C455.358 260.229 455.195 260.331 455.064 260.462C454.943 260.593 454.85 260.737 454.784 260.896C454.728 261.055 454.7 261.213 454.7 261.372C454.7 261.531 454.728 261.689 454.784 261.848C454.85 262.007 454.943 262.151 455.064 262.282C455.195 262.413 455.358 262.52 455.554 262.604C455.76 262.679 456.002 262.716 456.282 262.716ZM463.085 262.8L460.397 256.556H461.601L463.197 260.532C463.299 260.793 463.388 261.041 463.463 261.274C463.547 261.507 463.589 261.675 463.589 261.778H463.631C463.668 261.591 463.715 261.405 463.771 261.218C463.827 261.022 463.906 260.793 464.009 260.532L465.493 256.556H466.711L462.875 266.132H461.657L463.085 262.8ZM468.194 256.556H469.272V257.508C469.365 257.368 469.482 257.233 469.622 257.102C469.762 256.971 469.921 256.855 470.098 256.752C470.285 256.649 470.485 256.565 470.7 256.5C470.915 256.435 471.143 256.402 471.386 256.402C471.899 256.402 472.333 256.509 472.688 256.724C473.052 256.929 473.327 257.233 473.514 257.634C473.598 257.485 473.715 257.34 473.864 257.2C474.013 257.051 474.186 256.92 474.382 256.808C474.578 256.687 474.797 256.589 475.04 256.514C475.283 256.439 475.539 256.402 475.81 256.402C476.613 256.402 477.229 256.645 477.658 257.13C478.087 257.606 478.302 258.278 478.302 259.146V263.5H477.182V259.258C477.182 258.642 477.042 258.18 476.762 257.872C476.491 257.555 476.104 257.396 475.6 257.396C475.124 257.396 474.732 257.522 474.424 257.774C474.116 258.026 473.911 258.315 473.808 258.642V263.5H472.688V259.258C472.688 258.642 472.548 258.18 472.268 257.872C471.997 257.555 471.61 257.396 471.106 257.396C470.63 257.396 470.238 257.522 469.93 257.774C469.622 258.026 469.417 258.315 469.314 258.642V263.5H468.194V256.556ZM483.27 263.654C482.776 263.654 482.332 263.57 481.94 263.402C481.548 263.234 481.212 262.991 480.932 262.674C480.662 262.357 480.452 261.979 480.302 261.54C480.153 261.092 480.078 260.588 480.078 260.028C480.078 259.477 480.153 258.978 480.302 258.53C480.452 258.082 480.662 257.704 480.932 257.396C481.212 257.079 481.544 256.836 481.926 256.668C482.318 256.491 482.752 256.402 483.228 256.402C483.695 256.402 484.115 256.491 484.488 256.668C484.862 256.836 485.179 257.074 485.44 257.382C485.702 257.681 485.902 258.04 486.042 258.46C486.182 258.88 486.252 259.337 486.252 259.832C486.252 260.028 486.238 260.21 486.21 260.378H481.254C481.301 261.106 481.506 261.671 481.87 262.072C482.234 262.464 482.724 262.66 483.34 262.66C483.77 262.66 484.152 262.571 484.488 262.394C484.824 262.217 485.095 261.965 485.3 261.638L486.056 262.268C485.795 262.66 485.436 262.991 484.978 263.262C484.53 263.523 483.961 263.654 483.27 263.654ZM483.228 257.396C482.696 257.396 482.258 257.573 481.912 257.928C481.567 258.273 481.352 258.773 481.268 259.426H485.076C485.039 258.801 484.852 258.306 484.516 257.942C484.19 257.578 483.76 257.396 483.228 257.396ZM488.045 256.556H489.123V257.508C489.217 257.368 489.333 257.233 489.473 257.102C489.613 256.971 489.772 256.855 489.949 256.752C490.136 256.649 490.337 256.565 490.551 256.5C490.766 256.435 490.995 256.402 491.237 256.402C492.049 256.402 492.67 256.645 493.099 257.13C493.538 257.615 493.757 258.297 493.757 259.174V263.5H492.637V259.286C492.637 258.661 492.488 258.189 492.189 257.872C491.9 257.555 491.489 257.396 490.957 257.396C490.481 257.396 490.089 257.522 489.781 257.774C489.473 258.026 489.268 258.315 489.165 258.642V263.5H488.045V256.556ZM498.567 263.556C497.848 263.556 497.307 263.379 496.943 263.024C496.579 262.66 496.397 262.081 496.397 261.288V257.508H495.151V256.556H496.411V254.75H497.517V256.556H499.071V257.508H497.517V261.288C497.517 261.764 497.624 262.095 497.839 262.282C498.053 262.469 498.399 262.562 498.875 262.562H499.071V263.514C498.931 263.542 498.763 263.556 498.567 263.556Z" fill="black"/>
<g clip-path="url(#clip11_0_8)">
<rect x="520" y="251.5" width="16" height="16" rx="8" fill="white"/>
<line x1="513.646" y1="253.432" x2="541.931" y2="225.147" stroke="#E5E5E5"/>
<line x1="513.646" y1="260.432" x2="541.931" y2="232.147" stroke="#E5E5E5"/>
<line x1="513.646" y1="267.432" x2="541.931" y2="239.147" stroke="#E5E5E5"/>
<line x1="513.646" y1="274.432" x2="541.931" y2="246.147" stroke="#E5E5E5"/>
<line x1="513.646" y1="281.432" x2="541.931" y2="253.147" stroke="#E5E5E5"/>
<line x1="513.646" y1="288.432" x2="541.931" y2="260.147" stroke="#E5E5E5"/>
<line x1="513.646" y1="295.432" x2="541.931" y2="267.147" stroke="#E5E5E5"/>
</g>
<rect x="520.5" y="252" width="15" height="15" rx="7.5" stroke="#E5E5E5"/>
<path d="M520 259.5C520 255.082 523.582 251.5 528 251.5C532.418 251.5 536 255.082 536 259.5C536 263.918 532.418 267.5 528 267.5C523.582 267.5 520 263.918 520 259.5Z" fill="#00AAD2"/>
<path d="M551.627 256.794C551.627 257.699 551.357 258.395 550.815 258.88C550.283 259.365 549.541 259.608 548.589 259.608H546.587V263.5H545.425V253.98H548.589C549.541 253.98 550.283 254.223 550.815 254.708C551.357 255.193 551.627 255.889 551.627 256.794ZM550.423 256.794C550.423 256.206 550.26 255.758 549.933 255.45C549.607 255.133 549.112 254.974 548.449 254.974H546.587V258.614H548.449C549.112 258.614 549.607 258.46 549.933 258.152C550.26 257.835 550.423 257.382 550.423 256.794ZM553.294 256.556H554.372V257.802C554.559 257.419 554.825 257.093 555.17 256.822C555.516 256.542 555.936 256.402 556.43 256.402C556.477 256.402 556.524 256.402 556.57 256.402C556.626 256.402 556.678 256.411 556.724 256.43V257.564H556.346C555.88 257.564 555.483 257.69 555.156 257.942C554.83 258.194 554.582 258.586 554.414 259.118V263.5H553.294V256.556ZM559.323 256.556V263.5H558.203V256.556H559.323ZM559.463 253.56V254.96H558.063V253.56H559.463ZM561.621 256.556H562.699V257.508C562.792 257.368 562.909 257.233 563.049 257.102C563.189 256.971 563.347 256.855 563.525 256.752C563.711 256.649 563.912 256.565 564.127 256.5C564.341 256.435 564.57 256.402 564.813 256.402C565.625 256.402 566.245 256.645 566.675 257.13C567.113 257.615 567.333 258.297 567.333 259.174V263.5H566.213V259.286C566.213 258.661 566.063 258.189 565.765 257.872C565.475 257.555 565.065 257.396 564.533 257.396C564.057 257.396 563.665 257.522 563.357 257.774C563.049 258.026 562.843 258.315 562.741 258.642V263.5H561.621V256.556ZM569.116 260.028C569.116 259.496 569.186 259.006 569.326 258.558C569.476 258.11 569.686 257.727 569.956 257.41C570.236 257.093 570.572 256.845 570.964 256.668C571.366 256.491 571.818 256.402 572.322 256.402C572.985 256.402 573.564 256.57 574.058 256.906C574.553 257.233 574.898 257.676 575.094 258.236L574.212 258.684C574.054 258.264 573.811 257.947 573.484 257.732C573.158 257.508 572.77 257.396 572.322 257.396C571.697 257.396 571.198 257.629 570.824 258.096C570.46 258.553 570.278 259.197 570.278 260.028C570.278 260.859 570.46 261.507 570.824 261.974C571.198 262.431 571.697 262.66 572.322 262.66C572.77 262.66 573.158 262.553 573.484 262.338C573.811 262.114 574.054 261.792 574.212 261.372L575.094 261.82C574.898 262.38 574.553 262.828 574.058 263.164C573.564 263.491 572.985 263.654 572.322 263.654C571.818 263.654 571.366 263.565 570.964 263.388C570.572 263.211 570.236 262.963 569.956 262.646C569.686 262.329 569.476 261.946 569.326 261.498C569.186 261.05 569.116 260.56 569.116 260.028ZM577.93 256.556V263.5H576.81V256.556H577.93ZM578.07 253.56V254.96H576.67V253.56H578.07ZM580.228 256.556H581.306V257.55C581.558 257.195 581.875 256.915 582.258 256.71C582.65 256.505 583.07 256.402 583.518 256.402C583.975 256.402 584.391 256.491 584.764 256.668C585.137 256.845 585.455 257.093 585.716 257.41C585.987 257.727 586.192 258.11 586.332 258.558C586.472 259.006 586.542 259.496 586.542 260.028C586.542 260.56 586.472 261.05 586.332 261.498C586.192 261.946 585.987 262.329 585.716 262.646C585.455 262.963 585.137 263.211 584.764 263.388C584.391 263.565 583.975 263.654 583.518 263.654C583.079 263.654 582.669 263.556 582.286 263.36C581.913 263.164 581.6 262.903 581.348 262.576V266.132H580.228V256.556ZM583.28 262.66C583.943 262.66 584.456 262.427 584.82 261.96C585.193 261.493 585.38 260.849 585.38 260.028C585.38 259.207 585.193 258.563 584.82 258.096C584.456 257.629 583.943 257.396 583.28 257.396C582.841 257.396 582.449 257.513 582.104 257.746C581.759 257.979 581.507 258.283 581.348 258.656V261.414C581.507 261.787 581.759 262.091 582.104 262.324C582.449 262.548 582.841 262.66 583.28 262.66ZM590.434 263.654C590.042 263.654 589.687 263.593 589.37 263.472C589.053 263.351 588.782 263.187 588.558 262.982C588.343 262.777 588.175 262.539 588.054 262.268C587.933 261.988 587.872 261.689 587.872 261.372C587.872 261.055 587.933 260.761 588.054 260.49C588.175 260.21 588.343 259.967 588.558 259.762C588.782 259.557 589.053 259.393 589.37 259.272C589.687 259.151 590.042 259.09 590.434 259.09C590.798 259.09 591.148 259.16 591.484 259.3C591.82 259.431 592.114 259.631 592.366 259.902V259.202C592.366 258.698 592.226 258.273 591.946 257.928C591.675 257.573 591.251 257.396 590.672 257.396C590.261 257.396 589.93 257.466 589.678 257.606C589.426 257.746 589.174 257.937 588.922 258.18L588.278 257.452C588.399 257.321 588.535 257.195 588.684 257.074C588.843 256.943 589.02 256.831 589.216 256.738C589.412 256.635 589.631 256.556 589.874 256.5C590.117 256.435 590.392 256.402 590.7 256.402C591.157 256.402 591.559 256.467 591.904 256.598C592.249 256.729 592.539 256.915 592.772 257.158C593.005 257.391 593.183 257.676 593.304 258.012C593.425 258.348 593.486 258.717 593.486 259.118V263.5H592.408V262.814C592.147 263.094 591.843 263.304 591.498 263.444C591.162 263.584 590.807 263.654 590.434 263.654ZM590.588 262.716C590.905 262.716 591.232 262.651 591.568 262.52C591.913 262.389 592.179 262.165 592.366 261.848V260.896C592.179 260.588 591.913 260.369 591.568 260.238C591.232 260.098 590.905 260.028 590.588 260.028C590.308 260.028 590.065 260.07 589.86 260.154C589.664 260.229 589.501 260.331 589.37 260.462C589.249 260.593 589.155 260.737 589.09 260.896C589.034 261.055 589.006 261.213 589.006 261.372C589.006 261.531 589.034 261.689 589.09 261.848C589.155 262.007 589.249 262.151 589.37 262.282C589.501 262.413 589.664 262.52 589.86 262.604C590.065 262.679 590.308 262.716 590.588 262.716ZM596.825 253.56V263.5H595.705V253.56H596.825Z" fill="black"/>
<g clip-path="url(#clip12_0_8)">
<rect x="618" y="251.5" width="16" height="16" rx="8" fill="white"/>
<line x1="611.646" y1="253.432" x2="639.931" y2="225.147" stroke="#CCCCCC"/>
<line x1="611.646" y1="260.432" x2="639.931" y2="232.147" stroke="#CCCCCC"/>
<line x1="611.646" y1="267.432" x2="639.931" y2="239.147" stroke="#CCCCCC"/>
<line x1="611.646" y1="274.432" x2="639.931" y2="246.147" stroke="#CCCCCC"/>
<line x1="611.646" y1="281.432" x2="639.931" y2="253.147" stroke="#CCCCCC"/>
<line x1="611.646" y1="288.432" x2="639.931" y2="260.147" stroke="#CCCCCC"/>
<line x1="611.646" y1="295.432" x2="639.931" y2="267.147" stroke="#CCCCCC"/>
</g>
<rect x="618.5" y="252" width="15" height="15" rx="7.5" stroke="#CCCCCC"/>
<path d="M643.679 253.98H644.841V263.5H643.679V253.98ZM647.392 256.556H648.47V257.508C648.563 257.368 648.68 257.233 648.82 257.102C648.96 256.971 649.119 256.855 649.296 256.752C649.483 256.649 649.683 256.565 649.898 256.5C650.113 256.435 650.341 256.402 650.584 256.402C651.396 256.402 652.017 256.645 652.446 257.13C652.885 257.615 653.104 258.297 653.104 259.174V263.5H651.984V259.286C651.984 258.661 651.835 258.189 651.536 257.872C651.247 257.555 650.836 257.396 650.304 257.396C649.828 257.396 649.436 257.522 649.128 257.774C648.82 258.026 648.615 258.315 648.512 258.642V263.5H647.392V256.556ZM657.913 263.556C657.195 263.556 656.653 263.379 656.289 263.024C655.925 262.66 655.743 262.081 655.743 261.288V257.508H654.497V256.556H655.757V254.75H656.863V256.556H658.417V257.508H656.863V261.288C656.863 261.764 656.971 262.095 657.185 262.282C657.4 262.469 657.745 262.562 658.221 262.562H658.417V263.514C658.277 263.542 658.109 263.556 657.913 263.556ZM662.783 263.654C662.288 263.654 661.845 263.57 661.453 263.402C661.061 263.234 660.725 262.991 660.445 262.674C660.174 262.357 659.964 261.979 659.815 261.54C659.666 261.092 659.591 260.588 659.591 260.028C659.591 259.477 659.666 258.978 659.815 258.53C659.964 258.082 660.174 257.704 660.445 257.396C660.725 257.079 661.056 256.836 661.439 256.668C661.831 256.491 662.265 256.402 662.741 256.402C663.208 256.402 663.628 256.491 664.001 256.668C664.374 256.836 664.692 257.074 664.953 257.382C665.214 257.681 665.415 258.04 665.555 258.46C665.695 258.88 665.765 259.337 665.765 259.832C665.765 260.028 665.751 260.21 665.723 260.378H660.767C660.814 261.106 661.019 261.671 661.383 262.072C661.747 262.464 662.237 262.66 662.853 262.66C663.282 262.66 663.665 262.571 664.001 262.394C664.337 262.217 664.608 261.965 664.813 261.638L665.569 262.268C665.308 262.66 664.948 262.991 664.491 263.262C664.043 263.523 663.474 263.654 662.783 263.654ZM662.741 257.396C662.209 257.396 661.77 257.573 661.425 257.928C661.08 258.273 660.865 258.773 660.781 259.426H664.589C664.552 258.801 664.365 258.306 664.029 257.942C663.702 257.578 663.273 257.396 662.741 257.396ZM667.558 256.556H668.636V257.802C668.823 257.419 669.089 257.093 669.434 256.822C669.779 256.542 670.199 256.402 670.694 256.402C670.741 256.402 670.787 256.402 670.834 256.402C670.89 256.402 670.941 256.411 670.988 256.43V257.564H670.61C670.143 257.564 669.747 257.69 669.42 257.942C669.093 258.194 668.846 258.586 668.678 259.118V263.5H667.558V256.556ZM675.019 263.654C674.525 263.654 674.081 263.57 673.689 263.402C673.297 263.234 672.961 262.991 672.681 262.674C672.411 262.357 672.201 261.979 672.051 261.54C671.902 261.092 671.827 260.588 671.827 260.028C671.827 259.477 671.902 258.978 672.051 258.53C672.201 258.082 672.411 257.704 672.681 257.396C672.961 257.079 673.293 256.836 673.675 256.668C674.067 256.491 674.501 256.402 674.977 256.402C675.444 256.402 675.864 256.491 676.237 256.668C676.611 256.836 676.928 257.074 677.189 257.382C677.451 257.681 677.651 258.04 677.791 258.46C677.931 258.88 678.001 259.337 678.001 259.832C678.001 260.028 677.987 260.21 677.959 260.378H673.003C673.05 261.106 673.255 261.671 673.619 262.072C673.983 262.464 674.473 262.66 675.089 262.66C675.519 262.66 675.901 262.571 676.237 262.394C676.573 262.217 676.844 261.965 677.049 261.638L677.805 262.268C677.544 262.66 677.185 262.991 676.727 263.262C676.279 263.523 675.71 263.654 675.019 263.654ZM674.977 257.396C674.445 257.396 674.007 257.573 673.661 257.928C673.316 258.273 673.101 258.773 673.017 259.426H676.825C676.788 258.801 676.601 258.306 676.265 257.942C675.939 257.578 675.509 257.396 674.977 257.396ZM683.322 258.166C683.117 257.877 682.888 257.671 682.636 257.55C682.384 257.419 682.109 257.354 681.81 257.354C681.465 257.354 681.204 257.452 681.026 257.648C680.849 257.835 680.76 258.054 680.76 258.306C680.76 258.81 681.059 259.127 681.656 259.258L682.244 259.384C682.907 259.524 683.42 259.757 683.784 260.084C684.158 260.401 684.344 260.868 684.344 261.484C684.344 261.764 684.284 262.035 684.162 262.296C684.05 262.557 683.882 262.791 683.658 262.996C683.434 263.192 683.159 263.351 682.832 263.472C682.506 263.593 682.137 263.654 681.726 263.654C681.418 263.654 681.134 263.612 680.872 263.528C680.611 263.453 680.368 263.351 680.144 263.22C679.93 263.089 679.734 262.935 679.556 262.758C679.379 262.581 679.23 262.399 679.108 262.212L679.836 261.54C680.042 261.848 680.303 262.119 680.62 262.352C680.938 262.585 681.316 262.702 681.754 262.702C682.202 262.702 682.557 262.599 682.818 262.394C683.08 262.189 683.21 261.909 683.21 261.554C683.21 261.227 683.094 260.98 682.86 260.812C682.627 260.644 682.314 260.518 681.922 260.434L681.334 260.308C680.784 260.187 680.359 259.967 680.06 259.65C679.771 259.333 679.626 258.922 679.626 258.418C679.626 258.157 679.673 257.905 679.766 257.662C679.869 257.41 680.014 257.195 680.2 257.018C680.387 256.831 680.62 256.682 680.9 256.57C681.18 256.458 681.498 256.402 681.852 256.402C682.338 256.402 682.767 256.505 683.14 256.71C683.514 256.915 683.817 257.191 684.05 257.536L683.322 258.166ZM688.675 263.556C687.957 263.556 687.415 263.379 687.051 263.024C686.687 262.66 686.505 262.081 686.505 261.288V257.508H685.259V256.556H686.519V254.75H687.625V256.556H689.179V257.508H687.625V261.288C687.625 261.764 687.733 262.095 687.947 262.282C688.162 262.469 688.507 262.562 688.983 262.562H689.179V263.514C689.039 263.542 688.871 263.556 688.675 263.556Z" fill="black"/>
<defs>
<clipPath id="clip0_0_8">
<rect x="41" y="80" width="16" height="70" rx="8" fill="white"/>
</clipPath>
<clipPath id="clip1_0_8">
<rect x="115" y="80" width="16" height="70" rx="8" fill="white"/>
</clipPath>
<clipPath id="clip2_0_8">
<rect x="189" y="80" width="16" height="70" rx="8" fill="white"/>
</clipPath>
<clipPath id="clip3_0_8">
<rect x="263" width="16" height="150" rx="8" fill="white"/>
</clipPath>
<clipPath id="clip4_0_8">
<rect x="337" width="16" height="150" rx="8" fill="white"/>
</clipPath>
<clipPath id="clip5_0_8">
<rect x="411" width="16" height="150" rx="8" fill="white"/>
</clipPath>
<clipPath id="clip6_0_8">
<rect x="485" width="16" height="150" rx="8" fill="white"/>
</clipPath>
<clipPath id="clip7_0_8">
<rect x="559" width="16" height="150" rx="8" fill="white"/>
</clipPath>
<clipPath id="clip8_0_8">
<rect x="633" width="16" height="150" rx="8" fill="white"/>
</clipPath>
<clipPath id="clip9_0_8">
<rect width="24" height="24" fill="white" transform="translate(0 247)"/>
</clipPath>
<clipPath id="clip10_0_8">
<rect x="366" y="251.5" width="16" height="16" rx="8" fill="white"/>
</clipPath>
<clipPath id="clip11_0_8">
<rect x="520" y="251.5" width="16" height="16" rx="8" fill="white"/>
</clipPath>
<clipPath id="clip12_0_8">
<rect x="618" y="251.5" width="16" height="16" rx="8" fill="white"/>
</clipPath>
</defs>
</svg>
