<svg width="295" height="337" viewBox="0 0 295 337" fill="none" xmlns="http://www.w3.org/2000/svg">
<g clip-path="url(#clip0_2076_9792)">
<path d="M21.65 229.651L18.86 226.861C18.54 226.541 18 226.761 18 227.211V229.001H4C3.45 229.001 3 229.451 3 230.001C3 230.551 3.45 231.001 4 231.001H18V232.791C18 233.241 18.54 233.461 18.85 233.141L21.64 230.351C21.84 230.161 21.84 229.841 21.65 229.651Z" fill="black"/>
</g>
<path d="M33.4654 224.98H34.6274V234.5H33.4654V224.98ZM37.1783 227.556H38.2563V228.508C38.3496 228.368 38.4663 228.233 38.6063 228.102C38.7463 227.971 38.9049 227.855 39.0823 227.752C39.2689 227.649 39.4696 227.565 39.6843 227.5C39.8989 227.435 40.1276 227.402 40.3703 227.402C41.1823 227.402 41.8029 227.645 42.2323 228.13C42.6709 228.615 42.8903 229.297 42.8903 230.174V234.5H41.7703V230.286C41.7703 229.661 41.6209 229.189 41.3223 228.872C41.0329 228.555 40.6223 228.396 40.0903 228.396C39.6143 228.396 39.2223 228.522 38.9143 228.774C38.6063 229.026 38.4009 229.315 38.2983 229.642V234.5H37.1783V227.556ZM48.636 229.166C48.4306 228.877 48.202 228.671 47.95 228.55C47.698 228.419 47.4226 228.354 47.124 228.354C46.7786 228.354 46.5173 228.452 46.34 228.648C46.1626 228.835 46.074 229.054 46.074 229.306C46.074 229.81 46.3726 230.127 46.97 230.258L47.558 230.384C48.2206 230.524 48.734 230.757 49.098 231.084C49.4713 231.401 49.658 231.868 49.658 232.484C49.658 232.764 49.5973 233.035 49.476 233.296C49.364 233.557 49.196 233.791 48.972 233.996C48.748 234.192 48.4726 234.351 48.146 234.472C47.8193 234.593 47.4506 234.654 47.04 234.654C46.732 234.654 46.4473 234.612 46.186 234.528C45.9246 234.453 45.682 234.351 45.458 234.22C45.2433 234.089 45.0473 233.935 44.87 233.758C44.6926 233.581 44.5433 233.399 44.422 233.212L45.15 232.54C45.3553 232.848 45.6166 233.119 45.934 233.352C46.2513 233.585 46.6293 233.702 47.068 233.702C47.516 233.702 47.8706 233.599 48.132 233.394C48.3933 233.189 48.524 232.909 48.524 232.554C48.524 232.227 48.4073 231.98 48.174 231.812C47.9406 231.644 47.628 231.518 47.236 231.434L46.648 231.308C46.0973 231.187 45.6726 230.967 45.374 230.65C45.0846 230.333 44.94 229.922 44.94 229.418C44.94 229.157 44.9866 228.905 45.08 228.662C45.1826 228.41 45.3273 228.195 45.514 228.018C45.7006 227.831 45.934 227.682 46.214 227.57C46.494 227.458 46.8113 227.402 47.166 227.402C47.6513 227.402 48.0806 227.505 48.454 227.71C48.8273 227.915 49.1306 228.191 49.364 228.536L48.636 229.166ZM53.9887 234.556C53.27 234.556 52.7287 234.379 52.3647 234.024C52.0007 233.66 51.8187 233.081 51.8187 232.288V228.508H50.5727V227.556H51.8327V225.75H52.9387V227.556H54.4927V228.508H52.9387V232.288C52.9387 232.764 53.046 233.095 53.2607 233.282C53.4753 233.469 53.8207 233.562 54.2967 233.562H54.4927V234.514C54.3527 234.542 54.1847 234.556 53.9887 234.556ZM58.2122 234.654C57.8202 234.654 57.4655 234.593 57.1482 234.472C56.8308 234.351 56.5602 234.187 56.3362 233.982C56.1215 233.777 55.9535 233.539 55.8322 233.268C55.7108 232.988 55.6502 232.689 55.6502 232.372C55.6502 232.055 55.7108 231.761 55.8322 231.49C55.9535 231.21 56.1215 230.967 56.3362 230.762C56.5602 230.557 56.8308 230.393 57.1482 230.272C57.4655 230.151 57.8202 230.09 58.2122 230.09C58.5762 230.09 58.9262 230.16 59.2622 230.3C59.5982 230.431 59.8922 230.631 60.1442 230.902V230.202C60.1442 229.698 60.0042 229.273 59.7242 228.928C59.4535 228.573 59.0288 228.396 58.4502 228.396C58.0395 228.396 57.7082 228.466 57.4562 228.606C57.2042 228.746 56.9522 228.937 56.7002 229.18L56.0562 228.452C56.1775 228.321 56.3128 228.195 56.4622 228.074C56.6208 227.943 56.7982 227.831 56.9942 227.738C57.1902 227.635 57.4095 227.556 57.6522 227.5C57.8948 227.435 58.1702 227.402 58.4782 227.402C58.9355 227.402 59.3368 227.467 59.6822 227.598C60.0275 227.729 60.3168 227.915 60.5502 228.158C60.7835 228.391 60.9608 228.676 61.0822 229.012C61.2035 229.348 61.2642 229.717 61.2642 230.118V234.5H60.1862V233.814C59.9248 234.094 59.6215 234.304 59.2762 234.444C58.9402 234.584 58.5855 234.654 58.2122 234.654ZM58.3662 233.716C58.6835 233.716 59.0102 233.651 59.3462 233.52C59.6915 233.389 59.9575 233.165 60.1442 232.848V231.896C59.9575 231.588 59.6915 231.369 59.3462 231.238C59.0102 231.098 58.6835 231.028 58.3662 231.028C58.0862 231.028 57.8435 231.07 57.6382 231.154C57.4422 231.229 57.2788 231.331 57.1482 231.462C57.0268 231.593 56.9335 231.737 56.8682 231.896C56.8122 232.055 56.7842 232.213 56.7842 232.372C56.7842 232.531 56.8122 232.689 56.8682 232.848C56.9335 233.007 57.0268 233.151 57.1482 233.282C57.2788 233.413 57.4422 233.52 57.6382 233.604C57.8435 233.679 58.0862 233.716 58.3662 233.716ZM64.603 224.56V234.5H63.483V224.56H64.603ZM68.0209 224.56V234.5H66.9009V224.56H68.0209ZM70.3189 227.556H71.3969V228.508C71.4902 228.368 71.6069 228.233 71.7469 228.102C71.8869 227.971 72.0456 227.855 72.2229 227.752C72.4096 227.649 72.6102 227.565 72.8249 227.5C73.0396 227.435 73.2682 227.402 73.5109 227.402C74.0242 227.402 74.4582 227.509 74.8129 227.724C75.1769 227.929 75.4522 228.233 75.6389 228.634C75.7229 228.485 75.8396 228.34 75.9889 228.2C76.1382 228.051 76.3109 227.92 76.5069 227.808C76.7029 227.687 76.9222 227.589 77.1649 227.514C77.4076 227.439 77.6642 227.402 77.9349 227.402C78.7376 227.402 79.3536 227.645 79.7829 228.13C80.2122 228.606 80.4269 229.278 80.4269 230.146V234.5H79.3069V230.258C79.3069 229.642 79.1669 229.18 78.8869 228.872C78.6162 228.555 78.2289 228.396 77.7249 228.396C77.2489 228.396 76.8569 228.522 76.5489 228.774C76.2409 229.026 76.0356 229.315 75.9329 229.642V234.5H74.8129V230.258C74.8129 229.642 74.6729 229.18 74.3929 228.872C74.1222 228.555 73.7349 228.396 73.2309 228.396C72.7549 228.396 72.3629 228.522 72.0549 228.774C71.7469 229.026 71.5416 229.315 71.4389 229.642V234.5H70.3189V227.556ZM85.3953 234.654C84.9006 234.654 84.4573 234.57 84.0653 234.402C83.6733 234.234 83.3373 233.991 83.0573 233.674C82.7866 233.357 82.5766 232.979 82.4273 232.54C82.2779 232.092 82.2033 231.588 82.2033 231.028C82.2033 230.477 82.2779 229.978 82.4273 229.53C82.5766 229.082 82.7866 228.704 83.0573 228.396C83.3373 228.079 83.6686 227.836 84.0513 227.668C84.4433 227.491 84.8773 227.402 85.3533 227.402C85.8199 227.402 86.2399 227.491 86.6133 227.668C86.9866 227.836 87.3039 228.074 87.5653 228.382C87.8266 228.681 88.0273 229.04 88.1673 229.46C88.3073 229.88 88.3773 230.337 88.3773 230.832C88.3773 231.028 88.3633 231.21 88.3353 231.378H83.3793C83.4259 232.106 83.6313 232.671 83.9953 233.072C84.3593 233.464 84.8493 233.66 85.4653 233.66C85.8946 233.66 86.2773 233.571 86.6133 233.394C86.9493 233.217 87.2199 232.965 87.4253 232.638L88.1813 233.268C87.9199 233.66 87.5606 233.991 87.1033 234.262C86.6553 234.523 86.0859 234.654 85.3953 234.654ZM85.3533 228.396C84.8213 228.396 84.3826 228.573 84.0373 228.928C83.6919 229.273 83.4773 229.773 83.3933 230.426H87.2013C87.1639 229.801 86.9773 229.306 86.6413 228.942C86.3146 228.578 85.8853 228.396 85.3533 228.396ZM90.1705 227.556H91.2485V228.508C91.3418 228.368 91.4585 228.233 91.5985 228.102C91.7385 227.971 91.8971 227.855 92.0745 227.752C92.2611 227.649 92.4618 227.565 92.6765 227.5C92.8911 227.435 93.1198 227.402 93.3625 227.402C94.1745 227.402 94.7951 227.645 95.2245 228.13C95.6631 228.615 95.8825 229.297 95.8825 230.174V234.5H94.7625V230.286C94.7625 229.661 94.6131 229.189 94.3145 228.872C94.0251 228.555 93.6145 228.396 93.0825 228.396C92.6065 228.396 92.2145 228.522 91.9065 228.774C91.5985 229.026 91.3931 229.315 91.2905 229.642V234.5H90.1705V227.556ZM100.692 234.556C99.9731 234.556 99.4318 234.379 99.0678 234.024C98.7038 233.66 98.5218 233.081 98.5218 232.288V228.508H97.2758V227.556H98.5358V225.75H99.6418V227.556H101.196V228.508H99.6418V232.288C99.6418 232.764 99.7491 233.095 99.9638 233.282C100.178 233.469 100.524 233.562 101 233.562H101.196V234.514C101.056 234.542 100.888 234.556 100.692 234.556ZM106.18 227.556H107.258V228.55C107.51 228.195 107.828 227.915 108.21 227.71C108.602 227.505 109.022 227.402 109.47 227.402C109.928 227.402 110.343 227.491 110.716 227.668C111.09 227.845 111.407 228.093 111.668 228.41C111.939 228.727 112.144 229.11 112.284 229.558C112.424 230.006 112.494 230.496 112.494 231.028C112.494 231.56 112.424 232.05 112.284 232.498C112.144 232.946 111.939 233.329 111.668 233.646C111.407 233.963 111.09 234.211 110.716 234.388C110.343 234.565 109.928 234.654 109.47 234.654C109.032 234.654 108.621 234.556 108.238 234.36C107.865 234.164 107.552 233.903 107.3 233.576V237.132H106.18V227.556ZM109.232 233.66C109.895 233.66 110.408 233.427 110.772 232.96C111.146 232.493 111.332 231.849 111.332 231.028C111.332 230.207 111.146 229.563 110.772 229.096C110.408 228.629 109.895 228.396 109.232 228.396C108.794 228.396 108.402 228.513 108.056 228.746C107.711 228.979 107.459 229.283 107.3 229.656V232.414C107.459 232.787 107.711 233.091 108.056 233.324C108.402 233.548 108.794 233.66 109.232 233.66ZM117.114 234.654C116.619 234.654 116.176 234.57 115.784 234.402C115.392 234.234 115.056 233.991 114.776 233.674C114.505 233.357 114.295 232.979 114.146 232.54C113.997 232.092 113.922 231.588 113.922 231.028C113.922 230.477 113.997 229.978 114.146 229.53C114.295 229.082 114.505 228.704 114.776 228.396C115.056 228.079 115.387 227.836 115.77 227.668C116.162 227.491 116.596 227.402 117.072 227.402C117.539 227.402 117.959 227.491 118.332 227.668C118.705 227.836 119.023 228.074 119.284 228.382C119.545 228.681 119.746 229.04 119.886 229.46C120.026 229.88 120.096 230.337 120.096 230.832C120.096 231.028 120.082 231.21 120.054 231.378H115.098C115.145 232.106 115.35 232.671 115.714 233.072C116.078 233.464 116.568 233.66 117.184 233.66C117.613 233.66 117.996 233.571 118.332 233.394C118.668 233.217 118.939 232.965 119.144 232.638L119.9 233.268C119.639 233.66 119.279 233.991 118.822 234.262C118.374 234.523 117.805 234.654 117.114 234.654ZM117.072 228.396C116.54 228.396 116.101 228.573 115.756 228.928C115.411 229.273 115.196 229.773 115.112 230.426H118.92C118.883 229.801 118.696 229.306 118.36 228.942C118.033 228.578 117.604 228.396 117.072 228.396ZM121.889 227.556H122.967V228.802C123.154 228.419 123.42 228.093 123.765 227.822C124.111 227.542 124.531 227.402 125.025 227.402C125.072 227.402 125.119 227.402 125.165 227.402C125.221 227.402 125.273 227.411 125.319 227.43V228.564H124.941C124.475 228.564 124.078 228.69 123.751 228.942C123.425 229.194 123.177 229.586 123.009 230.118V234.5H121.889V227.556ZM127.917 227.556V234.5H126.797V227.556H127.917ZM128.057 224.56V225.96H126.657V224.56H128.057ZM133.043 233.66C133.687 233.66 134.201 233.431 134.583 232.974C134.966 232.507 135.157 231.859 135.157 231.028C135.157 230.197 134.966 229.553 134.583 229.096C134.201 228.629 133.687 228.396 133.043 228.396C132.399 228.396 131.886 228.629 131.503 229.096C131.121 229.553 130.929 230.197 130.929 231.028C130.929 231.859 131.121 232.507 131.503 232.974C131.886 233.431 132.399 233.66 133.043 233.66ZM133.043 227.402C133.538 227.402 133.986 227.491 134.387 227.668C134.798 227.845 135.143 228.093 135.423 228.41C135.713 228.727 135.932 229.11 136.081 229.558C136.24 230.006 136.319 230.496 136.319 231.028C136.319 231.56 136.24 232.05 136.081 232.498C135.932 232.946 135.713 233.329 135.423 233.646C135.143 233.963 134.798 234.211 134.387 234.388C133.986 234.565 133.538 234.654 133.043 234.654C132.549 234.654 132.096 234.565 131.685 234.388C131.284 234.211 130.939 233.963 130.649 233.646C130.369 233.329 130.15 232.946 129.991 232.498C129.842 232.05 129.767 231.56 129.767 231.028C129.767 230.496 129.842 230.006 129.991 229.558C130.15 229.11 130.369 228.727 130.649 228.41C130.939 228.093 131.284 227.845 131.685 227.668C132.096 227.491 132.549 227.402 133.043 227.402ZM142.974 233.52C142.713 233.875 142.391 234.155 142.008 234.36C141.626 234.556 141.21 234.654 140.762 234.654C140.296 234.654 139.876 234.565 139.502 234.388C139.138 234.211 138.821 233.963 138.55 233.646C138.289 233.329 138.088 232.946 137.948 232.498C137.808 232.05 137.738 231.56 137.738 231.028C137.738 230.496 137.808 230.006 137.948 229.558C138.088 229.11 138.289 228.727 138.55 228.41C138.821 228.093 139.138 227.845 139.502 227.668C139.876 227.491 140.296 227.402 140.762 227.402C141.201 227.402 141.607 227.5 141.98 227.696C142.354 227.892 142.671 228.158 142.932 228.494V224.56H144.052V234.5H142.974V233.52ZM141 233.66C141.439 233.66 141.831 233.548 142.176 233.324C142.522 233.091 142.774 232.787 142.932 232.414V229.656C142.774 229.283 142.522 228.979 142.176 228.746C141.831 228.513 141.439 228.396 141 228.396C140.338 228.396 139.82 228.629 139.446 229.096C139.082 229.563 138.9 230.207 138.9 231.028C138.9 231.849 139.082 232.493 139.446 232.96C139.82 233.427 140.338 233.66 141 233.66ZM149.237 230.846C149.237 230.006 149.326 229.255 149.503 228.592C149.68 227.92 149.909 227.332 150.189 226.828C150.469 226.324 150.777 225.895 151.113 225.54C151.458 225.176 151.794 224.873 152.121 224.63L152.681 225.33C152.364 225.591 152.065 225.895 151.785 226.24C151.505 226.585 151.258 226.982 151.043 227.43C150.838 227.878 150.674 228.387 150.553 228.956C150.432 229.516 150.371 230.146 150.371 230.846C150.371 231.546 150.432 232.181 150.553 232.75C150.674 233.31 150.838 233.814 151.043 234.262C151.258 234.71 151.505 235.107 151.785 235.452C152.065 235.797 152.364 236.101 152.681 236.362L152.121 237.062C151.794 236.829 151.458 236.53 151.113 236.166C150.777 235.802 150.469 235.368 150.189 234.864C149.909 234.36 149.68 233.777 149.503 233.114C149.326 232.442 149.237 231.686 149.237 230.846ZM153.786 227.556H154.864V228.508C154.957 228.368 155.074 228.233 155.214 228.102C155.354 227.971 155.512 227.855 155.69 227.752C155.876 227.649 156.077 227.565 156.292 227.5C156.506 227.435 156.735 227.402 156.978 227.402C157.491 227.402 157.925 227.509 158.28 227.724C158.644 227.929 158.919 228.233 159.106 228.634C159.19 228.485 159.306 228.34 159.456 228.2C159.605 228.051 159.778 227.92 159.974 227.808C160.17 227.687 160.389 227.589 160.632 227.514C160.874 227.439 161.131 227.402 161.402 227.402C162.204 227.402 162.82 227.645 163.25 228.13C163.679 228.606 163.894 229.278 163.894 230.146V234.5H162.774V230.258C162.774 229.642 162.634 229.18 162.354 228.872C162.083 228.555 161.696 228.396 161.192 228.396C160.716 228.396 160.324 228.522 160.016 228.774C159.708 229.026 159.502 229.315 159.4 229.642V234.5H158.28V230.258C158.28 229.642 158.14 229.18 157.86 228.872C157.589 228.555 157.202 228.396 156.698 228.396C156.222 228.396 155.83 228.522 155.522 228.774C155.214 229.026 155.008 229.315 154.906 229.642V234.5H153.786V227.556ZM168.932 233.66C169.576 233.66 170.089 233.431 170.472 232.974C170.855 232.507 171.046 231.859 171.046 231.028C171.046 230.197 170.855 229.553 170.472 229.096C170.089 228.629 169.576 228.396 168.932 228.396C168.288 228.396 167.775 228.629 167.392 229.096C167.009 229.553 166.818 230.197 166.818 231.028C166.818 231.859 167.009 232.507 167.392 232.974C167.775 233.431 168.288 233.66 168.932 233.66ZM168.932 227.402C169.427 227.402 169.875 227.491 170.276 227.668C170.687 227.845 171.032 228.093 171.312 228.41C171.601 228.727 171.821 229.11 171.97 229.558C172.129 230.006 172.208 230.496 172.208 231.028C172.208 231.56 172.129 232.05 171.97 232.498C171.821 232.946 171.601 233.329 171.312 233.646C171.032 233.963 170.687 234.211 170.276 234.388C169.875 234.565 169.427 234.654 168.932 234.654C168.437 234.654 167.985 234.565 167.574 234.388C167.173 234.211 166.827 233.963 166.538 233.646C166.258 233.329 166.039 232.946 165.88 232.498C165.731 232.05 165.656 231.56 165.656 231.028C165.656 230.496 165.731 230.006 165.88 229.558C166.039 229.11 166.258 228.727 166.538 228.41C166.827 228.093 167.173 227.845 167.574 227.668C167.985 227.491 168.437 227.402 168.932 227.402ZM174.061 227.556H175.139V228.508C175.232 228.368 175.349 228.233 175.489 228.102C175.629 227.971 175.788 227.855 175.965 227.752C176.152 227.649 176.352 227.565 176.567 227.5C176.782 227.435 177.01 227.402 177.253 227.402C178.065 227.402 178.686 227.645 179.115 228.13C179.554 228.615 179.773 229.297 179.773 230.174V234.5H178.653V230.286C178.653 229.661 178.504 229.189 178.205 228.872C177.916 228.555 177.505 228.396 176.973 228.396C176.497 228.396 176.105 228.522 175.797 228.774C175.489 229.026 175.284 229.315 175.181 229.642V234.5H174.061V227.556ZM184.582 234.556C183.864 234.556 183.322 234.379 182.958 234.024C182.594 233.66 182.412 233.081 182.412 232.288V228.508H181.166V227.556H182.426V225.75H183.532V227.556H185.086V228.508H183.532V232.288C183.532 232.764 183.64 233.095 183.854 233.282C184.069 233.469 184.414 233.562 184.89 233.562H185.086V234.514C184.946 234.542 184.778 234.556 184.582 234.556ZM186.776 224.56H187.896V228.438C188.083 228.177 188.358 227.939 188.722 227.724C189.086 227.509 189.501 227.402 189.968 227.402C190.78 227.402 191.401 227.645 191.83 228.13C192.269 228.615 192.488 229.297 192.488 230.174V234.5H191.368V230.286C191.368 229.661 191.219 229.189 190.92 228.872C190.631 228.555 190.22 228.396 189.688 228.396C189.212 228.396 188.82 228.522 188.512 228.774C188.204 229.026 187.999 229.315 187.896 229.642V234.5H186.776V224.56ZM198.234 229.166C198.028 228.877 197.8 228.671 197.548 228.55C197.296 228.419 197.02 228.354 196.722 228.354C196.376 228.354 196.115 228.452 195.938 228.648C195.76 228.835 195.672 229.054 195.672 229.306C195.672 229.81 195.97 230.127 196.568 230.258L197.156 230.384C197.818 230.524 198.332 230.757 198.696 231.084C199.069 231.401 199.256 231.868 199.256 232.484C199.256 232.764 199.195 233.035 199.074 233.296C198.962 233.557 198.794 233.791 198.57 233.996C198.346 234.192 198.07 234.351 197.744 234.472C197.417 234.593 197.048 234.654 196.638 234.654C196.33 234.654 196.045 234.612 195.784 234.528C195.522 234.453 195.28 234.351 195.056 234.22C194.841 234.089 194.645 233.935 194.468 233.758C194.29 233.581 194.141 233.399 194.02 233.212L194.748 232.54C194.953 232.848 195.214 233.119 195.532 233.352C195.849 233.585 196.227 233.702 196.666 233.702C197.114 233.702 197.468 233.599 197.73 233.394C197.991 233.189 198.122 232.909 198.122 232.554C198.122 232.227 198.005 231.98 197.772 231.812C197.538 231.644 197.226 231.518 196.834 231.434L196.246 231.308C195.695 231.187 195.27 230.967 194.972 230.65C194.682 230.333 194.538 229.922 194.538 229.418C194.538 229.157 194.584 228.905 194.678 228.662C194.78 228.41 194.925 228.195 195.112 228.018C195.298 227.831 195.532 227.682 195.812 227.57C196.092 227.458 196.409 227.402 196.764 227.402C197.249 227.402 197.678 227.505 198.052 227.71C198.425 227.915 198.728 228.191 198.962 228.536L198.234 229.166ZM203.19 230.846C203.19 231.686 203.096 232.442 202.91 233.114C202.732 233.777 202.504 234.36 202.224 234.864C201.944 235.368 201.631 235.802 201.286 236.166C200.95 236.53 200.623 236.829 200.306 237.062L199.746 236.362C200.063 236.101 200.362 235.797 200.642 235.452C200.922 235.107 201.164 234.71 201.37 234.262C201.584 233.814 201.752 233.31 201.874 232.75C201.995 232.181 202.056 231.546 202.056 230.846C202.056 230.146 201.995 229.516 201.874 228.956C201.752 228.387 201.584 227.878 201.37 227.43C201.164 226.982 200.922 226.585 200.642 226.24C200.362 225.895 200.063 225.591 199.746 225.33L200.306 224.63C200.623 224.873 200.95 225.176 201.286 225.54C201.631 225.895 201.944 226.324 202.224 226.828C202.504 227.332 202.732 227.92 202.91 228.592C203.096 229.255 203.19 230.006 203.19 230.846Z" fill="black"/>
<mask id="path-3-inside-1_2076_9792" fill="white">
<path d="M0 1H295V41H0V1Z"/>
</mask>
<path d="M0 1H295V41H0V1Z" fill="white"/>
<path d="M295 40H0V42H295V40Z" fill="#E5E5E5" mask="url(#path-3-inside-1_2076_9792)"/>
<mask id="path-5-inside-2_2076_9792" fill="white">
<path d="M0 41H295V81H0V41Z"/>
</mask>
<path d="M0 41H295V81H0V41Z" fill="white"/>
<path d="M295 80H0V82H295V80Z" fill="#E5E5E5" mask="url(#path-5-inside-2_2076_9792)"/>
<mask id="path-7-inside-3_2076_9792" fill="white">
<path d="M0 81H295V121H0V81Z"/>
</mask>
<path d="M0 81H295V121H0V81Z" fill="white"/>
<path d="M295 120H0V122H295V120Z" fill="#E5E5E5" mask="url(#path-7-inside-3_2076_9792)"/>
<mask id="path-9-inside-4_2076_9792" fill="white">
<path d="M0 121H295V161H0V121Z"/>
</mask>
<path d="M0 121H295V161H0V121Z" fill="white"/>
<path d="M295 160H0V162H295V160Z" fill="#444444" mask="url(#path-9-inside-4_2076_9792)"/>
<g clip-path="url(#clip1_2076_9792)">
<rect x="20" y="80" width="16" height="71" rx="8" fill="white"/>
<line x1="13.6464" y1="81.9316" x2="41.9307" y2="53.6473" stroke="#CCCCCC"/>
<line x1="13.6464" y1="88.9316" x2="41.9307" y2="60.6473" stroke="#CCCCCC"/>
<line x1="13.6464" y1="95.9316" x2="41.9307" y2="67.6473" stroke="#CCCCCC"/>
<line x1="13.6464" y1="102.932" x2="41.9307" y2="74.6473" stroke="#CCCCCC"/>
<line x1="13.6464" y1="109.932" x2="41.9307" y2="81.6473" stroke="#CCCCCC"/>
<line x1="13.6464" y1="116.932" x2="41.9307" y2="88.6473" stroke="#CCCCCC"/>
<line x1="13.6464" y1="123.932" x2="41.9307" y2="95.6473" stroke="#CCCCCC"/>
<line x1="13.6464" y1="130.932" x2="41.9307" y2="102.647" stroke="#CCCCCC"/>
<line x1="13.6464" y1="137.932" x2="41.9307" y2="109.647" stroke="#CCCCCC"/>
<line x1="13.6464" y1="144.932" x2="41.9307" y2="116.647" stroke="#CCCCCC"/>
<line x1="13.6464" y1="151.932" x2="41.9307" y2="123.647" stroke="#CCCCCC"/>
<line x1="13.6464" y1="158.932" x2="41.9307" y2="130.647" stroke="#CCCCCC"/>
<line x1="13.6464" y1="165.932" x2="41.9307" y2="137.647" stroke="#CCCCCC"/>
<line x1="13.6464" y1="172.932" x2="41.9307" y2="144.647" stroke="#CCCCCC"/>
</g>
<rect x="20.5" y="80.5" width="15" height="70" rx="7.5" stroke="#CCCCCC"/>
<g clip-path="url(#clip2_2076_9792)">
<rect x="68" y="80" width="16" height="71" rx="8" fill="white"/>
<line x1="61.6464" y1="81.9316" x2="89.9307" y2="53.6473" stroke="#CCCCCC"/>
<line x1="61.6464" y1="88.9316" x2="89.9307" y2="60.6473" stroke="#CCCCCC"/>
<line x1="61.6464" y1="95.9316" x2="89.9307" y2="67.6473" stroke="#CCCCCC"/>
<line x1="61.6464" y1="102.932" x2="89.9307" y2="74.6473" stroke="#CCCCCC"/>
<line x1="61.6464" y1="109.932" x2="89.9307" y2="81.6473" stroke="#CCCCCC"/>
<line x1="61.6464" y1="116.932" x2="89.9307" y2="88.6473" stroke="#CCCCCC"/>
<line x1="61.6464" y1="123.932" x2="89.9307" y2="95.6473" stroke="#CCCCCC"/>
<line x1="61.6464" y1="130.932" x2="89.9307" y2="102.647" stroke="#CCCCCC"/>
<line x1="61.6464" y1="137.932" x2="89.9307" y2="109.647" stroke="#CCCCCC"/>
<line x1="61.6464" y1="144.932" x2="89.9307" y2="116.647" stroke="#CCCCCC"/>
<line x1="61.6464" y1="151.932" x2="89.9307" y2="123.647" stroke="#CCCCCC"/>
<line x1="61.6464" y1="158.932" x2="89.9307" y2="130.647" stroke="#CCCCCC"/>
<line x1="61.6464" y1="165.932" x2="89.9307" y2="137.647" stroke="#CCCCCC"/>
<line x1="61.6464" y1="172.932" x2="89.9307" y2="144.647" stroke="#CCCCCC"/>
</g>
<rect x="68.5" y="80.5" width="15" height="70" rx="7.5" stroke="#CCCCCC"/>
<g clip-path="url(#clip3_2076_9792)">
<rect x="116" width="16" height="151" rx="8" fill="white"/>
<line x1="109.646" y1="20.789" x2="137.931" y2="-7.49525" stroke="#CCCCCC"/>
<line x1="109.646" y1="27.9316" x2="137.931" y2="-0.352668" stroke="#CCCCCC"/>
<line x1="109.646" y1="34.9316" x2="137.931" y2="6.64733" stroke="#CCCCCC"/>
<line x1="109.646" y1="41.9316" x2="137.931" y2="13.6473" stroke="#CCCCCC"/>
<line x1="109.646" y1="48.9316" x2="137.931" y2="20.6473" stroke="#CCCCCC"/>
<line x1="109.646" y1="55.9316" x2="137.931" y2="27.6473" stroke="#CCCCCC"/>
<line x1="109.646" y1="62.9316" x2="137.931" y2="34.6473" stroke="#CCCCCC"/>
<line x1="109.646" y1="69.9316" x2="137.931" y2="41.6473" stroke="#CCCCCC"/>
<line x1="109.646" y1="76.9316" x2="137.931" y2="48.6473" stroke="#CCCCCC"/>
<line x1="109.646" y1="83.9316" x2="137.931" y2="55.6473" stroke="#CCCCCC"/>
<line x1="109.646" y1="90.9316" x2="137.931" y2="62.6473" stroke="#CCCCCC"/>
<line x1="109.646" y1="97.9316" x2="137.931" y2="69.6473" stroke="#CCCCCC"/>
<line x1="109.646" y1="104.932" x2="137.931" y2="76.6473" stroke="#CCCCCC"/>
<line x1="109.646" y1="111.932" x2="137.931" y2="83.6473" stroke="#CCCCCC"/>
<line x1="109.646" y1="118.932" x2="137.931" y2="90.6473" stroke="#CCCCCC"/>
<line x1="109.646" y1="125.932" x2="137.931" y2="97.6473" stroke="#CCCCCC"/>
<line x1="109.646" y1="132.932" x2="137.931" y2="104.647" stroke="#CCCCCC"/>
<line x1="109.646" y1="139.932" x2="137.931" y2="111.647" stroke="#CCCCCC"/>
<line x1="109.646" y1="146.932" x2="137.931" y2="118.647" stroke="#CCCCCC"/>
<line x1="109.646" y1="153.932" x2="137.931" y2="125.647" stroke="#CCCCCC"/>
<line x1="109.646" y1="160.932" x2="137.931" y2="132.647" stroke="#CCCCCC"/>
</g>
<rect x="116.5" y="0.5" width="15" height="150" rx="7.5" stroke="#CCCCCC"/>
<rect x="116" y="81" width="16" height="70" rx="8" fill="#00AAD2"/>
<g clip-path="url(#clip4_2076_9792)">
<rect x="164" y="1" width="16" height="150" rx="8" fill="white"/>
<line x1="157.646" y1="20.789" x2="185.931" y2="-7.49525" stroke="#CCCCCC"/>
<line x1="157.646" y1="27.9316" x2="185.931" y2="-0.352668" stroke="#CCCCCC"/>
<line x1="157.646" y1="34.9316" x2="185.931" y2="6.64733" stroke="#CCCCCC"/>
<line x1="157.646" y1="41.9316" x2="185.931" y2="13.6473" stroke="#CCCCCC"/>
<line x1="157.646" y1="48.9316" x2="185.931" y2="20.6473" stroke="#CCCCCC"/>
<line x1="157.646" y1="55.9316" x2="185.931" y2="27.6473" stroke="#CCCCCC"/>
<line x1="157.646" y1="62.9316" x2="185.931" y2="34.6473" stroke="#CCCCCC"/>
<line x1="157.646" y1="69.9316" x2="185.931" y2="41.6473" stroke="#CCCCCC"/>
<line x1="157.646" y1="76.9316" x2="185.931" y2="48.6473" stroke="#CCCCCC"/>
<line x1="157.646" y1="83.9316" x2="185.931" y2="55.6473" stroke="#CCCCCC"/>
<line x1="157.646" y1="90.9316" x2="185.931" y2="62.6473" stroke="#CCCCCC"/>
<line x1="157.646" y1="97.9316" x2="185.931" y2="69.6473" stroke="#CCCCCC"/>
<line x1="157.646" y1="104.932" x2="185.931" y2="76.6473" stroke="#CCCCCC"/>
<line x1="157.646" y1="111.932" x2="185.931" y2="83.6473" stroke="#CCCCCC"/>
<line x1="157.646" y1="118.932" x2="185.931" y2="90.6473" stroke="#CCCCCC"/>
<line x1="157.646" y1="125.932" x2="185.931" y2="97.6473" stroke="#CCCCCC"/>
<line x1="157.646" y1="132.932" x2="185.931" y2="104.647" stroke="#CCCCCC"/>
<line x1="157.646" y1="139.932" x2="185.931" y2="111.647" stroke="#CCCCCC"/>
<line x1="157.646" y1="146.932" x2="185.931" y2="118.647" stroke="#CCCCCC"/>
<line x1="157.646" y1="153.932" x2="185.931" y2="125.647" stroke="#CCCCCC"/>
<line x1="157.646" y1="160.932" x2="185.931" y2="132.647" stroke="#CCCCCC"/>
</g>
<rect x="164.5" y="1.5" width="15" height="149" rx="7.5" stroke="#CCCCCC"/>
<rect x="164" y="61" width="16" height="90" rx="8" fill="#00AAD2"/>
<g clip-path="url(#clip5_2076_9792)">
<rect x="212" y="1" width="16" height="150" rx="8" fill="white"/>
<line x1="205.646" y1="20.789" x2="233.931" y2="-7.49525" stroke="#CCCCCC"/>
<line x1="205.646" y1="27.9316" x2="233.931" y2="-0.352668" stroke="#CCCCCC"/>
<line x1="205.646" y1="34.9316" x2="233.931" y2="6.64733" stroke="#CCCCCC"/>
<line x1="205.646" y1="41.9316" x2="233.931" y2="13.6473" stroke="#CCCCCC"/>
<line x1="205.646" y1="48.9316" x2="233.931" y2="20.6473" stroke="#CCCCCC"/>
<line x1="205.646" y1="55.9316" x2="233.931" y2="27.6473" stroke="#CCCCCC"/>
<line x1="205.646" y1="62.9316" x2="233.931" y2="34.6473" stroke="#CCCCCC"/>
<line x1="205.646" y1="69.9316" x2="233.931" y2="41.6473" stroke="#CCCCCC"/>
<line x1="205.646" y1="76.9316" x2="233.931" y2="48.6473" stroke="#CCCCCC"/>
<line x1="205.646" y1="83.9316" x2="233.931" y2="55.6473" stroke="#CCCCCC"/>
<line x1="205.646" y1="90.9316" x2="233.931" y2="62.6473" stroke="#CCCCCC"/>
<line x1="205.646" y1="97.9316" x2="233.931" y2="69.6473" stroke="#CCCCCC"/>
<line x1="205.646" y1="104.932" x2="233.931" y2="76.6473" stroke="#CCCCCC"/>
<line x1="205.646" y1="111.932" x2="233.931" y2="83.6473" stroke="#CCCCCC"/>
<line x1="205.646" y1="118.932" x2="233.931" y2="90.6473" stroke="#CCCCCC"/>
<line x1="205.646" y1="125.932" x2="233.931" y2="97.6473" stroke="#CCCCCC"/>
<line x1="205.646" y1="132.932" x2="233.931" y2="104.647" stroke="#CCCCCC"/>
<line x1="205.646" y1="139.932" x2="233.931" y2="111.647" stroke="#CCCCCC"/>
<line x1="205.646" y1="146.932" x2="233.931" y2="118.647" stroke="#CCCCCC"/>
<line x1="205.646" y1="153.932" x2="233.931" y2="125.647" stroke="#CCCCCC"/>
<line x1="205.646" y1="160.932" x2="233.931" y2="132.647" stroke="#CCCCCC"/>
</g>
<rect x="212.5" y="1.5" width="15" height="149" rx="7.5" stroke="#CCCCCC"/>
<rect x="212" y="41" width="16" height="110" rx="8" fill="#00AAD2"/>
<g clip-path="url(#clip6_2076_9792)">
<rect x="260" y="1" width="16" height="150" rx="8" fill="white"/>
<line x1="253.646" y1="20.789" x2="281.931" y2="-7.49525" stroke="#CCCCCC"/>
<line x1="253.646" y1="27.9316" x2="281.931" y2="-0.352668" stroke="#CCCCCC"/>
<line x1="253.646" y1="34.9316" x2="281.931" y2="6.64733" stroke="#CCCCCC"/>
<line x1="253.646" y1="41.9316" x2="281.931" y2="13.6473" stroke="#CCCCCC"/>
<line x1="253.646" y1="48.9316" x2="281.931" y2="20.6473" stroke="#CCCCCC"/>
<line x1="253.646" y1="55.9316" x2="281.931" y2="27.6473" stroke="#CCCCCC"/>
<line x1="253.646" y1="62.9316" x2="281.931" y2="34.6473" stroke="#CCCCCC"/>
<line x1="253.646" y1="69.9316" x2="281.931" y2="41.6473" stroke="#CCCCCC"/>
<line x1="253.646" y1="76.9316" x2="281.931" y2="48.6473" stroke="#CCCCCC"/>
<line x1="253.646" y1="83.9316" x2="281.931" y2="55.6473" stroke="#CCCCCC"/>
<line x1="253.646" y1="90.9316" x2="281.931" y2="62.6473" stroke="#CCCCCC"/>
<line x1="253.646" y1="97.9316" x2="281.931" y2="69.6473" stroke="#CCCCCC"/>
<line x1="253.646" y1="104.932" x2="281.931" y2="76.6473" stroke="#CCCCCC"/>
<line x1="253.646" y1="111.932" x2="281.931" y2="83.6473" stroke="#CCCCCC"/>
<line x1="253.646" y1="118.932" x2="281.931" y2="90.6473" stroke="#CCCCCC"/>
<line x1="253.646" y1="125.932" x2="281.931" y2="97.6473" stroke="#CCCCCC"/>
<line x1="253.646" y1="132.932" x2="281.931" y2="104.647" stroke="#CCCCCC"/>
<line x1="253.646" y1="139.932" x2="281.931" y2="111.647" stroke="#CCCCCC"/>
<line x1="253.646" y1="146.932" x2="281.931" y2="118.647" stroke="#CCCCCC"/>
<line x1="253.646" y1="153.932" x2="281.931" y2="125.647" stroke="#CCCCCC"/>
<line x1="253.646" y1="160.932" x2="281.931" y2="132.647" stroke="#CCCCCC"/>
</g>
<rect x="260.5" y="1.5" width="15" height="149" rx="7.5" stroke="#CCCCCC"/>
<rect x="260" y="21" width="16" height="130" rx="8" fill="#00AAD2"/>
<path d="M28.815 193.006H30.901V194H25.567V193.006H27.695V186.104L25.917 187.21L25.469 186.342L27.947 184.816H28.815V193.006Z" fill="black"/>
<path d="M72.898 193.006H74.984V194H69.65V193.006H71.778V186.104L70 187.21L69.552 186.342L72.03 184.816H72.898V193.006ZM77.05 186.748C77.1153 186.515 77.218 186.277 77.358 186.034C77.498 185.782 77.68 185.553 77.904 185.348C78.128 185.143 78.394 184.979 78.702 184.858C79.01 184.727 79.3693 184.662 79.78 184.662C80.228 184.662 80.6247 184.732 80.97 184.872C81.3247 185.003 81.6233 185.189 81.866 185.432C82.118 185.675 82.3093 185.964 82.44 186.3C82.5707 186.636 82.636 187.009 82.636 187.42C82.636 187.887 82.5473 188.316 82.37 188.708C82.202 189.091 81.9827 189.445 81.712 189.772C81.4413 190.099 81.138 190.407 80.802 190.696C80.4753 190.976 80.1533 191.247 79.836 191.508C79.528 191.76 79.2387 192.012 78.968 192.264C78.7067 192.507 78.5107 192.754 78.38 193.006H82.748V194H76.994V193.174C77.1713 192.782 77.4047 192.423 77.694 192.096C77.9833 191.76 78.2913 191.443 78.618 191.144C78.954 190.845 79.29 190.561 79.626 190.29C79.9713 190.01 80.2793 189.725 80.55 189.436C80.8207 189.137 81.04 188.829 81.208 188.512C81.3853 188.195 81.474 187.845 81.474 187.462C81.474 186.921 81.334 186.491 81.054 186.174C80.7833 185.847 80.3493 185.684 79.752 185.684C78.8467 185.684 78.254 186.188 77.974 187.196L77.05 186.748Z" fill="black"/>
<path d="M266.466 186.734C266.261 186.417 265.999 186.165 265.682 185.978C265.365 185.782 265.001 185.684 264.59 185.684C263.843 185.684 263.232 185.978 262.756 186.566C262.28 187.145 262.014 187.994 261.958 189.114C262.201 188.722 262.523 188.405 262.924 188.162C263.325 187.91 263.815 187.784 264.394 187.784C264.805 187.784 265.192 187.863 265.556 188.022C265.92 188.181 266.237 188.4 266.508 188.68C266.788 188.96 267.007 189.296 267.166 189.688C267.325 190.08 267.404 190.505 267.404 190.962C267.404 191.429 267.32 191.858 267.152 192.25C266.984 192.633 266.755 192.969 266.466 193.258C266.186 193.538 265.85 193.757 265.458 193.916C265.075 194.075 264.665 194.154 264.226 194.154C263.675 194.154 263.19 194.047 262.77 193.832C262.35 193.617 262 193.314 261.72 192.922C261.44 192.521 261.225 192.045 261.076 191.494C260.936 190.934 260.866 190.313 260.866 189.632C260.866 188.857 260.955 188.162 261.132 187.546C261.309 186.93 261.557 186.412 261.874 185.992C262.201 185.563 262.593 185.236 263.05 185.012C263.507 184.779 264.021 184.662 264.59 184.662C265.215 184.662 265.752 184.807 266.2 185.096C266.648 185.385 266.998 185.726 267.25 186.118L266.466 186.734ZM262.238 190.976C262.238 191.611 262.415 192.129 262.77 192.53C263.134 192.931 263.619 193.132 264.226 193.132C264.842 193.132 265.332 192.931 265.696 192.53C266.06 192.129 266.242 191.611 266.242 190.976C266.242 190.659 266.191 190.365 266.088 190.094C265.995 189.823 265.859 189.595 265.682 189.408C265.514 189.221 265.304 189.077 265.052 188.974C264.809 188.862 264.534 188.806 264.226 188.806C263.927 188.806 263.652 188.862 263.4 188.974C263.157 189.077 262.947 189.221 262.77 189.408C262.602 189.595 262.471 189.823 262.378 190.094C262.285 190.365 262.238 190.659 262.238 190.976ZM271.92 194.154C271.397 194.154 270.935 194.047 270.534 193.832C270.133 193.608 269.797 193.291 269.526 192.88C269.255 192.469 269.05 191.97 268.91 191.382C268.77 190.794 268.7 190.136 268.7 189.408C268.7 188.68 268.77 188.022 268.91 187.434C269.05 186.846 269.255 186.347 269.526 185.936C269.797 185.525 270.133 185.213 270.534 184.998C270.935 184.774 271.397 184.662 271.92 184.662C272.443 184.662 272.905 184.774 273.306 184.998C273.707 185.213 274.043 185.525 274.314 185.936C274.585 186.347 274.79 186.846 274.93 187.434C275.07 188.022 275.14 188.68 275.14 189.408C275.14 190.136 275.07 190.794 274.93 191.382C274.79 191.97 274.585 192.469 274.314 192.88C274.043 193.291 273.707 193.608 273.306 193.832C272.905 194.047 272.443 194.154 271.92 194.154ZM271.92 193.132C273.292 193.132 273.978 191.891 273.978 189.408C273.978 186.925 273.292 185.684 271.92 185.684C270.548 185.684 269.862 186.925 269.862 189.408C269.862 191.891 270.548 193.132 271.92 193.132Z" fill="black"/>
<g clip-path="url(#clip7_2076_9792)">
<rect y="271" width="16" height="16" rx="8" fill="white"/>
<line x1="-6.35355" y1="272.932" x2="21.9307" y2="244.647" stroke="#CCCCCC"/>
<line x1="-6.35355" y1="279.932" x2="21.9307" y2="251.647" stroke="#CCCCCC"/>
<line x1="-6.35355" y1="286.932" x2="21.9307" y2="258.647" stroke="#CCCCCC"/>
<line x1="-6.35355" y1="293.932" x2="21.9307" y2="265.647" stroke="#CCCCCC"/>
<line x1="-6.35355" y1="300.932" x2="21.9307" y2="272.647" stroke="#CCCCCC"/>
<line x1="-6.35355" y1="307.932" x2="21.9307" y2="279.647" stroke="#CCCCCC"/>
<line x1="-6.35355" y1="314.932" x2="21.9307" y2="286.647" stroke="#CCCCCC"/>
</g>
<rect x="0.5" y="271.5" width="15" height="15" rx="7.5" stroke="#CCCCCC"/>
<path d="M0 279H16C16 283.418 12.4183 287 8 287C3.58172 287 0 283.418 0 279Z" fill="#00AAD2"/>
<path d="M27.5657 277.092C27.4817 276.896 27.4024 276.705 27.3277 276.518C27.2624 276.322 27.2017 276.145 27.1457 275.986C27.0897 275.827 27.043 275.692 27.0057 275.58C26.9684 275.459 26.945 275.37 26.9357 275.314H26.8937C26.903 275.361 26.9077 275.449 26.9077 275.58C26.917 275.701 26.9217 275.851 26.9217 276.028C26.931 276.196 26.9357 276.383 26.9357 276.588C26.945 276.793 26.9497 276.999 26.9497 277.204V283H25.7877V273.48H27.2717L30.0437 280.382C30.1464 280.634 30.235 280.877 30.3097 281.11C30.3937 281.334 30.4357 281.497 30.4357 281.6H30.4777C30.4777 281.497 30.515 281.334 30.5897 281.11C30.6644 280.877 30.753 280.634 30.8557 280.382L33.6277 273.48H35.1117V283H33.9497V277.204C33.9497 276.999 33.9497 276.793 33.9497 276.588C33.959 276.383 33.9637 276.196 33.9637 276.028C33.973 275.851 33.9777 275.701 33.9777 275.58C33.987 275.449 33.9964 275.361 34.0057 275.314H33.9637C33.9544 275.37 33.931 275.459 33.8937 275.58C33.8564 275.692 33.8097 275.827 33.7537 275.986C33.6977 276.145 33.6324 276.322 33.5577 276.518C33.4924 276.705 33.4177 276.896 33.3337 277.092L30.9957 283H29.9037L27.5657 277.092ZM40.4086 282.16C41.0526 282.16 41.566 281.931 41.9486 281.474C42.3313 281.007 42.5226 280.359 42.5226 279.528C42.5226 278.697 42.3313 278.053 41.9486 277.596C41.566 277.129 41.0526 276.896 40.4086 276.896C39.7646 276.896 39.2513 277.129 38.8686 277.596C38.486 278.053 38.2946 278.697 38.2946 279.528C38.2946 280.359 38.486 281.007 38.8686 281.474C39.2513 281.931 39.7646 282.16 40.4086 282.16ZM40.4086 275.902C40.9033 275.902 41.3513 275.991 41.7526 276.168C42.1633 276.345 42.5086 276.593 42.7886 276.91C43.078 277.227 43.2973 277.61 43.4466 278.058C43.6053 278.506 43.6846 278.996 43.6846 279.528C43.6846 280.06 43.6053 280.55 43.4466 280.998C43.2973 281.446 43.078 281.829 42.7886 282.146C42.5086 282.463 42.1633 282.711 41.7526 282.888C41.3513 283.065 40.9033 283.154 40.4086 283.154C39.914 283.154 39.4613 283.065 39.0506 282.888C38.6493 282.711 38.304 282.463 38.0146 282.146C37.7346 281.829 37.5153 281.446 37.3566 280.998C37.2073 280.55 37.1326 280.06 37.1326 279.528C37.1326 278.996 37.2073 278.506 37.3566 278.058C37.5153 277.61 37.7346 277.227 38.0146 276.91C38.304 276.593 38.6493 276.345 39.0506 276.168C39.4613 275.991 39.914 275.902 40.4086 275.902ZM45.5376 276.056H46.6156V277.008C46.709 276.868 46.8256 276.733 46.9656 276.602C47.1056 276.471 47.2643 276.355 47.4416 276.252C47.6283 276.149 47.829 276.065 48.0436 276C48.2583 275.935 48.487 275.902 48.7296 275.902C49.5416 275.902 50.1623 276.145 50.5916 276.63C51.0303 277.115 51.2496 277.797 51.2496 278.674V283H50.1296V278.786C50.1296 278.161 49.9803 277.689 49.6816 277.372C49.3923 277.055 48.9816 276.896 48.4496 276.896C47.9736 276.896 47.5816 277.022 47.2736 277.274C46.9656 277.526 46.7603 277.815 46.6576 278.142V283H45.5376V276.056ZM56.059 283.056C55.3403 283.056 54.799 282.879 54.435 282.524C54.071 282.16 53.889 281.581 53.889 280.788V277.008H52.643V276.056H53.903V274.25H55.009V276.056H56.563V277.008H55.009V280.788C55.009 281.264 55.1163 281.595 55.331 281.782C55.5456 281.969 55.891 282.062 56.367 282.062H56.563V283.014C56.423 283.042 56.255 283.056 56.059 283.056ZM58.2525 273.06H59.3725V276.938C59.5592 276.677 59.8345 276.439 60.1985 276.224C60.5625 276.009 60.9778 275.902 61.4445 275.902C62.2565 275.902 62.8772 276.145 63.3065 276.63C63.7452 277.115 63.9645 277.797 63.9645 278.674V283H62.8445V278.786C62.8445 278.161 62.6952 277.689 62.3965 277.372C62.1072 277.055 61.6965 276.896 61.1645 276.896C60.6885 276.896 60.2965 277.022 59.9885 277.274C59.6805 277.526 59.4752 277.815 59.3725 278.142V283H58.2525V273.06ZM67.3022 273.06V283H66.1822V273.06H67.3022ZM71.5181 282.3L68.8301 276.056H70.0341L71.6301 280.032C71.7328 280.293 71.8215 280.541 71.8961 280.774C71.9801 281.007 72.0221 281.175 72.0221 281.278H72.0641C72.1015 281.091 72.1481 280.905 72.2041 280.718C72.2601 280.522 72.3395 280.293 72.4421 280.032L73.9261 276.056H75.1441L71.3081 285.632H70.0901L71.5181 282.3ZM79.9224 276.056H81.0004V277.05C81.2524 276.695 81.5697 276.415 81.9524 276.21C82.3444 276.005 82.7644 275.902 83.2124 275.902C83.6697 275.902 84.0851 275.991 84.4584 276.168C84.8317 276.345 85.1491 276.593 85.4104 276.91C85.6811 277.227 85.8864 277.61 86.0264 278.058C86.1664 278.506 86.2364 278.996 86.2364 279.528C86.2364 280.06 86.1664 280.55 86.0264 280.998C85.8864 281.446 85.6811 281.829 85.4104 282.146C85.1491 282.463 84.8317 282.711 84.4584 282.888C84.0851 283.065 83.6697 283.154 83.2124 283.154C82.7737 283.154 82.3631 283.056 81.9804 282.86C81.6071 282.664 81.2944 282.403 81.0424 282.076V285.632H79.9224V276.056ZM82.9744 282.16C83.6371 282.16 84.1504 281.927 84.5144 281.46C84.8877 280.993 85.0744 280.349 85.0744 279.528C85.0744 278.707 84.8877 278.063 84.5144 277.596C84.1504 277.129 83.6371 276.896 82.9744 276.896C82.5357 276.896 82.1437 277.013 81.7984 277.246C81.4531 277.479 81.2011 277.783 81.0424 278.156V280.914C81.2011 281.287 81.4531 281.591 81.7984 281.824C82.1437 282.048 82.5357 282.16 82.9744 282.16ZM90.1282 283.154C89.7362 283.154 89.3815 283.093 89.0642 282.972C88.7469 282.851 88.4762 282.687 88.2522 282.482C88.0375 282.277 87.8695 282.039 87.7482 281.768C87.6269 281.488 87.5662 281.189 87.5662 280.872C87.5662 280.555 87.6269 280.261 87.7482 279.99C87.8695 279.71 88.0375 279.467 88.2522 279.262C88.4762 279.057 88.7469 278.893 89.0642 278.772C89.3815 278.651 89.7362 278.59 90.1282 278.59C90.4922 278.59 90.8422 278.66 91.1782 278.8C91.5142 278.931 91.8082 279.131 92.0602 279.402V278.702C92.0602 278.198 91.9202 277.773 91.6402 277.428C91.3695 277.073 90.9449 276.896 90.3662 276.896C89.9555 276.896 89.6242 276.966 89.3722 277.106C89.1202 277.246 88.8682 277.437 88.6162 277.68L87.9722 276.952C88.0935 276.821 88.2289 276.695 88.3782 276.574C88.5369 276.443 88.7142 276.331 88.9102 276.238C89.1062 276.135 89.3255 276.056 89.5682 276C89.8109 275.935 90.0862 275.902 90.3942 275.902C90.8515 275.902 91.2529 275.967 91.5982 276.098C91.9435 276.229 92.2329 276.415 92.4662 276.658C92.6995 276.891 92.8769 277.176 92.9982 277.512C93.1195 277.848 93.1802 278.217 93.1802 278.618V283H92.1022V282.314C91.8409 282.594 91.5375 282.804 91.1922 282.944C90.8562 283.084 90.5015 283.154 90.1282 283.154ZM90.2822 282.216C90.5995 282.216 90.9262 282.151 91.2622 282.02C91.6075 281.889 91.8735 281.665 92.0602 281.348V280.396C91.8735 280.088 91.6075 279.869 91.2622 279.738C90.9262 279.598 90.5995 279.528 90.2822 279.528C90.0022 279.528 89.7595 279.57 89.5542 279.654C89.3582 279.729 89.1949 279.831 89.0642 279.962C88.9429 280.093 88.8495 280.237 88.7842 280.396C88.7282 280.555 88.7002 280.713 88.7002 280.872C88.7002 281.031 88.7282 281.189 88.7842 281.348C88.8495 281.507 88.9429 281.651 89.0642 281.782C89.1949 281.913 89.3582 282.02 89.5542 282.104C89.7595 282.179 90.0022 282.216 90.2822 282.216ZM97.0846 282.3L94.3966 276.056H95.6006L97.1966 280.032C97.2992 280.293 97.3879 280.541 97.4626 280.774C97.5466 281.007 97.5886 281.175 97.5886 281.278H97.6306C97.6679 281.091 97.7146 280.905 97.7706 280.718C97.8266 280.522 97.9059 280.293 98.0086 280.032L99.4926 276.056H100.711L96.8746 285.632H95.6566L97.0846 282.3ZM102.194 276.056H103.272V277.008C103.365 276.868 103.482 276.733 103.622 276.602C103.762 276.471 103.921 276.355 104.098 276.252C104.285 276.149 104.485 276.065 104.7 276C104.915 275.935 105.143 275.902 105.386 275.902C105.899 275.902 106.333 276.009 106.688 276.224C107.052 276.429 107.327 276.733 107.514 277.134C107.598 276.985 107.715 276.84 107.864 276.7C108.013 276.551 108.186 276.42 108.382 276.308C108.578 276.187 108.797 276.089 109.04 276.014C109.283 275.939 109.539 275.902 109.81 275.902C110.613 275.902 111.229 276.145 111.658 276.63C112.087 277.106 112.302 277.778 112.302 278.646V283H111.182V278.758C111.182 278.142 111.042 277.68 110.762 277.372C110.491 277.055 110.104 276.896 109.6 276.896C109.124 276.896 108.732 277.022 108.424 277.274C108.116 277.526 107.911 277.815 107.808 278.142V283H106.688V278.758C106.688 278.142 106.548 277.68 106.268 277.372C105.997 277.055 105.61 276.896 105.106 276.896C104.63 276.896 104.238 277.022 103.93 277.274C103.622 277.526 103.417 277.815 103.314 278.142V283H102.194V276.056ZM117.27 283.154C116.776 283.154 116.332 283.07 115.94 282.902C115.548 282.734 115.212 282.491 114.932 282.174C114.662 281.857 114.452 281.479 114.302 281.04C114.153 280.592 114.078 280.088 114.078 279.528C114.078 278.977 114.153 278.478 114.302 278.03C114.452 277.582 114.662 277.204 114.932 276.896C115.212 276.579 115.544 276.336 115.926 276.168C116.318 275.991 116.752 275.902 117.228 275.902C117.695 275.902 118.115 275.991 118.488 276.168C118.862 276.336 119.179 276.574 119.44 276.882C119.702 277.181 119.902 277.54 120.042 277.96C120.182 278.38 120.252 278.837 120.252 279.332C120.252 279.528 120.238 279.71 120.21 279.878H115.254C115.301 280.606 115.506 281.171 115.87 281.572C116.234 281.964 116.724 282.16 117.34 282.16C117.77 282.16 118.152 282.071 118.488 281.894C118.824 281.717 119.095 281.465 119.3 281.138L120.056 281.768C119.795 282.16 119.436 282.491 118.978 282.762C118.53 283.023 117.961 283.154 117.27 283.154ZM117.228 276.896C116.696 276.896 116.258 277.073 115.912 277.428C115.567 277.773 115.352 278.273 115.268 278.926H119.076C119.039 278.301 118.852 277.806 118.516 277.442C118.19 277.078 117.76 276.896 117.228 276.896ZM122.045 276.056H123.123V277.008C123.217 276.868 123.333 276.733 123.473 276.602C123.613 276.471 123.772 276.355 123.949 276.252C124.136 276.149 124.337 276.065 124.551 276C124.766 275.935 124.995 275.902 125.237 275.902C126.049 275.902 126.67 276.145 127.099 276.63C127.538 277.115 127.757 277.797 127.757 278.674V283H126.637V278.786C126.637 278.161 126.488 277.689 126.189 277.372C125.9 277.055 125.489 276.896 124.957 276.896C124.481 276.896 124.089 277.022 123.781 277.274C123.473 277.526 123.268 277.815 123.165 278.142V283H122.045V276.056ZM132.567 283.056C131.848 283.056 131.307 282.879 130.943 282.524C130.579 282.16 130.397 281.581 130.397 280.788V277.008H129.151V276.056H130.411V274.25H131.517V276.056H133.071V277.008H131.517V280.788C131.517 281.264 131.624 281.595 131.839 281.782C132.053 281.969 132.399 282.062 132.875 282.062H133.071V283.014C132.931 283.042 132.763 283.056 132.567 283.056Z" fill="black"/>
<g clip-path="url(#clip8_2076_9792)">
<rect y="296" width="16" height="16" rx="8" fill="white"/>
<line x1="-6.35355" y1="297.932" x2="21.9307" y2="269.647" stroke="#E5E5E5"/>
<line x1="-6.35355" y1="304.932" x2="21.9307" y2="276.647" stroke="#E5E5E5"/>
<line x1="-6.35355" y1="311.932" x2="21.9307" y2="283.647" stroke="#E5E5E5"/>
<line x1="-6.35355" y1="318.932" x2="21.9307" y2="290.647" stroke="#E5E5E5"/>
<line x1="-6.35355" y1="325.932" x2="21.9307" y2="297.647" stroke="#E5E5E5"/>
<line x1="-6.35355" y1="332.932" x2="21.9307" y2="304.647" stroke="#E5E5E5"/>
<line x1="-6.35355" y1="339.932" x2="21.9307" y2="311.647" stroke="#E5E5E5"/>
</g>
<rect x="0.5" y="296.5" width="15" height="15" rx="7.5" stroke="#E5E5E5"/>
<path d="M0 304C0 299.582 3.58172 296 8 296C12.4183 296 16 299.582 16 304C16 308.418 12.4183 312 8 312C3.58172 312 0 308.418 0 304Z" fill="#00AAD2"/>
<path d="M31.6274 301.294C31.6274 302.199 31.3567 302.895 30.8154 303.38C30.2834 303.865 29.5414 304.108 28.5894 304.108H26.5874V308H25.4254V298.48H28.5894C29.5414 298.48 30.2834 298.723 30.8154 299.208C31.3567 299.693 31.6274 300.389 31.6274 301.294ZM30.4234 301.294C30.4234 300.706 30.2601 300.258 29.9334 299.95C29.6067 299.633 29.1121 299.474 28.4494 299.474H26.5874V303.114H28.4494C29.1121 303.114 29.6067 302.96 29.9334 302.652C30.2601 302.335 30.4234 301.882 30.4234 301.294ZM33.2945 301.056H34.3725V302.302C34.5592 301.919 34.8252 301.593 35.1705 301.322C35.5158 301.042 35.9358 300.902 36.4305 300.902C36.4772 300.902 36.5238 300.902 36.5705 300.902C36.6265 300.902 36.6778 300.911 36.7245 300.93V302.064H36.3465C35.8798 302.064 35.4832 302.19 35.1565 302.442C34.8298 302.694 34.5825 303.086 34.4145 303.618V308H33.2945V301.056ZM39.3227 301.056V308H38.2027V301.056H39.3227ZM39.4627 298.06V299.46H38.0627V298.06H39.4627ZM41.6207 301.056H42.6987V302.008C42.792 301.868 42.9087 301.733 43.0487 301.602C43.1887 301.471 43.3473 301.355 43.5247 301.252C43.7113 301.149 43.912 301.065 44.1267 301C44.3413 300.935 44.57 300.902 44.8127 300.902C45.6247 300.902 46.2453 301.145 46.6747 301.63C47.1133 302.115 47.3327 302.797 47.3327 303.674V308H46.2127V303.786C46.2127 303.161 46.0633 302.689 45.7647 302.372C45.4753 302.055 45.0647 301.896 44.5327 301.896C44.0567 301.896 43.6647 302.022 43.3567 302.274C43.0487 302.526 42.8433 302.815 42.7407 303.142V308H41.6207V301.056ZM49.1163 304.528C49.1163 303.996 49.1863 303.506 49.3263 303.058C49.4757 302.61 49.6857 302.227 49.9563 301.91C50.2363 301.593 50.5723 301.345 50.9643 301.168C51.3657 300.991 51.8183 300.902 52.3223 300.902C52.985 300.902 53.5637 301.07 54.0583 301.406C54.553 301.733 54.8983 302.176 55.0943 302.736L54.2123 303.184C54.0537 302.764 53.811 302.447 53.4843 302.232C53.1577 302.008 52.7703 301.896 52.3223 301.896C51.697 301.896 51.1977 302.129 50.8243 302.596C50.4603 303.053 50.2783 303.697 50.2783 304.528C50.2783 305.359 50.4603 306.007 50.8243 306.474C51.1977 306.931 51.697 307.16 52.3223 307.16C52.7703 307.16 53.1577 307.053 53.4843 306.838C53.811 306.614 54.0537 306.292 54.2123 305.872L55.0943 306.32C54.8983 306.88 54.553 307.328 54.0583 307.664C53.5637 307.991 52.985 308.154 52.3223 308.154C51.8183 308.154 51.3657 308.065 50.9643 307.888C50.5723 307.711 50.2363 307.463 49.9563 307.146C49.6857 306.829 49.4757 306.446 49.3263 305.998C49.1863 305.55 49.1163 305.06 49.1163 304.528ZM57.9301 301.056V308H56.8101V301.056H57.9301ZM58.0701 298.06V299.46H56.6701V298.06H58.0701ZM60.2281 301.056H61.3061V302.05C61.5581 301.695 61.8754 301.415 62.2581 301.21C62.6501 301.005 63.0701 300.902 63.5181 300.902C63.9754 300.902 64.3907 300.991 64.7641 301.168C65.1374 301.345 65.4547 301.593 65.7161 301.91C65.9867 302.227 66.1921 302.61 66.3321 303.058C66.4721 303.506 66.5421 303.996 66.5421 304.528C66.5421 305.06 66.4721 305.55 66.3321 305.998C66.1921 306.446 65.9867 306.829 65.7161 307.146C65.4547 307.463 65.1374 307.711 64.7641 307.888C64.3907 308.065 63.9754 308.154 63.5181 308.154C63.0794 308.154 62.6687 308.056 62.2861 307.86C61.9127 307.664 61.6001 307.403 61.3481 307.076V310.632H60.2281V301.056ZM63.2801 307.16C63.9427 307.16 64.4561 306.927 64.8201 306.46C65.1934 305.993 65.3801 305.349 65.3801 304.528C65.3801 303.707 65.1934 303.063 64.8201 302.596C64.4561 302.129 63.9427 301.896 63.2801 301.896C62.8414 301.896 62.4494 302.013 62.1041 302.246C61.7587 302.479 61.5067 302.783 61.3481 303.156V305.914C61.5067 306.287 61.7587 306.591 62.1041 306.824C62.4494 307.048 62.8414 307.16 63.2801 307.16ZM70.4339 308.154C70.0419 308.154 69.6872 308.093 69.3699 307.972C69.0525 307.851 68.7819 307.687 68.5579 307.482C68.3432 307.277 68.1752 307.039 68.0539 306.768C67.9325 306.488 67.8719 306.189 67.8719 305.872C67.8719 305.555 67.9325 305.261 68.0539 304.99C68.1752 304.71 68.3432 304.467 68.5579 304.262C68.7819 304.057 69.0525 303.893 69.3699 303.772C69.6872 303.651 70.0419 303.59 70.4339 303.59C70.7979 303.59 71.1479 303.66 71.4839 303.8C71.8199 303.931 72.1139 304.131 72.3659 304.402V303.702C72.3659 303.198 72.2259 302.773 71.9459 302.428C71.6752 302.073 71.2505 301.896 70.6719 301.896C70.2612 301.896 69.9299 301.966 69.6779 302.106C69.4259 302.246 69.1739 302.437 68.9219 302.68L68.2779 301.952C68.3992 301.821 68.5345 301.695 68.6839 301.574C68.8425 301.443 69.0199 301.331 69.2159 301.238C69.4119 301.135 69.6312 301.056 69.8739 301C70.1165 300.935 70.3919 300.902 70.6999 300.902C71.1572 300.902 71.5585 300.967 71.9039 301.098C72.2492 301.229 72.5385 301.415 72.7719 301.658C73.0052 301.891 73.1825 302.176 73.3039 302.512C73.4252 302.848 73.4859 303.217 73.4859 303.618V308H72.4079V307.314C72.1465 307.594 71.8432 307.804 71.4979 307.944C71.1619 308.084 70.8072 308.154 70.4339 308.154ZM70.5879 307.216C70.9052 307.216 71.2319 307.151 71.5679 307.02C71.9132 306.889 72.1792 306.665 72.3659 306.348V305.396C72.1792 305.088 71.9132 304.869 71.5679 304.738C71.2319 304.598 70.9052 304.528 70.5879 304.528C70.3079 304.528 70.0652 304.57 69.8599 304.654C69.6639 304.729 69.5005 304.831 69.3699 304.962C69.2485 305.093 69.1552 305.237 69.0899 305.396C69.0339 305.555 69.0059 305.713 69.0059 305.872C69.0059 306.031 69.0339 306.189 69.0899 306.348C69.1552 306.507 69.2485 306.651 69.3699 306.782C69.5005 306.913 69.6639 307.02 69.8599 307.104C70.0652 307.179 70.3079 307.216 70.5879 307.216ZM76.8246 298.06V308H75.7046V298.06H76.8246Z" fill="black"/>
<g clip-path="url(#clip9_2076_9792)">
<rect y="321" width="16" height="16" rx="8" fill="white"/>
<line x1="-6.35355" y1="322.932" x2="21.9307" y2="294.647" stroke="#CCCCCC"/>
<line x1="-6.35355" y1="329.932" x2="21.9307" y2="301.647" stroke="#CCCCCC"/>
<line x1="-6.35355" y1="336.932" x2="21.9307" y2="308.647" stroke="#CCCCCC"/>
<line x1="-6.35355" y1="343.932" x2="21.9307" y2="315.647" stroke="#CCCCCC"/>
<line x1="-6.35355" y1="350.932" x2="21.9307" y2="322.647" stroke="#CCCCCC"/>
<line x1="-6.35355" y1="357.932" x2="21.9307" y2="329.647" stroke="#CCCCCC"/>
<line x1="-6.35355" y1="364.932" x2="21.9307" y2="336.647" stroke="#CCCCCC"/>
</g>
<rect x="0.5" y="321.5" width="15" height="15" rx="7.5" stroke="#CCCCCC"/>
<path d="M25.6793 323.48H26.8413V333H25.6793V323.48ZM29.3921 326.056H30.4701V327.008C30.5635 326.868 30.6801 326.733 30.8201 326.602C30.9601 326.471 31.1188 326.355 31.2961 326.252C31.4828 326.149 31.6835 326.065 31.8981 326C32.1128 325.935 32.3415 325.902 32.5841 325.902C33.3961 325.902 34.0168 326.145 34.4461 326.63C34.8848 327.115 35.1041 327.797 35.1041 328.674V333H33.9841V328.786C33.9841 328.161 33.8348 327.689 33.5361 327.372C33.2468 327.055 32.8361 326.896 32.3041 326.896C31.8281 326.896 31.4361 327.022 31.1281 327.274C30.8201 327.526 30.6148 327.815 30.5121 328.142V333H29.3921V326.056ZM39.9135 333.056C39.1948 333.056 38.6535 332.879 38.2895 332.524C37.9255 332.16 37.7435 331.581 37.7435 330.788V327.008H36.4975V326.056H37.7575V324.25H38.8635V326.056H40.4175V327.008H38.8635V330.788C38.8635 331.264 38.9708 331.595 39.1855 331.782C39.4001 331.969 39.7455 332.062 40.2215 332.062H40.4175V333.014C40.2775 333.042 40.1095 333.056 39.9135 333.056ZM44.783 333.154C44.2883 333.154 43.845 333.07 43.453 332.902C43.061 332.734 42.725 332.491 42.445 332.174C42.1743 331.857 41.9643 331.479 41.815 331.04C41.6656 330.592 41.591 330.088 41.591 329.528C41.591 328.977 41.6656 328.478 41.815 328.03C41.9643 327.582 42.1743 327.204 42.445 326.896C42.725 326.579 43.0563 326.336 43.439 326.168C43.831 325.991 44.265 325.902 44.741 325.902C45.2076 325.902 45.6276 325.991 46.001 326.168C46.3743 326.336 46.6916 326.574 46.953 326.882C47.2143 327.181 47.415 327.54 47.555 327.96C47.695 328.38 47.765 328.837 47.765 329.332C47.765 329.528 47.751 329.71 47.723 329.878H42.767C42.8136 330.606 43.019 331.171 43.383 331.572C43.747 331.964 44.237 332.16 44.853 332.16C45.2823 332.16 45.665 332.071 46.001 331.894C46.337 331.717 46.6076 331.465 46.813 331.138L47.569 331.768C47.3076 332.16 46.9483 332.491 46.491 332.762C46.043 333.023 45.4736 333.154 44.783 333.154ZM44.741 326.896C44.209 326.896 43.7703 327.073 43.425 327.428C43.0796 327.773 42.865 328.273 42.781 328.926H46.589C46.5516 328.301 46.365 327.806 46.029 327.442C45.7023 327.078 45.273 326.896 44.741 326.896ZM49.5582 326.056H50.6362V327.302C50.8228 326.919 51.0888 326.593 51.4342 326.322C51.7795 326.042 52.1995 325.902 52.6942 325.902C52.7408 325.902 52.7875 325.902 52.8342 325.902C52.8902 325.902 52.9415 325.911 52.9882 325.93V327.064H52.6102C52.1435 327.064 51.7468 327.19 51.4202 327.442C51.0935 327.694 50.8462 328.086 50.6782 328.618V333H49.5582V326.056ZM57.0193 333.154C56.5246 333.154 56.0813 333.07 55.6893 332.902C55.2973 332.734 54.9613 332.491 54.6813 332.174C54.4106 331.857 54.2006 331.479 54.0513 331.04C53.9019 330.592 53.8273 330.088 53.8273 329.528C53.8273 328.977 53.9019 328.478 54.0513 328.03C54.2006 327.582 54.4106 327.204 54.6813 326.896C54.9613 326.579 55.2926 326.336 55.6753 326.168C56.0673 325.991 56.5013 325.902 56.9773 325.902C57.4439 325.902 57.8639 325.991 58.2373 326.168C58.6106 326.336 58.9279 326.574 59.1893 326.882C59.4506 327.181 59.6513 327.54 59.7913 327.96C59.9313 328.38 60.0013 328.837 60.0013 329.332C60.0013 329.528 59.9873 329.71 59.9593 329.878H55.0033C55.0499 330.606 55.2553 331.171 55.6193 331.572C55.9833 331.964 56.4733 332.16 57.0893 332.16C57.5186 332.16 57.9013 332.071 58.2373 331.894C58.5733 331.717 58.8439 331.465 59.0493 331.138L59.8053 331.768C59.5439 332.16 59.1846 332.491 58.7273 332.762C58.2793 333.023 57.7099 333.154 57.0193 333.154ZM56.9773 326.896C56.4453 326.896 56.0066 327.073 55.6613 327.428C55.3159 327.773 55.1013 328.273 55.0173 328.926H58.8253C58.7879 328.301 58.6013 327.806 58.2653 327.442C57.9386 327.078 57.5093 326.896 56.9773 326.896ZM65.3225 327.666C65.1172 327.377 64.8885 327.171 64.6365 327.05C64.3845 326.919 64.1092 326.854 63.8105 326.854C63.4652 326.854 63.2038 326.952 63.0265 327.148C62.8492 327.335 62.7605 327.554 62.7605 327.806C62.7605 328.31 63.0592 328.627 63.6565 328.758L64.2445 328.884C64.9072 329.024 65.4205 329.257 65.7845 329.584C66.1578 329.901 66.3445 330.368 66.3445 330.984C66.3445 331.264 66.2838 331.535 66.1625 331.796C66.0505 332.057 65.8825 332.291 65.6585 332.496C65.4345 332.692 65.1592 332.851 64.8325 332.972C64.5058 333.093 64.1372 333.154 63.7265 333.154C63.4185 333.154 63.1338 333.112 62.8725 333.028C62.6112 332.953 62.3685 332.851 62.1445 332.72C61.9298 332.589 61.7338 332.435 61.5565 332.258C61.3792 332.081 61.2298 331.899 61.1085 331.712L61.8365 331.04C62.0418 331.348 62.3032 331.619 62.6205 331.852C62.9378 332.085 63.3158 332.202 63.7545 332.202C64.2025 332.202 64.5572 332.099 64.8185 331.894C65.0798 331.689 65.2105 331.409 65.2105 331.054C65.2105 330.727 65.0938 330.48 64.8605 330.312C64.6272 330.144 64.3145 330.018 63.9225 329.934L63.3345 329.808C62.7838 329.687 62.3592 329.467 62.0605 329.15C61.7712 328.833 61.6265 328.422 61.6265 327.918C61.6265 327.657 61.6732 327.405 61.7665 327.162C61.8692 326.91 62.0138 326.695 62.2005 326.518C62.3872 326.331 62.6205 326.182 62.9005 326.07C63.1805 325.958 63.4978 325.902 63.8525 325.902C64.3378 325.902 64.7672 326.005 65.1405 326.21C65.5138 326.415 65.8172 326.691 66.0505 327.036L65.3225 327.666ZM70.6752 333.056C69.9565 333.056 69.4152 332.879 69.0512 332.524C68.6872 332.16 68.5052 331.581 68.5052 330.788V327.008H67.2592V326.056H68.5192V324.25H69.6252V326.056H71.1792V327.008H69.6252V330.788C69.6252 331.264 69.7325 331.595 69.9472 331.782C70.1619 331.969 70.5072 332.062 70.9832 332.062H71.1792V333.014C71.0392 333.042 70.8712 333.056 70.6752 333.056Z" fill="black"/>
<defs>
<clipPath id="clip0_2076_9792">
<rect width="24" height="24" fill="white" transform="translate(0 218)"/>
</clipPath>
<clipPath id="clip1_2076_9792">
<rect x="20" y="80" width="16" height="71" rx="8" fill="white"/>
</clipPath>
<clipPath id="clip2_2076_9792">
<rect x="68" y="80" width="16" height="71" rx="8" fill="white"/>
</clipPath>
<clipPath id="clip3_2076_9792">
<rect x="116" width="16" height="151" rx="8" fill="white"/>
</clipPath>
<clipPath id="clip4_2076_9792">
<rect x="164" y="1" width="16" height="150" rx="8" fill="white"/>
</clipPath>
<clipPath id="clip5_2076_9792">
<rect x="212" y="1" width="16" height="150" rx="8" fill="white"/>
</clipPath>
<clipPath id="clip6_2076_9792">
<rect x="260" y="1" width="16" height="150" rx="8" fill="white"/>
</clipPath>
<clipPath id="clip7_2076_9792">
<rect y="271" width="16" height="16" rx="8" fill="white"/>
</clipPath>
<clipPath id="clip8_2076_9792">
<rect y="296" width="16" height="16" rx="8" fill="white"/>
</clipPath>
<clipPath id="clip9_2076_9792">
<rect y="321" width="16" height="16" rx="8" fill="white"/>
</clipPath>
</defs>
</svg>
