<svg width="70" height="70" viewBox="0 0 70 70" fill="none" xmlns="http://www.w3.org/2000/svg">
<rect x="0.5" y="0.5" width="69" height="69" rx="3.5" stroke="#E5E5E5"/>
<path d="M42.9981 18.3337C45.1006 18.3337 47.0523 19.39 48.2049 21.1266L48.4246 21.4829L52.5775 28.7504H54.9993C55.402 28.7504 55.738 29.0361 55.8158 29.4158L55.8327 29.5837V30.5741C55.8327 31.2625 55.4111 31.8713 54.7859 32.1214L54.5208 32.2033C55.3014 33.8241 55.6493 35.6203 55.5294 37.4167L55.4721 38.0152L53.9614 50.1006C53.7145 52.0759 52.1107 53.5843 50.1558 53.7376L49.8269 53.7504H47.4993C45.3027 53.7504 43.5032 52.0507 43.3441 49.8947L43.3327 49.5837H26.666C26.666 51.7804 24.9663 53.5799 22.8103 53.739L22.4993 53.7504H20.1718C18.1811 53.7504 16.4854 52.346 16.0909 50.4254L16.0373 50.1006L14.5266 38.0152C14.3024 36.221 14.5498 34.4074 15.2337 32.7498L15.4778 32.2033L15.4285 32.191C14.7607 32.0242 14.2723 31.4675 14.1813 30.8002L14.166 30.5741V29.5837C14.166 29.181 14.4517 28.845 14.8314 28.7673L14.9993 28.7504H17.4213L21.5742 21.4829C22.6174 19.6572 24.5027 18.4869 26.5824 18.3477L27.0007 18.3337H42.9981ZM51.1643 35.0744C50.1363 36.1967 48.6909 36.9592 46.9977 37.0698L46.5693 37.0837H23.4293C21.5517 37.0837 19.9482 36.2902 18.8343 35.0744C18.6627 35.7015 18.5895 36.3539 18.6194 37.0079L18.6611 37.4983L20.1718 49.5837H22.4993V47.5004C22.4993 46.432 23.3036 45.5514 24.3397 45.4311L24.5827 45.4171H45.416C46.4845 45.4171 47.365 46.2213 47.4853 47.2574L47.4993 47.5004V49.5837H49.8269L51.3375 37.4983C51.4396 36.6817 51.3789 35.8583 51.1643 35.0744ZM21.9526 38.9552L27.6665 42.0406C28.4436 42.4604 28.1197 43.6419 27.2372 43.6067L22.4161 43.4137C21.2988 43.369 20.416 42.4502 20.416 41.3321V39.8717C20.416 39.0829 21.2586 38.5804 21.9526 38.9552ZM49.5827 39.8717V41.3321C49.5827 42.4502 48.7 43.369 47.5827 43.4137L42.7614 43.6067C41.8789 43.6419 41.555 42.4604 42.3323 42.0406L48.046 38.9552C48.7402 38.5804 49.5827 39.0829 49.5827 39.8717ZM42.9981 22.5004H27.0007C26.2531 22.5004 25.5628 22.901 25.1918 23.5501L21.6204 29.8001C20.8276 31.189 21.8299 32.9171 23.4293 32.9171H46.5693C48.1691 32.9171 49.1718 31.189 48.3783 29.8001L44.8068 23.5501C44.436 22.901 43.7456 22.5004 42.9981 22.5004Z" fill="#09244B"/>
</svg>
