<svg width="18" height="18" viewBox="0 0 18 18" fill="none" xmlns="http://www.w3.org/2000/svg">
<g id="information-circle--information-frame-info-more-help-point-circle">
<path id="Vector" d="M8.99972 17.3569C11.2162 17.3569 13.3418 16.4764 14.9091 14.9091C16.4764 13.3418 17.3569 11.2162 17.3569 8.99972C17.3569 6.78327 16.4764 4.6576 14.9091 3.09033C13.3418 1.52306 11.2162 0.642578 8.99972 0.642578C6.78327 0.642578 4.6576 1.52306 3.09033 3.09033C1.52306 4.6576 0.642578 6.78327 0.642578 8.99972C0.642578 11.2162 1.52306 13.3418 3.09033 14.9091C4.6576 16.4764 6.78327 17.3569 8.99972 17.3569Z" stroke="black" stroke-linecap="round" stroke-linejoin="round"/>
<path id="Vector_2" d="M7.07129 12.8564H10.9284" stroke="black" stroke-linecap="round" stroke-linejoin="round"/>
<path id="Vector_3" d="M8.99958 12.8564V8.35645H7.71387" stroke="black" stroke-linecap="round" stroke-linejoin="round"/>
<g id="Group 2605">
<path id="Ellipse 1111" d="M9.00014 5.46415C8.91489 5.46415 8.83313 5.43028 8.77285 5.37C8.71258 5.30972 8.67871 5.22797 8.67871 5.14272C8.67871 5.05747 8.71258 4.97571 8.77285 4.91543C8.83313 4.85515 8.91489 4.82129 9.00014 4.82129" stroke="black" stroke-linecap="round" stroke-linejoin="round"/>
<path id="Ellipse 1112" d="M9 5.46415C9.08525 5.46415 9.16701 5.43028 9.22728 5.37C9.28756 5.30972 9.32143 5.22797 9.32143 5.14272C9.32143 5.05747 9.28756 4.97571 9.22728 4.91543C9.16701 4.85515 9.08525 4.82129 9 4.82129" stroke="black" stroke-linecap="round" stroke-linejoin="round"/>
</g>
</g>
</svg>
