<svg width="101" height="100" viewBox="0 0 101 100" fill="none" xmlns="http://www.w3.org/2000/svg">
<g clip-path="url(#clip0_258_39589)">
<path d="M73.1737 68.274C71.0199 65.304 68.5615 63.3005 65.2984 65.3676L58.8136 69.1768C53.7134 72.7403 50.4867 70.655 47.0087 67.2655L29.4631 41.0617C27.3285 38.0882 27.5934 34.8872 30.8566 32.8202L39.8784 27.2116C43.1382 25.1253 42.0411 22.1859 39.8872 19.2159L28.8473 5.18738C26.6934 2.21735 23.3227 2.00242 20.0596 4.06945C13.5174 8.22615 8.49965 13.8182 5.92872 21.2373C2.77793 30.3065 7.12367 41.3775 8.90361 46.0405C10.6836 50.7035 15.4164 58.5914 21.1291 66.5236C26.8452 74.4751 31.7301 80.6499 35.6855 83.9349C39.6409 87.2198 49.3646 96.4038 59.4959 97.0452C67.7988 97.5549 76.1081 94.4136 82.631 90.2603C85.8942 88.1932 85.3706 85.1321 83.2133 82.1429L73.1737 68.274Z" fill="#E5E5E5"/>
<g clip-path="url(#clip1_258_39589)">
<mask id="path-2-outside-1_258_39589" maskUnits="userSpaceOnUse" x="49.834" y="11.3359" width="48" height="48" fill="black">
<rect fill="white" x="49.834" y="11.3359" width="48" height="48"/>
<path d="M59.6581 21.1601C59.919 20.8988 60.2289 20.6916 60.5699 20.5501C60.911 20.4087 61.2766 20.3359 61.6458 20.3359C62.015 20.3359 62.3806 20.4087 62.7217 20.5501C63.0628 20.6916 63.3726 20.8988 63.6335 21.1601L73.8344 31.3572L84.0353 21.1601C84.2963 20.8991 84.6062 20.692 84.9473 20.5507C85.2883 20.4095 85.6538 20.3368 86.023 20.3368C86.3921 20.3368 86.7577 20.4095 87.0987 20.5507C87.4398 20.692 87.7496 20.8991 88.0107 21.1601C88.2717 21.4211 88.4787 21.731 88.62 22.072C88.7613 22.4131 88.834 22.7786 88.834 23.1478C88.834 23.5169 88.7613 23.8824 88.62 24.2235C88.4787 24.5645 88.2717 24.8744 88.0107 25.1354L77.8135 35.3364L88.0107 45.5373C88.5378 46.0644 88.834 46.7794 88.834 47.5249C88.834 48.2705 88.5378 48.9854 88.0107 49.5126C87.4835 50.0398 86.7685 50.3359 86.023 50.3359C85.2775 50.3359 84.5625 50.0398 84.0353 49.5126L73.8344 39.3155L63.6335 49.5126C63.1063 50.0398 62.3913 50.3359 61.6458 50.3359C60.9003 50.3359 60.1853 50.0398 59.6581 49.5126C59.131 48.9854 58.8348 48.2705 58.8348 47.5249C58.8348 46.7794 59.131 46.0644 59.6581 45.5373L69.8553 35.3364L59.6581 25.1354C59.3969 24.8746 59.1896 24.5647 59.0482 24.2236C58.9068 23.8826 58.834 23.517 58.834 23.1478C58.834 22.7785 58.9068 22.4129 59.0482 22.0719C59.1896 21.7308 59.3969 21.421 59.6581 21.1601Z"/>
</mask>
<path d="M59.6581 21.1601L66.0176 27.5286L66.0266 27.5195L59.6581 21.1601ZM61.6458 20.3359V29.3359V20.3359ZM63.6335 21.1601L57.265 27.5195L57.2707 27.5252L63.6335 21.1601ZM73.8344 31.3572L67.4716 37.7224C70.9861 41.2355 76.6827 41.2355 80.1972 37.7224L73.8344 31.3572ZM84.0353 21.1601L90.3981 27.5252L90.3993 27.5241L84.0353 21.1601ZM86.023 20.3368V11.3368V20.3368ZM88.0107 25.1354L81.6467 18.7715L81.6455 18.7727L88.0107 25.1354ZM77.8135 35.3364L71.4484 28.9736C67.9352 32.488 67.9352 38.1847 71.4484 41.6991L77.8135 35.3364ZM88.0107 45.5373L81.6455 51.9001L81.6467 51.9012L88.0107 45.5373ZM84.0353 49.5126L90.3993 43.1487L90.3981 43.1475L84.0353 49.5126ZM73.8344 39.3155L80.1972 32.9503C76.6827 29.4372 70.9861 29.4372 67.4716 32.9503L73.8344 39.3155ZM63.6335 49.5126L57.2707 43.1475L57.2695 43.1487L63.6335 49.5126ZM59.6581 45.5373L66.0221 51.9012L66.0233 51.9001L59.6581 45.5373ZM69.8553 35.3364L76.2204 41.6991C79.7336 38.1847 79.7336 32.488 76.2204 28.9736L69.8553 35.3364ZM59.6581 25.1354L66.0233 18.7727L66.0176 18.767L59.6581 25.1354ZM66.0266 27.5195C65.4516 28.0953 64.7687 28.5522 64.017 28.8638L57.1228 12.2365C55.689 12.831 54.3864 13.7023 53.2896 14.8007L66.0266 27.5195ZM64.017 28.8638C63.2654 29.1755 62.4596 29.3359 61.6458 29.3359V11.3359C60.0936 11.3359 58.5566 11.6419 57.1228 12.2365L64.017 28.8638ZM61.6458 29.3359C60.832 29.3359 60.0263 29.1755 59.2746 28.8638L66.1688 12.2365C64.735 11.6419 63.198 11.3359 61.6458 11.3359V29.3359ZM59.2746 28.8638C58.5229 28.5522 57.84 28.0953 57.265 27.5195L70.002 14.8007C68.9052 13.7023 67.6026 12.831 66.1688 12.2365L59.2746 28.8638ZM57.2707 27.5252L67.4716 37.7224L80.1972 24.9921L69.9963 14.795L57.2707 27.5252ZM80.1972 37.7224L90.3981 27.5252L77.6725 14.795L67.4716 24.9921L80.1972 37.7224ZM90.3993 27.5241C89.8246 28.0987 89.1423 28.5546 88.3914 28.8657L81.5031 12.2358C80.0701 12.8294 78.7681 13.6994 77.6713 14.7961L90.3993 27.5241ZM88.3914 28.8657C87.6405 29.1767 86.8357 29.3368 86.023 29.3368V11.3368C84.4719 11.3368 82.9361 11.6423 81.5031 12.2358L88.3914 28.8657ZM86.023 29.3368C85.2102 29.3368 84.4054 29.1767 83.6546 28.8657L90.5429 12.2358C89.1099 11.6423 87.574 11.3368 86.023 11.3368V29.3368ZM83.6546 28.8657C82.9037 28.5546 82.2214 28.0987 81.6467 27.5241L94.3746 14.7961C93.2779 13.6994 91.9758 12.8294 90.5429 12.2358L83.6546 28.8657ZM81.6467 27.5241C81.072 26.9494 80.6161 26.2671 80.3051 25.5162L96.9349 18.6279C96.3414 17.1949 95.4714 15.8929 94.3746 14.7961L81.6467 27.5241ZM80.3051 25.5162C79.9941 24.7653 79.834 23.9606 79.834 23.1478L97.834 23.1478C97.834 21.5967 97.5285 20.0608 96.9349 18.6279L80.3051 25.5162ZM79.834 23.1478C79.834 22.335 79.9941 21.5302 80.3051 20.7793L96.9349 27.6676C97.5285 26.2347 97.834 24.6988 97.834 23.1478L79.834 23.1478ZM80.3051 20.7793C80.6161 20.0284 81.072 19.3462 81.6467 18.7715L94.3746 31.4994C95.4714 30.4027 96.3414 29.1006 96.9349 27.6676L80.3051 20.7793ZM81.6455 18.7727L71.4484 28.9736L84.1786 41.6991L94.3758 31.4982L81.6455 18.7727ZM71.4484 41.6991L81.6455 51.9001L94.3758 39.1745L84.1786 28.9736L71.4484 41.6991ZM81.6467 51.9012C80.4861 50.7406 79.834 49.1664 79.834 47.5249H97.834C97.834 44.3924 96.5896 41.3883 94.3746 39.1733L81.6467 51.9012ZM79.834 47.5249C79.834 45.8835 80.4861 44.3093 81.6467 43.1487L94.3746 55.8766C96.5896 53.6616 97.834 50.6574 97.834 47.5249H79.834ZM81.6467 43.1487C82.8073 41.988 84.3815 41.3359 86.023 41.3359V59.3359C89.1555 59.3359 92.1596 58.0915 94.3746 55.8766L81.6467 43.1487ZM86.023 41.3359C87.6644 41.3359 89.2386 41.988 90.3993 43.1487L77.6713 55.8766C79.8863 58.0915 82.8905 59.3359 86.023 59.3359V41.3359ZM90.3981 43.1475L80.1972 32.9503L67.4716 45.6806L77.6725 55.8777L90.3981 43.1475ZM67.4716 32.9503L57.2707 43.1475L69.9963 55.8777L80.1972 45.6806L67.4716 32.9503ZM57.2695 43.1487C58.4302 41.988 60.0044 41.3359 61.6458 41.3359V59.3359C64.7783 59.3359 67.7825 58.0915 69.9975 55.8766L57.2695 43.1487ZM61.6458 41.3359C63.2873 41.3359 64.8615 41.988 66.0221 43.1487L53.2942 55.8766C55.5092 58.0915 58.5133 59.3359 61.6458 59.3359V41.3359ZM66.0221 43.1487C67.1828 44.3093 67.8348 45.8835 67.8348 47.5249H49.8348C49.8348 50.6574 51.0792 53.6616 53.2942 55.8766L66.0221 43.1487ZM67.8348 47.5249C67.8348 49.1664 67.1828 50.7406 66.0221 51.9012L53.2942 39.1733C51.0792 41.3883 49.8348 44.3925 49.8348 47.5249H67.8348ZM66.0233 51.9001L76.2204 41.6991L63.4902 28.9736L53.293 39.1745L66.0233 51.9001ZM76.2204 28.9736L66.0233 18.7727L53.293 31.4982L63.4902 41.6991L76.2204 28.9736ZM66.0176 18.767C66.5934 19.342 67.0502 20.0248 67.3619 20.7765L50.7345 27.6708C51.329 29.1046 52.2004 30.4071 53.2987 31.5039L66.0176 18.767ZM67.3619 20.7765C67.6736 21.5282 67.834 22.334 67.834 23.1478H49.834C49.834 24.7 50.14 26.2369 50.7345 27.6708L67.3619 20.7765ZM67.834 23.1478C67.834 23.9615 67.6736 24.7673 67.3619 25.519L50.7345 18.6248C50.14 20.0586 49.834 21.5956 49.834 23.1478H67.834ZM67.3619 25.519C67.0502 26.2707 66.5934 26.9536 66.0176 27.5286L53.2987 14.7916C52.2004 15.8884 51.329 17.1909 50.7345 18.6248L67.3619 25.519Z" fill="white" mask="url(#path-2-outside-1_258_39589)"/>
<path d="M60.1889 19.6264C59.7266 19.8181 59.3066 20.0989 58.953 20.453C58.5989 20.8066 58.3181 21.2266 58.1264 21.6889C57.9346 22.1514 57.8359 22.6471 57.8359 23.1478C57.8359 23.6484 57.9346 24.1442 58.1264 24.6067C58.3181 25.069 58.599 25.489 58.9531 25.8427C58.9533 25.8428 58.9534 25.8429 58.9535 25.8431L68.4433 35.3364L58.953 44.8302C58.2383 45.5449 57.8368 46.5142 57.8368 47.5249C57.8368 48.5357 58.2383 49.505 58.953 50.2197L59.6543 49.5184L58.953 50.2197C59.6677 50.9344 60.637 51.3359 61.6478 51.3359C62.6584 51.3359 63.6277 50.9345 64.3424 50.2199C64.3425 50.2198 64.3425 50.2198 64.3426 50.2197L73.8364 40.7294L83.3302 50.2197C84.0449 50.9344 85.0142 51.3359 86.0249 51.3359C87.0357 51.3359 88.005 50.9344 88.7197 50.2197C89.4344 49.505 89.8359 48.5357 89.8359 47.5249C89.8359 46.5142 89.4344 45.5449 88.7197 44.8302L79.2294 35.3364L88.7197 25.8425C88.7198 25.8425 88.7198 25.8425 88.7199 25.8424C89.0737 25.4886 89.3543 25.0685 89.5458 24.6062C89.7374 24.1438 89.8359 23.6482 89.8359 23.1478C89.8359 22.6473 89.7374 22.1517 89.5458 21.6894C89.3543 21.227 89.0736 20.8069 88.7197 20.453C88.3658 20.0991 87.9457 19.8184 87.4833 19.6269C87.021 19.4353 86.5254 19.3368 86.0249 19.3368C85.5245 19.3368 85.0289 19.4353 84.5665 19.6269C84.1042 19.8184 83.684 20.0991 83.3302 20.453L73.8364 29.9433L64.3431 20.4535C64.3429 20.4534 64.3428 20.4533 64.3427 20.4531C63.989 20.099 63.569 19.8181 63.1067 19.6264C62.6442 19.4346 62.1484 19.3359 61.6478 19.3359C61.1471 19.3359 60.6514 19.4346 60.1889 19.6264Z" fill="#00AAD2" stroke="#00AAD2" stroke-width="2" stroke-linejoin="round"/>
</g>
</g>
<defs>
<clipPath id="clip0_258_39589">
<rect width="100" height="100" fill="white" transform="translate(0.5)"/>
</clipPath>
<clipPath id="clip1_258_39589">
<rect width="50" height="50" fill="white" transform="translate(50.5 12)"/>
</clipPath>
</defs>
</svg>
