<svg width="101" height="100" viewBox="0 0 101 100" fill="none" xmlns="http://www.w3.org/2000/svg">
<g clip-path="url(#clip0_30_150712)">
<path d="M83.5395 9.47368H78.8026V0H69.3289V9.47368H31.4342V0H21.9605V9.47368H17.2237C14.7111 9.47368 12.3014 10.4718 10.5248 12.2485C8.74812 14.0251 7.75 16.4348 7.75 18.9474V80.5263C7.75 83.0389 8.74812 85.4486 10.5248 87.2252C12.3014 89.0019 14.7111 90 17.2237 90H83.5395C86.0521 90 88.4617 89.0019 90.2384 87.2252C92.015 85.4486 93.0132 83.0389 93.0132 80.5263V18.9474C93.0132 16.4348 92.015 14.0251 90.2384 12.2485C88.4617 10.4718 86.0521 9.47368 83.5395 9.47368ZM83.5395 80.5263H17.2237V28.4211H83.5395V80.5263Z" fill="#E5E5E5"/>
<g clip-path="url(#clip1_30_150712)">
<mask id="path-2-outside-1_30_150712" maskUnits="userSpaceOnUse" x="54.834" y="49.3359" width="48" height="48" fill="black">
<rect fill="white" x="54.834" y="49.3359" width="48" height="48"/>
<path d="M64.6581 59.1601C64.919 58.8988 65.2289 58.6916 65.5699 58.5501C65.911 58.4087 66.2766 58.3359 66.6458 58.3359C67.015 58.3359 67.3806 58.4087 67.7217 58.5501C68.0628 58.6916 68.3726 58.8988 68.6335 59.1601L78.8344 69.3572L89.0353 59.1601C89.2963 58.8991 89.6062 58.692 89.9473 58.5507C90.2883 58.4095 90.6538 58.3368 91.023 58.3368C91.3921 58.3368 91.7577 58.4095 92.0987 58.5507C92.4398 58.692 92.7496 58.8991 93.0107 59.1601C93.2717 59.4211 93.4787 59.731 93.62 60.072C93.7613 60.4131 93.834 60.7786 93.834 61.1478C93.834 61.5169 93.7613 61.8824 93.62 62.2235C93.4787 62.5645 93.2717 62.8744 93.0107 63.1354L82.8135 73.3364L93.0107 83.5373C93.5378 84.0644 93.834 84.7794 93.834 85.5249C93.834 86.2705 93.5378 86.9854 93.0107 87.5126C92.4835 88.0398 91.7685 88.3359 91.023 88.3359C90.2775 88.3359 89.5625 88.0398 89.0353 87.5126L78.8344 77.3155L68.6335 87.5126C68.1063 88.0398 67.3913 88.3359 66.6458 88.3359C65.9003 88.3359 65.1853 88.0398 64.6581 87.5126C64.131 86.9854 63.8348 86.2705 63.8348 85.5249C63.8348 84.7794 64.131 84.0644 64.6581 83.5373L74.8553 73.3364L64.6581 63.1354C64.3969 62.8746 64.1896 62.5647 64.0482 62.2236C63.9068 61.8826 63.834 61.517 63.834 61.1478C63.834 60.7785 63.9068 60.4129 64.0482 60.0719C64.1896 59.7308 64.3969 59.421 64.6581 59.1601Z"/>
</mask>
<path d="M64.6581 59.1601L71.0176 65.5286L71.0266 65.5195L64.6581 59.1601ZM66.6458 58.3359V67.3359V58.3359ZM68.6335 59.1601L62.265 65.5195L62.2707 65.5252L68.6335 59.1601ZM78.8344 69.3572L72.4716 75.7224C75.9861 79.2355 81.6827 79.2355 85.1972 75.7224L78.8344 69.3572ZM89.0353 59.1601L95.3981 65.5252L95.3993 65.5241L89.0353 59.1601ZM91.023 58.3368V49.3368V58.3368ZM93.0107 63.1354L86.6467 56.7715L86.6455 56.7727L93.0107 63.1354ZM82.8135 73.3364L76.4484 66.9736C72.9352 70.488 72.9352 76.1847 76.4484 79.6991L82.8135 73.3364ZM93.0107 83.5373L86.6455 89.9001L86.6467 89.9012L93.0107 83.5373ZM89.0353 87.5126L95.3993 81.1487L95.3981 81.1475L89.0353 87.5126ZM78.8344 77.3155L85.1972 70.9503C81.6827 67.4372 75.9861 67.4372 72.4716 70.9503L78.8344 77.3155ZM68.6335 87.5126L62.2707 81.1475L62.2695 81.1487L68.6335 87.5126ZM64.6581 83.5373L71.0221 89.9012L71.0233 89.9001L64.6581 83.5373ZM74.8553 73.3364L81.2204 79.6991C84.7336 76.1847 84.7336 70.488 81.2204 66.9736L74.8553 73.3364ZM64.6581 63.1354L71.0233 56.7727L71.0176 56.767L64.6581 63.1354ZM71.0266 65.5195C70.4516 66.0953 69.7687 66.5522 69.017 66.8638L62.1228 50.2365C60.689 50.831 59.3864 51.7023 58.2896 52.8007L71.0266 65.5195ZM69.017 66.8638C68.2654 67.1755 67.4596 67.3359 66.6458 67.3359V49.3359C65.0936 49.3359 63.5566 49.6419 62.1228 50.2365L69.017 66.8638ZM66.6458 67.3359C65.832 67.3359 65.0263 67.1755 64.2746 66.8638L71.1688 50.2365C69.735 49.6419 68.198 49.3359 66.6458 49.3359V67.3359ZM64.2746 66.8638C63.5229 66.5522 62.84 66.0953 62.265 65.5195L75.002 52.8007C73.9052 51.7023 72.6026 50.831 71.1688 50.2365L64.2746 66.8638ZM62.2707 65.5252L72.4716 75.7224L85.1972 62.9921L74.9963 52.795L62.2707 65.5252ZM85.1972 75.7224L95.3981 65.5252L82.6725 52.795L72.4716 62.9921L85.1972 75.7224ZM95.3993 65.5241C94.8246 66.0987 94.1423 66.5546 93.3914 66.8657L86.5031 50.2358C85.0701 50.8294 83.7681 51.6994 82.6713 52.7961L95.3993 65.5241ZM93.3914 66.8657C92.6405 67.1767 91.8357 67.3368 91.023 67.3368V49.3368C89.4719 49.3368 87.9361 49.6423 86.5031 50.2358L93.3914 66.8657ZM91.023 67.3368C90.2102 67.3368 89.4054 67.1767 88.6546 66.8657L95.5429 50.2358C94.1099 49.6423 92.574 49.3368 91.023 49.3368V67.3368ZM88.6546 66.8657C87.9037 66.5546 87.2214 66.0987 86.6467 65.5241L99.3746 52.7961C98.2779 51.6994 96.9758 50.8294 95.5429 50.2358L88.6546 66.8657ZM86.6467 65.5241C86.072 64.9494 85.6161 64.2671 85.3051 63.5162L101.935 56.6279C101.341 55.1949 100.471 53.8929 99.3746 52.7961L86.6467 65.5241ZM85.3051 63.5162C84.9941 62.7653 84.834 61.9606 84.834 61.1478L102.834 61.1478C102.834 59.5967 102.528 58.0608 101.935 56.6279L85.3051 63.5162ZM84.834 61.1478C84.834 60.335 84.9941 59.5302 85.3051 58.7793L101.935 65.6676C102.528 64.2347 102.834 62.6988 102.834 61.1478L84.834 61.1478ZM85.3051 58.7793C85.6161 58.0284 86.072 57.3462 86.6467 56.7715L99.3746 69.4994C100.471 68.4027 101.341 67.1006 101.935 65.6676L85.3051 58.7793ZM86.6455 56.7727L76.4484 66.9736L89.1786 79.6991L99.3758 69.4982L86.6455 56.7727ZM76.4484 79.6991L86.6455 89.9001L99.3758 77.1745L89.1786 66.9736L76.4484 79.6991ZM86.6467 89.9012C85.4861 88.7406 84.834 87.1664 84.834 85.5249H102.834C102.834 82.3924 101.59 79.3883 99.3746 77.1733L86.6467 89.9012ZM84.834 85.5249C84.834 83.8835 85.4861 82.3093 86.6467 81.1487L99.3746 93.8766C101.59 91.6616 102.834 88.6574 102.834 85.5249H84.834ZM86.6467 81.1487C87.8073 79.988 89.3815 79.3359 91.023 79.3359V97.3359C94.1555 97.3359 97.1596 96.0915 99.3746 93.8766L86.6467 81.1487ZM91.023 79.3359C92.6644 79.3359 94.2386 79.988 95.3993 81.1487L82.6713 93.8766C84.8863 96.0915 87.8905 97.3359 91.023 97.3359V79.3359ZM95.3981 81.1475L85.1972 70.9503L72.4716 83.6806L82.6725 93.8777L95.3981 81.1475ZM72.4716 70.9503L62.2707 81.1475L74.9963 93.8777L85.1972 83.6806L72.4716 70.9503ZM62.2695 81.1487C63.4302 79.988 65.0044 79.3359 66.6458 79.3359V97.3359C69.7783 97.3359 72.7825 96.0915 74.9975 93.8766L62.2695 81.1487ZM66.6458 79.3359C68.2873 79.3359 69.8615 79.988 71.0221 81.1487L58.2942 93.8766C60.5092 96.0915 63.5133 97.3359 66.6458 97.3359V79.3359ZM71.0221 81.1487C72.1828 82.3093 72.8348 83.8835 72.8348 85.5249H54.8348C54.8348 88.6574 56.0792 91.6616 58.2942 93.8766L71.0221 81.1487ZM72.8348 85.5249C72.8348 87.1664 72.1828 88.7406 71.0221 89.9012L58.2942 77.1733C56.0792 79.3883 54.8348 82.3925 54.8348 85.5249H72.8348ZM71.0233 89.9001L81.2204 79.6991L68.4902 66.9736L58.293 77.1745L71.0233 89.9001ZM81.2204 66.9736L71.0233 56.7727L58.293 69.4982L68.4902 79.6991L81.2204 66.9736ZM71.0176 56.767C71.5934 57.342 72.0502 58.0248 72.3619 58.7765L55.7345 65.6708C56.329 67.1046 57.2004 68.4071 58.2987 69.5039L71.0176 56.767ZM72.3619 58.7765C72.6736 59.5282 72.834 60.334 72.834 61.1478H54.834C54.834 62.7 55.14 64.2369 55.7345 65.6708L72.3619 58.7765ZM72.834 61.1478C72.834 61.9615 72.6736 62.7673 72.3619 63.519L55.7345 56.6248C55.14 58.0586 54.834 59.5956 54.834 61.1478H72.834ZM72.3619 63.519C72.0502 64.2707 71.5934 64.9536 71.0176 65.5286L58.2987 52.7916C57.2004 53.8884 56.329 55.1909 55.7345 56.6248L72.3619 63.519Z" fill="white" mask="url(#path-2-outside-1_30_150712)"/>
<path d="M65.1889 57.6264C64.7266 57.8181 64.3066 58.0989 63.953 58.453C63.5989 58.8066 63.3181 59.2266 63.1264 59.6889C62.9346 60.1514 62.8359 60.6471 62.8359 61.1478C62.8359 61.6484 62.9346 62.1442 63.1264 62.6067C63.3181 63.069 63.599 63.489 63.9531 63.8427C63.9533 63.8428 63.9534 63.8429 63.9535 63.8431L73.4433 73.3364L63.953 82.8302C63.2383 83.5449 62.8368 84.5142 62.8368 85.5249C62.8368 86.5357 63.2383 87.505 63.953 88.2197L64.6543 87.5184L63.953 88.2197C64.6677 88.9344 65.637 89.3359 66.6478 89.3359C67.6584 89.3359 68.6277 88.9345 69.3424 88.2199C69.3425 88.2198 69.3425 88.2198 69.3426 88.2197L78.8364 78.7294L88.3302 88.2197C89.0449 88.9344 90.0142 89.3359 91.0249 89.3359C92.0357 89.3359 93.005 88.9344 93.7197 88.2197C94.4344 87.505 94.8359 86.5357 94.8359 85.5249C94.8359 84.5142 94.4344 83.5449 93.7197 82.8302L84.2294 73.3364L93.7197 63.8425C93.7198 63.8425 93.7198 63.8425 93.7199 63.8424C94.0737 63.4886 94.3543 63.0685 94.5458 62.6062C94.7374 62.1438 94.8359 61.6482 94.8359 61.1478C94.8359 60.6473 94.7374 60.1517 94.5458 59.6894C94.3543 59.227 94.0736 58.8069 93.7197 58.453C93.3658 58.0991 92.9457 57.8184 92.4833 57.6269C92.021 57.4353 91.5254 57.3368 91.0249 57.3368C90.5245 57.3368 90.0289 57.4353 89.5665 57.6269C89.1042 57.8184 88.684 58.0991 88.3302 58.453L78.8364 67.9433L69.3431 58.4535C69.3429 58.4534 69.3428 58.4533 69.3427 58.4531C68.989 58.099 68.569 57.8181 68.1067 57.6264C67.6442 57.4346 67.1484 57.3359 66.6478 57.3359C66.1471 57.3359 65.6514 57.4346 65.1889 57.6264Z" fill="#00AAD2" stroke="#00AAD2" stroke-width="2" stroke-linejoin="round"/>
</g>
</g>
<defs>
<clipPath id="clip0_30_150712">
<rect width="100" height="100" fill="white" transform="translate(0.5)"/>
</clipPath>
<clipPath id="clip1_30_150712">
<rect width="50" height="50" fill="white" transform="translate(55.5 50)"/>
</clipPath>
</defs>
</svg>
