<svg width="200" height="18" viewBox="0 0 200 18" fill="none" xmlns="http://www.w3.org/2000/svg">
    <path d="M46.4201 3.07129V7.6132H41.2645V3.07129H38.4277V15.002H41.2645V10.2035H46.4201V15.002H49.2569V3.07129H49.1161H46.4201Z" fill="#002C5F"/>
    <path d="M59.6686 3.07129L56.696 7.79427L53.7284 3.07129H50.3785L55.2826 10.8675V15.002H58.1144V10.8675L63.0184 3.07129H62.7569H59.6686Z" fill="#002C5F"/>
    <path d="M72.1525 3.07129V11.8181C72.1525 12.1501 71.901 12.4167 71.5489 12.4167H66.997V3.07129H64.1602V15.002H72.5499C73.2993 15.002 73.8979 14.7807 74.3354 14.3431C74.768 13.9055 74.9893 13.3069 74.9893 12.5625V3.07129H74.8485H72.1525Z" fill="#002C5F"/>
    <path d="M86.0147 3.07129H77.62V15.002H80.4618V5.65661H85.0138C85.381 5.65661 85.6174 5.94331 85.6174 6.25515V15.002H88.4542V5.51074C88.4542 4.76633 88.2329 4.16275 87.8003 3.73019C87.3577 3.2926 86.7591 3.07129 86.0147 3.07129Z" fill="#002C5F"/>
    <path d="M99.077 6.27024V11.798C99.077 12.1199 98.8406 12.4167 98.4684 12.4167H93.9164V5.65157H98.4482C98.8255 5.65157 99.077 5.91313 99.077 6.27024ZM99.4743 3.07129H91.0796V15.002H99.4743C100.219 15.002 100.817 14.7807 101.255 14.3431C101.692 13.9055 101.914 13.3069 101.914 12.5625V5.51074C101.914 4.76633 101.692 4.16778 101.255 3.73019C100.817 3.2926 100.219 3.07129 99.4743 3.07129Z" fill="#002C5F"/>
    <path d="M112.416 5.65157V8.72478H107.255V6.25515C107.255 5.96343 107.487 5.65157 107.859 5.65157H112.416ZM106.863 3.07129C106.119 3.07129 105.515 3.2926 105.083 3.73019C104.645 4.16778 104.424 4.76633 104.424 5.51074V14.9969H107.255V11.3051H112.416V14.9969H115.253V3.07129H106.863Z" fill="#002C5F"/>
    <path d="M120.851 3.07129H118.014V15.002H120.851V3.07129Z" fill="#002C5F"/>
    <path d="M10.2859 2.6288C10.6229 2.56342 10.8493 2.56341 10.9298 2.64892C10.975 2.70425 10.9901 2.79479 10.9298 2.90544C10.8946 2.9658 10.8543 3.02112 10.7889 3.09657C7.91691 6.48163 5.73397 11.4712 5.11531 12.9097C5.06501 13.0103 5.01974 13.1059 4.9795 13.1713C4.92418 13.2719 4.84873 13.3574 4.71293 13.3674C4.63245 13.3725 4.53185 13.3523 4.3709 13.2568C2.46963 12.0798 1.3329 10.6161 1.3329 9.03174C1.32787 6.16475 5.01471 3.70015 10.2859 2.6288ZM13.2284 4.78156C13.495 4.15786 13.9627 2.8149 15.0341 2.28175C15.361 2.12079 15.7584 2.04534 16.1155 2.03528C16.196 2.03025 16.2513 2.03528 16.2764 2.03528C19.2742 2.03528 22.0607 2.44773 24.3945 3.16196C24.4147 3.16699 24.47 3.18711 24.4851 3.19214C24.7014 3.26759 24.812 3.36315 24.812 3.48387C24.812 3.59452 24.7517 3.66997 24.6762 3.75045C24.641 3.78063 24.5907 3.8259 24.5303 3.88123C23.9922 4.32888 22.3675 5.50585 19.3144 6.67779C18.2431 7.08521 16.9001 7.59825 15.4968 7.89501C14.6669 8.07105 11.6138 8.53379 13.2284 4.78156ZM27.4879 4.89221C27.5482 4.79162 27.6237 4.70611 27.7645 4.69605C27.84 4.69102 27.9456 4.71114 28.1015 4.80671C30.0078 5.97865 31.1395 7.44232 31.1395 9.03174C31.1395 11.8987 27.4577 14.3583 22.1865 15.4397C21.8495 15.5051 21.6231 15.5051 21.5477 15.4196C21.4923 15.3643 21.4773 15.2737 21.5477 15.1631C21.5779 15.1077 21.6181 15.0524 21.6885 14.9669C24.5555 11.5869 26.7435 6.59732 27.3671 5.15879C27.4024 5.05317 27.4527 4.9576 27.4879 4.89221ZM19.2893 13.2668C19.0177 13.8956 18.5549 15.2385 17.4836 15.7717C17.1617 15.9326 16.7593 16.0131 16.4022 16.0232C16.3217 16.0232 16.2664 16.0232 16.2412 16.0232C13.2435 16.0232 10.457 15.6057 8.12313 14.8965C8.10301 14.8915 8.04768 14.8663 8.03259 14.8613C7.81631 14.7909 7.70566 14.6903 7.70566 14.5696C7.70566 14.4589 7.76099 14.3834 7.84146 14.308C7.87164 14.2728 7.92194 14.2326 7.98732 14.1772C8.52551 13.7296 10.1501 12.5526 13.2083 11.3807C14.2796 10.9682 15.6226 10.4602 17.0259 10.1634C17.8457 9.98237 20.9039 9.51963 19.2893 13.2668ZM16.2312 17.346C25.1943 17.346 32.4573 13.624 32.4573 9.03677C32.4573 4.44959 25.1943 0.727539 16.2312 0.727539C7.26806 0.727539 0 4.44959 0 9.03677C0.0050298 13.624 7.26806 17.346 16.2312 17.346Z" fill="#002C5F"/>
    <path d="M126.188 3.00586H134.11V4.44941H127.807V8.26703H133.476V9.71059H127.807V14.9718H126.188V3.00586Z" fill="#002C5F"/>
    <path d="M136.132 3.00586H137.751V14.9768H136.132V3.00586Z" fill="#002C5F"/>
    <path d="M140.779 3.00586H142.208L149.531 12.2657V3.00586H151.151V14.9768H149.727L142.404 5.71692V14.9768H140.784V3.00586H140.779Z" fill="#002C5F"/>
    <path d="M157.624 3.00586H159.455L164.278 14.9768H162.568L161.406 12.0897H155.632L154.49 14.9768H152.78L157.624 3.00586ZM156.215 10.6461H160.848L158.544 4.83671L156.215 10.6461Z" fill="#002C5F"/>
    <path d="M165.918 3.00586H167.347L174.67 12.2657V3.00586H176.29V14.9768H174.866L167.543 5.71692V14.9768H165.923V3.00586H165.918Z" fill="#002C5F"/>
    <path d="M184.543 15.1885C183.673 15.1885 182.874 15.0326 182.139 14.7107C181.405 14.3938 180.771 13.9562 180.238 13.3979C179.705 12.8396 179.287 12.1807 178.986 11.4262C178.689 10.6717 178.538 9.85691 178.538 8.98676C178.538 8.1166 178.689 7.3068 178.986 6.5473C179.287 5.7878 179.7 5.13393 180.238 4.57562C180.771 4.01731 181.405 3.57972 182.139 3.26284C182.874 2.94596 183.673 2.79004 184.543 2.79004C185.766 2.79004 186.827 3.07171 187.737 3.63505C188.648 4.19839 189.352 4.94783 189.86 5.8884L188.592 6.7485C188.215 6.00912 187.692 5.42063 187.018 4.97801C186.344 4.53538 185.524 4.3191 184.564 4.3191C183.905 4.3191 183.311 4.43982 182.778 4.68125C182.245 4.92268 181.787 5.24961 181.405 5.66709C181.023 6.08456 180.731 6.57748 180.525 7.14585C180.318 7.71422 180.218 8.32785 180.218 8.98676C180.218 9.64566 180.318 10.2593 180.525 10.8277C180.731 11.396 181.023 11.889 181.405 12.3064C181.787 12.7239 182.245 13.0508 182.778 13.2923C183.311 13.5337 183.91 13.6544 184.564 13.6544C185.524 13.6544 186.344 13.4331 187.018 12.9955C187.692 12.5579 188.22 11.9644 188.592 11.225L189.86 12.0851C189.357 13.0257 188.648 13.7751 187.737 14.3385C186.827 14.9018 185.766 15.1885 184.543 15.1885Z" fill="#002C5F"/>
    <path d="M191.882 3.00586H200V4.44941H193.502V8.21673H199.19V9.66028H193.502V13.5332H200V14.9768H191.882V3.00586Z" fill="#002C5F"/>
    </svg>
    