<svg width="101" height="100" viewBox="0 0 101 100" fill="none" xmlns="http://www.w3.org/2000/svg">
<g id="mingcute:bank-card-fill" clip-path="url(#clip0_258_39471)">
<path id="Vector" d="M73.2128 68.274C71.0589 65.304 68.6006 63.3005 65.3374 65.3676L58.8526 69.1768C53.7525 72.7403 50.5258 70.655 47.0478 67.2655L29.5022 41.0617C27.3676 38.0882 27.6325 34.8872 30.8956 32.8202L39.9175 27.2116C43.1772 25.1253 42.0801 22.1859 39.9263 19.2159L28.8863 5.18738C26.7325 2.21735 23.3618 2.00242 20.0986 4.06945C13.5565 8.22615 8.53872 13.8182 5.96778 21.2373C2.81699 30.3065 7.16273 41.3775 8.94267 46.0405C10.7226 50.7035 15.4555 58.5914 21.1681 66.5236C26.8842 74.4751 31.7692 80.6499 35.7246 83.9349C39.68 87.2198 49.4037 96.4038 59.535 97.0452C67.8379 97.5549 76.1472 94.4136 82.6701 90.2603C85.9332 88.1932 85.4097 85.1321 83.2524 82.1429L73.2128 68.274Z" fill="#E5E5E5"/>
<g id="Group 2657">
<path id="Subtract" d="M76.5329 50.4185L76.5338 50.4174L98.4713 25.7799C99.1571 25.0406 99.6904 24.1727 100.038 23.2246C100.391 22.2625 100.544 21.2392 100.489 20.2155C100.433 19.1919 100.17 18.1914 99.7158 17.2732C99.2618 16.3551 98.6271 15.5392 97.8518 14.872C97.0767 14.2048 96.1765 13.6993 95.2052 13.3828C94.2339 13.0662 93.2094 12.9443 92.1912 13.0234C91.1731 13.1024 90.1795 13.3811 89.2688 13.8447C88.3705 14.3019 87.5696 14.9307 86.9136 15.6972L69.6676 35.0682L62.8091 30.0134C61.9994 29.4166 61.0807 28.9843 60.1061 28.739C59.1316 28.4936 58.1183 28.4394 57.1232 28.5791C56.1281 28.7188 55.1686 29.05 54.2995 29.5557C53.4302 30.0615 52.6673 30.7326 52.0564 31.5331C51.4453 32.3338 50.9986 33.2477 50.7443 34.2233C50.4899 35.1991 50.4334 36.2154 50.5785 37.2134C50.7236 38.2114 51.067 39.1692 51.587 40.0322C52.1069 40.8951 52.7926 41.6454 53.6024 42.2423L66.1512 51.491L66.152 51.4916C67.7055 52.6358 69.6327 53.1561 71.5492 52.9592C73.4659 52.7623 75.2477 51.8605 76.5329 50.4185Z" fill="white" stroke="white" stroke-width="6"/>
<path id="Subtract_2" d="M92.2214 27.1919C92.0085 27.7725 91.6795 28.3055 91.2537 28.7592L74.2933 48.4225C73.5118 49.2993 72.4222 49.8537 71.2426 49.9749C70.0629 50.0961 68.8802 49.7751 67.9311 49.076L55.3823 39.8273C54.8879 39.463 54.4714 39.0065 54.1566 38.4839C53.8417 37.9614 53.6347 37.383 53.5473 36.7818C53.4599 36.1806 53.4939 35.5684 53.6472 34.9802C53.8006 34.3919 54.0704 33.8391 54.4412 33.3532C54.8119 32.8674 55.2765 32.4581 55.8082 32.1487C56.34 31.8393 56.9285 31.6358 57.5403 31.55C58.1521 31.4641 58.775 31.4975 59.3737 31.6482C59.9723 31.7989 60.5349 32.064 61.0293 32.4284L70.0895 39.1059L84.1761 22.6674C84.5778 22.1929 85.072 21.8021 85.6297 21.5182C86.1874 21.2343 86.7974 21.063 87.4235 21.0144C88.0497 20.9657 88.6794 21.0408 89.2756 21.2351C89.8717 21.4294 90.4223 21.739 90.8948 22.1457C91.3673 22.5524 91.7521 23.0479 92.0267 23.6031C92.3012 24.1582 92.4599 24.7617 92.4933 25.3781C92.5268 25.9945 92.4343 26.6112 92.2214 27.1919Z" fill="#00AAD2"/>
</g>
</g>
<defs>
<clipPath id="clip0_258_39471">
<rect width="100" height="100" fill="white" transform="translate(0.5)"/>
</clipPath>
</defs>
</svg>
