<svg width="101" height="100" viewBox="0 0 101 100" fill="none" xmlns="http://www.w3.org/2000/svg">
<g id="bi:calendar-fill" clip-path="url(#clip0_30_150197)">
<path id="Vector" d="M83.5395 9.47368H78.8026V0H69.3289V9.47368H31.4342V0H21.9605V9.47368H17.2237C14.7111 9.47368 12.3014 10.4718 10.5248 12.2485C8.74812 14.0251 7.75 16.4348 7.75 18.9474V80.5263C7.75 83.0389 8.74812 85.4486 10.5248 87.2252C12.3014 89.0019 14.7111 90 17.2237 90H83.5395C86.0521 90 88.4617 89.0019 90.2384 87.2252C92.015 85.4486 93.0132 83.0389 93.0132 80.5263V18.9474C93.0132 16.4348 92.015 14.0251 90.2384 12.2485C88.4617 10.4718 86.0521 9.47368 83.5395 9.47368ZM83.5395 80.5263H17.2237V28.4211H83.5395V80.5263Z" fill="#E5E5E5"/>
<g id="Group 2657">
<path id="Subtract" d="M72.2794 101.084L72.2807 101.082L94.2116 76.4523C94.9835 75.6181 95.5846 74.6389 95.9769 73.5688C96.3763 72.4796 96.5504 71.3208 96.4874 70.1614C96.4245 69.002 96.1261 67.8691 95.6122 66.8299C95.0983 65.7908 94.3804 64.8682 93.5042 64.1141C92.6282 63.3601 91.6114 62.7893 90.515 62.432C89.4188 62.0747 88.2626 61.9372 87.1138 62.0264C85.965 62.1156 84.8435 62.43 83.8151 62.9535C82.8038 63.4683 81.901 64.176 81.1604 65.0393L64.5269 83.7223L58.4024 79.2084L56.2099 82.1833L58.4024 79.2084C57.4875 78.5341 56.4501 78.0461 55.3503 77.7692C54.2505 77.4923 53.107 77.4312 51.9842 77.5888C50.8614 77.7464 49.7782 78.1202 48.7965 78.6914C47.8148 79.2626 46.9524 80.021 46.2614 80.9264C45.5703 81.832 45.0646 82.8663 44.7766 83.9711C44.4885 85.076 44.4246 86.2269 44.5889 87.3573C44.7532 88.4875 45.1421 89.5718 45.7304 90.5483C46.3187 91.5246 47.0941 92.3729 48.0091 93.0473L60.5579 102.296L60.559 102.297C62.3139 103.589 64.4893 104.176 66.6513 103.954C68.8138 103.732 70.8263 102.714 72.2794 101.084Z" fill="white" stroke="white" stroke-width="8"/>
<path id="Subtract_2" d="M92.2214 72.1919C92.0085 72.7725 91.6795 73.3055 91.2537 73.7592L69.2933 98.4225C68.5118 99.2993 67.4222 99.8537 66.2426 99.9749C65.0629 100.096 63.8802 99.7751 62.9311 99.076L50.3823 89.8273C49.8879 89.463 49.4714 89.0065 49.1566 88.4839C48.8417 87.9614 48.6347 87.383 48.5473 86.7818C48.4599 86.1806 48.4939 85.5684 48.6472 84.9802C48.8006 84.3919 49.0704 83.8391 49.4412 83.3532C49.8119 82.8674 50.2765 82.4581 50.8082 82.1487C51.34 81.8393 51.9285 81.6358 52.5403 81.55C53.1521 81.4641 53.775 81.4975 54.3737 81.6482C54.9723 81.7989 55.5349 82.064 56.0293 82.4284L65.0895 89.1059L84.1761 67.6674C84.5778 67.1929 85.072 66.8021 85.6297 66.5182C86.1874 66.2343 86.7974 66.063 87.4235 66.0144C88.0497 65.9657 88.6794 66.0408 89.2756 66.2351C89.8717 66.4294 90.4223 66.739 90.8948 67.1457C91.3673 67.5524 91.7521 68.0479 92.0267 68.6031C92.3012 69.1582 92.4599 69.7617 92.4933 70.3781C92.5268 70.9945 92.4343 71.6112 92.2214 72.1919Z" fill="#00AAD2"/>
</g>
</g>
<defs>
<clipPath id="clip0_30_150197">
<rect width="100" height="100" fill="white" transform="translate(0.5)"/>
</clipPath>
</defs>
</svg>
