<svg width="36" height="36" viewBox="0 0 36 36" fill="none" xmlns="http://www.w3.org/2000/svg">
<rect x="0.5" y="0.5" width="35" height="35" rx="17.5" stroke="#E5E5E5"/>
<path fill-rule="evenodd" clip-rule="evenodd" d="M15.5 18.5537C18.2546 18.5537 20.4626 16.3171 20.4626 13.5268C20.4626 10.7366 18.2546 8.5 15.5 8.5C12.7454 8.5 10.5374 10.7366 10.5374 13.5268C10.5374 16.3171 12.7454 18.5537 15.5 18.5537ZM15.5 21.0152C11.4542 21.0152 8 21.6621 8 24.2464C8 26.8298 11.4332 27.5 15.5 27.5C19.5448 27.5 23 26.8531 23 24.2687C23 21.6844 19.5668 21.0152 15.5 21.0152ZM25.8979 15.5879H27.101C27.5962 15.5879 28 15.9973 28 16.4995C28 17.0016 27.5962 17.4111 27.101 17.4111H25.8979V18.5884C25.8979 19.0906 25.4952 19.5 24.999 19.5C24.5038 19.5 24.1 19.0906 24.1 18.5884V17.4111H22.899C22.4027 17.4111 22 17.0016 22 16.4995C22 15.9973 22.4027 15.5879 22.899 15.5879H24.1V14.4116C24.1 13.9094 24.5038 13.5 24.999 13.5C25.4952 13.5 25.8979 13.9094 25.8979 14.4116V15.5879Z" fill="black"/>
</svg>
