<svg id="구성_요소_8_11" data-name="구성 요소 8 – 11" xmlns="http://www.w3.org/2000/svg" width="14" height="14" viewBox="0 0 14 14">
  <g id="그룹_93" data-name="그룹 93">
    <rect id="Container" width="14" height="14" fill="none"/>
    <path id="wishlist-unselect" d="M16.564,17.1c-.034.05-.189.276-.249.357A37.882,37.882,0,0,1,11.6,21.789l-.009-.008-.009.008a37.88,37.88,0,0,1-4.711-4.333c-.06-.081-.215-.307-.249-.357a2.927,2.927,0,0,1-.408-1.494,2.839,2.839,0,0,1,2.8-2.875A2.779,2.779,0,0,1,11.3,13.954l.293.428.293-.428a2.779,2.779,0,0,1,2.288-1.223,2.839,2.839,0,0,1,2.8,2.875,2.928,2.928,0,0,1-.407,1.494m-2.389-5.108a3.474,3.474,0,0,0-2.581,1.163,3.474,3.474,0,0,0-2.581-1.163A3.568,3.568,0,0,0,5.5,15.605,3.683,3.683,0,0,0,6.02,17.5l.012.019s.2.291.27.387a21.851,21.851,0,0,0,2.957,2.9c.59.509,1.128.955,1.476,1.239.7.575.7.575.818.589l.041,0,.041,0c.115-.014.115-.014.818-.589.347-.284.886-.73,1.475-1.239a21.854,21.854,0,0,0,2.957-2.9c.071-.1.27-.387.27-.387l.012-.019a3.682,3.682,0,0,0,.52-1.891,3.568,3.568,0,0,0-3.513-3.613" transform="translate(-4.594 -10.312)"/>
  </g>
</svg>
