<svg width="690" height="24" viewBox="0 0 690 24" fill="none" xmlns="http://www.w3.org/2000/svg">
    <g clip-path="url(#clip0_1_8152)">
    <path d="M21.65 11.65L18.86 8.86003C18.54 8.54003 18 8.76003 18 9.21003V11H4C3.45 11 3 11.45 3 12C3 12.55 3.45 13 4 13H18V14.79C18 15.24 18.54 15.46 18.85 15.14L21.64 12.35C21.84 12.16 21.84 11.84 21.65 11.65Z" fill="black"/>
    </g>
    <path d="M33.4654 6.98H34.6274V16.5H33.4654V6.98ZM37.1783 9.556H38.2563V10.508C38.3496 10.368 38.4663 10.2327 38.6063 10.102C38.7463 9.97133 38.9049 9.85467 39.0823 9.752C39.2689 9.64933 39.4696 9.56533 39.6843 9.5C39.8989 9.43467 40.1276 9.402 40.3703 9.402C41.1823 9.402 41.8029 9.64467 42.2323 10.13C42.6709 10.6153 42.8903 11.2967 42.8903 12.174V16.5H41.7703V12.286C41.7703 11.6607 41.6209 11.1893 41.3223 10.872C41.0329 10.5547 40.6223 10.396 40.0903 10.396C39.6143 10.396 39.2223 10.522 38.9143 10.774C38.6063 11.026 38.4009 11.3153 38.2983 11.642V16.5H37.1783V9.556ZM48.636 11.166C48.4306 10.8767 48.202 10.6713 47.95 10.55C47.698 10.4193 47.4226 10.354 47.124 10.354C46.7786 10.354 46.5173 10.452 46.34 10.648C46.1626 10.8347 46.074 11.054 46.074 11.306C46.074 11.81 46.3726 12.1273 46.97 12.258L47.558 12.384C48.2206 12.524 48.734 12.7573 49.098 13.084C49.4713 13.4013 49.658 13.868 49.658 14.484C49.658 14.764 49.5973 15.0347 49.476 15.296C49.364 15.5573 49.196 15.7907 48.972 15.996C48.748 16.192 48.4726 16.3507 48.146 16.472C47.8193 16.5933 47.4506 16.654 47.04 16.654C46.732 16.654 46.4473 16.612 46.186 16.528C45.9246 16.4533 45.682 16.3507 45.458 16.22C45.2433 16.0893 45.0473 15.9353 44.87 15.758C44.6926 15.5807 44.5433 15.3987 44.422 15.212L45.15 14.54C45.3553 14.848 45.6166 15.1187 45.934 15.352C46.2513 15.5853 46.6293 15.702 47.068 15.702C47.516 15.702 47.8706 15.5993 48.132 15.394C48.3933 15.1887 48.524 14.9087 48.524 14.554C48.524 14.2273 48.4073 13.98 48.174 13.812C47.9406 13.644 47.628 13.518 47.236 13.434L46.648 13.308C46.0973 13.1867 45.6726 12.9673 45.374 12.65C45.0846 12.3327 44.94 11.922 44.94 11.418C44.94 11.1567 44.9866 10.9047 45.08 10.662C45.1826 10.41 45.3273 10.1953 45.514 10.018C45.7006 9.83133 45.934 9.682 46.214 9.57C46.494 9.458 46.8113 9.402 47.166 9.402C47.6513 9.402 48.0806 9.50467 48.454 9.71C48.8273 9.91533 49.1306 10.1907 49.364 10.536L48.636 11.166ZM53.9887 16.556C53.27 16.556 52.7287 16.3787 52.3647 16.024C52.0007 15.66 51.8187 15.0813 51.8187 14.288V10.508H50.5727V9.556H51.8327V7.75H52.9387V9.556H54.4927V10.508H52.9387V14.288C52.9387 14.764 53.046 15.0953 53.2607 15.282C53.4753 15.4687 53.8207 15.562 54.2967 15.562H54.4927V16.514C54.3527 16.542 54.1847 16.556 53.9887 16.556ZM58.2122 16.654C57.8202 16.654 57.4655 16.5933 57.1482 16.472C56.8308 16.3507 56.5602 16.1873 56.3362 15.982C56.1215 15.7767 55.9535 15.5387 55.8322 15.268C55.7108 14.988 55.6502 14.6893 55.6502 14.372C55.6502 14.0547 55.7108 13.7607 55.8322 13.49C55.9535 13.21 56.1215 12.9673 56.3362 12.762C56.5602 12.5567 56.8308 12.3933 57.1482 12.272C57.4655 12.1507 57.8202 12.09 58.2122 12.09C58.5762 12.09 58.9262 12.16 59.2622 12.3C59.5982 12.4307 59.8922 12.6313 60.1442 12.902V12.202C60.1442 11.698 60.0042 11.2733 59.7242 10.928C59.4535 10.5733 59.0288 10.396 58.4502 10.396C58.0395 10.396 57.7082 10.466 57.4562 10.606C57.2042 10.746 56.9522 10.9373 56.7002 11.18L56.0562 10.452C56.1775 10.3213 56.3128 10.1953 56.4622 10.074C56.6208 9.94333 56.7982 9.83133 56.9942 9.738C57.1902 9.63533 57.4095 9.556 57.6522 9.5C57.8948 9.43467 58.1702 9.402 58.4782 9.402C58.9355 9.402 59.3368 9.46733 59.6822 9.598C60.0275 9.72867 60.3168 9.91533 60.5502 10.158C60.7835 10.3913 60.9608 10.676 61.0822 11.012C61.2035 11.348 61.2642 11.7167 61.2642 12.118V16.5H60.1862V15.814C59.9248 16.094 59.6215 16.304 59.2762 16.444C58.9402 16.584 58.5855 16.654 58.2122 16.654ZM58.3662 15.716C58.6835 15.716 59.0102 15.6507 59.3462 15.52C59.6915 15.3893 59.9575 15.1653 60.1442 14.848V13.896C59.9575 13.588 59.6915 13.3687 59.3462 13.238C59.0102 13.098 58.6835 13.028 58.3662 13.028C58.0862 13.028 57.8435 13.07 57.6382 13.154C57.4422 13.2287 57.2788 13.3313 57.1482 13.462C57.0268 13.5927 56.9335 13.7373 56.8682 13.896C56.8122 14.0547 56.7842 14.2133 56.7842 14.372C56.7842 14.5307 56.8122 14.6893 56.8682 14.848C56.9335 15.0067 57.0268 15.1513 57.1482 15.282C57.2788 15.4127 57.4422 15.52 57.6382 15.604C57.8435 15.6787 58.0862 15.716 58.3662 15.716ZM64.603 6.56V16.5H63.483V6.56H64.603ZM68.0209 6.56V16.5H66.9009V6.56H68.0209ZM70.3189 9.556H71.3969V10.508C71.4902 10.368 71.6069 10.2327 71.7469 10.102C71.8869 9.97133 72.0456 9.85467 72.2229 9.752C72.4096 9.64933 72.6102 9.56533 72.8249 9.5C73.0396 9.43467 73.2682 9.402 73.5109 9.402C74.0242 9.402 74.4582 9.50933 74.8129 9.724C75.1769 9.92933 75.4522 10.2327 75.6389 10.634C75.7229 10.4847 75.8396 10.34 75.9889 10.2C76.1382 10.0507 76.3109 9.92 76.5069 9.808C76.7029 9.68667 76.9222 9.58867 77.1649 9.514C77.4076 9.43933 77.6642 9.402 77.9349 9.402C78.7376 9.402 79.3536 9.64467 79.7829 10.13C80.2122 10.606 80.4269 11.278 80.4269 12.146V16.5H79.3069V12.258C79.3069 11.642 79.1669 11.18 78.8869 10.872C78.6162 10.5547 78.2289 10.396 77.7249 10.396C77.2489 10.396 76.8569 10.522 76.5489 10.774C76.2409 11.026 76.0356 11.3153 75.9329 11.642V16.5H74.8129V12.258C74.8129 11.642 74.6729 11.18 74.3929 10.872C74.1222 10.5547 73.7349 10.396 73.2309 10.396C72.7549 10.396 72.3629 10.522 72.0549 10.774C71.7469 11.026 71.5416 11.3153 71.4389 11.642V16.5H70.3189V9.556ZM85.3953 16.654C84.9006 16.654 84.4573 16.57 84.0653 16.402C83.6733 16.234 83.3373 15.9913 83.0573 15.674C82.7866 15.3567 82.5766 14.9787 82.4273 14.54C82.2779 14.092 82.2033 13.588 82.2033 13.028C82.2033 12.4773 82.2779 11.978 82.4273 11.53C82.5766 11.082 82.7866 10.704 83.0573 10.396C83.3373 10.0787 83.6686 9.836 84.0513 9.668C84.4433 9.49067 84.8773 9.402 85.3533 9.402C85.8199 9.402 86.2399 9.49067 86.6133 9.668C86.9866 9.836 87.3039 10.074 87.5653 10.382C87.8266 10.6807 88.0273 11.04 88.1673 11.46C88.3073 11.88 88.3773 12.3373 88.3773 12.832C88.3773 13.028 88.3633 13.21 88.3353 13.378H83.3793C83.4259 14.106 83.6313 14.6707 83.9953 15.072C84.3593 15.464 84.8493 15.66 85.4653 15.66C85.8946 15.66 86.2773 15.5713 86.6133 15.394C86.9493 15.2167 87.2199 14.9647 87.4253 14.638L88.1813 15.268C87.9199 15.66 87.5606 15.9913 87.1033 16.262C86.6553 16.5233 86.0859 16.654 85.3953 16.654ZM85.3533 10.396C84.8213 10.396 84.3826 10.5733 84.0373 10.928C83.6919 11.2733 83.4773 11.7727 83.3933 12.426H87.2013C87.1639 11.8007 86.9773 11.306 86.6413 10.942C86.3146 10.578 85.8853 10.396 85.3533 10.396ZM90.1705 9.556H91.2485V10.508C91.3418 10.368 91.4585 10.2327 91.5985 10.102C91.7385 9.97133 91.8971 9.85467 92.0745 9.752C92.2611 9.64933 92.4618 9.56533 92.6765 9.5C92.8911 9.43467 93.1198 9.402 93.3625 9.402C94.1745 9.402 94.7951 9.64467 95.2245 10.13C95.6631 10.6153 95.8825 11.2967 95.8825 12.174V16.5H94.7625V12.286C94.7625 11.6607 94.6131 11.1893 94.3145 10.872C94.0251 10.5547 93.6145 10.396 93.0825 10.396C92.6065 10.396 92.2145 10.522 91.9065 10.774C91.5985 11.026 91.3931 11.3153 91.2905 11.642V16.5H90.1705V9.556ZM100.692 16.556C99.9731 16.556 99.4318 16.3787 99.0678 16.024C98.7038 15.66 98.5218 15.0813 98.5218 14.288V10.508H97.2758V9.556H98.5358V7.75H99.6418V9.556H101.196V10.508H99.6418V14.288C99.6418 14.764 99.7491 15.0953 99.9638 15.282C100.178 15.4687 100.524 15.562 101 15.562H101.196V16.514C101.056 16.542 100.888 16.556 100.692 16.556ZM106.18 9.556H107.258V10.55C107.51 10.1953 107.828 9.91533 108.21 9.71C108.602 9.50467 109.022 9.402 109.47 9.402C109.928 9.402 110.343 9.49067 110.716 9.668C111.09 9.84533 111.407 10.0927 111.668 10.41C111.939 10.7273 112.144 11.11 112.284 11.558C112.424 12.006 112.494 12.496 112.494 13.028C112.494 13.56 112.424 14.05 112.284 14.498C112.144 14.946 111.939 15.3287 111.668 15.646C111.407 15.9633 111.09 16.2107 110.716 16.388C110.343 16.5653 109.928 16.654 109.47 16.654C109.032 16.654 108.621 16.556 108.238 16.36C107.865 16.164 107.552 15.9027 107.3 15.576V19.132H106.18V9.556ZM109.232 15.66C109.895 15.66 110.408 15.4267 110.772 14.96C111.146 14.4933 111.332 13.8493 111.332 13.028C111.332 12.2067 111.146 11.5627 110.772 11.096C110.408 10.6293 109.895 10.396 109.232 10.396C108.794 10.396 108.402 10.5127 108.056 10.746C107.711 10.9793 107.459 11.2827 107.3 11.656V14.414C107.459 14.7873 107.711 15.0907 108.056 15.324C108.402 15.548 108.794 15.66 109.232 15.66ZM117.114 16.654C116.619 16.654 116.176 16.57 115.784 16.402C115.392 16.234 115.056 15.9913 114.776 15.674C114.505 15.3567 114.295 14.9787 114.146 14.54C113.997 14.092 113.922 13.588 113.922 13.028C113.922 12.4773 113.997 11.978 114.146 11.53C114.295 11.082 114.505 10.704 114.776 10.396C115.056 10.0787 115.387 9.836 115.77 9.668C116.162 9.49067 116.596 9.402 117.072 9.402C117.539 9.402 117.959 9.49067 118.332 9.668C118.705 9.836 119.023 10.074 119.284 10.382C119.545 10.6807 119.746 11.04 119.886 11.46C120.026 11.88 120.096 12.3373 120.096 12.832C120.096 13.028 120.082 13.21 120.054 13.378H115.098C115.145 14.106 115.35 14.6707 115.714 15.072C116.078 15.464 116.568 15.66 117.184 15.66C117.613 15.66 117.996 15.5713 118.332 15.394C118.668 15.2167 118.939 14.9647 119.144 14.638L119.9 15.268C119.639 15.66 119.279 15.9913 118.822 16.262C118.374 16.5233 117.805 16.654 117.114 16.654ZM117.072 10.396C116.54 10.396 116.101 10.5733 115.756 10.928C115.411 11.2733 115.196 11.7727 115.112 12.426H118.92C118.883 11.8007 118.696 11.306 118.36 10.942C118.033 10.578 117.604 10.396 117.072 10.396ZM121.889 9.556H122.967V10.802C123.154 10.4193 123.42 10.0927 123.765 9.822C124.111 9.542 124.531 9.402 125.025 9.402C125.072 9.402 125.119 9.402 125.165 9.402C125.221 9.402 125.273 9.41133 125.319 9.43V10.564H124.941C124.475 10.564 124.078 10.69 123.751 10.942C123.425 11.194 123.177 11.586 123.009 12.118V16.5H121.889V9.556ZM127.917 9.556V16.5H126.797V9.556H127.917ZM128.057 6.56V7.96H126.657V6.56H128.057ZM133.043 15.66C133.687 15.66 134.201 15.4313 134.583 14.974C134.966 14.5073 135.157 13.8587 135.157 13.028C135.157 12.1973 134.966 11.5533 134.583 11.096C134.201 10.6293 133.687 10.396 133.043 10.396C132.399 10.396 131.886 10.6293 131.503 11.096C131.121 11.5533 130.929 12.1973 130.929 13.028C130.929 13.8587 131.121 14.5073 131.503 14.974C131.886 15.4313 132.399 15.66 133.043 15.66ZM133.043 9.402C133.538 9.402 133.986 9.49067 134.387 9.668C134.798 9.84533 135.143 10.0927 135.423 10.41C135.713 10.7273 135.932 11.11 136.081 11.558C136.24 12.006 136.319 12.496 136.319 13.028C136.319 13.56 136.24 14.05 136.081 14.498C135.932 14.946 135.713 15.3287 135.423 15.646C135.143 15.9633 134.798 16.2107 134.387 16.388C133.986 16.5653 133.538 16.654 133.043 16.654C132.549 16.654 132.096 16.5653 131.685 16.388C131.284 16.2107 130.939 15.9633 130.649 15.646C130.369 15.3287 130.15 14.946 129.991 14.498C129.842 14.05 129.767 13.56 129.767 13.028C129.767 12.496 129.842 12.006 129.991 11.558C130.15 11.11 130.369 10.7273 130.649 10.41C130.939 10.0927 131.284 9.84533 131.685 9.668C132.096 9.49067 132.549 9.402 133.043 9.402ZM142.974 15.52C142.713 15.8747 142.391 16.1547 142.008 16.36C141.626 16.556 141.21 16.654 140.762 16.654C140.296 16.654 139.876 16.5653 139.502 16.388C139.138 16.2107 138.821 15.9633 138.55 15.646C138.289 15.3287 138.088 14.946 137.948 14.498C137.808 14.05 137.738 13.56 137.738 13.028C137.738 12.496 137.808 12.006 137.948 11.558C138.088 11.11 138.289 10.7273 138.55 10.41C138.821 10.0927 139.138 9.84533 139.502 9.668C139.876 9.49067 140.296 9.402 140.762 9.402C141.201 9.402 141.607 9.5 141.98 9.696C142.354 9.892 142.671 10.158 142.932 10.494V6.56H144.052V16.5H142.974V15.52ZM141 15.66C141.439 15.66 141.831 15.548 142.176 15.324C142.522 15.0907 142.774 14.7873 142.932 14.414V11.656C142.774 11.2827 142.522 10.9793 142.176 10.746C141.831 10.5127 141.439 10.396 141 10.396C140.338 10.396 139.82 10.6293 139.446 11.096C139.082 11.5627 138.9 12.2067 138.9 13.028C138.9 13.8493 139.082 14.4933 139.446 14.96C139.82 15.4267 140.338 15.66 141 15.66ZM149.237 12.846C149.237 12.006 149.326 11.2547 149.503 10.592C149.68 9.92 149.909 9.332 150.189 8.828C150.469 8.324 150.777 7.89467 151.113 7.54C151.458 7.176 151.794 6.87267 152.121 6.63L152.681 7.33C152.364 7.59133 152.065 7.89467 151.785 8.24C151.505 8.58533 151.258 8.982 151.043 9.43C150.838 9.878 150.674 10.3867 150.553 10.956C150.432 11.516 150.371 12.146 150.371 12.846C150.371 13.546 150.432 14.1807 150.553 14.75C150.674 15.31 150.838 15.814 151.043 16.262C151.258 16.71 151.505 17.1067 151.785 17.452C152.065 17.7973 152.364 18.1007 152.681 18.362L152.121 19.062C151.794 18.8287 151.458 18.53 151.113 18.166C150.777 17.802 150.469 17.368 150.189 16.864C149.909 16.36 149.68 15.7767 149.503 15.114C149.326 14.442 149.237 13.686 149.237 12.846ZM153.786 9.556H154.864V10.508C154.957 10.368 155.074 10.2327 155.214 10.102C155.354 9.97133 155.512 9.85467 155.69 9.752C155.876 9.64933 156.077 9.56533 156.292 9.5C156.506 9.43467 156.735 9.402 156.978 9.402C157.491 9.402 157.925 9.50933 158.28 9.724C158.644 9.92933 158.919 10.2327 159.106 10.634C159.19 10.4847 159.306 10.34 159.456 10.2C159.605 10.0507 159.778 9.92 159.974 9.808C160.17 9.68667 160.389 9.58867 160.632 9.514C160.874 9.43933 161.131 9.402 161.402 9.402C162.204 9.402 162.82 9.64467 163.25 10.13C163.679 10.606 163.894 11.278 163.894 12.146V16.5H162.774V12.258C162.774 11.642 162.634 11.18 162.354 10.872C162.083 10.5547 161.696 10.396 161.192 10.396C160.716 10.396 160.324 10.522 160.016 10.774C159.708 11.026 159.502 11.3153 159.4 11.642V16.5H158.28V12.258C158.28 11.642 158.14 11.18 157.86 10.872C157.589 10.5547 157.202 10.396 156.698 10.396C156.222 10.396 155.83 10.522 155.522 10.774C155.214 11.026 155.008 11.3153 154.906 11.642V16.5H153.786V9.556ZM168.932 15.66C169.576 15.66 170.089 15.4313 170.472 14.974C170.855 14.5073 171.046 13.8587 171.046 13.028C171.046 12.1973 170.855 11.5533 170.472 11.096C170.089 10.6293 169.576 10.396 168.932 10.396C168.288 10.396 167.775 10.6293 167.392 11.096C167.009 11.5533 166.818 12.1973 166.818 13.028C166.818 13.8587 167.009 14.5073 167.392 14.974C167.775 15.4313 168.288 15.66 168.932 15.66ZM168.932 9.402C169.427 9.402 169.875 9.49067 170.276 9.668C170.687 9.84533 171.032 10.0927 171.312 10.41C171.601 10.7273 171.821 11.11 171.97 11.558C172.129 12.006 172.208 12.496 172.208 13.028C172.208 13.56 172.129 14.05 171.97 14.498C171.821 14.946 171.601 15.3287 171.312 15.646C171.032 15.9633 170.687 16.2107 170.276 16.388C169.875 16.5653 169.427 16.654 168.932 16.654C168.437 16.654 167.985 16.5653 167.574 16.388C167.173 16.2107 166.827 15.9633 166.538 15.646C166.258 15.3287 166.039 14.946 165.88 14.498C165.731 14.05 165.656 13.56 165.656 13.028C165.656 12.496 165.731 12.006 165.88 11.558C166.039 11.11 166.258 10.7273 166.538 10.41C166.827 10.0927 167.173 9.84533 167.574 9.668C167.985 9.49067 168.437 9.402 168.932 9.402ZM174.061 9.556H175.139V10.508C175.232 10.368 175.349 10.2327 175.489 10.102C175.629 9.97133 175.788 9.85467 175.965 9.752C176.152 9.64933 176.352 9.56533 176.567 9.5C176.782 9.43467 177.01 9.402 177.253 9.402C178.065 9.402 178.686 9.64467 179.115 10.13C179.554 10.6153 179.773 11.2967 179.773 12.174V16.5H178.653V12.286C178.653 11.6607 178.504 11.1893 178.205 10.872C177.916 10.5547 177.505 10.396 176.973 10.396C176.497 10.396 176.105 10.522 175.797 10.774C175.489 11.026 175.284 11.3153 175.181 11.642V16.5H174.061V9.556ZM184.582 16.556C183.864 16.556 183.322 16.3787 182.958 16.024C182.594 15.66 182.412 15.0813 182.412 14.288V10.508H181.166V9.556H182.426V7.75H183.532V9.556H185.086V10.508H183.532V14.288C183.532 14.764 183.64 15.0953 183.854 15.282C184.069 15.4687 184.414 15.562 184.89 15.562H185.086V16.514C184.946 16.542 184.778 16.556 184.582 16.556ZM186.776 6.56H187.896V10.438C188.083 10.1767 188.358 9.93867 188.722 9.724C189.086 9.50933 189.501 9.402 189.968 9.402C190.78 9.402 191.401 9.64467 191.83 10.13C192.269 10.6153 192.488 11.2967 192.488 12.174V16.5H191.368V12.286C191.368 11.6607 191.219 11.1893 190.92 10.872C190.631 10.5547 190.22 10.396 189.688 10.396C189.212 10.396 188.82 10.522 188.512 10.774C188.204 11.026 187.999 11.3153 187.896 11.642V16.5H186.776V6.56ZM198.234 11.166C198.028 10.8767 197.8 10.6713 197.548 10.55C197.296 10.4193 197.02 10.354 196.722 10.354C196.376 10.354 196.115 10.452 195.938 10.648C195.76 10.8347 195.672 11.054 195.672 11.306C195.672 11.81 195.97 12.1273 196.568 12.258L197.156 12.384C197.818 12.524 198.332 12.7573 198.696 13.084C199.069 13.4013 199.256 13.868 199.256 14.484C199.256 14.764 199.195 15.0347 199.074 15.296C198.962 15.5573 198.794 15.7907 198.57 15.996C198.346 16.192 198.07 16.3507 197.744 16.472C197.417 16.5933 197.048 16.654 196.638 16.654C196.33 16.654 196.045 16.612 195.784 16.528C195.522 16.4533 195.28 16.3507 195.056 16.22C194.841 16.0893 194.645 15.9353 194.468 15.758C194.29 15.5807 194.141 15.3987 194.02 15.212L194.748 14.54C194.953 14.848 195.214 15.1187 195.532 15.352C195.849 15.5853 196.227 15.702 196.666 15.702C197.114 15.702 197.468 15.5993 197.73 15.394C197.991 15.1887 198.122 14.9087 198.122 14.554C198.122 14.2273 198.005 13.98 197.772 13.812C197.538 13.644 197.226 13.518 196.834 13.434L196.246 13.308C195.695 13.1867 195.27 12.9673 194.972 12.65C194.682 12.3327 194.538 11.922 194.538 11.418C194.538 11.1567 194.584 10.9047 194.678 10.662C194.78 10.41 194.925 10.1953 195.112 10.018C195.298 9.83133 195.532 9.682 195.812 9.57C196.092 9.458 196.409 9.402 196.764 9.402C197.249 9.402 197.678 9.50467 198.052 9.71C198.425 9.91533 198.728 10.1907 198.962 10.536L198.234 11.166ZM203.19 12.846C203.19 13.686 203.096 14.442 202.91 15.114C202.732 15.7767 202.504 16.36 202.224 16.864C201.944 17.368 201.631 17.802 201.286 18.166C200.95 18.53 200.623 18.8287 200.306 19.062L199.746 18.362C200.063 18.1007 200.362 17.7973 200.642 17.452C200.922 17.1067 201.164 16.71 201.37 16.262C201.584 15.814 201.752 15.31 201.874 14.75C201.995 14.1807 202.056 13.546 202.056 12.846C202.056 12.146 201.995 11.516 201.874 10.956C201.752 10.3867 201.584 9.878 201.37 9.43C201.164 8.982 200.922 8.58533 200.642 8.24C200.362 7.89467 200.063 7.59133 199.746 7.33L200.306 6.63C200.623 6.87267 200.95 7.176 201.286 7.54C201.631 7.89467 201.944 8.324 202.224 8.828C202.504 9.332 202.732 9.92 202.91 10.592C203.096 11.2547 203.19 12.006 203.19 12.846Z" fill="black"/>
    <g clip-path="url(#clip1_1_8152)">
    <rect x="366" y="4.5" width="16" height="16" rx="8" fill="white"/>
    <line x1="359.646" y1="6.4316" x2="387.931" y2="-21.8527" stroke="#CCCCCC"/>
    <line x1="359.646" y1="13.4316" x2="387.931" y2="-14.8527" stroke="#CCCCCC"/>
    <line x1="359.646" y1="20.4316" x2="387.931" y2="-7.85267" stroke="#CCCCCC"/>
    <line x1="359.646" y1="27.4316" x2="387.931" y2="-0.852668" stroke="#CCCCCC"/>
    <line x1="359.646" y1="34.4316" x2="387.931" y2="6.14733" stroke="#CCCCCC"/>
    <line x1="359.646" y1="41.4316" x2="387.931" y2="13.1473" stroke="#CCCCCC"/>
    <line x1="359.646" y1="48.4316" x2="387.931" y2="20.1473" stroke="#CCCCCC"/>
    </g>
    <rect x="366.5" y="5" width="15" height="15" rx="7.5" stroke="#CCCCCC"/>
    <path d="M366 12.5H382V12.5C382 16.9183 378.418 20.5 374 20.5V20.5C369.582 20.5 366 16.9183 366 12.5V12.5Z" fill="#5d7d2b"/>
    <path d="M393.566 10.592C393.482 10.396 393.402 10.2047 393.328 10.018C393.262 9.822 393.202 9.64467 393.146 9.486C393.09 9.32733 393.043 9.192 393.006 9.08C392.968 8.95867 392.945 8.87 392.936 8.814H392.894C392.903 8.86067 392.908 8.94933 392.908 9.08C392.917 9.20133 392.922 9.35067 392.922 9.528C392.931 9.696 392.936 9.88267 392.936 10.088C392.945 10.2933 392.95 10.4987 392.95 10.704V16.5H391.788V6.98H393.272L396.044 13.882C396.146 14.134 396.235 14.3767 396.31 14.61C396.394 14.834 396.436 14.9973 396.436 15.1H396.478C396.478 14.9973 396.515 14.834 396.59 14.61C396.664 14.3767 396.753 14.134 396.856 13.882L399.628 6.98H401.112V16.5H399.95V10.704C399.95 10.4987 399.95 10.2933 399.95 10.088C399.959 9.88267 399.964 9.696 399.964 9.528C399.973 9.35067 399.978 9.20133 399.978 9.08C399.987 8.94933 399.996 8.86067 400.006 8.814H399.964C399.954 8.87 399.931 8.95867 399.894 9.08C399.856 9.192 399.81 9.32733 399.754 9.486C399.698 9.64467 399.632 9.822 399.558 10.018C399.492 10.2047 399.418 10.396 399.334 10.592L396.996 16.5H395.904L393.566 10.592ZM406.409 15.66C407.053 15.66 407.566 15.4313 407.949 14.974C408.331 14.5073 408.523 13.8587 408.523 13.028C408.523 12.1973 408.331 11.5533 407.949 11.096C407.566 10.6293 407.053 10.396 406.409 10.396C405.765 10.396 405.251 10.6293 404.869 11.096C404.486 11.5533 404.295 12.1973 404.295 13.028C404.295 13.8587 404.486 14.5073 404.869 14.974C405.251 15.4313 405.765 15.66 406.409 15.66ZM406.409 9.402C406.903 9.402 407.351 9.49067 407.753 9.668C408.163 9.84533 408.509 10.0927 408.789 10.41C409.078 10.7273 409.297 11.11 409.447 11.558C409.605 12.006 409.685 12.496 409.685 13.028C409.685 13.56 409.605 14.05 409.447 14.498C409.297 14.946 409.078 15.3287 408.789 15.646C408.509 15.9633 408.163 16.2107 407.753 16.388C407.351 16.5653 406.903 16.654 406.409 16.654C405.914 16.654 405.461 16.5653 405.051 16.388C404.649 16.2107 404.304 15.9633 404.015 15.646C403.735 15.3287 403.515 14.946 403.357 14.498C403.207 14.05 403.133 13.56 403.133 13.028C403.133 12.496 403.207 12.006 403.357 11.558C403.515 11.11 403.735 10.7273 404.015 10.41C404.304 10.0927 404.649 9.84533 405.051 9.668C405.461 9.49067 405.914 9.402 406.409 9.402ZM411.538 9.556H412.616V10.508C412.709 10.368 412.826 10.2327 412.966 10.102C413.106 9.97133 413.264 9.85467 413.442 9.752C413.628 9.64933 413.829 9.56533 414.044 9.5C414.258 9.43467 414.487 9.402 414.73 9.402C415.542 9.402 416.162 9.64467 416.592 10.13C417.03 10.6153 417.25 11.2967 417.25 12.174V16.5H416.13V12.286C416.13 11.6607 415.98 11.1893 415.682 10.872C415.392 10.5547 414.982 10.396 414.45 10.396C413.974 10.396 413.582 10.522 413.274 10.774C412.966 11.026 412.76 11.3153 412.658 11.642V16.5H411.538V9.556ZM422.059 16.556C421.34 16.556 420.799 16.3787 420.435 16.024C420.071 15.66 419.889 15.0813 419.889 14.288V10.508H418.643V9.556H419.903V7.75H421.009V9.556H422.563V10.508H421.009V14.288C421.009 14.764 421.116 15.0953 421.331 15.282C421.546 15.4687 421.891 15.562 422.367 15.562H422.563V16.514C422.423 16.542 422.255 16.556 422.059 16.556ZM424.252 6.56H425.372V10.438C425.559 10.1767 425.834 9.93867 426.198 9.724C426.562 9.50933 426.978 9.402 427.444 9.402C428.256 9.402 428.877 9.64467 429.306 10.13C429.745 10.6153 429.964 11.2967 429.964 12.174V16.5H428.844V12.286C428.844 11.6607 428.695 11.1893 428.396 10.872C428.107 10.5547 427.696 10.396 427.164 10.396C426.688 10.396 426.296 10.522 425.988 10.774C425.68 11.026 425.475 11.3153 425.372 11.642V16.5H424.252V6.56ZM433.302 6.56V16.5H432.182V6.56H433.302ZM437.518 15.8L434.83 9.556H436.034L437.63 13.532C437.733 13.7933 437.821 14.0407 437.896 14.274C437.98 14.5073 438.022 14.6753 438.022 14.778H438.064C438.101 14.5913 438.148 14.4047 438.204 14.218C438.26 14.022 438.339 13.7933 438.442 13.532L439.926 9.556H441.144L437.308 19.132H436.09L437.518 15.8ZM445.922 9.556H447V10.55C447.252 10.1953 447.57 9.91533 447.952 9.71C448.344 9.50467 448.764 9.402 449.212 9.402C449.67 9.402 450.085 9.49067 450.458 9.668C450.832 9.84533 451.149 10.0927 451.41 10.41C451.681 10.7273 451.886 11.11 452.026 11.558C452.166 12.006 452.236 12.496 452.236 13.028C452.236 13.56 452.166 14.05 452.026 14.498C451.886 14.946 451.681 15.3287 451.41 15.646C451.149 15.9633 450.832 16.2107 450.458 16.388C450.085 16.5653 449.67 16.654 449.212 16.654C448.774 16.654 448.363 16.556 447.98 16.36C447.607 16.164 447.294 15.9027 447.042 15.576V19.132H445.922V9.556ZM448.974 15.66C449.637 15.66 450.15 15.4267 450.514 14.96C450.888 14.4933 451.074 13.8493 451.074 13.028C451.074 12.2067 450.888 11.5627 450.514 11.096C450.15 10.6293 449.637 10.396 448.974 10.396C448.536 10.396 448.144 10.5127 447.798 10.746C447.453 10.9793 447.201 11.2827 447.042 11.656V14.414C447.201 14.7873 447.453 15.0907 447.798 15.324C448.144 15.548 448.536 15.66 448.974 15.66ZM456.128 16.654C455.736 16.654 455.382 16.5933 455.064 16.472C454.747 16.3507 454.476 16.1873 454.252 15.982C454.038 15.7767 453.87 15.5387 453.748 15.268C453.627 14.988 453.566 14.6893 453.566 14.372C453.566 14.0547 453.627 13.7607 453.748 13.49C453.87 13.21 454.038 12.9673 454.252 12.762C454.476 12.5567 454.747 12.3933 455.064 12.272C455.382 12.1507 455.736 12.09 456.128 12.09C456.492 12.09 456.842 12.16 457.178 12.3C457.514 12.4307 457.808 12.6313 458.06 12.902V12.202C458.06 11.698 457.92 11.2733 457.64 10.928C457.37 10.5733 456.945 10.396 456.366 10.396C455.956 10.396 455.624 10.466 455.372 10.606C455.12 10.746 454.868 10.9373 454.616 11.18L453.972 10.452C454.094 10.3213 454.229 10.1953 454.378 10.074C454.537 9.94333 454.714 9.83133 454.91 9.738C455.106 9.63533 455.326 9.556 455.568 9.5C455.811 9.43467 456.086 9.402 456.394 9.402C456.852 9.402 457.253 9.46733 457.598 9.598C457.944 9.72867 458.233 9.91533 458.466 10.158C458.7 10.3913 458.877 10.676 458.998 11.012C459.12 11.348 459.18 11.7167 459.18 12.118V16.5H458.102V15.814C457.841 16.094 457.538 16.304 457.192 16.444C456.856 16.584 456.502 16.654 456.128 16.654ZM456.282 15.716C456.6 15.716 456.926 15.6507 457.262 15.52C457.608 15.3893 457.874 15.1653 458.06 14.848V13.896C457.874 13.588 457.608 13.3687 457.262 13.238C456.926 13.098 456.6 13.028 456.282 13.028C456.002 13.028 455.76 13.07 455.554 13.154C455.358 13.2287 455.195 13.3313 455.064 13.462C454.943 13.5927 454.85 13.7373 454.784 13.896C454.728 14.0547 454.7 14.2133 454.7 14.372C454.7 14.5307 454.728 14.6893 454.784 14.848C454.85 15.0067 454.943 15.1513 455.064 15.282C455.195 15.4127 455.358 15.52 455.554 15.604C455.76 15.6787 456.002 15.716 456.282 15.716ZM463.085 15.8L460.397 9.556H461.601L463.197 13.532C463.299 13.7933 463.388 14.0407 463.463 14.274C463.547 14.5073 463.589 14.6753 463.589 14.778H463.631C463.668 14.5913 463.715 14.4047 463.771 14.218C463.827 14.022 463.906 13.7933 464.009 13.532L465.493 9.556H466.711L462.875 19.132H461.657L463.085 15.8ZM468.194 9.556H469.272V10.508C469.365 10.368 469.482 10.2327 469.622 10.102C469.762 9.97133 469.921 9.85467 470.098 9.752C470.285 9.64933 470.485 9.56533 470.7 9.5C470.915 9.43467 471.143 9.402 471.386 9.402C471.899 9.402 472.333 9.50933 472.688 9.724C473.052 9.92933 473.327 10.2327 473.514 10.634C473.598 10.4847 473.715 10.34 473.864 10.2C474.013 10.0507 474.186 9.92 474.382 9.808C474.578 9.68667 474.797 9.58867 475.04 9.514C475.283 9.43933 475.539 9.402 475.81 9.402C476.613 9.402 477.229 9.64467 477.658 10.13C478.087 10.606 478.302 11.278 478.302 12.146V16.5H477.182V12.258C477.182 11.642 477.042 11.18 476.762 10.872C476.491 10.5547 476.104 10.396 475.6 10.396C475.124 10.396 474.732 10.522 474.424 10.774C474.116 11.026 473.911 11.3153 473.808 11.642V16.5H472.688V12.258C472.688 11.642 472.548 11.18 472.268 10.872C471.997 10.5547 471.61 10.396 471.106 10.396C470.63 10.396 470.238 10.522 469.93 10.774C469.622 11.026 469.417 11.3153 469.314 11.642V16.5H468.194V9.556ZM483.27 16.654C482.776 16.654 482.332 16.57 481.94 16.402C481.548 16.234 481.212 15.9913 480.932 15.674C480.662 15.3567 480.452 14.9787 480.302 14.54C480.153 14.092 480.078 13.588 480.078 13.028C480.078 12.4773 480.153 11.978 480.302 11.53C480.452 11.082 480.662 10.704 480.932 10.396C481.212 10.0787 481.544 9.836 481.926 9.668C482.318 9.49067 482.752 9.402 483.228 9.402C483.695 9.402 484.115 9.49067 484.488 9.668C484.862 9.836 485.179 10.074 485.44 10.382C485.702 10.6807 485.902 11.04 486.042 11.46C486.182 11.88 486.252 12.3373 486.252 12.832C486.252 13.028 486.238 13.21 486.21 13.378H481.254C481.301 14.106 481.506 14.6707 481.87 15.072C482.234 15.464 482.724 15.66 483.34 15.66C483.77 15.66 484.152 15.5713 484.488 15.394C484.824 15.2167 485.095 14.9647 485.3 14.638L486.056 15.268C485.795 15.66 485.436 15.9913 484.978 16.262C484.53 16.5233 483.961 16.654 483.27 16.654ZM483.228 10.396C482.696 10.396 482.258 10.5733 481.912 10.928C481.567 11.2733 481.352 11.7727 481.268 12.426H485.076C485.039 11.8007 484.852 11.306 484.516 10.942C484.19 10.578 483.76 10.396 483.228 10.396ZM488.045 9.556H489.123V10.508C489.217 10.368 489.333 10.2327 489.473 10.102C489.613 9.97133 489.772 9.85467 489.949 9.752C490.136 9.64933 490.337 9.56533 490.551 9.5C490.766 9.43467 490.995 9.402 491.237 9.402C492.049 9.402 492.67 9.64467 493.099 10.13C493.538 10.6153 493.757 11.2967 493.757 12.174V16.5H492.637V12.286C492.637 11.6607 492.488 11.1893 492.189 10.872C491.9 10.5547 491.489 10.396 490.957 10.396C490.481 10.396 490.089 10.522 489.781 10.774C489.473 11.026 489.268 11.3153 489.165 11.642V16.5H488.045V9.556ZM498.567 16.556C497.848 16.556 497.307 16.3787 496.943 16.024C496.579 15.66 496.397 15.0813 496.397 14.288V10.508H495.151V9.556H496.411V7.75H497.517V9.556H499.071V10.508H497.517V14.288C497.517 14.764 497.624 15.0953 497.839 15.282C498.053 15.4687 498.399 15.562 498.875 15.562H499.071V16.514C498.931 16.542 498.763 16.556 498.567 16.556Z" fill="black"/>
    <g clip-path="url(#clip2_1_8152)">
    <rect x="520" y="4.5" width="16" height="16" rx="8" fill="white"/>
    <line x1="513.646" y1="6.4316" x2="541.931" y2="-21.8527" stroke="#E5E5E5"/>
    <line x1="513.646" y1="13.4316" x2="541.931" y2="-14.8527" stroke="#E5E5E5"/>
    <line x1="513.646" y1="20.4316" x2="541.931" y2="-7.85267" stroke="#E5E5E5"/>
    <line x1="513.646" y1="27.4316" x2="541.931" y2="-0.852668" stroke="#E5E5E5"/>
    <line x1="513.646" y1="34.4316" x2="541.931" y2="6.14733" stroke="#E5E5E5"/>
    <line x1="513.646" y1="41.4316" x2="541.931" y2="13.1473" stroke="#E5E5E5"/>
    <line x1="513.646" y1="48.4316" x2="541.931" y2="20.1473" stroke="#E5E5E5"/>
    </g>
    <rect x="520.5" y="5" width="15" height="15" rx="7.5" stroke="#E5E5E5"/>
    <path d="M520 12.5C520 8.08172 523.582 4.5 528 4.5V4.5C532.418 4.5 536 8.08172 536 12.5V12.5C536 16.9183 532.418 20.5 528 20.5V20.5C523.582 20.5 520 16.9183 520 12.5V12.5Z" fill="#5d7d2b"/>
    <path d="M551.627 9.794C551.627 10.6993 551.357 11.3947 550.815 11.88C550.283 12.3653 549.541 12.608 548.589 12.608H546.587V16.5H545.425V6.98H548.589C549.541 6.98 550.283 7.22267 550.815 7.708C551.357 8.19333 551.627 8.88867 551.627 9.794ZM550.423 9.794C550.423 9.206 550.26 8.758 549.933 8.45C549.607 8.13267 549.112 7.974 548.449 7.974H546.587V11.614H548.449C549.112 11.614 549.607 11.46 549.933 11.152C550.26 10.8347 550.423 10.382 550.423 9.794ZM553.294 9.556H554.372V10.802C554.559 10.4193 554.825 10.0927 555.17 9.822C555.516 9.542 555.936 9.402 556.43 9.402C556.477 9.402 556.524 9.402 556.57 9.402C556.626 9.402 556.678 9.41133 556.724 9.43V10.564H556.346C555.88 10.564 555.483 10.69 555.156 10.942C554.83 11.194 554.582 11.586 554.414 12.118V16.5H553.294V9.556ZM559.323 9.556V16.5H558.203V9.556H559.323ZM559.463 6.56V7.96H558.063V6.56H559.463ZM561.621 9.556H562.699V10.508C562.792 10.368 562.909 10.2327 563.049 10.102C563.189 9.97133 563.347 9.85467 563.525 9.752C563.711 9.64933 563.912 9.56533 564.127 9.5C564.341 9.43467 564.57 9.402 564.813 9.402C565.625 9.402 566.245 9.64467 566.675 10.13C567.113 10.6153 567.333 11.2967 567.333 12.174V16.5H566.213V12.286C566.213 11.6607 566.063 11.1893 565.765 10.872C565.475 10.5547 565.065 10.396 564.533 10.396C564.057 10.396 563.665 10.522 563.357 10.774C563.049 11.026 562.843 11.3153 562.741 11.642V16.5H561.621V9.556ZM569.116 13.028C569.116 12.496 569.186 12.006 569.326 11.558C569.476 11.11 569.686 10.7273 569.956 10.41C570.236 10.0927 570.572 9.84533 570.964 9.668C571.366 9.49067 571.818 9.402 572.322 9.402C572.985 9.402 573.564 9.57 574.058 9.906C574.553 10.2327 574.898 10.676 575.094 11.236L574.212 11.684C574.054 11.264 573.811 10.9467 573.484 10.732C573.158 10.508 572.77 10.396 572.322 10.396C571.697 10.396 571.198 10.6293 570.824 11.096C570.46 11.5533 570.278 12.1973 570.278 13.028C570.278 13.8587 570.46 14.5073 570.824 14.974C571.198 15.4313 571.697 15.66 572.322 15.66C572.77 15.66 573.158 15.5527 573.484 15.338C573.811 15.114 574.054 14.792 574.212 14.372L575.094 14.82C574.898 15.38 574.553 15.828 574.058 16.164C573.564 16.4907 572.985 16.654 572.322 16.654C571.818 16.654 571.366 16.5653 570.964 16.388C570.572 16.2107 570.236 15.9633 569.956 15.646C569.686 15.3287 569.476 14.946 569.326 14.498C569.186 14.05 569.116 13.56 569.116 13.028ZM577.93 9.556V16.5H576.81V9.556H577.93ZM578.07 6.56V7.96H576.67V6.56H578.07ZM580.228 9.556H581.306V10.55C581.558 10.1953 581.875 9.91533 582.258 9.71C582.65 9.50467 583.07 9.402 583.518 9.402C583.975 9.402 584.391 9.49067 584.764 9.668C585.137 9.84533 585.455 10.0927 585.716 10.41C585.987 10.7273 586.192 11.11 586.332 11.558C586.472 12.006 586.542 12.496 586.542 13.028C586.542 13.56 586.472 14.05 586.332 14.498C586.192 14.946 585.987 15.3287 585.716 15.646C585.455 15.9633 585.137 16.2107 584.764 16.388C584.391 16.5653 583.975 16.654 583.518 16.654C583.079 16.654 582.669 16.556 582.286 16.36C581.913 16.164 581.6 15.9027 581.348 15.576V19.132H580.228V9.556ZM583.28 15.66C583.943 15.66 584.456 15.4267 584.82 14.96C585.193 14.4933 585.38 13.8493 585.38 13.028C585.38 12.2067 585.193 11.5627 584.82 11.096C584.456 10.6293 583.943 10.396 583.28 10.396C582.841 10.396 582.449 10.5127 582.104 10.746C581.759 10.9793 581.507 11.2827 581.348 11.656V14.414C581.507 14.7873 581.759 15.0907 582.104 15.324C582.449 15.548 582.841 15.66 583.28 15.66ZM590.434 16.654C590.042 16.654 589.687 16.5933 589.37 16.472C589.053 16.3507 588.782 16.1873 588.558 15.982C588.343 15.7767 588.175 15.5387 588.054 15.268C587.933 14.988 587.872 14.6893 587.872 14.372C587.872 14.0547 587.933 13.7607 588.054 13.49C588.175 13.21 588.343 12.9673 588.558 12.762C588.782 12.5567 589.053 12.3933 589.37 12.272C589.687 12.1507 590.042 12.09 590.434 12.09C590.798 12.09 591.148 12.16 591.484 12.3C591.82 12.4307 592.114 12.6313 592.366 12.902V12.202C592.366 11.698 592.226 11.2733 591.946 10.928C591.675 10.5733 591.251 10.396 590.672 10.396C590.261 10.396 589.93 10.466 589.678 10.606C589.426 10.746 589.174 10.9373 588.922 11.18L588.278 10.452C588.399 10.3213 588.535 10.1953 588.684 10.074C588.843 9.94333 589.02 9.83133 589.216 9.738C589.412 9.63533 589.631 9.556 589.874 9.5C590.117 9.43467 590.392 9.402 590.7 9.402C591.157 9.402 591.559 9.46733 591.904 9.598C592.249 9.72867 592.539 9.91533 592.772 10.158C593.005 10.3913 593.183 10.676 593.304 11.012C593.425 11.348 593.486 11.7167 593.486 12.118V16.5H592.408V15.814C592.147 16.094 591.843 16.304 591.498 16.444C591.162 16.584 590.807 16.654 590.434 16.654ZM590.588 15.716C590.905 15.716 591.232 15.6507 591.568 15.52C591.913 15.3893 592.179 15.1653 592.366 14.848V13.896C592.179 13.588 591.913 13.3687 591.568 13.238C591.232 13.098 590.905 13.028 590.588 13.028C590.308 13.028 590.065 13.07 589.86 13.154C589.664 13.2287 589.501 13.3313 589.37 13.462C589.249 13.5927 589.155 13.7373 589.09 13.896C589.034 14.0547 589.006 14.2133 589.006 14.372C589.006 14.5307 589.034 14.6893 589.09 14.848C589.155 15.0067 589.249 15.1513 589.37 15.282C589.501 15.4127 589.664 15.52 589.86 15.604C590.065 15.6787 590.308 15.716 590.588 15.716ZM596.825 6.56V16.5H595.705V6.56H596.825Z" fill="black"/>
    <g clip-path="url(#clip3_1_8152)">
    <rect x="618" y="4.5" width="16" height="16" rx="8" fill="white"/>
    <line x1="611.646" y1="6.4316" x2="639.931" y2="-21.8527" stroke="#CCCCCC"/>
    <line x1="611.646" y1="13.4316" x2="639.931" y2="-14.8527" stroke="#CCCCCC"/>
    <line x1="611.646" y1="20.4316" x2="639.931" y2="-7.85267" stroke="#CCCCCC"/>
    <line x1="611.646" y1="27.4316" x2="639.931" y2="-0.852668" stroke="#CCCCCC"/>
    <line x1="611.646" y1="34.4316" x2="639.931" y2="6.14733" stroke="#CCCCCC"/>
    <line x1="611.646" y1="41.4316" x2="639.931" y2="13.1473" stroke="#CCCCCC"/>
    <line x1="611.646" y1="48.4316" x2="639.931" y2="20.1473" stroke="#CCCCCC"/>
    </g>
    <rect x="618.5" y="5" width="15" height="15" rx="7.5" stroke="#CCCCCC"/>
    <path d="M643.679 6.98H644.841V16.5H643.679V6.98ZM647.392 9.556H648.47V10.508C648.563 10.368 648.68 10.2327 648.82 10.102C648.96 9.97133 649.119 9.85467 649.296 9.752C649.483 9.64933 649.683 9.56533 649.898 9.5C650.113 9.43467 650.341 9.402 650.584 9.402C651.396 9.402 652.017 9.64467 652.446 10.13C652.885 10.6153 653.104 11.2967 653.104 12.174V16.5H651.984V12.286C651.984 11.6607 651.835 11.1893 651.536 10.872C651.247 10.5547 650.836 10.396 650.304 10.396C649.828 10.396 649.436 10.522 649.128 10.774C648.82 11.026 648.615 11.3153 648.512 11.642V16.5H647.392V9.556ZM657.913 16.556C657.195 16.556 656.653 16.3787 656.289 16.024C655.925 15.66 655.743 15.0813 655.743 14.288V10.508H654.497V9.556H655.757V7.75H656.863V9.556H658.417V10.508H656.863V14.288C656.863 14.764 656.971 15.0953 657.185 15.282C657.4 15.4687 657.745 15.562 658.221 15.562H658.417V16.514C658.277 16.542 658.109 16.556 657.913 16.556ZM662.783 16.654C662.288 16.654 661.845 16.57 661.453 16.402C661.061 16.234 660.725 15.9913 660.445 15.674C660.174 15.3567 659.964 14.9787 659.815 14.54C659.666 14.092 659.591 13.588 659.591 13.028C659.591 12.4773 659.666 11.978 659.815 11.53C659.964 11.082 660.174 10.704 660.445 10.396C660.725 10.0787 661.056 9.836 661.439 9.668C661.831 9.49067 662.265 9.402 662.741 9.402C663.208 9.402 663.628 9.49067 664.001 9.668C664.374 9.836 664.692 10.074 664.953 10.382C665.214 10.6807 665.415 11.04 665.555 11.46C665.695 11.88 665.765 12.3373 665.765 12.832C665.765 13.028 665.751 13.21 665.723 13.378H660.767C660.814 14.106 661.019 14.6707 661.383 15.072C661.747 15.464 662.237 15.66 662.853 15.66C663.282 15.66 663.665 15.5713 664.001 15.394C664.337 15.2167 664.608 14.9647 664.813 14.638L665.569 15.268C665.308 15.66 664.948 15.9913 664.491 16.262C664.043 16.5233 663.474 16.654 662.783 16.654ZM662.741 10.396C662.209 10.396 661.77 10.5733 661.425 10.928C661.08 11.2733 660.865 11.7727 660.781 12.426H664.589C664.552 11.8007 664.365 11.306 664.029 10.942C663.702 10.578 663.273 10.396 662.741 10.396ZM667.558 9.556H668.636V10.802C668.823 10.4193 669.089 10.0927 669.434 9.822C669.779 9.542 670.199 9.402 670.694 9.402C670.741 9.402 670.787 9.402 670.834 9.402C670.89 9.402 670.941 9.41133 670.988 9.43V10.564H670.61C670.143 10.564 669.747 10.69 669.42 10.942C669.093 11.194 668.846 11.586 668.678 12.118V16.5H667.558V9.556ZM675.019 16.654C674.525 16.654 674.081 16.57 673.689 16.402C673.297 16.234 672.961 15.9913 672.681 15.674C672.411 15.3567 672.201 14.9787 672.051 14.54C671.902 14.092 671.827 13.588 671.827 13.028C671.827 12.4773 671.902 11.978 672.051 11.53C672.201 11.082 672.411 10.704 672.681 10.396C672.961 10.0787 673.293 9.836 673.675 9.668C674.067 9.49067 674.501 9.402 674.977 9.402C675.444 9.402 675.864 9.49067 676.237 9.668C676.611 9.836 676.928 10.074 677.189 10.382C677.451 10.6807 677.651 11.04 677.791 11.46C677.931 11.88 678.001 12.3373 678.001 12.832C678.001 13.028 677.987 13.21 677.959 13.378H673.003C673.05 14.106 673.255 14.6707 673.619 15.072C673.983 15.464 674.473 15.66 675.089 15.66C675.519 15.66 675.901 15.5713 676.237 15.394C676.573 15.2167 676.844 14.9647 677.049 14.638L677.805 15.268C677.544 15.66 677.185 15.9913 676.727 16.262C676.279 16.5233 675.71 16.654 675.019 16.654ZM674.977 10.396C674.445 10.396 674.007 10.5733 673.661 10.928C673.316 11.2733 673.101 11.7727 673.017 12.426H676.825C676.788 11.8007 676.601 11.306 676.265 10.942C675.939 10.578 675.509 10.396 674.977 10.396ZM683.322 11.166C683.117 10.8767 682.888 10.6713 682.636 10.55C682.384 10.4193 682.109 10.354 681.81 10.354C681.465 10.354 681.204 10.452 681.026 10.648C680.849 10.8347 680.76 11.054 680.76 11.306C680.76 11.81 681.059 12.1273 681.656 12.258L682.244 12.384C682.907 12.524 683.42 12.7573 683.784 13.084C684.158 13.4013 684.344 13.868 684.344 14.484C684.344 14.764 684.284 15.0347 684.162 15.296C684.05 15.5573 683.882 15.7907 683.658 15.996C683.434 16.192 683.159 16.3507 682.832 16.472C682.506 16.5933 682.137 16.654 681.726 16.654C681.418 16.654 681.134 16.612 680.872 16.528C680.611 16.4533 680.368 16.3507 680.144 16.22C679.93 16.0893 679.734 15.9353 679.556 15.758C679.379 15.5807 679.23 15.3987 679.108 15.212L679.836 14.54C680.042 14.848 680.303 15.1187 680.62 15.352C680.938 15.5853 681.316 15.702 681.754 15.702C682.202 15.702 682.557 15.5993 682.818 15.394C683.08 15.1887 683.21 14.9087 683.21 14.554C683.21 14.2273 683.094 13.98 682.86 13.812C682.627 13.644 682.314 13.518 681.922 13.434L681.334 13.308C680.784 13.1867 680.359 12.9673 680.06 12.65C679.771 12.3327 679.626 11.922 679.626 11.418C679.626 11.1567 679.673 10.9047 679.766 10.662C679.869 10.41 680.014 10.1953 680.2 10.018C680.387 9.83133 680.62 9.682 680.9 9.57C681.18 9.458 681.498 9.402 681.852 9.402C682.338 9.402 682.767 9.50467 683.14 9.71C683.514 9.91533 683.817 10.1907 684.05 10.536L683.322 11.166ZM688.675 16.556C687.957 16.556 687.415 16.3787 687.051 16.024C686.687 15.66 686.505 15.0813 686.505 14.288V10.508H685.259V9.556H686.519V7.75H687.625V9.556H689.179V10.508H687.625V14.288C687.625 14.764 687.733 15.0953 687.947 15.282C688.162 15.4687 688.507 15.562 688.983 15.562H689.179V16.514C689.039 16.542 688.871 16.556 688.675 16.556Z" fill="black"/>
    <defs>
    <clipPath id="clip0_1_8152">
    <rect width="24" height="24" fill="white"/>
    </clipPath>
    <clipPath id="clip1_1_8152">
    <rect x="366" y="4.5" width="16" height="16" rx="8" fill="white"/>
    </clipPath>
    <clipPath id="clip2_1_8152">
    <rect x="520" y="4.5" width="16" height="16" rx="8" fill="white"/>
    </clipPath>
    <clipPath id="clip3_1_8152">
    <rect x="618" y="4.5" width="16" height="16" rx="8" fill="white"/>
    </clipPath>
    </defs>
    </svg>
    