<svg width="690" height="197" viewBox="0 0 690 197" fill="none" xmlns="http://www.w3.org/2000/svg">
    <mask id="path-1-inside-1_1_8409" fill="white">
    <path d="M0 0H690V40H0V0Z"/>
    </mask>
    <path d="M0 0H690V40H0V0Z" fill="white"/>
    <path d="M690 39H0V41H690V39Z" fill="#E5E5E5" mask="url(#path-1-inside-1_1_8409)"/>
    <mask id="path-3-inside-2_1_8409" fill="white">
    <path d="M0 40H690V80H0V40Z"/>
    </mask>
    <path d="M0 40H690V80H0V40Z" fill="white"/>
    <path d="M690 79H0V81H690V79Z" fill="#E5E5E5" mask="url(#path-3-inside-2_1_8409)"/>
    <mask id="path-5-inside-3_1_8409" fill="white">
    <path d="M0 80H690V120H0V80Z"/>
    </mask>
    <path d="M0 80H690V120H0V80Z" fill="white"/>
    <path d="M690 119H0V121H690V119Z" fill="#E5E5E5" mask="url(#path-5-inside-3_1_8409)"/>
    <mask id="path-7-inside-4_1_8409" fill="white">
    <path d="M0 120H690V160H0V120Z"/>
    </mask>
    <path d="M0 120H690V160H0V120Z" fill="white"/>
    <path d="M690 159H0V161H690V159Z" fill="#444444" mask="url(#path-7-inside-4_1_8409)"/>
    <g clip-path="url(#clip0_1_8409)">
    <rect x="41" y="80" width="16" height="70" rx="8" fill="white"/>
    <line x1="34.6464" y1="80.9316" x2="62.9307" y2="52.6473" stroke="#CCCCCC"/>
    <line x1="34.6464" y1="87.9316" x2="62.9307" y2="59.6473" stroke="#CCCCCC"/>
    <line x1="34.6464" y1="94.9316" x2="62.9307" y2="66.6473" stroke="#CCCCCC"/>
    <line x1="34.6464" y1="101.932" x2="62.9307" y2="73.6473" stroke="#CCCCCC"/>
    <line x1="34.6464" y1="108.932" x2="62.9307" y2="80.6473" stroke="#CCCCCC"/>
    <line x1="34.6464" y1="115.932" x2="62.9307" y2="87.6473" stroke="#CCCCCC"/>
    <line x1="34.6464" y1="122.932" x2="62.9307" y2="94.6473" stroke="#CCCCCC"/>
    <line x1="34.6464" y1="129.932" x2="62.9307" y2="101.647" stroke="#CCCCCC"/>
    <line x1="34.6464" y1="136.932" x2="62.9307" y2="108.647" stroke="#CCCCCC"/>
    <line x1="34.6464" y1="143.932" x2="62.9307" y2="115.647" stroke="#CCCCCC"/>
    <line x1="34.6464" y1="150.932" x2="62.9307" y2="122.647" stroke="#CCCCCC"/>
    <line x1="34.6464" y1="157.932" x2="62.9307" y2="129.647" stroke="#CCCCCC"/>
    <line x1="34.6464" y1="164.932" x2="62.9307" y2="136.647" stroke="#CCCCCC"/>
    <line x1="34.6464" y1="171.932" x2="62.9307" y2="143.647" stroke="#CCCCCC"/>
    </g>
    <rect x="41.5" y="80.5" width="15" height="69" rx="7.5" stroke="#CCCCCC"/>
    <g clip-path="url(#clip1_1_8409)">
    <rect x="115" y="80" width="16" height="70" rx="8" fill="white"/>
    <line x1="108.646" y1="80.9316" x2="136.931" y2="52.6473" stroke="#CCCCCC"/>
    <line x1="108.646" y1="87.9316" x2="136.931" y2="59.6473" stroke="#CCCCCC"/>
    <line x1="108.646" y1="94.9316" x2="136.931" y2="66.6473" stroke="#CCCCCC"/>
    <line x1="108.646" y1="101.932" x2="136.931" y2="73.6473" stroke="#CCCCCC"/>
    <line x1="108.646" y1="108.932" x2="136.931" y2="80.6473" stroke="#CCCCCC"/>
    <line x1="108.646" y1="115.932" x2="136.931" y2="87.6473" stroke="#CCCCCC"/>
    <line x1="108.646" y1="122.932" x2="136.931" y2="94.6473" stroke="#CCCCCC"/>
    <line x1="108.646" y1="129.932" x2="136.931" y2="101.647" stroke="#CCCCCC"/>
    <line x1="108.646" y1="136.932" x2="136.931" y2="108.647" stroke="#CCCCCC"/>
    <line x1="108.646" y1="143.932" x2="136.931" y2="115.647" stroke="#CCCCCC"/>
    <line x1="108.646" y1="150.932" x2="136.931" y2="122.647" stroke="#CCCCCC"/>
    <line x1="108.646" y1="157.932" x2="136.931" y2="129.647" stroke="#CCCCCC"/>
    <line x1="108.646" y1="164.932" x2="136.931" y2="136.647" stroke="#CCCCCC"/>
    <line x1="108.646" y1="171.932" x2="136.931" y2="143.647" stroke="#CCCCCC"/>
    </g>
    <rect x="115.5" y="80.5" width="15" height="69" rx="7.5" stroke="#CCCCCC"/>
    <g clip-path="url(#clip2_1_8409)">
    <rect x="189" y="80" width="16" height="70" rx="8" fill="white"/>
    <line x1="182.646" y1="80.9316" x2="210.931" y2="52.6473" stroke="#CCCCCC"/>
    <line x1="182.646" y1="87.9316" x2="210.931" y2="59.6473" stroke="#CCCCCC"/>
    <line x1="182.646" y1="94.9316" x2="210.931" y2="66.6473" stroke="#CCCCCC"/>
    <line x1="182.646" y1="101.932" x2="210.931" y2="73.6473" stroke="#CCCCCC"/>
    <line x1="182.646" y1="108.932" x2="210.931" y2="80.6473" stroke="#CCCCCC"/>
    <line x1="182.646" y1="115.932" x2="210.931" y2="87.6473" stroke="#CCCCCC"/>
    <line x1="182.646" y1="122.932" x2="210.931" y2="94.6473" stroke="#CCCCCC"/>
    <line x1="182.646" y1="129.932" x2="210.931" y2="101.647" stroke="#CCCCCC"/>
    <line x1="182.646" y1="136.932" x2="210.931" y2="108.647" stroke="#CCCCCC"/>
    <line x1="182.646" y1="143.932" x2="210.931" y2="115.647" stroke="#CCCCCC"/>
    <line x1="182.646" y1="150.932" x2="210.931" y2="122.647" stroke="#CCCCCC"/>
    <line x1="182.646" y1="157.932" x2="210.931" y2="129.647" stroke="#CCCCCC"/>
    <line x1="182.646" y1="164.932" x2="210.931" y2="136.647" stroke="#CCCCCC"/>
    <line x1="182.646" y1="171.932" x2="210.931" y2="143.647" stroke="#CCCCCC"/>
    </g>
    <rect x="189.5" y="80.5" width="15" height="69" rx="7.5" stroke="#CCCCCC"/>
    <g clip-path="url(#clip3_1_8409)">
    <rect x="263" width="16" height="150" rx="8" fill="white"/>
    <line x1="256.646" y1="19.789" x2="284.931" y2="-8.49525" stroke="#CCCCCC"/>
    <line x1="256.646" y1="26.9316" x2="284.931" y2="-1.35267" stroke="#CCCCCC"/>
    <line x1="256.646" y1="33.9316" x2="284.931" y2="5.64733" stroke="#CCCCCC"/>
    <line x1="256.646" y1="40.9316" x2="284.931" y2="12.6473" stroke="#CCCCCC"/>
    <line x1="256.646" y1="47.9316" x2="284.931" y2="19.6473" stroke="#CCCCCC"/>
    <line x1="256.646" y1="54.9316" x2="284.931" y2="26.6473" stroke="#CCCCCC"/>
    <line x1="256.646" y1="61.9316" x2="284.931" y2="33.6473" stroke="#CCCCCC"/>
    <line x1="256.646" y1="68.9316" x2="284.931" y2="40.6473" stroke="#CCCCCC"/>
    <line x1="256.646" y1="75.9316" x2="284.931" y2="47.6473" stroke="#CCCCCC"/>
    <line x1="256.646" y1="82.9316" x2="284.931" y2="54.6473" stroke="#CCCCCC"/>
    <line x1="256.646" y1="89.9316" x2="284.931" y2="61.6473" stroke="#CCCCCC"/>
    <line x1="256.646" y1="96.9316" x2="284.931" y2="68.6473" stroke="#CCCCCC"/>
    <line x1="256.646" y1="103.932" x2="284.931" y2="75.6473" stroke="#CCCCCC"/>
    <line x1="256.646" y1="110.932" x2="284.931" y2="82.6473" stroke="#CCCCCC"/>
    <line x1="256.646" y1="117.932" x2="284.931" y2="89.6473" stroke="#CCCCCC"/>
    <line x1="256.646" y1="124.932" x2="284.931" y2="96.6473" stroke="#CCCCCC"/>
    <line x1="256.646" y1="131.932" x2="284.931" y2="103.647" stroke="#CCCCCC"/>
    <line x1="256.646" y1="138.932" x2="284.931" y2="110.647" stroke="#CCCCCC"/>
    <line x1="256.646" y1="145.932" x2="284.931" y2="117.647" stroke="#CCCCCC"/>
    <line x1="256.646" y1="152.932" x2="284.931" y2="124.647" stroke="#CCCCCC"/>
    <line x1="256.646" y1="159.932" x2="284.931" y2="131.647" stroke="#CCCCCC"/>
    </g>
    <rect x="263.5" y="0.5" width="15" height="149" rx="7.5" stroke="#CCCCCC"/>
    <rect x="263" y="80" width="16" height="70" rx="8" fill="#5d7d2b"/>
    <g clip-path="url(#clip4_1_8409)">
    <rect x="337" width="16" height="150" rx="8" fill="white"/>
    <line x1="330.646" y1="19.789" x2="358.931" y2="-8.49525" stroke="#CCCCCC"/>
    <line x1="330.646" y1="26.9316" x2="358.931" y2="-1.35267" stroke="#CCCCCC"/>
    <line x1="330.646" y1="33.9316" x2="358.931" y2="5.64733" stroke="#CCCCCC"/>
    <line x1="330.646" y1="40.9316" x2="358.931" y2="12.6473" stroke="#CCCCCC"/>
    <line x1="330.646" y1="47.9316" x2="358.931" y2="19.6473" stroke="#CCCCCC"/>
    <line x1="330.646" y1="54.9316" x2="358.931" y2="26.6473" stroke="#CCCCCC"/>
    <line x1="330.646" y1="61.9316" x2="358.931" y2="33.6473" stroke="#CCCCCC"/>
    <line x1="330.646" y1="68.9316" x2="358.931" y2="40.6473" stroke="#CCCCCC"/>
    <line x1="330.646" y1="75.9316" x2="358.931" y2="47.6473" stroke="#CCCCCC"/>
    <line x1="330.646" y1="82.9316" x2="358.931" y2="54.6473" stroke="#CCCCCC"/>
    <line x1="330.646" y1="89.9316" x2="358.931" y2="61.6473" stroke="#CCCCCC"/>
    <line x1="330.646" y1="96.9316" x2="358.931" y2="68.6473" stroke="#CCCCCC"/>
    <line x1="330.646" y1="103.932" x2="358.931" y2="75.6473" stroke="#CCCCCC"/>
    <line x1="330.646" y1="110.932" x2="358.931" y2="82.6473" stroke="#CCCCCC"/>
    <line x1="330.646" y1="117.932" x2="358.931" y2="89.6473" stroke="#CCCCCC"/>
    <line x1="330.646" y1="124.932" x2="358.931" y2="96.6473" stroke="#CCCCCC"/>
    <line x1="330.646" y1="131.932" x2="358.931" y2="103.647" stroke="#CCCCCC"/>
    <line x1="330.646" y1="138.932" x2="358.931" y2="110.647" stroke="#CCCCCC"/>
    <line x1="330.646" y1="145.932" x2="358.931" y2="117.647" stroke="#CCCCCC"/>
    <line x1="330.646" y1="152.932" x2="358.931" y2="124.647" stroke="#CCCCCC"/>
    <line x1="330.646" y1="159.932" x2="358.931" y2="131.647" stroke="#CCCCCC"/>
    </g>
    <rect x="337.5" y="0.5" width="15" height="149" rx="7.5" stroke="#CCCCCC"/>
    <rect x="337" y="68" width="16" height="82" rx="8" fill="#5d7d2b"/>
    <g clip-path="url(#clip5_1_8409)">
    <rect x="411" width="16" height="150" rx="8" fill="white"/>
    <line x1="404.646" y1="19.789" x2="432.931" y2="-8.49525" stroke="#CCCCCC"/>
    <line x1="404.646" y1="26.9316" x2="432.931" y2="-1.35267" stroke="#CCCCCC"/>
    <line x1="404.646" y1="33.9316" x2="432.931" y2="5.64733" stroke="#CCCCCC"/>
    <line x1="404.646" y1="40.9316" x2="432.931" y2="12.6473" stroke="#CCCCCC"/>
    <line x1="404.646" y1="47.9316" x2="432.931" y2="19.6473" stroke="#CCCCCC"/>
    <line x1="404.646" y1="54.9316" x2="432.931" y2="26.6473" stroke="#CCCCCC"/>
    <line x1="404.646" y1="61.9316" x2="432.931" y2="33.6473" stroke="#CCCCCC"/>
    <line x1="404.646" y1="68.9316" x2="432.931" y2="40.6473" stroke="#CCCCCC"/>
    <line x1="404.646" y1="75.9316" x2="432.931" y2="47.6473" stroke="#CCCCCC"/>
    <line x1="404.646" y1="82.9316" x2="432.931" y2="54.6473" stroke="#CCCCCC"/>
    <line x1="404.646" y1="89.9316" x2="432.931" y2="61.6473" stroke="#CCCCCC"/>
    <line x1="404.646" y1="96.9316" x2="432.931" y2="68.6473" stroke="#CCCCCC"/>
    <line x1="404.646" y1="103.932" x2="432.931" y2="75.6473" stroke="#CCCCCC"/>
    <line x1="404.646" y1="110.932" x2="432.931" y2="82.6473" stroke="#CCCCCC"/>
    <line x1="404.646" y1="117.932" x2="432.931" y2="89.6473" stroke="#CCCCCC"/>
    <line x1="404.646" y1="124.932" x2="432.931" y2="96.6473" stroke="#CCCCCC"/>
    <line x1="404.646" y1="131.932" x2="432.931" y2="103.647" stroke="#CCCCCC"/>
    <line x1="404.646" y1="138.932" x2="432.931" y2="110.647" stroke="#CCCCCC"/>
    <line x1="404.646" y1="145.932" x2="432.931" y2="117.647" stroke="#CCCCCC"/>
    <line x1="404.646" y1="152.932" x2="432.931" y2="124.647" stroke="#CCCCCC"/>
    <line x1="404.646" y1="159.932" x2="432.931" y2="131.647" stroke="#CCCCCC"/>
    </g>
    <rect x="411.5" y="0.5" width="15" height="149" rx="7.5" stroke="#CCCCCC"/>
    <rect x="411" y="56" width="16" height="94" rx="8" fill="#5d7d2b"/>
    <g clip-path="url(#clip6_1_8409)">
    <rect x="485" width="16" height="150" rx="8" fill="white"/>
    <line x1="478.646" y1="19.789" x2="506.931" y2="-8.49525" stroke="#CCCCCC"/>
    <line x1="478.646" y1="26.9316" x2="506.931" y2="-1.35267" stroke="#CCCCCC"/>
    <line x1="478.646" y1="33.9316" x2="506.931" y2="5.64733" stroke="#CCCCCC"/>
    <line x1="478.646" y1="40.9316" x2="506.931" y2="12.6473" stroke="#CCCCCC"/>
    <line x1="478.646" y1="47.9316" x2="506.931" y2="19.6473" stroke="#CCCCCC"/>
    <line x1="478.646" y1="54.9316" x2="506.931" y2="26.6473" stroke="#CCCCCC"/>
    <line x1="478.646" y1="61.9316" x2="506.931" y2="33.6473" stroke="#CCCCCC"/>
    <line x1="478.646" y1="68.9316" x2="506.931" y2="40.6473" stroke="#CCCCCC"/>
    <line x1="478.646" y1="75.9316" x2="506.931" y2="47.6473" stroke="#CCCCCC"/>
    <line x1="478.646" y1="82.9316" x2="506.931" y2="54.6473" stroke="#CCCCCC"/>
    <line x1="478.646" y1="89.9316" x2="506.931" y2="61.6473" stroke="#CCCCCC"/>
    <line x1="478.646" y1="96.9316" x2="506.931" y2="68.6473" stroke="#CCCCCC"/>
    <line x1="478.646" y1="103.932" x2="506.931" y2="75.6473" stroke="#CCCCCC"/>
    <line x1="478.646" y1="110.932" x2="506.931" y2="82.6473" stroke="#CCCCCC"/>
    <line x1="478.646" y1="117.932" x2="506.931" y2="89.6473" stroke="#CCCCCC"/>
    <line x1="478.646" y1="124.932" x2="506.931" y2="96.6473" stroke="#CCCCCC"/>
    <line x1="478.646" y1="131.932" x2="506.931" y2="103.647" stroke="#CCCCCC"/>
    <line x1="478.646" y1="138.932" x2="506.931" y2="110.647" stroke="#CCCCCC"/>
    <line x1="478.646" y1="145.932" x2="506.931" y2="117.647" stroke="#CCCCCC"/>
    <line x1="478.646" y1="152.932" x2="506.931" y2="124.647" stroke="#CCCCCC"/>
    <line x1="478.646" y1="159.932" x2="506.931" y2="131.647" stroke="#CCCCCC"/>
    </g>
    <rect x="485.5" y="0.5" width="15" height="149" rx="7.5" stroke="#CCCCCC"/>
    <rect x="485" y="44" width="16" height="106" rx="8" fill="#5d7d2b"/>
    <g clip-path="url(#clip7_1_8409)">
    <rect x="559" width="16" height="150" rx="8" fill="white"/>
    <line x1="552.646" y1="19.789" x2="580.931" y2="-8.49525" stroke="#CCCCCC"/>
    <line x1="552.646" y1="26.9316" x2="580.931" y2="-1.35267" stroke="#CCCCCC"/>
    <line x1="552.646" y1="33.9316" x2="580.931" y2="5.64733" stroke="#CCCCCC"/>
    <line x1="552.646" y1="40.9316" x2="580.931" y2="12.6473" stroke="#CCCCCC"/>
    <line x1="552.646" y1="47.9316" x2="580.931" y2="19.6473" stroke="#CCCCCC"/>
    <line x1="552.646" y1="54.9316" x2="580.931" y2="26.6473" stroke="#CCCCCC"/>
    <line x1="552.646" y1="61.9316" x2="580.931" y2="33.6473" stroke="#CCCCCC"/>
    <line x1="552.646" y1="68.9316" x2="580.931" y2="40.6473" stroke="#CCCCCC"/>
    <line x1="552.646" y1="75.9316" x2="580.931" y2="47.6473" stroke="#CCCCCC"/>
    <line x1="552.646" y1="82.9316" x2="580.931" y2="54.6473" stroke="#CCCCCC"/>
    <line x1="552.646" y1="89.9316" x2="580.931" y2="61.6473" stroke="#CCCCCC"/>
    <line x1="552.646" y1="96.9316" x2="580.931" y2="68.6473" stroke="#CCCCCC"/>
    <line x1="552.646" y1="103.932" x2="580.931" y2="75.6473" stroke="#CCCCCC"/>
    <line x1="552.646" y1="110.932" x2="580.931" y2="82.6473" stroke="#CCCCCC"/>
    <line x1="552.646" y1="117.932" x2="580.931" y2="89.6473" stroke="#CCCCCC"/>
    <line x1="552.646" y1="124.932" x2="580.931" y2="96.6473" stroke="#CCCCCC"/>
    <line x1="552.646" y1="131.932" x2="580.931" y2="103.647" stroke="#CCCCCC"/>
    <line x1="552.646" y1="138.932" x2="580.931" y2="110.647" stroke="#CCCCCC"/>
    <line x1="552.646" y1="145.932" x2="580.931" y2="117.647" stroke="#CCCCCC"/>
    <line x1="552.646" y1="152.932" x2="580.931" y2="124.647" stroke="#CCCCCC"/>
    <line x1="552.646" y1="159.932" x2="580.931" y2="131.647" stroke="#CCCCCC"/>
    </g>
    <rect x="559.5" y="0.5" width="15" height="149" rx="7.5" stroke="#CCCCCC"/>
    <rect x="559" y="32" width="16" height="118" rx="8" fill="#5d7d2b"/>
    <g clip-path="url(#clip8_1_8409)">
    <rect x="633" width="16" height="150" rx="8" fill="white"/>
    <line x1="626.646" y1="19.789" x2="654.931" y2="-8.49525" stroke="#CCCCCC"/>
    <line x1="626.646" y1="26.9316" x2="654.931" y2="-1.35267" stroke="#CCCCCC"/>
    <line x1="626.646" y1="33.9316" x2="654.931" y2="5.64733" stroke="#CCCCCC"/>
    <line x1="626.646" y1="40.9316" x2="654.931" y2="12.6473" stroke="#CCCCCC"/>
    <line x1="626.646" y1="47.9316" x2="654.931" y2="19.6473" stroke="#CCCCCC"/>
    <line x1="626.646" y1="54.9316" x2="654.931" y2="26.6473" stroke="#CCCCCC"/>
    <line x1="626.646" y1="61.9316" x2="654.931" y2="33.6473" stroke="#CCCCCC"/>
    <line x1="626.646" y1="68.9316" x2="654.931" y2="40.6473" stroke="#CCCCCC"/>
    <line x1="626.646" y1="75.9316" x2="654.931" y2="47.6473" stroke="#CCCCCC"/>
    <line x1="626.646" y1="82.9316" x2="654.931" y2="54.6473" stroke="#CCCCCC"/>
    <line x1="626.646" y1="89.9316" x2="654.931" y2="61.6473" stroke="#CCCCCC"/>
    <line x1="626.646" y1="96.9316" x2="654.931" y2="68.6473" stroke="#CCCCCC"/>
    <line x1="626.646" y1="103.932" x2="654.931" y2="75.6473" stroke="#CCCCCC"/>
    <line x1="626.646" y1="110.932" x2="654.931" y2="82.6473" stroke="#CCCCCC"/>
    <line x1="626.646" y1="117.932" x2="654.931" y2="89.6473" stroke="#CCCCCC"/>
    <line x1="626.646" y1="124.932" x2="654.931" y2="96.6473" stroke="#CCCCCC"/>
    <line x1="626.646" y1="131.932" x2="654.931" y2="103.647" stroke="#CCCCCC"/>
    <line x1="626.646" y1="138.932" x2="654.931" y2="110.647" stroke="#CCCCCC"/>
    <line x1="626.646" y1="145.932" x2="654.931" y2="117.647" stroke="#CCCCCC"/>
    <line x1="626.646" y1="152.932" x2="654.931" y2="124.647" stroke="#CCCCCC"/>
    <line x1="626.646" y1="159.932" x2="654.931" y2="131.647" stroke="#CCCCCC"/>
    </g>
    <rect x="633.5" y="0.5" width="15" height="149" rx="7.5" stroke="#CCCCCC"/>
    <rect x="633" y="20" width="16" height="130" rx="8" fill="#5d7d2b"/>
    <path d="M48.815 192.006H50.901V193H45.567V192.006H47.695V185.104L45.917 186.21L45.469 185.342L47.947 183.816H48.815V192.006Z" fill="black"/>
    <path d="M125.383 185.734C125.178 185.417 124.916 185.165 124.599 184.978C124.282 184.782 123.918 184.684 123.507 184.684C122.76 184.684 122.149 184.978 121.673 185.566C121.197 186.145 120.931 186.994 120.875 188.114C121.118 187.722 121.44 187.405 121.841 187.162C122.242 186.91 122.732 186.784 123.311 186.784C123.722 186.784 124.109 186.863 124.473 187.022C124.837 187.181 125.154 187.4 125.425 187.68C125.705 187.96 125.924 188.296 126.083 188.688C126.242 189.08 126.321 189.505 126.321 189.962C126.321 190.429 126.237 190.858 126.069 191.25C125.901 191.633 125.672 191.969 125.383 192.258C125.103 192.538 124.767 192.757 124.375 192.916C123.992 193.075 123.582 193.154 123.143 193.154C122.592 193.154 122.107 193.047 121.687 192.832C121.267 192.617 120.917 192.314 120.637 191.922C120.357 191.521 120.142 191.045 119.993 190.494C119.853 189.934 119.783 189.313 119.783 188.632C119.783 187.857 119.872 187.162 120.049 186.546C120.226 185.93 120.474 185.412 120.791 184.992C121.118 184.563 121.51 184.236 121.967 184.012C122.424 183.779 122.938 183.662 123.507 183.662C124.132 183.662 124.669 183.807 125.117 184.096C125.565 184.385 125.915 184.726 126.167 185.118L125.383 185.734ZM121.155 189.976C121.155 190.611 121.332 191.129 121.687 191.53C122.051 191.931 122.536 192.132 123.143 192.132C123.759 192.132 124.249 191.931 124.613 191.53C124.977 191.129 125.159 190.611 125.159 189.976C125.159 189.659 125.108 189.365 125.005 189.094C124.912 188.823 124.776 188.595 124.599 188.408C124.431 188.221 124.221 188.077 123.969 187.974C123.726 187.862 123.451 187.806 123.143 187.806C122.844 187.806 122.569 187.862 122.317 187.974C122.074 188.077 121.864 188.221 121.687 188.408C121.519 188.595 121.388 188.823 121.295 189.094C121.202 189.365 121.155 189.659 121.155 189.976Z" fill="black"/>
    <path d="M190.216 185.748C190.281 185.515 190.384 185.277 190.524 185.034C190.664 184.782 190.846 184.553 191.07 184.348C191.294 184.143 191.56 183.979 191.868 183.858C192.176 183.727 192.535 183.662 192.946 183.662C193.394 183.662 193.791 183.732 194.136 183.872C194.491 184.003 194.789 184.189 195.032 184.432C195.284 184.675 195.475 184.964 195.606 185.3C195.737 185.636 195.802 186.009 195.802 186.42C195.802 186.887 195.713 187.316 195.536 187.708C195.368 188.091 195.149 188.445 194.878 188.772C194.607 189.099 194.304 189.407 193.968 189.696C193.641 189.976 193.319 190.247 193.002 190.508C192.694 190.76 192.405 191.012 192.134 191.264C191.873 191.507 191.677 191.754 191.546 192.006H195.914V193H190.16V192.174C190.337 191.782 190.571 191.423 190.86 191.096C191.149 190.76 191.457 190.443 191.784 190.144C192.12 189.845 192.456 189.561 192.792 189.29C193.137 189.01 193.445 188.725 193.716 188.436C193.987 188.137 194.206 187.829 194.374 187.512C194.551 187.195 194.64 186.845 194.64 186.462C194.64 185.921 194.5 185.491 194.22 185.174C193.949 184.847 193.515 184.684 192.918 184.684C192.013 184.684 191.42 185.188 191.14 186.196L190.216 185.748ZM204.406 189.542V190.522H202.978V193H201.858V190.522H197.378V189.71L201.55 183.816H202.978V189.542H204.406ZM201.858 186.434C201.858 186.126 201.863 185.869 201.872 185.664C201.881 185.459 201.905 185.235 201.942 184.992H201.9C201.863 185.095 201.774 185.258 201.634 185.482C201.494 185.706 201.331 185.949 201.144 186.21L198.778 189.542H201.858V186.434Z" fill="black"/>
    <path d="M639.466 185.734C639.261 185.417 638.999 185.165 638.682 184.978C638.365 184.782 638.001 184.684 637.59 184.684C636.843 184.684 636.232 184.978 635.756 185.566C635.28 186.145 635.014 186.994 634.958 188.114C635.201 187.722 635.523 187.405 635.924 187.162C636.325 186.91 636.815 186.784 637.394 186.784C637.805 186.784 638.192 186.863 638.556 187.022C638.92 187.181 639.237 187.4 639.508 187.68C639.788 187.96 640.007 188.296 640.166 188.688C640.325 189.08 640.404 189.505 640.404 189.962C640.404 190.429 640.32 190.858 640.152 191.25C639.984 191.633 639.755 191.969 639.466 192.258C639.186 192.538 638.85 192.757 638.458 192.916C638.075 193.075 637.665 193.154 637.226 193.154C636.675 193.154 636.19 193.047 635.77 192.832C635.35 192.617 635 192.314 634.72 191.922C634.44 191.521 634.225 191.045 634.076 190.494C633.936 189.934 633.866 189.313 633.866 188.632C633.866 187.857 633.955 187.162 634.132 186.546C634.309 185.93 634.557 185.412 634.874 184.992C635.201 184.563 635.593 184.236 636.05 184.012C636.507 183.779 637.021 183.662 637.59 183.662C638.215 183.662 638.752 183.807 639.2 184.096C639.648 184.385 639.998 184.726 640.25 185.118L639.466 185.734ZM635.238 189.976C635.238 190.611 635.415 191.129 635.77 191.53C636.134 191.931 636.619 192.132 637.226 192.132C637.842 192.132 638.332 191.931 638.696 191.53C639.06 191.129 639.242 190.611 639.242 189.976C639.242 189.659 639.191 189.365 639.088 189.094C638.995 188.823 638.859 188.595 638.682 188.408C638.514 188.221 638.304 188.077 638.052 187.974C637.809 187.862 637.534 187.806 637.226 187.806C636.927 187.806 636.652 187.862 636.4 187.974C636.157 188.077 635.947 188.221 635.77 188.408C635.602 188.595 635.471 188.823 635.378 189.094C635.285 189.365 635.238 189.659 635.238 189.976ZM644.92 193.154C644.397 193.154 643.935 193.047 643.534 192.832C643.133 192.608 642.797 192.291 642.526 191.88C642.255 191.469 642.05 190.97 641.91 190.382C641.77 189.794 641.7 189.136 641.7 188.408C641.7 187.68 641.77 187.022 641.91 186.434C642.05 185.846 642.255 185.347 642.526 184.936C642.797 184.525 643.133 184.213 643.534 183.998C643.935 183.774 644.397 183.662 644.92 183.662C645.443 183.662 645.905 183.774 646.306 183.998C646.707 184.213 647.043 184.525 647.314 184.936C647.585 185.347 647.79 185.846 647.93 186.434C648.07 187.022 648.14 187.68 648.14 188.408C648.14 189.136 648.07 189.794 647.93 190.382C647.79 190.97 647.585 191.469 647.314 191.88C647.043 192.291 646.707 192.608 646.306 192.832C645.905 193.047 645.443 193.154 644.92 193.154ZM644.92 192.132C646.292 192.132 646.978 190.891 646.978 188.408C646.978 185.925 646.292 184.684 644.92 184.684C643.548 184.684 642.862 185.925 642.862 188.408C642.862 190.891 643.548 192.132 644.92 192.132Z" fill="black"/>
    <defs>
    <clipPath id="clip0_1_8409">
    <rect x="41" y="80" width="16" height="70" rx="8" fill="white"/>
    </clipPath>
    <clipPath id="clip1_1_8409">
    <rect x="115" y="80" width="16" height="70" rx="8" fill="white"/>
    </clipPath>
    <clipPath id="clip2_1_8409">
    <rect x="189" y="80" width="16" height="70" rx="8" fill="white"/>
    </clipPath>
    <clipPath id="clip3_1_8409">
    <rect x="263" width="16" height="150" rx="8" fill="white"/>
    </clipPath>
    <clipPath id="clip4_1_8409">
    <rect x="337" width="16" height="150" rx="8" fill="white"/>
    </clipPath>
    <clipPath id="clip5_1_8409">
    <rect x="411" width="16" height="150" rx="8" fill="white"/>
    </clipPath>
    <clipPath id="clip6_1_8409">
    <rect x="485" width="16" height="150" rx="8" fill="white"/>
    </clipPath>
    <clipPath id="clip7_1_8409">
    <rect x="559" width="16" height="150" rx="8" fill="white"/>
    </clipPath>
    <clipPath id="clip8_1_8409">
    <rect x="633" width="16" height="150" rx="8" fill="white"/>
    </clipPath>
    </defs>
    </svg>
    