<svg id="구성_요소_8_430" data-name="구성 요소 8 – 430" xmlns="http://www.w3.org/2000/svg" width="14" height="14" viewBox="0 0 14 14">
  <g id="그룹_92" data-name="그룹 92">
    <rect id="사각형_154" data-name="사각형 154" width="14" height="14" fill="none"/>
    <g id="그룹_96" data-name="그룹 96" transform="translate(0.808 1.201)">
      <g id="그룹_21" data-name="그룹 21">
        <path id="패스_33" data-name="패스 33" d="M1.506,0h9.177a1.5,1.5,0,0,1,1.506,1.492V7.745a1.5,1.5,0,0,1-1.506,1.492H4.934L2.477,11.69a.361.361,0,0,1-.391.078.355.355,0,0,1-.222-.328v-2.2H1.506A1.5,1.5,0,0,1,0,7.745V1.492A1.5,1.5,0,0,1,1.506,0Zm9.177,8.527a.786.786,0,0,0,.789-.782V1.492a.786.786,0,0,0-.789-.782H1.506a.786.786,0,0,0-.789.782V7.745a.786.786,0,0,0,.789.782h.717a.357.357,0,0,1,.358.355v1.7l1.95-1.946a.36.36,0,0,1,.254-.1Z"/>
      </g>
    </g>
  </g>
</svg>
