<svg width="100" height="100" viewBox="0 0 100 100" fill="none" xmlns="http://www.w3.org/2000/svg">
<g id="cup2">
<path id="Vector" d="M37.1324 8C36.067 8 34.9558 8.35836 34.1401 9.17086C33.4908 9.82502 33.8696 9.64998 31.539 11.5166C27.4063 14.8291 25.5003 18.2292 24.9051 24.6667C20.8141 24.6667 12.5613 24.6667 12.1618 24.6667C9.86447 24.6667 8 26.5333 8 28.8333V57.4792C8 68.5708 14.1011 78.0833 22.4371 83H16.3235C14.0262 83 12.1618 84.8667 12.1618 87.1667C12.1618 89.4667 14.0262 91.3333 16.3235 91.3333H66.2647C68.562 91.3333 70.4265 89.4667 70.4265 87.1667C70.4265 84.8667 68.562 83 66.2647 83H60.0221C68.8076 77.8083 74.5883 68.1292 74.5883 58C83.7816 58 91.2353 50.5375 91.2353 41.3333C91.2353 32.1292 83.7816 24.6667 74.5883 24.6667C70.7844 24.6667 71.4669 24.6667 70.4265 24.6667C70.2975 24.6667 66.8932 24.6667 66.2647 24.6667C64.4336 24.6667 58.7236 24.6667 54.1706 24.6667C54.5368 21.4333 55.2277 19.7834 57.421 18.025C60.1303 15.8542 59.9513 16.1416 60.9335 15.1625C62.5566 13.5333 62.5566 10.8 60.9335 9.17086C60.1178 8.35836 59.0066 8 57.9412 8C56.8758 8 55.7646 8.35836 54.9489 9.17086C54.2997 9.82502 54.6784 9.64998 52.3478 11.5166C48.2443 14.8041 46.4422 18.3125 45.8471 24.6667C40.262 24.6667 38.6597 24.6667 33.3618 24.6667C33.7363 21.3917 34.3981 19.8 36.6121 18.025C39.3215 15.8542 39.1425 16.1416 40.1247 15.1625C41.7477 13.5333 41.7477 10.8 40.1247 9.17086C39.3089 8.35836 38.1978 8 37.1324 8ZM16.3235 33C23.8896 33 58.6986 33 66.2647 33V57.4792C66.2647 69.2458 56.6885 78.8333 44.9357 78.8333H37.6526C25.8998 78.8333 16.3235 69.2458 16.3235 57.4792V33ZM74.5883 33C79.187 33 82.9118 36.7292 82.9118 41.3333C82.9118 45.9375 79.187 49.6667 74.5883 49.6667V33Z" fill="black"/>
</g>
</svg>
