<svg width="20" height="20" viewBox="0 0 20 20" fill="none" xmlns="http://www.w3.org/2000/svg">
<g id="envelope-fill">
<path id="Vector" d="M4.9594 3.33203C3.26439 3.33203 1.93774 3.76036 1.70357 5.38952C1.62857 5.91119 1.79356 6.42453 2.17273 6.79537C2.36106 6.97953 2.56024 7.1987 2.82357 7.42037C3.4844 7.97787 4.32691 8.60453 5.11524 9.16536C7.28441 10.707 8.99691 11.6654 10.0111 11.6654C11.0252 11.6654 12.7378 10.707 14.9069 9.16536C15.6961 8.60453 16.5386 7.97703 17.1986 7.42037C17.4619 7.1987 17.6611 6.98037 17.8494 6.79537C18.2286 6.42453 18.3936 5.91119 18.3186 5.38952C18.0844 3.76036 16.7578 3.33203 15.0628 3.33203H4.9594ZM1.67773 8.46203V13.332C1.67773 15.1729 3.17024 16.6654 5.01107 16.6654H15.0111C16.8519 16.6654 18.3444 15.1729 18.3444 13.332V8.46203C17.6611 9.1112 16.8978 9.7812 15.8186 10.5454C13.4552 12.2187 11.3327 13.332 10.0111 13.332C8.68941 13.332 6.56691 12.2187 4.20358 10.5454C3.12357 9.7812 2.36107 9.1112 1.67773 8.46203Z" fill="#2A343D"/>
</g>
</svg>
