<svg width="100" height="100" viewBox="0 0 100 100" fill="none" xmlns="http://www.w3.org/2000/svg">
<g clip-path="url(#clip0_636_11113)">
<path d="M90 35V68.5C90 72.0804 88.5777 75.5142 86.0459 78.0459C83.5142 80.5777 80.0804 82 76.5 82H13.5C9.91958 82 6.4858 80.5777 3.95406 78.0459C1.42232 75.5142 0 72.0804 0 68.5V35H90ZM76.5 10C80.0804 10 83.5142 11.4223 86.0459 13.9541C88.5777 16.4858 90 19.9196 90 23.5V28H0V23.5C0 19.9196 1.42232 16.4858 3.95406 13.9541C6.4858 11.4223 9.91958 10 13.5 10H76.5Z" fill="#E5E5E5"/>
<g clip-path="url(#clip1_636_11113)">
<mask id="path-2-outside-1_636_11113" maskUnits="userSpaceOnUse" x="48.334" y="45.334" width="48" height="48" fill="black">
<rect fill="white" x="48.334" y="45.334" width="48" height="48"/>
<path d="M58.1581 55.1581C58.419 54.8969 58.7289 54.6896 59.0699 54.5482C59.411 54.4068 59.7766 54.334 60.1458 54.334C60.515 54.334 60.8806 54.4068 61.2217 54.5482C61.5628 54.6896 61.8726 54.8969 62.1335 55.1581L72.3344 65.3553L82.5353 55.1581C82.7963 54.8971 83.1062 54.6901 83.4473 54.5488C83.7883 54.4075 84.1538 54.3348 84.523 54.3348C84.8921 54.3348 85.2577 54.4075 85.5987 54.5488C85.9398 54.6901 86.2496 54.8971 86.5107 55.1581C86.7717 55.4192 86.9787 55.729 87.12 56.0701C87.2613 56.4111 87.334 56.7767 87.334 57.1458C87.334 57.515 87.2613 57.8805 87.12 58.2215C86.9787 58.5626 86.7717 58.8725 86.5107 59.1335L76.3135 69.3344L86.5107 79.5353C87.0378 80.0625 87.334 80.7775 87.334 81.523C87.334 82.2685 87.0378 82.9835 86.5107 83.5107C85.9835 84.0378 85.2685 84.334 84.523 84.334C83.7775 84.334 83.0625 84.0378 82.5353 83.5107L72.3344 73.3135L62.1335 83.5107C61.6063 84.0378 60.8913 84.334 60.1458 84.334C59.4003 84.334 58.6853 84.0378 58.1581 83.5107C57.631 82.9835 57.3348 82.2685 57.3348 81.523C57.3348 80.7775 57.631 80.0625 58.1581 79.5353L68.3553 69.3344L58.1581 59.1335C57.8969 58.8726 57.6896 58.5628 57.5482 58.2217C57.4068 57.8806 57.334 57.515 57.334 57.1458C57.334 56.7766 57.4068 56.411 57.5482 56.0699C57.6896 55.7289 57.8969 55.419 58.1581 55.1581Z"/>
</mask>
<path d="M58.1581 55.1581L64.5176 61.5266L64.5266 61.5176L58.1581 55.1581ZM60.1458 54.334V63.334V54.334ZM62.1335 55.1581L55.765 61.5176L55.7707 61.5233L62.1335 55.1581ZM72.3344 65.3553L65.9716 71.7204C69.4861 75.2336 75.1827 75.2336 78.6972 71.7204L72.3344 65.3553ZM82.5353 55.1581L88.8981 61.5233L88.8993 61.5221L82.5353 55.1581ZM84.523 54.3348V45.3348V54.3348ZM86.5107 59.1335L80.1467 52.7695L80.1455 52.7707L86.5107 59.1335ZM76.3135 69.3344L69.9484 62.9716C66.4352 66.4861 66.4352 72.1827 69.9484 75.6972L76.3135 69.3344ZM86.5107 79.5353L80.1455 85.8981L80.1467 85.8993L86.5107 79.5353ZM82.5353 83.5107L88.8993 77.1467L88.8981 77.1455L82.5353 83.5107ZM72.3344 73.3135L78.6972 66.9484C75.1827 63.4352 69.4861 63.4352 65.9716 66.9484L72.3344 73.3135ZM62.1335 83.5107L55.7707 77.1455L55.7695 77.1467L62.1335 83.5107ZM58.1581 79.5353L64.5221 85.8993L64.5233 85.8981L58.1581 79.5353ZM68.3553 69.3344L74.7204 75.6972C78.2336 72.1827 78.2336 66.4861 74.7204 62.9716L68.3553 69.3344ZM58.1581 59.1335L64.5233 52.7707L64.5176 52.765L58.1581 59.1335ZM64.5266 61.5176C63.9516 62.0934 63.2687 62.5502 62.517 62.8619L55.6228 46.2345C54.189 46.829 52.8864 47.7004 51.7896 48.7987L64.5266 61.5176ZM62.517 62.8619C61.7654 63.1736 60.9596 63.334 60.1458 63.334V45.334C58.5936 45.334 57.0566 45.64 55.6228 46.2345L62.517 62.8619ZM60.1458 63.334C59.332 63.334 58.5263 63.1736 57.7746 62.8619L64.6688 46.2345C63.235 45.64 61.698 45.334 60.1458 45.334V63.334ZM57.7746 62.8619C57.0229 62.5502 56.34 62.0934 55.765 61.5176L68.502 48.7987C67.4052 47.7004 66.1026 46.829 64.6688 46.2345L57.7746 62.8619ZM55.7707 61.5233L65.9716 71.7204L78.6972 58.9902L68.4963 48.793L55.7707 61.5233ZM78.6972 71.7204L88.8981 61.5233L76.1725 48.793L65.9716 58.9902L78.6972 71.7204ZM88.8993 61.5221C88.3246 62.0968 87.6423 62.5527 86.8914 62.8637L80.0031 46.2339C78.5701 46.8274 77.2681 47.6974 76.1713 48.7942L88.8993 61.5221ZM86.8914 62.8637C86.1405 63.1747 85.3357 63.3348 84.523 63.3348V45.3348C82.9719 45.3348 81.4361 45.6403 80.0031 46.2339L86.8914 62.8637ZM84.523 63.3348C83.7102 63.3348 82.9054 63.1747 82.1546 62.8637L89.0429 46.2339C87.6099 45.6403 86.074 45.3348 84.523 45.3348V63.3348ZM82.1546 62.8637C81.4037 62.5527 80.7214 62.0968 80.1467 61.5221L92.8746 48.7942C91.7779 47.6974 90.4758 46.8274 89.0429 46.2339L82.1546 62.8637ZM80.1467 61.5221C79.572 60.9474 79.1161 60.2651 78.8051 59.5142L95.4349 52.6259C94.8414 51.193 93.9714 49.8909 92.8746 48.7942L80.1467 61.5221ZM78.8051 59.5142C78.4941 58.7634 78.334 57.9586 78.334 57.1458L96.334 57.1458C96.334 55.5947 96.0285 54.0589 95.4349 52.6259L78.8051 59.5142ZM78.334 57.1458C78.334 56.333 78.4941 55.5282 78.8051 54.7774L95.4349 61.6657C96.0285 60.2327 96.334 58.6969 96.334 57.1458L78.334 57.1458ZM78.8051 54.7774C79.1161 54.0265 79.572 53.3442 80.1467 52.7695L92.8746 65.4975C93.9714 64.4007 94.8414 63.0987 95.4349 61.6657L78.8051 54.7774ZM80.1455 52.7707L69.9484 62.9716L82.6786 75.6972L92.8758 65.4963L80.1455 52.7707ZM69.9484 75.6972L80.1455 85.8981L92.8758 73.1725L82.6786 62.9716L69.9484 75.6972ZM80.1467 85.8993C78.9861 84.7386 78.334 83.1644 78.334 81.523H96.334C96.334 78.3905 95.0896 75.3863 92.8746 73.1713L80.1467 85.8993ZM78.334 81.523C78.334 79.8815 78.9861 78.3073 80.1467 77.1467L92.8746 89.8746C95.0896 87.6596 96.334 84.6555 96.334 81.523H78.334ZM80.1467 77.1467C81.3073 75.9861 82.8815 75.334 84.523 75.334V93.334C87.6555 93.334 90.6596 92.0896 92.8746 89.8746L80.1467 77.1467ZM84.523 75.334C86.1644 75.334 87.7386 75.9861 88.8993 77.1467L76.1713 89.8746C78.3863 92.0896 81.3905 93.334 84.523 93.334V75.334ZM88.8981 77.1455L78.6972 66.9484L65.9716 79.6786L76.1725 89.8758L88.8981 77.1455ZM65.9716 66.9484L55.7707 77.1455L68.4963 89.8758L78.6972 79.6786L65.9716 66.9484ZM55.7695 77.1467C56.9302 75.9861 58.5044 75.334 60.1458 75.334V93.334C63.2783 93.334 66.2825 92.0896 68.4975 89.8746L55.7695 77.1467ZM60.1458 75.334C61.7873 75.334 63.3615 75.9861 64.5221 77.1467L51.7942 89.8746C54.0092 92.0896 57.0133 93.334 60.1458 93.334V75.334ZM64.5221 77.1467C65.6828 78.3074 66.3348 79.8816 66.3348 81.523H48.3348C48.3348 84.6555 49.5792 87.6596 51.7942 89.8746L64.5221 77.1467ZM66.3348 81.523C66.3348 83.1644 65.6828 84.7386 64.5221 85.8993L51.7942 73.1713C49.5792 75.3863 48.3348 78.3905 48.3348 81.523H66.3348ZM64.5233 85.8981L74.7204 75.6972L61.9902 62.9716L51.793 73.1725L64.5233 85.8981ZM74.7204 62.9716L64.5233 52.7707L51.793 65.4963L61.9902 75.6972L74.7204 62.9716ZM64.5176 52.765C65.0934 53.34 65.5502 54.0229 65.8619 54.7746L49.2345 61.6688C49.829 63.1026 50.7004 64.4052 51.7987 65.502L64.5176 52.765ZM65.8619 54.7746C66.1736 55.5263 66.334 56.332 66.334 57.1458H48.334C48.334 58.698 48.64 60.235 49.2345 61.6688L65.8619 54.7746ZM66.334 57.1458C66.334 57.9596 66.1736 58.7654 65.8619 59.517L49.2345 52.6228C48.64 54.0566 48.334 55.5936 48.334 57.1458H66.334ZM65.8619 59.517C65.5502 60.2687 65.0934 60.9516 64.5176 61.5266L51.7987 48.7896C50.7004 49.8864 49.829 51.189 49.2345 52.6228L65.8619 59.517Z" fill="white" mask="url(#path-2-outside-1_636_11113)"/>
<path d="M58.6889 53.6264C58.2266 53.8181 57.8066 54.0989 57.453 54.453C57.0989 54.8066 56.8181 55.2266 56.6264 55.6889C56.4346 56.1514 56.3359 56.6471 56.3359 57.1478C56.3359 57.6484 56.4346 58.1442 56.6264 58.6067C56.8181 59.069 57.099 59.489 57.4531 59.8427C57.4533 59.8428 57.4534 59.8429 57.4535 59.8431L66.9433 69.3364L57.453 78.8302C56.7383 79.5449 56.3368 80.5142 56.3368 81.5249C56.3368 82.5357 56.7383 83.505 57.453 84.2197L58.1543 83.5184L57.453 84.2197C58.1677 84.9344 59.137 85.3359 60.1478 85.3359C61.1584 85.3359 62.1277 84.9345 62.8424 84.2199C62.8425 84.2198 62.8425 84.2198 62.8426 84.2197L72.3364 74.7294L81.8302 84.2197C82.5449 84.9344 83.5142 85.3359 84.5249 85.3359C85.5357 85.3359 86.505 84.9344 87.2197 84.2197C87.9344 83.505 88.3359 82.5357 88.3359 81.5249C88.3359 80.5142 87.9344 79.5449 87.2197 78.8302L77.7294 69.3364L87.2197 59.8425C87.2198 59.8425 87.2198 59.8425 87.2199 59.8424C87.5737 59.4886 87.8543 59.0685 88.0458 58.6062C88.2374 58.1438 88.3359 57.6482 88.3359 57.1478C88.3359 56.6473 88.2374 56.1517 88.0458 55.6894C87.8543 55.227 87.5736 54.8069 87.2197 54.453C86.8658 54.0991 86.4457 53.8184 85.9833 53.6269C85.521 53.4353 85.0254 53.3368 84.5249 53.3368C84.0245 53.3368 83.5289 53.4353 83.0665 53.6269C82.6042 53.8184 82.184 54.0991 81.8302 54.453L72.3364 63.9433L62.8431 54.4535C62.8429 54.4534 62.8428 54.4533 62.8427 54.4531C62.489 54.099 62.069 53.8181 61.6067 53.6264C61.1442 53.4346 60.6484 53.3359 60.1478 53.3359C59.6471 53.3359 59.1514 53.4346 58.6889 53.6264Z" fill="#5d7d2b" stroke="#5d7d2b" stroke-width="2" stroke-linejoin="round"/>
</g>
</g>
<defs>
<clipPath id="clip0_636_11113">
<rect width="100" height="100" fill="white"/>
</clipPath>
<clipPath id="clip1_636_11113">
<rect width="50" height="50" fill="white" transform="translate(49 46)"/>
</clipPath>
</defs>
</svg>
