<svg width="40" height="40" viewBox="0 0 40 40" fill="none" xmlns="http://www.w3.org/2000/svg">
<rect width="40" height="40" rx="10" fill="#F5F5F5"/>
<path fill-rule="evenodd" clip-rule="evenodd" d="M19.9743 10C17.4647 10 15.1784 10.829 13.8255 11.5062C13.7032 11.5674 13.5894 11.6274 13.4832 11.6851C13.2732 11.7996 13.0943 11.9063 12.9521 12.0002L14.4911 14.2659L15.2156 14.5543C18.0469 15.9827 21.8439 15.9827 24.6758 14.5543L25.4981 14.1276L26.9532 12.0002C26.6518 11.8035 26.3384 11.6259 26.0148 11.4685C24.6686 10.7984 22.4368 10 19.9749 10H19.9743ZM16.3951 12.5647C15.8502 12.4627 15.3119 12.3276 14.7833 12.1602C16.0507 11.5974 17.9392 11.0001 19.9743 11.0001C21.3839 11.0001 22.7168 11.2868 23.8191 11.6501C22.5273 11.8318 21.1489 12.1402 19.8354 12.5197C18.802 12.8186 17.5941 12.7863 16.3951 12.5647ZM25.2625 15.3782L25.1259 15.4471C22.0112 17.0184 17.8797 17.0184 14.765 15.4471L14.6355 15.3816C9.95627 20.5159 6.38375 30 19.9743 30C33.5649 30 29.9052 20.3386 25.2625 15.3782ZM19.3971 20.0008C19.1023 20.0008 18.8197 20.1179 18.6113 20.3263C18.4029 20.5347 18.2859 20.8173 18.2859 21.112C18.2859 21.4067 18.4029 21.6894 18.6113 21.8978C18.8197 22.1062 19.1023 22.2232 19.3971 22.2232V20.0008ZM20.5083 18.8896V18.334H19.3971V18.8896C18.8076 18.8896 18.2424 19.1238 17.8256 19.5406C17.4088 19.9573 17.1746 20.5226 17.1746 21.112C17.1746 21.7015 17.4088 22.2667 17.8256 22.6835C18.2424 23.1003 18.8076 23.3344 19.3971 23.3344V25.5569C18.9137 25.5569 18.502 25.2485 18.3486 24.8162C18.3259 24.7455 18.2892 24.6801 18.2407 24.6238C18.1922 24.5675 18.1329 24.5215 18.0664 24.4885C17.9998 24.4556 17.9273 24.4363 17.8531 24.4318C17.779 24.4273 17.7047 24.4378 17.6346 24.4625C17.5646 24.4873 17.5002 24.5258 17.4453 24.5759C17.3904 24.6259 17.3462 24.6865 17.3151 24.754C17.284 24.8215 17.2668 24.8945 17.2644 24.9687C17.262 25.043 17.2746 25.1169 17.3013 25.1863C17.4546 25.6196 17.7384 25.9948 18.1137 26.2602C18.489 26.5256 18.9374 26.668 19.3971 26.6681V27.2237H20.5083V26.6681C21.0977 26.6681 21.663 26.4339 22.0797 26.0171C22.4965 25.6003 22.7307 25.0351 22.7307 24.4456C22.7307 23.8562 22.4965 23.291 22.0797 22.8742C21.663 22.4574 21.0977 22.2232 20.5083 22.2232V20.0008C20.9916 20.0008 21.4033 20.3092 21.5567 20.7415C21.5794 20.8122 21.6161 20.8776 21.6646 20.9339C21.7131 20.9902 21.7724 21.0362 21.8389 21.0692C21.9055 21.1021 21.978 21.1214 22.0522 21.1259C22.1263 21.1304 22.2006 21.1199 22.2707 21.0952C22.3407 21.0704 22.4051 21.0319 22.46 20.9818C22.5149 20.9317 22.5592 20.8712 22.5902 20.8037C22.6213 20.7362 22.6385 20.6632 22.6409 20.589C22.6433 20.5147 22.6307 20.4407 22.604 20.3714C22.4507 19.9381 22.1669 19.5629 21.7916 19.2975C21.4163 19.0321 20.9679 18.8896 20.5083 18.8896ZM20.5083 23.3344V25.5569C20.803 25.5569 21.0856 25.4398 21.294 25.2314C21.5024 25.023 21.6195 24.7404 21.6195 24.4456C21.6195 24.1509 21.5024 23.8683 21.294 23.6599C21.0856 23.4515 20.803 23.3344 20.5083 23.3344Z" fill="#999999"/>
</svg>
