<svg width="40" height="40" viewBox="0 0 40 40" fill="none" xmlns="http://www.w3.org/2000/svg">
<rect width="40" height="40" rx="10" fill="#F5F5F5"/>
<path d="M12.999 11.9062C11.342 11.9062 9.99902 13.2493 9.99902 14.9062V24.9062C9.99902 26.9062 10.999 27.9062 12.999 27.9062H26.999C28.999 27.9062 29.999 26.9062 29.999 24.9062V16.9062C29.999 16.354 29.551 15.9062 28.999 15.9062H27.999V12.9062C27.999 12.354 27.551 11.9062 26.999 11.9062H12.999ZM12.999 13.9062H25.999V15.9062H12.999C12.447 15.9062 11.999 15.4585 11.999 14.9062C11.999 14.354 12.447 13.9062 12.999 13.9062ZM24.999 19.9062C25.551 19.9062 25.999 20.354 25.999 20.9062C25.999 21.4585 25.551 21.9062 24.999 21.9062C24.447 21.9062 23.999 21.4585 23.999 20.9062C23.999 20.354 24.447 19.9062 24.999 19.9062Z" fill="#999999"/>
</svg>
