<svg width="40" height="40" viewBox="0 0 40 40" fill="none" xmlns="http://www.w3.org/2000/svg">
<rect width="40" height="40" rx="10" fill="#F5F5F5"/>
<path d="M20 23.9213C22.1677 23.9499 24.3134 23.4845 26.2746 22.5607C26.3069 22.5453 26.3348 22.5223 26.356 22.4936C26.3771 22.4648 26.3909 22.4313 26.396 22.396C26.6072 19.1548 25.85 15.9239 24.2206 13.114C22.912 10.8173 21.3693 9.5 20 9.5C18.6306 9.5 17.088 10.8173 15.7793 13.1227C14.1565 15.932 13.3997 19.1581 13.604 22.396C13.6091 22.4313 13.6228 22.4648 13.644 22.4936C13.6651 22.5223 13.6931 22.5453 13.7253 22.5607C15.6865 23.4845 17.8323 23.9499 20 23.9213ZM19.064 16.728L21.4126 17.5947C21.7223 17.7455 21.98 17.9851 22.1529 18.283C22.3258 18.581 22.406 18.9236 22.3833 19.2673C22.3857 19.6972 22.2282 20.1126 21.9416 20.4329C21.6549 20.7532 21.2594 20.9555 20.832 21.0007C20.7822 21.0087 20.7367 21.0339 20.7035 21.0719C20.6703 21.1099 20.6513 21.1582 20.65 21.2087V21.6333C20.65 21.8057 20.5815 21.9711 20.4596 22.093C20.3377 22.2149 20.1724 22.2833 20 22.2833C19.8276 22.2833 19.6622 22.2149 19.5403 22.093C19.4184 21.9711 19.35 21.8057 19.35 21.6333V21.2C19.35 21.1425 19.3271 21.0874 19.2865 21.0468C19.2459 21.0062 19.1908 20.9833 19.1333 20.9833H18.2666C18.0942 20.9833 17.9289 20.9149 17.807 20.793C17.6851 20.6711 17.6166 20.5057 17.6166 20.3333C17.6166 20.1609 17.6851 19.9956 17.807 19.8737C17.9289 19.7518 18.0942 19.6833 18.2666 19.6833H20.4333C20.8666 19.6833 21.0833 19.536 21.0833 19.2413C21.0905 19.1588 21.0811 19.0757 21.0558 18.9969C21.0305 18.918 20.9898 18.845 20.936 18.782L18.5873 17.9153C18.2819 17.7662 18.027 17.5307 17.8545 17.2379C17.6819 16.9451 17.5992 16.6081 17.6166 16.2687C17.6271 15.8426 17.789 15.4341 18.0733 15.1165C18.3576 14.7989 18.7456 14.5929 19.168 14.5353C19.2178 14.5273 19.2632 14.5021 19.2964 14.4641C19.3297 14.4261 19.3486 14.3778 19.35 14.3273V13.8333C19.35 13.6609 19.4184 13.4956 19.5403 13.3737C19.6622 13.2518 19.8276 13.1833 20 13.1833C20.1724 13.1833 20.3377 13.2518 20.4596 13.3737C20.5815 13.4956 20.65 13.6609 20.65 13.8333V14.2667C20.65 14.3241 20.6728 14.3792 20.7134 14.4199C20.7541 14.4605 20.8092 14.4833 20.8666 14.4833H21.7333C21.9057 14.4833 22.071 14.5518 22.1929 14.6737C22.3148 14.7956 22.3833 14.9609 22.3833 15.1333C22.3833 15.3057 22.3148 15.4711 22.1929 15.593C22.071 15.7149 21.9057 15.7833 21.7333 15.7833H19.5666C19.2113 15.7833 18.9166 15.9913 18.9166 16.234C18.9046 16.3221 18.9115 16.4117 18.9369 16.4969C18.9623 16.5821 19.0056 16.6609 19.064 16.728Z" fill="#697279"/>
<path d="M29.2387 22.5953C29.1355 22.5604 29.0253 22.5516 28.9179 22.5698C28.8105 22.5879 28.7093 22.6324 28.6233 22.6993C26.1002 24.4643 23.0783 25.3754 20 25.2993C16.9217 25.3754 13.8998 24.4643 11.3767 22.6993C11.2907 22.6324 11.1895 22.5879 11.0821 22.5698C10.9747 22.5516 10.8645 22.5604 10.7613 22.5953C10.66 22.6325 10.5692 22.6937 10.4968 22.7737C10.4243 22.8537 10.3724 22.9501 10.3453 23.0546C10.2848 23.3103 10.2528 23.5719 10.25 23.8346C10.25 27.6999 14.1673 30.2999 20 30.2999C25.8327 30.2999 29.75 27.6999 29.75 23.8346C29.7472 23.5719 29.7152 23.3103 29.6547 23.0546C29.6276 22.9501 29.5757 22.8537 29.5032 22.7737C29.4308 22.6937 29.34 22.6325 29.2387 22.5953Z" fill="#697279"/>
</svg>
