<svg width="100" height="100" viewBox="0 0 100 100" fill="none" xmlns="http://www.w3.org/2000/svg">
<g id="mingcute:bank-card-fill" clip-path="url(#clip0_837_11808)">
<path id="Vector" d="M50.9012 29.775L87.5251 43.1051C89.9534 43.9889 91.9743 45.6827 93.1432 47.8138C94.312 49.9449 94.5332 52.3388 93.7579 54.4689L87.9116 70.5314C87.1363 72.6614 85.4282 74.3531 83.1629 75.2343C80.8976 76.1155 78.2608 76.114 75.8325 75.2302L71.2545 73.5639L65.4082 89.6265C65.0206 90.6915 64.1665 91.5374 63.0338 91.978C61.9012 92.4186 60.5828 92.4178 59.3686 91.9759L50.2126 88.6434C48.9985 88.2015 47.988 87.3546 47.4036 86.289C46.8192 85.2235 46.7086 84.0265 47.0962 82.9615L52.9425 66.8989L39.2086 61.9002L10.4723 69.6315L33.8575 5.38122L50.9012 29.775ZM1.56395 30.0082C-0.935341 36.875 1.19409 44.6988 7.16263 50.2364L18.8552 18.1113C10.7547 18.5737 4.04863 23.1816 1.56395 30.0082Z" fill="#E5E5E5"/>
<g id="Group 2657">
<path id="Subtract" d="M74.7794 47.0839L74.7807 47.0825L96.7116 22.4523C97.4835 21.6181 98.0846 20.6389 98.4769 19.5688C98.8763 18.4796 99.0504 17.3208 98.9874 16.1614C98.9245 15.002 98.6261 13.8691 98.1122 12.8299C97.5983 11.7908 96.8804 10.8682 96.0042 10.1141C95.1282 9.36005 94.1114 8.7893 93.015 8.43199C91.9188 8.07471 90.7626 7.93717 89.6138 8.02638C88.465 8.11559 87.3435 8.43002 86.3151 8.95349C85.3038 9.46831 84.401 10.176 83.6604 11.0393L67.0269 29.7223L60.9024 25.2084L58.7099 28.1833L60.9024 25.2084C59.9875 24.5341 58.9501 24.0461 57.8503 23.7692C56.7505 23.4923 55.607 23.4312 54.4842 23.5888C53.3614 23.7464 52.2782 24.1202 51.2965 24.6914C50.3148 25.2626 49.4524 26.021 48.7614 26.9264C48.0703 27.832 47.5646 28.8663 47.2766 29.9711C46.9885 31.076 46.9246 32.2269 47.0889 33.3573C47.2532 34.4875 47.6421 35.5718 48.2304 36.5483C48.8187 37.5246 49.5941 38.3729 50.5091 39.0473L63.0579 48.296L63.059 48.2968C64.8139 49.5893 66.9893 50.1761 69.1513 49.954C71.3138 49.7318 73.3263 48.7142 74.7794 47.0839Z" fill="white" stroke="white" stroke-width="8"/>
<path id="Subtract_2" d="M94.7214 18.1919C94.5085 18.7725 94.1795 19.3055 93.7537 19.7592L71.7933 44.4225C71.0118 45.2993 69.9222 45.8537 68.7426 45.9749C67.5629 46.0961 66.3802 45.7751 65.4311 45.076L52.8823 35.8273C52.3879 35.463 51.9714 35.0065 51.6566 34.4839C51.3417 33.9614 51.1347 33.383 51.0473 32.7818C50.9599 32.1806 50.9939 31.5684 51.1472 30.9802C51.3006 30.3919 51.5704 29.8391 51.9412 29.3532C52.3119 28.8674 52.7765 28.4581 53.3082 28.1487C53.84 27.8393 54.4285 27.6358 55.0403 27.55C55.6521 27.4641 56.275 27.4975 56.8737 27.6482C57.4723 27.7989 58.0349 28.064 58.5293 28.4284L67.5895 35.1059L86.6761 13.6674C87.0778 13.1929 87.572 12.8021 88.1297 12.5182C88.6874 12.2343 89.2974 12.063 89.9235 12.0144C90.5497 11.9657 91.1794 12.0408 91.7756 12.2351C92.3717 12.4294 92.9223 12.739 93.3948 13.1457C93.8673 13.5524 94.2521 14.0479 94.5267 14.6031C94.8012 15.1582 94.9599 15.7617 94.9933 16.3781C95.0268 16.9945 94.9343 17.6112 94.7214 18.1919Z" fill="#5d7d2b"/>
</g>
</g>
<defs>
<clipPath id="clip0_837_11808">
<rect width="100" height="100" fill="white"/>
</clipPath>
</defs>
</svg>
