<svg width="134" height="67" viewBox="0 0 134 67" fill="none" xmlns="http://www.w3.org/2000/svg">
    <g clip-path="url(#clip0_1_1661)">
    <rect y="1" width="16" height="16" rx="8" fill="white"/>
    <line x1="-6.35355" y1="2.9316" x2="21.9307" y2="-25.3527" stroke="#CCCCCC"/>
    <line x1="-6.35355" y1="9.9316" x2="21.9307" y2="-18.3527" stroke="#CCCCCC"/>
    <line x1="-6.35355" y1="16.9316" x2="21.9307" y2="-11.3527" stroke="#CCCCCC"/>
    <line x1="-6.35355" y1="23.9316" x2="21.9307" y2="-4.35267" stroke="#CCCCCC"/>
    <line x1="-6.35355" y1="30.9316" x2="21.9307" y2="2.64733" stroke="#CCCCCC"/>
    <line x1="-6.35355" y1="37.9316" x2="21.9307" y2="9.64733" stroke="#CCCCCC"/>
    <line x1="-6.35355" y1="44.9316" x2="21.9307" y2="16.6473" stroke="#CCCCCC"/>
    </g>
    <rect x="0.5" y="1.5" width="15" height="15" rx="7.5" stroke="#CCCCCC"/>
    <path d="M0 9H16V9C16 13.4183 12.4183 17 8 17V17C3.58172 17 0 13.4183 0 9V9Z" fill="#00AAD2"/>
    <path d="M27.5657 7.092C27.4817 6.896 27.4024 6.70467 27.3277 6.518C27.2624 6.322 27.2017 6.14467 27.1457 5.986C27.0897 5.82733 27.043 5.692 27.0057 5.58C26.9684 5.45867 26.945 5.37 26.9357 5.314H26.8937C26.903 5.36067 26.9077 5.44933 26.9077 5.58C26.917 5.70133 26.9217 5.85067 26.9217 6.028C26.931 6.196 26.9357 6.38267 26.9357 6.588C26.945 6.79333 26.9497 6.99867 26.9497 7.204V13H25.7877V3.48H27.2717L30.0437 10.382C30.1464 10.634 30.235 10.8767 30.3097 11.11C30.3937 11.334 30.4357 11.4973 30.4357 11.6H30.4777C30.4777 11.4973 30.515 11.334 30.5897 11.11C30.6644 10.8767 30.753 10.634 30.8557 10.382L33.6277 3.48H35.1117V13H33.9497V7.204C33.9497 6.99867 33.9497 6.79333 33.9497 6.588C33.959 6.38267 33.9637 6.196 33.9637 6.028C33.973 5.85067 33.9777 5.70133 33.9777 5.58C33.987 5.44933 33.9964 5.36067 34.0057 5.314H33.9637C33.9544 5.37 33.931 5.45867 33.8937 5.58C33.8564 5.692 33.8097 5.82733 33.7537 5.986C33.6977 6.14467 33.6324 6.322 33.5577 6.518C33.4924 6.70467 33.4177 6.896 33.3337 7.092L30.9957 13H29.9037L27.5657 7.092ZM40.4086 12.16C41.0526 12.16 41.566 11.9313 41.9486 11.474C42.3313 11.0073 42.5226 10.3587 42.5226 9.528C42.5226 8.69733 42.3313 8.05333 41.9486 7.596C41.566 7.12933 41.0526 6.896 40.4086 6.896C39.7646 6.896 39.2513 7.12933 38.8686 7.596C38.486 8.05333 38.2946 8.69733 38.2946 9.528C38.2946 10.3587 38.486 11.0073 38.8686 11.474C39.2513 11.9313 39.7646 12.16 40.4086 12.16ZM40.4086 5.902C40.9033 5.902 41.3513 5.99067 41.7526 6.168C42.1633 6.34533 42.5086 6.59267 42.7886 6.91C43.078 7.22733 43.2973 7.61 43.4466 8.058C43.6053 8.506 43.6846 8.996 43.6846 9.528C43.6846 10.06 43.6053 10.55 43.4466 10.998C43.2973 11.446 43.078 11.8287 42.7886 12.146C42.5086 12.4633 42.1633 12.7107 41.7526 12.888C41.3513 13.0653 40.9033 13.154 40.4086 13.154C39.914 13.154 39.4613 13.0653 39.0506 12.888C38.6493 12.7107 38.304 12.4633 38.0146 12.146C37.7346 11.8287 37.5153 11.446 37.3566 10.998C37.2073 10.55 37.1326 10.06 37.1326 9.528C37.1326 8.996 37.2073 8.506 37.3566 8.058C37.5153 7.61 37.7346 7.22733 38.0146 6.91C38.304 6.59267 38.6493 6.34533 39.0506 6.168C39.4613 5.99067 39.914 5.902 40.4086 5.902ZM45.5376 6.056H46.6156V7.008C46.709 6.868 46.8256 6.73267 46.9656 6.602C47.1056 6.47133 47.2643 6.35467 47.4416 6.252C47.6283 6.14933 47.829 6.06533 48.0436 6C48.2583 5.93467 48.487 5.902 48.7296 5.902C49.5416 5.902 50.1623 6.14467 50.5916 6.63C51.0303 7.11533 51.2496 7.79667 51.2496 8.674V13H50.1296V8.786C50.1296 8.16067 49.9803 7.68933 49.6816 7.372C49.3923 7.05467 48.9816 6.896 48.4496 6.896C47.9736 6.896 47.5816 7.022 47.2736 7.274C46.9656 7.526 46.7603 7.81533 46.6576 8.142V13H45.5376V6.056ZM56.059 13.056C55.3403 13.056 54.799 12.8787 54.435 12.524C54.071 12.16 53.889 11.5813 53.889 10.788V7.008H52.643V6.056H53.903V4.25H55.009V6.056H56.563V7.008H55.009V10.788C55.009 11.264 55.1163 11.5953 55.331 11.782C55.5456 11.9687 55.891 12.062 56.367 12.062H56.563V13.014C56.423 13.042 56.255 13.056 56.059 13.056ZM58.2525 3.06H59.3725V6.938C59.5592 6.67667 59.8345 6.43867 60.1985 6.224C60.5625 6.00933 60.9778 5.902 61.4445 5.902C62.2565 5.902 62.8772 6.14467 63.3065 6.63C63.7452 7.11533 63.9645 7.79667 63.9645 8.674V13H62.8445V8.786C62.8445 8.16067 62.6952 7.68933 62.3965 7.372C62.1072 7.05467 61.6965 6.896 61.1645 6.896C60.6885 6.896 60.2965 7.022 59.9885 7.274C59.6805 7.526 59.4752 7.81533 59.3725 8.142V13H58.2525V3.06ZM67.3022 3.06V13H66.1822V3.06H67.3022ZM71.5181 12.3L68.8301 6.056H70.0341L71.6301 10.032C71.7328 10.2933 71.8215 10.5407 71.8961 10.774C71.9801 11.0073 72.0221 11.1753 72.0221 11.278H72.0641C72.1015 11.0913 72.1481 10.9047 72.2041 10.718C72.2601 10.522 72.3395 10.2933 72.4421 10.032L73.9261 6.056H75.1441L71.3081 15.632H70.0901L71.5181 12.3ZM79.9224 6.056H81.0004V7.05C81.2524 6.69533 81.5697 6.41533 81.9524 6.21C82.3444 6.00467 82.7644 5.902 83.2124 5.902C83.6697 5.902 84.0851 5.99067 84.4584 6.168C84.8317 6.34533 85.1491 6.59267 85.4104 6.91C85.6811 7.22733 85.8864 7.61 86.0264 8.058C86.1664 8.506 86.2364 8.996 86.2364 9.528C86.2364 10.06 86.1664 10.55 86.0264 10.998C85.8864 11.446 85.6811 11.8287 85.4104 12.146C85.1491 12.4633 84.8317 12.7107 84.4584 12.888C84.0851 13.0653 83.6697 13.154 83.2124 13.154C82.7737 13.154 82.3631 13.056 81.9804 12.86C81.6071 12.664 81.2944 12.4027 81.0424 12.076V15.632H79.9224V6.056ZM82.9744 12.16C83.6371 12.16 84.1504 11.9267 84.5144 11.46C84.8877 10.9933 85.0744 10.3493 85.0744 9.528C85.0744 8.70667 84.8877 8.06267 84.5144 7.596C84.1504 7.12933 83.6371 6.896 82.9744 6.896C82.5357 6.896 82.1437 7.01267 81.7984 7.246C81.4531 7.47933 81.2011 7.78267 81.0424 8.156V10.914C81.2011 11.2873 81.4531 11.5907 81.7984 11.824C82.1437 12.048 82.5357 12.16 82.9744 12.16ZM90.1282 13.154C89.7362 13.154 89.3815 13.0933 89.0642 12.972C88.7469 12.8507 88.4762 12.6873 88.2522 12.482C88.0375 12.2767 87.8695 12.0387 87.7482 11.768C87.6269 11.488 87.5662 11.1893 87.5662 10.872C87.5662 10.5547 87.6269 10.2607 87.7482 9.99C87.8695 9.71 88.0375 9.46733 88.2522 9.262C88.4762 9.05667 88.7469 8.89333 89.0642 8.772C89.3815 8.65067 89.7362 8.59 90.1282 8.59C90.4922 8.59 90.8422 8.66 91.1782 8.8C91.5142 8.93067 91.8082 9.13133 92.0602 9.402V8.702C92.0602 8.198 91.9202 7.77333 91.6402 7.428C91.3695 7.07333 90.9449 6.896 90.3662 6.896C89.9555 6.896 89.6242 6.966 89.3722 7.106C89.1202 7.246 88.8682 7.43733 88.6162 7.68L87.9722 6.952C88.0935 6.82133 88.2289 6.69533 88.3782 6.574C88.5369 6.44333 88.7142 6.33133 88.9102 6.238C89.1062 6.13533 89.3255 6.056 89.5682 6C89.8109 5.93467 90.0862 5.902 90.3942 5.902C90.8515 5.902 91.2529 5.96733 91.5982 6.098C91.9435 6.22867 92.2329 6.41533 92.4662 6.658C92.6995 6.89133 92.8769 7.176 92.9982 7.512C93.1195 7.848 93.1802 8.21667 93.1802 8.618V13H92.1022V12.314C91.8409 12.594 91.5375 12.804 91.1922 12.944C90.8562 13.084 90.5015 13.154 90.1282 13.154ZM90.2822 12.216C90.5995 12.216 90.9262 12.1507 91.2622 12.02C91.6075 11.8893 91.8735 11.6653 92.0602 11.348V10.396C91.8735 10.088 91.6075 9.86867 91.2622 9.738C90.9262 9.598 90.5995 9.528 90.2822 9.528C90.0022 9.528 89.7595 9.57 89.5542 9.654C89.3582 9.72867 89.1949 9.83133 89.0642 9.962C88.9429 10.0927 88.8495 10.2373 88.7842 10.396C88.7282 10.5547 88.7002 10.7133 88.7002 10.872C88.7002 11.0307 88.7282 11.1893 88.7842 11.348C88.8495 11.5067 88.9429 11.6513 89.0642 11.782C89.1949 11.9127 89.3582 12.02 89.5542 12.104C89.7595 12.1787 90.0022 12.216 90.2822 12.216ZM97.0846 12.3L94.3966 6.056H95.6006L97.1966 10.032C97.2992 10.2933 97.3879 10.5407 97.4626 10.774C97.5466 11.0073 97.5886 11.1753 97.5886 11.278H97.6306C97.6679 11.0913 97.7146 10.9047 97.7706 10.718C97.8266 10.522 97.9059 10.2933 98.0086 10.032L99.4926 6.056H100.711L96.8746 15.632H95.6566L97.0846 12.3ZM102.194 6.056H103.272V7.008C103.365 6.868 103.482 6.73267 103.622 6.602C103.762 6.47133 103.921 6.35467 104.098 6.252C104.285 6.14933 104.485 6.06533 104.7 6C104.915 5.93467 105.143 5.902 105.386 5.902C105.899 5.902 106.333 6.00933 106.688 6.224C107.052 6.42933 107.327 6.73267 107.514 7.134C107.598 6.98467 107.715 6.84 107.864 6.7C108.013 6.55067 108.186 6.42 108.382 6.308C108.578 6.18667 108.797 6.08867 109.04 6.014C109.283 5.93933 109.539 5.902 109.81 5.902C110.613 5.902 111.229 6.14467 111.658 6.63C112.087 7.106 112.302 7.778 112.302 8.646V13H111.182V8.758C111.182 8.142 111.042 7.68 110.762 7.372C110.491 7.05467 110.104 6.896 109.6 6.896C109.124 6.896 108.732 7.022 108.424 7.274C108.116 7.526 107.911 7.81533 107.808 8.142V13H106.688V8.758C106.688 8.142 106.548 7.68 106.268 7.372C105.997 7.05467 105.61 6.896 105.106 6.896C104.63 6.896 104.238 7.022 103.93 7.274C103.622 7.526 103.417 7.81533 103.314 8.142V13H102.194V6.056ZM117.27 13.154C116.776 13.154 116.332 13.07 115.94 12.902C115.548 12.734 115.212 12.4913 114.932 12.174C114.662 11.8567 114.452 11.4787 114.302 11.04C114.153 10.592 114.078 10.088 114.078 9.528C114.078 8.97733 114.153 8.478 114.302 8.03C114.452 7.582 114.662 7.204 114.932 6.896C115.212 6.57867 115.544 6.336 115.926 6.168C116.318 5.99067 116.752 5.902 117.228 5.902C117.695 5.902 118.115 5.99067 118.488 6.168C118.862 6.336 119.179 6.574 119.44 6.882C119.702 7.18067 119.902 7.54 120.042 7.96C120.182 8.38 120.252 8.83733 120.252 9.332C120.252 9.528 120.238 9.71 120.21 9.878H115.254C115.301 10.606 115.506 11.1707 115.87 11.572C116.234 11.964 116.724 12.16 117.34 12.16C117.77 12.16 118.152 12.0713 118.488 11.894C118.824 11.7167 119.095 11.4647 119.3 11.138L120.056 11.768C119.795 12.16 119.436 12.4913 118.978 12.762C118.53 13.0233 117.961 13.154 117.27 13.154ZM117.228 6.896C116.696 6.896 116.258 7.07333 115.912 7.428C115.567 7.77333 115.352 8.27267 115.268 8.926H119.076C119.039 8.30067 118.852 7.806 118.516 7.442C118.19 7.078 117.76 6.896 117.228 6.896ZM122.045 6.056H123.123V7.008C123.217 6.868 123.333 6.73267 123.473 6.602C123.613 6.47133 123.772 6.35467 123.949 6.252C124.136 6.14933 124.337 6.06533 124.551 6C124.766 5.93467 124.995 5.902 125.237 5.902C126.049 5.902 126.67 6.14467 127.099 6.63C127.538 7.11533 127.757 7.79667 127.757 8.674V13H126.637V8.786C126.637 8.16067 126.488 7.68933 126.189 7.372C125.9 7.05467 125.489 6.896 124.957 6.896C124.481 6.896 124.089 7.022 123.781 7.274C123.473 7.526 123.268 7.81533 123.165 8.142V13H122.045V6.056ZM132.567 13.056C131.848 13.056 131.307 12.8787 130.943 12.524C130.579 12.16 130.397 11.5813 130.397 10.788V7.008H129.151V6.056H130.411V4.25H131.517V6.056H133.071V7.008H131.517V10.788C131.517 11.264 131.624 11.5953 131.839 11.782C132.053 11.9687 132.399 12.062 132.875 12.062H133.071V13.014C132.931 13.042 132.763 13.056 132.567 13.056Z" fill="black"/>
    <g clip-path="url(#clip1_1_1661)">
    <rect y="26" width="16" height="16" rx="8" fill="white"/>
    <line x1="-6.35355" y1="27.9316" x2="21.9307" y2="-0.352668" stroke="#E5E5E5"/>
    <line x1="-6.35355" y1="34.9316" x2="21.9307" y2="6.64733" stroke="#E5E5E5"/>
    <line x1="-6.35355" y1="41.9316" x2="21.9307" y2="13.6473" stroke="#E5E5E5"/>
    <line x1="-6.35355" y1="48.9316" x2="21.9307" y2="20.6473" stroke="#E5E5E5"/>
    <line x1="-6.35355" y1="55.9316" x2="21.9307" y2="27.6473" stroke="#E5E5E5"/>
    <line x1="-6.35355" y1="62.9316" x2="21.9307" y2="34.6473" stroke="#E5E5E5"/>
    <line x1="-6.35355" y1="69.9316" x2="21.9307" y2="41.6473" stroke="#E5E5E5"/>
    </g>
    <rect x="0.5" y="26.5" width="15" height="15" rx="7.5" stroke="#E5E5E5"/>
    <path d="M0 34C0 29.5817 3.58172 26 8 26V26C12.4183 26 16 29.5817 16 34V34C16 38.4183 12.4183 42 8 42V42C3.58172 42 0 38.4183 0 34V34Z" fill="#00AAD2"/>
    <path d="M31.6274 31.294C31.6274 32.1993 31.3567 32.8947 30.8154 33.38C30.2834 33.8653 29.5414 34.108 28.5894 34.108H26.5874V38H25.4254V28.48H28.5894C29.5414 28.48 30.2834 28.7227 30.8154 29.208C31.3567 29.6933 31.6274 30.3887 31.6274 31.294ZM30.4234 31.294C30.4234 30.706 30.2601 30.258 29.9334 29.95C29.6067 29.6327 29.1121 29.474 28.4494 29.474H26.5874V33.114H28.4494C29.1121 33.114 29.6067 32.96 29.9334 32.652C30.2601 32.3347 30.4234 31.882 30.4234 31.294ZM33.2945 31.056H34.3725V32.302C34.5592 31.9193 34.8252 31.5927 35.1705 31.322C35.5158 31.042 35.9358 30.902 36.4305 30.902C36.4772 30.902 36.5238 30.902 36.5705 30.902C36.6265 30.902 36.6778 30.9113 36.7245 30.93V32.064H36.3465C35.8798 32.064 35.4832 32.19 35.1565 32.442C34.8298 32.694 34.5825 33.086 34.4145 33.618V38H33.2945V31.056ZM39.3227 31.056V38H38.2027V31.056H39.3227ZM39.4627 28.06V29.46H38.0627V28.06H39.4627ZM41.6207 31.056H42.6987V32.008C42.792 31.868 42.9087 31.7327 43.0487 31.602C43.1887 31.4713 43.3473 31.3547 43.5247 31.252C43.7113 31.1493 43.912 31.0653 44.1267 31C44.3413 30.9347 44.57 30.902 44.8127 30.902C45.6247 30.902 46.2453 31.1447 46.6747 31.63C47.1133 32.1153 47.3327 32.7967 47.3327 33.674V38H46.2127V33.786C46.2127 33.1607 46.0633 32.6893 45.7647 32.372C45.4753 32.0547 45.0647 31.896 44.5327 31.896C44.0567 31.896 43.6647 32.022 43.3567 32.274C43.0487 32.526 42.8433 32.8153 42.7407 33.142V38H41.6207V31.056ZM49.1163 34.528C49.1163 33.996 49.1863 33.506 49.3263 33.058C49.4757 32.61 49.6857 32.2273 49.9563 31.91C50.2363 31.5927 50.5723 31.3453 50.9643 31.168C51.3657 30.9907 51.8183 30.902 52.3223 30.902C52.985 30.902 53.5637 31.07 54.0583 31.406C54.553 31.7327 54.8983 32.176 55.0943 32.736L54.2123 33.184C54.0537 32.764 53.811 32.4467 53.4843 32.232C53.1577 32.008 52.7703 31.896 52.3223 31.896C51.697 31.896 51.1977 32.1293 50.8243 32.596C50.4603 33.0533 50.2783 33.6973 50.2783 34.528C50.2783 35.3587 50.4603 36.0073 50.8243 36.474C51.1977 36.9313 51.697 37.16 52.3223 37.16C52.7703 37.16 53.1577 37.0527 53.4843 36.838C53.811 36.614 54.0537 36.292 54.2123 35.872L55.0943 36.32C54.8983 36.88 54.553 37.328 54.0583 37.664C53.5637 37.9907 52.985 38.154 52.3223 38.154C51.8183 38.154 51.3657 38.0653 50.9643 37.888C50.5723 37.7107 50.2363 37.4633 49.9563 37.146C49.6857 36.8287 49.4757 36.446 49.3263 35.998C49.1863 35.55 49.1163 35.06 49.1163 34.528ZM57.9301 31.056V38H56.8101V31.056H57.9301ZM58.0701 28.06V29.46H56.6701V28.06H58.0701ZM60.2281 31.056H61.3061V32.05C61.5581 31.6953 61.8754 31.4153 62.2581 31.21C62.6501 31.0047 63.0701 30.902 63.5181 30.902C63.9754 30.902 64.3907 30.9907 64.7641 31.168C65.1374 31.3453 65.4547 31.5927 65.7161 31.91C65.9867 32.2273 66.1921 32.61 66.3321 33.058C66.4721 33.506 66.5421 33.996 66.5421 34.528C66.5421 35.06 66.4721 35.55 66.3321 35.998C66.1921 36.446 65.9867 36.8287 65.7161 37.146C65.4547 37.4633 65.1374 37.7107 64.7641 37.888C64.3907 38.0653 63.9754 38.154 63.5181 38.154C63.0794 38.154 62.6687 38.056 62.2861 37.86C61.9127 37.664 61.6001 37.4027 61.3481 37.076V40.632H60.2281V31.056ZM63.2801 37.16C63.9427 37.16 64.4561 36.9267 64.8201 36.46C65.1934 35.9933 65.3801 35.3493 65.3801 34.528C65.3801 33.7067 65.1934 33.0627 64.8201 32.596C64.4561 32.1293 63.9427 31.896 63.2801 31.896C62.8414 31.896 62.4494 32.0127 62.1041 32.246C61.7587 32.4793 61.5067 32.7827 61.3481 33.156V35.914C61.5067 36.2873 61.7587 36.5907 62.1041 36.824C62.4494 37.048 62.8414 37.16 63.2801 37.16ZM70.4339 38.154C70.0419 38.154 69.6872 38.0933 69.3699 37.972C69.0525 37.8507 68.7819 37.6873 68.5579 37.482C68.3432 37.2767 68.1752 37.0387 68.0539 36.768C67.9325 36.488 67.8719 36.1893 67.8719 35.872C67.8719 35.5547 67.9325 35.2607 68.0539 34.99C68.1752 34.71 68.3432 34.4673 68.5579 34.262C68.7819 34.0567 69.0525 33.8933 69.3699 33.772C69.6872 33.6507 70.0419 33.59 70.4339 33.59C70.7979 33.59 71.1479 33.66 71.4839 33.8C71.8199 33.9307 72.1139 34.1313 72.3659 34.402V33.702C72.3659 33.198 72.2259 32.7733 71.9459 32.428C71.6752 32.0733 71.2505 31.896 70.6719 31.896C70.2612 31.896 69.9299 31.966 69.6779 32.106C69.4259 32.246 69.1739 32.4373 68.9219 32.68L68.2779 31.952C68.3992 31.8213 68.5345 31.6953 68.6839 31.574C68.8425 31.4433 69.0199 31.3313 69.2159 31.238C69.4119 31.1353 69.6312 31.056 69.8739 31C70.1165 30.9347 70.3919 30.902 70.6999 30.902C71.1572 30.902 71.5585 30.9673 71.9039 31.098C72.2492 31.2287 72.5385 31.4153 72.7719 31.658C73.0052 31.8913 73.1825 32.176 73.3039 32.512C73.4252 32.848 73.4859 33.2167 73.4859 33.618V38H72.4079V37.314C72.1465 37.594 71.8432 37.804 71.4979 37.944C71.1619 38.084 70.8072 38.154 70.4339 38.154ZM70.5879 37.216C70.9052 37.216 71.2319 37.1507 71.5679 37.02C71.9132 36.8893 72.1792 36.6653 72.3659 36.348V35.396C72.1792 35.088 71.9132 34.8687 71.5679 34.738C71.2319 34.598 70.9052 34.528 70.5879 34.528C70.3079 34.528 70.0652 34.57 69.8599 34.654C69.6639 34.7287 69.5005 34.8313 69.3699 34.962C69.2485 35.0927 69.1552 35.2373 69.0899 35.396C69.0339 35.5547 69.0059 35.7133 69.0059 35.872C69.0059 36.0307 69.0339 36.1893 69.0899 36.348C69.1552 36.5067 69.2485 36.6513 69.3699 36.782C69.5005 36.9127 69.6639 37.02 69.8599 37.104C70.0652 37.1787 70.3079 37.216 70.5879 37.216ZM76.8246 28.06V38H75.7046V28.06H76.8246Z" fill="black"/>
    <g clip-path="url(#clip2_1_1661)">
    <rect y="51" width="16" height="16" rx="8" fill="white"/>
    <line x1="-6.35355" y1="52.9316" x2="21.9307" y2="24.6473" stroke="#CCCCCC"/>
    <line x1="-6.35355" y1="59.9316" x2="21.9307" y2="31.6473" stroke="#CCCCCC"/>
    <line x1="-6.35355" y1="66.9316" x2="21.9307" y2="38.6473" stroke="#CCCCCC"/>
    <line x1="-6.35355" y1="73.9316" x2="21.9307" y2="45.6473" stroke="#CCCCCC"/>
    <line x1="-6.35355" y1="80.9316" x2="21.9307" y2="52.6473" stroke="#CCCCCC"/>
    <line x1="-6.35355" y1="87.9316" x2="21.9307" y2="59.6473" stroke="#CCCCCC"/>
    <line x1="-6.35355" y1="94.9316" x2="21.9307" y2="66.6473" stroke="#CCCCCC"/>
    </g>
    <rect x="0.5" y="51.5" width="15" height="15" rx="7.5" stroke="#CCCCCC"/>
    <path d="M25.6793 53.48H26.8413V63H25.6793V53.48ZM29.3921 56.056H30.4701V57.008C30.5635 56.868 30.6801 56.7327 30.8201 56.602C30.9601 56.4713 31.1188 56.3547 31.2961 56.252C31.4828 56.1493 31.6835 56.0653 31.8981 56C32.1128 55.9347 32.3415 55.902 32.5841 55.902C33.3961 55.902 34.0168 56.1447 34.4461 56.63C34.8848 57.1153 35.1041 57.7967 35.1041 58.674V63H33.9841V58.786C33.9841 58.1607 33.8348 57.6893 33.5361 57.372C33.2468 57.0547 32.8361 56.896 32.3041 56.896C31.8281 56.896 31.4361 57.022 31.1281 57.274C30.8201 57.526 30.6148 57.8153 30.5121 58.142V63H29.3921V56.056ZM39.9135 63.056C39.1948 63.056 38.6535 62.8787 38.2895 62.524C37.9255 62.16 37.7435 61.5813 37.7435 60.788V57.008H36.4975V56.056H37.7575V54.25H38.8635V56.056H40.4175V57.008H38.8635V60.788C38.8635 61.264 38.9708 61.5953 39.1855 61.782C39.4001 61.9687 39.7455 62.062 40.2215 62.062H40.4175V63.014C40.2775 63.042 40.1095 63.056 39.9135 63.056ZM44.783 63.154C44.2883 63.154 43.845 63.07 43.453 62.902C43.061 62.734 42.725 62.4913 42.445 62.174C42.1743 61.8567 41.9643 61.4787 41.815 61.04C41.6656 60.592 41.591 60.088 41.591 59.528C41.591 58.9773 41.6656 58.478 41.815 58.03C41.9643 57.582 42.1743 57.204 42.445 56.896C42.725 56.5787 43.0563 56.336 43.439 56.168C43.831 55.9907 44.265 55.902 44.741 55.902C45.2076 55.902 45.6276 55.9907 46.001 56.168C46.3743 56.336 46.6916 56.574 46.953 56.882C47.2143 57.1807 47.415 57.54 47.555 57.96C47.695 58.38 47.765 58.8373 47.765 59.332C47.765 59.528 47.751 59.71 47.723 59.878H42.767C42.8136 60.606 43.019 61.1707 43.383 61.572C43.747 61.964 44.237 62.16 44.853 62.16C45.2823 62.16 45.665 62.0713 46.001 61.894C46.337 61.7167 46.6076 61.4647 46.813 61.138L47.569 61.768C47.3076 62.16 46.9483 62.4913 46.491 62.762C46.043 63.0233 45.4736 63.154 44.783 63.154ZM44.741 56.896C44.209 56.896 43.7703 57.0733 43.425 57.428C43.0796 57.7733 42.865 58.2727 42.781 58.926H46.589C46.5516 58.3007 46.365 57.806 46.029 57.442C45.7023 57.078 45.273 56.896 44.741 56.896ZM49.5582 56.056H50.6362V57.302C50.8228 56.9193 51.0888 56.5927 51.4342 56.322C51.7795 56.042 52.1995 55.902 52.6942 55.902C52.7408 55.902 52.7875 55.902 52.8342 55.902C52.8902 55.902 52.9415 55.9113 52.9882 55.93V57.064H52.6102C52.1435 57.064 51.7468 57.19 51.4202 57.442C51.0935 57.694 50.8462 58.086 50.6782 58.618V63H49.5582V56.056ZM57.0193 63.154C56.5246 63.154 56.0813 63.07 55.6893 62.902C55.2973 62.734 54.9613 62.4913 54.6813 62.174C54.4106 61.8567 54.2006 61.4787 54.0513 61.04C53.9019 60.592 53.8273 60.088 53.8273 59.528C53.8273 58.9773 53.9019 58.478 54.0513 58.03C54.2006 57.582 54.4106 57.204 54.6813 56.896C54.9613 56.5787 55.2926 56.336 55.6753 56.168C56.0673 55.9907 56.5013 55.902 56.9773 55.902C57.4439 55.902 57.8639 55.9907 58.2373 56.168C58.6106 56.336 58.9279 56.574 59.1893 56.882C59.4506 57.1807 59.6513 57.54 59.7913 57.96C59.9313 58.38 60.0013 58.8373 60.0013 59.332C60.0013 59.528 59.9873 59.71 59.9593 59.878H55.0033C55.0499 60.606 55.2553 61.1707 55.6193 61.572C55.9833 61.964 56.4733 62.16 57.0893 62.16C57.5186 62.16 57.9013 62.0713 58.2373 61.894C58.5733 61.7167 58.8439 61.4647 59.0493 61.138L59.8053 61.768C59.5439 62.16 59.1846 62.4913 58.7273 62.762C58.2793 63.0233 57.7099 63.154 57.0193 63.154ZM56.9773 56.896C56.4453 56.896 56.0066 57.0733 55.6613 57.428C55.3159 57.7733 55.1013 58.2727 55.0173 58.926H58.8253C58.7879 58.3007 58.6013 57.806 58.2653 57.442C57.9386 57.078 57.5093 56.896 56.9773 56.896ZM65.3225 57.666C65.1172 57.3767 64.8885 57.1713 64.6365 57.05C64.3845 56.9193 64.1092 56.854 63.8105 56.854C63.4652 56.854 63.2038 56.952 63.0265 57.148C62.8492 57.3347 62.7605 57.554 62.7605 57.806C62.7605 58.31 63.0592 58.6273 63.6565 58.758L64.2445 58.884C64.9072 59.024 65.4205 59.2573 65.7845 59.584C66.1578 59.9013 66.3445 60.368 66.3445 60.984C66.3445 61.264 66.2838 61.5347 66.1625 61.796C66.0505 62.0573 65.8825 62.2907 65.6585 62.496C65.4345 62.692 65.1592 62.8507 64.8325 62.972C64.5058 63.0933 64.1372 63.154 63.7265 63.154C63.4185 63.154 63.1338 63.112 62.8725 63.028C62.6112 62.9533 62.3685 62.8507 62.1445 62.72C61.9298 62.5893 61.7338 62.4353 61.5565 62.258C61.3792 62.0807 61.2298 61.8987 61.1085 61.712L61.8365 61.04C62.0418 61.348 62.3032 61.6187 62.6205 61.852C62.9378 62.0853 63.3158 62.202 63.7545 62.202C64.2025 62.202 64.5572 62.0993 64.8185 61.894C65.0798 61.6887 65.2105 61.4087 65.2105 61.054C65.2105 60.7273 65.0938 60.48 64.8605 60.312C64.6272 60.144 64.3145 60.018 63.9225 59.934L63.3345 59.808C62.7838 59.6867 62.3592 59.4673 62.0605 59.15C61.7712 58.8327 61.6265 58.422 61.6265 57.918C61.6265 57.6567 61.6732 57.4047 61.7665 57.162C61.8692 56.91 62.0138 56.6953 62.2005 56.518C62.3872 56.3313 62.6205 56.182 62.9005 56.07C63.1805 55.958 63.4978 55.902 63.8525 55.902C64.3378 55.902 64.7672 56.0047 65.1405 56.21C65.5138 56.4153 65.8172 56.6907 66.0505 57.036L65.3225 57.666ZM70.6752 63.056C69.9565 63.056 69.4152 62.8787 69.0512 62.524C68.6872 62.16 68.5052 61.5813 68.5052 60.788V57.008H67.2592V56.056H68.5192V54.25H69.6252V56.056H71.1792V57.008H69.6252V60.788C69.6252 61.264 69.7325 61.5953 69.9472 61.782C70.1619 61.9687 70.5072 62.062 70.9832 62.062H71.1792V63.014C71.0392 63.042 70.8712 63.056 70.6752 63.056Z" fill="black"/>
    <defs>
    <clipPath id="clip0_1_1661">
    <rect y="1" width="16" height="16" rx="8" fill="white"/>
    </clipPath>
    <clipPath id="clip1_1_1661">
    <rect y="26" width="16" height="16" rx="8" fill="white"/>
    </clipPath>
    <clipPath id="clip2_1_1661">
    <rect y="51" width="16" height="16" rx="8" fill="white"/>
    </clipPath>
    </defs>
    </svg>
    