<svg width="20" height="20" viewBox="0 0 20 20" fill="none" xmlns="http://www.w3.org/2000/svg">
<g id="Printer">
<g id="printer--scan-device-electronics-printer-print-computer">
<path id="Vector" d="M14.0385 14.6154H16.3462C16.6522 14.6154 16.9457 14.4938 17.162 14.2774C17.3784 14.061 17.5 13.7676 17.5 13.4615V8.26923C17.5 7.96321 17.3784 7.66973 17.162 7.45334C16.9457 7.23695 16.6522 7.11539 16.3462 7.11539H3.65385C3.34783 7.11539 3.05434 7.23695 2.83795 7.45334C2.62157 7.66973 2.5 7.96321 2.5 8.26923V13.4615C2.5 13.7676 2.62157 14.061 2.83795 14.2774C3.05434 14.4938 3.34783 14.6154 3.65385 14.6154H5.96154" stroke="black" stroke-linecap="round" stroke-linejoin="round"/>
<path id="Vector_2" d="M5.96167 12.8846V16.9231C5.96167 17.0761 6.02245 17.2228 6.13065 17.331C6.23884 17.4392 6.38558 17.5 6.53859 17.5H13.4617C13.6147 17.5 13.7614 17.4392 13.8696 17.331C13.9778 17.2228 14.0386 17.0761 14.0386 16.9231V12.8846H5.96167Z" stroke="black" stroke-linecap="round" stroke-linejoin="round"/>
<path id="Vector_3" d="M14.0386 7.11538V3.07692C14.0386 2.92391 13.9778 2.77717 13.8696 2.66898C13.7614 2.56078 13.6147 2.5 13.4617 2.5H6.53859C6.38558 2.5 6.23884 2.56078 6.13065 2.66898C6.02245 2.77717 5.96167 2.92391 5.96167 3.07692V7.11538" stroke="black" stroke-linecap="round" stroke-linejoin="round"/>
<path id="Vector_4" d="M14.6155 10H13.4617" stroke="black" stroke-linecap="round" stroke-linejoin="round"/>
</g>
</g>
</svg>
