<svg width="16" height="16" viewBox="0 0 16 16" fill="none" xmlns="http://www.w3.org/2000/svg">
<g id="help">
<path id="Subtract" fill-rule="evenodd" clip-rule="evenodd" d="M15.5 8C15.5 12.1421 12.1421 15.5 8 15.5C3.85786 15.5 0.5 12.1421 0.5 8C0.5 3.85786 3.85786 0.5 8 0.5C12.1421 0.5 15.5 3.85786 15.5 8ZM8 4.8125C7.48223 4.8125 7.0625 5.23223 7.0625 5.75C7.0625 6.06066 6.81066 6.3125 6.5 6.3125C6.18934 6.3125 5.9375 6.06066 5.9375 5.75C5.9375 4.61091 6.86091 3.6875 8 3.6875C9.13909 3.6875 10.0625 4.61091 10.0625 5.75C10.0625 6.15975 9.94243 6.54318 9.73536 6.86497C9.60567 7.06653 9.45404 7.25896 9.31422 7.43272L9.23881 7.52619C9.1228 7.66978 9.01631 7.80158 8.9179 7.93683C8.67522 8.27037 8.5625 8.52102 8.5625 8.75V9.125C8.5625 9.43566 8.31066 9.6875 8 9.6875C7.68934 9.6875 7.4375 9.43566 7.4375 9.125V8.75C7.4375 8.15055 7.73181 7.65483 8.00822 7.27494C8.12501 7.11442 8.253 6.9561 8.36938 6.81215L8.43773 6.72747C8.57662 6.55485 8.69486 6.40299 8.7893 6.25621C8.88305 6.11051 8.9375 5.93747 8.9375 5.75C8.9375 5.23223 8.51777 4.8125 8 4.8125ZM8.5625 11C8.5625 10.6893 8.31066 10.4375 8 10.4375C7.68934 10.4375 7.4375 10.6893 7.4375 11V11.75C7.4375 12.0607 7.68934 12.3125 8 12.3125C8.31066 12.3125 8.5625 12.0607 8.5625 11.75V11Z" fill="#444444"/>
</g>
</svg>
