<svg width="14" height="14" viewBox="0 0 14 14" fill="none" xmlns="http://www.w3.org/2000/svg">
<rect width="14" height="14" fill="#252525"/>
<g clip-path="url(#clip0_0_1)">
<rect width="1920" height="1295" transform="translate(-1532 -411)" fill="white"/>
<mask id="path-1-inside-1_0_1" fill="white">
<path d="M-907 -411H388V2093H-907V-411Z"/>
</mask>
<path d="M-907 -411H388V2093H-907V-411Z" fill="white"/>
<path d="M-906 2093V-411H-908V2093H-906Z" fill="#E5E5E5" mask="url(#path-1-inside-1_0_1)"/>
<rect x="-838.5" y="-99.5" width="909" height="242" rx="3.5" fill="white"/>
<g clip-path="url(#clip1_0_1)">
<path d="M9 0.5L11.5 3L9 5.5" stroke="black" stroke-linecap="round" stroke-linejoin="round"/>
<path d="M0.5 6V4C0.5 3.73478 0.605357 3.48043 0.792893 3.29289C0.98043 3.10536 1.23478 3 1.5 3H11.5" stroke="black" stroke-linecap="round" stroke-linejoin="round"/>
<path d="M5 13.5L2.5 11L5 8.5" stroke="black" stroke-linecap="round" stroke-linejoin="round"/>
<path d="M13.5 8V10C13.5 10.2652 13.3946 10.5196 13.2071 10.7071C13.0196 10.8946 12.7652 11 12.5 11H2.5" stroke="black" stroke-linecap="round" stroke-linejoin="round"/>
</g>
<rect x="-4.5" y="-4.5" width="23" height="23" rx="3.5" stroke="black"/>
<rect x="-838.5" y="-99.5" width="909" height="242" rx="3.5" stroke="#E5E5E5"/>
</g>
<defs>
<clipPath id="clip0_0_1">
<rect width="1920" height="1295" fill="white" transform="translate(-1532 -411)"/>
</clipPath>
<clipPath id="clip1_0_1">
<rect width="14" height="14" fill="white"/>
</clipPath>
</defs>
</svg>
