<svg width="36" height="36" viewBox="0 0 36 36" fill="none" xmlns="http://www.w3.org/2000/svg">
    <rect width="36" height="36" rx="18" fill="white"/>
    <path d="M17.39 16.3901L13.5 20.2771L9.61 16.3901C8.84107 15.6208 8.3175 14.6408 8.10549 13.574C7.89349 12.5072 8.00255 11.4014 8.41891 10.3966C8.83527 9.39175 9.54022 8.53292 10.4446 7.92869C11.349 7.32446 12.4123 7.00195 13.5 7.00195C14.5877 7.00195 15.651 7.32446 16.5554 7.92869C17.4598 8.53292 18.1647 9.39175 18.5811 10.3966C18.9975 11.4014 19.1065 12.5072 18.8945 13.574C18.6825 14.6408 18.1589 15.6208 17.39 16.3901ZM13.5 14.5001C14.0304 14.5001 14.5391 14.2894 14.9142 13.9143C15.2893 13.5393 15.5 13.0306 15.5 12.5001C15.5 11.9697 15.2893 11.461 14.9142 11.0859C14.5391 10.7108 14.0304 10.5001 13.5 10.5001C12.9696 10.5001 12.4609 10.7108 12.0858 11.0859C11.7107 11.461 11.5 11.9697 11.5 12.5001C11.5 13.0306 11.7107 13.5393 12.0858 13.9143C12.4609 14.2894 12.9696 14.5001 13.5 14.5001ZM26.39 25.3901L22.5 29.2781L18.61 25.3891C17.8411 24.6198 17.3175 23.6398 17.1055 22.573C16.8935 21.5062 17.0026 20.4004 17.4189 19.3956C17.8353 18.3908 18.5402 17.5319 19.4446 16.9277C20.349 16.3235 21.4123 16.001 22.5 16.001C23.5877 16.001 24.651 16.3235 25.5554 16.9277C26.4598 17.5319 27.1647 18.3908 27.5811 19.3956C27.9974 20.4004 28.1065 21.5062 27.8945 22.573C27.6825 23.6398 27.1589 24.6208 26.39 25.3901ZM22.5 23.5001C23.0304 23.5001 23.5391 23.2894 23.9142 22.9143C24.2893 22.5393 24.5 22.0306 24.5 21.5001C24.5 20.9697 24.2893 20.461 23.9142 20.0859C23.5391 19.7108 23.0304 19.5001 22.5 19.5001C21.9696 19.5001 21.4609 19.7108 21.0858 20.0859C20.7107 20.461 20.5 20.9697 20.5 21.5001C20.5 22.0306 20.7107 22.5393 21.0858 22.9143C21.4609 23.2894 21.9696 23.5001 22.5 23.5001Z" fill="#999999"/>
    </svg>
    