<svg width="36" height="36" viewBox="0 0 36 36" fill="none" xmlns="http://www.w3.org/2000/svg">
    <rect width="36" height="36" rx="18" fill="white"/>
    <g clip-path="url(#clip0_506_18846)">
    <path d="M22.25 18.5H18.25C18.0511 18.5 17.8603 18.421 17.7197 18.2803C17.579 18.1397 17.5 17.9489 17.5 17.75V11.75C17.5 11.5511 17.579 11.3603 17.7197 11.2197C17.8603 11.079 18.0511 11 18.25 11C18.4489 11 18.6397 11.079 18.7803 11.2197C18.921 11.3603 19 11.5511 19 11.75V17H22.25C22.4489 17 22.6397 17.079 22.7803 17.2197C22.921 17.3603 23 17.5511 23 17.75C23 17.9489 22.921 18.1397 22.7803 18.2803C22.6397 18.421 22.4489 18.5 22.25 18.5ZM19 7C13.478 7 9 11.478 9 17C9 17.334 9.016 17.665 9.049 17.991C10.2957 17.2093 11.7707 16.8737 13.2329 17.0391C14.695 17.2046 16.0578 17.8612 17.0983 18.9017C18.1388 19.9422 18.7954 21.305 18.9609 22.7671C19.1263 24.2293 18.7907 25.7043 18.009 26.951C18.335 26.984 18.666 27 19 27C24.522 27 29 22.522 29 17C29 11.478 24.522 7 19 7ZM18 23.5C18 24.2223 17.8577 24.9375 17.5813 25.6048C17.3049 26.2721 16.8998 26.8784 16.3891 27.3891C15.8784 27.8998 15.272 28.3049 14.6048 28.5813C13.9375 28.8577 13.2223 29 12.5 29C11.7777 29 11.0625 28.8577 10.3952 28.5813C9.72795 28.3049 9.12163 27.8998 8.61091 27.3891C8.10019 26.8784 7.69506 26.2721 7.41866 25.6048C7.14226 24.9375 7 24.2223 7 23.5C7 22.0413 7.57946 20.6424 8.61091 19.6109C9.64236 18.5795 11.0413 18 12.5 18C13.9587 18 15.3576 18.5795 16.3891 19.6109C17.4205 20.6424 18 22.0413 18 23.5ZM10.5 26.5C10.6326 26.5 10.7598 26.4473 10.8536 26.3536C10.9473 26.2598 11 26.1326 11 26V21C11 20.8674 10.9473 20.7402 10.8536 20.6464C10.7598 20.5527 10.6326 20.5 10.5 20.5C10.3674 20.5 10.2402 20.5527 10.1464 20.6464C10.0527 20.7402 10 20.8674 10 21V26C10 26.1326 10.0527 26.2598 10.1464 26.3536C10.2402 26.4473 10.3674 26.5 10.5 26.5ZM14.5 26.5C14.6326 26.5 14.7598 26.4473 14.8536 26.3536C14.9473 26.2598 15 26.1326 15 26V21C15 20.8674 14.9473 20.7402 14.8536 20.6464C14.7598 20.5527 14.6326 20.5 14.5 20.5C14.3674 20.5 14.2402 20.5527 14.1464 20.6464C14.0527 20.7402 14 20.8674 14 21V26C14 26.1326 14.0527 26.2598 14.1464 26.3536C14.2402 26.4473 14.3674 26.5 14.5 26.5Z" fill="#999999"/>
    </g>
    <defs>
    <clipPath id="clip0_506_18846">
    <rect width="24" height="24" fill="white" transform="translate(6 6)"/>
    </clipPath>
    </defs>
    </svg>
    