<svg width="36" height="36" viewBox="0 0 36 36" fill="none" xmlns="http://www.w3.org/2000/svg">
    <rect width="36" height="36" rx="18" fill="white"/>
    <path d="M10 10C9.46957 10 8.96086 10.2107 8.58579 10.5858C8.21071 10.9609 8 11.4696 8 12V16C8.53043 16 9.03914 16.2107 9.41421 16.5858C9.78929 16.9609 10 17.4696 10 18C10 18.5304 9.78929 19.0391 9.41421 19.4142C9.03914 19.7893 8.53043 20 8 20V24C8 24.5304 8.21071 25.0391 8.58579 25.4142C8.96086 25.7893 9.46957 26 10 26H26C26.5304 26 27.0391 25.7893 27.4142 25.4142C27.7893 25.0391 28 24.5304 28 24V20C27.4696 20 26.9609 19.7893 26.5858 19.4142C26.2107 19.0391 26 18.5304 26 18C26 17.4696 26.2107 16.9609 26.5858 16.5858C26.9609 16.2107 27.4696 16 28 16V12C28 11.4696 27.7893 10.9609 27.4142 10.5858C27.0391 10.2107 26.5304 10 26 10H10ZM21.5 13L23 14.5L14.5 23L13 21.5L21.5 13ZM14.81 13.04C15.79 13.04 16.58 13.83 16.58 14.81C16.58 15.2794 16.3935 15.7296 16.0616 16.0616C15.7296 16.3935 15.2794 16.58 14.81 16.58C13.83 16.58 13.04 15.79 13.04 14.81C13.04 14.3406 13.2265 13.8904 13.5584 13.5584C13.8904 13.2265 14.3406 13.04 14.81 13.04ZM21.19 19.42C22.17 19.42 22.96 20.21 22.96 21.19C22.96 21.6594 22.7735 22.1096 22.4416 22.4416C22.1096 22.7735 21.6594 22.96 21.19 22.96C20.21 22.96 19.42 22.17 19.42 21.19C19.42 20.7206 19.6065 20.2704 19.9384 19.9384C20.2704 19.6065 20.7206 19.42 21.19 19.42Z" fill="#999999"/>
    </svg>
    