<svg width="90" height="90" viewBox="0 0 90 90" fill="none" xmlns="http://www.w3.org/2000/svg">
    <path d="M54.5985 25.0011C57.1215 25.0011 59.4635 26.2686 60.8466 28.3525L61.1102 28.78L66.0938 37.5011H69C69.4832 37.5011 69.8864 37.8439 69.9797 38.2996L70 38.5011V39.6895C70 40.5156 69.4942 41.2462 68.7438 41.5462L68.4258 41.6446C69.3624 43.5895 69.7799 45.745 69.636 47.9006L69.5673 48.6189L67.7545 63.1214C67.4582 65.4917 65.5336 67.3017 63.1877 67.4857L62.793 67.5011H60C57.364 67.5011 55.2046 65.4615 55.0137 62.8743L55 62.5011H35C35 65.1371 32.9603 67.2965 30.3732 67.4874L30 67.5011H27.207C24.8181 67.5011 22.7833 65.8158 22.3098 63.511L22.2456 63.1214L20.4327 48.6189C20.1636 46.4658 20.4605 44.2895 21.2813 42.3004L21.5742 41.6446L21.5149 41.6298C20.7136 41.4296 20.1276 40.7616 20.0184 39.9609L20 39.6895V38.5011C20 38.0179 20.3428 37.6147 20.7985 37.5214L21 37.5011H23.9063L28.8898 28.78C30.1416 26.5893 32.404 25.1849 34.8996 25.0179L35.4016 25.0011H54.5985ZM64.398 45.0898C63.1643 46.4366 61.4298 47.3516 59.398 47.4844L58.884 47.5011H31.1159C28.8628 47.5011 26.9386 46.5488 25.6019 45.0898C25.3961 45.8424 25.3082 46.6253 25.344 47.4101L25.3942 47.9986L27.207 62.5011H30V60.0011C30 58.719 30.9651 57.6623 32.2084 57.5179L32.5 57.5011H57.5C58.7821 57.5011 59.8388 58.4662 59.9832 59.7095L60 60.0011V62.5011H62.793L64.6058 47.9986C64.7283 47.0186 64.6555 46.0306 64.398 45.0898ZM29.3439 49.7469L36.2006 53.4494C37.1331 53.9531 36.7445 55.3709 35.6855 55.3286L29.9001 55.0971C28.5593 55.0434 27.5 53.9409 27.5 52.5991V50.8466C27.5 49.9001 28.5111 49.2971 29.3439 49.7469ZM62.5 50.8466V52.5991C62.5 53.9409 61.4408 55.0434 60.1 55.0971L54.3145 55.3286C53.2555 55.3709 52.8668 53.9531 53.7995 53.4494L60.656 49.7469C61.489 49.2971 62.5 49.9001 62.5 50.8466ZM54.5985 30.0011H35.4016C34.5045 30.0011 33.6761 30.4818 33.231 31.2607L28.9453 38.7608C27.9939 40.4274 29.1967 42.5011 31.1159 42.5011H58.884C60.8038 42.5011 62.007 40.4274 61.0547 38.7608L56.769 31.2607C56.324 30.4818 55.4955 30.0011 54.5985 30.0011Z" fill="#000"/>
    <rect x="0.5" y="0.5" width="89" height="89" rx="3.5" stroke="#E5E5E5"/>
    </svg>
    