<svg width="49" height="48" viewBox="0 0 49 48" fill="none" xmlns="http://www.w3.org/2000/svg">
    <rect x="0.666504" width="48" height="48" rx="24" fill="white"/>
    <g clip-path="url(#clip0_27_2567)">
    <path d="M28.833 14H20.4997C18.2022 14 16.333 15.8692 16.333 18.1667V29.8333C16.333 32.1308 18.2022 34 20.4997 34H28.833C31.1305 34 32.9997 32.1308 32.9997 29.8333V18.1667C32.9997 15.8692 31.1305 14 28.833 14ZM20.9163 17.75C21.6063 17.75 22.1663 18.31 22.1663 19C22.1663 19.69 21.6063 20.25 20.9163 20.25C20.2263 20.25 19.6663 19.69 19.6663 19C19.6663 18.31 20.2263 17.75 20.9163 17.75ZM20.9163 30.25C20.2263 30.25 19.6663 29.69 19.6663 29C19.6663 28.31 20.2263 27.75 20.9163 27.75C21.6063 27.75 22.1663 28.31 22.1663 29C22.1663 29.69 21.6063 30.25 20.9163 30.25ZM22.0538 25.2675C21.788 25.5333 21.4363 25.6667 21.083 25.6667C20.7272 25.6667 20.3705 25.5317 20.098 25.2608L19.5305 24.715C19.1988 24.3967 19.188 23.8683 19.5072 23.5367C19.8263 23.2042 20.3547 23.195 20.6855 23.5133L21.0788 23.8917L22.6338 22.3792C22.9638 22.0583 23.4913 22.065 23.8122 22.3958C24.133 22.7258 24.1255 23.2533 23.7955 23.5742L22.053 25.2692L22.0538 25.2675ZM28.833 29.8333H24.6663C24.2063 29.8333 23.833 29.46 23.833 29C23.833 28.54 24.2063 28.1667 24.6663 28.1667H28.833C29.293 28.1667 29.6663 28.54 29.6663 29C29.6663 29.46 29.293 29.8333 28.833 29.8333ZM28.833 24.8333H26.333C25.873 24.8333 25.4997 24.46 25.4997 24C25.4997 23.54 25.873 23.1667 26.333 23.1667H28.833C29.293 23.1667 29.6663 23.54 29.6663 24C29.6663 24.46 29.293 24.8333 28.833 24.8333ZM28.833 19.8333H24.6663C24.2063 19.8333 23.833 19.46 23.833 19C23.833 18.54 24.2063 18.1667 24.6663 18.1667H28.833C29.293 18.1667 29.6663 18.54 29.6663 19C29.6663 19.46 29.293 19.8333 28.833 19.8333Z" fill="#999999"/>
    </g>
    <defs>
    <clipPath id="clip0_27_2567">
    <rect width="20" height="20" fill="white" transform="translate(14.6665 14)"/>
    </clipPath>
    </defs>
    </svg>
    