<svg width="49" height="48" viewBox="0 0 49 48" fill="none" xmlns="http://www.w3.org/2000/svg">
    <rect x="0.666016" width="48" height="48" rx="24" fill="white"/>
    <g clip-path="url(#clip0_6_152457)">
    <path fill-rule="evenodd" clip-rule="evenodd" d="M15.5447 16.8787C16.1073 16.3161 16.8704 16 17.666 16H31.666C32.4617 16 33.2247 16.3161 33.7873 16.8787C34.3499 17.4413 34.666 18.2044 34.666 19V20H14.666V19C14.666 18.2044 14.9821 17.4413 15.5447 16.8787ZM14.666 22H34.666V29C34.666 29.7956 34.3499 30.5587 33.7873 31.1213C33.2247 31.6839 32.4617 32 31.666 32H17.666C16.8704 32 16.1073 31.6839 15.5447 31.1213C14.9821 30.5587 14.666 29.7956 14.666 29V22ZM20.3857 27.5303C20.245 27.3897 20.166 27.1989 20.166 27C20.166 26.586 20.502 26.25 20.916 26.25H26.856L25.886 25.28C25.8123 25.2113 25.7532 25.1285 25.7122 25.0365C25.6712 24.9445 25.6492 24.8452 25.6474 24.7445C25.6456 24.6438 25.6642 24.5438 25.7019 24.4504C25.7396 24.357 25.7958 24.2722 25.867 24.201C25.9382 24.1297 26.023 24.0736 26.1164 24.0359C26.2098 23.9982 26.3098 23.9796 26.4105 23.9814C26.5112 23.9832 26.6106 24.0052 26.7026 24.0462C26.7946 24.0872 26.8774 24.1463 26.946 24.22L29.196 26.47C29.3365 26.6106 29.4154 26.8012 29.4154 27C29.4154 27.1988 29.3365 27.3894 29.196 27.53L26.946 29.78C26.8038 29.9125 26.6158 29.9846 26.4215 29.9812C26.2272 29.9777 26.0418 29.899 25.9044 29.7616C25.767 29.6242 25.6883 29.4388 25.6848 29.2445C25.6814 29.0502 25.7535 28.8622 25.886 28.72L26.856 27.75H20.916C20.7171 27.75 20.5263 27.671 20.3857 27.5303Z" fill="#A2A2A2"/>
    </g>
    <defs>
    <clipPath id="clip0_6_152457">
    <rect width="24" height="24" fill="white" transform="translate(12.666 12)"/>
    </clipPath>
    </defs>
    </svg>
    