<svg width="100" height="100" viewBox="0 0 100 100" fill="none" xmlns="http://www.w3.org/2000/svg">
    <path d="M91.8949 0H8.10508C3.63594 0 0 3.63594 0 8.10508V75.6135C0 80.0826 3.63594 83.7186 8.10508 83.7186H35.9383V95.7031H30.1445C28.958 95.7031 27.9961 96.665 27.9961 97.8516C27.9961 99.0381 28.958 100 30.1445 100H69.8555C71.042 100 72.0039 99.0381 72.0039 97.8516C72.0039 96.665 71.042 95.7031 69.8555 95.7031H64.0617V83.7186H91.8949C96.3641 83.7186 100 80.0826 100 75.6135V8.10508C100 3.63594 96.3641 0 91.8949 0ZM8.10508 4.29688H91.8949C93.9947 4.29688 95.7031 6.00527 95.7031 8.10508V67.5084H4.29688V8.10508C4.29688 6.00527 6.00527 4.29688 8.10508 4.29688ZM59.7648 95.7031H40.2352V83.7186H59.7648V95.7031ZM91.8949 79.4217H8.10508C6.00527 79.4217 4.29688 77.7133 4.29688 75.6135V71.8053H95.7031V75.6135C95.7031 77.7135 93.9947 79.4217 91.8949 79.4217Z" fill="black"/>
    <path d="M68.8042 59.8939H31.1948C28.4015 59.8939 25.8839 58.459 24.4605 56.0557C23.0368 53.6521 22.9886 50.7549 24.3312 48.3053L43.1359 13.9947C44.531 11.4494 47.0968 9.92969 49.9995 9.92969C52.9023 9.92969 55.4683 11.4492 56.8634 13.9947L75.6681 48.3053C77.0107 50.7549 76.9622 53.6521 75.5388 56.0557C74.1153 58.4592 71.5976 59.8939 68.8042 59.8939ZM49.9995 14.2266C48.6903 14.2266 47.5331 14.9119 46.9038 16.06L28.0991 50.3705C27.4937 51.4752 27.5155 52.782 28.1575 53.866C28.7995 54.95 29.9351 55.5971 31.1948 55.5971H68.8042C70.064 55.5971 71.1995 54.95 71.8417 53.8658C72.4837 52.7818 72.5054 51.4752 71.8999 50.3703L53.0952 16.06C52.4659 14.9119 51.3087 14.2266 49.9995 14.2266Z" fill="#AF6249"/>
    <path d="M50.0176 40.0383C48.8311 40.0383 47.8691 39.0764 47.8691 37.8898V25.9766C47.8691 24.79 48.8311 23.8281 50.0176 23.8281C51.2041 23.8281 52.166 24.79 52.166 25.9766V37.8898C52.1662 39.0764 51.2041 40.0383 50.0176 40.0383Z" fill="#AF6249"/>
    <path d="M50 48.9727C51.1865 48.9727 52.1484 48.0108 52.1484 46.8242C52.1484 45.6377 51.1865 44.6758 50 44.6758C48.8135 44.6758 47.8516 45.6377 47.8516 46.8242C47.8516 48.0108 48.8135 48.9727 50 48.9727Z" fill="#AF6249"/>
    </svg>
    