<svg width="32" height="32" viewBox="0 0 32 32" fill="none" xmlns="http://www.w3.org/2000/svg">
    <rect x="0.5" y="0.5" width="31" height="31" rx="3.5" fill="white"/>
    <rect x="0.5" y="0.5" width="31" height="31" rx="3.5" stroke="black"/>
    <g clip-path="url(#clip0_1636_60222)">
    <path d="M18.2871 8.57227L21.1443 11.4294L18.2871 14.2866" stroke="black" stroke-width="1.5" stroke-linecap="round" stroke-linejoin="round"/>
    <path d="M8.57227 14.8583V12.5725C8.57227 12.2694 8.69267 11.9787 8.907 11.7644C9.12133 11.5501 9.41202 11.4297 9.71512 11.4297H21.1437" stroke="black" stroke-width="1.5" stroke-linecap="round" stroke-linejoin="round"/>
    <path d="M13.7146 23.4291L10.8574 20.572L13.7146 17.7148" stroke="black" stroke-width="1.5" stroke-linecap="round" stroke-linejoin="round"/>
    <path d="M23.4288 17.1445V19.4302C23.4288 19.7334 23.3084 20.024 23.0941 20.2384C22.8798 20.4527 22.5891 20.5731 22.286 20.5731H10.8574" stroke="black" stroke-width="1.5" stroke-linecap="round" stroke-linejoin="round"/>
    </g>
    <defs>
    <clipPath id="clip0_1636_60222">
    <rect width="16" height="16" fill="white" transform="translate(8 8)"/>
    </clipPath>
    </defs>
    </svg>
    