<svg width="100" height="100" viewBox="0 0 100 100" fill="none" xmlns="http://www.w3.org/2000/svg">
    <g clip-path="url(#clip0_1745_21958)">
    <path d="M72.6737 68.274C70.5199 65.304 68.0615 63.3005 64.7984 65.3676L58.3136 69.1768C53.2134 72.7403 49.9867 70.655 46.5087 67.2655L28.9631 41.0617C26.8285 38.0882 27.0934 34.8872 30.3566 32.8202L39.3784 27.2116C42.6382 25.1253 41.5411 22.1859 39.3872 19.2159L28.3473 5.18738C26.1934 2.21735 22.8227 2.00242 19.5596 4.06945C13.0174 8.22615 7.99965 13.8182 5.42872 21.2373C2.27793 30.3065 6.62367 41.3775 8.40361 46.0405C10.1836 50.7035 14.9164 58.5914 20.6291 66.5236C26.3452 74.4751 31.2301 80.6499 35.1855 83.9349C39.1409 87.2198 48.8646 96.4038 58.9959 97.0452C67.2988 97.5549 75.6081 94.4136 82.131 90.2603C85.3942 88.1932 84.8706 85.1321 82.7133 82.1429L72.6737 68.274Z" fill="#E5E5E5"/>
    <g clip-path="url(#clip1_1745_21958)">
    <mask id="path-2-outside-1_1745_21958" maskUnits="userSpaceOnUse" x="49.334" y="11.3359" width="48" height="48" fill="black">
    <rect fill="white" x="49.334" y="11.3359" width="48" height="48"/>
    <path d="M59.1581 21.1601C59.419 20.8988 59.7289 20.6916 60.0699 20.5501C60.411 20.4087 60.7766 20.3359 61.1458 20.3359C61.515 20.3359 61.8806 20.4087 62.2217 20.5501C62.5628 20.6916 62.8726 20.8988 63.1335 21.1601L73.3344 31.3572L83.5353 21.1601C83.7963 20.8991 84.1062 20.692 84.4473 20.5507C84.7883 20.4095 85.1538 20.3368 85.523 20.3368C85.8921 20.3368 86.2577 20.4095 86.5987 20.5507C86.9398 20.692 87.2496 20.8991 87.5107 21.1601C87.7717 21.4211 87.9787 21.731 88.12 22.072C88.2613 22.4131 88.334 22.7786 88.334 23.1478C88.334 23.5169 88.2613 23.8824 88.12 24.2235C87.9787 24.5645 87.7717 24.8744 87.5107 25.1354L77.3135 35.3364L87.5107 45.5373C88.0378 46.0644 88.334 46.7794 88.334 47.5249C88.334 48.2705 88.0378 48.9854 87.5107 49.5126C86.9835 50.0398 86.2685 50.3359 85.523 50.3359C84.7775 50.3359 84.0625 50.0398 83.5353 49.5126L73.3344 39.3155L63.1335 49.5126C62.6063 50.0398 61.8913 50.3359 61.1458 50.3359C60.4003 50.3359 59.6853 50.0398 59.1581 49.5126C58.631 48.9854 58.3348 48.2705 58.3348 47.5249C58.3348 46.7794 58.631 46.0644 59.1581 45.5373L69.3553 35.3364L59.1581 25.1354C58.8969 24.8746 58.6896 24.5647 58.5482 24.2236C58.4068 23.8826 58.334 23.517 58.334 23.1478C58.334 22.7785 58.4068 22.4129 58.5482 22.0719C58.6896 21.7308 58.8969 21.421 59.1581 21.1601Z"/>
    </mask>
    <path d="M59.1581 21.1601L65.5176 27.5286L65.5266 27.5195L59.1581 21.1601ZM61.1458 20.3359V29.3359V20.3359ZM63.1335 21.1601L56.765 27.5195L56.7707 27.5252L63.1335 21.1601ZM73.3344 31.3572L66.9716 37.7224C70.4861 41.2355 76.1827 41.2355 79.6972 37.7224L73.3344 31.3572ZM83.5353 21.1601L89.8981 27.5252L89.8993 27.5241L83.5353 21.1601ZM85.523 20.3368V11.3368V20.3368ZM87.5107 25.1354L81.1467 18.7715L81.1455 18.7727L87.5107 25.1354ZM77.3135 35.3364L70.9484 28.9736C67.4352 32.488 67.4352 38.1847 70.9484 41.6991L77.3135 35.3364ZM87.5107 45.5373L81.1455 51.9001L81.1467 51.9012L87.5107 45.5373ZM83.5353 49.5126L89.8993 43.1487L89.8981 43.1475L83.5353 49.5126ZM73.3344 39.3155L79.6972 32.9503C76.1827 29.4372 70.4861 29.4372 66.9716 32.9503L73.3344 39.3155ZM63.1335 49.5126L56.7707 43.1475L56.7695 43.1487L63.1335 49.5126ZM59.1581 45.5373L65.5221 51.9012L65.5233 51.9001L59.1581 45.5373ZM69.3553 35.3364L75.7204 41.6991C79.2336 38.1847 79.2336 32.488 75.7204 28.9736L69.3553 35.3364ZM59.1581 25.1354L65.5233 18.7727L65.5176 18.767L59.1581 25.1354ZM65.5266 27.5195C64.9516 28.0953 64.2687 28.5522 63.517 28.8638L56.6228 12.2365C55.189 12.831 53.8864 13.7023 52.7896 14.8007L65.5266 27.5195ZM63.517 28.8638C62.7654 29.1755 61.9596 29.3359 61.1458 29.3359V11.3359C59.5936 11.3359 58.0566 11.6419 56.6228 12.2365L63.517 28.8638ZM61.1458 29.3359C60.332 29.3359 59.5263 29.1755 58.7746 28.8638L65.6688 12.2365C64.235 11.6419 62.698 11.3359 61.1458 11.3359V29.3359ZM58.7746 28.8638C58.0229 28.5522 57.34 28.0953 56.765 27.5195L69.502 14.8007C68.4052 13.7023 67.1026 12.831 65.6688 12.2365L58.7746 28.8638ZM56.7707 27.5252L66.9716 37.7224L79.6972 24.9921L69.4963 14.795L56.7707 27.5252ZM79.6972 37.7224L89.8981 27.5252L77.1725 14.795L66.9716 24.9921L79.6972 37.7224ZM89.8993 27.5241C89.3246 28.0987 88.6423 28.5546 87.8914 28.8657L81.0031 12.2358C79.5701 12.8294 78.2681 13.6994 77.1713 14.7961L89.8993 27.5241ZM87.8914 28.8657C87.1405 29.1767 86.3357 29.3368 85.523 29.3368V11.3368C83.9719 11.3368 82.4361 11.6423 81.0031 12.2358L87.8914 28.8657ZM85.523 29.3368C84.7102 29.3368 83.9054 29.1767 83.1546 28.8657L90.0429 12.2358C88.6099 11.6423 87.074 11.3368 85.523 11.3368V29.3368ZM83.1546 28.8657C82.4037 28.5546 81.7214 28.0987 81.1467 27.5241L93.8746 14.7961C92.7779 13.6994 91.4758 12.8294 90.0429 12.2358L83.1546 28.8657ZM81.1467 27.5241C80.572 26.9494 80.1161 26.2671 79.8051 25.5162L96.4349 18.6279C95.8414 17.1949 94.9714 15.8929 93.8746 14.7961L81.1467 27.5241ZM79.8051 25.5162C79.4941 24.7653 79.334 23.9606 79.334 23.1478L97.334 23.1478C97.334 21.5967 97.0285 20.0608 96.4349 18.6279L79.8051 25.5162ZM79.334 23.1478C79.334 22.335 79.4941 21.5302 79.8051 20.7793L96.4349 27.6676C97.0285 26.2347 97.334 24.6988 97.334 23.1478L79.334 23.1478ZM79.8051 20.7793C80.1161 20.0284 80.572 19.3462 81.1467 18.7715L93.8746 31.4994C94.9714 30.4027 95.8414 29.1006 96.4349 27.6676L79.8051 20.7793ZM81.1455 18.7727L70.9484 28.9736L83.6786 41.6991L93.8758 31.4982L81.1455 18.7727ZM70.9484 41.6991L81.1455 51.9001L93.8758 39.1745L83.6786 28.9736L70.9484 41.6991ZM81.1467 51.9012C79.9861 50.7406 79.334 49.1664 79.334 47.5249H97.334C97.334 44.3924 96.0896 41.3883 93.8746 39.1733L81.1467 51.9012ZM79.334 47.5249C79.334 45.8835 79.9861 44.3093 81.1467 43.1487L93.8746 55.8766C96.0896 53.6616 97.334 50.6574 97.334 47.5249H79.334ZM81.1467 43.1487C82.3073 41.988 83.8815 41.3359 85.523 41.3359V59.3359C88.6555 59.3359 91.6596 58.0915 93.8746 55.8766L81.1467 43.1487ZM85.523 41.3359C87.1644 41.3359 88.7386 41.988 89.8993 43.1487L77.1713 55.8766C79.3863 58.0915 82.3905 59.3359 85.523 59.3359V41.3359ZM89.8981 43.1475L79.6972 32.9503L66.9716 45.6806L77.1725 55.8777L89.8981 43.1475ZM66.9716 32.9503L56.7707 43.1475L69.4963 55.8777L79.6972 45.6806L66.9716 32.9503ZM56.7695 43.1487C57.9302 41.988 59.5044 41.3359 61.1458 41.3359V59.3359C64.2783 59.3359 67.2825 58.0915 69.4975 55.8766L56.7695 43.1487ZM61.1458 41.3359C62.7873 41.3359 64.3615 41.988 65.5221 43.1487L52.7942 55.8766C55.0092 58.0915 58.0133 59.3359 61.1458 59.3359V41.3359ZM65.5221 43.1487C66.6828 44.3093 67.3348 45.8835 67.3348 47.5249H49.3348C49.3348 50.6574 50.5792 53.6616 52.7942 55.8766L65.5221 43.1487ZM67.3348 47.5249C67.3348 49.1664 66.6828 50.7406 65.5221 51.9012L52.7942 39.1733C50.5792 41.3883 49.3348 44.3925 49.3348 47.5249H67.3348ZM65.5233 51.9001L75.7204 41.6991L62.9902 28.9736L52.793 39.1745L65.5233 51.9001ZM75.7204 28.9736L65.5233 18.7727L52.793 31.4982L62.9902 41.6991L75.7204 28.9736ZM65.5176 18.767C66.0934 19.342 66.5502 20.0248 66.8619 20.7765L50.2345 27.6708C50.829 29.1046 51.7004 30.4071 52.7987 31.5039L65.5176 18.767ZM66.8619 20.7765C67.1736 21.5282 67.334 22.334 67.334 23.1478H49.334C49.334 24.7 49.64 26.2369 50.2345 27.6708L66.8619 20.7765ZM67.334 23.1478C67.334 23.9615 67.1736 24.7673 66.8619 25.519L50.2345 18.6248C49.64 20.0586 49.334 21.5956 49.334 23.1478H67.334ZM66.8619 25.519C66.5502 26.2707 66.0934 26.9536 65.5176 27.5286L52.7987 14.7916C51.7004 15.8884 50.829 17.1909 50.2345 18.6248L66.8619 25.519Z" fill="white" mask="url(#path-2-outside-1_1745_21958)"/>
    <path d="M59.6889 19.6264C59.2266 19.8181 58.8066 20.0989 58.453 20.453C58.0989 20.8066 57.8181 21.2266 57.6264 21.6889C57.4346 22.1514 57.3359 22.6471 57.3359 23.1478C57.3359 23.6484 57.4346 24.1442 57.6264 24.6067C57.8181 25.069 58.099 25.489 58.4531 25.8427C58.4533 25.8428 58.4534 25.8429 58.4535 25.8431L67.9433 35.3364L58.453 44.8302C57.7383 45.5449 57.3368 46.5142 57.3368 47.5249C57.3368 48.5357 57.7383 49.505 58.453 50.2197L59.1543 49.5184L58.453 50.2197C59.1677 50.9344 60.137 51.3359 61.1478 51.3359C62.1584 51.3359 63.1277 50.9345 63.8424 50.2199C63.8425 50.2198 63.8425 50.2198 63.8426 50.2197L73.3364 40.7294L82.8302 50.2197C83.5449 50.9344 84.5142 51.3359 85.5249 51.3359C86.5357 51.3359 87.505 50.9344 88.2197 50.2197C88.9344 49.505 89.3359 48.5357 89.3359 47.5249C89.3359 46.5142 88.9344 45.5449 88.2197 44.8302L78.7294 35.3364L88.2197 25.8425C88.2198 25.8425 88.2198 25.8425 88.2199 25.8424C88.5737 25.4886 88.8543 25.0685 89.0458 24.6062C89.2374 24.1438 89.3359 23.6482 89.3359 23.1478C89.3359 22.6473 89.2374 22.1517 89.0458 21.6894C88.8543 21.227 88.5736 20.8069 88.2197 20.453C87.8658 20.0991 87.4457 19.8184 86.9833 19.6269C86.521 19.4353 86.0254 19.3368 85.5249 19.3368C85.0245 19.3368 84.5289 19.4353 84.0665 19.6269C83.6042 19.8184 83.184 20.0991 82.8302 20.453L73.3364 29.9433L63.8431 20.4535C63.8429 20.4534 63.8428 20.4533 63.8427 20.4531C63.489 20.099 63.069 19.8181 62.6067 19.6264C62.1442 19.4346 61.6484 19.3359 61.1478 19.3359C60.6471 19.3359 60.1514 19.4346 59.6889 19.6264Z" fill="#5d7d2b" stroke="#5d7d2b" stroke-width="2" stroke-linejoin="round"/>
    </g>
    </g>
    <defs>
    <clipPath id="clip0_1745_21958">
    <rect width="100" height="100" fill="white"/>
    </clipPath>
    <clipPath id="clip1_1745_21958">
    <rect width="50" height="50" fill="white" transform="translate(50 12)"/>
    </clipPath>
    </defs>
    </svg>
    