<svg width="14" height="11" viewBox="0 0 14 11" fill="none" xmlns="http://www.w3.org/2000/svg">
    <path d="M2.9681 0.165039C1.6121 0.165039 0.550778 0.507701 0.363444 1.81103C0.303444 2.22837 0.435436 2.63904 0.73877 2.93571C0.889437 3.08304 1.04877 3.25837 1.25944 3.43571C1.78811 3.88171 2.46211 4.38304 3.09278 4.8317C4.82811 6.06503 6.19812 6.8317 7.00945 6.8317C7.82079 6.8317 9.19079 6.06503 10.9261 4.8317C11.5575 4.38304 12.2315 3.88104 12.7595 3.43571C12.9701 3.25837 13.1295 3.08371 13.2801 2.93571C13.5835 2.63904 13.7155 2.22837 13.6555 1.81103C13.4681 0.507701 12.4068 0.165039 11.0508 0.165039H2.9681ZM0.342773 4.26904V8.16503C0.342773 9.6377 1.53678 10.8317 3.00944 10.8317H11.0095C12.4821 10.8317 13.6761 9.6377 13.6761 8.16503V4.26904C13.1295 4.78837 12.5188 5.32437 11.6555 5.9357C9.76478 7.27437 8.06679 8.16503 7.00945 8.16503C5.95212 8.16503 4.25412 7.27437 2.36345 5.9357C1.49945 5.32437 0.889441 4.78837 0.342773 4.26904Z" fill="#666666"/>
    </svg>
    