<svg width="36" height="36" viewBox="0 0 36 36" fill="none" xmlns="http://www.w3.org/2000/svg">
    <rect width="36" height="36" rx="18" fill="white"/>
    <path fill-rule="evenodd" clip-rule="evenodd" d="M17.9743 8C15.4647 8 13.1784 8.82896 11.8255 9.50624C11.7032 9.56735 11.5894 9.62736 11.4832 9.68514C11.2732 9.79959 11.0943 9.90627 10.9521 10.0002L12.4911 12.2659L13.2156 12.5543C16.0469 13.9827 19.8439 13.9827 22.6758 12.5543L23.4981 12.1276L24.9532 10.0002C24.6518 9.80351 24.3384 9.62593 24.0148 9.46846C22.6686 8.7984 20.4368 8 17.9749 8H17.9743ZM14.3951 10.5647C13.8502 10.4627 13.3119 10.3276 12.7833 10.1602C14.0507 9.59736 15.9392 9.00008 17.9743 9.00008C19.3839 9.00008 20.7168 9.28677 21.8191 9.65014C20.5273 9.83182 19.1489 10.1402 17.8354 10.5197C16.802 10.8186 15.5941 10.7863 14.3951 10.5647ZM23.2625 13.3782L23.1259 13.4471C20.0112 15.0184 15.8797 15.0184 12.765 13.4471L12.6355 13.3816C7.95627 18.5159 4.38375 28 17.9743 28C31.5649 28 27.9052 18.3386 23.2625 13.3782ZM17.3971 18.0008C17.1023 18.0008 16.8197 18.1179 16.6113 18.3263C16.4029 18.5347 16.2859 18.8173 16.2859 19.112C16.2859 19.4067 16.4029 19.6894 16.6113 19.8978C16.8197 20.1062 17.1023 20.2232 17.3971 20.2232V18.0008ZM18.5083 16.8896V16.334H17.3971V16.8896C16.8076 16.8896 16.2424 17.1238 15.8256 17.5406C15.4088 17.9573 15.1746 18.5226 15.1746 19.112C15.1746 19.7015 15.4088 20.2667 15.8256 20.6835C16.2424 21.1003 16.8076 21.3344 17.3971 21.3344V23.5569C16.9137 23.5569 16.502 23.2485 16.3486 22.8162C16.3259 22.7455 16.2892 22.6801 16.2407 22.6238C16.1922 22.5675 16.1329 22.5215 16.0664 22.4885C15.9998 22.4556 15.9273 22.4363 15.8531 22.4318C15.779 22.4273 15.7047 22.4378 15.6346 22.4625C15.5646 22.4873 15.5002 22.5258 15.4453 22.5759C15.3904 22.6259 15.3462 22.6865 15.3151 22.754C15.284 22.8215 15.2668 22.8945 15.2644 22.9687C15.262 23.043 15.2746 23.1169 15.3013 23.1863C15.4546 23.6196 15.7384 23.9948 16.1137 24.2602C16.489 24.5256 16.9374 24.668 17.3971 24.6681V25.2237H18.5083V24.6681C19.0977 24.6681 19.663 24.4339 20.0797 24.0171C20.4965 23.6003 20.7307 23.0351 20.7307 22.4456C20.7307 21.8562 20.4965 21.291 20.0797 20.8742C19.663 20.4574 19.0977 20.2232 18.5083 20.2232V18.0008C18.9916 18.0008 19.4033 18.3092 19.5567 18.7415C19.5794 18.8122 19.6161 18.8776 19.6646 18.9339C19.7131 18.9902 19.7724 19.0362 19.8389 19.0692C19.9055 19.1021 19.978 19.1214 20.0522 19.1259C20.1263 19.1304 20.2006 19.1199 20.2707 19.0952C20.3407 19.0704 20.4051 19.0319 20.46 18.9818C20.5149 18.9317 20.5592 18.8712 20.5902 18.8037C20.6213 18.7362 20.6385 18.6632 20.6409 18.589C20.6433 18.5147 20.6307 18.4407 20.604 18.3714C20.4507 17.9381 20.1669 17.5629 19.7916 17.2975C19.4163 17.0321 18.9679 16.8896 18.5083 16.8896ZM18.5083 21.3344V23.5569C18.803 23.5569 19.0856 23.4398 19.294 23.2314C19.5024 23.023 19.6195 22.7404 19.6195 22.4456C19.6195 22.1509 19.5024 21.8683 19.294 21.6599C19.0856 21.4515 18.803 21.3344 18.5083 21.3344Z" fill="#999999"/>
    </svg>
    