<svg width="76" height="100" viewBox="0 0 76 100" fill="none" xmlns="http://www.w3.org/2000/svg">
    <path d="M72.7418 2.49941C71.1318 0.887695 68.9898 0 66.7104 0H22.0488C21.4791 0 20.9326 0.226367 20.5297 0.629297L1.38906 19.7699C0.986328 20.1729 0.759766 20.7193 0.759766 21.2891V91.4715C0.759766 96.174 4.58574 100 9.28848 100H66.7104C68.9898 100 71.1318 99.1123 72.7408 97.5016C74.3518 95.891 75.2391 93.7494 75.2391 91.4715V8.52871C75.2391 6.25059 74.3518 4.10898 72.7418 2.49941ZM22.9389 4.29688H23.0906V18.099C23.0906 20.4324 21.1922 22.3309 18.8588 22.3309H5.05664V22.1791L22.9389 4.29688ZM70.9422 91.4715C70.9422 92.6016 70.502 93.6639 69.7018 94.4639C68.9033 95.2631 67.8412 95.7031 66.7104 95.7031H9.28848C6.95508 95.7031 5.05664 93.8047 5.05664 91.4715V26.6277H18.8588C23.5615 26.6277 27.3875 22.8018 27.3875 18.099V4.29688H66.7104C67.8412 4.29688 68.9033 4.73691 69.7027 5.5373C70.502 6.33633 70.9422 7.39863 70.9422 8.52871V91.4715Z" fill="black"/>
    <path d="M38 77.2461C26.2613 77.2461 16.7109 67.6959 16.7109 55.957C16.7109 44.2182 26.2613 34.668 38 34.668C49.7387 34.668 59.2891 44.2182 59.2891 55.957C59.2891 67.6959 49.7389 77.2461 38 77.2461ZM38 38.9648C28.6305 38.9648 21.0078 46.5875 21.0078 55.957C21.0078 65.3266 28.6305 72.9492 38 72.9492C47.3695 72.9492 54.9922 65.3266 54.9922 55.957C54.9922 46.5875 47.3695 38.9648 38 38.9648Z" fill="#AF6249"/>
    <path d="M41.0377 55.9561L44.0293 52.9645C44.8684 52.1254 44.8684 50.7651 44.0293 49.926C43.1902 49.0872 41.8299 49.0872 40.9908 49.926L37.9992 52.9178L35.0076 49.9262C34.1684 49.0872 32.808 49.0874 31.9691 49.9262C31.1301 50.7653 31.1301 52.1256 31.9691 52.9647L34.9607 55.9563L31.9691 58.9479C31.1301 59.787 31.1301 61.1473 31.9691 61.9864C32.3887 62.4059 32.9385 62.6157 33.4883 62.6157C34.0379 62.6157 34.5881 62.4059 35.0074 61.9864L37.9992 58.9946L40.9908 61.9862C41.4103 62.4057 41.9602 62.6155 42.51 62.6155C43.0598 62.6155 43.6098 62.4057 44.0291 61.9862C44.8682 61.1471 44.8682 59.7868 44.0291 58.9477L41.0377 55.9561Z" fill="black"/>
    </svg>
    