<svg width="14" height="15" viewBox="0 0 14 15" fill="none" xmlns="http://www.w3.org/2000/svg">
    <path d="M6.99918 0.802246C3.31719 0.802246 0.33252 3.78705 0.33252 7.46891C0.33252 8.42491 0.552523 9.34598 0.936523 10.1981C0.389857 13.0214 0.35319 13.3439 0.35319 13.3439C0.263857 13.8063 0.661188 14.2023 1.12452 14.1148C1.12452 14.1148 1.41852 14.0502 4.26986 13.5106C5.12185 13.8945 6.04318 14.1356 6.99918 14.1356C10.6812 14.1356 13.6658 11.1508 13.6658 7.46891C13.6658 3.78705 10.6812 0.802246 6.99918 0.802246ZM5.12451 4.13558C5.74918 4.13558 6.58252 4.96891 6.58252 5.59391C6.58252 5.80225 6.14652 6.54318 6.16585 6.63558C6.30452 7.29745 7.16852 8.18238 7.83252 8.30225C7.91185 8.31658 8.66586 7.88558 8.87386 7.88558C9.49919 7.88558 10.3325 8.71891 10.3325 9.34391C10.3325 9.96891 9.49919 10.8022 8.87386 10.8022C8.06852 10.8022 6.58252 9.96891 5.74918 9.13558C5.65918 9.04591 5.42252 8.80858 5.33252 8.71891C4.49918 7.88558 3.66585 6.39938 3.66585 5.59391C3.66585 4.96891 4.49918 4.13558 5.12451 4.13558Z" fill="#666666"/>
    </svg>
    