<svg width="16" height="17" viewBox="0 0 16 17" fill="none" xmlns="http://www.w3.org/2000/svg">
<g clip-path="url(#clip0_1_10533)">
<path d="M12.2005 4.30714C11.9405 4.04714 11.5205 4.04714 11.2605 4.30714L8.00047 7.56047L4.74047 4.30047C4.48047 4.04047 4.06047 4.04047 3.80047 4.30047C3.54047 4.56047 3.54047 4.98047 3.80047 5.24047L7.06047 8.50047L3.80047 11.7605C3.54047 12.0205 3.54047 12.4405 3.80047 12.7005C4.06047 12.9605 4.48047 12.9605 4.74047 12.7005L8.00047 9.44047L11.2605 12.7005C11.5205 12.9605 11.9405 12.9605 12.2005 12.7005C12.4605 12.4405 12.4605 12.0205 12.2005 11.7605L8.94047 8.50047L12.2005 5.24047C12.4538 4.98714 12.4538 4.56047 12.2005 4.30714Z" fill="black"/>
</g>
<defs>
<clipPath id="clip0_1_10533">
<rect width="16" height="16" fill="white" transform="translate(0 0.5)"/>
</clipPath>
</defs>
</svg>
