<svg width="49" height="48" viewBox="0 0 49 48" fill="none" xmlns="http://www.w3.org/2000/svg">
    <rect x="0.333984" width="48" height="48" rx="24" fill="white"/>
    <path d="M14.334 20V24.001H15.334V30H14.334V33H30.334L33.334 33.001L34.334 33V30H33.334V24.001H34.334V20L24.334 14L14.334 20ZM18.334 30V24.001H20.334V30H18.334ZM23.334 30V24.001H25.334V30H23.334ZM30.334 30H28.334V24.001H30.334V30ZM26.334 20C26.3339 20.2627 26.2821 20.5228 26.1815 20.7655C26.0809 21.0082 25.9335 21.2287 25.7477 21.4144C25.5619 21.6001 25.3413 21.7474 25.0986 21.8479C24.8558 21.9484 24.5957 22.0001 24.333 22C24.0703 21.9999 23.8102 21.9481 23.5675 21.8475C23.3248 21.7469 23.1043 21.5995 22.9186 21.4137C22.7328 21.2279 22.5855 21.0073 22.4851 20.7646C22.3846 20.5219 22.3329 20.2617 22.333 19.999C22.3331 19.4684 22.544 18.9597 22.9193 18.5846C23.2945 18.2095 23.8034 17.9989 24.334 17.999C24.8645 17.9991 25.3733 18.21 25.7484 18.5853C26.1235 18.9605 26.3341 19.4694 26.334 20Z" fill="#A2A2A2"/>
    </svg>
    