<svg width="40" height="40" viewBox="0 0 40 40" fill="none" xmlns="http://www.w3.org/2000/svg">
<rect width="40" height="40" rx="10" fill="#F5F5F5"/>
<path d="M30.5326 26.0018L25.5012 20.9704C24.5087 19.9779 23.0264 19.7846 21.8319 20.3732L17.2517 15.793V13.1248L11.752 9L9.00215 11.7498L13.1269 17.2495H15.7951L20.3753 21.8298C19.791 23.0242 19.9801 24.5066 20.9726 25.4991L26.0039 30.5304C26.6312 31.1578 27.6453 31.1578 28.2683 30.5304L30.5326 28.2661C31.1556 27.6388 31.1556 26.6248 30.5326 26.0018ZM23.2541 18.6674C24.47 18.6674 25.6129 19.1401 26.4723 19.9994L27.3058 20.8329C27.9847 20.5365 28.6292 20.124 29.1877 19.5654C30.7818 17.9714 31.3232 15.7285 30.8162 13.6919C30.7216 13.3052 30.2361 13.172 29.9525 13.4556L26.7558 16.6523L23.8384 16.1668L23.3529 13.2494L26.5496 10.0527C26.8332 9.7691 26.6957 9.28358 26.3047 9.18476C24.2681 8.68205 22.0253 9.22343 20.4355 10.8132C19.211 12.0377 18.6352 13.6533 18.6653 15.2645L22.1928 18.792C22.5408 18.7104 22.9018 18.6674 23.2541 18.6674ZM18.7899 22.1907L16.3537 19.7545L9.80562 26.3068C8.73146 27.381 8.73146 29.1211 9.80562 30.1953C10.8798 31.2695 12.6199 31.2695 13.6941 30.1953L19.0047 24.8847C18.6782 24.0296 18.5793 23.0973 18.7899 22.1907ZM11.752 29.2801C11.1848 29.2801 10.7208 28.8161 10.7208 28.2489C10.7208 27.6775 11.1805 27.2177 11.752 27.2177C12.3234 27.2177 12.7832 27.6775 12.7832 28.2489C12.7832 28.8161 12.3234 29.2801 11.752 29.2801Z" fill="#697279"/>
</svg>
