<svg width="107" height="92" viewBox="0 0 107 92" fill="none" xmlns="http://www.w3.org/2000/svg">
    <g filter="url(#filter0_d_98_23210)">
    <rect x="25" y="10" width="52" height="52" rx="26" fill="#AF6249"/>
    <path fill-rule="evenodd" clip-rule="evenodd" d="M51 21.1667C49.3892 21.1667 48.0833 22.4726 48.0833 24.0834C48.0833 25.2794 48.8032 26.3073 49.8333 26.7574V29.0454C46.9792 29.0637 44.8662 29.1472 43.4126 29.2324C41.5177 29.3436 39.984 30.7537 39.823 32.6855C39.7167 33.9615 39.625 35.7407 39.625 38.0834C39.625 40.4261 39.7167 42.2054 39.823 43.4813C39.984 45.4131 41.5177 46.8232 43.4127 46.9344C45.0576 47.0309 47.5474 47.1251 51 47.1251C54.4526 47.1251 56.9424 47.0309 58.5873 46.9344C60.4823 46.8232 62.016 45.4131 62.177 43.4813C62.2833 42.2054 62.375 40.4261 62.375 38.0834C62.375 35.7407 62.2833 33.9615 62.177 32.6855C62.016 30.7537 60.4823 29.3436 58.5873 29.2324C57.1338 29.1472 55.0207 29.0637 52.1667 29.0454V26.7574C53.1968 26.3073 53.9167 25.2794 53.9167 24.0834C53.9167 22.4726 52.6108 21.1667 51 21.1667ZM48.0833 35.1667C48.0833 34.5224 47.561 34.0001 46.9167 34.0001C46.2723 34.0001 45.75 34.5224 45.75 35.1667V35.7501C45.75 36.3944 46.2723 36.9167 46.9167 36.9167C47.561 36.9167 48.0833 36.3944 48.0833 35.7501V35.1667ZM55.0833 34.0001C54.439 34.0001 53.9167 34.5224 53.9167 35.1667V35.7501C53.9167 36.3944 54.439 36.9167 55.0833 36.9167C55.7277 36.9167 56.25 36.3944 56.25 35.7501V35.1667C56.25 34.5224 55.7277 34.0001 55.0833 34.0001ZM46.6997 40.1512C47.2629 39.6201 47.9041 39.8558 48.4256 40.2615C48.5135 40.3298 48.6633 40.4342 48.8778 40.5429C49.3017 40.758 49.9969 41.0001 51 41.0001C52.0031 41.0001 52.6983 40.758 53.1222 40.5429C53.3367 40.4342 53.4865 40.3298 53.5744 40.2615C54.0959 39.8558 54.7371 39.6201 55.3003 40.1512C55.7853 40.6084 55.7701 41.3853 55.3073 41.8428C55.2887 41.8613 55.2652 41.8838 55.2368 41.9098C55.1801 41.9619 55.1036 42.028 55.0069 42.1033C54.8135 42.2537 54.5383 42.441 54.1778 42.6239C53.4517 42.9922 52.3969 43.3334 51 43.3334C49.6031 43.3334 48.5483 42.9922 47.8222 42.6239C47.4617 42.441 47.1865 42.2537 46.9931 42.1033C46.8964 42.028 46.8199 41.9619 46.7632 41.9098C46.2663 41.4539 46.1689 40.6516 46.6997 40.1512Z" fill="white"/>
    </g>
    <defs>
    <filter id="filter0_d_98_23210" x="0" y="0" width="112" height="112" filterUnits="userSpaceOnUse" color-interpolation-filters="sRGB">
    <feFlood flood-opacity="0" result="BackgroundImageFix"/>
    <feColorMatrix in="SourceAlpha" type="matrix" values="0 0 0 0 0 0 0 0 0 0 0 0 0 0 0 0 0 0 127 0" result="hardAlpha"/>
    <feOffset dx="5" dy="20"/>
    <feGaussianBlur stdDeviation="15"/>
    <feComposite in2="hardAlpha" operator="out"/>
    <feColorMatrix type="matrix" values="0 0 0 0 0 0 0 0 0 0 0 0 0 0 0 0 0 0 0.2 0"/>
    <feBlend mode="normal" in2="BackgroundImageFix" result="effect1_dropShadow_98_23210"/>
    <feBlend mode="normal" in="SourceGraphic" in2="effect1_dropShadow_98_23210" result="shape"/>
    </filter>
    </defs>
    </svg>
    