<svg width="48" height="48" viewBox="0 0 48 48" fill="none" xmlns="http://www.w3.org/2000/svg">
    <rect width="48" height="48" rx="24" fill="white"/>
    <path fill-rule="evenodd" clip-rule="evenodd" d="M24 34C29.5228 34 34 29.5228 34 24C34 18.4772 29.5228 14 24 14C18.4772 14 14 18.4772 14 24C14 29.5228 18.4772 34 24 34ZM24.75 19C24.75 18.5858 24.4142 18.25 24 18.25C23.5858 18.25 23.25 18.5858 23.25 19V24C23.25 24.3228 23.4566 24.6094 23.7628 24.7115L26.7628 25.7115C27.1558 25.8425 27.5805 25.6301 27.7115 25.2372C27.8425 24.8442 27.6301 24.4195 27.2372 24.2885L24.75 23.4594V19Z" fill="#A2A2A2"/>
    </svg>
    