<svg width="32" height="32" viewBox="0 0 32 32" fill="none" xmlns="http://www.w3.org/2000/svg">
    <rect width="32" height="32" rx="16" fill="white"/>
    <path d="M16 19.9213C18.1677 19.9499 20.3134 19.4845 22.2746 18.5607C22.3069 18.5453 22.3348 18.5223 22.356 18.4936C22.3771 18.4648 22.3909 18.4313 22.396 18.396C22.6072 15.1548 21.85 11.9239 20.2206 9.114C18.912 6.81733 17.3693 5.5 16 5.5C14.6306 5.5 13.088 6.81733 11.7793 9.12267C10.1565 11.932 9.3997 15.1581 9.60396 18.396C9.60907 18.4313 9.62281 18.4648 9.64398 18.4936C9.66514 18.5223 9.69308 18.5453 9.7253 18.5607C11.6865 19.4845 13.8323 19.9499 16 19.9213ZM15.064 12.728L17.4126 13.5947C17.7223 13.7455 17.98 13.9851 18.1529 14.283C18.3258 14.581 18.406 14.9236 18.3833 15.2673C18.3857 15.6972 18.2282 16.1126 17.9416 16.4329C17.6549 16.7532 17.2594 16.9555 16.832 17.0007C16.7822 17.0087 16.7367 17.0339 16.7035 17.0719C16.6703 17.1099 16.6513 17.1582 16.65 17.2087V17.6333C16.65 17.8057 16.5815 17.9711 16.4596 18.093C16.3377 18.2149 16.1724 18.2833 16 18.2833C15.8276 18.2833 15.6622 18.2149 15.5403 18.093C15.4184 17.9711 15.35 17.8057 15.35 17.6333V17.2C15.35 17.1425 15.3271 17.0874 15.2865 17.0468C15.2459 17.0062 15.1908 16.9833 15.1333 16.9833H14.2666C14.0942 16.9833 13.9289 16.9149 13.807 16.793C13.6851 16.6711 13.6166 16.5057 13.6166 16.3333C13.6166 16.1609 13.6851 15.9956 13.807 15.8737C13.9289 15.7518 14.0942 15.6833 14.2666 15.6833H16.4333C16.8666 15.6833 17.0833 15.536 17.0833 15.2413C17.0905 15.1588 17.0811 15.0757 17.0558 14.9969C17.0305 14.918 16.9898 14.845 16.936 14.782L14.5873 13.9153C14.2819 13.7662 14.027 13.5307 13.8545 13.2379C13.6819 12.9451 13.5992 12.6081 13.6166 12.2687C13.6271 11.8426 13.789 11.4341 14.0733 11.1165C14.3576 10.7989 14.7456 10.5929 15.168 10.5353C15.2178 10.5273 15.2632 10.5021 15.2964 10.4641C15.3297 10.4261 15.3486 10.3778 15.35 10.3273V9.83333C15.35 9.66094 15.4184 9.49561 15.5403 9.37371C15.6622 9.25182 15.8276 9.18333 16 9.18333C16.1724 9.18333 16.3377 9.25182 16.4596 9.37371C16.5815 9.49561 16.65 9.66094 16.65 9.83333V10.2667C16.65 10.3241 16.6728 10.3792 16.7134 10.4199C16.7541 10.4605 16.8092 10.4833 16.8666 10.4833H17.7333C17.9057 10.4833 18.071 10.5518 18.1929 10.6737C18.3148 10.7956 18.3833 10.9609 18.3833 11.1333C18.3833 11.3057 18.3148 11.4711 18.1929 11.593C18.071 11.7149 17.9057 11.7833 17.7333 11.7833H15.5666C15.2113 11.7833 14.9166 11.9913 14.9166 12.234C14.9046 12.3221 14.9115 12.4117 14.9369 12.4969C14.9623 12.5821 15.0056 12.6609 15.064 12.728Z" fill="#A2A2A2"/>
    <path d="M25.2387 18.5972C25.1355 18.5623 25.0253 18.5536 24.9179 18.5717C24.8105 18.5899 24.7093 18.6344 24.6233 18.7012C22.1002 20.4663 19.0783 21.3774 16 21.3012C12.9217 21.3774 9.89982 20.4663 7.37667 18.7012C7.29069 18.6344 7.18948 18.5899 7.0821 18.5717C6.97471 18.5536 6.8645 18.5623 6.76133 18.5972C6.66002 18.6344 6.56924 18.6957 6.49678 18.7757C6.42433 18.8557 6.37236 18.952 6.34533 19.0565C6.28482 19.3122 6.25284 19.5738 6.25 19.8365C6.25 23.7019 10.1673 26.3019 16 26.3019C21.8327 26.3019 25.75 23.7019 25.75 19.8365C25.7472 19.5738 25.7152 19.3122 25.6547 19.0565C25.6276 18.952 25.5757 18.8557 25.5032 18.7757C25.4308 18.6957 25.34 18.6344 25.2387 18.5972Z" fill="#A2A2A2"/>
    </svg>
    