<svg width="20" height="21" viewBox="0 0 20 21" fill="none" xmlns="http://www.w3.org/2000/svg">
    <path fill-rule="evenodd" clip-rule="evenodd" d="M0 14.834L0 6.165C0 2.76137 2.42931 0.5 5.916 0.5H14.084C17.567 0.5 20 2.7681 20 6.165V14.834C20 18.2378 17.5705 20.5 14.084 20.5H5.916C2.4295 20.5 0 18.2378 0 14.834ZM1.5 6.165L1.5 14.834C1.5 17.3845 3.23496 19 5.916 19H14.084C16.765 19 18.5 17.3845 18.5 14.834V6.165C18.5 3.62096 16.7612 2 14.084 2H5.916C3.23468 2 1.5 3.61476 1.5 6.165ZM5.164 10.5C5.164 10.1203 5.44615 9.80651 5.81223 9.75685L5.914 9.75H12.2692L9.7931 7.28346C9.52627 7.01776 9.50117 6.60115 9.7184 6.30707L9.79084 6.2228C10.0565 5.95597 10.4732 5.93087 10.7672 6.1481L10.8515 6.22054L14.6155 9.96854C14.8831 10.235 14.9075 10.6532 14.6885 10.9472L14.6858 10.9503C14.6648 10.9782 14.642 11.0046 14.6174 11.0292L14.6155 11.0315L10.8515 14.7795C10.558 15.0717 10.0831 15.0707 9.79084 14.7772C9.52514 14.5104 9.50182 14.0937 9.7203 13.8005L9.7931 13.7165L12.2706 11.25H5.914C5.49979 11.25 5.164 10.9142 5.164 10.5Z" fill="#A2A2A2"/>
    </svg>
    