<svg width="18" height="19" viewBox="0 0 18 19" fill="none" xmlns="http://www.w3.org/2000/svg">
    <path fill-rule="evenodd" clip-rule="evenodd" d="M18 9.5C18 14.4706 13.9706 18.5 9 18.5C4.02944 18.5 0 14.4706 0 9.5C0 4.52944 4.02944 0.5 9 0.5C13.9706 0.5 18 4.52944 18 9.5ZM9 5.675C8.37868 5.675 7.875 6.17868 7.875 6.8C7.875 7.17279 7.57279 7.475 7.2 7.475C6.82721 7.475 6.525 7.17279 6.525 6.8C6.525 5.43309 7.63309 4.325 9 4.325C10.3669 4.325 11.475 5.43309 11.475 6.8C11.475 7.2917 11.3309 7.75181 11.0824 8.13797C10.9268 8.37984 10.7448 8.61075 10.5771 8.81927L10.4866 8.93143C10.3474 9.10373 10.2196 9.2619 10.1015 9.4242C9.81026 9.82444 9.675 10.1252 9.675 10.4V10.85C9.675 11.2228 9.37279 11.525 9 11.525C8.62721 11.525 8.325 11.2228 8.325 10.85V10.4C8.325 9.68066 8.67817 9.0858 9.00986 8.62993C9.15002 8.4373 9.3036 8.24732 9.44325 8.07458L9.52528 7.97296C9.69195 7.76582 9.83383 7.58358 9.94716 7.40745C10.0597 7.23262 10.125 7.02497 10.125 6.8C10.125 6.17868 9.62132 5.675 9 5.675ZM9.675 13.1C9.675 12.7272 9.37279 12.425 9 12.425C8.62721 12.425 8.325 12.7272 8.325 13.1V14C8.325 14.3728 8.62721 14.675 9 14.675C9.37279 14.675 9.675 14.3728 9.675 14V13.1Z" fill="black"/>
    </svg>
    