<svg width="32" height="32" viewBox="0 0 32 32" fill="none" xmlns="http://www.w3.org/2000/svg">
    <rect width="32" height="32" rx="16" fill="white"/>
    <path d="M8.99902 7.90625C7.34202 7.90625 5.99902 9.24935 5.99902 10.9062V20.9062C5.99902 22.9062 6.99902 23.9062 8.99902 23.9062H22.999C24.999 23.9062 25.999 22.9062 25.999 20.9062V12.9062C25.999 12.354 25.551 11.9062 24.999 11.9062H23.999V8.90625C23.999 8.35395 23.551 7.90625 22.999 7.90625H8.99902ZM8.99902 9.90625H21.999V11.9062H8.99902C8.44702 11.9062 7.99902 11.4585 7.99902 10.9062C7.99902 10.354 8.44702 9.90625 8.99902 9.90625ZM20.999 15.9062C21.551 15.9062 21.999 16.354 21.999 16.9062C21.999 17.4585 21.551 17.9062 20.999 17.9062C20.447 17.9062 19.999 17.4585 19.999 16.9062C19.999 16.354 20.447 15.9062 20.999 15.9062Z" fill="#A2A2A2"/>
    </svg>
    