<svg width="36" height="36" viewBox="0 0 36 36" fill="none" xmlns="http://www.w3.org/2000/svg">
    <rect width="36" height="36" rx="18" fill="white"/>
    <path fill-rule="evenodd" clip-rule="evenodd" d="M14.1607 10C13.0841 10 12.09 10.5769 11.5559 11.5116L9.56253 15H8.4C8.17909 15 8 15.1791 8 15.4V15.8754C8 16.2425 8.24984 16.5625 8.60597 16.6515L8.62967 16.6574C8.21339 17.5218 8.05349 18.4902 8.1731 19.4471L8.89823 25.2481C9.02333 26.2489 9.87414 27 10.8828 27H11C12.1046 27 13 26.1046 13 25H23C23 26.1046 23.8954 27 25 27H25.1172C26.1259 27 26.9767 26.2489 27.1018 25.2481L27.8269 19.4471C27.9465 18.4902 27.7866 17.5218 27.3703 16.6574L27.394 16.6515C27.7502 16.5625 28 16.2425 28 15.8754V15.4C28 15.1791 27.8209 15 27.6 15H26.4375L24.4441 11.5116C23.91 10.5769 22.9159 10 21.8394 10H14.1607ZM24.4219 15.5039L22.7076 12.5039C22.5296 12.1923 22.1982 12 21.8394 12H14.1607C13.8018 12 13.4704 12.1923 13.2924 12.5039L11.5781 15.5039C11.1976 16.1705 11.6787 17 12.4464 17H23.5536C24.3215 17 24.8028 16.1705 24.4219 15.5039ZM11 21.0392V20.3382C11 19.9596 11.4044 19.7184 11.7376 19.8983L14.4802 21.3793C14.8533 21.5808 14.6978 22.1479 14.2742 22.131L11.96 22.0384C11.4237 22.0169 11 21.5759 11 21.0392ZM25 20.3382V21.0392C25 21.5759 24.5763 22.0169 24.04 22.0384L21.7258 22.131C21.3022 22.1479 21.1467 21.5808 21.5198 21.3793L24.2624 19.8983C24.5956 19.7184 25 19.9596 25 20.3382Z" fill="#A2A2A2"/>
    </svg>
    