<svg width="100" height="100" viewBox="0 0 100 100" fill="none" xmlns="http://www.w3.org/2000/svg">
<g id="ic:round-car-crash" clip-path="url(#clip0_837_13488)">
<path id="Vector" d="M88.6758 49.9707L86.4805 44.4824L82.5879 34.75C79.2461 26.3965 71.2754 21 62.2773 21H37.4727C28.4766 21 20.5039 26.3965 17.1621 34.75L13.2695 44.4824L11.0742 49.9707C6.36328 51.7617 3 56.2852 3 61.625V71C3 74.1484 4.20312 76.9902 6.125 79.1895V89.75C6.125 93.2012 8.92383 96 12.375 96H18.625C22.0762 96 24.875 93.2012 24.875 89.75V83.5H74.875V89.75C74.875 93.2012 77.6738 96 81.125 96H87.375C90.8262 96 93.625 93.2012 93.625 89.75V79.1895C95.5469 76.9922 96.75 74.1504 96.75 71V61.625C96.75 56.2852 93.3867 51.7617 88.6758 49.9707ZM28.7676 39.3926C30.1914 35.834 33.6387 33.5 37.4727 33.5H62.2773C66.1113 33.5 69.5586 35.834 70.9824 39.3926L74.875 49.125H24.875L28.7676 39.3926ZM18.625 70.9609C14.875 70.9609 12.375 68.4688 12.375 64.7305C12.375 60.9922 14.875 58.5 18.625 58.5C22.375 58.5 28 64.1074 28 67.8457C28 71.584 22.375 70.9609 18.625 70.9609ZM81.125 70.9609C77.375 70.9609 71.75 71.584 71.75 67.8457C71.75 64.1074 77.375 58.5 81.125 58.5C84.875 58.5 87.375 60.9922 87.375 64.7305C87.375 68.4688 84.875 70.9609 81.125 70.9609Z" fill="#E5E5E5"/>
<g id="Group 2658">
<path id="Vector_2" d="M73.6263 -0.832031C59.1581 -0.832031 47.418 10.9081 47.418 25.3763C47.418 39.8444 59.1581 51.5845 73.6263 51.5845C88.0944 51.5845 99.8345 39.8444 99.8345 25.3763C99.8345 10.9081 88.0944 -0.832031 73.6263 -0.832031Z" stroke="white" stroke-width="8"/>
<path id="Vector_3" d="M73.6263 3.16797C61.3673 3.16797 51.418 13.1173 51.418 25.3763C51.418 37.6352 61.3673 47.5845 73.6263 47.5845C85.8852 47.5845 95.8345 37.6352 95.8345 25.3763C95.8345 13.1173 85.8852 3.16797 73.6263 3.16797Z" fill="#5d7d2b"/>
<path id="Vector_4" d="M78.1255 19.4526C78.1255 20.7091 77.6264 21.9142 76.7379 22.8027C75.8494 23.6912 74.6443 24.1904 73.3878 24.1904C72.1312 24.1904 70.9262 23.6912 70.0377 22.8027C69.1492 21.9142 68.65 20.7091 68.65 19.4526C68.65 18.1961 69.1492 16.991 70.0377 16.1025C70.9262 15.214 72.1312 14.7148 73.3878 14.7148C74.6443 14.7148 75.8494 15.214 76.7379 16.1025C77.6264 16.991 78.1255 18.1961 78.1255 19.4526ZM81.6789 30.1126C81.6789 33.0619 79.31 36.0348 73.3878 36.0348C67.4656 36.0348 65.0967 33.0737 65.0967 30.1126C65.0967 29.1702 65.471 28.2664 66.1374 27.6C66.8038 26.9336 67.7076 26.5593 68.65 26.5593H78.1255C79.0679 26.5593 79.9717 26.9336 80.6381 27.6C81.3045 28.2664 81.6789 29.1702 81.6789 30.1126Z" fill="white"/>
</g>
</g>
<defs>
<clipPath id="clip0_837_13488">
<rect width="100" height="100" fill="white"/>
</clipPath>
</defs>
</svg>
