<svg width="200" height="16" viewBox="0 0 200 16" fill="none" xmlns="http://www.w3.org/2000/svg">
    <g clip-path="url(#clip0_1566_15957)">
    <path d="M0.327148 8.02247C0.327148 3.64317 3.54405 0.235184 7.98348 0.235184C11.0032 0.235184 13.2454 1.65004 14.5525 3.86214L13.0201 4.99066C12.0004 3.26701 10.3328 2.16095 7.98348 2.16095C4.60883 2.16095 2.43419 4.7043 2.43419 8.02247C2.43419 11.3406 4.69898 13.884 8.15812 13.884C10.0905 13.884 11.7976 13.1316 12.7553 12.1379V9.17343H9.73559V7.3375H14.7947V13.025C13.1328 14.6644 10.868 15.8097 8.13559 15.8097C3.61166 15.8097 0.327148 12.4018 0.327148 8.02247Z" fill="black"/>
    <path d="M19.1436 0.5047H27.0252V2.31816H21.1886V7.05116H26.5802V8.86464H21.1886V13.7324H27.0252V15.5459H19.1436V0.5047Z" fill="black"/>
    <path d="M33.5267 4.83905V15.5458H31.4873V0.499069H32L42.3436 11.2059V0.499069H44.3831V15.8041H43.8704L33.5267 4.83905Z" fill="black"/>
    <path d="M49.5264 0.5047H57.4081V2.31816H51.5714V7.05116H56.963V8.86464H51.5714V13.7324H57.4081V15.5459H49.5264V0.5047Z" fill="black"/>
    <path d="M60.5801 11.9638L62.1801 11.0374C62.8223 12.6712 64.0449 13.8896 66.0618 13.8896C67.9491 13.8896 69.059 12.806 69.059 11.3238C69.059 10.1054 68.3266 9.31379 66.5744 8.84778L65.042 8.44916C62.9125 7.89894 61.4251 6.52339 61.4251 4.49095C61.4251 2.08235 63.2674 0.246414 66.1744 0.246414C68.5519 0.246414 70.259 1.59388 70.9463 3.14347L69.4139 4.15968C68.704 2.91888 67.5942 2.16656 66.1519 2.16656C64.5519 2.16656 63.5322 3.0761 63.5322 4.37866C63.5322 5.41734 64.2646 6.14722 65.5097 6.47848L66.997 6.8771C69.5942 7.56207 71.1716 8.932 71.1716 11.2564C71.1716 13.8671 69.0646 15.8153 66.0449 15.8153C62.9575 15.8097 61.3125 13.884 60.5801 11.9638Z" fill="black"/>
    <path d="M75.1943 0.5047H77.2338V15.5459H75.1943V0.5047Z" fill="black"/>
    <path d="M80.8906 11.9638L82.4906 11.0374C83.1329 12.6712 84.3554 13.8896 86.3723 13.8896C88.2596 13.8896 89.3695 12.806 89.3695 11.3238C89.3695 10.1054 88.6371 9.31379 86.885 8.84778L85.3526 8.44916C83.223 7.89894 81.7357 6.52339 81.7357 4.49095C81.7357 2.08235 83.5779 0.246414 86.485 0.246414C88.8625 0.246414 90.5695 1.59388 91.2568 3.14347L89.7244 4.15968C89.0146 2.91888 87.9047 2.16656 86.4625 2.16656C84.8625 2.16656 83.8427 3.0761 83.8427 4.37866C83.8427 5.41734 84.5751 6.14722 85.8202 6.47848L87.3075 6.8771C89.9047 7.56207 91.4822 8.932 91.4822 11.2564C91.4822 13.8671 89.3751 15.8153 86.3554 15.8153C83.2681 15.8097 81.623 13.884 80.8906 11.9638Z" fill="black"/>
    <path d="M105.921 0.577682H113.724V2.37429H107.943V7.06238H113.284V8.85901H107.943V15.4729H105.921V0.577682Z" fill="black"/>
    <path d="M117.481 0.577682H119.504V15.4672H117.481V0.577682Z" fill="black"/>
    <path d="M126.445 4.87274V15.4729H124.423V0.319412H124.93L135.167 11.1778V0.57769H137.189V15.7311H136.682L126.445 4.87274Z" fill="black"/>
    <path d="M147.053 0.319412H147.47L154.236 15.4729H152.062L150.631 12.1435H143.887L142.456 15.4729H140.281L147.053 0.319412ZM144.659 10.3469H149.864L147.273 4.30567L144.659 10.3469Z" fill="black"/>
    <path d="M159.357 4.87274V15.4729H157.335V0.319412H157.842L168.079 11.1778V0.57769H170.101V15.7311H169.594L159.357 4.87274Z" fill="black"/>
    <path d="M181.639 15.7311C180.54 15.7311 179.526 15.5346 178.597 15.1416C177.667 14.7486 176.867 14.204 176.202 13.5078C175.538 12.8172 175.014 11.9975 174.631 11.0543C174.247 10.111 174.062 9.10043 174.062 8.02245C174.062 6.94448 174.253 5.93387 174.631 4.99064C175.014 4.04741 175.538 3.23332 176.202 2.53713C176.867 1.84655 177.667 1.30192 178.597 0.903297C179.526 0.510281 180.54 0.313782 181.639 0.313782C183.194 0.313782 184.54 0.661876 185.695 1.36368C186.845 2.06549 187.735 2.99749 188.366 4.1653L186.783 5.23769C186.298 4.31691 185.628 3.587 184.771 3.03679C183.915 2.49218 182.878 2.21709 181.662 2.21709C180.828 2.21709 180.073 2.36868 179.397 2.66625C178.721 2.96381 178.146 3.37366 177.662 3.8902C177.177 4.40673 176.805 5.01872 176.54 5.73176C176.276 6.43917 176.146 7.20274 176.146 8.02245C176.146 8.84217 176.276 9.60012 176.54 10.3132C176.805 11.0206 177.177 11.6326 177.662 12.1547C178.146 12.6712 178.721 13.0811 179.397 13.3787C180.073 13.6762 180.822 13.8278 181.662 13.8278C182.878 13.8278 183.915 13.5527 184.771 13.0081C185.628 12.4635 186.298 11.728 186.783 10.8072L188.366 11.8796C187.735 13.0474 186.845 13.9794 185.695 14.6812C184.54 15.383 183.188 15.7311 181.639 15.7311Z" fill="black"/>
    <path d="M192.028 0.577682H199.831V2.37429H194.051V7.06238H199.392V8.85901H194.051V13.6762H199.831V15.4729H192.028V0.577682Z" fill="black"/>
    </g>
    <defs>
    <clipPath id="clip0_1566_15957">
    <rect width="200" height="15.7205" fill="white" transform="translate(0 0.13974)"/>
    </clipPath>
    </defs>
    </svg>
    