<svg id="User" xmlns="http://www.w3.org/2000/svg" width="18" height="18" viewBox="0 0 18 18">
  <rect id="Container" width="18" height="18" fill="none"/>
  <path id="User-2" data-name="User" d="M23.219,12.5a5.746,5.746,0,0,1,5.719,5.542h0v1.49a.657.657,0,0,1-.656.656H18.156a.657.657,0,0,1-.656-.656h0v-1.49A5.746,5.746,0,0,1,23.219,12.5Zm0,.938a4.81,4.81,0,0,0-4.781,4.6h0V19.25H28V18.042a4.809,4.809,0,0,0-4.7-4.6h-.077Zm0-9.937a3.844,3.844,0,1,1-3.844,3.844A3.844,3.844,0,0,1,23.219,3.5Zm0,.938a2.906,2.906,0,1,0,2.906,2.906A2.906,2.906,0,0,0,23.219,4.438Z" transform="translate(-14.125 -2.75)"/>
</svg>
