<svg id="goods" xmlns="http://www.w3.org/2000/svg" width="18" height="18" viewBox="0 0 18 18">
  <rect id="Container" width="18" height="18" fill="none"/>
  <path id="패스_498" data-name="패스 498" d="M51.366,39.041h-.028L49.467,38.9a.487.487,0,0,1-.453-.453L48.9,36.519a.539.539,0,0,1,.142-.368l5.47-5.527a.5.5,0,0,1,.709,0l2.041,2.041a.479.479,0,0,1,0,.68L51.734,38.9A.6.6,0,0,1,51.366,39.041Zm-1.417-1.105,1.219.085L56.184,33l-1.3-1.3-4.988,4.96Z" transform="translate(-39.89 -27.107)"/>
  <path id="패스_499" data-name="패스 499" d="M63.806,40.516a.523.523,0,0,1-.34-.142l-1.842-1.842a.5.5,0,1,1,.709-.709l1.814,1.814a.5.5,0,0,1,0,.709A.443.443,0,0,1,63.806,40.516Z" transform="translate(-48.901 -32.267)"/>
  <path id="패스_500" data-name="패스 500" d="M32.886,37.884H22.91a.508.508,0,0,1-.51-.51V22.41a.508.508,0,0,1,.51-.51h9.976a.508.508,0,0,1,.51.51v3.259a.51.51,0,1,1-1.02,0V22.892H23.42v14H32.4V34.03a.51.51,0,1,1,1.02,0v3.344A.553.553,0,0,1,32.886,37.884Z" transform="translate(-20.9 -20.963)"/>
  <path id="패스_501" data-name="패스 501" d="M30.911,34.03l.057.142a.669.669,0,0,0,.6.425H31.7l-.113.085a.737.737,0,0,0-.227.709l.028.142-.113-.057a.924.924,0,0,0-.368-.113.57.57,0,0,0-.368.113l-.142.085.028-.142a.737.737,0,0,0-.227-.709l-.085-.085h.142a.734.734,0,0,0,.6-.425l.057-.17m0-1.53a.213.213,0,0,0-.2.142l-.51,1.247L28.842,34h0a.156.156,0,0,0-.142.085.215.215,0,0,0,.028.283l1.049.879-.34,1.3h0a.359.359,0,0,0,.028.17.2.2,0,0,0,.17.085.17.17,0,0,0,.113-.028l1.162-.709,1.162.709h0c.028.028.057.028.113.028h.057a.2.2,0,0,0,.142-.255l-.34-1.3,1.049-.879h0a.216.216,0,0,0,.057-.142.24.24,0,0,0-.2-.227l-1.36-.113-.482-1.247h0A.221.221,0,0,0,31,32.528a.1.1,0,0,0-.085-.028Z" transform="translate(-25.386 -28.558)"/>
  <path id="패스_502" data-name="패스 502" d="M30.911,52.33l.057.142a.669.669,0,0,0,.6.425H31.7l-.113.085a.737.737,0,0,0-.227.709l.028.142-.142-.085a.924.924,0,0,0-.368-.113.57.57,0,0,0-.368.113l-.142.085.028-.142a.737.737,0,0,0-.227-.709L30.06,52.9H30.2a.734.734,0,0,0,.6-.425l.113-.142m0-1.53a.213.213,0,0,0-.2.142l-.51,1.247-1.36.113h0a.156.156,0,0,0-.142.085.215.215,0,0,0,.028.283l1.049.879-.34,1.3h0a.359.359,0,0,0,.028.17.2.2,0,0,0,.17.085.17.17,0,0,0,.113-.028l1.162-.709,1.162.709h0c.028.028.057.028.113.028h.057a.2.2,0,0,0,.142-.255l-.34-1.3,1.049-.879h0a.216.216,0,0,0,.057-.142.24.24,0,0,0-.2-.227l-1.36-.113-.51-1.247h0a.221.221,0,0,0-.113-.113c0-.028-.028-.028-.057-.028Z" transform="translate(-25.386 -41.672)"/>
</svg>
