<svg id="join" xmlns="http://www.w3.org/2000/svg" width="18" height="18" viewBox="0 0 18 18">
  <rect id="Container" width="18" height="18" fill="none"/>
  <path id="패스_508" data-name="패스 508" d="M56.787,62.513A3.2,3.2,0,0,1,53.6,59.306a3.115,3.115,0,0,1,.938-2.269,3.191,3.191,0,0,1,2.269-.937h0a3.2,3.2,0,0,1,3.206,3.188,3.237,3.237,0,0,1-3.225,3.225Zm0-5.606a2.4,2.4,0,0,0,.019,4.8h0a2.4,2.4,0,0,0,2.4-2.4,2.31,2.31,0,0,0-.712-1.687,2.383,2.383,0,0,0-1.706-.712Z" transform="translate(-43.287 -45.581)"/>
  <path id="User-2" d="M29.438,18.55m-4.612,2.138H18.656A.664.664,0,0,1,18,20.031h0V18.55a5.7,5.7,0,0,1,7.913-5.1l-.825.694a4.247,4.247,0,0,0-1.294-.206h-.075a4.808,4.808,0,0,0-4.781,4.612h0v1.2h5.888ZM23.719,4a3.844,3.844,0,1,1-3.844,3.844A3.849,3.849,0,0,1,23.719,4Zm0,.938a2.906,2.906,0,1,0,2.906,2.906A2.9,2.9,0,0,0,23.719,4.938Zm1.106,15.75" transform="translate(-14.362 -3.25)"/>
  <rect id="사각형_2248" data-name="사각형 2248" width="0.638" height="3.675" transform="translate(13.181 11.888)"/>
  <rect id="사각형_2249" data-name="사각형 2249" width="3.675" height="0.638" transform="translate(11.663 13.406)"/>
</svg>
