<svg width="100" height="100" viewBox="0 0 100 100" fill="none" xmlns="http://www.w3.org/2000/svg">
<path d="M90.418 23.8905V62.6184C90.418 69.4868 84.8522 75.0526 77.9838 75.0526H12.8522C9.55442 75.0526 6.39173 73.7426 4.05986 71.4107C1.728 69.0789 0.417969 65.9162 0.417969 62.6184V23.8905L43.9922 47.859C44.8803 48.3469 45.958 48.3469 46.8438 47.859L90.418 23.8905ZM77.9838 4C81.2296 4.0003 84.3467 5.26984 86.6692 7.53742C88.9916 9.805 90.3353 10.8908 90.4132 14.1358L45.418 38.8858L0.422705 14.1334L0.427443 13.9203C0.56008 10.714 1.92714 9.68322 4.24275 7.46163C6.55836 5.24004 9.6432 3.9997 12.8522 4H77.9838Z" fill="#E5E5E5"/>
<g clip-path="url(#clip0_636_11373)">
<mask id="path-2-outside-1_636_11373" maskUnits="userSpaceOnUse" x="49.334" y="45.334" width="48" height="48" fill="black">
<rect fill="white" x="49.334" y="45.334" width="48" height="48"/>
<path d="M59.1581 55.1581C59.419 54.8969 59.7289 54.6896 60.0699 54.5482C60.411 54.4068 60.7766 54.334 61.1458 54.334C61.515 54.334 61.8806 54.4068 62.2217 54.5482C62.5628 54.6896 62.8726 54.8969 63.1335 55.1581L73.3344 65.3553L83.5353 55.1581C83.7963 54.8971 84.1062 54.6901 84.4473 54.5488C84.7883 54.4075 85.1538 54.3348 85.523 54.3348C85.8921 54.3348 86.2577 54.4075 86.5987 54.5488C86.9398 54.6901 87.2496 54.8971 87.5107 55.1581C87.7717 55.4192 87.9787 55.729 88.12 56.0701C88.2613 56.4111 88.334 56.7767 88.334 57.1458C88.334 57.515 88.2613 57.8805 88.12 58.2215C87.9787 58.5626 87.7717 58.8725 87.5107 59.1335L77.3135 69.3344L87.5107 79.5353C88.0378 80.0625 88.334 80.7775 88.334 81.523C88.334 82.2685 88.0378 82.9835 87.5107 83.5107C86.9835 84.0378 86.2685 84.334 85.523 84.334C84.7775 84.334 84.0625 84.0378 83.5353 83.5107L73.3344 73.3135L63.1335 83.5107C62.6063 84.0378 61.8913 84.334 61.1458 84.334C60.4003 84.334 59.6853 84.0378 59.1581 83.5107C58.631 82.9835 58.3348 82.2685 58.3348 81.523C58.3348 80.7775 58.631 80.0625 59.1581 79.5353L69.3553 69.3344L59.1581 59.1335C58.8969 58.8726 58.6896 58.5628 58.5482 58.2217C58.4068 57.8806 58.334 57.515 58.334 57.1458C58.334 56.7766 58.4068 56.411 58.5482 56.0699C58.6896 55.7289 58.8969 55.419 59.1581 55.1581Z"/>
</mask>
<path d="M59.1581 55.1581L65.5176 61.5266L65.5266 61.5176L59.1581 55.1581ZM61.1458 54.334V63.334V54.334ZM63.1335 55.1581L56.765 61.5176L56.7707 61.5233L63.1335 55.1581ZM73.3344 65.3553L66.9716 71.7204C70.4861 75.2336 76.1827 75.2336 79.6972 71.7204L73.3344 65.3553ZM83.5353 55.1581L89.8981 61.5233L89.8993 61.5221L83.5353 55.1581ZM85.523 54.3348V45.3348V54.3348ZM87.5107 59.1335L81.1467 52.7695L81.1455 52.7707L87.5107 59.1335ZM77.3135 69.3344L70.9484 62.9716C67.4352 66.4861 67.4352 72.1827 70.9484 75.6972L77.3135 69.3344ZM87.5107 79.5353L81.1455 85.8981L81.1467 85.8993L87.5107 79.5353ZM83.5353 83.5107L89.8993 77.1467L89.8981 77.1455L83.5353 83.5107ZM73.3344 73.3135L79.6972 66.9484C76.1827 63.4352 70.4861 63.4352 66.9716 66.9484L73.3344 73.3135ZM63.1335 83.5107L56.7707 77.1455L56.7695 77.1467L63.1335 83.5107ZM59.1581 79.5353L65.5221 85.8993L65.5233 85.8981L59.1581 79.5353ZM69.3553 69.3344L75.7204 75.6972C79.2336 72.1827 79.2336 66.4861 75.7204 62.9716L69.3553 69.3344ZM59.1581 59.1335L65.5233 52.7707L65.5176 52.765L59.1581 59.1335ZM65.5266 61.5176C64.9516 62.0934 64.2687 62.5502 63.517 62.8619L56.6228 46.2345C55.189 46.829 53.8864 47.7004 52.7896 48.7987L65.5266 61.5176ZM63.517 62.8619C62.7654 63.1736 61.9596 63.334 61.1458 63.334V45.334C59.5936 45.334 58.0566 45.64 56.6228 46.2345L63.517 62.8619ZM61.1458 63.334C60.332 63.334 59.5263 63.1736 58.7746 62.8619L65.6688 46.2345C64.235 45.64 62.698 45.334 61.1458 45.334V63.334ZM58.7746 62.8619C58.0229 62.5502 57.34 62.0934 56.765 61.5176L69.502 48.7987C68.4052 47.7004 67.1026 46.829 65.6688 46.2345L58.7746 62.8619ZM56.7707 61.5233L66.9716 71.7204L79.6972 58.9902L69.4963 48.793L56.7707 61.5233ZM79.6972 71.7204L89.8981 61.5233L77.1725 48.793L66.9716 58.9902L79.6972 71.7204ZM89.8993 61.5221C89.3246 62.0968 88.6423 62.5527 87.8914 62.8637L81.0031 46.2339C79.5701 46.8274 78.2681 47.6974 77.1713 48.7942L89.8993 61.5221ZM87.8914 62.8637C87.1405 63.1747 86.3357 63.3348 85.523 63.3348V45.3348C83.9719 45.3348 82.4361 45.6403 81.0031 46.2339L87.8914 62.8637ZM85.523 63.3348C84.7102 63.3348 83.9054 63.1747 83.1546 62.8637L90.0429 46.2339C88.6099 45.6403 87.074 45.3348 85.523 45.3348V63.3348ZM83.1546 62.8637C82.4037 62.5527 81.7214 62.0968 81.1467 61.5221L93.8746 48.7942C92.7779 47.6974 91.4758 46.8274 90.0429 46.2339L83.1546 62.8637ZM81.1467 61.5221C80.572 60.9474 80.1161 60.2651 79.8051 59.5142L96.4349 52.6259C95.8414 51.193 94.9714 49.8909 93.8746 48.7942L81.1467 61.5221ZM79.8051 59.5142C79.4941 58.7634 79.334 57.9586 79.334 57.1458L97.334 57.1458C97.334 55.5947 97.0285 54.0589 96.4349 52.6259L79.8051 59.5142ZM79.334 57.1458C79.334 56.333 79.4941 55.5282 79.8051 54.7774L96.4349 61.6657C97.0285 60.2327 97.334 58.6969 97.334 57.1458L79.334 57.1458ZM79.8051 54.7774C80.1161 54.0265 80.572 53.3442 81.1467 52.7695L93.8746 65.4975C94.9714 64.4007 95.8414 63.0987 96.4349 61.6657L79.8051 54.7774ZM81.1455 52.7707L70.9484 62.9716L83.6786 75.6972L93.8758 65.4963L81.1455 52.7707ZM70.9484 75.6972L81.1455 85.8981L93.8758 73.1725L83.6786 62.9716L70.9484 75.6972ZM81.1467 85.8993C79.9861 84.7386 79.334 83.1644 79.334 81.523H97.334C97.334 78.3905 96.0896 75.3863 93.8746 73.1713L81.1467 85.8993ZM79.334 81.523C79.334 79.8815 79.9861 78.3073 81.1467 77.1467L93.8746 89.8746C96.0896 87.6596 97.334 84.6555 97.334 81.523H79.334ZM81.1467 77.1467C82.3073 75.9861 83.8815 75.334 85.523 75.334V93.334C88.6555 93.334 91.6596 92.0896 93.8746 89.8746L81.1467 77.1467ZM85.523 75.334C87.1644 75.334 88.7386 75.9861 89.8993 77.1467L77.1713 89.8746C79.3863 92.0896 82.3905 93.334 85.523 93.334V75.334ZM89.8981 77.1455L79.6972 66.9484L66.9716 79.6786L77.1725 89.8758L89.8981 77.1455ZM66.9716 66.9484L56.7707 77.1455L69.4963 89.8758L79.6972 79.6786L66.9716 66.9484ZM56.7695 77.1467C57.9302 75.9861 59.5044 75.334 61.1458 75.334V93.334C64.2783 93.334 67.2825 92.0896 69.4975 89.8746L56.7695 77.1467ZM61.1458 75.334C62.7873 75.334 64.3615 75.9861 65.5221 77.1467L52.7942 89.8746C55.0092 92.0896 58.0133 93.334 61.1458 93.334V75.334ZM65.5221 77.1467C66.6828 78.3074 67.3348 79.8816 67.3348 81.523H49.3348C49.3348 84.6555 50.5792 87.6596 52.7942 89.8746L65.5221 77.1467ZM67.3348 81.523C67.3348 83.1644 66.6828 84.7386 65.5221 85.8993L52.7942 73.1713C50.5792 75.3863 49.3348 78.3905 49.3348 81.523H67.3348ZM65.5233 85.8981L75.7204 75.6972L62.9902 62.9716L52.793 73.1725L65.5233 85.8981ZM75.7204 62.9716L65.5233 52.7707L52.793 65.4963L62.9902 75.6972L75.7204 62.9716ZM65.5176 52.765C66.0934 53.34 66.5502 54.0229 66.8619 54.7746L50.2345 61.6688C50.829 63.1026 51.7004 64.4052 52.7987 65.502L65.5176 52.765ZM66.8619 54.7746C67.1736 55.5263 67.334 56.332 67.334 57.1458H49.334C49.334 58.698 49.64 60.235 50.2345 61.6688L66.8619 54.7746ZM67.334 57.1458C67.334 57.9596 67.1736 58.7654 66.8619 59.517L50.2345 52.6228C49.64 54.0566 49.334 55.5936 49.334 57.1458H67.334ZM66.8619 59.517C66.5502 60.2687 66.0934 60.9516 65.5176 61.5266L52.7987 48.7896C51.7004 49.8864 50.829 51.189 50.2345 52.6228L66.8619 59.517Z" fill="white" mask="url(#path-2-outside-1_636_11373)"/>
<path d="M59.6889 53.6264C59.2266 53.8181 58.8066 54.0989 58.453 54.453C58.0989 54.8066 57.8181 55.2266 57.6264 55.6889C57.4346 56.1514 57.3359 56.6471 57.3359 57.1478C57.3359 57.6484 57.4346 58.1442 57.6264 58.6067C57.8181 59.069 58.099 59.489 58.4531 59.8427C58.4533 59.8428 58.4534 59.8429 58.4535 59.8431L67.9433 69.3364L58.453 78.8302C57.7383 79.5449 57.3368 80.5142 57.3368 81.5249C57.3368 82.5357 57.7383 83.505 58.453 84.2197L59.1543 83.5184L58.453 84.2197C59.1677 84.9344 60.137 85.3359 61.1478 85.3359C62.1584 85.3359 63.1277 84.9345 63.8424 84.2199C63.8425 84.2198 63.8425 84.2198 63.8426 84.2197L73.3364 74.7294L82.8302 84.2197C83.5449 84.9344 84.5142 85.3359 85.5249 85.3359C86.5357 85.3359 87.505 84.9344 88.2197 84.2197C88.9344 83.505 89.3359 82.5357 89.3359 81.5249C89.3359 80.5142 88.9344 79.5449 88.2197 78.8302L78.7294 69.3364L88.2197 59.8425C88.2198 59.8425 88.2198 59.8425 88.2199 59.8424C88.5737 59.4886 88.8543 59.0685 89.0458 58.6062C89.2374 58.1438 89.3359 57.6482 89.3359 57.1478C89.3359 56.6473 89.2374 56.1517 89.0458 55.6894C88.8543 55.227 88.5736 54.8069 88.2197 54.453C87.8658 54.0991 87.4457 53.8184 86.9833 53.6269C86.521 53.4353 86.0254 53.3368 85.5249 53.3368C85.0245 53.3368 84.5289 53.4353 84.0665 53.6269C83.6042 53.8184 83.184 54.0991 82.8302 54.453L73.3364 63.9433L63.8431 54.4535C63.8429 54.4534 63.8428 54.4533 63.8427 54.4531C63.489 54.099 63.069 53.8181 62.6067 53.6264C62.1442 53.4346 61.6484 53.3359 61.1478 53.3359C60.6471 53.3359 60.1514 53.4346 59.6889 53.6264Z" fill="#00AAD2" stroke="#00AAD2" stroke-width="2" stroke-linejoin="round"/>
</g>
<defs>
<clipPath id="clip0_636_11373">
<rect width="50" height="50" fill="white" transform="translate(50 46)"/>
</clipPath>
</defs>
</svg>
