<svg width="100" height="101" viewBox="0 0 100 101" fill="none" xmlns="http://www.w3.org/2000/svg">
<g id="mdi:note-search">
<path id="Vector" d="M62.5 4.88574H20.8333C16.2083 4.88574 12.5 8.59407 12.5 13.2191V50.5838C17.6087 45.6707 24.4387 42.9541 31.5263 43.0164C38.6139 43.0788 45.3951 45.9149 50.4167 50.9172C55.48 56.011 58.3221 62.9015 58.3221 70.0838C58.3221 77.2661 55.48 84.1566 50.4167 89.2505C48.9167 90.7088 47.2917 91.9172 45.5833 93.0005H79.1667C83.7917 93.0005 87.5 89.2922 87.5 84.6672V29.8857L62.5 4.88574ZM58.3333 34.0524V11.1357L81.25 34.0524H58.3333Z" fill="#E5E5E5"/>
<path id="Vector_2" d="M31.2493 51.333C20.8327 51.333 12.4993 59.6663 12.4993 70.083C12.4993 73.7497 13.541 77.208 15.3743 80.083L2.54102 92.9997L8.33268 98.7913L21.3327 85.9997C24.2077 87.7913 27.6243 88.833 31.2493 88.833C41.666 88.833 49.9994 80.4997 49.9994 70.083C49.9994 59.6663 41.666 51.333 31.2493 51.333ZM31.2493 80.4997C28.4867 80.4997 25.8372 79.4022 23.8837 77.4487C21.9301 75.4952 20.8327 72.8457 20.8327 70.083C20.8327 67.3203 21.9301 64.6708 23.8837 62.7173C25.8372 60.7638 28.4867 59.6663 31.2493 59.6663C34.012 59.6663 36.6615 60.7638 38.615 62.7173C40.5686 64.6708 41.666 67.3203 41.666 70.083C41.666 72.8457 40.5686 75.4952 38.615 77.4487C36.6615 79.4022 34.012 80.4997 31.2493 80.4997Z" fill="#5d7d2b"/>
</g>
</svg>
