<svg id="그룹_192" data-name="그룹 192" xmlns="http://www.w3.org/2000/svg" width="20" height="20.13" viewBox="0 0 20 20.13">
  <rect id="Container" width="20" height="20" fill="none"/>
  <path id="home" d="M16.1,4.839a.889.889,0,0,1,.99-.027l.04.027,8.194,6.038a1.066,1.066,0,0,1,.409.762l0,.051V23.4a.789.789,0,0,1-.745.787H8.288a.789.789,0,0,1-.787-.745V11.689a1.067,1.067,0,0,1,.37-.781l.04-.031Zm.515,1.019-7.994,5.89V23.06h4.616V14.166H20V23.06h4.616V11.748L16.62,5.858ZM19.1,15.066H14.143V23.06H19.1Z" transform="translate(-6.507 -4.357)"/>
  <path id="home_-_윤곽선" data-name="home - 윤곽선" d="M16.62,4.374a1.17,1.17,0,0,1,.639.186l.054.038,8.194,6.038a1.369,1.369,0,0,1,.53.985l0,.068V23.4a1.088,1.088,0,0,1-1.029,1.087l-.059,0H8.288A1.088,1.088,0,0,1,7.2,23.458l0-.059V11.689a1.37,1.37,0,0,1,.478-1.011l.054-.042L15.927,4.6A1.175,1.175,0,0,1,16.62,4.374Zm.309.687a.581.581,0,0,0-.309-.087.571.571,0,0,0-.337.106L8.059,11.141a.768.768,0,0,0-.259.548v11.74a.488.488,0,0,0,.487.457H24.982a.488.488,0,0,0,.457-.487V11.652a.768.768,0,0,0-.287-.534Zm-1.222.5h.913v.3l.178-.241,8.116,5.98V23.36H19.7V14.466H13.542V23.36H8.326V11.6l7.788-5.738ZM24.314,11.9,16.62,6.231,8.926,11.9V22.76h4.016V13.866H20.3V22.76h4.016ZM13.843,14.766H19.4V23.36H13.843Zm4.954.6H14.443V22.76H18.8Z" transform="translate(-6.507 -4.357)"/>
</svg>
