<svg id="Coupon" xmlns="http://www.w3.org/2000/svg" width="18" height="18" viewBox="0 0 18 18">
  <rect id="Container" width="18" height="18" fill="none"/>
  <path id="coupon-2" data-name="coupon" d="M19.094,14.5a.469.469,0,0,1,.468.438v3.153a.469.469,0,0,1-.469.469,2.195,2.195,0,0,0-2.112,1.5A2.231,2.231,0,0,0,19.04,23h.084a.468.468,0,0,1,.437.437v3.153a.469.469,0,0,1-.438.468H2.969a.469.469,0,0,1-.468-.438V14.969a.469.469,0,0,1,.438-.468H19.094Zm-.469.937H8.125v1.219H7.187V15.438H3.437V26.125h3.75V25.094h.938v1.031h10.5V23.907l-.032,0a3.169,3.169,0,0,1-2.542-4l.017-.06.019-.063A3.106,3.106,0,0,1,18.5,17.678l.065-.012.063-.01V15.438Zm-10.5,6.281v1.688H7.188V21.719Zm0-3.375v1.688H7.188V18.344Z" transform="translate(-1.938 -11.688)"/>
</svg>
