<svg id="Gift" xmlns="http://www.w3.org/2000/svg" width="18" height="18" viewBox="0 0 18 18">
  <rect id="Container" width="18" height="18" fill="none"/>
  <path id="gift-2" data-name="gift" d="M17.912,5a1.905,1.905,0,0,1,1.759,2.625h1.735a.657.657,0,0,1,.655.62v3.786a.657.657,0,0,1-.62.655h-.88v7.781a.657.657,0,0,1-.62.655H8.656A.657.657,0,0,1,8,20.5V12.688H7.156a.657.657,0,0,1-.655-.62V8.281a.657.657,0,0,1,.62-.655H8.892a1.9,1.9,0,0,1,2.673-2.392l.036.02.056.028.06.031c.139.073.334.185.585.34l.059.037c.549.343,1.189.79,1.92,1.354l-.07.054.238-.183c.626-.477,1.184-.865,1.671-1.174L16.2,5.69c.319-.2.554-.332.7-.408l.057-.029L17,5.234A1.894,1.894,0,0,1,17.843,5Zm-5.974,7.688h-3v7.5h3Zm3.75,0H12.875v7.5h2.813Zm3.938,0h-3v7.5h3ZM11.938,8.563h-4.5V11.75h4.5Zm3.75,0H12.875V11.75h2.813Zm5.438,0h-4.5V11.75h4.5ZM17.912,5.938a.957.957,0,0,0-.447.11l-.045.025-.02.012-.021.01c-.022.01-.074.037-.157.082-.128.07-.28.158-.456.267l-.067.042c-.47.294-1.015.671-1.634,1.14h3.488a.967.967,0,0,0-.641-1.688Zm-7.261,0a.967.967,0,0,0-.641,1.688H13.5c-.585-.443-1.1-.8-1.556-1.091l-.078-.049c-.181-.114-.339-.207-.473-.281l-.049-.027-.119-.063-.059-.028-.02-.012a.954.954,0,0,0-.492-.135Z" transform="translate(-5.188 -4.063)"/>
</svg>
