<svg id="Notification" xmlns="http://www.w3.org/2000/svg" width="96" height="96" viewBox="0 0 96 96">
  <rect id="Container" width="96" height="96" fill="none"/>
  <path id="합치기_1" data-name="합치기 1" d="M-4713.05-1905.775a13.972,13.972,0,0,1-4.123-8.225H-4737.8a4.167,4.167,0,0,1-3.431-1.716,4.14,4.14,0,0,1-.542-3.773l.009-.026.07-.192,8.272-21.14a3.73,3.73,0,0,0,.119-.6l0-.073v-9.667l.007-9.006a29.528,29.528,0,0,1,2.544-11.253,29.577,29.577,0,0,1,6.371-9.152,29.433,29.433,0,0,1,9.286-6.151A29.2,29.2,0,0,1-4703.8-1989h0a29.294,29.294,0,0,1,20.417,8.248,29.537,29.537,0,0,1,9.057,20.087v.008l.017.5.009,18.659a3.577,3.577,0,0,0,.108.611l.024.069,8.262,21.117a4.162,4.162,0,0,1-.349,3.819,4.137,4.137,0,0,1-3.316,1.879h-.022l-.207.006h-20.625a13.989,13.989,0,0,1-4.123,8.224A13.243,13.243,0,0,1-4703.8-1902,13.243,13.243,0,0,1-4713.05-1905.775Zm9.253-3.225a6.606,6.606,0,0,0,6.252-5h-12.507A6.561,6.561,0,0,0-4703.8-1909Zm-22.481-51.421-.012.359-.007,18.566a9.988,9.988,0,0,1-.487,2.874l-.008.025-.111.3L-4733.67-1921h59.744l-6.766-17.3a9.85,9.85,0,0,1-.569-2.5l0-.023-.025-.361-.008-.325v-3.97l-.007-14.546A22.436,22.436,0,0,0-4703.8-1982,22.485,22.485,0,0,0-4726.278-1960.421Z" transform="translate(4751.999 1994)"/>
</svg>
