<svg width="24" height="24" viewBox="0 0 24 24" fill="none" xmlns="http://www.w3.org/2000/svg">
    <g clip-path="url(#clip0_1_34)">
    <path d="M14.081 11.41L11.081 9.061C9.267 7.643 6.733 7.642 4.919 9.061L1.919 11.409C0.699 12.364 0 13.799 0 15.347V19.499C0 21.98 2.019 23.999 4.5 23.999H11.5C13.981 23.999 16 21.98 16 19.499V15.347C16 13.799 15.301 12.366 14.081 11.41ZM10 18C10 18.552 9.552 19 9 19H7C6.448 19 6 18.552 6 18V16C6 15.448 6.448 15 7 15H9C9.552 15 10 15.448 10 16V18ZM19 0H15C12.243 0 10 2.243 10 5V6.306C10.819 6.551 11.606 6.933 12.312 7.485L15.314 9.836C17.021 11.172 18 13.182 18 15.348V18C18 17.447 18.447 17 19 17H20C20.553 17 21 17.447 21 18C21 18.553 20.553 19 20 19H19C18.447 19 18 18.553 18 18V19.5C18 21.246 17.304 22.831 16.179 24H19C21.757 24 24 21.757 24 19V5C24 2.243 21.757 0 19 0ZM15 7H14C13.447 7 13 6.553 13 6C13 5.447 13.447 5 14 5H15C15.553 5 16 5.447 16 6C16 6.553 15.553 7 15 7ZM20 15H19C18.447 15 18 14.553 18 14C18 13.447 18.447 13 19 13H20C20.553 13 21 13.447 21 14C21 14.553 20.553 15 20 15ZM20 11H19C18.447 11 18 10.553 18 10C18 9.447 18.447 9 19 9H20C20.553 9 21 9.447 21 10C21 10.553 20.553 11 20 11ZM20 7H19C18.447 7 18 6.553 18 6C18 5.447 18.447 5 19 5H20C20.553 5 21 5.447 21 6C21 6.553 20.553 7 20 7Z" fill="#444444"/>
    </g>
    <defs>
    <clipPath id="clip0_1_34">
    <rect width="24" height="24" fill="white"/>
    </clipPath>
    </defs>
    </svg>
    