<svg width="101" height="100" viewBox="0 0 101 100" fill="none" xmlns="http://www.w3.org/2000/svg">
<path d="M84.7273 24H61V90H90V29.28C90 27.8797 89.4445 26.5367 88.4557 25.5465C87.4668 24.5563 86.1257 24 84.7273 24ZM71.5455 68.88H66.2727V63.6H71.5455V68.88ZM71.5455 55.68H66.2727V50.4H71.5455V55.68ZM71.5455 42.48H66.2727V37.2H71.5455V42.48ZM82.0909 68.88H76.8182V63.6H82.0909V68.88ZM82.0909 55.68H76.8182V50.4H82.0909V55.68ZM82.0909 42.48H76.8182V37.2H82.0909V42.48Z" fill="#999999"/>
<path d="M49.435 11H18.565C17.0891 11 15.6736 11.5882 14.63 12.6351C13.5863 13.6821 13 15.1021 13 16.5827V90H26.125V82.1H41.875V90H55V16.5827C55 15.1021 54.4137 13.6821 53.37 12.6351C52.3264 11.5882 50.9109 11 49.435 11ZM26.125 68.9333H20.875V63.6667H26.125V68.9333ZM26.125 55.7667H20.875V50.5H26.125V55.7667ZM26.125 42.6H20.875V37.3333H26.125V42.6ZM26.125 29.4333H20.875V24.1667H26.125V29.4333ZM36.625 68.9333H31.375V63.6667H36.625V68.9333ZM36.625 55.7667H31.375V50.5H36.625V55.7667ZM36.625 42.6H31.375V37.3333H36.625V42.6ZM36.625 29.4333H31.375V24.1667H36.625V29.4333ZM47.125 68.9333H41.875V63.6667H47.125V68.9333ZM47.125 55.7667H41.875V50.5H47.125V55.7667ZM47.125 42.6H41.875V37.3333H47.125V42.6ZM47.125 29.4333H41.875V24.1667H47.125V29.4333Z" fill="#999999"/>
</svg>
