<svg width="690" height="197" viewBox="0 0 690 197" fill="none" xmlns="http://www.w3.org/2000/svg">
    <mask id="path-1-inside-1_1_8904" fill="white">
    <path d="M0 0H690V40H0V0Z"/>
    </mask>
    <path d="M0 0H690V40H0V0Z" fill="white"/>
    <path d="M690 39H0V41H690V39Z" fill="#E5E5E5" mask="url(#path-1-inside-1_1_8904)"/>
    <mask id="path-3-inside-2_1_8904" fill="white">
    <path d="M0 40H690V80H0V40Z"/>
    </mask>
    <path d="M0 40H690V80H0V40Z" fill="white"/>
    <path d="M690 79H0V81H690V79Z" fill="#E5E5E5" mask="url(#path-3-inside-2_1_8904)"/>
    <mask id="path-5-inside-3_1_8904" fill="white">
    <path d="M0 80H690V120H0V80Z"/>
    </mask>
    <path d="M0 80H690V120H0V80Z" fill="white"/>
    <path d="M690 119H0V121H690V119Z" fill="#E5E5E5" mask="url(#path-5-inside-3_1_8904)"/>
    <mask id="path-7-inside-4_1_8904" fill="white">
    <path d="M0 120H690V160H0V120Z"/>
    </mask>
    <path d="M0 120H690V160H0V120Z" fill="white"/>
    <path d="M690 159H0V161H690V159Z" fill="#444444" mask="url(#path-7-inside-4_1_8904)"/>
    <g clip-path="url(#clip0_1_8904)">
    <rect x="40" width="16" height="150" rx="8" fill="white"/>
    <line x1="33.6464" y1="19.789" x2="61.9307" y2="-8.49525" stroke="#CCCCCC"/>
    <line x1="33.6464" y1="26.9316" x2="61.9307" y2="-1.35267" stroke="#CCCCCC"/>
    <line x1="33.6464" y1="33.9316" x2="61.9307" y2="5.64733" stroke="#CCCCCC"/>
    <line x1="33.6464" y1="40.9316" x2="61.9307" y2="12.6473" stroke="#CCCCCC"/>
    <line x1="33.6464" y1="47.9316" x2="61.9307" y2="19.6473" stroke="#CCCCCC"/>
    <line x1="33.6464" y1="54.9316" x2="61.9307" y2="26.6473" stroke="#CCCCCC"/>
    <line x1="33.6464" y1="61.9316" x2="61.9307" y2="33.6473" stroke="#CCCCCC"/>
    <line x1="33.6464" y1="68.9316" x2="61.9307" y2="40.6473" stroke="#CCCCCC"/>
    <line x1="33.6464" y1="75.9316" x2="61.9307" y2="47.6473" stroke="#CCCCCC"/>
    <line x1="33.6464" y1="82.9316" x2="61.9307" y2="54.6473" stroke="#CCCCCC"/>
    <line x1="33.6464" y1="89.9316" x2="61.9307" y2="61.6473" stroke="#CCCCCC"/>
    <line x1="33.6464" y1="96.9316" x2="61.9307" y2="68.6473" stroke="#CCCCCC"/>
    <line x1="33.6464" y1="103.932" x2="61.9307" y2="75.6473" stroke="#CCCCCC"/>
    <line x1="33.6464" y1="110.932" x2="61.9307" y2="82.6473" stroke="#CCCCCC"/>
    <line x1="33.6464" y1="117.932" x2="61.9307" y2="89.6473" stroke="#CCCCCC"/>
    <line x1="33.6464" y1="124.932" x2="61.9307" y2="96.6473" stroke="#CCCCCC"/>
    <line x1="33.6464" y1="131.932" x2="61.9307" y2="103.647" stroke="#CCCCCC"/>
    <line x1="33.6464" y1="138.932" x2="61.9307" y2="110.647" stroke="#CCCCCC"/>
    <line x1="33.6464" y1="145.932" x2="61.9307" y2="117.647" stroke="#CCCCCC"/>
    <line x1="33.6464" y1="152.932" x2="61.9307" y2="124.647" stroke="#CCCCCC"/>
    <line x1="33.6464" y1="159.932" x2="61.9307" y2="131.647" stroke="#CCCCCC"/>
    </g>
    <rect x="40.5" y="0.5" width="15" height="149" rx="7.5" stroke="#CCCCCC"/>
    <rect x="40" y="34" width="16" height="116" rx="8" fill="#00AAD2"/>
    <g clip-path="url(#clip1_1_8904)">
    <rect x="106" width="16" height="150" rx="8" fill="white"/>
    <line x1="99.6464" y1="19.789" x2="127.931" y2="-8.49525" stroke="#CCCCCC"/>
    <line x1="99.6464" y1="26.9316" x2="127.931" y2="-1.35267" stroke="#CCCCCC"/>
    <line x1="99.6464" y1="33.9316" x2="127.931" y2="5.64733" stroke="#CCCCCC"/>
    <line x1="99.6464" y1="40.9316" x2="127.931" y2="12.6473" stroke="#CCCCCC"/>
    <line x1="99.6464" y1="47.9316" x2="127.931" y2="19.6473" stroke="#CCCCCC"/>
    <line x1="99.6464" y1="54.9316" x2="127.931" y2="26.6473" stroke="#CCCCCC"/>
    <line x1="99.6464" y1="61.9316" x2="127.931" y2="33.6473" stroke="#CCCCCC"/>
    <line x1="99.6464" y1="68.9316" x2="127.931" y2="40.6473" stroke="#CCCCCC"/>
    <line x1="99.6464" y1="75.9316" x2="127.931" y2="47.6473" stroke="#CCCCCC"/>
    <line x1="99.6464" y1="82.9316" x2="127.931" y2="54.6473" stroke="#CCCCCC"/>
    <line x1="99.6464" y1="89.9316" x2="127.931" y2="61.6473" stroke="#CCCCCC"/>
    <line x1="99.6464" y1="96.9316" x2="127.931" y2="68.6473" stroke="#CCCCCC"/>
    <line x1="99.6464" y1="103.932" x2="127.931" y2="75.6473" stroke="#CCCCCC"/>
    <line x1="99.6464" y1="110.932" x2="127.931" y2="82.6473" stroke="#CCCCCC"/>
    <line x1="99.6464" y1="117.932" x2="127.931" y2="89.6473" stroke="#CCCCCC"/>
    <line x1="99.6464" y1="124.932" x2="127.931" y2="96.6473" stroke="#CCCCCC"/>
    <line x1="99.6464" y1="131.932" x2="127.931" y2="103.647" stroke="#CCCCCC"/>
    <line x1="99.6464" y1="138.932" x2="127.931" y2="110.647" stroke="#CCCCCC"/>
    <line x1="99.6464" y1="145.932" x2="127.931" y2="117.647" stroke="#CCCCCC"/>
    <line x1="99.6464" y1="152.932" x2="127.931" y2="124.647" stroke="#CCCCCC"/>
    <line x1="99.6464" y1="159.932" x2="127.931" y2="131.647" stroke="#CCCCCC"/>
    </g>
    <rect x="106.5" y="0.5" width="15" height="149" rx="7.5" stroke="#CCCCCC"/>
    <rect x="106" y="34" width="16" height="116" rx="8" fill="#00AAD2"/>
    <g clip-path="url(#clip2_1_8904)">
    <rect x="172" width="16" height="150" rx="8" fill="white"/>
    <line x1="165.646" y1="19.789" x2="193.931" y2="-8.49525" stroke="#CCCCCC"/>
    <line x1="165.646" y1="26.9316" x2="193.931" y2="-1.35267" stroke="#CCCCCC"/>
    <line x1="165.646" y1="33.9316" x2="193.931" y2="5.64733" stroke="#CCCCCC"/>
    <line x1="165.646" y1="40.9316" x2="193.931" y2="12.6473" stroke="#CCCCCC"/>
    <line x1="165.646" y1="47.9316" x2="193.931" y2="19.6473" stroke="#CCCCCC"/>
    <line x1="165.646" y1="54.9316" x2="193.931" y2="26.6473" stroke="#CCCCCC"/>
    <line x1="165.646" y1="61.9316" x2="193.931" y2="33.6473" stroke="#CCCCCC"/>
    <line x1="165.646" y1="68.9316" x2="193.931" y2="40.6473" stroke="#CCCCCC"/>
    <line x1="165.646" y1="75.9316" x2="193.931" y2="47.6473" stroke="#CCCCCC"/>
    <line x1="165.646" y1="82.9316" x2="193.931" y2="54.6473" stroke="#CCCCCC"/>
    <line x1="165.646" y1="89.9316" x2="193.931" y2="61.6473" stroke="#CCCCCC"/>
    <line x1="165.646" y1="96.9316" x2="193.931" y2="68.6473" stroke="#CCCCCC"/>
    <line x1="165.646" y1="103.932" x2="193.931" y2="75.6473" stroke="#CCCCCC"/>
    <line x1="165.646" y1="110.932" x2="193.931" y2="82.6473" stroke="#CCCCCC"/>
    <line x1="165.646" y1="117.932" x2="193.931" y2="89.6473" stroke="#CCCCCC"/>
    <line x1="165.646" y1="124.932" x2="193.931" y2="96.6473" stroke="#CCCCCC"/>
    <line x1="165.646" y1="131.932" x2="193.931" y2="103.647" stroke="#CCCCCC"/>
    <line x1="165.646" y1="138.932" x2="193.931" y2="110.647" stroke="#CCCCCC"/>
    <line x1="165.646" y1="145.932" x2="193.931" y2="117.647" stroke="#CCCCCC"/>
    <line x1="165.646" y1="152.932" x2="193.931" y2="124.647" stroke="#CCCCCC"/>
    <line x1="165.646" y1="159.932" x2="193.931" y2="131.647" stroke="#CCCCCC"/>
    </g>
    <rect x="172.5" y="0.5" width="15" height="149" rx="7.5" stroke="#CCCCCC"/>
    <rect x="172" y="34" width="16" height="116" rx="8" fill="#00AAD2"/>
    <g clip-path="url(#clip3_1_8904)">
    <rect x="238" width="16" height="150" rx="8" fill="white"/>
    <line x1="231.646" y1="19.789" x2="259.931" y2="-8.49525" stroke="#CCCCCC"/>
    <line x1="231.646" y1="26.9316" x2="259.931" y2="-1.35267" stroke="#CCCCCC"/>
    <line x1="231.646" y1="33.9316" x2="259.931" y2="5.64733" stroke="#CCCCCC"/>
    <line x1="231.646" y1="40.9316" x2="259.931" y2="12.6473" stroke="#CCCCCC"/>
    <line x1="231.646" y1="47.9316" x2="259.931" y2="19.6473" stroke="#CCCCCC"/>
    <line x1="231.646" y1="54.9316" x2="259.931" y2="26.6473" stroke="#CCCCCC"/>
    <line x1="231.646" y1="61.9316" x2="259.931" y2="33.6473" stroke="#CCCCCC"/>
    <line x1="231.646" y1="68.9316" x2="259.931" y2="40.6473" stroke="#CCCCCC"/>
    <line x1="231.646" y1="75.9316" x2="259.931" y2="47.6473" stroke="#CCCCCC"/>
    <line x1="231.646" y1="82.9316" x2="259.931" y2="54.6473" stroke="#CCCCCC"/>
    <line x1="231.646" y1="89.9316" x2="259.931" y2="61.6473" stroke="#CCCCCC"/>
    <line x1="231.646" y1="96.9316" x2="259.931" y2="68.6473" stroke="#CCCCCC"/>
    <line x1="231.646" y1="103.932" x2="259.931" y2="75.6473" stroke="#CCCCCC"/>
    <line x1="231.646" y1="110.932" x2="259.931" y2="82.6473" stroke="#CCCCCC"/>
    <line x1="231.646" y1="117.932" x2="259.931" y2="89.6473" stroke="#CCCCCC"/>
    <line x1="231.646" y1="124.932" x2="259.931" y2="96.6473" stroke="#CCCCCC"/>
    <line x1="231.646" y1="131.932" x2="259.931" y2="103.647" stroke="#CCCCCC"/>
    <line x1="231.646" y1="138.932" x2="259.931" y2="110.647" stroke="#CCCCCC"/>
    <line x1="231.646" y1="145.932" x2="259.931" y2="117.647" stroke="#CCCCCC"/>
    <line x1="231.646" y1="152.932" x2="259.931" y2="124.647" stroke="#CCCCCC"/>
    <line x1="231.646" y1="159.932" x2="259.931" y2="131.647" stroke="#CCCCCC"/>
    </g>
    <rect x="238.5" y="0.5" width="15" height="149" rx="7.5" stroke="#CCCCCC"/>
    <rect x="238" y="34" width="16" height="116" rx="8" fill="#00AAD2"/>
    <g clip-path="url(#clip4_1_8904)">
    <rect x="304" width="16" height="150" rx="8" fill="white"/>
    <line x1="297.646" y1="19.789" x2="325.931" y2="-8.49525" stroke="#CCCCCC"/>
    <line x1="297.646" y1="26.9316" x2="325.931" y2="-1.35267" stroke="#CCCCCC"/>
    <line x1="297.646" y1="33.9316" x2="325.931" y2="5.64733" stroke="#CCCCCC"/>
    <line x1="297.646" y1="40.9316" x2="325.931" y2="12.6473" stroke="#CCCCCC"/>
    <line x1="297.646" y1="47.9316" x2="325.931" y2="19.6473" stroke="#CCCCCC"/>
    <line x1="297.646" y1="54.9316" x2="325.931" y2="26.6473" stroke="#CCCCCC"/>
    <line x1="297.646" y1="61.9316" x2="325.931" y2="33.6473" stroke="#CCCCCC"/>
    <line x1="297.646" y1="68.9316" x2="325.931" y2="40.6473" stroke="#CCCCCC"/>
    <line x1="297.646" y1="75.9316" x2="325.931" y2="47.6473" stroke="#CCCCCC"/>
    <line x1="297.646" y1="82.9316" x2="325.931" y2="54.6473" stroke="#CCCCCC"/>
    <line x1="297.646" y1="89.9316" x2="325.931" y2="61.6473" stroke="#CCCCCC"/>
    <line x1="297.646" y1="96.9316" x2="325.931" y2="68.6473" stroke="#CCCCCC"/>
    <line x1="297.646" y1="103.932" x2="325.931" y2="75.6473" stroke="#CCCCCC"/>
    <line x1="297.646" y1="110.932" x2="325.931" y2="82.6473" stroke="#CCCCCC"/>
    <line x1="297.646" y1="117.932" x2="325.931" y2="89.6473" stroke="#CCCCCC"/>
    <line x1="297.646" y1="124.932" x2="325.931" y2="96.6473" stroke="#CCCCCC"/>
    <line x1="297.646" y1="131.932" x2="325.931" y2="103.647" stroke="#CCCCCC"/>
    <line x1="297.646" y1="138.932" x2="325.931" y2="110.647" stroke="#CCCCCC"/>
    <line x1="297.646" y1="145.932" x2="325.931" y2="117.647" stroke="#CCCCCC"/>
    <line x1="297.646" y1="152.932" x2="325.931" y2="124.647" stroke="#CCCCCC"/>
    <line x1="297.646" y1="159.932" x2="325.931" y2="131.647" stroke="#CCCCCC"/>
    </g>
    <rect x="304.5" y="0.5" width="15" height="149" rx="7.5" stroke="#CCCCCC"/>
    <rect x="304" y="34" width="16" height="116" rx="8" fill="#00AAD2"/>
    <g clip-path="url(#clip5_1_8904)">
    <rect x="370" width="16" height="150" rx="8" fill="white"/>
    <line x1="363.646" y1="19.789" x2="391.931" y2="-8.49525" stroke="#CCCCCC"/>
    <line x1="363.646" y1="26.9316" x2="391.931" y2="-1.35267" stroke="#CCCCCC"/>
    <line x1="363.646" y1="33.9316" x2="391.931" y2="5.64733" stroke="#CCCCCC"/>
    <line x1="363.646" y1="40.9316" x2="391.931" y2="12.6473" stroke="#CCCCCC"/>
    <line x1="363.646" y1="47.9316" x2="391.931" y2="19.6473" stroke="#CCCCCC"/>
    <line x1="363.646" y1="54.9316" x2="391.931" y2="26.6473" stroke="#CCCCCC"/>
    <line x1="363.646" y1="61.9316" x2="391.931" y2="33.6473" stroke="#CCCCCC"/>
    <line x1="363.646" y1="68.9316" x2="391.931" y2="40.6473" stroke="#CCCCCC"/>
    <line x1="363.646" y1="75.9316" x2="391.931" y2="47.6473" stroke="#CCCCCC"/>
    <line x1="363.646" y1="82.9316" x2="391.931" y2="54.6473" stroke="#CCCCCC"/>
    <line x1="363.646" y1="89.9316" x2="391.931" y2="61.6473" stroke="#CCCCCC"/>
    <line x1="363.646" y1="96.9316" x2="391.931" y2="68.6473" stroke="#CCCCCC"/>
    <line x1="363.646" y1="103.932" x2="391.931" y2="75.6473" stroke="#CCCCCC"/>
    <line x1="363.646" y1="110.932" x2="391.931" y2="82.6473" stroke="#CCCCCC"/>
    <line x1="363.646" y1="117.932" x2="391.931" y2="89.6473" stroke="#CCCCCC"/>
    <line x1="363.646" y1="124.932" x2="391.931" y2="96.6473" stroke="#CCCCCC"/>
    <line x1="363.646" y1="131.932" x2="391.931" y2="103.647" stroke="#CCCCCC"/>
    <line x1="363.646" y1="138.932" x2="391.931" y2="110.647" stroke="#CCCCCC"/>
    <line x1="363.646" y1="145.932" x2="391.931" y2="117.647" stroke="#CCCCCC"/>
    <line x1="363.646" y1="152.932" x2="391.931" y2="124.647" stroke="#CCCCCC"/>
    <line x1="363.646" y1="159.932" x2="391.931" y2="131.647" stroke="#CCCCCC"/>
    </g>
    <rect x="370.5" y="0.5" width="15" height="149" rx="7.5" stroke="#CCCCCC"/>
    <rect x="370" y="34" width="16" height="116" rx="8" fill="#00AAD2"/>
    <g clip-path="url(#clip6_1_8904)">
    <rect x="436" width="16" height="150" rx="8" fill="white"/>
    <line x1="429.646" y1="19.789" x2="457.931" y2="-8.49525" stroke="#CCCCCC"/>
    <line x1="429.646" y1="26.9316" x2="457.931" y2="-1.35267" stroke="#CCCCCC"/>
    <line x1="429.646" y1="33.9316" x2="457.931" y2="5.64733" stroke="#CCCCCC"/>
    <line x1="429.646" y1="40.9316" x2="457.931" y2="12.6473" stroke="#CCCCCC"/>
    <line x1="429.646" y1="47.9316" x2="457.931" y2="19.6473" stroke="#CCCCCC"/>
    <line x1="429.646" y1="54.9316" x2="457.931" y2="26.6473" stroke="#CCCCCC"/>
    <line x1="429.646" y1="61.9316" x2="457.931" y2="33.6473" stroke="#CCCCCC"/>
    <line x1="429.646" y1="68.9316" x2="457.931" y2="40.6473" stroke="#CCCCCC"/>
    <line x1="429.646" y1="75.9316" x2="457.931" y2="47.6473" stroke="#CCCCCC"/>
    <line x1="429.646" y1="82.9316" x2="457.931" y2="54.6473" stroke="#CCCCCC"/>
    <line x1="429.646" y1="89.9316" x2="457.931" y2="61.6473" stroke="#CCCCCC"/>
    <line x1="429.646" y1="96.9316" x2="457.931" y2="68.6473" stroke="#CCCCCC"/>
    <line x1="429.646" y1="103.932" x2="457.931" y2="75.6473" stroke="#CCCCCC"/>
    <line x1="429.646" y1="110.932" x2="457.931" y2="82.6473" stroke="#CCCCCC"/>
    <line x1="429.646" y1="117.932" x2="457.931" y2="89.6473" stroke="#CCCCCC"/>
    <line x1="429.646" y1="124.932" x2="457.931" y2="96.6473" stroke="#CCCCCC"/>
    <line x1="429.646" y1="131.932" x2="457.931" y2="103.647" stroke="#CCCCCC"/>
    <line x1="429.646" y1="138.932" x2="457.931" y2="110.647" stroke="#CCCCCC"/>
    <line x1="429.646" y1="145.932" x2="457.931" y2="117.647" stroke="#CCCCCC"/>
    <line x1="429.646" y1="152.932" x2="457.931" y2="124.647" stroke="#CCCCCC"/>
    <line x1="429.646" y1="159.932" x2="457.931" y2="131.647" stroke="#CCCCCC"/>
    </g>
    <rect x="436.5" y="0.5" width="15" height="149" rx="7.5" stroke="#CCCCCC"/>
    <rect x="436" y="34" width="16" height="116" rx="8" fill="#00AAD2"/>
    <g clip-path="url(#clip7_1_8904)">
    <rect x="502" width="16" height="150" rx="8" fill="white"/>
    <line x1="495.646" y1="19.789" x2="523.931" y2="-8.49525" stroke="#CCCCCC"/>
    <line x1="495.646" y1="26.9316" x2="523.931" y2="-1.35267" stroke="#CCCCCC"/>
    <line x1="495.646" y1="33.9316" x2="523.931" y2="5.64733" stroke="#CCCCCC"/>
    <line x1="495.646" y1="40.9316" x2="523.931" y2="12.6473" stroke="#CCCCCC"/>
    <line x1="495.646" y1="47.9316" x2="523.931" y2="19.6473" stroke="#CCCCCC"/>
    <line x1="495.646" y1="54.9316" x2="523.931" y2="26.6473" stroke="#CCCCCC"/>
    <line x1="495.646" y1="61.9316" x2="523.931" y2="33.6473" stroke="#CCCCCC"/>
    <line x1="495.646" y1="68.9316" x2="523.931" y2="40.6473" stroke="#CCCCCC"/>
    <line x1="495.646" y1="75.9316" x2="523.931" y2="47.6473" stroke="#CCCCCC"/>
    <line x1="495.646" y1="82.9316" x2="523.931" y2="54.6473" stroke="#CCCCCC"/>
    <line x1="495.646" y1="89.9316" x2="523.931" y2="61.6473" stroke="#CCCCCC"/>
    <line x1="495.646" y1="96.9316" x2="523.931" y2="68.6473" stroke="#CCCCCC"/>
    <line x1="495.646" y1="103.932" x2="523.931" y2="75.6473" stroke="#CCCCCC"/>
    <line x1="495.646" y1="110.932" x2="523.931" y2="82.6473" stroke="#CCCCCC"/>
    <line x1="495.646" y1="117.932" x2="523.931" y2="89.6473" stroke="#CCCCCC"/>
    <line x1="495.646" y1="124.932" x2="523.931" y2="96.6473" stroke="#CCCCCC"/>
    <line x1="495.646" y1="131.932" x2="523.931" y2="103.647" stroke="#CCCCCC"/>
    <line x1="495.646" y1="138.932" x2="523.931" y2="110.647" stroke="#CCCCCC"/>
    <line x1="495.646" y1="145.932" x2="523.931" y2="117.647" stroke="#CCCCCC"/>
    <line x1="495.646" y1="152.932" x2="523.931" y2="124.647" stroke="#CCCCCC"/>
    <line x1="495.646" y1="159.932" x2="523.931" y2="131.647" stroke="#CCCCCC"/>
    </g>
    <rect x="502.5" y="0.5" width="15" height="149" rx="7.5" stroke="#CCCCCC"/>
    <rect x="502" y="34" width="16" height="116" rx="8" fill="#00AAD2"/>
    <g clip-path="url(#clip8_1_8904)">
    <rect x="568" width="16" height="150" rx="8" fill="white"/>
    <line x1="561.646" y1="19.789" x2="589.931" y2="-8.49525" stroke="#CCCCCC"/>
    <line x1="561.646" y1="26.9316" x2="589.931" y2="-1.35267" stroke="#CCCCCC"/>
    <line x1="561.646" y1="33.9316" x2="589.931" y2="5.64733" stroke="#CCCCCC"/>
    <line x1="561.646" y1="40.9316" x2="589.931" y2="12.6473" stroke="#CCCCCC"/>
    <line x1="561.646" y1="47.9316" x2="589.931" y2="19.6473" stroke="#CCCCCC"/>
    <line x1="561.646" y1="54.9316" x2="589.931" y2="26.6473" stroke="#CCCCCC"/>
    <line x1="561.646" y1="61.9316" x2="589.931" y2="33.6473" stroke="#CCCCCC"/>
    <line x1="561.646" y1="68.9316" x2="589.931" y2="40.6473" stroke="#CCCCCC"/>
    <line x1="561.646" y1="75.9316" x2="589.931" y2="47.6473" stroke="#CCCCCC"/>
    <line x1="561.646" y1="82.9316" x2="589.931" y2="54.6473" stroke="#CCCCCC"/>
    <line x1="561.646" y1="89.9316" x2="589.931" y2="61.6473" stroke="#CCCCCC"/>
    <line x1="561.646" y1="96.9316" x2="589.931" y2="68.6473" stroke="#CCCCCC"/>
    <line x1="561.646" y1="103.932" x2="589.931" y2="75.6473" stroke="#CCCCCC"/>
    <line x1="561.646" y1="110.932" x2="589.931" y2="82.6473" stroke="#CCCCCC"/>
    <line x1="561.646" y1="117.932" x2="589.931" y2="89.6473" stroke="#CCCCCC"/>
    <line x1="561.646" y1="124.932" x2="589.931" y2="96.6473" stroke="#CCCCCC"/>
    <line x1="561.646" y1="131.932" x2="589.931" y2="103.647" stroke="#CCCCCC"/>
    <line x1="561.646" y1="138.932" x2="589.931" y2="110.647" stroke="#CCCCCC"/>
    <line x1="561.646" y1="145.932" x2="589.931" y2="117.647" stroke="#CCCCCC"/>
    <line x1="561.646" y1="152.932" x2="589.931" y2="124.647" stroke="#CCCCCC"/>
    <line x1="561.646" y1="159.932" x2="589.931" y2="131.647" stroke="#CCCCCC"/>
    </g>
    <rect x="568.5" y="0.5" width="15" height="149" rx="7.5" stroke="#CCCCCC"/>
    <rect x="568" y="34" width="16" height="116" rx="8" fill="#00AAD2"/>
    <g clip-path="url(#clip9_1_8904)">
    <rect x="634" width="16" height="150" rx="8" fill="white"/>
    <line x1="627.646" y1="19.789" x2="655.931" y2="-8.49525" stroke="#CCCCCC"/>
    <line x1="627.646" y1="26.9316" x2="655.931" y2="-1.35267" stroke="#CCCCCC"/>
    <line x1="627.646" y1="33.9316" x2="655.931" y2="5.64733" stroke="#CCCCCC"/>
    <line x1="627.646" y1="40.9316" x2="655.931" y2="12.6473" stroke="#CCCCCC"/>
    <line x1="627.646" y1="47.9316" x2="655.931" y2="19.6473" stroke="#CCCCCC"/>
    <line x1="627.646" y1="54.9316" x2="655.931" y2="26.6473" stroke="#CCCCCC"/>
    <line x1="627.646" y1="61.9316" x2="655.931" y2="33.6473" stroke="#CCCCCC"/>
    <line x1="627.646" y1="68.9316" x2="655.931" y2="40.6473" stroke="#CCCCCC"/>
    <line x1="627.646" y1="75.9316" x2="655.931" y2="47.6473" stroke="#CCCCCC"/>
    <line x1="627.646" y1="82.9316" x2="655.931" y2="54.6473" stroke="#CCCCCC"/>
    <line x1="627.646" y1="89.9316" x2="655.931" y2="61.6473" stroke="#CCCCCC"/>
    <line x1="627.646" y1="96.9316" x2="655.931" y2="68.6473" stroke="#CCCCCC"/>
    <line x1="627.646" y1="103.932" x2="655.931" y2="75.6473" stroke="#CCCCCC"/>
    <line x1="627.646" y1="110.932" x2="655.931" y2="82.6473" stroke="#CCCCCC"/>
    <line x1="627.646" y1="117.932" x2="655.931" y2="89.6473" stroke="#CCCCCC"/>
    <line x1="627.646" y1="124.932" x2="655.931" y2="96.6473" stroke="#CCCCCC"/>
    <line x1="627.646" y1="131.932" x2="655.931" y2="103.647" stroke="#CCCCCC"/>
    <line x1="627.646" y1="138.932" x2="655.931" y2="110.647" stroke="#CCCCCC"/>
    <line x1="627.646" y1="145.932" x2="655.931" y2="117.647" stroke="#CCCCCC"/>
    <line x1="627.646" y1="152.932" x2="655.931" y2="124.647" stroke="#CCCCCC"/>
    <line x1="627.646" y1="159.932" x2="655.931" y2="131.647" stroke="#CCCCCC"/>
    </g>
    <rect x="634.5" y="0.5" width="15" height="149" rx="7.5" stroke="#CCCCCC"/>
    <rect x="634" y="34" width="16" height="116" rx="8" fill="#00AAD2"/>
    <path d="M46.815 192.006H48.901V193H43.567V192.006H45.695V185.104L43.917 186.21L43.469 185.342L45.947 183.816H46.815V192.006Z" fill="black"/>
    <path d="M111.709 193.154C111.326 193.154 110.981 193.103 110.673 193C110.365 192.907 110.09 192.785 109.847 192.636C109.614 192.487 109.404 192.323 109.217 192.146C109.04 191.959 108.886 191.782 108.755 191.614L109.441 190.886C109.562 191.045 109.693 191.199 109.833 191.348C109.973 191.488 110.132 191.619 110.309 191.74C110.486 191.861 110.687 191.959 110.911 192.034C111.144 192.099 111.41 192.132 111.709 192.132C112.362 192.132 112.876 191.973 113.249 191.656C113.632 191.339 113.823 190.895 113.823 190.326C113.823 189.822 113.655 189.411 113.319 189.094C112.983 188.777 112.46 188.618 111.751 188.618H110.967V187.652H111.751C112.031 187.652 112.274 187.61 112.479 187.526C112.684 187.442 112.852 187.335 112.983 187.204C113.123 187.064 113.226 186.905 113.291 186.728C113.356 186.551 113.389 186.364 113.389 186.168C113.389 185.664 113.23 185.291 112.913 185.048C112.605 184.805 112.222 184.684 111.765 184.684C111.317 184.684 110.934 184.777 110.617 184.964C110.309 185.141 110.062 185.393 109.875 185.72L109.189 185.062C109.432 184.67 109.768 184.339 110.197 184.068C110.626 183.797 111.149 183.662 111.765 183.662C112.614 183.662 113.291 183.877 113.795 184.306C114.299 184.726 114.551 185.333 114.551 186.126C114.551 186.546 114.43 186.929 114.187 187.274C113.954 187.61 113.636 187.871 113.235 188.058C113.795 188.207 114.224 188.492 114.523 188.912C114.831 189.332 114.985 189.822 114.985 190.382C114.985 190.802 114.906 191.185 114.747 191.53C114.588 191.866 114.364 192.155 114.075 192.398C113.795 192.641 113.45 192.827 113.039 192.958C112.638 193.089 112.194 193.154 111.709 193.154Z" fill="black"/>
    <path d="M180.383 185.734C180.178 185.417 179.916 185.165 179.599 184.978C179.282 184.782 178.918 184.684 178.507 184.684C177.76 184.684 177.149 184.978 176.673 185.566C176.197 186.145 175.931 186.994 175.875 188.114C176.118 187.722 176.44 187.405 176.841 187.162C177.242 186.91 177.732 186.784 178.311 186.784C178.722 186.784 179.109 186.863 179.473 187.022C179.837 187.181 180.154 187.4 180.425 187.68C180.705 187.96 180.924 188.296 181.083 188.688C181.242 189.08 181.321 189.505 181.321 189.962C181.321 190.429 181.237 190.858 181.069 191.25C180.901 191.633 180.672 191.969 180.383 192.258C180.103 192.538 179.767 192.757 179.375 192.916C178.992 193.075 178.582 193.154 178.143 193.154C177.592 193.154 177.107 193.047 176.687 192.832C176.267 192.617 175.917 192.314 175.637 191.922C175.357 191.521 175.142 191.045 174.993 190.494C174.853 189.934 174.783 189.313 174.783 188.632C174.783 187.857 174.872 187.162 175.049 186.546C175.226 185.93 175.474 185.412 175.791 184.992C176.118 184.563 176.51 184.236 176.967 184.012C177.424 183.779 177.938 183.662 178.507 183.662C179.132 183.662 179.669 183.807 180.117 184.096C180.565 184.385 180.915 184.726 181.167 185.118L180.383 185.734ZM176.155 189.976C176.155 190.611 176.332 191.129 176.687 191.53C177.051 191.931 177.536 192.132 178.143 192.132C178.759 192.132 179.249 191.931 179.613 191.53C179.977 191.129 180.159 190.611 180.159 189.976C180.159 189.659 180.108 189.365 180.005 189.094C179.912 188.823 179.776 188.595 179.599 188.408C179.431 188.221 179.221 188.077 178.969 187.974C178.726 187.862 178.451 187.806 178.143 187.806C177.844 187.806 177.569 187.862 177.317 187.974C177.074 188.077 176.864 188.221 176.687 188.408C176.519 188.595 176.388 188.823 176.295 189.094C176.202 189.365 176.155 189.659 176.155 189.976Z" fill="black"/>
    <path d="M241.651 191.082C241.856 191.399 242.118 191.656 242.435 191.852C242.752 192.039 243.116 192.132 243.527 192.132C244.274 192.132 244.885 191.843 245.361 191.264C245.837 190.676 246.103 189.822 246.159 188.702C245.916 189.094 245.594 189.416 245.193 189.668C244.792 189.911 244.302 190.032 243.723 190.032C243.312 190.032 242.92 189.953 242.547 189.794C242.183 189.635 241.866 189.416 241.595 189.136C241.324 188.856 241.11 188.525 240.951 188.142C240.792 187.75 240.713 187.321 240.713 186.854C240.713 186.397 240.792 185.972 240.951 185.58C241.119 185.188 241.348 184.852 241.637 184.572C241.926 184.283 242.262 184.059 242.645 183.9C243.037 183.741 243.452 183.662 243.891 183.662C244.442 183.662 244.927 183.769 245.347 183.984C245.767 184.199 246.117 184.507 246.397 184.908C246.677 185.3 246.887 185.776 247.027 186.336C247.176 186.887 247.251 187.503 247.251 188.184C247.251 188.959 247.162 189.654 246.985 190.27C246.808 190.886 246.556 191.409 246.229 191.838C245.912 192.267 245.524 192.594 245.067 192.818C244.61 193.042 244.096 193.154 243.527 193.154C242.902 193.154 242.365 193.009 241.917 192.72C241.469 192.431 241.119 192.09 240.867 191.698L241.651 191.082ZM245.879 186.84C245.879 186.205 245.697 185.687 245.333 185.286C244.978 184.885 244.498 184.684 243.891 184.684C243.275 184.684 242.785 184.885 242.421 185.286C242.057 185.687 241.875 186.205 241.875 186.84C241.875 187.167 241.922 187.465 242.015 187.736C242.118 187.997 242.253 188.221 242.421 188.408C242.598 188.595 242.808 188.744 243.051 188.856C243.303 188.959 243.583 189.01 243.891 189.01C244.19 189.01 244.46 188.959 244.703 188.856C244.955 188.744 245.165 188.595 245.333 188.408C245.51 188.221 245.646 187.997 245.739 187.736C245.832 187.465 245.879 187.167 245.879 186.84Z" fill="black"/>
    <path d="M306.898 192.006H308.984V193H303.65V192.006H305.778V185.104L304 186.21L303.552 185.342L306.03 183.816H306.898V192.006ZM311.05 185.748C311.115 185.515 311.218 185.277 311.358 185.034C311.498 184.782 311.68 184.553 311.904 184.348C312.128 184.143 312.394 183.979 312.702 183.858C313.01 183.727 313.369 183.662 313.78 183.662C314.228 183.662 314.625 183.732 314.97 183.872C315.325 184.003 315.623 184.189 315.866 184.432C316.118 184.675 316.309 184.964 316.44 185.3C316.571 185.636 316.636 186.009 316.636 186.42C316.636 186.887 316.547 187.316 316.37 187.708C316.202 188.091 315.983 188.445 315.712 188.772C315.441 189.099 315.138 189.407 314.802 189.696C314.475 189.976 314.153 190.247 313.836 190.508C313.528 190.76 313.239 191.012 312.968 191.264C312.707 191.507 312.511 191.754 312.38 192.006H316.748V193H310.994V192.174C311.171 191.782 311.405 191.423 311.694 191.096C311.983 190.76 312.291 190.443 312.618 190.144C312.954 189.845 313.29 189.561 313.626 189.29C313.971 189.01 314.279 188.725 314.55 188.436C314.821 188.137 315.04 187.829 315.208 187.512C315.385 187.195 315.474 186.845 315.474 186.462C315.474 185.921 315.334 185.491 315.054 185.174C314.783 184.847 314.349 184.684 313.752 184.684C312.847 184.684 312.254 185.188 311.974 186.196L311.05 185.748Z" fill="black"/>
    <path d="M372.898 192.006H374.984V193H369.65V192.006H371.778V185.104L370 186.21L369.552 185.342L372.03 183.816H372.898V192.006ZM379.934 193.154C379.393 193.154 378.912 193.089 378.492 192.958C378.081 192.818 377.736 192.627 377.456 192.384C377.176 192.132 376.961 191.838 376.812 191.502C376.672 191.166 376.602 190.797 376.602 190.396C376.602 189.817 376.761 189.309 377.078 188.87C377.405 188.422 377.829 188.128 378.352 187.988C377.932 187.792 377.619 187.531 377.414 187.204C377.218 186.868 377.12 186.481 377.12 186.042C377.12 185.715 377.181 185.407 377.302 185.118C377.423 184.829 377.601 184.577 377.834 184.362C378.077 184.147 378.371 183.979 378.716 183.858C379.071 183.727 379.477 183.662 379.934 183.662C380.391 183.662 380.793 183.727 381.138 183.858C381.493 183.979 381.787 184.147 382.02 184.362C382.263 184.577 382.445 184.829 382.566 185.118C382.687 185.407 382.748 185.715 382.748 186.042C382.748 186.481 382.645 186.868 382.44 187.204C382.244 187.531 381.936 187.792 381.516 187.988C381.768 188.063 382.001 188.175 382.216 188.324C382.431 188.473 382.613 188.655 382.762 188.87C382.921 189.075 383.042 189.309 383.126 189.57C383.219 189.831 383.266 190.107 383.266 190.396C383.266 190.797 383.191 191.166 383.042 191.502C382.902 191.838 382.692 192.132 382.412 192.384C382.132 192.627 381.782 192.818 381.362 192.958C380.951 193.089 380.475 193.154 379.934 193.154ZM379.934 192.132C380.643 192.132 381.18 191.964 381.544 191.628C381.917 191.292 382.104 190.858 382.104 190.326C382.104 189.794 381.917 189.36 381.544 189.024C381.18 188.679 380.643 188.506 379.934 188.506C379.225 188.506 378.683 188.679 378.31 189.024C377.946 189.36 377.764 189.794 377.764 190.326C377.764 190.858 377.946 191.292 378.31 191.628C378.683 191.964 379.225 192.132 379.934 192.132ZM379.934 187.512C380.401 187.512 380.793 187.395 381.11 187.162C381.427 186.919 381.586 186.569 381.586 186.112C381.586 185.655 381.427 185.305 381.11 185.062C380.793 184.81 380.401 184.684 379.934 184.684C379.467 184.684 379.075 184.81 378.758 185.062C378.441 185.305 378.282 185.655 378.282 186.112C378.282 186.569 378.441 186.919 378.758 187.162C379.075 187.395 379.467 187.512 379.934 187.512Z" fill="black"/>
    <path d="M435.216 185.748C435.281 185.515 435.384 185.277 435.524 185.034C435.664 184.782 435.846 184.553 436.07 184.348C436.294 184.143 436.56 183.979 436.868 183.858C437.176 183.727 437.535 183.662 437.946 183.662C438.394 183.662 438.791 183.732 439.136 183.872C439.491 184.003 439.789 184.189 440.032 184.432C440.284 184.675 440.475 184.964 440.606 185.3C440.737 185.636 440.802 186.009 440.802 186.42C440.802 186.887 440.713 187.316 440.536 187.708C440.368 188.091 440.149 188.445 439.878 188.772C439.607 189.099 439.304 189.407 438.968 189.696C438.641 189.976 438.319 190.247 438.002 190.508C437.694 190.76 437.405 191.012 437.134 191.264C436.873 191.507 436.677 191.754 436.546 192.006H440.914V193H435.16V192.174C435.337 191.782 435.571 191.423 435.86 191.096C436.149 190.76 436.457 190.443 436.784 190.144C437.12 189.845 437.456 189.561 437.792 189.29C438.137 189.01 438.445 188.725 438.716 188.436C438.987 188.137 439.206 187.829 439.374 187.512C439.551 187.195 439.64 186.845 439.64 186.462C439.64 185.921 439.5 185.491 439.22 185.174C438.949 184.847 438.515 184.684 437.918 184.684C437.013 184.684 436.42 185.188 436.14 186.196L435.216 185.748ZM449.406 189.542V190.522H447.978V193H446.858V190.522H442.378V189.71L446.55 183.816H447.978V189.542H449.406ZM446.858 186.434C446.858 186.126 446.863 185.869 446.872 185.664C446.881 185.459 446.905 185.235 446.942 184.992H446.9C446.863 185.095 446.774 185.258 446.634 185.482C446.494 185.706 446.331 185.949 446.144 186.21L443.778 189.542H446.858V186.434Z" fill="black"/>
    <path d="M503.792 193.154C503.409 193.154 503.064 193.103 502.756 193C502.448 192.907 502.173 192.785 501.93 192.636C501.697 192.487 501.487 192.323 501.3 192.146C501.123 191.959 500.969 191.782 500.838 191.614L501.524 190.886C501.645 191.045 501.776 191.199 501.916 191.348C502.056 191.488 502.215 191.619 502.392 191.74C502.569 191.861 502.77 191.959 502.994 192.034C503.227 192.099 503.493 192.132 503.792 192.132C504.445 192.132 504.959 191.973 505.332 191.656C505.715 191.339 505.906 190.895 505.906 190.326C505.906 189.822 505.738 189.411 505.402 189.094C505.066 188.777 504.543 188.618 503.834 188.618H503.05V187.652H503.834C504.114 187.652 504.357 187.61 504.562 187.526C504.767 187.442 504.935 187.335 505.066 187.204C505.206 187.064 505.309 186.905 505.374 186.728C505.439 186.551 505.472 186.364 505.472 186.168C505.472 185.664 505.313 185.291 504.996 185.048C504.688 184.805 504.305 184.684 503.848 184.684C503.4 184.684 503.017 184.777 502.7 184.964C502.392 185.141 502.145 185.393 501.958 185.72L501.272 185.062C501.515 184.67 501.851 184.339 502.28 184.068C502.709 183.797 503.232 183.662 503.848 183.662C504.697 183.662 505.374 183.877 505.878 184.306C506.382 184.726 506.634 185.333 506.634 186.126C506.634 186.546 506.513 186.929 506.27 187.274C506.037 187.61 505.719 187.871 505.318 188.058C505.878 188.207 506.307 188.492 506.606 188.912C506.914 189.332 507.068 189.822 507.068 190.382C507.068 190.802 506.989 191.185 506.83 191.53C506.671 191.866 506.447 192.155 506.158 192.398C505.878 192.641 505.533 192.827 505.122 192.958C504.721 193.089 504.277 193.154 503.792 193.154ZM514.3 185.734C514.095 185.417 513.833 185.165 513.516 184.978C513.199 184.782 512.835 184.684 512.424 184.684C511.677 184.684 511.066 184.978 510.59 185.566C510.114 186.145 509.848 186.994 509.792 188.114C510.035 187.722 510.357 187.405 510.758 187.162C511.159 186.91 511.649 186.784 512.228 186.784C512.639 186.784 513.026 186.863 513.39 187.022C513.754 187.181 514.071 187.4 514.342 187.68C514.622 187.96 514.841 188.296 515 188.688C515.159 189.08 515.238 189.505 515.238 189.962C515.238 190.429 515.154 190.858 514.986 191.25C514.818 191.633 514.589 191.969 514.3 192.258C514.02 192.538 513.684 192.757 513.292 192.916C512.909 193.075 512.499 193.154 512.06 193.154C511.509 193.154 511.024 193.047 510.604 192.832C510.184 192.617 509.834 192.314 509.554 191.922C509.274 191.521 509.059 191.045 508.91 190.494C508.77 189.934 508.7 189.313 508.7 188.632C508.7 187.857 508.789 187.162 508.966 186.546C509.143 185.93 509.391 185.412 509.708 184.992C510.035 184.563 510.427 184.236 510.884 184.012C511.341 183.779 511.855 183.662 512.424 183.662C513.049 183.662 513.586 183.807 514.034 184.096C514.482 184.385 514.832 184.726 515.084 185.118L514.3 185.734ZM510.072 189.976C510.072 190.611 510.249 191.129 510.604 191.53C510.968 191.931 511.453 192.132 512.06 192.132C512.676 192.132 513.166 191.931 513.53 191.53C513.894 191.129 514.076 190.611 514.076 189.976C514.076 189.659 514.025 189.365 513.922 189.094C513.829 188.823 513.693 188.595 513.516 188.408C513.348 188.221 513.138 188.077 512.886 187.974C512.643 187.862 512.368 187.806 512.06 187.806C511.761 187.806 511.486 187.862 511.234 187.974C510.991 188.077 510.781 188.221 510.604 188.408C510.436 188.595 510.305 188.823 510.212 189.094C510.119 189.365 510.072 189.659 510.072 189.976Z" fill="black"/>
    <path d="M573.572 189.542V190.522H572.144V193H571.024V190.522H566.544V189.71L570.716 183.816H572.144V189.542H573.572ZM571.024 186.434C571.024 186.126 571.029 185.869 571.038 185.664C571.047 185.459 571.071 185.235 571.108 184.992H571.066C571.029 185.095 570.94 185.258 570.8 185.482C570.66 185.706 570.497 185.949 570.31 186.21L567.944 189.542H571.024V186.434ZM577.934 193.154C577.393 193.154 576.912 193.089 576.492 192.958C576.081 192.818 575.736 192.627 575.456 192.384C575.176 192.132 574.961 191.838 574.812 191.502C574.672 191.166 574.602 190.797 574.602 190.396C574.602 189.817 574.761 189.309 575.078 188.87C575.405 188.422 575.829 188.128 576.352 187.988C575.932 187.792 575.619 187.531 575.414 187.204C575.218 186.868 575.12 186.481 575.12 186.042C575.12 185.715 575.181 185.407 575.302 185.118C575.423 184.829 575.601 184.577 575.834 184.362C576.077 184.147 576.371 183.979 576.716 183.858C577.071 183.727 577.477 183.662 577.934 183.662C578.391 183.662 578.793 183.727 579.138 183.858C579.493 183.979 579.787 184.147 580.02 184.362C580.263 184.577 580.445 184.829 580.566 185.118C580.687 185.407 580.748 185.715 580.748 186.042C580.748 186.481 580.645 186.868 580.44 187.204C580.244 187.531 579.936 187.792 579.516 187.988C579.768 188.063 580.001 188.175 580.216 188.324C580.431 188.473 580.613 188.655 580.762 188.87C580.921 189.075 581.042 189.309 581.126 189.57C581.219 189.831 581.266 190.107 581.266 190.396C581.266 190.797 581.191 191.166 581.042 191.502C580.902 191.838 580.692 192.132 580.412 192.384C580.132 192.627 579.782 192.818 579.362 192.958C578.951 193.089 578.475 193.154 577.934 193.154ZM577.934 192.132C578.643 192.132 579.18 191.964 579.544 191.628C579.917 191.292 580.104 190.858 580.104 190.326C580.104 189.794 579.917 189.36 579.544 189.024C579.18 188.679 578.643 188.506 577.934 188.506C577.225 188.506 576.683 188.679 576.31 189.024C575.946 189.36 575.764 189.794 575.764 190.326C575.764 190.858 575.946 191.292 576.31 191.628C576.683 191.964 577.225 192.132 577.934 192.132ZM577.934 187.512C578.401 187.512 578.793 187.395 579.11 187.162C579.427 186.919 579.586 186.569 579.586 186.112C579.586 185.655 579.427 185.305 579.11 185.062C578.793 184.81 578.401 184.684 577.934 184.684C577.467 184.684 577.075 184.81 576.758 185.062C576.441 185.305 576.282 185.655 576.282 186.112C576.282 186.569 576.441 186.919 576.758 187.162C577.075 187.395 577.467 187.512 577.934 187.512Z" fill="black"/>
    <path d="M638.466 185.734C638.261 185.417 637.999 185.165 637.682 184.978C637.365 184.782 637.001 184.684 636.59 184.684C635.843 184.684 635.232 184.978 634.756 185.566C634.28 186.145 634.014 186.994 633.958 188.114C634.201 187.722 634.523 187.405 634.924 187.162C635.325 186.91 635.815 186.784 636.394 186.784C636.805 186.784 637.192 186.863 637.556 187.022C637.92 187.181 638.237 187.4 638.508 187.68C638.788 187.96 639.007 188.296 639.166 188.688C639.325 189.08 639.404 189.505 639.404 189.962C639.404 190.429 639.32 190.858 639.152 191.25C638.984 191.633 638.755 191.969 638.466 192.258C638.186 192.538 637.85 192.757 637.458 192.916C637.075 193.075 636.665 193.154 636.226 193.154C635.675 193.154 635.19 193.047 634.77 192.832C634.35 192.617 634 192.314 633.72 191.922C633.44 191.521 633.225 191.045 633.076 190.494C632.936 189.934 632.866 189.313 632.866 188.632C632.866 187.857 632.955 187.162 633.132 186.546C633.309 185.93 633.557 185.412 633.874 184.992C634.201 184.563 634.593 184.236 635.05 184.012C635.507 183.779 636.021 183.662 636.59 183.662C637.215 183.662 637.752 183.807 638.2 184.096C638.648 184.385 638.998 184.726 639.25 185.118L638.466 185.734ZM634.238 189.976C634.238 190.611 634.415 191.129 634.77 191.53C635.134 191.931 635.619 192.132 636.226 192.132C636.842 192.132 637.332 191.931 637.696 191.53C638.06 191.129 638.242 190.611 638.242 189.976C638.242 189.659 638.191 189.365 638.088 189.094C637.995 188.823 637.859 188.595 637.682 188.408C637.514 188.221 637.304 188.077 637.052 187.974C636.809 187.862 636.534 187.806 636.226 187.806C635.927 187.806 635.652 187.862 635.4 187.974C635.157 188.077 634.947 188.221 634.77 188.408C634.602 188.595 634.471 188.823 634.378 189.094C634.285 189.365 634.238 189.659 634.238 189.976ZM643.92 193.154C643.397 193.154 642.935 193.047 642.534 192.832C642.133 192.608 641.797 192.291 641.526 191.88C641.255 191.469 641.05 190.97 640.91 190.382C640.77 189.794 640.7 189.136 640.7 188.408C640.7 187.68 640.77 187.022 640.91 186.434C641.05 185.846 641.255 185.347 641.526 184.936C641.797 184.525 642.133 184.213 642.534 183.998C642.935 183.774 643.397 183.662 643.92 183.662C644.443 183.662 644.905 183.774 645.306 183.998C645.707 184.213 646.043 184.525 646.314 184.936C646.585 185.347 646.79 185.846 646.93 186.434C647.07 187.022 647.14 187.68 647.14 188.408C647.14 189.136 647.07 189.794 646.93 190.382C646.79 190.97 646.585 191.469 646.314 191.88C646.043 192.291 645.707 192.608 645.306 192.832C644.905 193.047 644.443 193.154 643.92 193.154ZM643.92 192.132C645.292 192.132 645.978 190.891 645.978 188.408C645.978 185.925 645.292 184.684 643.92 184.684C642.548 184.684 641.862 185.925 641.862 188.408C641.862 190.891 642.548 192.132 643.92 192.132Z" fill="black"/>
    <defs>
    <clipPath id="clip0_1_8904">
    <rect x="40" width="16" height="150" rx="8" fill="white"/>
    </clipPath>
    <clipPath id="clip1_1_8904">
    <rect x="106" width="16" height="150" rx="8" fill="white"/>
    </clipPath>
    <clipPath id="clip2_1_8904">
    <rect x="172" width="16" height="150" rx="8" fill="white"/>
    </clipPath>
    <clipPath id="clip3_1_8904">
    <rect x="238" width="16" height="150" rx="8" fill="white"/>
    </clipPath>
    <clipPath id="clip4_1_8904">
    <rect x="304" width="16" height="150" rx="8" fill="white"/>
    </clipPath>
    <clipPath id="clip5_1_8904">
    <rect x="370" width="16" height="150" rx="8" fill="white"/>
    </clipPath>
    <clipPath id="clip6_1_8904">
    <rect x="436" width="16" height="150" rx="8" fill="white"/>
    </clipPath>
    <clipPath id="clip7_1_8904">
    <rect x="502" width="16" height="150" rx="8" fill="white"/>
    </clipPath>
    <clipPath id="clip8_1_8904">
    <rect x="568" width="16" height="150" rx="8" fill="white"/>
    </clipPath>
    <clipPath id="clip9_1_8904">
    <rect x="634" width="16" height="150" rx="8" fill="white"/>
    </clipPath>
    </defs>
    </svg>
      