<svg width="690" height="197" viewBox="0 0 690 197" fill="none" xmlns="http://www.w3.org/2000/svg">
    <mask id="path-1-inside-1_1_7403" fill="white">
    <path d="M0 0H690V40H0V0Z"/>
    </mask>
    <path d="M0 0H690V40H0V0Z" fill="white"/>
    <path d="M690 39H0V41H690V39Z" fill="#E5E5E5" mask="url(#path-1-inside-1_1_7403)"/>
    <mask id="path-3-inside-2_1_7403" fill="white">
    <path d="M0 40H690V80H0V40Z"/>
    </mask>
    <path d="M0 40H690V80H0V40Z" fill="white"/>
    <path d="M690 79H0V81H690V79Z" fill="#E5E5E5" mask="url(#path-3-inside-2_1_7403)"/>
    <mask id="path-5-inside-3_1_7403" fill="white">
    <path d="M0 80H690V120H0V80Z"/>
    </mask>
    <path d="M0 80H690V120H0V80Z" fill="white"/>
    <path d="M690 119H0V121H690V119Z" fill="#E5E5E5" mask="url(#path-5-inside-3_1_7403)"/>
    <mask id="path-7-inside-4_1_7403" fill="white">
    <path d="M0 120H690V160H0V120Z"/>
    </mask>
    <path d="M0 120H690V160H0V120Z" fill="white"/>
    <path d="M690 159H0V161H690V159Z" fill="#444444" mask="url(#path-7-inside-4_1_7403)"/>
    <g clip-path="url(#clip0_1_7403)">
    <rect x="41" y="80" width="16" height="70" rx="8" fill="white"/>
    <line x1="34.6464" y1="80.9316" x2="62.9307" y2="52.6473" stroke="#CCCCCC"/>
    <line x1="34.6464" y1="87.9316" x2="62.9307" y2="59.6473" stroke="#CCCCCC"/>
    <line x1="34.6464" y1="94.9316" x2="62.9307" y2="66.6473" stroke="#CCCCCC"/>
    <line x1="34.6464" y1="101.932" x2="62.9307" y2="73.6473" stroke="#CCCCCC"/>
    <line x1="34.6464" y1="108.932" x2="62.9307" y2="80.6473" stroke="#CCCCCC"/>
    <line x1="34.6464" y1="115.932" x2="62.9307" y2="87.6473" stroke="#CCCCCC"/>
    <line x1="34.6464" y1="122.932" x2="62.9307" y2="94.6473" stroke="#CCCCCC"/>
    <line x1="34.6464" y1="129.932" x2="62.9307" y2="101.647" stroke="#CCCCCC"/>
    <line x1="34.6464" y1="136.932" x2="62.9307" y2="108.647" stroke="#CCCCCC"/>
    <line x1="34.6464" y1="143.932" x2="62.9307" y2="115.647" stroke="#CCCCCC"/>
    <line x1="34.6464" y1="150.932" x2="62.9307" y2="122.647" stroke="#CCCCCC"/>
    <line x1="34.6464" y1="157.932" x2="62.9307" y2="129.647" stroke="#CCCCCC"/>
    <line x1="34.6464" y1="164.932" x2="62.9307" y2="136.647" stroke="#CCCCCC"/>
    <line x1="34.6464" y1="171.932" x2="62.9307" y2="143.647" stroke="#CCCCCC"/>
    </g>
    <rect x="41.5" y="80.5" width="15" height="69" rx="7.5" stroke="#CCCCCC"/>
    <rect x="41" y="115" width="16" height="35" rx="8" fill="#00AAD2"/>
    <g clip-path="url(#clip1_1_7403)">
    <rect x="115" y="80" width="16" height="70" rx="8" fill="white"/>
    <line x1="108.646" y1="80.9316" x2="136.931" y2="52.6473" stroke="#CCCCCC"/>
    <line x1="108.646" y1="87.9316" x2="136.931" y2="59.6473" stroke="#CCCCCC"/>
    <line x1="108.646" y1="94.9316" x2="136.931" y2="66.6473" stroke="#CCCCCC"/>
    <line x1="108.646" y1="101.932" x2="136.931" y2="73.6473" stroke="#CCCCCC"/>
    <line x1="108.646" y1="108.932" x2="136.931" y2="80.6473" stroke="#CCCCCC"/>
    <line x1="108.646" y1="115.932" x2="136.931" y2="87.6473" stroke="#CCCCCC"/>
    <line x1="108.646" y1="122.932" x2="136.931" y2="94.6473" stroke="#CCCCCC"/>
    <line x1="108.646" y1="129.932" x2="136.931" y2="101.647" stroke="#CCCCCC"/>
    <line x1="108.646" y1="136.932" x2="136.931" y2="108.647" stroke="#CCCCCC"/>
    <line x1="108.646" y1="143.932" x2="136.931" y2="115.647" stroke="#CCCCCC"/>
    <line x1="108.646" y1="150.932" x2="136.931" y2="122.647" stroke="#CCCCCC"/>
    <line x1="108.646" y1="157.932" x2="136.931" y2="129.647" stroke="#CCCCCC"/>
    <line x1="108.646" y1="164.932" x2="136.931" y2="136.647" stroke="#CCCCCC"/>
    <line x1="108.646" y1="171.932" x2="136.931" y2="143.647" stroke="#CCCCCC"/>
    </g>
    <rect x="115.5" y="80.5" width="15" height="69" rx="7.5" stroke="#CCCCCC"/>
    <rect x="115" y="115" width="16" height="35" rx="8" fill="#00AAD2"/>
    <g clip-path="url(#clip2_1_7403)">
    <rect x="189" y="80" width="16" height="70" rx="8" fill="white"/>
    <line x1="182.646" y1="80.9316" x2="210.931" y2="52.6473" stroke="#CCCCCC"/>
    <line x1="182.646" y1="87.9316" x2="210.931" y2="59.6473" stroke="#CCCCCC"/>
    <line x1="182.646" y1="94.9316" x2="210.931" y2="66.6473" stroke="#CCCCCC"/>
    <line x1="182.646" y1="101.932" x2="210.931" y2="73.6473" stroke="#CCCCCC"/>
    <line x1="182.646" y1="108.932" x2="210.931" y2="80.6473" stroke="#CCCCCC"/>
    <line x1="182.646" y1="115.932" x2="210.931" y2="87.6473" stroke="#CCCCCC"/>
    <line x1="182.646" y1="122.932" x2="210.931" y2="94.6473" stroke="#CCCCCC"/>
    <line x1="182.646" y1="129.932" x2="210.931" y2="101.647" stroke="#CCCCCC"/>
    <line x1="182.646" y1="136.932" x2="210.931" y2="108.647" stroke="#CCCCCC"/>
    <line x1="182.646" y1="143.932" x2="210.931" y2="115.647" stroke="#CCCCCC"/>
    <line x1="182.646" y1="150.932" x2="210.931" y2="122.647" stroke="#CCCCCC"/>
    <line x1="182.646" y1="157.932" x2="210.931" y2="129.647" stroke="#CCCCCC"/>
    <line x1="182.646" y1="164.932" x2="210.931" y2="136.647" stroke="#CCCCCC"/>
    <line x1="182.646" y1="171.932" x2="210.931" y2="143.647" stroke="#CCCCCC"/>
    </g>
    <rect x="189.5" y="80.5" width="15" height="69" rx="7.5" stroke="#CCCCCC"/>
    <rect x="189" y="115" width="16" height="35" rx="8" fill="#00AAD2"/>
    <g clip-path="url(#clip3_1_7403)">
    <rect x="263" y="80" width="16" height="70" rx="8" fill="white"/>
    <line x1="256.646" y1="80.9316" x2="284.931" y2="52.6473" stroke="#CCCCCC"/>
    <line x1="256.646" y1="87.9316" x2="284.931" y2="59.6473" stroke="#CCCCCC"/>
    <line x1="256.646" y1="94.9316" x2="284.931" y2="66.6473" stroke="#CCCCCC"/>
    <line x1="256.646" y1="101.932" x2="284.931" y2="73.6473" stroke="#CCCCCC"/>
    <line x1="256.646" y1="108.932" x2="284.931" y2="80.6473" stroke="#CCCCCC"/>
    <line x1="256.646" y1="115.932" x2="284.931" y2="87.6473" stroke="#CCCCCC"/>
    <line x1="256.646" y1="122.932" x2="284.931" y2="94.6473" stroke="#CCCCCC"/>
    <line x1="256.646" y1="129.932" x2="284.931" y2="101.647" stroke="#CCCCCC"/>
    <line x1="256.646" y1="136.932" x2="284.931" y2="108.647" stroke="#CCCCCC"/>
    <line x1="256.646" y1="143.932" x2="284.931" y2="115.647" stroke="#CCCCCC"/>
    <line x1="256.646" y1="150.932" x2="284.931" y2="122.647" stroke="#CCCCCC"/>
    <line x1="256.646" y1="157.932" x2="284.931" y2="129.647" stroke="#CCCCCC"/>
    <line x1="256.646" y1="164.932" x2="284.931" y2="136.647" stroke="#CCCCCC"/>
    <line x1="256.646" y1="171.932" x2="284.931" y2="143.647" stroke="#CCCCCC"/>
    </g>
    <rect x="263.5" y="80.5" width="15" height="69" rx="7.5" stroke="#CCCCCC"/>
    <rect x="263" y="115" width="16" height="35" rx="8" fill="#00AAD2"/>
    <g clip-path="url(#clip4_1_7403)">
    <rect x="337" y="80" width="16" height="70" rx="8" fill="white"/>
    <line x1="330.646" y1="80.9316" x2="358.931" y2="52.6473" stroke="#CCCCCC"/>
    <line x1="330.646" y1="87.9316" x2="358.931" y2="59.6473" stroke="#CCCCCC"/>
    <line x1="330.646" y1="94.9316" x2="358.931" y2="66.6473" stroke="#CCCCCC"/>
    <line x1="330.646" y1="101.932" x2="358.931" y2="73.6473" stroke="#CCCCCC"/>
    <line x1="330.646" y1="108.932" x2="358.931" y2="80.6473" stroke="#CCCCCC"/>
    <line x1="330.646" y1="115.932" x2="358.931" y2="87.6473" stroke="#CCCCCC"/>
    <line x1="330.646" y1="122.932" x2="358.931" y2="94.6473" stroke="#CCCCCC"/>
    <line x1="330.646" y1="129.932" x2="358.931" y2="101.647" stroke="#CCCCCC"/>
    <line x1="330.646" y1="136.932" x2="358.931" y2="108.647" stroke="#CCCCCC"/>
    <line x1="330.646" y1="143.932" x2="358.931" y2="115.647" stroke="#CCCCCC"/>
    <line x1="330.646" y1="150.932" x2="358.931" y2="122.647" stroke="#CCCCCC"/>
    <line x1="330.646" y1="157.932" x2="358.931" y2="129.647" stroke="#CCCCCC"/>
    <line x1="330.646" y1="164.932" x2="358.931" y2="136.647" stroke="#CCCCCC"/>
    <line x1="330.646" y1="171.932" x2="358.931" y2="143.647" stroke="#CCCCCC"/>
    </g>
    <rect x="337.5" y="80.5" width="15" height="69" rx="7.5" stroke="#CCCCCC"/>
    <rect x="337" y="115" width="16" height="35" rx="8" fill="#00AAD2"/>
    <g clip-path="url(#clip5_1_7403)">
    <rect x="411" y="80" width="16" height="70" rx="8" fill="white"/>
    <line x1="404.646" y1="80.9316" x2="432.931" y2="52.6473" stroke="#CCCCCC"/>
    <line x1="404.646" y1="87.9316" x2="432.931" y2="59.6473" stroke="#CCCCCC"/>
    <line x1="404.646" y1="94.9316" x2="432.931" y2="66.6473" stroke="#CCCCCC"/>
    <line x1="404.646" y1="101.932" x2="432.931" y2="73.6473" stroke="#CCCCCC"/>
    <line x1="404.646" y1="108.932" x2="432.931" y2="80.6473" stroke="#CCCCCC"/>
    <line x1="404.646" y1="115.932" x2="432.931" y2="87.6473" stroke="#CCCCCC"/>
    <line x1="404.646" y1="122.932" x2="432.931" y2="94.6473" stroke="#CCCCCC"/>
    <line x1="404.646" y1="129.932" x2="432.931" y2="101.647" stroke="#CCCCCC"/>
    <line x1="404.646" y1="136.932" x2="432.931" y2="108.647" stroke="#CCCCCC"/>
    <line x1="404.646" y1="143.932" x2="432.931" y2="115.647" stroke="#CCCCCC"/>
    <line x1="404.646" y1="150.932" x2="432.931" y2="122.647" stroke="#CCCCCC"/>
    <line x1="404.646" y1="157.932" x2="432.931" y2="129.647" stroke="#CCCCCC"/>
    <line x1="404.646" y1="164.932" x2="432.931" y2="136.647" stroke="#CCCCCC"/>
    <line x1="404.646" y1="171.932" x2="432.931" y2="143.647" stroke="#CCCCCC"/>
    </g>
    <rect x="411.5" y="80.5" width="15" height="69" rx="7.5" stroke="#CCCCCC"/>
    <rect x="411" y="115" width="16" height="35" rx="8" fill="#00AAD2"/>
    <g clip-path="url(#clip6_1_7403)">
    <rect x="485" y="80" width="16" height="70" rx="8" fill="white"/>
    <line x1="478.646" y1="80.9316" x2="506.931" y2="52.6473" stroke="#CCCCCC"/>
    <line x1="478.646" y1="87.9316" x2="506.931" y2="59.6473" stroke="#CCCCCC"/>
    <line x1="478.646" y1="94.9316" x2="506.931" y2="66.6473" stroke="#CCCCCC"/>
    <line x1="478.646" y1="101.932" x2="506.931" y2="73.6473" stroke="#CCCCCC"/>
    <line x1="478.646" y1="108.932" x2="506.931" y2="80.6473" stroke="#CCCCCC"/>
    <line x1="478.646" y1="115.932" x2="506.931" y2="87.6473" stroke="#CCCCCC"/>
    <line x1="478.646" y1="122.932" x2="506.931" y2="94.6473" stroke="#CCCCCC"/>
    <line x1="478.646" y1="129.932" x2="506.931" y2="101.647" stroke="#CCCCCC"/>
    <line x1="478.646" y1="136.932" x2="506.931" y2="108.647" stroke="#CCCCCC"/>
    <line x1="478.646" y1="143.932" x2="506.931" y2="115.647" stroke="#CCCCCC"/>
    <line x1="478.646" y1="150.932" x2="506.931" y2="122.647" stroke="#CCCCCC"/>
    <line x1="478.646" y1="157.932" x2="506.931" y2="129.647" stroke="#CCCCCC"/>
    <line x1="478.646" y1="164.932" x2="506.931" y2="136.647" stroke="#CCCCCC"/>
    <line x1="478.646" y1="171.932" x2="506.931" y2="143.647" stroke="#CCCCCC"/>
    </g>
    <rect x="485.5" y="80.5" width="15" height="69" rx="7.5" stroke="#CCCCCC"/>
    <rect x="485" y="115" width="16" height="35" rx="8" fill="#00AAD2"/>
    <g clip-path="url(#clip7_1_7403)">
    <rect x="559" y="80" width="16" height="70" rx="8" fill="white"/>
    <line x1="552.646" y1="80.9316" x2="580.931" y2="52.6473" stroke="#CCCCCC"/>
    <line x1="552.646" y1="87.9316" x2="580.931" y2="59.6473" stroke="#CCCCCC"/>
    <line x1="552.646" y1="94.9316" x2="580.931" y2="66.6473" stroke="#CCCCCC"/>
    <line x1="552.646" y1="101.932" x2="580.931" y2="73.6473" stroke="#CCCCCC"/>
    <line x1="552.646" y1="108.932" x2="580.931" y2="80.6473" stroke="#CCCCCC"/>
    <line x1="552.646" y1="115.932" x2="580.931" y2="87.6473" stroke="#CCCCCC"/>
    <line x1="552.646" y1="122.932" x2="580.931" y2="94.6473" stroke="#CCCCCC"/>
    <line x1="552.646" y1="129.932" x2="580.931" y2="101.647" stroke="#CCCCCC"/>
    <line x1="552.646" y1="136.932" x2="580.931" y2="108.647" stroke="#CCCCCC"/>
    <line x1="552.646" y1="143.932" x2="580.931" y2="115.647" stroke="#CCCCCC"/>
    <line x1="552.646" y1="150.932" x2="580.931" y2="122.647" stroke="#CCCCCC"/>
    <line x1="552.646" y1="157.932" x2="580.931" y2="129.647" stroke="#CCCCCC"/>
    <line x1="552.646" y1="164.932" x2="580.931" y2="136.647" stroke="#CCCCCC"/>
    <line x1="552.646" y1="171.932" x2="580.931" y2="143.647" stroke="#CCCCCC"/>
    </g>
    <rect x="559.5" y="80.5" width="15" height="69" rx="7.5" stroke="#CCCCCC"/>
    <rect x="559" y="115" width="16" height="35" rx="8" fill="#00AAD2"/>
    <g clip-path="url(#clip8_1_7403)">
    <rect x="633" width="16" height="150" rx="8" fill="white"/>
    <line x1="626.646" y1="19.789" x2="654.931" y2="-8.49525" stroke="#CCCCCC"/>
    <line x1="626.646" y1="26.9316" x2="654.931" y2="-1.35267" stroke="#CCCCCC"/>
    <line x1="626.646" y1="33.9316" x2="654.931" y2="5.64733" stroke="#CCCCCC"/>
    <line x1="626.646" y1="40.9316" x2="654.931" y2="12.6473" stroke="#CCCCCC"/>
    <line x1="626.646" y1="47.9316" x2="654.931" y2="19.6473" stroke="#CCCCCC"/>
    <line x1="626.646" y1="54.9316" x2="654.931" y2="26.6473" stroke="#CCCCCC"/>
    <line x1="626.646" y1="61.9316" x2="654.931" y2="33.6473" stroke="#CCCCCC"/>
    <line x1="626.646" y1="68.9316" x2="654.931" y2="40.6473" stroke="#CCCCCC"/>
    <line x1="626.646" y1="75.9316" x2="654.931" y2="47.6473" stroke="#CCCCCC"/>
    <line x1="626.646" y1="82.9316" x2="654.931" y2="54.6473" stroke="#CCCCCC"/>
    <line x1="626.646" y1="89.9316" x2="654.931" y2="61.6473" stroke="#CCCCCC"/>
    <line x1="626.646" y1="96.9316" x2="654.931" y2="68.6473" stroke="#CCCCCC"/>
    <line x1="626.646" y1="103.932" x2="654.931" y2="75.6473" stroke="#CCCCCC"/>
    <line x1="626.646" y1="110.932" x2="654.931" y2="82.6473" stroke="#CCCCCC"/>
    <line x1="626.646" y1="117.932" x2="654.931" y2="89.6473" stroke="#CCCCCC"/>
    <line x1="626.646" y1="124.932" x2="654.931" y2="96.6473" stroke="#CCCCCC"/>
    <line x1="626.646" y1="131.932" x2="654.931" y2="103.647" stroke="#CCCCCC"/>
    <line x1="626.646" y1="138.932" x2="654.931" y2="110.647" stroke="#CCCCCC"/>
    <line x1="626.646" y1="145.932" x2="654.931" y2="117.647" stroke="#CCCCCC"/>
    <line x1="626.646" y1="152.932" x2="654.931" y2="124.647" stroke="#CCCCCC"/>
    <line x1="626.646" y1="159.932" x2="654.931" y2="131.647" stroke="#CCCCCC"/>
    </g>
    <rect x="633.5" y="0.5" width="15" height="149" rx="7.5" stroke="#CCCCCC"/>
    <rect x="633" y="80" width="16" height="70" rx="8" fill="#00AAD2"/>
    <path d="M48.815 192.006H50.901V193H45.567V192.006H47.695V185.104L45.917 186.21L45.469 185.342L47.947 183.816H48.815V192.006Z" fill="black"/>
    <path d="M125.383 185.734C125.178 185.417 124.916 185.165 124.599 184.978C124.282 184.782 123.918 184.684 123.507 184.684C122.76 184.684 122.149 184.978 121.673 185.566C121.197 186.145 120.931 186.994 120.875 188.114C121.118 187.722 121.44 187.405 121.841 187.162C122.242 186.91 122.732 186.784 123.311 186.784C123.722 186.784 124.109 186.863 124.473 187.022C124.837 187.181 125.154 187.4 125.425 187.68C125.705 187.96 125.924 188.296 126.083 188.688C126.242 189.08 126.321 189.505 126.321 189.962C126.321 190.429 126.237 190.858 126.069 191.25C125.901 191.633 125.672 191.969 125.383 192.258C125.103 192.538 124.767 192.757 124.375 192.916C123.992 193.075 123.582 193.154 123.143 193.154C122.592 193.154 122.107 193.047 121.687 192.832C121.267 192.617 120.917 192.314 120.637 191.922C120.357 191.521 120.142 191.045 119.993 190.494C119.853 189.934 119.783 189.313 119.783 188.632C119.783 187.857 119.872 187.162 120.049 186.546C120.226 185.93 120.474 185.412 120.791 184.992C121.118 184.563 121.51 184.236 121.967 184.012C122.424 183.779 122.938 183.662 123.507 183.662C124.132 183.662 124.669 183.807 125.117 184.096C125.565 184.385 125.915 184.726 126.167 185.118L125.383 185.734ZM121.155 189.976C121.155 190.611 121.332 191.129 121.687 191.53C122.051 191.931 122.536 192.132 123.143 192.132C123.759 192.132 124.249 191.931 124.613 191.53C124.977 191.129 125.159 190.611 125.159 189.976C125.159 189.659 125.108 189.365 125.005 189.094C124.912 188.823 124.776 188.595 124.599 188.408C124.431 188.221 124.221 188.077 123.969 187.974C123.726 187.862 123.451 187.806 123.143 187.806C122.844 187.806 122.569 187.862 122.317 187.974C122.074 188.077 121.864 188.221 121.687 188.408C121.519 188.595 121.388 188.823 121.295 189.094C121.202 189.365 121.155 189.659 121.155 189.976Z" fill="black"/>
    <path d="M193.898 192.006H195.984V193H190.65V192.006H192.778V185.104L191 186.21L190.552 185.342L193.03 183.816H193.898V192.006ZM198.05 185.748C198.115 185.515 198.218 185.277 198.358 185.034C198.498 184.782 198.68 184.553 198.904 184.348C199.128 184.143 199.394 183.979 199.702 183.858C200.01 183.727 200.369 183.662 200.78 183.662C201.228 183.662 201.625 183.732 201.97 183.872C202.325 184.003 202.623 184.189 202.866 184.432C203.118 184.675 203.309 184.964 203.44 185.3C203.571 185.636 203.636 186.009 203.636 186.42C203.636 186.887 203.547 187.316 203.37 187.708C203.202 188.091 202.983 188.445 202.712 188.772C202.441 189.099 202.138 189.407 201.802 189.696C201.475 189.976 201.153 190.247 200.836 190.508C200.528 190.76 200.239 191.012 199.968 191.264C199.707 191.507 199.511 191.754 199.38 192.006H203.748V193H197.994V192.174C198.171 191.782 198.405 191.423 198.694 191.096C198.983 190.76 199.291 190.443 199.618 190.144C199.954 189.845 200.29 189.561 200.626 189.29C200.971 189.01 201.279 188.725 201.55 188.436C201.821 188.137 202.04 187.829 202.208 187.512C202.385 187.195 202.474 186.845 202.474 186.462C202.474 185.921 202.334 185.491 202.054 185.174C201.783 184.847 201.349 184.684 200.752 184.684C199.847 184.684 199.254 185.188 198.974 186.196L198.05 185.748Z" fill="black"/>
    <path d="M267.898 192.006H269.984V193H264.65V192.006H266.778V185.104L265 186.21L264.552 185.342L267.03 183.816H267.898V192.006ZM274.934 193.154C274.393 193.154 273.912 193.089 273.492 192.958C273.081 192.818 272.736 192.627 272.456 192.384C272.176 192.132 271.961 191.838 271.812 191.502C271.672 191.166 271.602 190.797 271.602 190.396C271.602 189.817 271.761 189.309 272.078 188.87C272.405 188.422 272.829 188.128 273.352 187.988C272.932 187.792 272.619 187.531 272.414 187.204C272.218 186.868 272.12 186.481 272.12 186.042C272.12 185.715 272.181 185.407 272.302 185.118C272.423 184.829 272.601 184.577 272.834 184.362C273.077 184.147 273.371 183.979 273.716 183.858C274.071 183.727 274.477 183.662 274.934 183.662C275.391 183.662 275.793 183.727 276.138 183.858C276.493 183.979 276.787 184.147 277.02 184.362C277.263 184.577 277.445 184.829 277.566 185.118C277.687 185.407 277.748 185.715 277.748 186.042C277.748 186.481 277.645 186.868 277.44 187.204C277.244 187.531 276.936 187.792 276.516 187.988C276.768 188.063 277.001 188.175 277.216 188.324C277.431 188.473 277.613 188.655 277.762 188.87C277.921 189.075 278.042 189.309 278.126 189.57C278.219 189.831 278.266 190.107 278.266 190.396C278.266 190.797 278.191 191.166 278.042 191.502C277.902 191.838 277.692 192.132 277.412 192.384C277.132 192.627 276.782 192.818 276.362 192.958C275.951 193.089 275.475 193.154 274.934 193.154ZM274.934 192.132C275.643 192.132 276.18 191.964 276.544 191.628C276.917 191.292 277.104 190.858 277.104 190.326C277.104 189.794 276.917 189.36 276.544 189.024C276.18 188.679 275.643 188.506 274.934 188.506C274.225 188.506 273.683 188.679 273.31 189.024C272.946 189.36 272.764 189.794 272.764 190.326C272.764 190.858 272.946 191.292 273.31 191.628C273.683 191.964 274.225 192.132 274.934 192.132ZM274.934 187.512C275.401 187.512 275.793 187.395 276.11 187.162C276.427 186.919 276.586 186.569 276.586 186.112C276.586 185.655 276.427 185.305 276.11 185.062C275.793 184.81 275.401 184.684 274.934 184.684C274.467 184.684 274.075 184.81 273.758 185.062C273.441 185.305 273.282 185.655 273.282 186.112C273.282 186.569 273.441 186.919 273.758 187.162C274.075 187.395 274.467 187.512 274.934 187.512Z" fill="black"/>
    <path d="M338.216 185.748C338.281 185.515 338.384 185.277 338.524 185.034C338.664 184.782 338.846 184.553 339.07 184.348C339.294 184.143 339.56 183.979 339.868 183.858C340.176 183.727 340.535 183.662 340.946 183.662C341.394 183.662 341.791 183.732 342.136 183.872C342.491 184.003 342.789 184.189 343.032 184.432C343.284 184.675 343.475 184.964 343.606 185.3C343.737 185.636 343.802 186.009 343.802 186.42C343.802 186.887 343.713 187.316 343.536 187.708C343.368 188.091 343.149 188.445 342.878 188.772C342.607 189.099 342.304 189.407 341.968 189.696C341.641 189.976 341.319 190.247 341.002 190.508C340.694 190.76 340.405 191.012 340.134 191.264C339.873 191.507 339.677 191.754 339.546 192.006H343.914V193H338.16V192.174C338.337 191.782 338.571 191.423 338.86 191.096C339.149 190.76 339.457 190.443 339.784 190.144C340.12 189.845 340.456 189.561 340.792 189.29C341.137 189.01 341.445 188.725 341.716 188.436C341.987 188.137 342.206 187.829 342.374 187.512C342.551 187.195 342.64 186.845 342.64 186.462C342.64 185.921 342.5 185.491 342.22 185.174C341.949 184.847 341.515 184.684 340.918 184.684C340.013 184.684 339.42 185.188 339.14 186.196L338.216 185.748ZM352.406 189.542V190.522H350.978V193H349.858V190.522H345.378V189.71L349.55 183.816H350.978V189.542H352.406ZM349.858 186.434C349.858 186.126 349.863 185.869 349.872 185.664C349.881 185.459 349.905 185.235 349.942 184.992H349.9C349.863 185.095 349.774 185.258 349.634 185.482C349.494 185.706 349.331 185.949 349.144 186.21L346.778 189.542H349.858V186.434Z" fill="black"/>
    <path d="M414.792 193.154C414.409 193.154 414.064 193.103 413.756 193C413.448 192.907 413.173 192.785 412.93 192.636C412.697 192.487 412.487 192.323 412.3 192.146C412.123 191.959 411.969 191.782 411.838 191.614L412.524 190.886C412.645 191.045 412.776 191.199 412.916 191.348C413.056 191.488 413.215 191.619 413.392 191.74C413.569 191.861 413.77 191.959 413.994 192.034C414.227 192.099 414.493 192.132 414.792 192.132C415.445 192.132 415.959 191.973 416.332 191.656C416.715 191.339 416.906 190.895 416.906 190.326C416.906 189.822 416.738 189.411 416.402 189.094C416.066 188.777 415.543 188.618 414.834 188.618H414.05V187.652H414.834C415.114 187.652 415.357 187.61 415.562 187.526C415.767 187.442 415.935 187.335 416.066 187.204C416.206 187.064 416.309 186.905 416.374 186.728C416.439 186.551 416.472 186.364 416.472 186.168C416.472 185.664 416.313 185.291 415.996 185.048C415.688 184.805 415.305 184.684 414.848 184.684C414.4 184.684 414.017 184.777 413.7 184.964C413.392 185.141 413.145 185.393 412.958 185.72L412.272 185.062C412.515 184.67 412.851 184.339 413.28 184.068C413.709 183.797 414.232 183.662 414.848 183.662C415.697 183.662 416.374 183.877 416.878 184.306C417.382 184.726 417.634 185.333 417.634 186.126C417.634 186.546 417.513 186.929 417.27 187.274C417.037 187.61 416.719 187.871 416.318 188.058C416.878 188.207 417.307 188.492 417.606 188.912C417.914 189.332 418.068 189.822 418.068 190.382C418.068 190.802 417.989 191.185 417.83 191.53C417.671 191.866 417.447 192.155 417.158 192.398C416.878 192.641 416.533 192.827 416.122 192.958C415.721 193.089 415.277 193.154 414.792 193.154ZM422.92 193.154C422.397 193.154 421.935 193.047 421.534 192.832C421.133 192.608 420.797 192.291 420.526 191.88C420.255 191.469 420.05 190.97 419.91 190.382C419.77 189.794 419.7 189.136 419.7 188.408C419.7 187.68 419.77 187.022 419.91 186.434C420.05 185.846 420.255 185.347 420.526 184.936C420.797 184.525 421.133 184.213 421.534 183.998C421.935 183.774 422.397 183.662 422.92 183.662C423.443 183.662 423.905 183.774 424.306 183.998C424.707 184.213 425.043 184.525 425.314 184.936C425.585 185.347 425.79 185.846 425.93 186.434C426.07 187.022 426.14 187.68 426.14 188.408C426.14 189.136 426.07 189.794 425.93 190.382C425.79 190.97 425.585 191.469 425.314 191.88C425.043 192.291 424.707 192.608 424.306 192.832C423.905 193.047 423.443 193.154 422.92 193.154ZM422.92 192.132C424.292 192.132 424.978 190.891 424.978 188.408C424.978 185.925 424.292 184.684 422.92 184.684C421.548 184.684 420.862 185.925 420.862 188.408C420.862 190.891 421.548 192.132 422.92 192.132Z" fill="black"/>
    <path d="M488.792 193.154C488.409 193.154 488.064 193.103 487.756 193C487.448 192.907 487.173 192.785 486.93 192.636C486.697 192.487 486.487 192.323 486.3 192.146C486.123 191.959 485.969 191.782 485.838 191.614L486.524 190.886C486.645 191.045 486.776 191.199 486.916 191.348C487.056 191.488 487.215 191.619 487.392 191.74C487.569 191.861 487.77 191.959 487.994 192.034C488.227 192.099 488.493 192.132 488.792 192.132C489.445 192.132 489.959 191.973 490.332 191.656C490.715 191.339 490.906 190.895 490.906 190.326C490.906 189.822 490.738 189.411 490.402 189.094C490.066 188.777 489.543 188.618 488.834 188.618H488.05V187.652H488.834C489.114 187.652 489.357 187.61 489.562 187.526C489.767 187.442 489.935 187.335 490.066 187.204C490.206 187.064 490.309 186.905 490.374 186.728C490.439 186.551 490.472 186.364 490.472 186.168C490.472 185.664 490.313 185.291 489.996 185.048C489.688 184.805 489.305 184.684 488.848 184.684C488.4 184.684 488.017 184.777 487.7 184.964C487.392 185.141 487.145 185.393 486.958 185.72L486.272 185.062C486.515 184.67 486.851 184.339 487.28 184.068C487.709 183.797 488.232 183.662 488.848 183.662C489.697 183.662 490.374 183.877 490.878 184.306C491.382 184.726 491.634 185.333 491.634 186.126C491.634 186.546 491.513 186.929 491.27 187.274C491.037 187.61 490.719 187.871 490.318 188.058C490.878 188.207 491.307 188.492 491.606 188.912C491.914 189.332 492.068 189.822 492.068 190.382C492.068 190.802 491.989 191.185 491.83 191.53C491.671 191.866 491.447 192.155 491.158 192.398C490.878 192.641 490.533 192.827 490.122 192.958C489.721 193.089 489.277 193.154 488.792 193.154ZM499.3 185.734C499.095 185.417 498.833 185.165 498.516 184.978C498.199 184.782 497.835 184.684 497.424 184.684C496.677 184.684 496.066 184.978 495.59 185.566C495.114 186.145 494.848 186.994 494.792 188.114C495.035 187.722 495.357 187.405 495.758 187.162C496.159 186.91 496.649 186.784 497.228 186.784C497.639 186.784 498.026 186.863 498.39 187.022C498.754 187.181 499.071 187.4 499.342 187.68C499.622 187.96 499.841 188.296 500 188.688C500.159 189.08 500.238 189.505 500.238 189.962C500.238 190.429 500.154 190.858 499.986 191.25C499.818 191.633 499.589 191.969 499.3 192.258C499.02 192.538 498.684 192.757 498.292 192.916C497.909 193.075 497.499 193.154 497.06 193.154C496.509 193.154 496.024 193.047 495.604 192.832C495.184 192.617 494.834 192.314 494.554 191.922C494.274 191.521 494.059 191.045 493.91 190.494C493.77 189.934 493.7 189.313 493.7 188.632C493.7 187.857 493.789 187.162 493.966 186.546C494.143 185.93 494.391 185.412 494.708 184.992C495.035 184.563 495.427 184.236 495.884 184.012C496.341 183.779 496.855 183.662 497.424 183.662C498.049 183.662 498.586 183.807 499.034 184.096C499.482 184.385 499.832 184.726 500.084 185.118L499.3 185.734ZM495.072 189.976C495.072 190.611 495.249 191.129 495.604 191.53C495.968 191.931 496.453 192.132 497.06 192.132C497.676 192.132 498.166 191.931 498.53 191.53C498.894 191.129 499.076 190.611 499.076 189.976C499.076 189.659 499.025 189.365 498.922 189.094C498.829 188.823 498.693 188.595 498.516 188.408C498.348 188.221 498.138 188.077 497.886 187.974C497.643 187.862 497.368 187.806 497.06 187.806C496.761 187.806 496.486 187.862 496.234 187.974C495.991 188.077 495.781 188.221 495.604 188.408C495.436 188.595 495.305 188.823 495.212 189.094C495.119 189.365 495.072 189.659 495.072 189.976Z" fill="black"/>
    <path d="M566.572 189.542V190.522H565.144V193H564.024V190.522H559.544V189.71L563.716 183.816H565.144V189.542H566.572ZM564.024 186.434C564.024 186.126 564.029 185.869 564.038 185.664C564.047 185.459 564.071 185.235 564.108 184.992H564.066C564.029 185.095 563.94 185.258 563.8 185.482C563.66 185.706 563.497 185.949 563.31 186.21L560.944 189.542H564.024V186.434ZM568.05 185.748C568.115 185.515 568.218 185.277 568.358 185.034C568.498 184.782 568.68 184.553 568.904 184.348C569.128 184.143 569.394 183.979 569.702 183.858C570.01 183.727 570.369 183.662 570.78 183.662C571.228 183.662 571.625 183.732 571.97 183.872C572.325 184.003 572.623 184.189 572.866 184.432C573.118 184.675 573.309 184.964 573.44 185.3C573.571 185.636 573.636 186.009 573.636 186.42C573.636 186.887 573.547 187.316 573.37 187.708C573.202 188.091 572.983 188.445 572.712 188.772C572.441 189.099 572.138 189.407 571.802 189.696C571.475 189.976 571.153 190.247 570.836 190.508C570.528 190.76 570.239 191.012 569.968 191.264C569.707 191.507 569.511 191.754 569.38 192.006H573.748V193H567.994V192.174C568.171 191.782 568.405 191.423 568.694 191.096C568.983 190.76 569.291 190.443 569.618 190.144C569.954 189.845 570.29 189.561 570.626 189.29C570.971 189.01 571.279 188.725 571.55 188.436C571.821 188.137 572.04 187.829 572.208 187.512C572.385 187.195 572.474 186.845 572.474 186.462C572.474 185.921 572.334 185.491 572.054 185.174C571.783 184.847 571.349 184.684 570.752 184.684C569.847 184.684 569.254 185.188 568.974 186.196L568.05 185.748Z" fill="black"/>
    <path d="M640.572 189.542V190.522H639.144V193H638.024V190.522H633.544V189.71L637.716 183.816H639.144V189.542H640.572ZM638.024 186.434C638.024 186.126 638.029 185.869 638.038 185.664C638.047 185.459 638.071 185.235 638.108 184.992H638.066C638.029 185.095 637.94 185.258 637.8 185.482C637.66 185.706 637.497 185.949 637.31 186.21L634.944 189.542H638.024V186.434ZM644.934 193.154C644.393 193.154 643.912 193.089 643.492 192.958C643.081 192.818 642.736 192.627 642.456 192.384C642.176 192.132 641.961 191.838 641.812 191.502C641.672 191.166 641.602 190.797 641.602 190.396C641.602 189.817 641.761 189.309 642.078 188.87C642.405 188.422 642.829 188.128 643.352 187.988C642.932 187.792 642.619 187.531 642.414 187.204C642.218 186.868 642.12 186.481 642.12 186.042C642.12 185.715 642.181 185.407 642.302 185.118C642.423 184.829 642.601 184.577 642.834 184.362C643.077 184.147 643.371 183.979 643.716 183.858C644.071 183.727 644.477 183.662 644.934 183.662C645.391 183.662 645.793 183.727 646.138 183.858C646.493 183.979 646.787 184.147 647.02 184.362C647.263 184.577 647.445 184.829 647.566 185.118C647.687 185.407 647.748 185.715 647.748 186.042C647.748 186.481 647.645 186.868 647.44 187.204C647.244 187.531 646.936 187.792 646.516 187.988C646.768 188.063 647.001 188.175 647.216 188.324C647.431 188.473 647.613 188.655 647.762 188.87C647.921 189.075 648.042 189.309 648.126 189.57C648.219 189.831 648.266 190.107 648.266 190.396C648.266 190.797 648.191 191.166 648.042 191.502C647.902 191.838 647.692 192.132 647.412 192.384C647.132 192.627 646.782 192.818 646.362 192.958C645.951 193.089 645.475 193.154 644.934 193.154ZM644.934 192.132C645.643 192.132 646.18 191.964 646.544 191.628C646.917 191.292 647.104 190.858 647.104 190.326C647.104 189.794 646.917 189.36 646.544 189.024C646.18 188.679 645.643 188.506 644.934 188.506C644.225 188.506 643.683 188.679 643.31 189.024C642.946 189.36 642.764 189.794 642.764 190.326C642.764 190.858 642.946 191.292 643.31 191.628C643.683 191.964 644.225 192.132 644.934 192.132ZM644.934 187.512C645.401 187.512 645.793 187.395 646.11 187.162C646.427 186.919 646.586 186.569 646.586 186.112C646.586 185.655 646.427 185.305 646.11 185.062C645.793 184.81 645.401 184.684 644.934 184.684C644.467 184.684 644.075 184.81 643.758 185.062C643.441 185.305 643.282 185.655 643.282 186.112C643.282 186.569 643.441 186.919 643.758 187.162C644.075 187.395 644.467 187.512 644.934 187.512Z" fill="black"/>
    <defs>
    <clipPath id="clip0_1_7403">
    <rect x="41" y="80" width="16" height="70" rx="8" fill="white"/>
    </clipPath>
    <clipPath id="clip1_1_7403">
    <rect x="115" y="80" width="16" height="70" rx="8" fill="white"/>
    </clipPath>
    <clipPath id="clip2_1_7403">
    <rect x="189" y="80" width="16" height="70" rx="8" fill="white"/>
    </clipPath>
    <clipPath id="clip3_1_7403">
    <rect x="263" y="80" width="16" height="70" rx="8" fill="white"/>
    </clipPath>
    <clipPath id="clip4_1_7403">
    <rect x="337" y="80" width="16" height="70" rx="8" fill="white"/>
    </clipPath>
    <clipPath id="clip5_1_7403">
    <rect x="411" y="80" width="16" height="70" rx="8" fill="white"/>
    </clipPath>
    <clipPath id="clip6_1_7403">
    <rect x="485" y="80" width="16" height="70" rx="8" fill="white"/>
    </clipPath>
    <clipPath id="clip7_1_7403">
    <rect x="559" y="80" width="16" height="70" rx="8" fill="white"/>
    </clipPath>
    <clipPath id="clip8_1_7403">
    <rect x="633" width="16" height="150" rx="8" fill="white"/>
    </clipPath>
    </defs>
    </svg>
    