<svg width="690" height="197" viewBox="0 0 690 197" fill="none" xmlns="http://www.w3.org/2000/svg">
    <mask id="path-1-inside-1_1_9433" fill="white">
    <path d="M0 0H690V40H0V0Z"/>
    </mask>
    <path d="M0 0H690V40H0V0Z" fill="white"/>
    <path d="M690 39H0V41H690V39Z" fill="#E5E5E5" mask="url(#path-1-inside-1_1_9433)"/>
    <mask id="path-3-inside-2_1_9433" fill="white">
    <path d="M0 40H690V80H0V40Z"/>
    </mask>
    <path d="M0 40H690V80H0V40Z" fill="white"/>
    <path d="M690 79H0V81H690V79Z" fill="#E5E5E5" mask="url(#path-3-inside-2_1_9433)"/>
    <mask id="path-5-inside-3_1_9433" fill="white">
    <path d="M0 80H690V120H0V80Z"/>
    </mask>
    <path d="M0 80H690V120H0V80Z" fill="white"/>
    <path d="M690 119H0V121H690V119Z" fill="#E5E5E5" mask="url(#path-5-inside-3_1_9433)"/>
    <mask id="path-7-inside-4_1_9433" fill="white">
    <path d="M0 120H690V160H0V120Z"/>
    </mask>
    <path d="M0 120H690V160H0V120Z" fill="white"/>
    <path d="M690 159H0V161H690V159Z" fill="#444444" mask="url(#path-7-inside-4_1_9433)"/>
    <g clip-path="url(#clip0_1_9433)">
    <rect x="40" width="16" height="150" rx="8" fill="white"/>
    <line x1="33.6464" y1="19.789" x2="61.9307" y2="-8.49525" stroke="#CCCCCC"/>
    <line x1="33.6464" y1="26.9316" x2="61.9307" y2="-1.35267" stroke="#CCCCCC"/>
    <line x1="33.6464" y1="33.9316" x2="61.9307" y2="5.64733" stroke="#CCCCCC"/>
    <line x1="33.6464" y1="40.9316" x2="61.9307" y2="12.6473" stroke="#CCCCCC"/>
    <line x1="33.6464" y1="47.9316" x2="61.9307" y2="19.6473" stroke="#CCCCCC"/>
    <line x1="33.6464" y1="54.9316" x2="61.9307" y2="26.6473" stroke="#CCCCCC"/>
    <line x1="33.6464" y1="61.9316" x2="61.9307" y2="33.6473" stroke="#CCCCCC"/>
    <line x1="33.6464" y1="68.9316" x2="61.9307" y2="40.6473" stroke="#CCCCCC"/>
    <line x1="33.6464" y1="75.9316" x2="61.9307" y2="47.6473" stroke="#CCCCCC"/>
    <line x1="33.6464" y1="82.9316" x2="61.9307" y2="54.6473" stroke="#CCCCCC"/>
    <line x1="33.6464" y1="89.9316" x2="61.9307" y2="61.6473" stroke="#CCCCCC"/>
    <line x1="33.6464" y1="96.9316" x2="61.9307" y2="68.6473" stroke="#CCCCCC"/>
    <line x1="33.6464" y1="103.932" x2="61.9307" y2="75.6473" stroke="#CCCCCC"/>
    <line x1="33.6464" y1="110.932" x2="61.9307" y2="82.6473" stroke="#CCCCCC"/>
    <line x1="33.6464" y1="117.932" x2="61.9307" y2="89.6473" stroke="#CCCCCC"/>
    <line x1="33.6464" y1="124.932" x2="61.9307" y2="96.6473" stroke="#CCCCCC"/>
    <line x1="33.6464" y1="131.932" x2="61.9307" y2="103.647" stroke="#CCCCCC"/>
    <line x1="33.6464" y1="138.932" x2="61.9307" y2="110.647" stroke="#CCCCCC"/>
    <line x1="33.6464" y1="145.932" x2="61.9307" y2="117.647" stroke="#CCCCCC"/>
    <line x1="33.6464" y1="152.932" x2="61.9307" y2="124.647" stroke="#CCCCCC"/>
    <line x1="33.6464" y1="159.932" x2="61.9307" y2="131.647" stroke="#CCCCCC"/>
    </g>
    <rect x="40.5" y="0.5" width="15" height="149" rx="7.5" stroke="#CCCCCC"/>
    <rect x="40" y="130" width="16" height="20" rx="8" fill="#00AAD2"/>
    <g clip-path="url(#clip1_1_9433)">
    <rect x="106" width="16" height="150" rx="8" fill="white"/>
    <line x1="99.6464" y1="19.789" x2="127.931" y2="-8.49525" stroke="#CCCCCC"/>
    <line x1="99.6464" y1="26.9316" x2="127.931" y2="-1.35267" stroke="#CCCCCC"/>
    <line x1="99.6464" y1="33.9316" x2="127.931" y2="5.64733" stroke="#CCCCCC"/>
    <line x1="99.6464" y1="40.9316" x2="127.931" y2="12.6473" stroke="#CCCCCC"/>
    <line x1="99.6464" y1="47.9316" x2="127.931" y2="19.6473" stroke="#CCCCCC"/>
    <line x1="99.6464" y1="54.9316" x2="127.931" y2="26.6473" stroke="#CCCCCC"/>
    <line x1="99.6464" y1="61.9316" x2="127.931" y2="33.6473" stroke="#CCCCCC"/>
    <line x1="99.6464" y1="68.9316" x2="127.931" y2="40.6473" stroke="#CCCCCC"/>
    <line x1="99.6464" y1="75.9316" x2="127.931" y2="47.6473" stroke="#CCCCCC"/>
    <line x1="99.6464" y1="82.9316" x2="127.931" y2="54.6473" stroke="#CCCCCC"/>
    <line x1="99.6464" y1="89.9316" x2="127.931" y2="61.6473" stroke="#CCCCCC"/>
    <line x1="99.6464" y1="96.9316" x2="127.931" y2="68.6473" stroke="#CCCCCC"/>
    <line x1="99.6464" y1="103.932" x2="127.931" y2="75.6473" stroke="#CCCCCC"/>
    <line x1="99.6464" y1="110.932" x2="127.931" y2="82.6473" stroke="#CCCCCC"/>
    <line x1="99.6464" y1="117.932" x2="127.931" y2="89.6473" stroke="#CCCCCC"/>
    <line x1="99.6464" y1="124.932" x2="127.931" y2="96.6473" stroke="#CCCCCC"/>
    <line x1="99.6464" y1="131.932" x2="127.931" y2="103.647" stroke="#CCCCCC"/>
    <line x1="99.6464" y1="138.932" x2="127.931" y2="110.647" stroke="#CCCCCC"/>
    <line x1="99.6464" y1="145.932" x2="127.931" y2="117.647" stroke="#CCCCCC"/>
    <line x1="99.6464" y1="152.932" x2="127.931" y2="124.647" stroke="#CCCCCC"/>
    <line x1="99.6464" y1="159.932" x2="127.931" y2="131.647" stroke="#CCCCCC"/>
    </g>
    <rect x="106.5" y="0.5" width="15" height="149" rx="7.5" stroke="#CCCCCC"/>
    <rect x="106" y="118" width="16" height="32" rx="8" fill="#00AAD2"/>
    <g clip-path="url(#clip2_1_9433)">
    <rect x="172" width="16" height="150" rx="8" fill="white"/>
    <line x1="165.646" y1="19.789" x2="193.931" y2="-8.49525" stroke="#CCCCCC"/>
    <line x1="165.646" y1="26.9316" x2="193.931" y2="-1.35267" stroke="#CCCCCC"/>
    <line x1="165.646" y1="33.9316" x2="193.931" y2="5.64733" stroke="#CCCCCC"/>
    <line x1="165.646" y1="40.9316" x2="193.931" y2="12.6473" stroke="#CCCCCC"/>
    <line x1="165.646" y1="47.9316" x2="193.931" y2="19.6473" stroke="#CCCCCC"/>
    <line x1="165.646" y1="54.9316" x2="193.931" y2="26.6473" stroke="#CCCCCC"/>
    <line x1="165.646" y1="61.9316" x2="193.931" y2="33.6473" stroke="#CCCCCC"/>
    <line x1="165.646" y1="68.9316" x2="193.931" y2="40.6473" stroke="#CCCCCC"/>
    <line x1="165.646" y1="75.9316" x2="193.931" y2="47.6473" stroke="#CCCCCC"/>
    <line x1="165.646" y1="82.9316" x2="193.931" y2="54.6473" stroke="#CCCCCC"/>
    <line x1="165.646" y1="89.9316" x2="193.931" y2="61.6473" stroke="#CCCCCC"/>
    <line x1="165.646" y1="96.9316" x2="193.931" y2="68.6473" stroke="#CCCCCC"/>
    <line x1="165.646" y1="103.932" x2="193.931" y2="75.6473" stroke="#CCCCCC"/>
    <line x1="165.646" y1="110.932" x2="193.931" y2="82.6473" stroke="#CCCCCC"/>
    <line x1="165.646" y1="117.932" x2="193.931" y2="89.6473" stroke="#CCCCCC"/>
    <line x1="165.646" y1="124.932" x2="193.931" y2="96.6473" stroke="#CCCCCC"/>
    <line x1="165.646" y1="131.932" x2="193.931" y2="103.647" stroke="#CCCCCC"/>
    <line x1="165.646" y1="138.932" x2="193.931" y2="110.647" stroke="#CCCCCC"/>
    <line x1="165.646" y1="145.932" x2="193.931" y2="117.647" stroke="#CCCCCC"/>
    <line x1="165.646" y1="152.932" x2="193.931" y2="124.647" stroke="#CCCCCC"/>
    <line x1="165.646" y1="159.932" x2="193.931" y2="131.647" stroke="#CCCCCC"/>
    </g>
    <rect x="172.5" y="0.5" width="15" height="149" rx="7.5" stroke="#CCCCCC"/>
    <rect x="172" y="106" width="16" height="44" rx="8" fill="#00AAD2"/>
    <g clip-path="url(#clip3_1_9433)">
    <rect x="238" width="16" height="150" rx="8" fill="white"/>
    <line x1="231.646" y1="19.789" x2="259.931" y2="-8.49525" stroke="#CCCCCC"/>
    <line x1="231.646" y1="26.9316" x2="259.931" y2="-1.35267" stroke="#CCCCCC"/>
    <line x1="231.646" y1="33.9316" x2="259.931" y2="5.64733" stroke="#CCCCCC"/>
    <line x1="231.646" y1="40.9316" x2="259.931" y2="12.6473" stroke="#CCCCCC"/>
    <line x1="231.646" y1="47.9316" x2="259.931" y2="19.6473" stroke="#CCCCCC"/>
    <line x1="231.646" y1="54.9316" x2="259.931" y2="26.6473" stroke="#CCCCCC"/>
    <line x1="231.646" y1="61.9316" x2="259.931" y2="33.6473" stroke="#CCCCCC"/>
    <line x1="231.646" y1="68.9316" x2="259.931" y2="40.6473" stroke="#CCCCCC"/>
    <line x1="231.646" y1="75.9316" x2="259.931" y2="47.6473" stroke="#CCCCCC"/>
    <line x1="231.646" y1="82.9316" x2="259.931" y2="54.6473" stroke="#CCCCCC"/>
    <line x1="231.646" y1="89.9316" x2="259.931" y2="61.6473" stroke="#CCCCCC"/>
    <line x1="231.646" y1="96.9316" x2="259.931" y2="68.6473" stroke="#CCCCCC"/>
    <line x1="231.646" y1="103.932" x2="259.931" y2="75.6473" stroke="#CCCCCC"/>
    <line x1="231.646" y1="110.932" x2="259.931" y2="82.6473" stroke="#CCCCCC"/>
    <line x1="231.646" y1="117.932" x2="259.931" y2="89.6473" stroke="#CCCCCC"/>
    <line x1="231.646" y1="124.932" x2="259.931" y2="96.6473" stroke="#CCCCCC"/>
    <line x1="231.646" y1="131.932" x2="259.931" y2="103.647" stroke="#CCCCCC"/>
    <line x1="231.646" y1="138.932" x2="259.931" y2="110.647" stroke="#CCCCCC"/>
    <line x1="231.646" y1="145.932" x2="259.931" y2="117.647" stroke="#CCCCCC"/>
    <line x1="231.646" y1="152.932" x2="259.931" y2="124.647" stroke="#CCCCCC"/>
    <line x1="231.646" y1="159.932" x2="259.931" y2="131.647" stroke="#CCCCCC"/>
    </g>
    <rect x="238.5" y="0.5" width="15" height="149" rx="7.5" stroke="#CCCCCC"/>
    <rect x="238" y="94" width="16" height="56" rx="8" fill="#00AAD2"/>
    <g clip-path="url(#clip4_1_9433)">
    <rect x="304" width="16" height="150" rx="8" fill="white"/>
    <line x1="297.646" y1="19.789" x2="325.931" y2="-8.49525" stroke="#CCCCCC"/>
    <line x1="297.646" y1="26.9316" x2="325.931" y2="-1.35267" stroke="#CCCCCC"/>
    <line x1="297.646" y1="33.9316" x2="325.931" y2="5.64733" stroke="#CCCCCC"/>
    <line x1="297.646" y1="40.9316" x2="325.931" y2="12.6473" stroke="#CCCCCC"/>
    <line x1="297.646" y1="47.9316" x2="325.931" y2="19.6473" stroke="#CCCCCC"/>
    <line x1="297.646" y1="54.9316" x2="325.931" y2="26.6473" stroke="#CCCCCC"/>
    <line x1="297.646" y1="61.9316" x2="325.931" y2="33.6473" stroke="#CCCCCC"/>
    <line x1="297.646" y1="68.9316" x2="325.931" y2="40.6473" stroke="#CCCCCC"/>
    <line x1="297.646" y1="75.9316" x2="325.931" y2="47.6473" stroke="#CCCCCC"/>
    <line x1="297.646" y1="82.9316" x2="325.931" y2="54.6473" stroke="#CCCCCC"/>
    <line x1="297.646" y1="89.9316" x2="325.931" y2="61.6473" stroke="#CCCCCC"/>
    <line x1="297.646" y1="96.9316" x2="325.931" y2="68.6473" stroke="#CCCCCC"/>
    <line x1="297.646" y1="103.932" x2="325.931" y2="75.6473" stroke="#CCCCCC"/>
    <line x1="297.646" y1="110.932" x2="325.931" y2="82.6473" stroke="#CCCCCC"/>
    <line x1="297.646" y1="117.932" x2="325.931" y2="89.6473" stroke="#CCCCCC"/>
    <line x1="297.646" y1="124.932" x2="325.931" y2="96.6473" stroke="#CCCCCC"/>
    <line x1="297.646" y1="131.932" x2="325.931" y2="103.647" stroke="#CCCCCC"/>
    <line x1="297.646" y1="138.932" x2="325.931" y2="110.647" stroke="#CCCCCC"/>
    <line x1="297.646" y1="145.932" x2="325.931" y2="117.647" stroke="#CCCCCC"/>
    <line x1="297.646" y1="152.932" x2="325.931" y2="124.647" stroke="#CCCCCC"/>
    <line x1="297.646" y1="159.932" x2="325.931" y2="131.647" stroke="#CCCCCC"/>
    </g>
    <rect x="304.5" y="0.5" width="15" height="149" rx="7.5" stroke="#CCCCCC"/>
    <rect x="304" y="82" width="16" height="68" rx="8" fill="#00AAD2"/>
    <g clip-path="url(#clip5_1_9433)">
    <rect x="370" width="16" height="150" rx="8" fill="white"/>
    <line x1="363.646" y1="19.789" x2="391.931" y2="-8.49525" stroke="#CCCCCC"/>
    <line x1="363.646" y1="26.9316" x2="391.931" y2="-1.35267" stroke="#CCCCCC"/>
    <line x1="363.646" y1="33.9316" x2="391.931" y2="5.64733" stroke="#CCCCCC"/>
    <line x1="363.646" y1="40.9316" x2="391.931" y2="12.6473" stroke="#CCCCCC"/>
    <line x1="363.646" y1="47.9316" x2="391.931" y2="19.6473" stroke="#CCCCCC"/>
    <line x1="363.646" y1="54.9316" x2="391.931" y2="26.6473" stroke="#CCCCCC"/>
    <line x1="363.646" y1="61.9316" x2="391.931" y2="33.6473" stroke="#CCCCCC"/>
    <line x1="363.646" y1="68.9316" x2="391.931" y2="40.6473" stroke="#CCCCCC"/>
    <line x1="363.646" y1="75.9316" x2="391.931" y2="47.6473" stroke="#CCCCCC"/>
    <line x1="363.646" y1="82.9316" x2="391.931" y2="54.6473" stroke="#CCCCCC"/>
    <line x1="363.646" y1="89.9316" x2="391.931" y2="61.6473" stroke="#CCCCCC"/>
    <line x1="363.646" y1="96.9316" x2="391.931" y2="68.6473" stroke="#CCCCCC"/>
    <line x1="363.646" y1="103.932" x2="391.931" y2="75.6473" stroke="#CCCCCC"/>
    <line x1="363.646" y1="110.932" x2="391.931" y2="82.6473" stroke="#CCCCCC"/>
    <line x1="363.646" y1="117.932" x2="391.931" y2="89.6473" stroke="#CCCCCC"/>
    <line x1="363.646" y1="124.932" x2="391.931" y2="96.6473" stroke="#CCCCCC"/>
    <line x1="363.646" y1="131.932" x2="391.931" y2="103.647" stroke="#CCCCCC"/>
    <line x1="363.646" y1="138.932" x2="391.931" y2="110.647" stroke="#CCCCCC"/>
    <line x1="363.646" y1="145.932" x2="391.931" y2="117.647" stroke="#CCCCCC"/>
    <line x1="363.646" y1="152.932" x2="391.931" y2="124.647" stroke="#CCCCCC"/>
    <line x1="363.646" y1="159.932" x2="391.931" y2="131.647" stroke="#CCCCCC"/>
    </g>
    <rect x="370.5" y="0.5" width="15" height="149" rx="7.5" stroke="#CCCCCC"/>
    <rect x="370" y="70" width="16" height="80" rx="8" fill="#00AAD2"/>
    <g clip-path="url(#clip6_1_9433)">
    <rect x="436" width="16" height="150" rx="8" fill="white"/>
    <line x1="429.646" y1="19.789" x2="457.931" y2="-8.49525" stroke="#CCCCCC"/>
    <line x1="429.646" y1="26.9316" x2="457.931" y2="-1.35267" stroke="#CCCCCC"/>
    <line x1="429.646" y1="33.9316" x2="457.931" y2="5.64733" stroke="#CCCCCC"/>
    <line x1="429.646" y1="40.9316" x2="457.931" y2="12.6473" stroke="#CCCCCC"/>
    <line x1="429.646" y1="47.9316" x2="457.931" y2="19.6473" stroke="#CCCCCC"/>
    <line x1="429.646" y1="54.9316" x2="457.931" y2="26.6473" stroke="#CCCCCC"/>
    <line x1="429.646" y1="61.9316" x2="457.931" y2="33.6473" stroke="#CCCCCC"/>
    <line x1="429.646" y1="68.9316" x2="457.931" y2="40.6473" stroke="#CCCCCC"/>
    <line x1="429.646" y1="75.9316" x2="457.931" y2="47.6473" stroke="#CCCCCC"/>
    <line x1="429.646" y1="82.9316" x2="457.931" y2="54.6473" stroke="#CCCCCC"/>
    <line x1="429.646" y1="89.9316" x2="457.931" y2="61.6473" stroke="#CCCCCC"/>
    <line x1="429.646" y1="96.9316" x2="457.931" y2="68.6473" stroke="#CCCCCC"/>
    <line x1="429.646" y1="103.932" x2="457.931" y2="75.6473" stroke="#CCCCCC"/>
    <line x1="429.646" y1="110.932" x2="457.931" y2="82.6473" stroke="#CCCCCC"/>
    <line x1="429.646" y1="117.932" x2="457.931" y2="89.6473" stroke="#CCCCCC"/>
    <line x1="429.646" y1="124.932" x2="457.931" y2="96.6473" stroke="#CCCCCC"/>
    <line x1="429.646" y1="131.932" x2="457.931" y2="103.647" stroke="#CCCCCC"/>
    <line x1="429.646" y1="138.932" x2="457.931" y2="110.647" stroke="#CCCCCC"/>
    <line x1="429.646" y1="145.932" x2="457.931" y2="117.647" stroke="#CCCCCC"/>
    <line x1="429.646" y1="152.932" x2="457.931" y2="124.647" stroke="#CCCCCC"/>
    <line x1="429.646" y1="159.932" x2="457.931" y2="131.647" stroke="#CCCCCC"/>
    </g>
    <rect x="436.5" y="0.5" width="15" height="149" rx="7.5" stroke="#CCCCCC"/>
    <rect x="436" y="58" width="16" height="92" rx="8" fill="#00AAD2"/>
    <g clip-path="url(#clip7_1_9433)">
    <rect x="502" width="16" height="150" rx="8" fill="white"/>
    <line x1="495.646" y1="19.789" x2="523.931" y2="-8.49525" stroke="#CCCCCC"/>
    <line x1="495.646" y1="26.9316" x2="523.931" y2="-1.35267" stroke="#CCCCCC"/>
    <line x1="495.646" y1="33.9316" x2="523.931" y2="5.64733" stroke="#CCCCCC"/>
    <line x1="495.646" y1="40.9316" x2="523.931" y2="12.6473" stroke="#CCCCCC"/>
    <line x1="495.646" y1="47.9316" x2="523.931" y2="19.6473" stroke="#CCCCCC"/>
    <line x1="495.646" y1="54.9316" x2="523.931" y2="26.6473" stroke="#CCCCCC"/>
    <line x1="495.646" y1="61.9316" x2="523.931" y2="33.6473" stroke="#CCCCCC"/>
    <line x1="495.646" y1="68.9316" x2="523.931" y2="40.6473" stroke="#CCCCCC"/>
    <line x1="495.646" y1="75.9316" x2="523.931" y2="47.6473" stroke="#CCCCCC"/>
    <line x1="495.646" y1="82.9316" x2="523.931" y2="54.6473" stroke="#CCCCCC"/>
    <line x1="495.646" y1="89.9316" x2="523.931" y2="61.6473" stroke="#CCCCCC"/>
    <line x1="495.646" y1="96.9316" x2="523.931" y2="68.6473" stroke="#CCCCCC"/>
    <line x1="495.646" y1="103.932" x2="523.931" y2="75.6473" stroke="#CCCCCC"/>
    <line x1="495.646" y1="110.932" x2="523.931" y2="82.6473" stroke="#CCCCCC"/>
    <line x1="495.646" y1="117.932" x2="523.931" y2="89.6473" stroke="#CCCCCC"/>
    <line x1="495.646" y1="124.932" x2="523.931" y2="96.6473" stroke="#CCCCCC"/>
    <line x1="495.646" y1="131.932" x2="523.931" y2="103.647" stroke="#CCCCCC"/>
    <line x1="495.646" y1="138.932" x2="523.931" y2="110.647" stroke="#CCCCCC"/>
    <line x1="495.646" y1="145.932" x2="523.931" y2="117.647" stroke="#CCCCCC"/>
    <line x1="495.646" y1="152.932" x2="523.931" y2="124.647" stroke="#CCCCCC"/>
    <line x1="495.646" y1="159.932" x2="523.931" y2="131.647" stroke="#CCCCCC"/>
    </g>
    <rect x="502.5" y="0.5" width="15" height="149" rx="7.5" stroke="#CCCCCC"/>
    <rect x="502" y="46" width="16" height="104" rx="8" fill="#00AAD2"/>
    <g clip-path="url(#clip8_1_9433)">
    <rect x="568" width="16" height="150" rx="8" fill="white"/>
    <line x1="561.646" y1="19.789" x2="589.931" y2="-8.49525" stroke="#CCCCCC"/>
    <line x1="561.646" y1="26.9316" x2="589.931" y2="-1.35267" stroke="#CCCCCC"/>
    <line x1="561.646" y1="33.9316" x2="589.931" y2="5.64733" stroke="#CCCCCC"/>
    <line x1="561.646" y1="40.9316" x2="589.931" y2="12.6473" stroke="#CCCCCC"/>
    <line x1="561.646" y1="47.9316" x2="589.931" y2="19.6473" stroke="#CCCCCC"/>
    <line x1="561.646" y1="54.9316" x2="589.931" y2="26.6473" stroke="#CCCCCC"/>
    <line x1="561.646" y1="61.9316" x2="589.931" y2="33.6473" stroke="#CCCCCC"/>
    <line x1="561.646" y1="68.9316" x2="589.931" y2="40.6473" stroke="#CCCCCC"/>
    <line x1="561.646" y1="75.9316" x2="589.931" y2="47.6473" stroke="#CCCCCC"/>
    <line x1="561.646" y1="82.9316" x2="589.931" y2="54.6473" stroke="#CCCCCC"/>
    <line x1="561.646" y1="89.9316" x2="589.931" y2="61.6473" stroke="#CCCCCC"/>
    <line x1="561.646" y1="96.9316" x2="589.931" y2="68.6473" stroke="#CCCCCC"/>
    <line x1="561.646" y1="103.932" x2="589.931" y2="75.6473" stroke="#CCCCCC"/>
    <line x1="561.646" y1="110.932" x2="589.931" y2="82.6473" stroke="#CCCCCC"/>
    <line x1="561.646" y1="117.932" x2="589.931" y2="89.6473" stroke="#CCCCCC"/>
    <line x1="561.646" y1="124.932" x2="589.931" y2="96.6473" stroke="#CCCCCC"/>
    <line x1="561.646" y1="131.932" x2="589.931" y2="103.647" stroke="#CCCCCC"/>
    <line x1="561.646" y1="138.932" x2="589.931" y2="110.647" stroke="#CCCCCC"/>
    <line x1="561.646" y1="145.932" x2="589.931" y2="117.647" stroke="#CCCCCC"/>
    <line x1="561.646" y1="152.932" x2="589.931" y2="124.647" stroke="#CCCCCC"/>
    <line x1="561.646" y1="159.932" x2="589.931" y2="131.647" stroke="#CCCCCC"/>
    </g>
    <rect x="568.5" y="0.5" width="15" height="149" rx="7.5" stroke="#CCCCCC"/>
    <rect x="568" y="34" width="16" height="116" rx="8" fill="#00AAD2"/>
    <g clip-path="url(#clip9_1_9433)">
    <rect x="634" width="16" height="150" rx="8" fill="white"/>
    <line x1="627.646" y1="19.789" x2="655.931" y2="-8.49525" stroke="#CCCCCC"/>
    <line x1="627.646" y1="26.9316" x2="655.931" y2="-1.35267" stroke="#CCCCCC"/>
    <line x1="627.646" y1="33.9316" x2="655.931" y2="5.64733" stroke="#CCCCCC"/>
    <line x1="627.646" y1="40.9316" x2="655.931" y2="12.6473" stroke="#CCCCCC"/>
    <line x1="627.646" y1="47.9316" x2="655.931" y2="19.6473" stroke="#CCCCCC"/>
    <line x1="627.646" y1="54.9316" x2="655.931" y2="26.6473" stroke="#CCCCCC"/>
    <line x1="627.646" y1="61.9316" x2="655.931" y2="33.6473" stroke="#CCCCCC"/>
    <line x1="627.646" y1="68.9316" x2="655.931" y2="40.6473" stroke="#CCCCCC"/>
    <line x1="627.646" y1="75.9316" x2="655.931" y2="47.6473" stroke="#CCCCCC"/>
    <line x1="627.646" y1="82.9316" x2="655.931" y2="54.6473" stroke="#CCCCCC"/>
    <line x1="627.646" y1="89.9316" x2="655.931" y2="61.6473" stroke="#CCCCCC"/>
    <line x1="627.646" y1="96.9316" x2="655.931" y2="68.6473" stroke="#CCCCCC"/>
    <line x1="627.646" y1="103.932" x2="655.931" y2="75.6473" stroke="#CCCCCC"/>
    <line x1="627.646" y1="110.932" x2="655.931" y2="82.6473" stroke="#CCCCCC"/>
    <line x1="627.646" y1="117.932" x2="655.931" y2="89.6473" stroke="#CCCCCC"/>
    <line x1="627.646" y1="124.932" x2="655.931" y2="96.6473" stroke="#CCCCCC"/>
    <line x1="627.646" y1="131.932" x2="655.931" y2="103.647" stroke="#CCCCCC"/>
    <line x1="627.646" y1="138.932" x2="655.931" y2="110.647" stroke="#CCCCCC"/>
    <line x1="627.646" y1="145.932" x2="655.931" y2="117.647" stroke="#CCCCCC"/>
    <line x1="627.646" y1="152.932" x2="655.931" y2="124.647" stroke="#CCCCCC"/>
    <line x1="627.646" y1="159.932" x2="655.931" y2="131.647" stroke="#CCCCCC"/>
    </g>
    <rect x="634.5" y="0.5" width="15" height="149" rx="7.5" stroke="#CCCCCC"/>
    <rect x="634" y="22" width="16" height="128" rx="8" fill="#00AAD2"/>
    <path d="M48.815 192.006H50.901V193H45.567V192.006H47.695V185.104L45.917 186.21L45.469 185.342L47.947 183.816H48.815V192.006Z" fill="black"/>
    <path d="M113.709 193.154C113.326 193.154 112.981 193.103 112.673 193C112.365 192.907 112.09 192.785 111.847 192.636C111.614 192.487 111.404 192.323 111.217 192.146C111.04 191.959 110.886 191.782 110.755 191.614L111.441 190.886C111.562 191.045 111.693 191.199 111.833 191.348C111.973 191.488 112.132 191.619 112.309 191.74C112.486 191.861 112.687 191.959 112.911 192.034C113.144 192.099 113.41 192.132 113.709 192.132C114.362 192.132 114.876 191.973 115.249 191.656C115.632 191.339 115.823 190.895 115.823 190.326C115.823 189.822 115.655 189.411 115.319 189.094C114.983 188.777 114.46 188.618 113.751 188.618H112.967V187.652H113.751C114.031 187.652 114.274 187.61 114.479 187.526C114.684 187.442 114.852 187.335 114.983 187.204C115.123 187.064 115.226 186.905 115.291 186.728C115.356 186.551 115.389 186.364 115.389 186.168C115.389 185.664 115.23 185.291 114.913 185.048C114.605 184.805 114.222 184.684 113.765 184.684C113.317 184.684 112.934 184.777 112.617 184.964C112.309 185.141 112.062 185.393 111.875 185.72L111.189 185.062C111.432 184.67 111.768 184.339 112.197 184.068C112.626 183.797 113.149 183.662 113.765 183.662C114.614 183.662 115.291 183.877 115.795 184.306C116.299 184.726 116.551 185.333 116.551 186.126C116.551 186.546 116.43 186.929 116.187 187.274C115.954 187.61 115.636 187.871 115.235 188.058C115.795 188.207 116.224 188.492 116.523 188.912C116.831 189.332 116.985 189.822 116.985 190.382C116.985 190.802 116.906 191.185 116.747 191.53C116.588 191.866 116.364 192.155 116.075 192.398C115.795 192.641 115.45 192.827 115.039 192.958C114.638 193.089 114.194 193.154 113.709 193.154Z" fill="black"/>
    <path d="M182.383 185.734C182.178 185.417 181.916 185.165 181.599 184.978C181.282 184.782 180.918 184.684 180.507 184.684C179.76 184.684 179.149 184.978 178.673 185.566C178.197 186.145 177.931 186.994 177.875 188.114C178.118 187.722 178.44 187.405 178.841 187.162C179.242 186.91 179.732 186.784 180.311 186.784C180.722 186.784 181.109 186.863 181.473 187.022C181.837 187.181 182.154 187.4 182.425 187.68C182.705 187.96 182.924 188.296 183.083 188.688C183.242 189.08 183.321 189.505 183.321 189.962C183.321 190.429 183.237 190.858 183.069 191.25C182.901 191.633 182.672 191.969 182.383 192.258C182.103 192.538 181.767 192.757 181.375 192.916C180.992 193.075 180.582 193.154 180.143 193.154C179.592 193.154 179.107 193.047 178.687 192.832C178.267 192.617 177.917 192.314 177.637 191.922C177.357 191.521 177.142 191.045 176.993 190.494C176.853 189.934 176.783 189.313 176.783 188.632C176.783 187.857 176.872 187.162 177.049 186.546C177.226 185.93 177.474 185.412 177.791 184.992C178.118 184.563 178.51 184.236 178.967 184.012C179.424 183.779 179.938 183.662 180.507 183.662C181.132 183.662 181.669 183.807 182.117 184.096C182.565 184.385 182.915 184.726 183.167 185.118L182.383 185.734ZM178.155 189.976C178.155 190.611 178.332 191.129 178.687 191.53C179.051 191.931 179.536 192.132 180.143 192.132C180.759 192.132 181.249 191.931 181.613 191.53C181.977 191.129 182.159 190.611 182.159 189.976C182.159 189.659 182.108 189.365 182.005 189.094C181.912 188.823 181.776 188.595 181.599 188.408C181.431 188.221 181.221 188.077 180.969 187.974C180.726 187.862 180.451 187.806 180.143 187.806C179.844 187.806 179.569 187.862 179.317 187.974C179.074 188.077 178.864 188.221 178.687 188.408C178.519 188.595 178.388 188.823 178.295 189.094C178.202 189.365 178.155 189.659 178.155 189.976Z" fill="black"/>
    <path d="M243.651 191.082C243.856 191.399 244.118 191.656 244.435 191.852C244.752 192.039 245.116 192.132 245.527 192.132C246.274 192.132 246.885 191.843 247.361 191.264C247.837 190.676 248.103 189.822 248.159 188.702C247.916 189.094 247.594 189.416 247.193 189.668C246.792 189.911 246.302 190.032 245.723 190.032C245.312 190.032 244.92 189.953 244.547 189.794C244.183 189.635 243.866 189.416 243.595 189.136C243.324 188.856 243.11 188.525 242.951 188.142C242.792 187.75 242.713 187.321 242.713 186.854C242.713 186.397 242.792 185.972 242.951 185.58C243.119 185.188 243.348 184.852 243.637 184.572C243.926 184.283 244.262 184.059 244.645 183.9C245.037 183.741 245.452 183.662 245.891 183.662C246.442 183.662 246.927 183.769 247.347 183.984C247.767 184.199 248.117 184.507 248.397 184.908C248.677 185.3 248.887 185.776 249.027 186.336C249.176 186.887 249.251 187.503 249.251 188.184C249.251 188.959 249.162 189.654 248.985 190.27C248.808 190.886 248.556 191.409 248.229 191.838C247.912 192.267 247.524 192.594 247.067 192.818C246.61 193.042 246.096 193.154 245.527 193.154C244.902 193.154 244.365 193.009 243.917 192.72C243.469 192.431 243.119 192.09 242.867 191.698L243.651 191.082ZM247.879 186.84C247.879 186.205 247.697 185.687 247.333 185.286C246.978 184.885 246.498 184.684 245.891 184.684C245.275 184.684 244.785 184.885 244.421 185.286C244.057 185.687 243.875 186.205 243.875 186.84C243.875 187.167 243.922 187.465 244.015 187.736C244.118 187.997 244.253 188.221 244.421 188.408C244.598 188.595 244.808 188.744 245.051 188.856C245.303 188.959 245.583 189.01 245.891 189.01C246.19 189.01 246.46 188.959 246.703 188.856C246.955 188.744 247.165 188.595 247.333 188.408C247.51 188.221 247.646 187.997 247.739 187.736C247.832 187.465 247.879 187.167 247.879 186.84Z" fill="black"/>
    <path d="M308.898 192.006H310.984V193H305.65V192.006H307.778V185.104L306 186.21L305.552 185.342L308.03 183.816H308.898V192.006ZM313.05 185.748C313.115 185.515 313.218 185.277 313.358 185.034C313.498 184.782 313.68 184.553 313.904 184.348C314.128 184.143 314.394 183.979 314.702 183.858C315.01 183.727 315.369 183.662 315.78 183.662C316.228 183.662 316.625 183.732 316.97 183.872C317.325 184.003 317.623 184.189 317.866 184.432C318.118 184.675 318.309 184.964 318.44 185.3C318.571 185.636 318.636 186.009 318.636 186.42C318.636 186.887 318.547 187.316 318.37 187.708C318.202 188.091 317.983 188.445 317.712 188.772C317.441 189.099 317.138 189.407 316.802 189.696C316.475 189.976 316.153 190.247 315.836 190.508C315.528 190.76 315.239 191.012 314.968 191.264C314.707 191.507 314.511 191.754 314.38 192.006H318.748V193H312.994V192.174C313.171 191.782 313.405 191.423 313.694 191.096C313.983 190.76 314.291 190.443 314.618 190.144C314.954 189.845 315.29 189.561 315.626 189.29C315.971 189.01 316.279 188.725 316.55 188.436C316.821 188.137 317.04 187.829 317.208 187.512C317.385 187.195 317.474 186.845 317.474 186.462C317.474 185.921 317.334 185.491 317.054 185.174C316.783 184.847 316.349 184.684 315.752 184.684C314.847 184.684 314.254 185.188 313.974 186.196L313.05 185.748Z" fill="black"/>
    <path d="M374.898 192.006H376.984V193H371.65V192.006H373.778V185.104L372 186.21L371.552 185.342L374.03 183.816H374.898V192.006ZM381.934 193.154C381.393 193.154 380.912 193.089 380.492 192.958C380.081 192.818 379.736 192.627 379.456 192.384C379.176 192.132 378.961 191.838 378.812 191.502C378.672 191.166 378.602 190.797 378.602 190.396C378.602 189.817 378.761 189.309 379.078 188.87C379.405 188.422 379.829 188.128 380.352 187.988C379.932 187.792 379.619 187.531 379.414 187.204C379.218 186.868 379.12 186.481 379.12 186.042C379.12 185.715 379.181 185.407 379.302 185.118C379.423 184.829 379.601 184.577 379.834 184.362C380.077 184.147 380.371 183.979 380.716 183.858C381.071 183.727 381.477 183.662 381.934 183.662C382.391 183.662 382.793 183.727 383.138 183.858C383.493 183.979 383.787 184.147 384.02 184.362C384.263 184.577 384.445 184.829 384.566 185.118C384.687 185.407 384.748 185.715 384.748 186.042C384.748 186.481 384.645 186.868 384.44 187.204C384.244 187.531 383.936 187.792 383.516 187.988C383.768 188.063 384.001 188.175 384.216 188.324C384.431 188.473 384.613 188.655 384.762 188.87C384.921 189.075 385.042 189.309 385.126 189.57C385.219 189.831 385.266 190.107 385.266 190.396C385.266 190.797 385.191 191.166 385.042 191.502C384.902 191.838 384.692 192.132 384.412 192.384C384.132 192.627 383.782 192.818 383.362 192.958C382.951 193.089 382.475 193.154 381.934 193.154ZM381.934 192.132C382.643 192.132 383.18 191.964 383.544 191.628C383.917 191.292 384.104 190.858 384.104 190.326C384.104 189.794 383.917 189.36 383.544 189.024C383.18 188.679 382.643 188.506 381.934 188.506C381.225 188.506 380.683 188.679 380.31 189.024C379.946 189.36 379.764 189.794 379.764 190.326C379.764 190.858 379.946 191.292 380.31 191.628C380.683 191.964 381.225 192.132 381.934 192.132ZM381.934 187.512C382.401 187.512 382.793 187.395 383.11 187.162C383.427 186.919 383.586 186.569 383.586 186.112C383.586 185.655 383.427 185.305 383.11 185.062C382.793 184.81 382.401 184.684 381.934 184.684C381.467 184.684 381.075 184.81 380.758 185.062C380.441 185.305 380.282 185.655 380.282 186.112C380.282 186.569 380.441 186.919 380.758 187.162C381.075 187.395 381.467 187.512 381.934 187.512Z" fill="black"/>
    <path d="M437.216 185.748C437.281 185.515 437.384 185.277 437.524 185.034C437.664 184.782 437.846 184.553 438.07 184.348C438.294 184.143 438.56 183.979 438.868 183.858C439.176 183.727 439.535 183.662 439.946 183.662C440.394 183.662 440.791 183.732 441.136 183.872C441.491 184.003 441.789 184.189 442.032 184.432C442.284 184.675 442.475 184.964 442.606 185.3C442.737 185.636 442.802 186.009 442.802 186.42C442.802 186.887 442.713 187.316 442.536 187.708C442.368 188.091 442.149 188.445 441.878 188.772C441.607 189.099 441.304 189.407 440.968 189.696C440.641 189.976 440.319 190.247 440.002 190.508C439.694 190.76 439.405 191.012 439.134 191.264C438.873 191.507 438.677 191.754 438.546 192.006H442.914V193H437.16V192.174C437.337 191.782 437.571 191.423 437.86 191.096C438.149 190.76 438.457 190.443 438.784 190.144C439.12 189.845 439.456 189.561 439.792 189.29C440.137 189.01 440.445 188.725 440.716 188.436C440.987 188.137 441.206 187.829 441.374 187.512C441.551 187.195 441.64 186.845 441.64 186.462C441.64 185.921 441.5 185.491 441.22 185.174C440.949 184.847 440.515 184.684 439.918 184.684C439.013 184.684 438.42 185.188 438.14 186.196L437.216 185.748ZM451.406 189.542V190.522H449.978V193H448.858V190.522H444.378V189.71L448.55 183.816H449.978V189.542H451.406ZM448.858 186.434C448.858 186.126 448.863 185.869 448.872 185.664C448.881 185.459 448.905 185.235 448.942 184.992H448.9C448.863 185.095 448.774 185.258 448.634 185.482C448.494 185.706 448.331 185.949 448.144 186.21L445.778 189.542H448.858V186.434Z" fill="black"/>
    <path d="M505.792 193.154C505.409 193.154 505.064 193.103 504.756 193C504.448 192.907 504.173 192.785 503.93 192.636C503.697 192.487 503.487 192.323 503.3 192.146C503.123 191.959 502.969 191.782 502.838 191.614L503.524 190.886C503.645 191.045 503.776 191.199 503.916 191.348C504.056 191.488 504.215 191.619 504.392 191.74C504.569 191.861 504.77 191.959 504.994 192.034C505.227 192.099 505.493 192.132 505.792 192.132C506.445 192.132 506.959 191.973 507.332 191.656C507.715 191.339 507.906 190.895 507.906 190.326C507.906 189.822 507.738 189.411 507.402 189.094C507.066 188.777 506.543 188.618 505.834 188.618H505.05V187.652H505.834C506.114 187.652 506.357 187.61 506.562 187.526C506.767 187.442 506.935 187.335 507.066 187.204C507.206 187.064 507.309 186.905 507.374 186.728C507.439 186.551 507.472 186.364 507.472 186.168C507.472 185.664 507.313 185.291 506.996 185.048C506.688 184.805 506.305 184.684 505.848 184.684C505.4 184.684 505.017 184.777 504.7 184.964C504.392 185.141 504.145 185.393 503.958 185.72L503.272 185.062C503.515 184.67 503.851 184.339 504.28 184.068C504.709 183.797 505.232 183.662 505.848 183.662C506.697 183.662 507.374 183.877 507.878 184.306C508.382 184.726 508.634 185.333 508.634 186.126C508.634 186.546 508.513 186.929 508.27 187.274C508.037 187.61 507.719 187.871 507.318 188.058C507.878 188.207 508.307 188.492 508.606 188.912C508.914 189.332 509.068 189.822 509.068 190.382C509.068 190.802 508.989 191.185 508.83 191.53C508.671 191.866 508.447 192.155 508.158 192.398C507.878 192.641 507.533 192.827 507.122 192.958C506.721 193.089 506.277 193.154 505.792 193.154ZM516.3 185.734C516.095 185.417 515.833 185.165 515.516 184.978C515.199 184.782 514.835 184.684 514.424 184.684C513.677 184.684 513.066 184.978 512.59 185.566C512.114 186.145 511.848 186.994 511.792 188.114C512.035 187.722 512.357 187.405 512.758 187.162C513.159 186.91 513.649 186.784 514.228 186.784C514.639 186.784 515.026 186.863 515.39 187.022C515.754 187.181 516.071 187.4 516.342 187.68C516.622 187.96 516.841 188.296 517 188.688C517.159 189.08 517.238 189.505 517.238 189.962C517.238 190.429 517.154 190.858 516.986 191.25C516.818 191.633 516.589 191.969 516.3 192.258C516.02 192.538 515.684 192.757 515.292 192.916C514.909 193.075 514.499 193.154 514.06 193.154C513.509 193.154 513.024 193.047 512.604 192.832C512.184 192.617 511.834 192.314 511.554 191.922C511.274 191.521 511.059 191.045 510.91 190.494C510.77 189.934 510.7 189.313 510.7 188.632C510.7 187.857 510.789 187.162 510.966 186.546C511.143 185.93 511.391 185.412 511.708 184.992C512.035 184.563 512.427 184.236 512.884 184.012C513.341 183.779 513.855 183.662 514.424 183.662C515.049 183.662 515.586 183.807 516.034 184.096C516.482 184.385 516.832 184.726 517.084 185.118L516.3 185.734ZM512.072 189.976C512.072 190.611 512.249 191.129 512.604 191.53C512.968 191.931 513.453 192.132 514.06 192.132C514.676 192.132 515.166 191.931 515.53 191.53C515.894 191.129 516.076 190.611 516.076 189.976C516.076 189.659 516.025 189.365 515.922 189.094C515.829 188.823 515.693 188.595 515.516 188.408C515.348 188.221 515.138 188.077 514.886 187.974C514.643 187.862 514.368 187.806 514.06 187.806C513.761 187.806 513.486 187.862 513.234 187.974C512.991 188.077 512.781 188.221 512.604 188.408C512.436 188.595 512.305 188.823 512.212 189.094C512.119 189.365 512.072 189.659 512.072 189.976Z" fill="black"/>
    <path d="M575.572 189.542V190.522H574.144V193H573.024V190.522H568.544V189.71L572.716 183.816H574.144V189.542H575.572ZM573.024 186.434C573.024 186.126 573.029 185.869 573.038 185.664C573.047 185.459 573.071 185.235 573.108 184.992H573.066C573.029 185.095 572.94 185.258 572.8 185.482C572.66 185.706 572.497 185.949 572.31 186.21L569.944 189.542H573.024V186.434ZM579.934 193.154C579.393 193.154 578.912 193.089 578.492 192.958C578.081 192.818 577.736 192.627 577.456 192.384C577.176 192.132 576.961 191.838 576.812 191.502C576.672 191.166 576.602 190.797 576.602 190.396C576.602 189.817 576.761 189.309 577.078 188.87C577.405 188.422 577.829 188.128 578.352 187.988C577.932 187.792 577.619 187.531 577.414 187.204C577.218 186.868 577.12 186.481 577.12 186.042C577.12 185.715 577.181 185.407 577.302 185.118C577.423 184.829 577.601 184.577 577.834 184.362C578.077 184.147 578.371 183.979 578.716 183.858C579.071 183.727 579.477 183.662 579.934 183.662C580.391 183.662 580.793 183.727 581.138 183.858C581.493 183.979 581.787 184.147 582.02 184.362C582.263 184.577 582.445 184.829 582.566 185.118C582.687 185.407 582.748 185.715 582.748 186.042C582.748 186.481 582.645 186.868 582.44 187.204C582.244 187.531 581.936 187.792 581.516 187.988C581.768 188.063 582.001 188.175 582.216 188.324C582.431 188.473 582.613 188.655 582.762 188.87C582.921 189.075 583.042 189.309 583.126 189.57C583.219 189.831 583.266 190.107 583.266 190.396C583.266 190.797 583.191 191.166 583.042 191.502C582.902 191.838 582.692 192.132 582.412 192.384C582.132 192.627 581.782 192.818 581.362 192.958C580.951 193.089 580.475 193.154 579.934 193.154ZM579.934 192.132C580.643 192.132 581.18 191.964 581.544 191.628C581.917 191.292 582.104 190.858 582.104 190.326C582.104 189.794 581.917 189.36 581.544 189.024C581.18 188.679 580.643 188.506 579.934 188.506C579.225 188.506 578.683 188.679 578.31 189.024C577.946 189.36 577.764 189.794 577.764 190.326C577.764 190.858 577.946 191.292 578.31 191.628C578.683 191.964 579.225 192.132 579.934 192.132ZM579.934 187.512C580.401 187.512 580.793 187.395 581.11 187.162C581.427 186.919 581.586 186.569 581.586 186.112C581.586 185.655 581.427 185.305 581.11 185.062C580.793 184.81 580.401 184.684 579.934 184.684C579.467 184.684 579.075 184.81 578.758 185.062C578.441 185.305 578.282 185.655 578.282 186.112C578.282 186.569 578.441 186.919 578.758 187.162C579.075 187.395 579.467 187.512 579.934 187.512Z" fill="black"/>
    <path d="M640.466 185.734C640.261 185.417 639.999 185.165 639.682 184.978C639.365 184.782 639.001 184.684 638.59 184.684C637.843 184.684 637.232 184.978 636.756 185.566C636.28 186.145 636.014 186.994 635.958 188.114C636.201 187.722 636.523 187.405 636.924 187.162C637.325 186.91 637.815 186.784 638.394 186.784C638.805 186.784 639.192 186.863 639.556 187.022C639.92 187.181 640.237 187.4 640.508 187.68C640.788 187.96 641.007 188.296 641.166 188.688C641.325 189.08 641.404 189.505 641.404 189.962C641.404 190.429 641.32 190.858 641.152 191.25C640.984 191.633 640.755 191.969 640.466 192.258C640.186 192.538 639.85 192.757 639.458 192.916C639.075 193.075 638.665 193.154 638.226 193.154C637.675 193.154 637.19 193.047 636.77 192.832C636.35 192.617 636 192.314 635.72 191.922C635.44 191.521 635.225 191.045 635.076 190.494C634.936 189.934 634.866 189.313 634.866 188.632C634.866 187.857 634.955 187.162 635.132 186.546C635.309 185.93 635.557 185.412 635.874 184.992C636.201 184.563 636.593 184.236 637.05 184.012C637.507 183.779 638.021 183.662 638.59 183.662C639.215 183.662 639.752 183.807 640.2 184.096C640.648 184.385 640.998 184.726 641.25 185.118L640.466 185.734ZM636.238 189.976C636.238 190.611 636.415 191.129 636.77 191.53C637.134 191.931 637.619 192.132 638.226 192.132C638.842 192.132 639.332 191.931 639.696 191.53C640.06 191.129 640.242 190.611 640.242 189.976C640.242 189.659 640.191 189.365 640.088 189.094C639.995 188.823 639.859 188.595 639.682 188.408C639.514 188.221 639.304 188.077 639.052 187.974C638.809 187.862 638.534 187.806 638.226 187.806C637.927 187.806 637.652 187.862 637.4 187.974C637.157 188.077 636.947 188.221 636.77 188.408C636.602 188.595 636.471 188.823 636.378 189.094C636.285 189.365 636.238 189.659 636.238 189.976ZM645.92 193.154C645.397 193.154 644.935 193.047 644.534 192.832C644.133 192.608 643.797 192.291 643.526 191.88C643.255 191.469 643.05 190.97 642.91 190.382C642.77 189.794 642.7 189.136 642.7 188.408C642.7 187.68 642.77 187.022 642.91 186.434C643.05 185.846 643.255 185.347 643.526 184.936C643.797 184.525 644.133 184.213 644.534 183.998C644.935 183.774 645.397 183.662 645.92 183.662C646.443 183.662 646.905 183.774 647.306 183.998C647.707 184.213 648.043 184.525 648.314 184.936C648.585 185.347 648.79 185.846 648.93 186.434C649.07 187.022 649.14 187.68 649.14 188.408C649.14 189.136 649.07 189.794 648.93 190.382C648.79 190.97 648.585 191.469 648.314 191.88C648.043 192.291 647.707 192.608 647.306 192.832C646.905 193.047 646.443 193.154 645.92 193.154ZM645.92 192.132C647.292 192.132 647.978 190.891 647.978 188.408C647.978 185.925 647.292 184.684 645.92 184.684C644.548 184.684 643.862 185.925 643.862 188.408C643.862 190.891 644.548 192.132 645.92 192.132Z" fill="black"/>
    <defs>
    <clipPath id="clip0_1_9433">
    <rect x="40" width="16" height="150" rx="8" fill="white"/>
    </clipPath>
    <clipPath id="clip1_1_9433">
    <rect x="106" width="16" height="150" rx="8" fill="white"/>
    </clipPath>
    <clipPath id="clip2_1_9433">
    <rect x="172" width="16" height="150" rx="8" fill="white"/>
    </clipPath>
    <clipPath id="clip3_1_9433">
    <rect x="238" width="16" height="150" rx="8" fill="white"/>
    </clipPath>
    <clipPath id="clip4_1_9433">
    <rect x="304" width="16" height="150" rx="8" fill="white"/>
    </clipPath>
    <clipPath id="clip5_1_9433">
    <rect x="370" width="16" height="150" rx="8" fill="white"/>
    </clipPath>
    <clipPath id="clip6_1_9433">
    <rect x="436" width="16" height="150" rx="8" fill="white"/>
    </clipPath>
    <clipPath id="clip7_1_9433">
    <rect x="502" width="16" height="150" rx="8" fill="white"/>
    </clipPath>
    <clipPath id="clip8_1_9433">
    <rect x="568" width="16" height="150" rx="8" fill="white"/>
    </clipPath>
    <clipPath id="clip9_1_9433">
    <rect x="634" width="16" height="150" rx="8" fill="white"/>
    </clipPath>
    </defs>
    </svg>
    