<svg id="구성_요소_8_8" data-name="구성 요소 8 – 8" xmlns="http://www.w3.org/2000/svg" width="14" height="14" viewBox="0 0 14 14">
  <g id="그룹_94" data-name="그룹 94">
    <rect id="Container" width="14" height="14" fill="none"/>
    <path id="Icon_Bold_Action_Wishlist_select" data-name="Icon / Bold / Action / Wishlist_select" d="M6.123,10.61,6.08,10.6c-.115-.015-.115-.015-.817-.589-.348-.284-.886-.73-1.475-1.239a21.835,21.835,0,0,1-2.955-2.9c-.071-.1-.27-.387-.27-.387L.55,5.472A3.692,3.692,0,0,1,1.429.7a3.435,3.435,0,0,1,4.695.431,3.434,3.434,0,0,1,4.7-.438A3.691,3.691,0,0,1,11.7,5.472l-.012.019s-.2.291-.271.387a21.828,21.828,0,0,1-2.956,2.9c-.589.51-1.127.956-1.475,1.24-.7.575-.7.575-.817.589Z" transform="translate(0.878 1.715)"/>
  </g>
</svg>
