<svg width="24" height="27" viewBox="0 0 24 27" fill="none" xmlns="http://www.w3.org/2000/svg">
    <path fill-rule="evenodd" clip-rule="evenodd" d="M12 0.164062C10.3892 0.164062 9.08333 1.4699 9.08333 3.08073C9.08333 4.27675 9.80322 5.30463 10.8333 5.75473V8.04274C7.9792 8.061 5.86619 8.14447 4.41264 8.22975C2.51772 8.34094 0.983989 9.75103 0.823001 11.6829C0.716665 12.9588 0.625 14.7381 0.625 17.0807C0.625 19.4234 0.716671 21.2027 0.823001 22.4786C0.983989 24.4104 2.51772 25.8205 4.4127 25.9317C6.05764 26.0282 8.54737 26.1224 12 26.1224C15.4526 26.1224 17.9424 26.0282 19.5873 25.9317C21.4823 25.8205 23.016 24.4104 23.177 22.4786C23.2833 21.2027 23.375 19.4234 23.375 17.0807C23.375 14.7381 23.2833 12.9588 23.177 11.6829C23.016 9.75103 21.4823 8.34094 19.5873 8.22975C18.1338 8.14447 16.0207 8.061 13.1667 8.04274V5.75473C14.1968 5.30463 14.9167 4.27675 14.9167 3.08073C14.9167 1.4699 13.6108 0.164062 12 0.164062ZM9.08333 14.1641C9.08333 13.5197 8.56102 12.9974 7.91667 12.9974C7.27232 12.9974 6.75 13.5197 6.75 14.1641V14.7474C6.75 15.3917 7.27232 15.9141 7.91667 15.9141C8.56102 15.9141 9.08333 15.3917 9.08333 14.7474V14.1641ZM16.0833 12.9974C15.439 12.9974 14.9167 13.5197 14.9167 14.1641V14.7474C14.9167 15.3917 15.439 15.9141 16.0833 15.9141C16.7277 15.9141 17.25 15.3917 17.25 14.7474V14.1641C17.25 13.5197 16.7277 12.9974 16.0833 12.9974ZM7.69967 19.1485C8.26293 18.6175 8.90407 18.8531 9.42563 19.2588C9.51348 19.3271 9.66328 19.4315 9.87778 19.5402C10.3017 19.7553 10.9969 19.9974 12 19.9974C13.0031 19.9974 13.6983 19.7553 14.1222 19.5402C14.3367 19.4315 14.4865 19.3271 14.5744 19.2588C15.0959 18.8531 15.7371 18.6175 16.3003 19.1485C16.7853 19.6057 16.7701 20.3826 16.3073 20.8401C16.2887 20.8586 16.2652 20.8811 16.2368 20.9072C16.1801 20.9592 16.1036 21.0253 16.0069 21.1006C15.8135 21.251 15.5383 21.4383 15.1778 21.6212C14.4517 21.9895 13.3969 22.3307 12 22.3307C10.6031 22.3307 9.54831 21.9895 8.82223 21.6212C8.46168 21.4383 8.18652 21.251 7.99308 21.1006C7.89637 21.0253 7.81989 20.9592 7.76319 20.9072C7.26631 20.4512 7.16895 19.6489 7.69967 19.1485Z" fill="white"/>
    </svg>
    