<svg width="100" height="100" viewBox="0 0 100 100" fill="none" xmlns="http://www.w3.org/2000/svg">
<g clip-path="url(#clip0_658_9123)">
<path d="M90.418 23.8905V62.6184C90.418 69.4868 84.8522 75.0526 77.9838 75.0526H12.8522C9.55442 75.0526 6.39173 73.7426 4.05986 71.4107C1.728 69.0789 0.417969 65.9162 0.417969 62.6184V23.8905L43.9922 47.859C44.8803 48.3469 45.958 48.3469 46.8438 47.859L90.418 23.8905ZM77.9838 4C81.2296 4.0003 84.3467 5.26984 86.6692 7.53742C88.9916 9.805 90.3353 10.8908 90.4132 14.1358L45.418 38.8858L0.422705 14.1334L0.427443 13.9203C0.56008 10.714 1.92714 9.68322 4.24275 7.46163C6.55836 5.24004 9.6432 3.9997 12.8522 4H77.9838Z" fill="#E5E5E5"/>
<path d="M76.7794 89.0839L76.7807 89.0825L98.7116 64.4523C99.4835 63.6181 100.085 62.6389 100.477 61.5688C100.876 60.4796 101.05 59.3208 100.987 58.1614C100.925 57.002 100.626 55.8691 100.112 54.8299C99.5983 53.7908 98.8804 52.8682 98.0042 52.1141C97.1282 51.3601 96.1114 50.7893 95.015 50.432C93.9188 50.0747 92.7626 49.9372 91.6138 50.0264C90.465 50.1156 89.3435 50.43 88.3151 50.9535C87.3038 51.4683 86.401 52.176 85.6604 53.0393L69.0269 71.7223L62.9024 67.2084L60.7099 70.1833L62.9024 67.2084C61.9875 66.5341 60.9501 66.0461 59.8503 65.7692C58.7505 65.4923 57.607 65.4312 56.4842 65.5888C55.3614 65.7464 54.2782 66.1202 53.2965 66.6914C52.3148 67.2626 51.4524 68.021 50.7614 68.9264C50.0703 69.832 49.5646 70.8663 49.2766 71.9711C48.9885 73.076 48.9246 74.2269 49.0889 75.3573C49.2532 76.4875 49.6421 77.5718 50.2304 78.5483C50.8187 79.5246 51.5941 80.3729 52.5091 81.0473L65.0579 90.296L65.059 90.2968C66.8139 91.5893 68.9893 92.1761 71.1513 91.954C73.3138 91.7318 75.3263 90.7142 76.7794 89.0839Z" fill="white" stroke="white" stroke-width="8"/>
<path d="M96.7214 60.1919C96.5085 60.7725 96.1795 61.3055 95.7537 61.7592L73.7933 86.4225C73.0118 87.2993 71.9222 87.8537 70.7426 87.9749C69.5629 88.0961 68.3802 87.7751 67.4311 87.076L54.8823 77.8273C54.3879 77.463 53.9714 77.0065 53.6566 76.4839C53.3417 75.9614 53.1347 75.383 53.0473 74.7818C52.9599 74.1806 52.9939 73.5684 53.1472 72.9802C53.3006 72.3919 53.5704 71.8391 53.9412 71.3532C54.3119 70.8674 54.7765 70.4581 55.3082 70.1487C55.84 69.8393 56.4285 69.6358 57.0403 69.55C57.6521 69.4641 58.275 69.4975 58.8737 69.6482C59.4723 69.7989 60.0349 70.064 60.5293 70.4284L69.5895 77.1059L88.6761 55.6674C89.0778 55.1929 89.572 54.8021 90.1297 54.5182C90.6874 54.2343 91.2974 54.063 91.9235 54.0144C92.5497 53.9657 93.1794 54.0408 93.7756 54.2351C94.3717 54.4294 94.9223 54.739 95.3948 55.1457C95.8673 55.5524 96.2521 56.0479 96.5267 56.6031C96.8012 57.1582 96.9599 57.7617 96.9933 58.3781C97.0268 58.9945 96.9343 59.6112 96.7214 60.1919Z" fill="#5d7d2b"/>
</g>
<defs>
<clipPath id="clip0_658_9123">
<rect width="100" height="100" fill="white"/>
</clipPath>
</defs>
</svg>
