<svg width="100" height="100" viewBox="0 0 100 100" fill="none" xmlns="http://www.w3.org/2000/svg">
    <rect width="100" height="100" fill="black" fill-opacity="0.4"/>
    <path d="M34.3259 24.192H36.9419V25.584C36.9419 29.784 34.9499 33.552 30.7019 34.92L29.0459 32.448C32.7659 31.248 34.3259 28.368 34.3259 25.584V24.192ZM34.9739 24.192H37.5659V25.584C37.5659 28.2 39.0779 30.912 42.6779 32.064L41.0459 34.536C36.8939 33.192 34.9739 29.568 34.9739 25.584V24.192ZM29.9099 23.208H41.9099V25.752H29.9099V23.208ZM43.6859 21.912H46.8779V35.304H43.6859V21.912ZM45.9899 27.288H49.8299V29.904H45.9899V27.288ZM32.0459 36.264H46.8779V44.136H43.6859V38.832H32.0459V36.264ZM62.692 26.808H68.26V29.376H62.692V26.808ZM57.604 22.824C60.94 22.824 63.46 25.056 63.46 28.128C63.46 31.224 60.94 33.432 57.604 33.432C54.244 33.432 51.724 31.224 51.724 28.128C51.724 25.056 54.244 22.824 57.604 22.824ZM57.604 25.488C55.972 25.488 54.772 26.472 54.772 28.128C54.772 29.784 55.972 30.792 57.604 30.792C59.236 30.792 60.412 29.784 60.412 28.128C60.412 26.472 59.236 25.488 57.604 25.488ZM66.868 21.912H70.06V33.864H66.868V21.912ZM55.3 34.824H58.468V36.936H66.892V34.824H70.06V43.896H55.3V34.824ZM58.468 39.384V41.352H66.892V39.384H58.468ZM38.2139 56.808H41.9099V59.376H38.2139V56.808ZM38.2139 63.672H41.9099V66.264H38.2139V63.672ZM45.4379 51.912H48.4859V74.136H45.4379V51.912ZM40.9979 52.248H43.9739V73.128H40.9979V52.248ZM34.3739 53.472C37.3259 53.472 39.2219 56.52 39.2219 61.536C39.2219 66.576 37.3259 69.624 34.3739 69.624C31.4459 69.624 29.5739 66.576 29.5739 61.536C29.5739 56.52 31.4459 53.472 34.3739 53.472ZM34.3739 56.472C33.1499 56.472 32.4299 58.152 32.4299 61.536C32.4299 64.944 33.1499 66.6 34.3739 66.6C35.6219 66.6 36.3419 64.944 36.3419 61.536C36.3419 58.152 35.6219 56.472 34.3739 56.472ZM63.508 57.288H67.732V59.88H63.508V57.288ZM66.868 51.912H70.06V65.112H66.868V51.912ZM62.524 65.592C67.228 65.592 70.132 67.2 70.132 69.888C70.132 72.6 67.228 74.16 62.524 74.16C57.82 74.16 54.916 72.6 54.916 69.888C54.916 67.2 57.82 65.592 62.524 65.592ZM62.524 68.016C59.644 68.016 58.108 68.616 58.108 69.888C58.108 71.136 59.644 71.736 62.524 71.736C65.428 71.736 66.964 71.136 66.964 69.888C66.964 68.616 65.428 68.016 62.524 68.016ZM56.596 54.144H59.188V55.536C59.188 59.784 57.22 63.672 52.972 65.112L51.34 62.592C55.012 61.344 56.596 58.392 56.596 55.536V54.144ZM57.268 54.144H59.836V55.536C59.836 58.152 61.348 60.864 64.852 62.04L63.292 64.56C59.164 63.192 57.268 59.496 57.268 55.536V54.144ZM52.204 53.256H64.156V55.8H52.204V53.256Z" fill="white"/>
    </svg>
    