<svg width="100" height="100" viewBox="0 0 100 100" fill="none" xmlns="http://www.w3.org/2000/svg">
<rect width="100" height="100" fill="#252525"/>
<g id="Sub_hyundai_CPCO90003" clip-path="url(#clip0_0_1)">
<rect width="1920" height="1038" transform="translate(-1092 -307)" fill="white"/>
<g id="bg">
<mask id="path-1-inside-1_0_1" fill="white">
<path d="M-467 -307H828V2197H-467V-307Z"/>
</mask>
<path d="M-467 -307H828V2197H-467V-307Z" fill="white"/>
<path d="M-466 2197V-307H-468V2197H-466Z" fill="#E5E5E5" mask="url(#path-1-inside-1_0_1)"/>
</g>
<g id="contents">
<g id="Frame 2709">
<g id="mingcute:bank-card-fill" clip-path="url(#clip1_0_1)">
<g id="Group">
<path id="Vector" d="M90 35V68.5C90 72.0804 88.5777 75.5142 86.0459 78.0459C83.5142 80.5777 80.0804 82 76.5 82H13.5C9.91958 82 6.4858 80.5777 3.95406 78.0459C1.42232 75.5142 0 72.0804 0 68.5V35H90ZM76.5 10C80.0804 10 83.5142 11.4223 86.0459 13.9541C88.5777 16.4858 90 19.9196 90 23.5V28H0V23.5C0 19.9196 1.42232 16.4858 3.95406 13.9541C6.4858 11.4223 9.91958 10 13.5 10H76.5Z" fill="#E5E5E5"/>
</g>
<g id="Group 2657">
<path id="Subtract" d="M71.7794 91.0839L71.7807 91.0825L93.7116 66.4523C94.4835 65.6181 95.0846 64.6389 95.4769 63.5688C95.8763 62.4796 96.0504 61.3208 95.9874 60.1614C95.9245 59.002 95.6261 57.8691 95.1122 56.8299C94.5983 55.7908 93.8804 54.8682 93.0042 54.1141C92.1282 53.3601 91.1114 52.7893 90.015 52.432C88.9188 52.0747 87.7626 51.9372 86.6138 52.0264C85.465 52.1156 84.3435 52.43 83.3151 52.9535C82.3038 53.4683 81.401 54.176 80.6604 55.0393L64.0269 73.7223L57.9024 69.2084L55.7099 72.1833L57.9024 69.2084C56.9875 68.5341 55.9501 68.0461 54.8503 67.7692C53.7505 67.4923 52.607 67.4312 51.4842 67.5888C50.3614 67.7464 49.2782 68.1202 48.2965 68.6914C47.3148 69.2626 46.4524 70.021 45.7614 70.9264C45.0703 71.832 44.5646 72.8663 44.2766 73.9711C43.9885 75.076 43.9246 76.2269 44.0889 77.3573C44.2532 78.4875 44.6421 79.5718 45.2304 80.5483C45.8187 81.5246 46.5941 82.3729 47.5091 83.0473L60.0579 92.296L60.059 92.2968C61.8139 93.5893 63.9893 94.1761 66.1513 93.954C68.3138 93.7318 70.3263 92.7142 71.7794 91.0839Z" fill="white" stroke="white" stroke-width="8"/>
<path id="Subtract_2" d="M91.7214 62.1919C91.5085 62.7725 91.1795 63.3055 90.7537 63.7592L68.7933 88.4225C68.0118 89.2993 66.9222 89.8537 65.7426 89.9749C64.5629 90.0961 63.3802 89.7751 62.4311 89.076L49.8823 79.8273C49.3879 79.463 48.9714 79.0065 48.6566 78.4839C48.3417 77.9614 48.1347 77.383 48.0473 76.7818C47.9599 76.1806 47.9939 75.5684 48.1472 74.9802C48.3006 74.3919 48.5704 73.8391 48.9412 73.3532C49.3119 72.8674 49.7765 72.4581 50.3082 72.1487C50.84 71.8393 51.4285 71.6358 52.0403 71.55C52.6521 71.4641 53.275 71.4975 53.8737 71.6482C54.4723 71.7989 55.0349 72.064 55.5293 72.4284L64.5895 79.1059L83.6761 57.6674C84.0778 57.1929 84.572 56.8021 85.1297 56.5182C85.6874 56.2343 86.2974 56.063 86.9235 56.0144C87.5497 55.9657 88.1794 56.0408 88.7756 56.2351C89.3717 56.4294 89.9223 56.739 90.3948 57.1457C90.8673 57.5524 91.2521 58.0479 91.5267 58.6031C91.8012 59.1582 91.9599 59.7617 91.9933 60.3781C92.0268 60.9945 91.9343 61.6112 91.7214 62.1919Z" fill="#5d7d2b"/>
</g>
</g>
<path d="M-405 -79H505V-81H-405V-79Z" fill="#E5E5E5" mask="url(#path-3-inside-2_0_1)"/>
</g>
</g>
</g>
<defs>
<clipPath id="clip0_0_1">
<rect width="1920" height="1038" fill="white" transform="translate(-1092 -307)"/>
</clipPath>
<clipPath id="clip1_0_1">
<rect width="100" height="100" fill="white"/>
</clipPath>
</defs>
</svg>
