<svg width="100" height="101" viewBox="0 0 100 101" fill="none" xmlns="http://www.w3.org/2000/svg">
    <g clip-path="url(#clip0_1745_21827)">
    <path d="M76.4444 48.2778C79.7889 48.2778 82.99 48.8989 86 49.95V29.1667L57.3333 0.5H9.55556C4.25222 0.5 0 4.75222 0 10.0556V76.9444C0 79.4787 1.00674 81.9092 2.79876 83.7012C4.59077 85.4932 7.02126 86.5 9.55556 86.5H49.45C48.3989 83.49 47.7778 80.2889 47.7778 76.9444C47.7778 61.13 60.63 48.2778 76.4444 48.2778ZM52.5556 7.66667L78.8333 33.9444H52.5556V7.66667Z" fill="#E5E5E5"/>
    <path d="M64.6889 61.6264C64.2266 61.8181 63.8066 62.0989 63.453 62.453C63.0989 62.8066 62.8181 63.2266 62.6264 63.6889C62.4346 64.1514 62.3359 64.6471 62.3359 65.1478C62.3359 65.6484 62.4346 66.1442 62.6264 66.6067C62.8181 67.069 63.099 67.489 63.4531 67.8427C63.4533 67.8428 63.4534 67.8429 63.4535 67.8431L72.9433 77.3364L63.453 86.8302C62.7383 87.5449 62.3368 88.5142 62.3368 89.5249C62.3368 90.5357 62.7383 91.505 63.453 92.2197L64.1543 91.5184L63.453 92.2197C64.1677 92.9344 65.137 93.3359 66.1478 93.3359C67.1584 93.3359 68.1277 92.9345 68.8424 92.2199C68.8425 92.2198 68.8425 92.2198 68.8426 92.2197L78.3364 82.7294L87.8302 92.2197C88.5449 92.9344 89.5142 93.3359 90.5249 93.3359C91.5357 93.3359 92.505 92.9344 93.2197 92.2197C93.9344 91.505 94.3359 90.5357 94.3359 89.5249C94.3359 88.5142 93.9344 87.5449 93.2197 86.8302L83.7294 77.3364L93.2197 67.8425C93.2198 67.8425 93.2198 67.8425 93.2199 67.8424C93.5737 67.4886 93.8543 67.0685 94.0458 66.6062C94.2374 66.1438 94.3359 65.6482 94.3359 65.1478C94.3359 64.6473 94.2374 64.1517 94.0458 63.6894C93.8543 63.227 93.5736 62.8069 93.2197 62.453C92.8658 62.0991 92.4457 61.8184 91.9833 61.6269C91.521 61.4353 91.0254 61.3368 90.5249 61.3368C90.0245 61.3368 89.5289 61.4353 89.0665 61.6269C88.6042 61.8184 88.184 62.0991 87.8302 62.453L78.3364 71.9433L68.8431 62.4535C68.8429 62.4534 68.8428 62.4533 68.8427 62.4531C68.489 62.099 68.069 61.8181 67.6067 61.6264C67.1442 61.4346 66.6484 61.3359 66.1478 61.3359C65.6471 61.3359 65.1514 61.4346 64.6889 61.6264Z" fill="#5d7d2b" stroke="#5d7d2b" stroke-width="2" stroke-linejoin="round"/>
    </g>
    <defs>
    <clipPath id="clip0_1745_21827">
    <rect width="100" height="100" fill="white" transform="translate(0 0.5)"/>
    </clipPath>
    </defs>
    </svg>
    