<svg width="24" height="24" viewBox="0 0 24 24" fill="none" xmlns="http://www.w3.org/2000/svg">
<path d="M17.6952 6.74367C17.4093 6.45784 16.9485 6.45784 16.6627 6.74367L11.8152 11.5912C11.5877 11.8187 11.5877 12.1862 11.8152 12.4137L16.6627 17.2612C16.9485 17.547 17.4093 17.547 17.6952 17.2612C17.981 16.9753 17.981 16.5145 17.6952 16.2287L13.4718 11.9995L17.701 7.77034C17.981 7.49034 17.981 7.02367 17.6952 6.74367Z" fill="black"/>
<path d="M12.0506 6.74367C11.7648 6.45784 11.304 6.45784 11.0181 6.74367L6.17062 11.5912C5.94313 11.8187 5.94313 12.1862 6.17062 12.4137L11.0181 17.2612C11.304 17.547 11.7648 17.547 12.0506 17.2612C12.3365 16.9753 12.3365 16.5145 12.0506 16.2287L7.82729 11.9995L12.0565 7.77034C12.3365 7.49034 12.3365 7.02367 12.0506 6.74367Z" fill="black"/>
</svg>
