<svg width="76" height="100" viewBox="0 0 76 100" fill="none" xmlns="http://www.w3.org/2000/svg">
    <path d="M72.7423 2.49941C71.1323 0.887695 68.9903 0 66.7108 0H22.0493C21.4796 0 20.9331 0.226367 20.5302 0.629297L1.38955 19.7699C0.986816 20.1729 0.760254 20.7193 0.760254 21.2891V91.4715C0.760254 96.174 4.58623 100 9.28897 100H66.7108C68.9903 100 71.1323 99.1123 72.7413 97.5016C74.3522 95.891 75.2395 93.7494 75.2395 91.4715V8.52871C75.2395 6.25059 74.3522 4.10898 72.7423 2.49941ZM22.9394 4.29688H23.0911V18.099C23.0911 20.4324 21.1927 22.3309 18.8593 22.3309H5.05713V22.1791L22.9394 4.29688ZM70.9427 91.4715C70.9427 92.6016 70.5024 93.6639 69.7022 94.4639C68.9038 95.2631 67.8417 95.7031 66.7108 95.7031H9.28897C6.95557 95.7031 5.05713 93.8047 5.05713 91.4715V26.6277H18.8593C23.562 26.6277 27.388 22.8018 27.388 18.099V4.29688H66.7108C67.8417 4.29688 68.9038 4.73691 69.7032 5.5373C70.5024 6.33633 70.9427 7.39863 70.9427 8.52871V91.4715Z" fill="black"/>
    <path d="M38 77.2457C26.2613 77.2457 16.7109 67.6955 16.7109 55.9566C16.7109 44.2178 26.2613 34.6676 38 34.6676C49.7387 34.6676 59.2891 44.2178 59.2891 55.9566C59.2891 67.6955 49.7389 77.2457 38 77.2457ZM38 38.9644C28.6305 38.9644 21.0078 46.5871 21.0078 55.9566C21.0078 65.3262 28.6305 72.9488 38 72.9488C47.3695 72.9488 54.9922 65.3262 54.9922 55.9566C54.9922 46.5871 47.3695 38.9644 38 38.9644Z" fill="#5D7D2B"/>
    <path d="M41.0387 55.9566L44.0303 52.965C44.8693 52.126 44.8693 50.7656 44.0303 49.9265C43.1912 49.0877 41.8309 49.0877 40.9918 49.9265L38.0002 52.9183L35.0086 49.9267C34.1693 49.0877 32.809 49.0879 31.9701 49.9267C31.1311 50.7658 31.1311 52.1262 31.9701 52.9652L34.9617 55.9568L31.9701 58.9484C31.1311 59.7875 31.1311 61.1478 31.9701 61.9869C32.3896 62.4064 32.9395 62.6162 33.4893 62.6162C34.0389 62.6162 34.5891 62.4064 35.0084 61.9869L38.0002 58.9951L40.9918 61.9867C41.4113 62.4062 41.9611 62.616 42.5109 62.616C43.0607 62.616 43.6107 62.4062 44.0301 61.9867C44.8691 61.1476 44.8691 59.7873 44.0301 58.9482L41.0387 55.9566Z" fill="black"/>
    </svg>
    