<svg width="100" height="100" viewBox="0 0 100 100" fill="none" xmlns="http://www.w3.org/2000/svg">
    <g clip-path="url(#clip0_3508_59945)">
    <path d="M70.7824 53.6766C70.2326 53.6766 69.6826 53.4668 69.2633 53.0473L63.1293 46.9127C62.7266 46.5098 62.5 45.9633 62.5 45.3936V38.9051C62.5 37.7186 63.4619 36.7567 64.6484 36.7567C65.835 36.7567 66.7969 37.7186 66.7969 38.9051V44.5037L72.3018 50.009C73.6564 51.3555 72.668 53.6883 70.7824 53.6766Z" fill="black"/>
    <path d="M10.9754 77.9051C8.26777 77.9051 6.8832 77.5279 6.58008 77.4338L7.85449 73.3303L7.8252 73.3215C7.88496 73.3383 13.9686 74.9361 28.5359 70.1C34.2816 68.1928 39.576 68.0203 44.7227 69.5734C45.8586 69.9162 46.5016 71.115 46.159 72.2508C45.816 73.3867 44.617 74.0295 43.4814 73.6871C39.2123 72.3988 34.7664 72.5594 29.8898 74.1781C20.7523 77.2113 14.6475 77.9049 10.9754 77.9051Z" fill="#5D7D2B"/>
    <path d="M73.7254 11.3332V4.29688H76.9018C78.0883 4.29688 79.0502 3.33496 79.0502 2.14844C79.0502 0.961914 78.0883 0 76.9018 0H52.4928C51.3062 0 50.3443 0.961914 50.3443 2.14844C50.3443 3.33496 51.3062 4.29688 52.4928 4.29688H55.6691V11.3332C50.9404 12.582 46.5957 14.7861 42.8568 17.7279H2.22852C1.04199 17.7279 0.0800781 18.6898 0.0800781 19.8764C0.0800781 21.0629 1.04199 22.0248 2.22852 22.0248H5.06894V42.3459C5.01465 48.8855 8.44297 55.2631 13.8656 58.8641C8.44258 62.4654 5.01484 68.842 5.06894 75.382V95.7031H2.22852C-0.606445 95.8107 -0.636328 99.8787 2.22852 100C9.16367 99.9998 49.2822 100 56.2207 100C59.0555 99.8924 59.0857 95.8244 56.2207 95.7031H53.3803V79.0775C56.9352 80.2807 60.7414 80.9336 64.6973 80.9336C106.282 79.8703 113.248 22.6785 73.7254 11.3332ZM59.966 4.29688H69.4285V10.4813C66.3447 10.06 63.0498 10.06 59.966 10.4813V4.29688ZM49.0834 95.7031H9.36582V75.382C9.36582 68.9273 13.2455 63.2281 19.2498 60.8629C20.0711 60.5395 20.6109 59.7467 20.6109 58.8641C20.6109 57.9814 20.0711 57.1887 19.2498 56.8652C13.2455 54.5 9.36582 48.8008 9.36582 42.3461V22.0248H38.2906C22.6316 39.0844 28.4498 67.4947 49.0836 77.2957V95.7031H49.0834ZM64.6975 76.6367C47.5566 76.6367 33.6115 62.6908 33.6115 45.5488C35.3191 4.30664 94.082 4.31836 95.7834 45.549C95.7832 62.6908 81.8381 76.6367 64.6975 76.6367Z" fill="black"/>
    <path d="M66.6819 23.416C66.1418 22.0242 64.2096 21.641 63.178 22.7187C61.8336 24.06 62.7987 26.3896 64.6975 26.3867C66.1879 26.4191 67.2846 24.7812 66.6819 23.416Z" fill="black"/>
    <path d="M66.6818 66.0371C66.1296 64.6408 64.2232 64.2645 63.1779 65.3398C61.8339 66.6801 62.7982 69.0131 64.6974 69.0078C66.1888 69.042 67.2839 67.4023 66.6818 66.0371Z" fill="black"/>
    <path d="M45.3711 44.7266C44.8268 43.3281 42.9076 42.9584 41.8692 44.0293C40.5217 45.3682 41.4885 47.7014 43.3867 47.6973C44.8856 47.7236 45.9719 46.1012 45.3711 44.7266Z" fill="black"/>
    <path d="M88.1129 45.1289C87.8465 43.6529 86.0469 42.9101 84.8141 43.7617C83.2318 44.8094 83.7228 47.292 85.5875 47.6541C87.0523 47.9785 88.4328 46.592 88.1129 45.1289Z" fill="black"/>
    <path d="M47.9199 31.3008C48.4689 32.699 50.3814 33.0775 51.4238 31.998C52.6327 30.8158 51.9868 28.684 50.3242 28.373C48.6663 28.0262 47.2529 29.7449 47.9199 31.3008Z" fill="black"/>
    <path d="M82.0249 59.7969C81.4905 58.402 79.5542 58.0232 78.5229 59.0979C77.1784 60.4369 78.143 62.7729 80.0424 62.7656C81.5376 62.7928 82.6296 61.169 82.0249 59.7969Z" fill="black"/>
    <path d="M51.8882 59.7949C51.3439 58.3994 49.4248 58.0197 48.3863 59.0977C47.0398 60.4359 48.0058 62.7682 49.9039 62.7656C51.3941 62.7986 52.4956 61.159 51.8882 59.7949Z" fill="black"/>
    <path d="M78.0589 31.3027C78.5931 32.6951 80.5323 33.077 81.5608 32C82.7706 30.8172 82.1257 28.6846 80.4612 28.375C78.8081 28.0213 77.3876 29.7504 78.0589 31.3027Z" fill="black"/>
    </g>
    <defs>
    <clipPath id="clip0_3508_59945">
    <rect width="100" height="100" fill="white"/>
    </clipPath>
    </defs>
    </svg>
    