<svg width="120" height="120" viewBox="0 0 120 120" fill="none" xmlns="http://www.w3.org/2000/svg">
<path d="M55.076 9.99452C53.7975 9.99452 52.4641 10.4246 51.4853 11.3996C50.7062 12.1846 51.1607 11.9745 48.364 14.2145C43.4048 18.1895 41.1175 22.2695 40.4034 29.9945C35.4941 29.9945 25.5907 29.9945 25.1113 29.9945C22.3546 29.9945 20.1172 32.2345 20.1172 34.9945V69.3695C20.1172 82.6795 27.4385 94.0945 37.4418 99.9945H30.1054C27.3487 99.9945 25.1113 102.235 25.1113 104.995C25.1113 107.755 27.3487 109.995 30.1054 109.995H90.0349C92.7916 109.995 95.029 107.755 95.029 104.995C95.029 102.235 92.7916 99.9945 90.0349 99.9945H82.5437C93.0863 93.7645 100.023 82.1495 100.023 69.9945C111.055 69.9945 120 61.0395 120 49.9945C120 38.9495 111.055 29.9945 100.023 29.9945C95.4585 29.9945 96.2775 29.9945 95.029 29.9945C94.8742 29.9945 90.789 29.9945 90.0349 29.9945C87.8374 29.9945 80.9855 29.9945 75.5219 29.9945C75.9614 26.1145 76.7905 24.1346 79.4224 22.0246C82.6735 19.4196 82.4588 19.7645 83.6374 18.5895C85.5851 16.6345 85.5851 13.3546 83.6374 11.3996C82.6585 10.4246 81.3251 9.99452 80.0466 9.99452C78.7681 9.99452 77.4347 10.4246 76.4559 11.3996C75.6768 12.1846 76.1313 11.9745 73.3346 14.2145C68.4104 18.1595 66.2478 22.3695 65.5337 29.9945C58.8316 29.9945 56.9088 29.9945 50.5513 29.9945C51.0008 26.0645 51.7949 24.1546 54.4518 22.0246C57.7029 19.4196 57.4882 19.7645 58.6668 18.5895C60.6145 16.6345 60.6145 13.3546 58.6668 11.3996C57.6879 10.4246 56.3545 9.99452 55.076 9.99452ZM30.1054 39.9945C39.1847 39.9945 80.9556 39.9945 90.0349 39.9945V69.3695C90.0349 83.4895 78.5434 94.9945 64.44 94.9945H55.7003C41.5969 94.9945 30.1054 83.4895 30.1054 69.3695V39.9945ZM100.023 39.9945C105.542 39.9945 110.011 44.4695 110.011 49.9945C110.011 55.5195 105.542 59.9945 100.023 59.9945V39.9945Z" fill="black"/>
</svg>
