<svg width="40" height="40" viewBox="0 0 40 40" fill="none" xmlns="http://www.w3.org/2000/svg">
<rect width="40" height="40" rx="10" fill="#F5F5F5"/>
<path d="M12 12C11.4696 12 10.9609 12.2107 10.5858 12.5858C10.2107 12.9609 10 13.4696 10 14V18C10.5304 18 11.0391 18.2107 11.4142 18.5858C11.7893 18.9609 12 19.4696 12 20C12 20.5304 11.7893 21.0391 11.4142 21.4142C11.0391 21.7893 10.5304 22 10 22V26C10 26.5304 10.2107 27.0391 10.5858 27.4142C10.9609 27.7893 11.4696 28 12 28H28C28.5304 28 29.0391 27.7893 29.4142 27.4142C29.7893 27.0391 30 26.5304 30 26V22C29.4696 22 28.9609 21.7893 28.5858 21.4142C28.2107 21.0391 28 20.5304 28 20C28 19.4696 28.2107 18.9609 28.5858 18.5858C28.9609 18.2107 29.4696 18 30 18V14C30 13.4696 29.7893 12.9609 29.4142 12.5858C29.0391 12.2107 28.5304 12 28 12H12ZM23.5 15L25 16.5L16.5 25L15 23.5L23.5 15ZM16.81 15.04C17.79 15.04 18.58 15.83 18.58 16.81C18.58 17.2794 18.3935 17.7296 18.0616 18.0616C17.7296 18.3935 17.2794 18.58 16.81 18.58C15.83 18.58 15.04 17.79 15.04 16.81C15.04 16.3406 15.2265 15.8904 15.5584 15.5584C15.8904 15.2265 16.3406 15.04 16.81 15.04ZM23.19 21.42C24.17 21.42 24.96 22.21 24.96 23.19C24.96 23.6594 24.7735 24.1096 24.4416 24.4416C24.1096 24.7735 23.6594 24.96 23.19 24.96C22.21 24.96 21.42 24.17 21.42 23.19C21.42 22.7206 21.6065 22.2704 21.9384 21.9384C22.2704 21.6065 22.7206 21.42 23.19 21.42Z" fill="#697279"/>
</svg>
