<svg width="40" height="40" viewBox="0 0 40 40" fill="none" xmlns="http://www.w3.org/2000/svg">
<rect width="40" height="40" rx="10" fill="#F5F5F5"/>
<path d="M19.39 18.3901L15.5 22.2771L11.61 18.3901C10.8411 17.6208 10.3175 16.6408 10.1055 15.574C9.89349 14.5072 10.0026 13.4014 10.4189 12.3966C10.8353 11.3918 11.5402 10.5329 12.4446 9.92869C13.349 9.32446 14.4123 9.00195 15.5 9.00195C16.5877 9.00195 17.651 9.32446 18.5554 9.92869C19.4598 10.5329 20.1647 11.3918 20.5811 12.3966C20.9975 13.4014 21.1065 14.5072 20.8945 15.574C20.6825 16.6408 20.1589 17.6208 19.39 18.3901ZM15.5 16.5001C16.0304 16.5001 16.5391 16.2894 16.9142 15.9143C17.2893 15.5393 17.5 15.0306 17.5 14.5001C17.5 13.9697 17.2893 13.461 16.9142 13.0859C16.5391 12.7108 16.0304 12.5001 15.5 12.5001C14.9696 12.5001 14.4609 12.7108 14.0858 13.0859C13.7107 13.461 13.5 13.9697 13.5 14.5001C13.5 15.0306 13.7107 15.5393 14.0858 15.9143C14.4609 16.2894 14.9696 16.5001 15.5 16.5001ZM28.39 27.3901L24.5 31.2781L20.61 27.3891C19.8411 26.6198 19.3175 25.6398 19.1055 24.573C18.8935 23.5062 19.0026 22.4004 19.4189 21.3956C19.8353 20.3908 20.5402 19.5319 21.4446 18.9277C22.349 18.3235 23.4123 18.001 24.5 18.001C25.5877 18.001 26.651 18.3235 27.5554 18.9277C28.4598 19.5319 29.1647 20.3908 29.5811 21.3956C29.9974 22.4004 30.1065 23.5062 29.8945 24.573C29.6825 25.6398 29.1589 26.6208 28.39 27.3901ZM24.5 25.5001C25.0304 25.5001 25.5391 25.2894 25.9142 24.9143C26.2893 24.5393 26.5 24.0306 26.5 23.5001C26.5 22.9697 26.2893 22.461 25.9142 22.0859C25.5391 21.7108 25.0304 21.5001 24.5 21.5001C23.9696 21.5001 23.4609 21.7108 23.0858 22.0859C22.7107 22.461 22.5 22.9697 22.5 23.5001C22.5 24.0306 22.7107 24.5393 23.0858 24.9143C23.4609 25.2894 23.9696 25.5001 24.5 25.5001Z" fill="#697279"/>
</svg>
