<svg width="100" height="100" viewBox="0 0 100 100" fill="none" xmlns="http://www.w3.org/2000/svg">
    <path d="M32.6984 28.123H20.8047C19.6182 28.123 18.6562 27.1611 18.6562 25.9746C18.6562 24.7881 19.6182 23.8262 20.8047 23.8262H32.6984C33.885 23.8262 34.8469 24.7881 34.8469 25.9746C34.8469 27.1611 33.885 28.123 32.6984 28.123Z" fill="#5D7D2B"/>
    <path d="M55.4684 40.0371H20.8047C19.6182 40.0371 18.6562 39.0752 18.6562 37.8887C18.6562 36.7021 19.6182 35.7402 20.8047 35.7402H55.4684C56.6549 35.7402 57.6168 36.7021 57.6168 37.8887C57.6168 39.0752 56.6549 40.0371 55.4684 40.0371Z" fill="black"/>
    <path d="M55.4684 51.9502H20.8047C19.6182 51.9502 18.6562 50.9883 18.6562 49.8018C18.6562 48.6152 19.6182 47.6533 20.8047 47.6533H55.4684C56.6549 47.6533 57.6168 48.6152 57.6168 49.8018C57.6168 50.9883 56.6549 51.9502 55.4684 51.9502Z" fill="#5D7D2B"/>
    <path d="M55.4684 63.8633H20.8047C19.6182 63.8633 18.6562 62.9014 18.6562 61.7148C18.6562 60.5283 19.6182 59.5664 20.8047 59.5664H55.4684C56.6549 59.5664 57.6168 60.5283 57.6168 61.7148C57.6168 62.9014 56.6549 63.8633 55.4684 63.8633Z" fill="black"/>
    <path d="M91.107 23.8266H81.3275V14.0617C81.3275 12.8752 80.3656 11.9133 79.1791 11.9133H62.9936L51.7094 0.629297C51.3062 0.226367 50.7598 0 50.19 0H8.89062C7.7041 0 6.74219 0.961914 6.74219 2.14844V74.025C6.74219 75.2115 7.7041 76.1734 8.89062 76.1734H18.6555V85.9383C18.6555 87.1248 19.6174 88.0867 20.8039 88.0867H30.5834V97.8516C30.5834 99.0381 31.5453 100 32.7318 100H91.1068C92.2934 100 93.2553 99.0381 93.2553 97.8516V25.975C93.2555 24.7885 92.2936 23.8266 91.107 23.8266ZM64.0646 19.0613H51.5443V6.54102L64.0646 19.0613ZM11.0391 4.29688H47.2475V21.2098C47.2475 22.3963 48.2094 23.3582 49.3959 23.3582H65.1172V71.8766H11.0391V4.29688ZM22.9523 76.1734H67.2656C68.4521 76.1734 69.4141 75.2115 69.4141 74.025V19.224C69.4141 18.6543 69.1877 18.1078 68.7848 17.7049L67.2902 16.2104H77.0305V83.79H22.9523V76.1734ZM88.9586 95.7031H34.8805V88.0867H79.1791C80.3656 88.0867 81.3275 87.1248 81.3275 85.9383V28.1234H88.9586V95.7031Z" fill="black"/>
    </svg>
    