<svg width="100" height="100" viewBox="0 0 100 100" fill="none" xmlns="http://www.w3.org/2000/svg">
    <path d="M91.8949 0H8.10508C3.63594 0 0 3.63594 0 8.10508V75.6135C0 80.0826 3.63594 83.7186 8.10508 83.7186H35.9383V95.7031H30.1445C28.958 95.7031 27.9961 96.665 27.9961 97.8516C27.9961 99.0381 28.958 100 30.1445 100H69.8555C71.042 100 72.0039 99.0381 72.0039 97.8516C72.0039 96.665 71.042 95.7031 69.8555 95.7031H64.0617V83.7186H91.8949C96.3641 83.7186 100 80.0826 100 75.6135V8.10508C100 3.63594 96.3641 0 91.8949 0ZM8.10508 4.29688H91.8949C93.9947 4.29688 95.7031 6.00527 95.7031 8.10508V67.5084H4.29688V8.10508C4.29688 6.00527 6.00527 4.29688 8.10508 4.29688ZM59.7648 95.7031H40.2352V83.7186H59.7648V95.7031ZM91.8949 79.4217H8.10508C6.00527 79.4217 4.29688 77.7133 4.29688 75.6135V71.8053H95.7031V75.6135C95.7031 77.7135 93.9947 79.4217 91.8949 79.4217Z" fill="black"/>
    <path d="M68.8047 59.892H31.1953C28.402 59.892 25.8844 58.457 24.461 56.0537C23.0373 53.6502 22.9891 50.7529 24.3317 48.3033L43.1363 13.9928C44.5315 11.4475 47.0973 9.92773 50 9.92773C52.9028 9.92773 55.4688 11.4473 56.8639 13.9928L75.6686 48.3033C77.0112 50.7529 76.9627 53.6502 75.5393 56.0537C74.1158 58.4572 71.5981 59.892 68.8047 59.892ZM50 14.2246C48.6908 14.2246 47.5336 14.91 46.9043 16.058L28.0996 50.3686C27.4942 51.4732 27.516 52.7801 28.158 53.8641C28.8 54.948 29.9356 55.5951 31.1953 55.5951H68.8047C70.0645 55.5951 71.2 54.948 71.8422 53.8639C72.4842 52.7799 72.5059 51.4732 71.9004 50.3684L53.0957 16.058C52.4664 14.91 51.3092 14.2246 50 14.2246Z" fill="#5D7D2B"/>
    <path d="M50.0176 40.0367C48.8311 40.0367 47.8691 39.0748 47.8691 37.8883V25.975C47.8691 24.7885 48.8311 23.8266 50.0176 23.8266C51.2041 23.8266 52.166 24.7885 52.166 25.975V37.8883C52.1662 39.0748 51.2041 40.0367 50.0176 40.0367Z" fill="#5D7D2B"/>
    <path d="M50 48.9717C51.1865 48.9717 52.1484 48.0098 52.1484 46.8232C52.1484 45.6367 51.1865 44.6748 50 44.6748C48.8135 44.6748 47.8516 45.6367 47.8516 46.8232C47.8516 48.0098 48.8135 48.9717 50 48.9717Z" fill="#5D7D2B"/>
    </svg>
    