<svg width="40" height="40" viewBox="0 0 40 40" fill="none" xmlns="http://www.w3.org/2000/svg">
<rect width="40" height="40" rx="10" fill="#F5F5F5"/>
<g clip-path="url(#clip0_171_1105)">
<path d="M24.25 20.5H20.25C20.0511 20.5 19.8603 20.421 19.7197 20.2803C19.579 20.1397 19.5 19.9489 19.5 19.75V13.75C19.5 13.5511 19.579 13.3603 19.7197 13.2197C19.8603 13.079 20.0511 13 20.25 13C20.4489 13 20.6397 13.079 20.7803 13.2197C20.921 13.3603 21 13.5511 21 13.75V19H24.25C24.4489 19 24.6397 19.079 24.7803 19.2197C24.921 19.3603 25 19.5511 25 19.75C25 19.9489 24.921 20.1397 24.7803 20.2803C24.6397 20.421 24.4489 20.5 24.25 20.5ZM21 9C15.478 9 11 13.478 11 19C11 19.334 11.016 19.665 11.049 19.991C12.2957 19.2093 13.7707 18.8737 15.2329 19.0391C16.695 19.2046 18.0578 19.8612 19.0983 20.9017C20.1388 21.9422 20.7954 23.305 20.9609 24.7671C21.1263 26.2293 20.7907 27.7043 20.009 28.951C20.335 28.984 20.666 29 21 29C26.522 29 31 24.522 31 19C31 13.478 26.522 9 21 9ZM20 25.5C20 26.2223 19.8577 26.9375 19.5813 27.6048C19.3049 28.2721 18.8998 28.8784 18.3891 29.3891C17.8784 29.8998 17.272 30.3049 16.6048 30.5813C15.9375 30.8577 15.2223 31 14.5 31C13.7777 31 13.0625 30.8577 12.3952 30.5813C11.728 30.3049 11.1216 29.8998 10.6109 29.3891C10.1002 28.8784 9.69506 28.2721 9.41866 27.6048C9.14226 26.9375 9 26.2223 9 25.5C9 24.0413 9.57946 22.6424 10.6109 21.6109C11.6424 20.5795 13.0413 20 14.5 20C15.9587 20 17.3576 20.5795 18.3891 21.6109C19.4205 22.6424 20 24.0413 20 25.5ZM12.5 28.5C12.6326 28.5 12.7598 28.4473 12.8536 28.3536C12.9473 28.2598 13 28.1326 13 28V23C13 22.8674 12.9473 22.7402 12.8536 22.6464C12.7598 22.5527 12.6326 22.5 12.5 22.5C12.3674 22.5 12.2402 22.5527 12.1464 22.6464C12.0527 22.7402 12 22.8674 12 23V28C12 28.1326 12.0527 28.2598 12.1464 28.3536C12.2402 28.4473 12.3674 28.5 12.5 28.5ZM16.5 28.5C16.6326 28.5 16.7598 28.4473 16.8536 28.3536C16.9473 28.2598 17 28.1326 17 28V23C17 22.8674 16.9473 22.7402 16.8536 22.6464C16.7598 22.5527 16.6326 22.5 16.5 22.5C16.3674 22.5 16.2402 22.5527 16.1464 22.6464C16.0527 22.7402 16 22.8674 16 23V28C16 28.1326 16.0527 28.2598 16.1464 28.3536C16.2402 28.4473 16.3674 28.5 16.5 28.5Z" fill="#697279"/>
</g>
<defs>
<clipPath id="clip0_171_1105">
<rect width="24" height="24" fill="white" transform="translate(8 8)"/>
</clipPath>
</defs>
</svg>
