<svg width="28" height="28" viewBox="0 0 28 28" fill="none" xmlns="http://www.w3.org/2000/svg">
<g id="Computer Robot" clip-path="url(#clip0_636_6974)">
<path id="Vector" d="M26.6004 23.8C26.6004 24.5426 26.3054 25.2548 25.7803 25.7799C25.2552 26.305 24.543 26.6 23.8004 26.6H4.20039C3.45778 26.6 2.74559 26.305 2.22049 25.7799C1.69539 25.2548 1.40039 24.5426 1.40039 23.8V19.6C1.40039 16.2583 2.72789 13.0534 5.09085 10.6905C7.4538 8.3275 10.6587 7 14.0004 7C17.3421 7 20.547 8.3275 22.9099 10.6905C25.2729 13.0534 26.6004 16.2583 26.6004 19.6V23.8Z" stroke="white" stroke-width="3" stroke-linecap="round" stroke-linejoin="round"/>
<path id="Vector_2" d="M14 7.00039V1.40039" stroke="white" stroke-width="3" stroke-linecap="round" stroke-linejoin="round"/>
<path id="Vector_3" d="M8.4 20.9992C8.0287 20.9992 7.6726 20.8517 7.41005 20.5892C7.1475 20.3266 7 19.9705 7 19.5992C7 19.2279 7.1475 18.8718 7.41005 18.6093C7.6726 18.3467 8.0287 18.1992 8.4 18.1992" stroke="white" stroke-width="3"/>
<path id="Vector_4" d="M8.40039 20.9992C8.77169 20.9992 9.12779 20.8517 9.39034 20.5892C9.65289 20.3266 9.80039 19.9705 9.80039 19.5992C9.80039 19.2279 9.65289 18.8718 9.39034 18.6093C9.12779 18.3467 8.77169 18.1992 8.40039 18.1992" stroke="white" stroke-width="3"/>
<path id="Vector_5" d="M19.5992 20.9992C19.2279 20.9992 18.8718 20.8517 18.6093 20.5892C18.3467 20.3266 18.1992 19.9705 18.1992 19.5992C18.1992 19.2279 18.3467 18.8718 18.6093 18.6093C18.8718 18.3467 19.2279 18.1992 19.5992 18.1992" stroke="white" stroke-width="3"/>
<path id="Vector_6" d="M19.5996 20.9992C19.9709 20.9992 20.327 20.8517 20.5896 20.5892C20.8521 20.3266 20.9996 19.9705 20.9996 19.5992C20.9996 19.2279 20.8521 18.8718 20.5896 18.6093C20.327 18.3467 19.9709 18.1992 19.5996 18.1992" stroke="white" stroke-width="3"/>
</g>
<defs>
<clipPath id="clip0_636_6974">
<rect width="28" height="28" fill="white"/>
</clipPath>
</defs>
</svg>
