<svg width="20" height="21" viewBox="0 0 20 21" fill="none" xmlns="http://www.w3.org/2000/svg">
<g id="Login">
<path id="Login_2" fill-rule="evenodd" clip-rule="evenodd" d="M9.88609 0.279297H14.9254C17.445 0.279297 19.5 2.2793 19.5 4.7193V15.8393C19.5 18.2893 17.445 20.2793 14.9047 20.2793H9.87576C7.35611 20.2793 5.29083 18.2893 5.29083 15.8493V11.0493H11.6932L10.041 12.6493C9.73119 12.9493 9.73119 13.4393 10.041 13.7393C10.1959 13.8893 10.4024 13.9593 10.6089 13.9593C10.8051 13.9593 11.0117 13.8893 11.1666 13.7393L14.1819 10.8293C14.3368 10.6893 14.4194 10.4893 14.4194 10.2793C14.4194 10.0793 14.3368 9.8793 14.1819 9.7393L11.1666 6.8293C10.8568 6.5293 10.3508 6.5293 10.041 6.8293C9.73119 7.1293 9.73119 7.6193 10.041 7.9193L11.6932 9.5093H5.29083V4.7293C5.29083 2.2793 7.35611 0.279297 9.88609 0.279297ZM0.5 10.2792C0.5 9.8592 0.855229 9.5092 1.2815 9.5092H5.29052V11.0492H1.2815C0.855229 11.0492 0.5 10.7092 0.5 10.2792Z" fill="black"/>
</g>
</svg>
