<svg width="180" height="93" viewBox="0 0 180 93" fill="none" xmlns="http://www.w3.org/2000/svg">
    <rect width="180" height="93" fill="white"/>
    <path fill-rule="evenodd" clip-rule="evenodd" d="M67.2564 32.4957L67.2265 32.5157C65.8355 33.443 65 35.0042 65 36.6759V56.5C65 57.8807 66.1193 59 67.5 59H70C71.3807 59 72.5 57.8807 72.5 56.5V54H107.5V56.5C107.5 57.8807 108.619 59 110 59H112.5C113.881 59 115 57.8807 115 56.5V36.6759C115 35.0042 114.164 33.443 112.773 32.5157L112.744 32.4957C113.655 31.9695 114.48 31.4526 114.64 31.2222C115.027 30.6667 115.205 29 114.64 29H110L107.073 23.1459C105.803 20.605 103.206 19 100.365 19H79.6353C76.7945 19 74.1975 20.605 72.9271 23.1459L70 29H65.3597C64.7953 29 64.973 30.6667 65.3597 31.2222C65.52 31.4526 66.3453 31.9695 67.2564 32.4957ZM75.2549 24.1471L70.9804 32.1618C70.5363 32.9944 71.1397 34 72.0833 34H107.917C108.86 34 109.464 32.9944 109.02 32.1618L104.745 24.1471C103.876 22.5177 102.18 21.5 100.333 21.5H79.6667C77.8201 21.5 76.1239 22.5177 75.2549 24.1471ZM67.5 41.6997V38.6763C67.5 37.7116 68.5465 37.1105 69.3798 37.5966L77.7269 42.4657C78.8773 43.1367 78.3204 44.9017 76.9933 44.7911L69.7924 44.191C68.4967 44.0831 67.5 42.9999 67.5 41.6997ZM112.5 38.6763V41.6997C112.5 42.9999 111.503 44.0831 110.208 44.191L103.007 44.7911C101.68 44.9017 101.123 43.1367 102.273 42.4657L110.62 37.5966C111.453 37.1105 112.5 37.7116 112.5 38.6763Z" fill="#E5E5E5"/>
    <path d="M62.3046 71.84H63.7566L66.9366 76.4C67.1046 76.64 67.2446 76.872 67.3566 77.096C67.4686 77.32 67.5366 77.48 67.5606 77.576H67.6086C67.5766 77.44 67.5526 77.248 67.5366 77C67.5206 76.752 67.5126 76.488 67.5126 76.208V71.84H69.1326V80H67.6926L64.5006 75.44C64.3326 75.2 64.1926 74.968 64.0806 74.744C63.9686 74.52 63.9006 74.36 63.8766 74.264H63.8286C63.8526 74.376 63.8726 74.564 63.8886 74.828C63.9126 75.084 63.9246 75.352 63.9246 75.632V80H62.3046V71.84ZM73.5433 78.86C73.7913 78.86 74.0033 78.812 74.1793 78.716C74.3633 78.62 74.5153 78.484 74.6353 78.308C74.7553 78.132 74.8433 77.928 74.8993 77.696C74.9633 77.456 74.9953 77.196 74.9953 76.916C74.9953 76.636 74.9633 76.38 74.8993 76.148C74.8433 75.908 74.7553 75.704 74.6353 75.536C74.5153 75.36 74.3633 75.224 74.1793 75.128C74.0033 75.032 73.7913 74.984 73.5433 74.984C73.2953 74.984 73.0793 75.032 72.8953 75.128C72.7193 75.224 72.5713 75.36 72.4513 75.536C72.3313 75.704 72.2393 75.908 72.1753 76.148C72.1193 76.38 72.0913 76.636 72.0913 76.916C72.0913 77.196 72.1193 77.456 72.1753 77.696C72.2393 77.928 72.3313 78.132 72.4513 78.308C72.5713 78.484 72.7193 78.62 72.8953 78.716C73.0793 78.812 73.2953 78.86 73.5433 78.86ZM73.5433 73.676C74.0073 73.676 74.4273 73.756 74.8033 73.916C75.1873 74.076 75.5113 74.3 75.7753 74.588C76.0393 74.876 76.2433 75.22 76.3873 75.62C76.5313 76.012 76.6033 76.444 76.6033 76.916C76.6033 77.388 76.5313 77.824 76.3873 78.224C76.2433 78.624 76.0393 78.968 75.7753 79.256C75.5113 79.544 75.1873 79.768 74.8033 79.928C74.4273 80.088 74.0073 80.168 73.5433 80.168C73.0713 80.168 72.6473 80.088 72.2713 79.928C71.8953 79.768 71.5753 79.544 71.3113 79.256C71.0473 78.968 70.8433 78.624 70.6993 78.224C70.5553 77.824 70.4833 77.388 70.4833 76.916C70.4833 76.444 70.5553 76.012 70.6993 75.62C70.8433 75.22 71.0473 74.876 71.3113 74.588C71.5753 74.3 71.8953 74.076 72.2713 73.916C72.6473 73.756 73.0713 73.676 73.5433 73.676ZM80.5741 80V71.84H82.1941V80H80.5741ZM84.0035 73.844H85.5275V74.516C85.7115 74.276 85.9475 74.076 86.2355 73.916C86.5235 73.756 86.8675 73.676 87.2675 73.676C87.7315 73.676 88.1115 73.768 88.4075 73.952C88.7115 74.128 88.9435 74.372 89.1035 74.684C89.2875 74.404 89.5315 74.168 89.8355 73.976C90.1475 73.776 90.5275 73.676 90.9755 73.676C91.3595 73.676 91.6875 73.732 91.9595 73.844C92.2395 73.956 92.4675 74.116 92.6435 74.324C92.8275 74.524 92.9595 74.768 93.0395 75.056C93.1275 75.344 93.1715 75.66 93.1715 76.004V80H91.5875V76.196C91.5875 75.796 91.4875 75.496 91.2875 75.296C91.0955 75.088 90.8515 74.984 90.5555 74.984C90.2755 74.984 90.0355 75.072 89.8355 75.248C89.6355 75.416 89.4835 75.624 89.3795 75.872V80H87.7955V76.196C87.7955 75.796 87.6955 75.496 87.4955 75.296C87.3035 75.088 87.0595 74.984 86.7635 74.984C86.4835 74.984 86.2435 75.072 86.0435 75.248C85.8435 75.416 85.6915 75.624 85.5875 75.872V80H84.0035V73.844ZM96.5499 80.168C96.1979 80.168 95.8819 80.12 95.6019 80.024C95.3299 79.928 95.0979 79.792 94.9059 79.616C94.7139 79.44 94.5659 79.232 94.4619 78.992C94.3579 78.744 94.3059 78.472 94.3059 78.176C94.3059 77.88 94.3579 77.612 94.4619 77.372C94.5659 77.124 94.7139 76.912 94.9059 76.736C95.0979 76.56 95.3299 76.424 95.6019 76.328C95.8819 76.232 96.1979 76.184 96.5499 76.184C97.1419 76.184 97.6539 76.356 98.0859 76.7V76.316C98.0859 75.948 97.9899 75.636 97.7979 75.38C97.6059 75.116 97.2939 74.984 96.8619 74.984C96.5179 74.984 96.2299 75.052 95.9979 75.188C95.7659 75.324 95.5899 75.468 95.4699 75.62L94.6539 74.624C94.8379 74.384 95.1219 74.168 95.5059 73.976C95.8979 73.776 96.3619 73.676 96.8979 73.676C97.3539 73.676 97.7539 73.74 98.0979 73.868C98.4419 73.988 98.7299 74.16 98.9619 74.384C99.1939 74.608 99.3699 74.872 99.4899 75.176C99.6099 75.48 99.6699 75.816 99.6699 76.184V80H98.1819V79.568C97.7419 79.968 97.1979 80.168 96.5499 80.168ZM96.9219 79.04C97.1859 79.04 97.4179 78.988 97.6179 78.884C97.8179 78.772 97.9739 78.636 98.0859 78.476V77.876C97.9739 77.716 97.8179 77.584 97.6179 77.48C97.4179 77.368 97.1859 77.312 96.9219 77.312C96.5539 77.312 96.2899 77.4 96.1299 77.576C95.9779 77.752 95.9019 77.952 95.9019 78.176C95.9019 78.4 95.9779 78.6 96.1299 78.776C96.2899 78.952 96.5539 79.04 96.9219 79.04ZM103.45 79.58C103.082 79.58 102.742 79.512 102.43 79.376C102.118 79.24 101.846 79.048 101.614 78.8C101.39 78.544 101.21 78.236 101.074 77.876C100.946 77.508 100.882 77.092 100.882 76.628C100.882 76.164 100.946 75.752 101.074 75.392C101.21 75.024 101.39 74.716 101.614 74.468C101.846 74.212 102.118 74.016 102.43 73.88C102.742 73.744 103.082 73.676 103.45 73.676C103.81 73.676 104.134 73.76 104.422 73.928C104.718 74.088 104.966 74.304 105.166 74.576V73.844H106.69V79.232C106.69 79.744 106.602 80.188 106.426 80.564C106.258 80.94 106.034 81.252 105.754 81.5C105.474 81.748 105.15 81.932 104.782 82.052C104.414 82.18 104.034 82.244 103.642 82.244C103.282 82.244 102.962 82.204 102.682 82.124C102.402 82.052 102.154 81.948 101.938 81.812C101.722 81.684 101.538 81.528 101.386 81.344C101.234 81.168 101.11 80.98 101.014 80.78L102.094 80.072C102.27 80.352 102.466 80.572 102.682 80.732C102.906 80.9 103.21 80.984 103.594 80.984C103.77 80.984 103.946 80.952 104.122 80.888C104.306 80.832 104.47 80.736 104.614 80.6C104.758 80.472 104.874 80.304 104.962 80.096C105.058 79.888 105.106 79.636 105.106 79.34V78.776C104.906 79.016 104.666 79.212 104.386 79.364C104.106 79.508 103.794 79.58 103.45 79.58ZM103.798 78.272C104.062 78.272 104.314 78.196 104.554 78.044C104.794 77.884 104.978 77.66 105.106 77.372V75.896C104.978 75.608 104.794 75.384 104.554 75.224C104.314 75.064 104.062 74.984 103.798 74.984C103.422 74.984 103.102 75.12 102.838 75.392C102.582 75.656 102.454 76.068 102.454 76.628C102.454 77.196 102.582 77.612 102.838 77.876C103.102 78.14 103.422 78.272 103.798 78.272ZM110.972 80.168C110.524 80.168 110.116 80.092 109.748 79.94C109.38 79.788 109.06 79.572 108.788 79.292C108.524 79.012 108.316 78.676 108.164 78.284C108.02 77.884 107.948 77.436 107.948 76.94C107.948 76.42 108.028 75.96 108.188 75.56C108.348 75.152 108.564 74.808 108.836 74.528C109.116 74.248 109.432 74.036 109.784 73.892C110.144 73.748 110.524 73.676 110.924 73.676C111.332 73.676 111.708 73.752 112.052 73.904C112.404 74.056 112.704 74.268 112.952 74.54C113.2 74.804 113.392 75.124 113.528 75.5C113.672 75.868 113.744 76.272 113.744 76.712C113.744 76.808 113.74 76.916 113.732 77.036C113.724 77.156 113.712 77.26 113.696 77.348H109.508C109.572 77.804 109.732 78.176 109.988 78.464C110.244 78.744 110.612 78.884 111.092 78.884C111.452 78.884 111.752 78.808 111.992 78.656C112.24 78.504 112.448 78.292 112.616 78.02L113.6 78.836C113.248 79.3 112.86 79.64 112.436 79.856C112.012 80.064 111.524 80.168 110.972 80.168ZM110.924 74.912C110.548 74.912 110.24 75.024 110 75.248C109.768 75.472 109.612 75.812 109.532 76.268H112.22C112.172 75.804 112.032 75.464 111.8 75.248C111.576 75.024 111.284 74.912 110.924 74.912ZM118.072 75.524C117.912 75.332 117.748 75.184 117.58 75.08C117.42 74.968 117.228 74.912 117.004 74.912C116.82 74.912 116.664 74.968 116.536 75.08C116.416 75.192 116.356 75.328 116.356 75.488C116.356 75.64 116.396 75.764 116.476 75.86C116.564 75.956 116.716 76.032 116.932 76.088L117.388 76.196C118.036 76.348 118.516 76.576 118.828 76.88C119.148 77.184 119.308 77.62 119.308 78.188C119.308 78.46 119.248 78.716 119.128 78.956C119.016 79.196 118.852 79.408 118.636 79.592C118.428 79.768 118.172 79.908 117.868 80.012C117.564 80.116 117.224 80.168 116.848 80.168C116.312 80.168 115.84 80.056 115.432 79.832C115.024 79.6 114.68 79.288 114.4 78.896L115.348 78.008C115.556 78.336 115.788 78.572 116.044 78.716C116.308 78.86 116.596 78.932 116.908 78.932C117.156 78.932 117.36 78.876 117.52 78.764C117.68 78.644 117.76 78.484 117.76 78.284C117.76 78.084 117.692 77.932 117.556 77.828C117.428 77.724 117.212 77.636 116.908 77.564L116.44 77.456C115.912 77.336 115.508 77.124 115.228 76.82C114.948 76.508 114.808 76.096 114.808 75.584C114.808 75.328 114.856 75.084 114.952 74.852C115.048 74.62 115.188 74.42 115.372 74.252C115.564 74.076 115.796 73.936 116.068 73.832C116.348 73.728 116.668 73.676 117.028 73.676C117.5 73.676 117.9 73.772 118.228 73.964C118.564 74.156 118.836 74.396 119.044 74.684L118.072 75.524Z" fill="#E5E5E5"/>
    </svg>
    