<svg width="100" height="100" viewBox="0 0 100 100" fill="none" xmlns="http://www.w3.org/2000/svg">
<g clip-path="url(#clip0_837_12248)">
<g clip-path="url(#clip1_837_12248)">
<path d="M65.8571 32.6667H74.9048C76.1045 32.6667 77.2552 33.1433 78.1036 33.9917C78.952 34.84 79.4286 35.9907 79.4286 37.1905V91.4762C79.4286 92.676 78.952 93.8266 78.1036 94.675C77.2552 95.5234 76.1045 96 74.9048 96H2.52381C1.32402 96 0.173372 95.5234 -0.675007 94.675C-1.52339 93.8266 -2 92.676 -2 91.4762V37.1905C-2 35.9907 -1.52339 34.84 -0.675007 33.9917C0.173372 33.1433 1.32402 32.6667 2.52381 32.6667H11.5714V28.1429C11.5714 20.9441 14.4311 14.0402 19.5214 8.94996C24.6117 3.85969 31.5156 1 38.7143 1C45.913 1 52.8169 3.85969 57.9072 8.94996C62.9975 14.0402 65.8571 20.9441 65.8571 28.1429V32.6667ZM56.8095 32.6667V28.1429C56.8095 23.3437 54.9031 18.7411 51.5096 15.3476C48.116 11.9541 43.5134 10.0476 38.7143 10.0476C33.9151 10.0476 29.3125 11.9541 25.919 15.3476C22.5255 18.7411 20.619 23.3437 20.619 28.1429V32.6667H56.8095ZM34.1905 59.8095V68.8571H43.2381V59.8095H34.1905ZM16.0952 59.8095V68.8571H25.1429V59.8095H16.0952ZM52.2857 59.8095V68.8571H61.3333V59.8095H52.2857Z" fill="#E5E5E5"/>
</g>
<g clip-path="url(#clip2_837_12248)">
<mask id="path-2-outside-1_837_12248" maskUnits="userSpaceOnUse" x="49.334" y="49.3359" width="48" height="48" fill="black">
<rect fill="white" x="49.334" y="49.3359" width="48" height="48"/>
<path d="M59.1581 59.1601C59.419 58.8988 59.7289 58.6916 60.0699 58.5501C60.411 58.4087 60.7766 58.3359 61.1458 58.3359C61.515 58.3359 61.8806 58.4087 62.2217 58.5501C62.5628 58.6916 62.8726 58.8988 63.1335 59.1601L73.3344 69.3572L83.5353 59.1601C83.7963 58.8991 84.1062 58.692 84.4473 58.5507C84.7883 58.4095 85.1538 58.3368 85.523 58.3368C85.8921 58.3368 86.2577 58.4095 86.5987 58.5507C86.9398 58.692 87.2496 58.8991 87.5107 59.1601C87.7717 59.4211 87.9787 59.731 88.12 60.072C88.2613 60.4131 88.334 60.7786 88.334 61.1478C88.334 61.5169 88.2613 61.8824 88.12 62.2235C87.9787 62.5645 87.7717 62.8744 87.5107 63.1354L77.3135 73.3364L87.5107 83.5373C88.0378 84.0644 88.334 84.7794 88.334 85.5249C88.334 86.2705 88.0378 86.9854 87.5107 87.5126C86.9835 88.0398 86.2685 88.3359 85.523 88.3359C84.7775 88.3359 84.0625 88.0398 83.5353 87.5126L73.3344 77.3155L63.1335 87.5126C62.6063 88.0398 61.8913 88.3359 61.1458 88.3359C60.4003 88.3359 59.6853 88.0398 59.1581 87.5126C58.631 86.9854 58.3348 86.2705 58.3348 85.5249C58.3348 84.7794 58.631 84.0644 59.1581 83.5373L69.3553 73.3364L59.1581 63.1354C58.8969 62.8746 58.6896 62.5647 58.5482 62.2236C58.4068 61.8826 58.334 61.517 58.334 61.1478C58.334 60.7785 58.4068 60.4129 58.5482 60.0719C58.6896 59.7308 58.8969 59.421 59.1581 59.1601Z"/>
</mask>
<path d="M59.1581 59.1601L65.5176 65.5286L65.5266 65.5195L59.1581 59.1601ZM61.1458 58.3359V67.3359V58.3359ZM63.1335 59.1601L56.765 65.5195L56.7707 65.5252L63.1335 59.1601ZM73.3344 69.3572L66.9716 75.7224C70.4861 79.2355 76.1827 79.2355 79.6972 75.7224L73.3344 69.3572ZM83.5353 59.1601L89.8981 65.5252L89.8993 65.5241L83.5353 59.1601ZM85.523 58.3368V49.3368V58.3368ZM87.5107 63.1354L81.1467 56.7715L81.1455 56.7727L87.5107 63.1354ZM77.3135 73.3364L70.9484 66.9736C67.4352 70.488 67.4352 76.1847 70.9484 79.6991L77.3135 73.3364ZM87.5107 83.5373L81.1455 89.9001L81.1467 89.9012L87.5107 83.5373ZM83.5353 87.5126L89.8993 81.1487L89.8981 81.1475L83.5353 87.5126ZM73.3344 77.3155L79.6972 70.9503C76.1827 67.4372 70.4861 67.4372 66.9716 70.9503L73.3344 77.3155ZM63.1335 87.5126L56.7707 81.1475L56.7695 81.1487L63.1335 87.5126ZM59.1581 83.5373L65.5221 89.9012L65.5233 89.9001L59.1581 83.5373ZM69.3553 73.3364L75.7204 79.6991C79.2336 76.1847 79.2336 70.488 75.7204 66.9736L69.3553 73.3364ZM59.1581 63.1354L65.5233 56.7727L65.5176 56.767L59.1581 63.1354ZM65.5266 65.5195C64.9516 66.0953 64.2687 66.5522 63.517 66.8638L56.6228 50.2365C55.189 50.831 53.8864 51.7023 52.7896 52.8007L65.5266 65.5195ZM63.517 66.8638C62.7654 67.1755 61.9596 67.3359 61.1458 67.3359V49.3359C59.5936 49.3359 58.0566 49.6419 56.6228 50.2365L63.517 66.8638ZM61.1458 67.3359C60.332 67.3359 59.5263 67.1755 58.7746 66.8638L65.6688 50.2365C64.235 49.6419 62.698 49.3359 61.1458 49.3359V67.3359ZM58.7746 66.8638C58.0229 66.5522 57.34 66.0953 56.765 65.5195L69.502 52.8007C68.4052 51.7023 67.1026 50.831 65.6688 50.2365L58.7746 66.8638ZM56.7707 65.5252L66.9716 75.7224L79.6972 62.9921L69.4963 52.795L56.7707 65.5252ZM79.6972 75.7224L89.8981 65.5252L77.1725 52.795L66.9716 62.9921L79.6972 75.7224ZM89.8993 65.5241C89.3246 66.0987 88.6423 66.5546 87.8914 66.8657L81.0031 50.2358C79.5701 50.8294 78.2681 51.6994 77.1713 52.7961L89.8993 65.5241ZM87.8914 66.8657C87.1405 67.1767 86.3357 67.3368 85.523 67.3368V49.3368C83.9719 49.3368 82.4361 49.6423 81.0031 50.2358L87.8914 66.8657ZM85.523 67.3368C84.7102 67.3368 83.9054 67.1767 83.1546 66.8657L90.0429 50.2358C88.6099 49.6423 87.074 49.3368 85.523 49.3368V67.3368ZM83.1546 66.8657C82.4037 66.5546 81.7214 66.0987 81.1467 65.5241L93.8746 52.7961C92.7779 51.6994 91.4758 50.8294 90.0429 50.2358L83.1546 66.8657ZM81.1467 65.5241C80.572 64.9494 80.1161 64.2671 79.8051 63.5162L96.4349 56.6279C95.8414 55.1949 94.9714 53.8929 93.8746 52.7961L81.1467 65.5241ZM79.8051 63.5162C79.4941 62.7653 79.334 61.9606 79.334 61.1478L97.334 61.1478C97.334 59.5967 97.0285 58.0608 96.4349 56.6279L79.8051 63.5162ZM79.334 61.1478C79.334 60.335 79.4941 59.5302 79.8051 58.7793L96.4349 65.6676C97.0285 64.2347 97.334 62.6988 97.334 61.1478L79.334 61.1478ZM79.8051 58.7793C80.1161 58.0284 80.572 57.3462 81.1467 56.7715L93.8746 69.4994C94.9714 68.4027 95.8414 67.1006 96.4349 65.6676L79.8051 58.7793ZM81.1455 56.7727L70.9484 66.9736L83.6786 79.6991L93.8758 69.4982L81.1455 56.7727ZM70.9484 79.6991L81.1455 89.9001L93.8758 77.1745L83.6786 66.9736L70.9484 79.6991ZM81.1467 89.9012C79.9861 88.7406 79.334 87.1664 79.334 85.5249H97.334C97.334 82.3924 96.0896 79.3883 93.8746 77.1733L81.1467 89.9012ZM79.334 85.5249C79.334 83.8835 79.9861 82.3093 81.1467 81.1487L93.8746 93.8766C96.0896 91.6616 97.334 88.6574 97.334 85.5249H79.334ZM81.1467 81.1487C82.3073 79.988 83.8815 79.3359 85.523 79.3359V97.3359C88.6555 97.3359 91.6596 96.0915 93.8746 93.8766L81.1467 81.1487ZM85.523 79.3359C87.1644 79.3359 88.7386 79.988 89.8993 81.1487L77.1713 93.8766C79.3863 96.0915 82.3905 97.3359 85.523 97.3359V79.3359ZM89.8981 81.1475L79.6972 70.9503L66.9716 83.6806L77.1725 93.8777L89.8981 81.1475ZM66.9716 70.9503L56.7707 81.1475L69.4963 93.8777L79.6972 83.6806L66.9716 70.9503ZM56.7695 81.1487C57.9302 79.988 59.5044 79.3359 61.1458 79.3359V97.3359C64.2783 97.3359 67.2825 96.0915 69.4975 93.8766L56.7695 81.1487ZM61.1458 79.3359C62.7873 79.3359 64.3615 79.988 65.5221 81.1487L52.7942 93.8766C55.0092 96.0915 58.0133 97.3359 61.1458 97.3359V79.3359ZM65.5221 81.1487C66.6828 82.3093 67.3348 83.8835 67.3348 85.5249H49.3348C49.3348 88.6574 50.5792 91.6616 52.7942 93.8766L65.5221 81.1487ZM67.3348 85.5249C67.3348 87.1664 66.6828 88.7406 65.5221 89.9012L52.7942 77.1733C50.5792 79.3883 49.3348 82.3925 49.3348 85.5249H67.3348ZM65.5233 89.9001L75.7204 79.6991L62.9902 66.9736L52.793 77.1745L65.5233 89.9001ZM75.7204 66.9736L65.5233 56.7727L52.793 69.4982L62.9902 79.6991L75.7204 66.9736ZM65.5176 56.767C66.0934 57.342 66.5502 58.0248 66.8619 58.7765L50.2345 65.6708C50.829 67.1046 51.7004 68.4071 52.7987 69.5039L65.5176 56.767ZM66.8619 58.7765C67.1736 59.5282 67.334 60.334 67.334 61.1478H49.334C49.334 62.7 49.64 64.2369 50.2345 65.6708L66.8619 58.7765ZM67.334 61.1478C67.334 61.9615 67.1736 62.7673 66.8619 63.519L50.2345 56.6248C49.64 58.0586 49.334 59.5956 49.334 61.1478H67.334ZM66.8619 63.519C66.5502 64.2707 66.0934 64.9536 65.5176 65.5286L52.7987 52.7916C51.7004 53.8884 50.829 55.1909 50.2345 56.6248L66.8619 63.519Z" fill="white" mask="url(#path-2-outside-1_837_12248)"/>
<path d="M59.6889 57.6264C59.2266 57.8181 58.8066 58.0989 58.453 58.453C58.0989 58.8066 57.8181 59.2266 57.6264 59.6889C57.4346 60.1514 57.3359 60.6471 57.3359 61.1478C57.3359 61.6484 57.4346 62.1442 57.6264 62.6067C57.8181 63.069 58.099 63.489 58.4531 63.8427C58.4533 63.8428 58.4534 63.8429 58.4535 63.8431L67.9433 73.3364L58.453 82.8302C57.7383 83.5449 57.3368 84.5142 57.3368 85.5249C57.3368 86.5357 57.7383 87.505 58.453 88.2197L59.1543 87.5184L58.453 88.2197C59.1677 88.9344 60.137 89.3359 61.1478 89.3359C62.1584 89.3359 63.1277 88.9345 63.8424 88.2199C63.8425 88.2198 63.8425 88.2198 63.8426 88.2197L73.3364 78.7294L82.8302 88.2197C83.5449 88.9344 84.5142 89.3359 85.5249 89.3359C86.5357 89.3359 87.505 88.9344 88.2197 88.2197C88.9344 87.505 89.3359 86.5357 89.3359 85.5249C89.3359 84.5142 88.9344 83.5449 88.2197 82.8302L78.7294 73.3364L88.2197 63.8425C88.2198 63.8425 88.2198 63.8425 88.2199 63.8424C88.5737 63.4886 88.8543 63.0685 89.0458 62.6062C89.2374 62.1438 89.3359 61.6482 89.3359 61.1478C89.3359 60.6473 89.2374 60.1517 89.0458 59.6894C88.8543 59.227 88.5736 58.8069 88.2197 58.453C87.8658 58.0991 87.4457 57.8184 86.9833 57.6269C86.521 57.4353 86.0254 57.3368 85.5249 57.3368C85.0245 57.3368 84.5289 57.4353 84.0665 57.6269C83.6042 57.8184 83.184 58.0991 82.8302 58.453L73.3364 67.9433L63.8431 58.4535C63.8429 58.4534 63.8428 58.4533 63.8427 58.4531C63.489 58.099 63.069 57.8181 62.6067 57.6264C62.1442 57.4346 61.6484 57.3359 61.1478 57.3359C60.6471 57.3359 60.1514 57.4346 59.6889 57.6264Z" fill="#af6249" stroke="#af6249" stroke-width="2" stroke-linejoin="round"/>
</g>
</g>
<defs>
<clipPath id="clip0_837_12248">
<rect width="100" height="100" fill="white"/>
</clipPath>
<clipPath id="clip1_837_12248">
<rect width="78.75" height="90" fill="white" transform="translate(-1 1)"/>
</clipPath>
<clipPath id="clip2_837_12248">
<rect width="50" height="50" fill="white" transform="translate(50 50)"/>
</clipPath>
</defs>
</svg>
