<svg width="100" height="100" viewBox="0 0 100 100" fill="none" xmlns="http://www.w3.org/2000/svg">
<g id="mingcute:bank-card-fill" clip-path="url(#clip0_837_11669)">
<path id="Vector" d="M67.8571 31.6667H76.9048C78.1045 31.6667 79.2552 32.1433 80.1036 32.9917C80.952 33.84 81.4286 34.9907 81.4286 36.1905V90.4762C81.4286 91.676 80.952 92.8266 80.1036 93.675C79.2552 94.5234 78.1045 95 76.9048 95H4.52381C3.32402 95 2.17337 94.5234 1.32499 93.675C0.476614 92.8266 0 91.676 0 90.4762V36.1905C0 34.9907 0.476614 33.84 1.32499 32.9917C2.17337 32.1433 3.32402 31.6667 4.52381 31.6667H13.5714V27.1429C13.5714 19.9441 16.4311 13.0402 21.5214 7.94996C26.6117 2.85969 33.5156 0 40.7143 0C47.913 0 54.8169 2.85969 59.9072 7.94996C64.9975 13.0402 67.8571 19.9441 67.8571 27.1429V31.6667ZM58.8095 31.6667V27.1429C58.8095 22.3437 56.9031 17.7411 53.5096 14.3476C50.116 10.9541 45.5134 9.04762 40.7143 9.04762C35.9151 9.04762 31.3125 10.9541 27.919 14.3476C24.5255 17.7411 22.619 22.3437 22.619 27.1429V31.6667H58.8095ZM36.1905 58.8095V67.8571H45.2381V58.8095H36.1905ZM18.0952 58.8095V67.8571H27.1429V58.8095H18.0952ZM54.2857 58.8095V67.8571H63.3333V58.8095H54.2857Z" fill="#E5E5E5"/>
<g id="Group 2658">
<path id="Subtract" d="M79.7794 101.084L79.7807 101.082L101.712 76.4523C102.484 75.6181 103.085 74.6389 103.477 73.5688C103.876 72.4796 104.05 71.3208 103.987 70.1614C103.925 69.002 103.626 67.8691 103.112 66.8299C102.598 65.7908 101.88 64.8682 101.004 64.1141C100.128 63.3601 99.1114 62.7893 98.015 62.432C96.9188 62.0747 95.7626 61.9372 94.6138 62.0264C93.465 62.1156 92.3435 62.43 91.3151 62.9535C90.3038 63.4683 89.401 64.176 88.6604 65.0393L72.0269 83.7223L65.9024 79.2084L63.7099 82.1833L65.9024 79.2084C64.9875 78.5341 63.9501 78.0461 62.8503 77.7692C61.7505 77.4923 60.607 77.4312 59.4842 77.5888C58.3614 77.7464 57.2782 78.1202 56.2965 78.6914C55.3148 79.2626 54.4524 80.021 53.7614 80.9264C53.0703 81.832 52.5646 82.8663 52.2766 83.9711C51.9885 85.076 51.9246 86.2269 52.0889 87.3573C52.2532 88.4875 52.6421 89.5718 53.2304 90.5483C53.8187 91.5246 54.5941 92.3729 55.5091 93.0473L68.0579 102.296L68.059 102.297C69.8139 103.589 71.9893 104.176 74.1513 103.954C76.3138 103.732 78.3263 102.714 79.7794 101.084Z" fill="white" stroke="white" stroke-width="8"/>
<path id="Subtract_2" d="M99.7214 72.1919C99.5085 72.7725 99.1795 73.3055 98.7537 73.7592L76.7933 98.4225C76.0118 99.2993 74.9222 99.8537 73.7426 99.9749C72.5629 100.096 71.3802 99.7751 70.4311 99.076L57.8823 89.8273C57.3879 89.463 56.9714 89.0065 56.6566 88.4839C56.3417 87.9614 56.1347 87.383 56.0473 86.7818C55.9599 86.1806 55.9939 85.5684 56.1472 84.9802C56.3006 84.3919 56.5704 83.8391 56.9412 83.3532C57.3119 82.8674 57.7765 82.4581 58.3082 82.1487C58.84 81.8393 59.4285 81.6358 60.0403 81.55C60.6521 81.4641 61.275 81.4975 61.8737 81.6482C62.4723 81.7989 63.0349 82.064 63.5293 82.4284L72.5895 89.1059L91.6761 67.6674C92.0778 67.1929 92.572 66.8021 93.1297 66.5182C93.6874 66.2343 94.2974 66.063 94.9235 66.0144C95.5497 65.9657 96.1794 66.0408 96.7756 66.2351C97.3717 66.4294 97.9223 66.739 98.3948 67.1457C98.8673 67.5524 99.2521 68.0479 99.5267 68.6031C99.8012 69.1582 99.9599 69.7617 99.9933 70.3781C100.027 70.9945 99.9343 71.6112 99.7214 72.1919Z" fill="#af6249"/>
</g>
</g>
<defs>
<clipPath id="clip0_837_11669">
<rect width="100" height="100" fill="white"/>
</clipPath>
</defs>
</svg>
