<svg width="100" height="100" viewBox="0 0 100 100" fill="none" xmlns="http://www.w3.org/2000/svg">
<path d="M78.0395 9.47368H73.3026V0H63.8289V9.47368H25.9342V0H16.4605V9.47368H11.7237C9.21111 9.47368 6.80144 10.4718 5.02478 12.2485C3.24812 14.0251 2.25 16.4348 2.25 18.9474V80.5263C2.25 83.0389 3.24812 85.4486 5.02478 87.2252C6.80144 89.0019 9.21111 90 11.7237 90H78.0395C80.5521 90 82.9617 89.0019 84.7384 87.2252C86.515 85.4486 87.5132 83.0389 87.5132 80.5263V18.9474C87.5132 16.4348 86.515 14.0251 84.7384 12.2485C82.9617 10.4718 80.5521 9.47368 78.0395 9.47368ZM78.0395 80.5263H11.7237V28.4211H78.0395V80.5263Z" fill="#E5E5E5"/>
<g clip-path="url(#clip0_636_11244)">
<mask id="path-2-outside-1_636_11244" maskUnits="userSpaceOnUse" x="49.334" y="49.334" width="48" height="48" fill="black">
<rect fill="white" x="49.334" y="49.334" width="48" height="48"/>
<path d="M59.1581 59.1581C59.419 58.8969 59.7289 58.6896 60.0699 58.5482C60.411 58.4068 60.7766 58.334 61.1458 58.334C61.515 58.334 61.8806 58.4068 62.2217 58.5482C62.5628 58.6896 62.8726 58.8969 63.1335 59.1581L73.3344 69.3553L83.5353 59.1581C83.7963 58.8971 84.1062 58.6901 84.4473 58.5488C84.7883 58.4075 85.1538 58.3348 85.523 58.3348C85.8921 58.3348 86.2577 58.4075 86.5987 58.5488C86.9398 58.6901 87.2496 58.8971 87.5107 59.1581C87.7717 59.4192 87.9787 59.729 88.12 60.0701C88.2613 60.4111 88.334 60.7767 88.334 61.1458C88.334 61.515 88.2613 61.8805 88.12 62.2215C87.9787 62.5626 87.7717 62.8725 87.5107 63.1335L77.3135 73.3344L87.5107 83.5353C88.0378 84.0625 88.334 84.7775 88.334 85.523C88.334 86.2685 88.0378 86.9835 87.5107 87.5107C86.9835 88.0378 86.2685 88.334 85.523 88.334C84.7775 88.334 84.0625 88.0378 83.5353 87.5107L73.3344 77.3135L63.1335 87.5107C62.6063 88.0378 61.8913 88.334 61.1458 88.334C60.4003 88.334 59.6853 88.0378 59.1581 87.5107C58.631 86.9835 58.3348 86.2685 58.3348 85.523C58.3348 84.7775 58.631 84.0625 59.1581 83.5353L69.3553 73.3344L59.1581 63.1335C58.8969 62.8726 58.6896 62.5628 58.5482 62.2217C58.4068 61.8806 58.334 61.515 58.334 61.1458C58.334 60.7766 58.4068 60.411 58.5482 60.0699C58.6896 59.7289 58.8969 59.419 59.1581 59.1581Z"/>
</mask>
<path d="M59.1581 59.1581L65.5176 65.5266L65.5266 65.5176L59.1581 59.1581ZM61.1458 58.334V67.334V58.334ZM63.1335 59.1581L56.765 65.5176L56.7707 65.5233L63.1335 59.1581ZM73.3344 69.3553L66.9716 75.7204C70.4861 79.2336 76.1827 79.2336 79.6972 75.7204L73.3344 69.3553ZM83.5353 59.1581L89.8981 65.5233L89.8993 65.5221L83.5353 59.1581ZM85.523 58.3348V49.3348V58.3348ZM87.5107 63.1335L81.1467 56.7695L81.1455 56.7707L87.5107 63.1335ZM77.3135 73.3344L70.9484 66.9716C67.4352 70.4861 67.4352 76.1827 70.9484 79.6972L77.3135 73.3344ZM87.5107 83.5353L81.1455 89.8981L81.1467 89.8993L87.5107 83.5353ZM83.5353 87.5107L89.8993 81.1467L89.8981 81.1455L83.5353 87.5107ZM73.3344 77.3135L79.6972 70.9484C76.1827 67.4352 70.4861 67.4352 66.9716 70.9484L73.3344 77.3135ZM63.1335 87.5107L56.7707 81.1455L56.7695 81.1467L63.1335 87.5107ZM59.1581 83.5353L65.5221 89.8993L65.5233 89.8981L59.1581 83.5353ZM69.3553 73.3344L75.7204 79.6972C79.2336 76.1827 79.2336 70.4861 75.7204 66.9716L69.3553 73.3344ZM59.1581 63.1335L65.5233 56.7707L65.5176 56.765L59.1581 63.1335ZM65.5266 65.5176C64.9516 66.0934 64.2687 66.5502 63.517 66.8619L56.6228 50.2345C55.189 50.829 53.8864 51.7004 52.7896 52.7987L65.5266 65.5176ZM63.517 66.8619C62.7654 67.1736 61.9596 67.334 61.1458 67.334V49.334C59.5936 49.334 58.0566 49.64 56.6228 50.2345L63.517 66.8619ZM61.1458 67.334C60.332 67.334 59.5263 67.1736 58.7746 66.8619L65.6688 50.2345C64.235 49.64 62.698 49.334 61.1458 49.334V67.334ZM58.7746 66.8619C58.0229 66.5502 57.34 66.0934 56.765 65.5176L69.502 52.7987C68.4052 51.7004 67.1026 50.829 65.6688 50.2345L58.7746 66.8619ZM56.7707 65.5233L66.9716 75.7204L79.6972 62.9902L69.4963 52.793L56.7707 65.5233ZM79.6972 75.7204L89.8981 65.5233L77.1725 52.793L66.9716 62.9902L79.6972 75.7204ZM89.8993 65.5221C89.3246 66.0968 88.6423 66.5527 87.8914 66.8637L81.0031 50.2339C79.5701 50.8274 78.2681 51.6974 77.1713 52.7942L89.8993 65.5221ZM87.8914 66.8637C87.1405 67.1747 86.3357 67.3348 85.523 67.3348V49.3348C83.9719 49.3348 82.4361 49.6403 81.0031 50.2339L87.8914 66.8637ZM85.523 67.3348C84.7102 67.3348 83.9054 67.1747 83.1546 66.8637L90.0429 50.2339C88.6099 49.6403 87.074 49.3348 85.523 49.3348V67.3348ZM83.1546 66.8637C82.4037 66.5527 81.7214 66.0968 81.1467 65.5221L93.8746 52.7942C92.7779 51.6974 91.4758 50.8274 90.0429 50.2339L83.1546 66.8637ZM81.1467 65.5221C80.572 64.9474 80.1161 64.2651 79.8051 63.5142L96.4349 56.6259C95.8414 55.193 94.9714 53.8909 93.8746 52.7942L81.1467 65.5221ZM79.8051 63.5142C79.4941 62.7634 79.334 61.9586 79.334 61.1458L97.334 61.1458C97.334 59.5947 97.0285 58.0589 96.4349 56.6259L79.8051 63.5142ZM79.334 61.1458C79.334 60.333 79.4941 59.5282 79.8051 58.7774L96.4349 65.6657C97.0285 64.2327 97.334 62.6969 97.334 61.1458L79.334 61.1458ZM79.8051 58.7774C80.1161 58.0265 80.572 57.3442 81.1467 56.7695L93.8746 69.4975C94.9714 68.4007 95.8414 67.0987 96.4349 65.6657L79.8051 58.7774ZM81.1455 56.7707L70.9484 66.9716L83.6786 79.6972L93.8758 69.4963L81.1455 56.7707ZM70.9484 79.6972L81.1455 89.8981L93.8758 77.1725L83.6786 66.9716L70.9484 79.6972ZM81.1467 89.8993C79.9861 88.7386 79.334 87.1644 79.334 85.523H97.334C97.334 82.3905 96.0896 79.3863 93.8746 77.1713L81.1467 89.8993ZM79.334 85.523C79.334 83.8815 79.9861 82.3073 81.1467 81.1467L93.8746 93.8746C96.0896 91.6596 97.334 88.6555 97.334 85.523H79.334ZM81.1467 81.1467C82.3073 79.9861 83.8815 79.334 85.523 79.334V97.334C88.6555 97.334 91.6596 96.0896 93.8746 93.8746L81.1467 81.1467ZM85.523 79.334C87.1644 79.334 88.7386 79.9861 89.8993 81.1467L77.1713 93.8746C79.3863 96.0896 82.3905 97.334 85.523 97.334V79.334ZM89.8981 81.1455L79.6972 70.9484L66.9716 83.6786L77.1725 93.8758L89.8981 81.1455ZM66.9716 70.9484L56.7707 81.1455L69.4963 93.8758L79.6972 83.6786L66.9716 70.9484ZM56.7695 81.1467C57.9302 79.9861 59.5044 79.334 61.1458 79.334V97.334C64.2783 97.334 67.2825 96.0896 69.4975 93.8746L56.7695 81.1467ZM61.1458 79.334C62.7873 79.334 64.3615 79.9861 65.5221 81.1467L52.7942 93.8746C55.0092 96.0896 58.0133 97.334 61.1458 97.334V79.334ZM65.5221 81.1467C66.6828 82.3074 67.3348 83.8816 67.3348 85.523H49.3348C49.3348 88.6555 50.5792 91.6596 52.7942 93.8746L65.5221 81.1467ZM67.3348 85.523C67.3348 87.1644 66.6828 88.7386 65.5221 89.8993L52.7942 77.1713C50.5792 79.3863 49.3348 82.3905 49.3348 85.523H67.3348ZM65.5233 89.8981L75.7204 79.6972L62.9902 66.9716L52.793 77.1725L65.5233 89.8981ZM75.7204 66.9716L65.5233 56.7707L52.793 69.4963L62.9902 79.6972L75.7204 66.9716ZM65.5176 56.765C66.0934 57.34 66.5502 58.0229 66.8619 58.7746L50.2345 65.6688C50.829 67.1026 51.7004 68.4052 52.7987 69.502L65.5176 56.765ZM66.8619 58.7746C67.1736 59.5263 67.334 60.332 67.334 61.1458H49.334C49.334 62.698 49.64 64.235 50.2345 65.6688L66.8619 58.7746ZM67.334 61.1458C67.334 61.9596 67.1736 62.7654 66.8619 63.517L50.2345 56.6228C49.64 58.0566 49.334 59.5936 49.334 61.1458H67.334ZM66.8619 63.517C66.5502 64.2687 66.0934 64.9516 65.5176 65.5266L52.7987 52.7896C51.7004 53.8864 50.829 55.189 50.2345 56.6228L66.8619 63.517Z" fill="white" mask="url(#path-2-outside-1_636_11244)"/>
<path d="M59.6889 57.6264C59.2266 57.8181 58.8066 58.0989 58.453 58.453C58.0989 58.8066 57.8181 59.2266 57.6264 59.6889C57.4346 60.1514 57.3359 60.6471 57.3359 61.1478C57.3359 61.6484 57.4346 62.1442 57.6264 62.6067C57.8181 63.069 58.099 63.489 58.4531 63.8427C58.4533 63.8428 58.4534 63.8429 58.4535 63.8431L67.9433 73.3364L58.453 82.8302C57.7383 83.5449 57.3368 84.5142 57.3368 85.5249C57.3368 86.5357 57.7383 87.505 58.453 88.2197L59.1543 87.5184L58.453 88.2197C59.1677 88.9344 60.137 89.3359 61.1478 89.3359C62.1584 89.3359 63.1277 88.9345 63.8424 88.2199C63.8425 88.2198 63.8425 88.2198 63.8426 88.2197L73.3364 78.7294L82.8302 88.2197C83.5449 88.9344 84.5142 89.3359 85.5249 89.3359C86.5357 89.3359 87.505 88.9344 88.2197 88.2197C88.9344 87.505 89.3359 86.5357 89.3359 85.5249C89.3359 84.5142 88.9344 83.5449 88.2197 82.8302L78.7294 73.3364L88.2197 63.8425C88.2198 63.8425 88.2198 63.8425 88.2199 63.8424C88.5737 63.4886 88.8543 63.0685 89.0458 62.6062C89.2374 62.1438 89.3359 61.6482 89.3359 61.1478C89.3359 60.6473 89.2374 60.1517 89.0458 59.6894C88.8543 59.227 88.5736 58.8069 88.2197 58.453C87.8658 58.0991 87.4457 57.8184 86.9833 57.6269C86.521 57.4353 86.0254 57.3368 85.5249 57.3368C85.0245 57.3368 84.5289 57.4353 84.0665 57.6269C83.6042 57.8184 83.184 58.0991 82.8302 58.453L73.3364 67.9433L63.8431 58.4535C63.8429 58.4534 63.8428 58.4533 63.8427 58.4531C63.489 58.099 63.069 57.8181 62.6067 57.6264C62.1442 57.4346 61.6484 57.3359 61.1478 57.3359C60.6471 57.3359 60.1514 57.4346 59.6889 57.6264Z" fill="#5d7d2b" stroke="#5d7d2b" stroke-width="2" stroke-linejoin="round"/>
</g>
<defs>
<clipPath id="clip0_636_11244">
<rect width="50" height="50" fill="white" transform="translate(50 50)"/>
</clipPath>
</defs>
</svg>
