<svg width="100" height="100" viewBox="0 0 100 100" fill="none" xmlns="http://www.w3.org/2000/svg">
<g clip-path="url(#clip0_837_12097)">
<g clip-path="url(#clip1_837_12097)">
<path d="M38.375 46C50.8027 46 60.875 35.9277 60.875 23.5C60.875 11.0723 50.8027 1 38.375 1C25.9473 1 15.875 11.0723 15.875 23.5C15.875 35.9277 25.9473 46 38.375 46ZM54.125 51.625H51.1895C47.2871 53.418 42.9453 54.4375 38.375 54.4375C33.8047 54.4375 29.4805 53.418 25.5605 51.625H22.625C9.58203 51.625 -1 62.207 -1 75.25V82.5625C-1 87.2207 2.7793 91 7.4375 91H69.3125C73.9707 91 77.75 87.2207 77.75 82.5625V75.25C77.75 62.207 67.168 51.625 54.125 51.625Z" fill="#E5E5E5"/>
</g>
<g clip-path="url(#clip2_837_12097)">
<mask id="path-2-outside-1_837_12097" maskUnits="userSpaceOnUse" x="44.334" y="49.3359" width="48" height="48" fill="black">
<rect fill="white" x="44.334" y="49.3359" width="48" height="48"/>
<path d="M54.1581 59.1601C54.419 58.8988 54.7289 58.6916 55.0699 58.5501C55.411 58.4087 55.7766 58.3359 56.1458 58.3359C56.515 58.3359 56.8806 58.4087 57.2217 58.5501C57.5628 58.6916 57.8726 58.8988 58.1335 59.1601L68.3344 69.3572L78.5353 59.1601C78.7963 58.8991 79.1062 58.692 79.4473 58.5507C79.7883 58.4095 80.1538 58.3368 80.523 58.3368C80.8921 58.3368 81.2577 58.4095 81.5987 58.5507C81.9398 58.692 82.2496 58.8991 82.5107 59.1601C82.7717 59.4211 82.9787 59.731 83.12 60.072C83.2613 60.4131 83.334 60.7786 83.334 61.1478C83.334 61.5169 83.2613 61.8824 83.12 62.2235C82.9787 62.5645 82.7717 62.8744 82.5107 63.1354L72.3135 73.3364L82.5107 83.5373C83.0378 84.0644 83.334 84.7794 83.334 85.5249C83.334 86.2705 83.0378 86.9854 82.5107 87.5126C81.9835 88.0398 81.2685 88.3359 80.523 88.3359C79.7775 88.3359 79.0625 88.0398 78.5353 87.5126L68.3344 77.3155L58.1335 87.5126C57.6063 88.0398 56.8913 88.3359 56.1458 88.3359C55.4003 88.3359 54.6853 88.0398 54.1581 87.5126C53.631 86.9854 53.3348 86.2705 53.3348 85.5249C53.3348 84.7794 53.631 84.0644 54.1581 83.5373L64.3553 73.3364L54.1581 63.1354C53.8969 62.8746 53.6896 62.5647 53.5482 62.2236C53.4068 61.8826 53.334 61.517 53.334 61.1478C53.334 60.7785 53.4068 60.4129 53.5482 60.0719C53.6896 59.7308 53.8969 59.421 54.1581 59.1601Z"/>
</mask>
<path d="M54.1581 59.1601L60.5176 65.5286L60.5266 65.5195L54.1581 59.1601ZM56.1458 58.3359V67.3359V58.3359ZM58.1335 59.1601L51.765 65.5195L51.7707 65.5252L58.1335 59.1601ZM68.3344 69.3572L61.9716 75.7224C65.4861 79.2355 71.1827 79.2355 74.6972 75.7224L68.3344 69.3572ZM78.5353 59.1601L84.8981 65.5252L84.8993 65.5241L78.5353 59.1601ZM80.523 58.3368V49.3368V58.3368ZM82.5107 63.1354L76.1467 56.7715L76.1455 56.7727L82.5107 63.1354ZM72.3135 73.3364L65.9484 66.9736C62.4352 70.488 62.4352 76.1847 65.9484 79.6991L72.3135 73.3364ZM82.5107 83.5373L76.1455 89.9001L76.1467 89.9012L82.5107 83.5373ZM78.5353 87.5126L84.8993 81.1487L84.8981 81.1475L78.5353 87.5126ZM68.3344 77.3155L74.6972 70.9503C71.1827 67.4372 65.4861 67.4372 61.9716 70.9503L68.3344 77.3155ZM58.1335 87.5126L51.7707 81.1475L51.7695 81.1487L58.1335 87.5126ZM54.1581 83.5373L60.5221 89.9012L60.5233 89.9001L54.1581 83.5373ZM64.3553 73.3364L70.7204 79.6991C74.2336 76.1847 74.2336 70.488 70.7204 66.9736L64.3553 73.3364ZM54.1581 63.1354L60.5233 56.7727L60.5176 56.767L54.1581 63.1354ZM60.5266 65.5195C59.9516 66.0953 59.2687 66.5522 58.517 66.8638L51.6228 50.2365C50.189 50.831 48.8864 51.7023 47.7896 52.8007L60.5266 65.5195ZM58.517 66.8638C57.7654 67.1755 56.9596 67.3359 56.1458 67.3359V49.3359C54.5936 49.3359 53.0566 49.6419 51.6228 50.2365L58.517 66.8638ZM56.1458 67.3359C55.332 67.3359 54.5263 67.1755 53.7746 66.8638L60.6688 50.2365C59.235 49.6419 57.698 49.3359 56.1458 49.3359V67.3359ZM53.7746 66.8638C53.0229 66.5522 52.34 66.0953 51.765 65.5195L64.502 52.8007C63.4052 51.7023 62.1026 50.831 60.6688 50.2365L53.7746 66.8638ZM51.7707 65.5252L61.9716 75.7224L74.6972 62.9921L64.4963 52.795L51.7707 65.5252ZM74.6972 75.7224L84.8981 65.5252L72.1725 52.795L61.9716 62.9921L74.6972 75.7224ZM84.8993 65.5241C84.3246 66.0987 83.6423 66.5546 82.8914 66.8657L76.0031 50.2358C74.5701 50.8294 73.2681 51.6994 72.1713 52.7961L84.8993 65.5241ZM82.8914 66.8657C82.1405 67.1767 81.3357 67.3368 80.523 67.3368V49.3368C78.9719 49.3368 77.4361 49.6423 76.0031 50.2358L82.8914 66.8657ZM80.523 67.3368C79.7102 67.3368 78.9054 67.1767 78.1546 66.8657L85.0429 50.2358C83.6099 49.6423 82.074 49.3368 80.523 49.3368V67.3368ZM78.1546 66.8657C77.4037 66.5546 76.7214 66.0987 76.1467 65.5241L88.8746 52.7961C87.7779 51.6994 86.4758 50.8294 85.0429 50.2358L78.1546 66.8657ZM76.1467 65.5241C75.572 64.9494 75.1161 64.2671 74.8051 63.5162L91.4349 56.6279C90.8414 55.1949 89.9714 53.8929 88.8746 52.7961L76.1467 65.5241ZM74.8051 63.5162C74.4941 62.7653 74.334 61.9606 74.334 61.1478L92.334 61.1478C92.334 59.5967 92.0285 58.0608 91.4349 56.6279L74.8051 63.5162ZM74.334 61.1478C74.334 60.335 74.4941 59.5302 74.8051 58.7793L91.4349 65.6676C92.0285 64.2347 92.334 62.6988 92.334 61.1478L74.334 61.1478ZM74.8051 58.7793C75.1161 58.0284 75.572 57.3462 76.1467 56.7715L88.8746 69.4994C89.9714 68.4027 90.8414 67.1006 91.4349 65.6676L74.8051 58.7793ZM76.1455 56.7727L65.9484 66.9736L78.6786 79.6991L88.8758 69.4982L76.1455 56.7727ZM65.9484 79.6991L76.1455 89.9001L88.8758 77.1745L78.6786 66.9736L65.9484 79.6991ZM76.1467 89.9012C74.9861 88.7406 74.334 87.1664 74.334 85.5249H92.334C92.334 82.3924 91.0896 79.3883 88.8746 77.1733L76.1467 89.9012ZM74.334 85.5249C74.334 83.8835 74.9861 82.3093 76.1467 81.1487L88.8746 93.8766C91.0896 91.6616 92.334 88.6574 92.334 85.5249H74.334ZM76.1467 81.1487C77.3073 79.988 78.8815 79.3359 80.523 79.3359V97.3359C83.6555 97.3359 86.6596 96.0915 88.8746 93.8766L76.1467 81.1487ZM80.523 79.3359C82.1644 79.3359 83.7386 79.988 84.8993 81.1487L72.1713 93.8766C74.3863 96.0915 77.3905 97.3359 80.523 97.3359V79.3359ZM84.8981 81.1475L74.6972 70.9503L61.9716 83.6806L72.1725 93.8777L84.8981 81.1475ZM61.9716 70.9503L51.7707 81.1475L64.4963 93.8777L74.6972 83.6806L61.9716 70.9503ZM51.7695 81.1487C52.9302 79.988 54.5044 79.3359 56.1458 79.3359V97.3359C59.2783 97.3359 62.2825 96.0915 64.4975 93.8766L51.7695 81.1487ZM56.1458 79.3359C57.7873 79.3359 59.3615 79.988 60.5221 81.1487L47.7942 93.8766C50.0092 96.0915 53.0133 97.3359 56.1458 97.3359V79.3359ZM60.5221 81.1487C61.6828 82.3093 62.3348 83.8835 62.3348 85.5249H44.3348C44.3348 88.6574 45.5792 91.6616 47.7942 93.8766L60.5221 81.1487ZM62.3348 85.5249C62.3348 87.1664 61.6828 88.7406 60.5221 89.9012L47.7942 77.1733C45.5792 79.3883 44.3348 82.3925 44.3348 85.5249H62.3348ZM60.5233 89.9001L70.7204 79.6991L57.9902 66.9736L47.793 77.1745L60.5233 89.9001ZM70.7204 66.9736L60.5233 56.7727L47.793 69.4982L57.9902 79.6991L70.7204 66.9736ZM60.5176 56.767C61.0934 57.342 61.5502 58.0248 61.8619 58.7765L45.2345 65.6708C45.829 67.1046 46.7004 68.4071 47.7987 69.5039L60.5176 56.767ZM61.8619 58.7765C62.1736 59.5282 62.334 60.334 62.334 61.1478H44.334C44.334 62.7 44.64 64.2369 45.2345 65.6708L61.8619 58.7765ZM62.334 61.1478C62.334 61.9615 62.1736 62.7673 61.8619 63.519L45.2345 56.6248C44.64 58.0586 44.334 59.5956 44.334 61.1478H62.334ZM61.8619 63.519C61.5502 64.2707 61.0934 64.9536 60.5176 65.5286L47.7987 52.7916C46.7004 53.8884 45.829 55.1909 45.2345 56.6248L61.8619 63.519Z" fill="white" mask="url(#path-2-outside-1_837_12097)"/>
<path d="M54.6889 57.6264C54.2266 57.8181 53.8066 58.0989 53.453 58.453C53.0989 58.8066 52.8181 59.2266 52.6264 59.6889C52.4346 60.1514 52.3359 60.6471 52.3359 61.1478C52.3359 61.6484 52.4346 62.1442 52.6264 62.6067C52.8181 63.069 53.099 63.489 53.4531 63.8427C53.4533 63.8428 53.4534 63.8429 53.4535 63.8431L62.9433 73.3364L53.453 82.8302C52.7383 83.5449 52.3368 84.5142 52.3368 85.5249C52.3368 86.5357 52.7383 87.505 53.453 88.2197L54.1543 87.5184L53.453 88.2197C54.1677 88.9344 55.137 89.3359 56.1478 89.3359C57.1584 89.3359 58.1277 88.9345 58.8424 88.2199C58.8425 88.2198 58.8425 88.2198 58.8426 88.2197L68.3364 78.7294L77.8302 88.2197C78.5449 88.9344 79.5142 89.3359 80.5249 89.3359C81.5357 89.3359 82.505 88.9344 83.2197 88.2197C83.9344 87.505 84.3359 86.5357 84.3359 85.5249C84.3359 84.5142 83.9344 83.5449 83.2197 82.8302L73.7294 73.3364L83.2197 63.8425C83.2198 63.8425 83.2198 63.8425 83.2199 63.8424C83.5737 63.4886 83.8543 63.0685 84.0458 62.6062C84.2374 62.1438 84.3359 61.6482 84.3359 61.1478C84.3359 60.6473 84.2374 60.1517 84.0458 59.6894C83.8543 59.227 83.5736 58.8069 83.2197 58.453C82.8658 58.0991 82.4457 57.8184 81.9833 57.6269C81.521 57.4353 81.0254 57.3368 80.5249 57.3368C80.0245 57.3368 79.5289 57.4353 79.0665 57.6269C78.6042 57.8184 78.184 58.0991 77.8302 58.453L68.3364 67.9433L58.8431 58.4535C58.8429 58.4534 58.8428 58.4533 58.8427 58.4531C58.489 58.099 58.069 57.8181 57.6067 57.6264C57.1442 57.4346 56.6484 57.3359 56.1478 57.3359C55.6471 57.3359 55.1514 57.4346 54.6889 57.6264Z" fill="#af6249" stroke="#af6249" stroke-width="2" stroke-linejoin="round"/>
</g>
</g>
<defs>
<clipPath id="clip0_837_12097">
<rect width="100" height="100" fill="white"/>
</clipPath>
<clipPath id="clip1_837_12097">
<rect width="78.75" height="90" fill="white" transform="translate(-1 1)"/>
</clipPath>
<clipPath id="clip2_837_12097">
<rect width="50" height="50" fill="white" transform="translate(45 50)"/>
</clipPath>
</defs>
</svg>
