<svg width="101" height="100" viewBox="0 0 101 100" fill="none" xmlns="http://www.w3.org/2000/svg">
<g clip-path="url(#clip0_282_8985)">
<path d="M90.9722 49.4861C90.9722 51.9861 88.8889 53.9444 86.5278 53.9444H82.0833L82.1806 76.1944C82.2083 81.125 78.2222 85.125 73.2917 85.125H28.7917C23.8889 85.125 19.9028 81.1389 19.9028 76.2361V53.9444H15.4444C12.9444 53.9444 11 52 11 49.4861C11 48.2361 11.4167 47.125 12.3889 46.1528L48 15.1111C48.9722 14.1389 50.0833 14 51.0556 14C52.0278 14 53.1389 14.2778 53.9722 14.9722L89.4444 46.1528C90.5556 47.125 91.1111 48.2361 90.9722 49.4861ZM59.8889 45.1111C59.8889 42.7536 58.9524 40.4927 57.2854 38.8257C55.6184 37.1587 53.3575 36.2222 51 36.2222C48.6425 36.2222 46.3816 37.1587 44.7146 38.8257C43.0476 40.4927 42.1111 42.7536 42.1111 45.1111C42.1111 47.4686 43.0476 49.7295 44.7146 51.3965C46.3816 53.0635 48.6425 54 51 54C53.3575 54 55.6184 53.0635 57.2854 51.3965C58.9524 49.7295 59.8889 47.4686 59.8889 45.1111ZM46.5556 58.4444C40.4167 58.4444 35.4444 63.4167 35.4444 69.5556C35.4444 70.7778 36.4444 71.7778 37.6667 71.7778H64.3333C65.5556 71.7778 66.5556 70.7778 66.5556 69.5556C66.5556 63.4167 61.5833 58.4444 55.4444 58.4444H46.5556Z" fill="#af6249"/>
</g>
<defs>
<clipPath id="clip0_282_8985">
<rect width="80" height="71.1111" fill="white" transform="translate(11 14)"/>
</clipPath>
</defs>
</svg>
