<svg width="48" height="49" viewBox="0 0 48 49" fill="none" xmlns="http://www.w3.org/2000/svg">
<g id="icon_Hyundai_folder">
<path id="Vector" d="M26 38.5C26 39.18 26.08 39.84 26.18 40.5H8C6.93913 40.5 5.92172 40.0786 5.17157 39.3284C4.42143 38.5783 4 37.5609 4 36.5V12.5C4 10.28 5.78 8.5 8 8.5H20L24 12.5H40C41.0609 12.5 42.0783 12.9214 42.8284 13.6716C43.5786 14.4217 44 15.4391 44 16.5V28.12C42.24 27.1 40.2 26.5 38 26.5C31.38 26.5 26 31.88 26 38.5Z" fill="#999999"/>
<path id="Vector_2" d="M45.08 34.2604L42.24 31.4404L38 35.6804L33.76 31.4404L30.94 34.2604L35.18 38.5004L30.94 42.7404L33.76 45.5804L38 41.3204L42.24 45.5804L45.08 42.7404L40.82 38.5004L45.08 34.2604Z" fill="#af6249"/>
</g>
</svg>
