<svg width="100" height="100" viewBox="0 0 100 100" fill="none" xmlns="http://www.w3.org/2000/svg">
<g id="mingcute:bank-card-fill" clip-path="url(#clip0_837_11947)">
<path id="Vector" d="M97.5 70.9998H85V18.7264C85 14.467 81.6359 10.9998 77.5 10.9998H60V20.9998H75V80.9998H97.5C98.8812 80.9998 100 79.8811 100 78.4998V73.4998C100 72.1186 98.8812 70.9998 97.5 70.9998ZM48.7875 1.15766L18.7875 8.92954C16.5609 9.5061 15 11.578 15 13.9561V70.9998H2.5C1.11875 70.9998 0 72.1186 0 73.4998V78.4998C0 79.8811 1.11875 80.9998 2.5 80.9998H55V6.18422C55 2.81235 51.9437 0.33891 48.7875 1.15766ZM41.25 45.9998C39.1797 45.9998 37.5 43.7608 37.5 40.9998C37.5 38.2389 39.1797 35.9998 41.25 35.9998C43.3203 35.9998 45 38.2389 45 40.9998C45 43.7608 43.3203 45.9998 41.25 45.9998Z" fill="#E5E5E5"/>
<g id="Group 2657">
<path id="Subtract" d="M73.7794 101.084L73.7807 101.082L95.7116 76.4523C96.4835 75.6181 97.0846 74.6389 97.4769 73.5688C97.8763 72.4796 98.0504 71.3208 97.9874 70.1614C97.9245 69.002 97.6261 67.8691 97.1122 66.8299C96.5983 65.7908 95.8804 64.8682 95.0042 64.1141C94.1282 63.3601 93.1114 62.7893 92.015 62.432C90.9188 62.0747 89.7626 61.9372 88.6138 62.0264C87.465 62.1156 86.3435 62.43 85.3151 62.9535C84.3038 63.4683 83.401 64.176 82.6604 65.0393L66.0269 83.7223L59.9024 79.2084L57.7099 82.1833L59.9024 79.2084C58.9875 78.5341 57.9501 78.0461 56.8503 77.7692C55.7505 77.4923 54.607 77.4312 53.4842 77.5888C52.3614 77.7464 51.2782 78.1202 50.2965 78.6914C49.3148 79.2626 48.4524 80.021 47.7614 80.9264C47.0703 81.832 46.5646 82.8663 46.2766 83.9711C45.9885 85.076 45.9246 86.2269 46.0889 87.3573C46.2532 88.4875 46.6421 89.5718 47.2304 90.5483C47.8187 91.5246 48.5941 92.3729 49.5091 93.0473L62.0579 102.296L62.059 102.297C63.8139 103.589 65.9893 104.176 68.1513 103.954C70.3138 103.732 72.3263 102.714 73.7794 101.084Z" fill="white" stroke="white" stroke-width="8"/>
<path id="Subtract_2" d="M93.7214 72.1919C93.5085 72.7725 93.1795 73.3055 92.7537 73.7592L70.7933 98.4225C70.0118 99.2993 68.9222 99.8537 67.7426 99.9749C66.5629 100.096 65.3802 99.7751 64.4311 99.076L51.8823 89.8273C51.3879 89.463 50.9714 89.0065 50.6566 88.4839C50.3417 87.9614 50.1347 87.383 50.0473 86.7818C49.9599 86.1806 49.9939 85.5684 50.1472 84.9802C50.3006 84.3919 50.5704 83.8391 50.9412 83.3532C51.3119 82.8674 51.7765 82.4581 52.3082 82.1487C52.84 81.8393 53.4285 81.6358 54.0403 81.55C54.6521 81.4641 55.275 81.4975 55.8737 81.6482C56.4723 81.7989 57.0349 82.064 57.5293 82.4284L66.5895 89.1059L85.6761 67.6674C86.0778 67.1929 86.572 66.8021 87.1297 66.5182C87.6874 66.2343 88.2974 66.063 88.9235 66.0144C89.5497 65.9657 90.1794 66.0408 90.7756 66.2351C91.3717 66.4294 91.9223 66.739 92.3948 67.1457C92.8673 67.5524 93.2521 68.0479 93.5267 68.6031C93.8012 69.1582 93.9599 69.7617 93.9933 70.3781C94.0268 70.9945 93.9343 71.6112 93.7214 72.1919Z" fill="#af6249"/>
</g>
</g>
<defs>
<clipPath id="clip0_837_11947">
<rect width="100" height="100" fill="white"/>
</clipPath>
</defs>
</svg>
