<svg id="logout" xmlns="http://www.w3.org/2000/svg" width="18" height="18" viewBox="0 0 18 18">
  <rect id="Container" width="18" height="18" fill="none"/>
  <path id="패스_516" data-name="패스 516" d="M32.938,21.9h9.976a.508.508,0,0,1,.51.51V37.374a.508.508,0,0,1-.51.51H32.938a.508.508,0,0,1-.51-.51V34.115a.51.51,0,1,1,1.02,0v2.777H42.4v-14H33.42v2.862a.51.51,0,1,1-1.02,0V22.41A.553.553,0,0,1,32.938,21.9Z" transform="translate(-27.503 -20.962)"/>
  <path id="패스_517" data-name="패스 517" d="M27.3,44.069h0a.582.582,0,0,1,0-.822l1.219-1.219c.368-.368.964-.992.964-.992H22.967a.568.568,0,0,1-.567-.567h0a.568.568,0,0,1,.567-.567h6.49s-.6-.623-.964-.992L27.3,37.692a.582.582,0,0,1,0-.822h0a.582.582,0,0,1,.822,0l3.146,3.174a.582.582,0,0,1,0,.822l-3.174,3.2A.548.548,0,0,1,27.3,44.069Z" transform="translate(-20.338 -31.568)"/>
</svg>
