<svg id="setting" xmlns="http://www.w3.org/2000/svg" width="96" height="96" viewBox="0 0 96 96">
  <path id="타원_" data-name="타원 " d="M20.076-1.5A21.576,21.576,0,1,1-1.5,20.076,21.6,21.6,0,0,1,20.076-1.5Zm0,35.712A14.136,14.136,0,1,0,5.94,20.076,14.152,14.152,0,0,0,20.076,34.212Z" transform="translate(27.5 27.5)" fill="#010101"/>
  <path id="패스_" data-name="패스 " d="M64.911,9.7h16.12a6.085,6.085,0,0,1,5.841,4.554l.01.041,2.465,10.354a.373.373,0,0,0,.068.089l.183.092,2.182,1.455a1.755,1.755,0,0,0,.542.13L102.7,23.451a5.886,5.886,0,0,1,1.426-.176h0a6.144,6.144,0,0,1,5.051,2.713l.071.107,8.182,14.319.116.349A6.52,6.52,0,0,1,116.15,47.3l-7.688,7.688a.4.4,0,0,0-.15.346v.458l-.427,1.709a.891.891,0,0,0,.1.177l7.674,7.674a6.008,6.008,0,0,1,1.193,7.022l-.1.182-8,14-.071.107a6.144,6.144,0,0,1-5.051,2.713A5.887,5.887,0,0,1,102.2,89.2l-.12-.032-10.255-2.93a1.834,1.834,0,0,0-.631.167l-1.781,1.013a.37.37,0,0,0-.069.091l-2.729,10.42a6.086,6.086,0,0,1-5.834,4.526H64.663a6.086,6.086,0,0,1-5.834-4.526L56.1,87.507a.37.37,0,0,0-.069-.091l-.158-.085L54.25,86.4a1.834,1.834,0,0,0-.631-.167L43.245,89.2a5.887,5.887,0,0,1-1.427.176,6.144,6.144,0,0,1-5.051-2.713l-.071-.107L28.744,72.636a5.974,5.974,0,0,1,.8-7.286l7.688-7.688a.4.4,0,0,0,.15-.346v-2.2a1.13,1.13,0,0,0-.165-.391L29.284,46.79l-.2-.306a6.381,6.381,0,0,1-.48-6.455l.051-.1,8.3-14.336.065-.1a6.144,6.144,0,0,1,5.051-2.713,5.887,5.887,0,0,1,1.427.176l.12.032,10.255,2.93a1.834,1.834,0,0,0,.631-.167l1.781-1.013a.37.37,0,0,0,.069-.091l2.729-10.42A6.086,6.086,0,0,1,64.911,9.7Zm15,7.44H66L63.553,26.5a7.619,7.619,0,0,1-3.814,4.824l-1.845,1.047a9.245,9.245,0,0,1-4.046.986,7.2,7.2,0,0,1-1.744-.208l-.12-.032-9.263-2.647L35.669,42.653l6.824,6.824a8.329,8.329,0,0,1,2.33,5.606v2.232a7.777,7.777,0,0,1-2.33,5.606l-6.829,6.829L42.481,81.68,51.857,79A7.2,7.2,0,0,1,53.6,78.8a9.245,9.245,0,0,1,4.046.986l.182.1,1.663.95a7.619,7.619,0,0,1,3.814,4.824l2.451,9.36H79.689l2.451-9.36a7.619,7.619,0,0,1,3.814-4.824L87.8,79.781a9.245,9.245,0,0,1,4.046-.986A7.2,7.2,0,0,1,93.589,79l.12.032,9.256,2.645,6.726-11.771L102.7,62.923a8.329,8.329,0,0,1-2.33-5.606v-.458l.512-2.049a7.762,7.762,0,0,1,2.313-5.084l6.987-6.987-6.726-11.771-9.376,2.677a7.2,7.2,0,0,1-1.744.208,9.245,9.245,0,0,1-4.046-.986l-.207-.1-2.267-1.511a7.622,7.622,0,0,1-3.687-4.778l-.01-.041Z" transform="translate(-24.86 -7.7)" fill="#010101"/>
  <rect id="사각형_114" data-name="사각형 114" width="96" height="96" fill="none"/>
</svg>
