<svg xmlns="http://www.w3.org/2000/svg" width="30" height="30" viewBox="0 0 30 30">
  <g id="anonimous_icon" data-name="anonimous icon" transform="translate(-12 -9)">
    <circle id="타원_131" data-name="타원 131" cx="15" cy="15" r="15" transform="translate(12 9)" fill="#d5d5d5"/>
    <g id="그룹_6907" data-name="그룹 6907" transform="translate(18.857 13.822)">
      <g id="타원_181" data-name="타원 181" transform="translate(3.148)" fill="#fff" stroke="#c7c7c7" stroke-width="1">
        <circle cx="4.722" cy="4.722" r="4.722" stroke="none"/>
        <circle cx="4.722" cy="4.722" r="4.222" fill="none"/>
      </g>
      <g id="빼기_7" data-name="빼기 7" transform="translate(0 10.232)" fill="#fff">
        <path d="M 16.01598358154297 8.944478034973145 L 0.5117760300636292 8.944478034973145 C 0.5039416551589966 8.79680347442627 0.4999960064888 8.648420333862305 0.4999960064888 8.500377655029297 C 0.4999960064888 6.360737800598145 1.309355974197388 4.349807739257812 2.778995990753174 2.838017702102661 C 4.244986057281494 1.330337643623352 6.192935943603516 0.4999975860118866 8.263985633850098 0.4999975860118866 C 10.33507633209229 0.4999975860118866 12.2829761505127 1.33032763004303 13.74886608123779 2.838047504425049 C 15.21847629547119 4.349667549133301 16.02783584594727 6.360587596893311 16.02783584594727 8.500377655029297 C 16.02783584594727 8.648087501525879 16.02386856079102 8.796446800231934 16.01598358154297 8.944478034973145 Z" stroke="none"/>
        <path d="M 15.52763938903809 8.444478034973145 C 15.51369667053223 6.456501960754395 14.75594806671143 4.591194629669189 13.39037609100342 3.186587572097778 C 12.01944637298584 1.77654755115509 10.19885635375977 0.999997615814209 8.263985633850098 0.999997615814209 C 6.329145908355713 0.999997615814209 4.508505821228027 1.776557564735413 3.137506008148193 3.186537504196167 C 1.771903872489929 4.591312885284424 1.014135360717773 6.456628322601318 1.000192761421204 8.444478034973145 L 15.52763938903809 8.444478034973145 M 16.47735595703125 9.444478034973145 L 0.05047601461410522 9.444478034973145 C 0.01677601598203182 9.132257461547852 -3.984374870924512e-06 8.814817428588867 -3.984374870924512e-06 8.500377655029297 C -3.984374870924512e-06 6.229777812957764 0.8596659898757935 4.095077514648438 2.420475959777832 2.489497661590576 C 3.981436014175415 0.884147584438324 6.056546211242676 -2.413024958514143e-06 8.263985633850098 -2.413024958514143e-06 C 10.47128582000732 -2.413024958514143e-06 12.54653644561768 0.884147584438324 14.10735607147217 2.489497661590576 C 15.66831588745117 4.095077514648438 16.52783584594727 6.229777812957764 16.52783584594727 8.500377655029297 C 16.52783584594727 8.814357757568359 16.51090621948242 9.131877899169922 16.47735595703125 9.443937301635742 L 16.47735595703125 9.444478034973145 Z" stroke="none" fill="#c7c7c7"/>
      </g>
    </g>
  </g>
</svg>
